#N canvas 622 164 566 622 12;
#X obj 32 543 ui.gain2~ @size 116 15 @receive "vol.main" @send "(null)" @nosave 0 @pinned 0 @presetname "(null)" @mouse_events 0 @background_color 0.93 0.93 0.93 1 @border_color 0.6 0.6 0.6 1 @label_color 0 0 0 1 @knob_color 0 0.75 1 1 @fontname "Helvetica" @fontweight "normal" @fontslant "roman" @fontsize 11 @label "(null)" @label_inner 0 @label_side "top" @label_align "left" @label_valign "top" @label_margins 0 0 @max 0 @min -60 @output_value 0 @relative 1 @midi_channel 0 @midi_control 0 @midi_pickup 1 @show_range 1;
#X obj 32 567 dac~, f 16;
#X obj 134 236 s \$0-next;
#X obj 32 181 r speech;
#X obj 405 187 ui.bang @size 44 44 @receive "(null)" @send "(null)" @nosave 0 @pinned 0 @background_color 0.93 0.93 0.93 1 @border_color 0.6 0.6 0.6 1 @label_color 1 0.3399 0.533564 1 @active_color 0 0.75 1 1 @fontname "Helvetica" @fontweight "normal" @fontslant "roman" @fontsize 11 @label "PRESS\ TO\ START" @label_inner 0 @label_side "top" @label_align "left" @label_valign "top" @label_margins 0 0;
#X obj 197 477 ui.display @size 300 100 @receive "(null)" @send "(null)" @nosave 0 @pinned 0 @background_color 0.93 0.93 0.93 1 @border_color 0.6 0.6 0.6 1 @label_color 0 0 0 1 @text_color 0 0 0 1 @active_color 0 0.75 1 1 @fontname "Helvetica" @fontweight "normal" @fontslant "roman" @fontsize 11 @label "(null)" @label_inner 0 @label_side "top" @label_align "left" @label_valign "top" @label_margins 0 0 @display_events 1 @display_type 1 @auto_size 0 @float_width -1 @hex 0 @hex_width 2;
#X obj 197 403 r speech;
#X obj 46 476 catch~ \$0-outl;
#X obj 46 501 catch~ \$0-outr;
#X obj 32 210 speech.rhvoice~;
#N canvas 765 85 739 527 luactl 0;
#X obj 231 97 r \$0-next;
#X msg 177 247 bang;
#X obj 177 308 ui.display @size 54 18 @receive "(null)" @send "(null)" @nosave 0 @pinned 0 @background_color 0.93 0.93 0.93 1 @border_color 0.6 0.6 0.6 1 @label_color 0 0 0 1 @text_color 0 0 0 1 @active_color 0 0.75 1 1 @fontname "Helvetica" @fontweight "normal" @fontslant "roman" @fontsize 11 @label "(null)" @label_inner 0 @label_side "top" @label_align "left" @label_valign "top" @label_margins 0 0 @display_events 1 @display_type 1 @auto_size 1 @float_width -1 @hex 0 @hex_width 2;
#X msg 231 247 call next;
#X obj 177 282 lang.lua 2 2;
#A .restore;
#X obj 177 97 inlet;
#X obj 177 389 s speech;
#X obj 330 235 loadbang;
#X msg 330 261 load release_@CEAMMC_LIB_VERSION@_@LANG@.lua;
#X obj 231 123 route.b;
#X obj 231 149 del 300;
#X connect 0 0 9 0;
#X connect 1 0 4 0;
#X connect 3 0 4 0;
#X connect 4 0 2 0;
#X connect 4 0 6 0;
#X connect 5 0 1 0;
#X connect 7 0 8 0;
#X connect 8 0 4 0;
#X connect 9 0 10 0;
#X connect 10 0 3 0;
#X restore 405 236 pd luactl;
#X obj 28 25 ui.label @size 483 77 @receive "(null)" @send "(null)" @nosave 0 @pinned 1 @background_color 1 1 1 1 @border_color 0.6 0.6 0.6 1 @label_color 0 0 0 1 @text_color 0 0 0 1 @label "(null)" @label_inner 0 @label_side "top" @label_align "left" @label_valign "top" @label_margins 0 0 @align "left" @text "CEAMMC" "library" "v@CEAMMC_LIB_VERSION@" @fontname "Helvetica" @fontweight "normal" @fontslant "roman" @fontsize 32 @margin_top 5 @margin_left 5 @margin_bottom 5 @margin_right 5;
#N canvas 1180 236 427 256 morse~ 0;
#X obj 97 39 r morse;
#X obj 97 65 proto.morse 50;
#X obj 97 91 lop~ 10;
#X obj 97 117 *~;
#X obj 157 91 osc~ 1000;
#X obj 97 143 throw~ \$0-outl;
#X obj 217 143 throw~ \$0-outr;
#X connect 0 0 1 0;
#X connect 1 0 2 0;
#X connect 2 0 3 0;
#X connect 3 0 5 0;
#X connect 3 0 6 0;
#X connect 4 0 3 1;
#X restore 196 307 pd morse~;
#X connect 0 0 1 0;
#X connect 0 1 1 1;
#X connect 3 0 9 0;
#X connect 4 0 10 0;
#X connect 6 0 5 0;
#X connect 7 0 0 0;
#X connect 8 0 0 1;
#X connect 9 0 0 1;
#X connect 9 0 0 0;
#X connect 9 1 2 0;
