#N canvas 685 438 886 417 12;
#X obj 32 60 speech.flite~;
#X obj 32 293 pan~;
#X obj 32 323 ui.gain2~ @size 116 15 @receive "vol.main" @send "(null)"
@pinned 0 @presetname "(null)" @mouse_events 0 @background_color 0.93
0.93 0.93 1 @border_color 0.6 0.6 0.6 1 @label_color 0 0 0 1 @knob_color
0 0.75 1 1 @fontname "Helvetica" @fontweight "normal" @fontslant "roman"
@fontsize 11 @label "(null)" @label_inner 0 @label_side "top" @label_align
"left" @label_valign "top" @label_margins 0 0 @max 0 @min -60 @output_value
0 @relative 1 @midi_channel 0 @midi_control 0 @midi_pickup 1 @show_range
1;
#X obj 32 347 dac~, f 16;
#X obj 120 86 s \$0-next;
#X obj 57 266 r pan;
#X obj 32 31 r speech;
#N canvas 113 243 700 500 qlist 0;
#X obj 73 257 qlist;
#X msg 73 179 next;
#X obj 73 46 r \$0-next;
#X obj 73 98 sel 1;
#X obj 73 72 == 0;
#X obj 123 72 r sleep;
#X obj 123 98 t b b f;
#X msg 123 124 0;
#X obj 123 150 del 0;
#X obj 209 46 inlet start;
#X obj 117 179 loadmsg read release_qlist_@CEAMMC_LIB_VERSION@.txt
;
#X obj 209 72 t b b;
#X msg 241 101 rewind;
#X obj 117 205 msg.after 0 rewind;
#X obj 315 305 s vol.main;
#X obj 315 279 loadmsg @db -6;
#X connect 1 0 0 0;
#X connect 2 0 4 0;
#X connect 3 0 1 0;
#X connect 4 0 3 0;
#X connect 5 0 6 0;
#X connect 6 0 7 0;
#X connect 6 1 8 0;
#X connect 6 2 8 1;
#X connect 7 0 8 1;
#X connect 8 0 1 0;
#X connect 9 0 11 0;
#X connect 10 0 13 0;
#X connect 11 0 1 0;
#X connect 11 1 12 0;
#X connect 12 0 0 0;
#X connect 13 0 0 0;
#X connect 15 0 14 0;
#X restore 230 72 pd qlist;
#X obj 230 23 ui.bang @size 44 44 @receive "(null)" @send "(null)"
@pinned 0 @background_color 0.93 0.93 0.93 1 @border_color 0.6 0.6
0.6 1 @label_color 0 0 0 1 @active_color 0 0.75 1 1 @fontname "Helvetica"
@fontweight "normal" @fontslant "roman" @fontsize 11 @label "(null)"
@label_inner 0 @label_side "top" @label_align "left" @label_valign
"top" @label_margins 0 0;
#X obj 157 297 ui.display @size 137 18 @receive "(null)" @send "(null)"
@pinned 0 @background_color 0.93 0.93 0.93 1 @border_color 0.6 0.6
0.6 1 @label_color 0 0 0 1 @text_color 0 0 0 1 @active_color 0 0.75
1 1 @fontname "Helvetica" @fontweight "normal" @fontslant "roman" @fontsize
11 @label "(null)" @label_inner 0 @label_side "top" @label_align "left"
@label_valign "top" @label_margins 0 0 @display_events 1 @display_type
0 @auto_size 1 @float_width -1 @hex 0 @hex_width 2;
#X obj 157 248 route list;
#X obj 157 273 list;
#X obj 42 223 catch~ \$0-out;
#X obj 42 116 s~ \$0-v;
#X obj 78 161 r main;
#X obj 32 192 gain~;
#N canvas 0 23 620 393 fx.recho~ 0;
#X obj 205 113 gain~ @db 0;
#X obj 279 74 r fx-recho;
#X obj 302 102 tgl 15 0 empty empty empty 17 7 0 10 -262144 -1 -1 0
1;
#X obj 205 183 throw~ \$0-out;
#X obj 205 61 r~ \$0-v;
#X obj 205 147 fx.recho~ 2500 @feedback 0;
#X connect 0 0 5 0;
#X connect 1 0 0 1;
#X connect 1 0 2 0;
#X connect 4 0 0 0;
#X connect 5 0 3 0;
#X restore 358 26 pd fx.recho~;
#N canvas 0 23 535 385 fx.rb_pitchisft~ 0;
#X obj 177 128 gain~ @db 0;
#X obj 290 141 tgl 15 0 empty empty empty 17 7 0 10 -262144 -1 -1 0
1;
#X obj 290 81 r fx-ps;
#X obj 290 107 route on;
#X obj 177 208 throw~ \$0-out;
#X obj 177 172 fx.rb_pitchshift~;
#X floatatom 343 132 5 0 0 0 - - -;
#X obj 177 86 r~ \$0-v;
#X connect 0 0 5 0;
#X connect 2 0 3 0;
#X connect 3 0 0 1;
#X connect 3 0 1 0;
#X connect 3 1 5 1;
#X connect 3 1 6 0;
#X connect 5 0 4 0;
#X connect 7 0 0 0;
#X restore 358 62 pd fx.rb_pitchisft~;
#X obj 157 223 r speech;
#X obj 358 136 r~ \$0-v;
#X obj 358 162 gain~;
#X obj 432 136 r fx-shimmer;
#X obj 432 162 tgl 15 0 empty empty empty 17 7 0 10 -262144 -1 -1 0
1;
#X obj 358 188 fx.shimmer~;
#X obj 358 214 throw~ \$0-out;
#X obj 538 244 throw~ \$0-out;
#X obj 538 188 gain~;
#X obj 652 86 r mosc;
#X obj 652 112 route on;
#X obj 652 168 tgl 15 0 empty empty empty 17 7 0 10 -262144 -1 -1 0
1;
#X floatatom 705 141 5 0 0 0 - - -;
#X obj 538 162 lfo.mosc~ 250;
#X obj 538 214 gain~ @db -15;
#X connect 0 0 13 0;
#X connect 0 0 15 0;
#X connect 0 1 4 0;
#X connect 1 0 2 0;
#X connect 1 1 2 1;
#X connect 2 0 3 0;
#X connect 2 1 3 1;
#X connect 5 0 1 1;
#X connect 6 0 0 0;
#X connect 8 0 7 0;
#X connect 10 0 11 0;
#X connect 11 0 9 0;
#X connect 12 0 1 0;
#X connect 14 0 15 1;
#X connect 15 0 1 0;
#X connect 18 0 10 0;
#X connect 19 0 20 0;
#X connect 20 0 23 0;
#X connect 21 0 22 0;
#X connect 22 0 20 1;
#X connect 23 0 24 0;
#X connect 26 0 32 0;
#X connect 27 0 28 0;
#X connect 28 0 29 0;
#X connect 28 1 30 0;
#X connect 29 0 26 1;
#X connect 30 0 31 1;
#X connect 31 0 26 0;
#X connect 32 0 25 0;
