#N canvas 72 23 659 523 10;
#X msg 70 114 bang;
#X obj 61 195 route x y;
#X floatatom 48 219 5 0 0 0 x - -, f 5;
#X floatatom 86 219 5 0 0 1 y - -, f 5;
#X obj 61 89 tgl 15 0 empty empty empty 17 7 0 10 -262144 -1 -1 0 1
;
#X floatatom 150 235 5 0 0 1 mousewheel - -, f 5;
#X obj 61 161 route motion mousewheel button;
#X text 80 86 turn on to get mouse motion and buttons;
#X obj 179 187 route 1 2 3;
#X obj 179 207 tgl 15 0 empty empty empty 17 7 0 10 -262144 -1 -1 0
1;
#X obj 200 207 tgl 15 0 empty empty empty 17 7 0 10 -262144 -1 -1 0
1;
#X obj 221 207 tgl 15 0 empty empty empty 17 7 0 10 -262144 -1 -1 0
1;
#X text 242 206 <-- mouse buttons;
#X text 101 113 or bang to get the current mouse position;
#X obj 61 137 system.cursor;
#X connect 0 0 14 0;
#X connect 1 0 2 0;
#X connect 1 1 3 0;
#X connect 4 0 14 0;
#X connect 6 0 1 0;
#X connect 6 1 5 0;
#X connect 6 2 8 0;
#X connect 8 0 9 0;
#X connect 8 1 10 0;
#X connect 8 2 11 0;
#X connect 14 0 6 0;
