#N canvas 0 0 950 600 12;
#X obj 25 125 dyn.comp~;
#X obj 25 25 inlet~;
#X obj 425 25 inlet;
#X obj 425 200 route dyn.comp;
#X obj 425 250 route @attack @ratio @release @threshold;
#X obj 675 350 print unknown property;
#X msg 325 75 @attack 10 \, @ratio 1 \, @release 50 \, @threshold 100 \,;
#X obj 325 25 msg.onload;
#X obj 500 550 outlet~;
#X obj 600 550 outlet ctl;
#X obj 3 202 cnv 8 198 18 empty empty [dyn.comp~] 3 9 0 12 -104026
-262144 0;
#X obj 12 238 ui.slider @size 125 12 @active_scale 1 @label
attack(ms): @label_side top @label_align left @fontsize 10 @presetname
/gui/\$1/dyn.comp~/slider0 @min 1 @max 100;
#X obj 190 238 sync;
#X obj 145 238 ui.number @size 50 12 @min 1 @max 100 @digits 2;
#X msg 260 238 @attack \$1;
#X obj 12 270 ui.slider @size 125 12 @active_scale 1 @label ratio:
@label_side top @label_align left @fontsize 10 @presetname
/gui/\$1/dyn.comp~/slider1 @min 1 @max 10;
#X obj 190 270 sync;
#X obj 145 270 ui.number @size 50 12 @min 1 @max 10 @digits 3;
#X msg 260 270 @ratio \$1;
#X obj 12 302 ui.slider @size 125 12 @active_scale 1 @label
release(ms): @label_side top @label_align left @fontsize 10
@presetname /gui/\$1/dyn.comp~/slider2 @min 1 @max 500;
#X obj 190 302 sync;
#X obj 145 302 ui.number @size 50 12 @min 1 @max 500 @digits 1;
#X msg 260 302 @release \$1;
#X obj 12 334 ui.slider @size 125 12 @active_scale 1 @label
threshold(db): @label_side top @label_align left @fontsize 10
@presetname /gui/\$1/dyn.comp~/slider3 @min 0 @max 100;
#X obj 190 334 sync;
#X obj 145 334 ui.number @size 50 12 @min 0 @max 100 @digits 2;
#X msg 260 334 @threshold \$1;
#X connect 1 0 0 0;
#X connect 2 0 3 0;
#X connect 3 0 4 0;
#X connect 4 4 5 0;
#X connect 6 0 4 0;
#X connect 7 0 6 0;
#X connect 0 0 8 0;
#X connect 3 1 9 0;
#X connect 11 0 12 0;
#X connect 12 0 11 0;
#X connect 13 0 12 1;
#X connect 12 1 13 0;
#X connect 11 0 14 0;
#X connect 14 0 0 0;
#X connect 4 0 11 0;
#X connect 15 0 16 0;
#X connect 16 0 15 0;
#X connect 17 0 16 1;
#X connect 16 1 17 0;
#X connect 15 0 18 0;
#X connect 18 0 0 0;
#X connect 4 1 15 0;
#X connect 19 0 20 0;
#X connect 20 0 19 0;
#X connect 21 0 20 1;
#X connect 20 1 21 0;
#X connect 19 0 22 0;
#X connect 22 0 0 0;
#X connect 4 2 19 0;
#X connect 23 0 24 0;
#X connect 24 0 23 0;
#X connect 25 0 24 1;
#X connect 24 1 25 0;
#X connect 23 0 26 0;
#X connect 26 0 0 0;
#X connect 4 3 23 0;
#X coords 0 -1 1 1 200 154 2 2 200;
