#N canvas 0 0 950 600 12;
#X obj 25 125 dyn.gate2~;
#X obj 25 25 inlet~;
#X obj 125 25 inlet~;
#X obj 525 25 inlet;
#X obj 525 125 route dyn.gate2 * .;
#X obj 725 150 t a a;
#X obj 775 175 is_prop;
#X obj 725 200 flow.demux 2;
#X obj 575 200 msg *;
#X obj 525 250 route @attack @hold @release @threshold default reset;
#X obj 775 350 t b a;
#X msg 775 375 supported messages are: @attack @hold @release @threshold default reset;
#X obj 775 425 print;
#X obj 825 425 print [gdyn.gate2~] unknown message;
#X msg 425 75 @attack 0.1 \, @hold 100 \, @release 20 \, @threshold 40 \,;
#X obj 25 50 t b b;
#X msg 25 75 reset;
#X obj 425 25 msg.onload;
#X obj 500 550 outlet~;
#X obj 600 550 outlet~;
#X obj 700 550 outlet ctl;
#X obj 3 202 cnv 8 198 141 empty empty empty 17 7 0 10 -174763 -1 0;
#X obj 3 202 cnv 8 198 18 empty empty [dyn.gate2~] 3 9 0 12 -104026
-262144 0;
#X obj 12 236 ui.slider @size 125 12 @active_scale 1 @label
attack(ms): @label_side top @label_align left @fontsize 10 @presetname
/gui/\$1/dyn.gate2~/slider0 @min 0 @max 500;
#X obj 215 236 sync;
#X obj 145 236 ui.number @size 50 12 @min 0 @max 500 @digits 1;
#X msg 260 236 @attack \$1;
#X obj 12 266 ui.slider @size 125 12 @active_scale 1 @label hold(ms):
@label_side top @label_align left @fontsize 10 @presetname
/gui/\$1/dyn.gate2~/slider1 @min 1 @max 500;
#X obj 215 266 sync;
#X obj 145 266 ui.number @size 50 12 @min 1 @max 500 @digits 1;
#X msg 260 266 @hold \$1;
#X obj 12 296 ui.slider @size 125 12 @active_scale 1 @label
release(ms): @label_side top @label_align left @fontsize 10
@presetname /gui/\$1/dyn.gate2~/slider2 @min 1 @max 500;
#X obj 215 296 sync;
#X obj 145 296 ui.number @size 50 12 @min 1 @max 500 @digits 1;
#X msg 260 296 @release \$1;
#X obj 12 326 ui.slider @size 125 12 @active_scale 1 @label
threshold(db): @label_side top @label_align left @fontsize 10
@presetname /gui/\$1/dyn.gate2~/slider3 @min 0 @max 100;
#X obj 215 326 sync;
#X obj 145 326 ui.number @size 50 12 @min 0 @max 100 @digits 2;
#X msg 260 326 @threshold \$1;
#X connect 1 0 0 0;
#X connect 2 0 0 1;
#X connect 3 0 4 0;
#X connect 5 0 7 0;
#X connect 5 1 6 0;
#X connect 6 0 7 1;
#X connect 4 3 5 0;
#X connect 4 1 8 0;
#X connect 4 0 9 0;
#X connect 4 1 9 0;
#X connect 4 2 9 0;
#X connect 7 1 9 0;
#X connect 9 6 10 0;
#X connect 10 0 11 0;
#X connect 11 0 12 0;
#X connect 10 1 13 0;
#X connect 14 0 9 0;
#X connect 9 4 14 0;
#X connect 15 1 16 0;
#X connect 15 0 14 0;
#X connect 16 0 0 0;
#X connect 9 5 15 0;
#X connect 17 0 14 0;
#X connect 0 0 18 0;
#X connect 0 1 19 0;
#X connect 7 0 20 0;
#X connect 8 0 20 0;
#X connect 23 0 24 0;
#X connect 24 0 23 0;
#X connect 25 0 24 1;
#X connect 24 1 25 0;
#X connect 23 0 26 0;
#X connect 26 0 0 0;
#X connect 9 0 23 0;
#X connect 27 0 28 0;
#X connect 28 0 27 0;
#X connect 29 0 28 1;
#X connect 28 1 29 0;
#X connect 27 0 30 0;
#X connect 30 0 0 0;
#X connect 9 1 27 0;
#X connect 31 0 32 0;
#X connect 32 0 31 0;
#X connect 33 0 32 1;
#X connect 32 1 33 0;
#X connect 31 0 34 0;
#X connect 34 0 0 0;
#X connect 9 2 31 0;
#X connect 35 0 36 0;
#X connect 36 0 35 0;
#X connect 37 0 36 1;
#X connect 36 1 37 0;
#X connect 35 0 38 0;
#X connect 38 0 0 0;
#X connect 9 3 35 0;
#X coords 0 -1 1 1 200 146 2 2 200;
