#N canvas 0 0 950 600 12;
#X obj 25 125 flt.ff_comb~;
#X obj 25 25 inlet~;
#X obj 125 25 inlet~;
#X obj 525 25 inlet;
#X obj 525 125 route flt.ff_comb * .;
#X obj 725 150 t a a;
#X obj 775 175 is_prop;
#X obj 725 200 flow.demux 2;
#X obj 575 200 msg *;
#X obj 525 250 route @a default reset;
#X obj 775 350 t b a;
#X msg 775 375 supported messages are: @a default reset;
#X obj 775 425 print;
#X obj 825 425 print [gflt.ff_comb~] unknown message;
#X msg 425 75 @a 1 \,;
#X obj 25 50 t b b;
#X msg 25 75 reset;
#X obj 425 25 msg.onload;
#X obj 500 550 outlet~;
#X obj 600 550 outlet ctl;
#X obj 3 202 cnv 8 198 51 empty empty empty 17 7 0 10 -174763 -1 0;
#X obj 3 202 cnv 8 198 18 empty empty [flt.ff_comb~] 3 9 0 12 -104026
-262144 0;
#X obj 12 236 ui.slider @size 125 12 @active_scale 1 @label a:
@label_side top @label_align left @fontsize 10 @presetname
/gui/\$1/flt.ff_comb~/slider0 @min -1 @max 1;
#X obj 215 236 sync;
#X obj 145 236 ui.number @size 50 12 @min -1 @max 1 @digits 3;
#X msg 260 236 @a \$1;
#X connect 1 0 0 0;
#X connect 2 0 0 1;
#X connect 3 0 4 0;
#X connect 5 0 7 0;
#X connect 5 1 6 0;
#X connect 6 0 7 1;
#X connect 4 3 5 0;
#X connect 4 1 8 0;
#X connect 4 0 9 0;
#X connect 4 1 9 0;
#X connect 4 2 9 0;
#X connect 7 1 9 0;
#X connect 9 3 10 0;
#X connect 10 0 11 0;
#X connect 11 0 12 0;
#X connect 10 1 13 0;
#X connect 14 0 9 0;
#X connect 9 1 14 0;
#X connect 15 1 16 0;
#X connect 15 0 14 0;
#X connect 16 0 0 0;
#X connect 9 2 15 0;
#X connect 17 0 14 0;
#X connect 0 0 18 0;
#X connect 7 0 19 0;
#X connect 8 0 19 0;
#X connect 22 0 23 0;
#X connect 23 0 22 0;
#X connect 24 0 23 1;
#X connect 23 1 24 0;
#X connect 22 0 25 0;
#X connect 25 0 0 0;
#X connect 9 0 22 0;
#X coords 0 -1 1 1 200 56 2 2 200;
