#N canvas 0 0 950 600 12;
#X obj 25 125 flt.eq_peak_cq~;
#X obj 25 25 inlet~;
#X obj 425 25 inlet;
#X obj 425 125 route flt.eq_peak_cq * .;
#X obj 625 150 route.prop;
#X obj 475 200 msg *;
#X obj 425 250 route @freq @gain @q default reset;
#X obj 675 350 t b a;
#X msg 675 375 supported messages are: @freq @gain @q default reset;
#X obj 675 425 print;
#X obj 725 425 print [gflt.eq_peak_cq~] unknown message;
#X msg 325 75 @freq 1000 \, @gain 0 \, @q 3 \,;
#X obj 25 50 t b b;
#X msg 25 75 reset;
#X obj 325 25 msg.onload;
#X obj 500 550 outlet~;
#X obj 600 550 outlet ctl;
#X obj 3 202 cnv 8 198 111 empty empty empty 17 7 0 10 -174763 -1 0;
#X obj 3 202 cnv 8 198 18 empty empty [flt.eq_peak_cq~] 3 9 0 12
-104026 -262144 0;
#X obj 12 236 ui.slider @size 125 12 @active_scale 1 @label freq(Hz):
@label_side top @label_align left @fontsize 10 @presetname
/gui/\$1/flt.eq_peak_cq~/slider0 @min 20 @max 20000;
#X obj 215 236 sync;
#X obj 145 236 ui.number @size 50 12 @min 20 @max 20000 @digits 1;
#X msg 260 236 @freq \$1;
#X obj 12 266 ui.slider @size 125 12 @active_scale 1 @label gain(db):
@label_side top @label_align left @fontsize 10 @presetname
/gui/\$1/flt.eq_peak_cq~/slider1 @min -15 @max 15;
#X obj 215 266 sync;
#X obj 145 266 ui.number @size 50 12 @min -15 @max 15 @digits 2;
#X msg 260 266 @gain \$1;
#X obj 12 296 ui.slider @size 125 12 @active_scale 1 @label q:
@label_side top @label_align left @fontsize 10 @presetname
/gui/\$1/flt.eq_peak_cq~/slider2 @min 0.1 @max 100;
#X obj 215 296 sync;
#X obj 145 296 ui.number @size 50 12 @min 0.1 @max 100 @digits 2;
#X msg 260 296 @q \$1;
#X connect 1 0 0 0;
#X connect 2 0 3 0;
#X connect 3 3 4 0;
#X connect 3 1 5 0;
#X connect 3 0 6 0;
#X connect 3 1 6 0;
#X connect 3 2 6 0;
#X connect 4 0 6 0;
#X connect 6 5 7 0;
#X connect 7 0 8 0;
#X connect 8 0 9 0;
#X connect 7 1 10 0;
#X connect 11 0 6 0;
#X connect 6 3 11 0;
#X connect 12 1 13 0;
#X connect 12 0 11 0;
#X connect 13 0 0 0;
#X connect 6 4 12 0;
#X connect 14 0 11 0;
#X connect 0 0 15 0;
#X connect 4 1 16 0;
#X connect 5 0 16 0;
#X connect 19 0 20 0;
#X connect 20 0 19 0;
#X connect 21 0 20 1;
#X connect 20 1 21 0;
#X connect 19 0 22 0;
#X connect 22 0 0 0;
#X connect 6 0 19 0;
#X connect 23 0 24 0;
#X connect 24 0 23 0;
#X connect 25 0 24 1;
#X connect 24 1 25 0;
#X connect 23 0 26 0;
#X connect 26 0 0 0;
#X connect 6 1 23 0;
#X connect 27 0 28 0;
#X connect 28 0 27 0;
#X connect 29 0 28 1;
#X connect 28 1 29 0;
#X connect 27 0 30 0;
#X connect 30 0 0 0;
#X connect 6 2 27 0;
#X coords 0 -1 1 1 200 116 2 2 200;
