#N canvas 0 0 950 600 12;
#X obj 25 125 flt.lpf24~;
#X obj 25 25 inlet~;
#X obj 425 25 inlet;
#X obj 425 200 route flt.lpf24;
#X obj 425 250 route @freq;
#X obj 675 350 print unknown property;
#X msg 325 75 @freq 1000 \,;
#X obj 325 25 msg.onload;
#X obj 500 550 outlet~;
#X obj 600 550 outlet ctl;
#X obj 3 202 cnv 8 198 18 empty empty [flt.lpf24~] 3 9 0 12 -104026
-262144 0;
#X obj 12 236 ui.slider @size 125 12 @active_scale 1 @label freq(Hz):
@label_side top @label_align left @fontsize 10 @presetname
/gui/\$1/flt.lpf24~/slider0 @min 20 @max 20000;
#X obj 215 236 sync;
#X obj 145 236 ui.number @size 50 12 @min 20 @max 20000 @digits 1;
#X msg 260 236 @freq \$1;
#X connect 1 0 0 0;
#X connect 2 0 3 0;
#X connect 3 0 4 0;
#X connect 4 1 5 0;
#X connect 6 0 4 0;
#X connect 7 0 6 0;
#X connect 0 0 8 0;
#X connect 3 1 9 0;
#X connect 11 0 12 0;
#X connect 12 0 11 0;
#X connect 13 0 12 1;
#X connect 12 1 13 0;
#X connect 11 0 14 0;
#X connect 14 0 0 0;
#X connect 4 0 11 0;
#X coords 0 -1 1 1 200 56 2 2 200;
