#N canvas 0 0 950 600 12;
#X obj 25 125 flt_c_bpf~;
#X obj 25 25 inlet~;
#X obj 425 25 inlet;
#X obj 425 200 route flt_c_bpf;
#X obj 425 250 route @freq @q;
#X obj 675 350 print unknown property;
#X msg 325 75 @freq 1000 \, @q 0.1 \,;
#X obj 325 25 msg.onload;
#X obj 500 550 outlet~;
#X obj 600 550 outlet~;
#X obj 700 550 outlet~;
#X obj 800 550 outlet~;
#X obj 900 550 outlet~;
#X obj 1000 550 outlet ctl;
#X obj 3 202 cnv 8 198 18 empty empty [flt_c_bpf~] 3 9 0 12 -104026
-262144 0;
#X text 10 218 freq(Hz):;
#X obj 12 237 ui.slider @size 120 12 @active_scale 1 @presetname
/gui/flt_c_bpf~/slider0 @min 20 @max 20000;
#X obj 140 237 ui.number @size 40 12 @digits 3 @min 20 @max 20000;
#X obj 190 237 msg set;
#X msg 260 237 @freq \$1;
#X text 10 251 q:;
#X obj 12 270 ui.slider @size 120 12 @active_scale 1 @presetname
/gui/flt_c_bpf~/slider1 @min 0.01 @max 100;
#X obj 140 270 ui.number @size 40 12 @digits 3 @min 0.01 @max 100;
#X obj 190 270 msg set;
#X msg 260 270 @q \$1;
#X connect 1 0 0 0;
#X connect 2 0 3 0;
#X connect 3 0 4 0;
#X connect 4 2 5 0;
#X connect 6 0 4 0;
#X connect 7 0 6 0;
#X connect 0 0 8 0;
#X connect 0 1 9 0;
#X connect 0 2 10 0;
#X connect 0 3 11 0;
#X connect 0 4 12 0;
#X connect 3 1 13 0;
#X connect 16 0 17 0;
#X connect 17 0 18 0;
#X connect 18 0 16 0;
#X connect 16 0 19 0;
#X connect 19 0 0 0;
#X connect 4 0 16 0;
#X connect 21 0 22 0;
#X connect 22 0 23 0;
#X connect 23 0 21 0;
#X connect 21 0 24 0;
#X connect 24 0 0 0;
#X connect 4 1 21 0;
#X coords 0 -1 1 1 200 92 2 2 200;
