#N canvas 0 0 950 600 12;
#X obj 25 125 flt.moog_vcf~;
#X obj 25 25 inlet~;
#X obj 125 25 inlet~;
#X obj 525 25 inlet;
#X obj 525 200 route flt.moog_vcf;
#X obj 525 250 route @res;
#X obj 775 350 print unknown property;
#X msg 425 75 @res 0.4 \,;
#X obj 425 25 msg.onload;
#X obj 500 550 outlet~;
#X obj 600 550 outlet ctl;
#X obj 3 202 cnv 8 198 18 empty empty [flt.moog_vcf~] 3 9 0 12 -104026
-262144 0;
#X obj 12 236 ui.slider @size 125 12 @active_scale 1 @label res:
@label_side top @label_align left @fontsize 10 @presetname
/gui/\$1/flt.moog_vcf~/slider0 @min 0 @max 1;
#X obj 215 236 sync;
#X obj 145 236 ui.number @size 50 12 @min 0 @max 1 @digits 4;
#X msg 260 236 @res \$1;
#X connect 1 0 0 0;
#X connect 2 0 0 1;
#X connect 3 0 4 0;
#X connect 4 0 5 0;
#X connect 5 1 6 0;
#X connect 7 0 5 0;
#X connect 8 0 7 0;
#X connect 0 0 9 0;
#X connect 4 1 10 0;
#X connect 12 0 13 0;
#X connect 13 0 12 0;
#X connect 14 0 13 1;
#X connect 13 1 14 0;
#X connect 12 0 15 0;
#X connect 15 0 0 0;
#X connect 5 0 12 0;
#X coords 0 -1 1 1 200 56 2 2 200;
