#N canvas 0 0 950 600 12;
#X obj 25 125 flt.eq_peak~;
#X obj 25 25 inlet~;
#X obj 425 25 inlet;
#X obj 425 200 route flt.eq_peak * .;
#X obj 425 250 route @bandwidth @freq @gain default reset;
#X obj 675 350 t b a;
#X msg 675 375 supported messages are: @bandwidth @freq @gain default reset;
#X obj 675 425 print;
#X obj 725 425 print [gflt.eq_peak~] unknown message;
#X msg 325 75 @bandwidth 100 \, @freq 1000 \, @gain 0 \,;
#X obj 25 50 t b b;
#X msg 25 75 reset;
#X obj 325 25 msg.onload;
#X obj 500 550 outlet~;
#X obj 600 550 outlet ctl;
#X obj 3 202 cnv 8 198 111 empty empty empty 17 7 0 10 -174763 -1 0;
#X obj 3 202 cnv 8 198 18 empty empty [flt.eq_peak~] 3 9 0 12 -104026
-262144 0;
#X obj 12 236 ui.slider @size 125 12 @active_scale 1 @label
bandwidth(Hz): @label_side top @label_align left @fontsize 10
@presetname /gui/\$1/flt.eq_peak~/slider0 @min 1 @max 5000;
#X obj 215 236 sync;
#X obj 145 236 ui.number @size 50 12 @min 1 @max 5000 @digits 0;
#X msg 260 236 @bandwidth \$1;
#X obj 12 266 ui.slider @size 125 12 @active_scale 1 @label freq(Hz):
@label_side top @label_align left @fontsize 10 @presetname
/gui/\$1/flt.eq_peak~/slider1 @min 20 @max 20000;
#X obj 215 266 sync;
#X obj 145 266 ui.number @size 50 12 @min 20 @max 20000 @digits 1;
#X msg 260 266 @freq \$1;
#X obj 12 296 ui.slider @size 125 12 @active_scale 1 @label gain(db):
@label_side top @label_align left @fontsize 10 @presetname
/gui/\$1/flt.eq_peak~/slider2 @min -15 @max 15;
#X obj 215 296 sync;
#X obj 145 296 ui.number @size 50 12 @min -15 @max 15 @digits 2;
#X msg 260 296 @gain \$1;
#X connect 1 0 0 0;
#X connect 2 0 3 0;
#X connect 3 0 4 0;
#X connect 3 1 4 0;
#X connect 3 2 4 0;
#X connect 4 5 5 0;
#X connect 5 0 6 0;
#X connect 6 0 7 0;
#X connect 5 1 8 0;
#X connect 9 0 4 0;
#X connect 4 3 9 0;
#X connect 10 1 11 0;
#X connect 10 0 9 0;
#X connect 11 0 0 0;
#X connect 4 4 10 0;
#X connect 12 0 9 0;
#X connect 0 0 13 0;
#X connect 3 3 14 0;
#X connect 3 1 14 0;
#X connect 17 0 18 0;
#X connect 18 0 17 0;
#X connect 19 0 18 1;
#X connect 18 1 19 0;
#X connect 17 0 20 0;
#X connect 20 0 0 0;
#X connect 4 0 17 0;
#X connect 21 0 22 0;
#X connect 22 0 21 0;
#X connect 23 0 22 1;
#X connect 22 1 23 0;
#X connect 21 0 24 0;
#X connect 24 0 0 0;
#X connect 4 1 21 0;
#X connect 25 0 26 0;
#X connect 26 0 25 0;
#X connect 27 0 26 1;
#X connect 26 1 27 0;
#X connect 25 0 28 0;
#X connect 28 0 0 0;
#X connect 4 2 25 0;
#X coords 0 -1 1 1 200 116 2 2 200;
