#N canvas 0 0 950 600 12;
#X obj 25 125 fx.bitdown~;
#X obj 25 25 inlet~;
#X obj 425 25 inlet;
#X obj 425 200 route fx.bitdown;
#X obj 425 250 route @bits @bypass @downsamp;
#X obj 675 350 print unknown property;
#X msg 325 75 @bits 16 \, @downsamp 1 \,;
#X obj 325 25 msg.onload;
#X obj 500 550 outlet~;
#X obj 600 550 outlet ctl;
#X obj 3 202 cnv 8 198 18 empty empty [fx.bitdown~] 3 9 0 12 -104026
-262144 0;
#X obj 12 238 ui.slider @size 125 12 @active_scale 1 @label bits:
@label_side top @label_align left @fontsize 10 @presetname
/gui/\$1/fx.bitdown~/slider0 @min 1 @max 16;
#X obj 190 238 sync;
#X obj 145 238 ui.number @size 50 12 @min 1 @max 16 @digits 2;
#X msg 260 238 @bits \$1;
#X obj 12 258 ui.toggle @size 12 12 @label bypass @label_side right
@label_align left @fontsize 10 @presetname
/gui/\$1/fx.bitdown~/checkbox1;
#X msg 260 250 @bypass \$1;
#X obj 12 288 ui.slider @size 125 12 @active_scale 1 @label downsamp:
@label_side top @label_align left @fontsize 10 @presetname
/gui/\$1/fx.bitdown~/slider2 @min 1 @max 200;
#X obj 190 288 sync;
#X obj 145 288 ui.number @size 50 12 @min 1 @max 200 @digits 1;
#X msg 260 288 @downsamp \$1;
#X connect 1 0 0 0;
#X connect 2 0 3 0;
#X connect 3 0 4 0;
#X connect 4 3 5 0;
#X connect 6 0 4 0;
#X connect 7 0 6 0;
#X connect 0 0 8 0;
#X connect 3 1 9 0;
#X connect 11 0 12 0;
#X connect 12 0 11 0;
#X connect 13 0 12 1;
#X connect 12 1 13 0;
#X connect 11 0 14 0;
#X connect 14 0 0 0;
#X connect 4 0 11 0;
#X connect 15 0 16 0;
#X connect 16 0 0 0;
#X connect 4 1 15 0;
#X connect 17 0 18 0;
#X connect 18 0 17 0;
#X connect 19 0 18 1;
#X connect 18 1 19 0;
#X connect 17 0 20 0;
#X connect 20 0 0 0;
#X connect 4 2 17 0;
#X coords 0 -1 1 1 200 108 2 2 200;
