#N canvas 0 0 950 600 12;
#X obj 25 125 fx.distortion2~;
#X obj 25 25 inlet~;
#X obj 425 25 inlet;
#X obj 425 125 route fx.distortion2 * .;
#X obj 625 150 t a a;
#X obj 675 175 is_prop;
#X obj 625 200 flow.demux 2;
#X obj 475 200 msg *;
#X obj 425 250 route @drive @gain @level @sp_high_freq @sp_low_freq
@sp_on_off @flt_on_off @hp_freq @lp_freq @res_on_off @trigger @vibrato
default reset;
#X obj 675 350 t b a;
#X msg 675 375 supported messages are: @drive @gain @level @sp_high_freq @sp_low_freq @sp_on_off @flt_on_off @hp_freq @lp_freq @res_on_off @trigger @vibrato default reset;
#X obj 675 425 print;
#X obj 725 425 print [gfx.distortion2~] unknown message;
#X msg 325 75 @drive 0.64 \, @gain 2 \, @level 0.01 \, @sp_high_freq 5000 \, @sp_low_freq 130 \, @hp_freq 130 \, @lp_freq 5000 \, @trigger 0.12 \, @vibrato 1 \,;
#X obj 25 50 t b b;
#X msg 25 75 reset;
#X obj 325 25 msg.onload;
#X obj 500 550 outlet~;
#X obj 600 550 outlet ctl;
#X obj 3 202 cnv 8 198 345 empty empty empty 17 7 0 10 -174763 -1 0;
#X obj 3 202 cnv 8 198 18 empty empty [fx.distortion2~] 3 9 0 12
-104026 -262144 0;
#X obj 12 236 ui.slider @size 125 12 @active_scale 1 @label drive:
@label_side top @label_align left @fontsize 10 @presetname
/gui/\$1/fx.distortion2~/slider0 @min 0 @max 1;
#X obj 215 236 sync;
#X obj 145 236 ui.number @size 50 12 @min 0 @max 1 @digits 4;
#X msg 260 236 @drive \$1;
#X obj 12 266 ui.slider @size 125 12 @active_scale 1 @label gain(db):
@label_side top @label_align left @fontsize 10 @presetname
/gui/\$1/fx.distortion2~/slider1 @min -10 @max 10;
#X obj 215 266 sync;
#X obj 145 266 ui.number @size 50 12 @min -10 @max 10 @digits 2;
#X msg 260 266 @gain \$1;
#X obj 12 296 ui.slider @size 125 12 @active_scale 1 @label level:
@label_side top @label_align left @fontsize 10 @presetname
/gui/\$1/fx.distortion2~/slider2 @min 0 @max 0.5;
#X obj 215 296 sync;
#X obj 145 296 ui.number @size 50 12 @min 0 @max 0.5 @digits 4;
#X msg 260 296 @level \$1;
#X obj 12 326 ui.slider @size 125 12 @active_scale 1 @label
sp_high_freq(Hz): @label_side top @label_align left @fontsize 10
@presetname /gui/\$1/fx.distortion2~/slider3 @min 1000 @max 12000;
#X obj 215 326 sync;
#X obj 145 326 ui.number @size 50 12 @min 1000 @max 12000 @digits 1;
#X msg 260 326 @sp_high_freq \$1;
#X obj 12 356 ui.slider @size 125 12 @active_scale 1 @label
sp_low_freq(Hz): @label_side top @label_align left @fontsize 10
@presetname /gui/\$1/fx.distortion2~/slider4 @min 20 @max 1000;
#X obj 215 356 sync;
#X obj 145 356 ui.number @size 50 12 @min 20 @max 1000 @digits 1;
#X msg 260 356 @sp_low_freq \$1;
#X obj 12 376 ui.toggle @size 12 12 @label sp_on_off @label_side right
@label_align left @fontsize 10 @presetname
/gui/\$1/fx.distortion2~/checkbox5;
#X msg 260 368 @sp_on_off \$1;
#X obj 12 394 ui.toggle @size 12 12 @label flt_on_off @label_side
right @label_align left @fontsize 10 @presetname
/gui/\$1/fx.distortion2~/checkbox6;
#X msg 260 386 @flt_on_off \$1;
#X obj 12 422 ui.number @size 60 12 @label hp_freq: @label_side top
@label_align left @fontsize 10 @presetname
/gui/\$1/fx.distortion2~/numbox7 @min 20 @max 7040 @step 10;
#X msg 260 422 @hp_freq \$1;
#X obj 12 452 ui.number @size 60 12 @label lp_freq: @label_side top
@label_align left @fontsize 10 @presetname
/gui/\$1/fx.distortion2~/numbox8 @min 20 @max 12000 @step 10;
#X msg 260 452 @lp_freq \$1;
#X obj 12 472 ui.toggle @size 12 12 @label res_on_off @label_side
right @label_align left @fontsize 10 @presetname
/gui/\$1/fx.distortion2~/checkbox9;
#X msg 260 464 @res_on_off \$1;
#X obj 12 500 ui.slider @size 125 12 @active_scale 1 @label trigger:
@label_side top @label_align left @fontsize 10 @presetname
/gui/\$1/fx.distortion2~/slider10 @min 0 @max 1;
#X obj 215 500 sync;
#X obj 145 500 ui.number @size 50 12 @min 0 @max 1 @digits 4;
#X msg 260 500 @trigger \$1;
#X obj 12 530 ui.slider @size 125 12 @active_scale 1 @label vibrato:
@label_side top @label_align left @fontsize 10 @presetname
/gui/\$1/fx.distortion2~/slider11 @min 0 @max 1;
#X obj 215 530 sync;
#X obj 145 530 ui.number @size 50 12 @min 0 @max 1 @digits 4;
#X msg 260 530 @vibrato \$1;
#X connect 1 0 0 0;
#X connect 2 0 3 0;
#X connect 4 0 6 0;
#X connect 4 1 5 0;
#X connect 5 0 6 1;
#X connect 3 3 4 0;
#X connect 3 1 7 0;
#X connect 3 0 8 0;
#X connect 3 1 8 0;
#X connect 3 2 8 0;
#X connect 6 1 8 0;
#X connect 8 14 9 0;
#X connect 9 0 10 0;
#X connect 10 0 11 0;
#X connect 9 1 12 0;
#X connect 13 0 8 0;
#X connect 8 12 13 0;
#X connect 14 1 15 0;
#X connect 14 0 13 0;
#X connect 15 0 0 0;
#X connect 8 13 14 0;
#X connect 16 0 13 0;
#X connect 0 0 17 0;
#X connect 6 0 18 0;
#X connect 7 0 18 0;
#X connect 21 0 22 0;
#X connect 22 0 21 0;
#X connect 23 0 22 1;
#X connect 22 1 23 0;
#X connect 21 0 24 0;
#X connect 24 0 0 0;
#X connect 8 0 21 0;
#X connect 25 0 26 0;
#X connect 26 0 25 0;
#X connect 27 0 26 1;
#X connect 26 1 27 0;
#X connect 25 0 28 0;
#X connect 28 0 0 0;
#X connect 8 1 25 0;
#X connect 29 0 30 0;
#X connect 30 0 29 0;
#X connect 31 0 30 1;
#X connect 30 1 31 0;
#X connect 29 0 32 0;
#X connect 32 0 0 0;
#X connect 8 2 29 0;
#X connect 33 0 34 0;
#X connect 34 0 33 0;
#X connect 35 0 34 1;
#X connect 34 1 35 0;
#X connect 33 0 36 0;
#X connect 36 0 0 0;
#X connect 8 3 33 0;
#X connect 37 0 38 0;
#X connect 38 0 37 0;
#X connect 39 0 38 1;
#X connect 38 1 39 0;
#X connect 37 0 40 0;
#X connect 40 0 0 0;
#X connect 8 4 37 0;
#X connect 41 0 42 0;
#X connect 42 0 0 0;
#X connect 8 5 41 0;
#X connect 43 0 44 0;
#X connect 44 0 0 0;
#X connect 8 6 43 0;
#X connect 45 0 46 0;
#X connect 46 0 0 0;
#X connect 8 7 45 0;
#X connect 47 0 48 0;
#X connect 48 0 0 0;
#X connect 8 8 47 0;
#X connect 49 0 50 0;
#X connect 50 0 0 0;
#X connect 8 9 49 0;
#X connect 51 0 52 0;
#X connect 52 0 51 0;
#X connect 53 0 52 1;
#X connect 52 1 53 0;
#X connect 51 0 54 0;
#X connect 54 0 0 0;
#X connect 8 10 51 0;
#X connect 55 0 56 0;
#X connect 56 0 55 0;
#X connect 57 0 56 1;
#X connect 56 1 57 0;
#X connect 55 0 58 0;
#X connect 58 0 0 0;
#X connect 8 11 55 0;
#X coords 0 -1 1 1 200 350 2 2 200;
