#N canvas 0 0 950 600 12;
#X obj 25 125 fx.satrev~;
#X obj 25 25 inlet~;
#X obj 425 25 inlet;
#X obj 425 200 route fx.satrev * .;
#X obj 425 250 route @bypass @drywet default reset;
#X obj 675 350 t b a;
#X msg 675 375 supported messages are: @bypass @drywet default reset;
#X obj 675 425 print;
#X obj 725 425 print [gfx.satrev~] unknown message;
#X msg 325 75 @drywet 0.25 \,;
#X obj 25 50 t b b;
#X msg 25 75 reset;
#X obj 325 25 msg.onload;
#X obj 500 550 outlet~;
#X obj 600 550 outlet~;
#X obj 700 550 outlet ctl;
#X obj 3 202 cnv 8 198 51 empty empty empty 17 7 0 10 -174763 -1 0;
#X obj 3 202 cnv 8 198 18 empty empty [fx.satrev~] 3 9 0 12 -104026
-262144 0;
#X obj 185 205 ui.toggle @size 12 12 @label bypass @label_side left
@label_align right @fontsize 10 @presetname
/gui/\$1/fx.satrev~/checkbox0;
#X msg 260 218 @bypass \$1;
#X obj 12 236 ui.slider @size 125 12 @active_scale 1 @label drywet:
@label_side top @label_align left @fontsize 10 @presetname
/gui/\$1/fx.satrev~/slider1 @min 0 @max 1;
#X obj 215 236 sync;
#X obj 145 236 ui.number @size 50 12 @min 0 @max 1 @digits 4;
#X msg 260 236 @drywet \$1;
#X connect 1 0 0 0;
#X connect 2 0 3 0;
#X connect 3 0 4 0;
#X connect 3 1 4 0;
#X connect 3 2 4 0;
#X connect 4 4 5 0;
#X connect 5 0 6 0;
#X connect 6 0 7 0;
#X connect 5 1 8 0;
#X connect 9 0 4 0;
#X connect 4 2 9 0;
#X connect 10 1 11 0;
#X connect 10 0 9 0;
#X connect 11 0 0 0;
#X connect 4 3 10 0;
#X connect 12 0 9 0;
#X connect 0 0 13 0;
#X connect 0 1 14 0;
#X connect 3 3 15 0;
#X connect 3 1 15 0;
#X connect 18 0 19 0;
#X connect 19 0 0 0;
#X connect 4 0 18 0;
#X connect 20 0 21 0;
#X connect 21 0 20 0;
#X connect 22 0 21 1;
#X connect 21 1 22 0;
#X connect 20 0 23 0;
#X connect 23 0 0 0;
#X connect 4 1 20 0;
#X coords 0 -1 1 1 200 56 2 2 200;
