#N canvas 0 0 950 600 12;
#X obj 25 125 fx.wahwah~;
#X obj 25 25 inlet~;
#X obj 425 25 inlet;
#X obj 425 200 route fx.wahwah;
#X obj 425 250 route @angle @bypass @drywet @speed;
#X obj 675 350 print unknown property;
#X msg 325 75 @angle 0.6 \, @drywet 1 \, @speed 540 \,;
#X obj 325 25 msg.onload;
#X obj 500 550 outlet~;
#X obj 600 550 outlet ctl;
#X obj 3 202 cnv 8 198 18 empty empty [fx.wahwah~] 3 9 0 12 -104026
-262144 0;
#X text 10 218 angle:;
#X obj 12 237 ui.slider @size 120 12 @active_scale 1 @presetname
/gui/$1/fx.wahwah~/slider0 @min 0 @max 1;
#X obj 140 237 ui.number @size 40 12 @digits 3 @min 0 @max 1;
#X obj 190 237 msg set;
#X msg 260 237 @angle \$1;
#X obj 12 259 ui.toggle @size 12 12 @presetname
/gui/$1/fx.wahwah~/checkbox1;
#X text 26 254 bypass;
#X msg 260 251 @bypass \$1;
#X text 10 271 drywet:;
#X obj 12 290 ui.slider @size 120 12 @active_scale 1 @presetname
/gui/$1/fx.wahwah~/slider2 @min 0 @max 1;
#X obj 140 290 ui.number @size 40 12 @digits 3 @min 0 @max 1;
#X obj 190 290 msg set;
#X msg 260 290 @drywet \$1;
#X text 10 304 speed(bpm):;
#X obj 12 323 ui.slider @size 120 12 @active_scale 1 @presetname
/gui/$1/fx.wahwah~/slider3 @min 360 @max 780;
#X obj 140 323 ui.number @size 40 12 @digits 3 @min 360 @max 780;
#X obj 190 323 msg set;
#X msg 260 323 @speed \$1;
#X connect 1 0 0 0;
#X connect 2 0 3 0;
#X connect 3 0 4 0;
#X connect 4 4 5 0;
#X connect 6 0 4 0;
#X connect 7 0 6 0;
#X connect 0 0 8 0;
#X connect 3 1 9 0;
#X connect 12 0 13 0;
#X connect 13 0 14 0;
#X connect 14 0 12 0;
#X connect 12 0 15 0;
#X connect 15 0 0 0;
#X connect 4 0 12 0;
#X connect 16 0 18 0;
#X connect 18 0 0 0;
#X connect 4 1 16 0;
#X connect 20 0 21 0;
#X connect 21 0 22 0;
#X connect 22 0 20 0;
#X connect 20 0 23 0;
#X connect 23 0 0 0;
#X connect 4 2 20 0;
#X connect 25 0 26 0;
#X connect 26 0 27 0;
#X connect 27 0 25 0;
#X connect 25 0 28 0;
#X connect 28 0 0 0;
#X connect 4 3 25 0;
#X coords 0 -1 1 1 200 145 2 2 200;
