#N canvas 0 0 950 600 12;
#X obj 25 125 fx.echo2~;
#X obj 25 25 inlet~;
#X obj 125 25 inlet~;
#X obj 525 25 inlet;
#X obj 525 125 route fx.echo2 * .;
#X obj 725 150 route.prop;
#X obj 575 200 msg *;
#X obj 525 250 route @bypass @delay @drywet @feedback @stereo default
reset;
#X obj 775 350 t b a;
#X msg 775 375 supported messages are: @bypass @delay @drywet @feedback @stereo default reset;
#X obj 775 425 print;
#X obj 825 425 print [gfx.echo2~] unknown message;
#X msg 425 75 @delay 500 \, @drywet 1 \, @feedback 0.3 \, @stereo 1 \,;
#X obj 25 50 t b b;
#X msg 25 75 reset;
#X obj 425 25 msg.onload;
#X obj 500 550 outlet~;
#X obj 600 550 outlet~;
#X obj 700 550 outlet ctl;
#X obj 3 202 cnv 8 198 141 empty empty empty 17 7 0 10 -174763 -1 0;
#X obj 3 202 cnv 8 198 18 empty empty [fx.echo2~] 3 9 0 12 -104026
-262144 0;
#X obj 185 205 ui.toggle @size 12 12 @label bypass @label_side left
@label_align right @fontsize 10 @presetname
/gui/\$1/fx.echo2~/checkbox0;
#X msg 260 218 @bypass \$1;
#X obj 12 236 ui.slider @size 125 12 @active_scale 1 @label delay(ms):
@label_side top @label_align left @fontsize 10 @presetname
/gui/\$1/fx.echo2~/slider1 @min 10 @max 5000;
#X obj 215 236 sync;
#X obj 145 236 ui.number @size 50 12 @min 10 @max 5000 @digits 0;
#X msg 260 236 @delay \$1;
#X obj 12 266 ui.slider @size 125 12 @active_scale 1 @label drywet:
@label_side top @label_align left @fontsize 10 @presetname
/gui/\$1/fx.echo2~/slider2 @min 0 @max 1;
#X obj 215 266 sync;
#X obj 145 266 ui.number @size 50 12 @min 0 @max 1 @digits 4;
#X msg 260 266 @drywet \$1;
#X obj 12 296 ui.slider @size 125 12 @active_scale 1 @label feedback:
@label_side top @label_align left @fontsize 10 @presetname
/gui/\$1/fx.echo2~/slider3 @min 0 @max 0.99;
#X obj 215 296 sync;
#X obj 145 296 ui.number @size 50 12 @min 0 @max 0.99 @digits 4;
#X msg 260 296 @feedback \$1;
#X obj 12 326 ui.slider @size 125 12 @active_scale 1 @label stereo:
@label_side top @label_align left @fontsize 10 @presetname
/gui/\$1/fx.echo2~/slider4 @min 0 @max 1;
#X obj 215 326 sync;
#X obj 145 326 ui.number @size 50 12 @min 0 @max 1 @digits 4;
#X msg 260 326 @stereo \$1;
#X connect 1 0 0 0;
#X connect 2 0 0 1;
#X connect 3 0 4 0;
#X connect 4 3 5 0;
#X connect 4 1 6 0;
#X connect 4 0 7 0;
#X connect 4 1 7 0;
#X connect 4 2 7 0;
#X connect 5 0 7 0;
#X connect 7 7 8 0;
#X connect 8 0 9 0;
#X connect 9 0 10 0;
#X connect 8 1 11 0;
#X connect 12 0 7 0;
#X connect 7 5 12 0;
#X connect 13 1 14 0;
#X connect 13 0 12 0;
#X connect 14 0 0 0;
#X connect 7 6 13 0;
#X connect 15 0 12 0;
#X connect 0 0 16 0;
#X connect 0 1 17 0;
#X connect 5 1 18 0;
#X connect 6 0 18 0;
#X connect 21 0 22 0;
#X connect 22 0 0 0;
#X connect 7 0 21 0;
#X connect 23 0 24 0;
#X connect 24 0 23 0;
#X connect 25 0 24 1;
#X connect 24 1 25 0;
#X connect 23 0 26 0;
#X connect 26 0 0 0;
#X connect 7 1 23 0;
#X connect 27 0 28 0;
#X connect 28 0 27 0;
#X connect 29 0 28 1;
#X connect 28 1 29 0;
#X connect 27 0 30 0;
#X connect 30 0 0 0;
#X connect 7 2 27 0;
#X connect 31 0 32 0;
#X connect 32 0 31 0;
#X connect 33 0 32 1;
#X connect 32 1 33 0;
#X connect 31 0 34 0;
#X connect 34 0 0 0;
#X connect 7 3 31 0;
#X connect 35 0 36 0;
#X connect 36 0 35 0;
#X connect 37 0 36 1;
#X connect 36 1 37 0;
#X connect 35 0 38 0;
#X connect 38 0 0 0;
#X connect 7 4 35 0;
#X coords 0 -1 1 1 200 146 2 2 200;
