#N canvas 0 0 950 600 12;
#X obj 25 125 fx.scramble~;
#X obj 25 25 inlet~;
#X obj 425 25 inlet;
#X obj 425 125 route fx.scramble * .;
#X obj 625 150 route.prop;
#X obj 475 200 msg *;
#X obj 425 250 route @bypass @dev @drywet @feedback @freq1 @freq2
@range default reset;
#X obj 675 350 t b a;
#X msg 675 375 supported messages are: @bypass @dev @drywet @feedback @freq1 @freq2 @range default reset;
#X obj 675 425 print;
#X obj 725 425 print [gfx.scramble~] unknown message;
#X msg 325 75 @dev 0.25 \, @drywet 0.5 \, @feedback 0.25 \, @freq1 7 \, @freq2 5 \, @range 0.5 \,;
#X obj 25 50 t b b;
#X msg 25 75 reset;
#X obj 325 25 msg.onload;
#X obj 500 550 outlet~;
#X obj 600 550 outlet~;
#X obj 700 550 outlet ctl;
#X obj 3 202 cnv 8 198 201 empty empty empty 17 7 0 10 -174763 -1 0;
#X obj 3 202 cnv 8 198 18 empty empty [fx.scramble~] 3 9 0 12 -104026
-262144 0;
#X obj 185 205 ui.toggle @size 12 12 @label bypass @label_side left
@label_align right @fontsize 10 @presetname
/gui/\$1/fx.scramble~/checkbox0;
#X msg 260 218 @bypass \$1;
#X obj 12 236 ui.slider @size 125 12 @active_scale 1 @label dev:
@label_side top @label_align left @fontsize 10 @presetname
/gui/\$1/fx.scramble~/slider1 @min 0 @max 1;
#X obj 215 236 sync;
#X obj 145 236 ui.number @size 50 12 @min 0 @max 1 @digits 4;
#X msg 260 236 @dev \$1;
#X obj 12 266 ui.slider @size 125 12 @active_scale 1 @label drywet:
@label_side top @label_align left @fontsize 10 @presetname
/gui/\$1/fx.scramble~/slider2 @min 0 @max 1;
#X obj 215 266 sync;
#X obj 145 266 ui.number @size 50 12 @min 0 @max 1 @digits 4;
#X msg 260 266 @drywet \$1;
#X obj 12 296 ui.slider @size 125 12 @active_scale 1 @label feedback:
@label_side top @label_align left @fontsize 10 @presetname
/gui/\$1/fx.scramble~/slider3 @min 0 @max 0.99;
#X obj 215 296 sync;
#X obj 145 296 ui.number @size 50 12 @min 0 @max 0.99 @digits 4;
#X msg 260 296 @feedback \$1;
#X obj 12 326 ui.slider @size 125 12 @active_scale 1 @label freq1(hz):
@label_side top @label_align left @fontsize 10 @presetname
/gui/\$1/fx.scramble~/slider4 @min 0.25 @max 50;
#X obj 215 326 sync;
#X obj 145 326 ui.number @size 50 12 @min 0.25 @max 50 @digits 2;
#X msg 260 326 @freq1 \$1;
#X obj 12 356 ui.slider @size 125 12 @active_scale 1 @label freq2(hz):
@label_side top @label_align left @fontsize 10 @presetname
/gui/\$1/fx.scramble~/slider5 @min 0.25 @max 50;
#X obj 215 356 sync;
#X obj 145 356 ui.number @size 50 12 @min 0.25 @max 50 @digits 2;
#X msg 260 356 @freq2 \$1;
#X obj 12 386 ui.slider @size 125 12 @active_scale 1 @label range:
@label_side top @label_align left @fontsize 10 @presetname
/gui/\$1/fx.scramble~/slider6 @min 0 @max 1;
#X obj 215 386 sync;
#X obj 145 386 ui.number @size 50 12 @min 0 @max 1 @digits 4;
#X msg 260 386 @range \$1;
#X connect 1 0 0 0;
#X connect 2 0 3 0;
#X connect 3 3 4 0;
#X connect 3 1 5 0;
#X connect 3 0 6 0;
#X connect 3 1 6 0;
#X connect 3 2 6 0;
#X connect 4 0 6 0;
#X connect 6 9 7 0;
#X connect 7 0 8 0;
#X connect 8 0 9 0;
#X connect 7 1 10 0;
#X connect 11 0 6 0;
#X connect 6 7 11 0;
#X connect 12 1 13 0;
#X connect 12 0 11 0;
#X connect 13 0 0 0;
#X connect 6 8 12 0;
#X connect 14 0 11 0;
#X connect 0 0 15 0;
#X connect 0 1 16 0;
#X connect 4 1 17 0;
#X connect 5 0 17 0;
#X connect 20 0 21 0;
#X connect 21 0 0 0;
#X connect 6 0 20 0;
#X connect 22 0 23 0;
#X connect 23 0 22 0;
#X connect 24 0 23 1;
#X connect 23 1 24 0;
#X connect 22 0 25 0;
#X connect 25 0 0 0;
#X connect 6 1 22 0;
#X connect 26 0 27 0;
#X connect 27 0 26 0;
#X connect 28 0 27 1;
#X connect 27 1 28 0;
#X connect 26 0 29 0;
#X connect 29 0 0 0;
#X connect 6 2 26 0;
#X connect 30 0 31 0;
#X connect 31 0 30 0;
#X connect 32 0 31 1;
#X connect 31 1 32 0;
#X connect 30 0 33 0;
#X connect 33 0 0 0;
#X connect 6 3 30 0;
#X connect 34 0 35 0;
#X connect 35 0 34 0;
#X connect 36 0 35 1;
#X connect 35 1 36 0;
#X connect 34 0 37 0;
#X connect 37 0 0 0;
#X connect 6 4 34 0;
#X connect 38 0 39 0;
#X connect 39 0 38 0;
#X connect 40 0 39 1;
#X connect 39 1 40 0;
#X connect 38 0 41 0;
#X connect 41 0 0 0;
#X connect 6 5 38 0;
#X connect 42 0 43 0;
#X connect 43 0 42 0;
#X connect 44 0 43 1;
#X connect 43 1 44 0;
#X connect 42 0 45 0;
#X connect 45 0 0 0;
#X connect 6 6 42 0;
#X coords 0 -1 1 1 200 206 2 2 200;
