#N canvas 0 0 950 600 12;
#X obj 25 125 fx.bitdown~;
#X obj 25 25 inlet~;
#X obj 425 25 inlet;
#X obj 425 125 route fx.bitdown * .;
#X obj 625 150 t a a;
#X obj 675 175 is_prop;
#X obj 625 200 flow.demux 2;
#X obj 475 200 msg *;
#X obj 425 250 route @bits @bypass @downsamp default reset;
#X obj 675 350 t b a;
#X msg 675 375 supported messages are: @bits @bypass @downsamp default reset;
#X obj 675 425 print;
#X obj 725 425 print [gfx.bitdown~] unknown message;
#X msg 325 75 @bits 16 \, @downsamp 1 \,;
#X obj 25 50 t b b;
#X msg 25 75 reset;
#X obj 325 25 msg.onload;
#X obj 500 550 outlet~;
#X obj 600 550 outlet ctl;
#X obj 3 202 cnv 8 198 81 empty empty empty 17 7 0 10 -174763 -1 0;
#X obj 3 202 cnv 8 198 18 empty empty [fx.bitdown~] 3 9 0 12 -104026
-262144 0;
#X obj 12 236 ui.slider @size 125 12 @active_scale 1 @label bits:
@label_side top @label_align left @fontsize 10 @presetname
/gui/\$1/fx.bitdown~/slider0 @min 1 @max 16;
#X obj 215 236 sync;
#X obj 145 236 ui.number @size 50 12 @min 1 @max 16 @digits 2;
#X msg 260 236 @bits \$1;
#X obj 185 205 ui.toggle @size 12 12 @label bypass @label_side left
@label_align right @fontsize 10 @presetname
/gui/\$1/fx.bitdown~/checkbox1;
#X msg 260 248 @bypass \$1;
#X obj 12 266 ui.slider @size 125 12 @active_scale 1 @label downsamp:
@label_side top @label_align left @fontsize 10 @presetname
/gui/\$1/fx.bitdown~/slider2 @min 1 @max 200;
#X obj 215 266 sync;
#X obj 145 266 ui.number @size 50 12 @min 1 @max 200 @digits 1;
#X msg 260 266 @downsamp \$1;
#X connect 1 0 0 0;
#X connect 2 0 3 0;
#X connect 4 0 6 0;
#X connect 4 1 5 0;
#X connect 5 0 6 1;
#X connect 3 3 4 0;
#X connect 3 1 7 0;
#X connect 3 0 8 0;
#X connect 3 1 8 0;
#X connect 3 2 8 0;
#X connect 6 1 8 0;
#X connect 8 5 9 0;
#X connect 9 0 10 0;
#X connect 10 0 11 0;
#X connect 9 1 12 0;
#X connect 13 0 8 0;
#X connect 8 3 13 0;
#X connect 14 1 15 0;
#X connect 14 0 13 0;
#X connect 15 0 0 0;
#X connect 8 4 14 0;
#X connect 16 0 13 0;
#X connect 0 0 17 0;
#X connect 6 0 18 0;
#X connect 7 0 18 0;
#X connect 21 0 22 0;
#X connect 22 0 21 0;
#X connect 23 0 22 1;
#X connect 22 1 23 0;
#X connect 21 0 24 0;
#X connect 24 0 0 0;
#X connect 8 0 21 0;
#X connect 25 0 26 0;
#X connect 26 0 0 0;
#X connect 8 1 25 0;
#X connect 27 0 28 0;
#X connect 28 0 27 0;
#X connect 29 0 28 1;
#X connect 28 1 29 0;
#X connect 27 0 30 0;
#X connect 30 0 0 0;
#X connect 8 2 27 0;
#X coords 0 -1 1 1 200 86 2 2 200;
