#N canvas 0 0 950 600 12;
#X obj 25 125 fx.granulator~;
#X obj 25 25 inlet~;
#X obj 425 25 inlet;
#X obj 425 125 route fx.granulator * .;
#X obj 625 150 route.prop;
#X obj 475 200 msg *;
#X obj 425 250 route @delay @density @length default reset;
#X obj 675 350 t b a;
#X msg 675 375 supported messages are: @delay @density @length default reset;
#X obj 675 425 print;
#X obj 725 425 print [gfx.granulator~] unknown message;
#X msg 325 75 @delay 10 \, @density 10 \, @length 100 \,;
#X obj 25 50 t b b;
#X msg 25 75 reset;
#X obj 325 25 msg.onload;
#X obj 500 550 outlet~;
#X obj 600 550 outlet~;
#X obj 700 550 outlet ctl;
#X obj 3 202 cnv 8 198 111 empty empty empty 17 7 0 10 -174763 -1 0;
#X obj 3 202 cnv 8 198 18 empty empty [fx.granulator~] 3 9 0 12
-104026 -262144 0;
#X obj 12 236 ui.slider @size 125 12 @active_scale 1 @label
delay(sec): @label_side top @label_align left @fontsize 10 @presetname
/gui/\$1/fx.granulator~/slider0 @min 0.5 @max 10;
#X obj 215 236 sync;
#X obj 145 236 ui.number @size 50 12 @min 0.5 @max 10 @digits 3;
#X msg 260 236 @delay \$1;
#X obj 12 266 ui.slider @size 125 12 @active_scale 1 @label density:
@label_side top @label_align left @fontsize 10 @presetname
/gui/\$1/fx.granulator~/slider1 @min 1 @max 64;
#X obj 215 266 sync;
#X obj 145 266 ui.number @size 50 12 @min 1 @max 64 @digits 0;
#X msg 260 266 @density \$1;
#X obj 12 296 ui.slider @size 125 12 @active_scale 1 @label
length(ms): @label_side top @label_align left @fontsize 10 @presetname
/gui/\$1/fx.granulator~/slider2 @min 10 @max 500;
#X obj 215 296 sync;
#X obj 145 296 ui.number @size 50 12 @min 10 @max 500 @digits 1;
#X msg 260 296 @length \$1;
#X connect 1 0 0 0;
#X connect 2 0 3 0;
#X connect 3 3 4 0;
#X connect 3 1 5 0;
#X connect 3 0 6 0;
#X connect 3 1 6 0;
#X connect 3 2 6 0;
#X connect 4 0 6 0;
#X connect 6 5 7 0;
#X connect 7 0 8 0;
#X connect 8 0 9 0;
#X connect 7 1 10 0;
#X connect 11 0 6 0;
#X connect 6 3 11 0;
#X connect 12 1 13 0;
#X connect 12 0 11 0;
#X connect 13 0 0 0;
#X connect 6 4 12 0;
#X connect 14 0 11 0;
#X connect 0 0 15 0;
#X connect 0 1 16 0;
#X connect 4 1 17 0;
#X connect 5 0 17 0;
#X connect 20 0 21 0;
#X connect 21 0 20 0;
#X connect 22 0 21 1;
#X connect 21 1 22 0;
#X connect 20 0 23 0;
#X connect 23 0 0 0;
#X connect 6 0 20 0;
#X connect 24 0 25 0;
#X connect 25 0 24 0;
#X connect 26 0 25 1;
#X connect 25 1 26 0;
#X connect 24 0 27 0;
#X connect 27 0 0 0;
#X connect 6 1 24 0;
#X connect 28 0 29 0;
#X connect 29 0 28 0;
#X connect 30 0 29 1;
#X connect 29 1 30 0;
#X connect 28 0 31 0;
#X connect 31 0 0 0;
#X connect 6 2 28 0;
#X coords 0 -1 1 1 200 116 2 2 200;
