#N canvas 0 0 950 600 12;
#X obj 25 125 fx.wahwah~;
#X obj 25 25 inlet~;
#X obj 425 25 inlet;
#X obj 425 200 route fx.wahwah;
#X obj 425 250 route @angle @bypass @drywet @speed;
#X obj 675 350 print unknown property;
#X msg 325 75 @angle 0.6 \, @drywet 1 \, @speed 540 \,;
#X obj 325 25 msg.onload;
#X obj 500 550 outlet~;
#X obj 600 550 outlet ctl;
#X obj 3 202 cnv 8 198 18 empty empty [fx.wahwah~] 3 9 0 12 -104026
-262144 0;
#X obj 12 236 ui.slider @size 125 12 @active_scale 1 @label angle:
@label_side top @label_align left @fontsize 10 @presetname
/gui/\$1/fx.wahwah~/slider0 @min 0 @max 1;
#X obj 215 236 sync;
#X obj 145 236 ui.number @size 50 12 @min 0 @max 1 @digits 4;
#X msg 260 236 @angle \$1;
#X obj 185 205 ui.toggle @size 12 12 @label bypass @label_side left
@label_align right @fontsize 10 @presetname
/gui/\$1/fx.wahwah~/checkbox1;
#X msg 260 248 @bypass \$1;
#X obj 12 266 ui.slider @size 125 12 @active_scale 1 @label drywet:
@label_side top @label_align left @fontsize 10 @presetname
/gui/\$1/fx.wahwah~/slider2 @min 0 @max 1;
#X obj 215 266 sync;
#X obj 145 266 ui.number @size 50 12 @min 0 @max 1 @digits 4;
#X msg 260 266 @drywet \$1;
#X obj 12 296 ui.slider @size 125 12 @active_scale 1 @label
speed(bpm): @label_side top @label_align left @fontsize 10 @presetname
/gui/\$1/fx.wahwah~/slider3 @min 360 @max 780;
#X obj 215 296 sync;
#X obj 145 296 ui.number @size 50 12 @min 360 @max 780 @digits 1;
#X msg 260 296 @speed \$1;
#X connect 1 0 0 0;
#X connect 2 0 3 0;
#X connect 3 0 4 0;
#X connect 4 4 5 0;
#X connect 6 0 4 0;
#X connect 7 0 6 0;
#X connect 0 0 8 0;
#X connect 3 1 9 0;
#X connect 11 0 12 0;
#X connect 12 0 11 0;
#X connect 13 0 12 1;
#X connect 12 1 13 0;
#X connect 11 0 14 0;
#X connect 14 0 0 0;
#X connect 4 0 11 0;
#X connect 15 0 16 0;
#X connect 16 0 0 0;
#X connect 4 1 15 0;
#X connect 17 0 18 0;
#X connect 18 0 17 0;
#X connect 19 0 18 1;
#X connect 18 1 19 0;
#X connect 17 0 20 0;
#X connect 20 0 0 0;
#X connect 4 2 17 0;
#X connect 21 0 22 0;
#X connect 22 0 21 0;
#X connect 23 0 22 1;
#X connect 22 1 23 0;
#X connect 21 0 24 0;
#X connect 24 0 0 0;
#X connect 4 3 21 0;
#X coords 0 -1 1 1 200 116 2 2 200;
