#N canvas 0 0 950 600 12;
#X obj 25 125 fx.distortion1~;
#X obj 25 25 inlet~;
#X obj 425 25 inlet;
#X obj 425 125 route fx.distortion1 * .;
#X obj 625 150 route.prop;
#X obj 475 200 msg *;
#X obj 425 250 route @drive @gain @high_drive @high_gain @level
@low_drive @low_gain @sp_high_freq @sp_low_freq @sp_on_off @flt_on_off
@hp_freq @lp_freq @middle_h_drive @middle_h_gain @middle_l_drive
@middle_l_gain @res_on_off @split_high_freq @split_low_freq
@split_middle_freq @trigger @vibrato default reset;
#X obj 675 350 t b a;
#X msg 675 375 supported messages are: @drive @gain @high_drive @high_gain @level @low_drive @low_gain @sp_high_freq @sp_low_freq @sp_on_off @flt_on_off @hp_freq @lp_freq @middle_h_drive @middle_h_gain @middle_l_drive @middle_l_gain @res_on_off @split_high_freq @split_low_freq @split_middle_freq @trigger @vibrato default reset;
#X obj 675 425 print;
#X obj 725 425 print [gfx.distortion1~] unknown message;
#X msg 325 75 @drive 0.64 \, @gain 2 \, @high_drive 1 \, @high_gain 10 \, @level 0.01 \, @low_drive 1 \, @low_gain 10 \, @sp_high_freq 5000 \, @sp_low_freq 130 \, @hp_freq 130 \, @lp_freq 5000 \, @middle_h_drive 1 \, @middle_h_gain 10 \, @middle_l_drive 1 \, @middle_l_gain 10 \, @split_high_freq 1250 \, @split_low_freq 250 \, @split_middle_freq 650 \, @trigger 0.12 \, @vibrato 1 \,;
#X obj 25 50 t b b;
#X msg 25 75 reset;
#X obj 325 25 msg.onload;
#X obj 500 550 outlet~;
#X obj 600 550 outlet ctl;
#X obj 3 202 cnv 8 198 675 empty empty empty 17 7 0 10 -174763 -1 0;
#X obj 3 202 cnv 8 198 18 empty empty [fx.distortion1~] 3 9 0 12
-104026 -262144 0;
#X obj 12 236 ui.slider @size 125 12 @active_scale 1 @label drive:
@label_side top @label_align left @fontsize 10 @presetname
/gui/\$1/fx.distortion1~/slider0 @min 0 @max 1;
#X obj 215 236 sync;
#X obj 145 236 ui.number @size 50 12 @min 0 @max 1 @digits 4;
#X msg 260 236 @drive \$1;
#X obj 12 266 ui.slider @size 125 12 @active_scale 1 @label gain(db):
@label_side top @label_align left @fontsize 10 @presetname
/gui/\$1/fx.distortion1~/slider1 @min -10 @max 10;
#X obj 215 266 sync;
#X obj 145 266 ui.number @size 50 12 @min -10 @max 10 @digits 2;
#X msg 260 266 @gain \$1;
#X obj 12 296 ui.slider @size 125 12 @active_scale 1 @label
high_drive: @label_side top @label_align left @fontsize 10 @presetname
/gui/\$1/fx.distortion1~/slider2 @min 0 @max 1;
#X obj 215 296 sync;
#X obj 145 296 ui.number @size 50 12 @min 0 @max 1 @digits 4;
#X msg 260 296 @high_drive \$1;
#X obj 12 326 ui.slider @size 125 12 @active_scale 1 @label
high_gain(db): @label_side top @label_align left @fontsize 10
@presetname /gui/\$1/fx.distortion1~/slider3 @min -10 @max 20;
#X obj 215 326 sync;
#X obj 145 326 ui.number @size 50 12 @min -10 @max 20 @digits 2;
#X msg 260 326 @high_gain \$1;
#X obj 12 356 ui.slider @size 125 12 @active_scale 1 @label level:
@label_side top @label_align left @fontsize 10 @presetname
/gui/\$1/fx.distortion1~/slider4 @min 0 @max 0.5;
#X obj 215 356 sync;
#X obj 145 356 ui.number @size 50 12 @min 0 @max 0.5 @digits 4;
#X msg 260 356 @level \$1;
#X obj 12 386 ui.slider @size 125 12 @active_scale 1 @label low_drive:
@label_side top @label_align left @fontsize 10 @presetname
/gui/\$1/fx.distortion1~/slider5 @min 0 @max 1;
#X obj 215 386 sync;
#X obj 145 386 ui.number @size 50 12 @min 0 @max 1 @digits 4;
#X msg 260 386 @low_drive \$1;
#X obj 12 416 ui.slider @size 125 12 @active_scale 1 @label
low_gain(db): @label_side top @label_align left @fontsize 10
@presetname /gui/\$1/fx.distortion1~/slider6 @min -10 @max 20;
#X obj 215 416 sync;
#X obj 145 416 ui.number @size 50 12 @min -10 @max 20 @digits 2;
#X msg 260 416 @low_gain \$1;
#X obj 12 446 ui.slider @size 125 12 @active_scale 1 @label
sp_high_freq(Hz): @label_side top @label_align left @fontsize 10
@presetname /gui/\$1/fx.distortion1~/slider7 @min 1000 @max 12000;
#X obj 215 446 sync;
#X obj 145 446 ui.number @size 50 12 @min 1000 @max 12000 @digits 1;
#X msg 260 446 @sp_high_freq \$1;
#X obj 12 476 ui.slider @size 125 12 @active_scale 1 @label
sp_low_freq(Hz): @label_side top @label_align left @fontsize 10
@presetname /gui/\$1/fx.distortion1~/slider8 @min 20 @max 1000;
#X obj 215 476 sync;
#X obj 145 476 ui.number @size 50 12 @min 20 @max 1000 @digits 1;
#X msg 260 476 @sp_low_freq \$1;
#X obj 12 496 ui.toggle @size 12 12 @label sp_on_off @label_side right
@label_align left @fontsize 10 @presetname
/gui/\$1/fx.distortion1~/checkbox9;
#X msg 260 488 @sp_on_off \$1;
#X obj 12 514 ui.toggle @size 12 12 @label flt_on_off @label_side
right @label_align left @fontsize 10 @presetname
/gui/\$1/fx.distortion1~/checkbox10;
#X msg 260 506 @flt_on_off \$1;
#X obj 12 542 ui.number @size 60 12 @label hp_freq: @label_side top
@label_align left @fontsize 10 @presetname
/gui/\$1/fx.distortion1~/numbox11 @min 20 @max 7040 @step 10;
#X msg 260 542 @hp_freq \$1;
#X obj 12 572 ui.number @size 60 12 @label lp_freq: @label_side top
@label_align left @fontsize 10 @presetname
/gui/\$1/fx.distortion1~/numbox12 @min 20 @max 12000 @step 10;
#X msg 260 572 @lp_freq \$1;
#X obj 12 602 ui.slider @size 125 12 @active_scale 1 @label
middle_h_drive: @label_side top @label_align left @fontsize 10
@presetname /gui/\$1/fx.distortion1~/slider13 @min 0 @max 1;
#X obj 215 602 sync;
#X obj 145 602 ui.number @size 50 12 @min 0 @max 1 @digits 4;
#X msg 260 602 @middle_h_drive \$1;
#X obj 12 632 ui.slider @size 125 12 @active_scale 1 @label
middle_h_gain(db): @label_side top @label_align left @fontsize 10
@presetname /gui/\$1/fx.distortion1~/slider14 @min -10 @max 20;
#X obj 215 632 sync;
#X obj 145 632 ui.number @size 50 12 @min -10 @max 20 @digits 2;
#X msg 260 632 @middle_h_gain \$1;
#X obj 12 662 ui.slider @size 125 12 @active_scale 1 @label
middle_l_drive: @label_side top @label_align left @fontsize 10
@presetname /gui/\$1/fx.distortion1~/slider15 @min 0 @max 1;
#X obj 215 662 sync;
#X obj 145 662 ui.number @size 50 12 @min 0 @max 1 @digits 4;
#X msg 260 662 @middle_l_drive \$1;
#X obj 12 692 ui.slider @size 125 12 @active_scale 1 @label
middle_l_gain(db): @label_side top @label_align left @fontsize 10
@presetname /gui/\$1/fx.distortion1~/slider16 @min -10 @max 20;
#X obj 215 692 sync;
#X obj 145 692 ui.number @size 50 12 @min -10 @max 20 @digits 2;
#X msg 260 692 @middle_l_gain \$1;
#X obj 12 712 ui.toggle @size 12 12 @label res_on_off @label_side
right @label_align left @fontsize 10 @presetname
/gui/\$1/fx.distortion1~/checkbox17;
#X msg 260 704 @res_on_off \$1;
#X obj 12 740 ui.number @size 60 12 @label split_high_freq:
@label_side top @label_align left @fontsize 10 @presetname
/gui/\$1/fx.distortion1~/numbox18 @min 1250 @max 12000 @step 10;
#X msg 260 740 @split_high_freq \$1;
#X obj 12 770 ui.number @size 60 12 @label split_low_freq: @label_side
top @label_align left @fontsize 10 @presetname
/gui/\$1/fx.distortion1~/numbox19 @min 20 @max 600 @step 10;
#X msg 260 770 @split_low_freq \$1;
#X obj 12 800 ui.number @size 60 12 @label split_middle_freq:
@label_side top @label_align left @fontsize 10 @presetname
/gui/\$1/fx.distortion1~/numbox20 @min 600 @max 1250 @step 10;
#X msg 260 800 @split_middle_freq \$1;
#X obj 12 830 ui.slider @size 125 12 @active_scale 1 @label trigger:
@label_side top @label_align left @fontsize 10 @presetname
/gui/\$1/fx.distortion1~/slider21 @min 0 @max 1;
#X obj 215 830 sync;
#X obj 145 830 ui.number @size 50 12 @min 0 @max 1 @digits 4;
#X msg 260 830 @trigger \$1;
#X obj 12 860 ui.slider @size 125 12 @active_scale 1 @label vibrato:
@label_side top @label_align left @fontsize 10 @presetname
/gui/\$1/fx.distortion1~/slider22 @min 0 @max 1;
#X obj 215 860 sync;
#X obj 145 860 ui.number @size 50 12 @min 0 @max 1 @digits 4;
#X msg 260 860 @vibrato \$1;
#X connect 1 0 0 0;
#X connect 2 0 3 0;
#X connect 3 3 4 0;
#X connect 3 1 5 0;
#X connect 3 0 6 0;
#X connect 3 1 6 0;
#X connect 3 2 6 0;
#X connect 4 0 6 0;
#X connect 6 25 7 0;
#X connect 7 0 8 0;
#X connect 8 0 9 0;
#X connect 7 1 10 0;
#X connect 11 0 6 0;
#X connect 6 23 11 0;
#X connect 12 1 13 0;
#X connect 12 0 11 0;
#X connect 13 0 0 0;
#X connect 6 24 12 0;
#X connect 14 0 11 0;
#X connect 0 0 15 0;
#X connect 4 1 16 0;
#X connect 5 0 16 0;
#X connect 19 0 20 0;
#X connect 20 0 19 0;
#X connect 21 0 20 1;
#X connect 20 1 21 0;
#X connect 19 0 22 0;
#X connect 22 0 0 0;
#X connect 6 0 19 0;
#X connect 23 0 24 0;
#X connect 24 0 23 0;
#X connect 25 0 24 1;
#X connect 24 1 25 0;
#X connect 23 0 26 0;
#X connect 26 0 0 0;
#X connect 6 1 23 0;
#X connect 27 0 28 0;
#X connect 28 0 27 0;
#X connect 29 0 28 1;
#X connect 28 1 29 0;
#X connect 27 0 30 0;
#X connect 30 0 0 0;
#X connect 6 2 27 0;
#X connect 31 0 32 0;
#X connect 32 0 31 0;
#X connect 33 0 32 1;
#X connect 32 1 33 0;
#X connect 31 0 34 0;
#X connect 34 0 0 0;
#X connect 6 3 31 0;
#X connect 35 0 36 0;
#X connect 36 0 35 0;
#X connect 37 0 36 1;
#X connect 36 1 37 0;
#X connect 35 0 38 0;
#X connect 38 0 0 0;
#X connect 6 4 35 0;
#X connect 39 0 40 0;
#X connect 40 0 39 0;
#X connect 41 0 40 1;
#X connect 40 1 41 0;
#X connect 39 0 42 0;
#X connect 42 0 0 0;
#X connect 6 5 39 0;
#X connect 43 0 44 0;
#X connect 44 0 43 0;
#X connect 45 0 44 1;
#X connect 44 1 45 0;
#X connect 43 0 46 0;
#X connect 46 0 0 0;
#X connect 6 6 43 0;
#X connect 47 0 48 0;
#X connect 48 0 47 0;
#X connect 49 0 48 1;
#X connect 48 1 49 0;
#X connect 47 0 50 0;
#X connect 50 0 0 0;
#X connect 6 7 47 0;
#X connect 51 0 52 0;
#X connect 52 0 51 0;
#X connect 53 0 52 1;
#X connect 52 1 53 0;
#X connect 51 0 54 0;
#X connect 54 0 0 0;
#X connect 6 8 51 0;
#X connect 55 0 56 0;
#X connect 56 0 0 0;
#X connect 6 9 55 0;
#X connect 57 0 58 0;
#X connect 58 0 0 0;
#X connect 6 10 57 0;
#X connect 59 0 60 0;
#X connect 60 0 0 0;
#X connect 6 11 59 0;
#X connect 61 0 62 0;
#X connect 62 0 0 0;
#X connect 6 12 61 0;
#X connect 63 0 64 0;
#X connect 64 0 63 0;
#X connect 65 0 64 1;
#X connect 64 1 65 0;
#X connect 63 0 66 0;
#X connect 66 0 0 0;
#X connect 6 13 63 0;
#X connect 67 0 68 0;
#X connect 68 0 67 0;
#X connect 69 0 68 1;
#X connect 68 1 69 0;
#X connect 67 0 70 0;
#X connect 70 0 0 0;
#X connect 6 14 67 0;
#X connect 71 0 72 0;
#X connect 72 0 71 0;
#X connect 73 0 72 1;
#X connect 72 1 73 0;
#X connect 71 0 74 0;
#X connect 74 0 0 0;
#X connect 6 15 71 0;
#X connect 75 0 76 0;
#X connect 76 0 75 0;
#X connect 77 0 76 1;
#X connect 76 1 77 0;
#X connect 75 0 78 0;
#X connect 78 0 0 0;
#X connect 6 16 75 0;
#X connect 79 0 80 0;
#X connect 80 0 0 0;
#X connect 6 17 79 0;
#X connect 81 0 82 0;
#X connect 82 0 0 0;
#X connect 6 18 81 0;
#X connect 83 0 84 0;
#X connect 84 0 0 0;
#X connect 6 19 83 0;
#X connect 85 0 86 0;
#X connect 86 0 0 0;
#X connect 6 20 85 0;
#X connect 87 0 88 0;
#X connect 88 0 87 0;
#X connect 89 0 88 1;
#X connect 88 1 89 0;
#X connect 87 0 90 0;
#X connect 90 0 0 0;
#X connect 6 21 87 0;
#X connect 91 0 92 0;
#X connect 92 0 91 0;
#X connect 93 0 92 1;
#X connect 92 1 93 0;
#X connect 91 0 94 0;
#X connect 94 0 0 0;
#X connect 6 22 91 0;
#X coords 0 -1 1 1 200 680 2 2 200;
