#N canvas 0 0 950 600 12;
#X obj 25 125 fx.zita_rev1~;
#X obj 25 25 inlet~;
#X obj 125 25 inlet~;
#X obj 525 25 inlet;
#X obj 525 200 route fx.zita_rev1;
#X obj 525 250 route @bypass @decay_low @decay_mid @delay @drywet
@dump_hf @freq_low;
#X obj 775 350 print unknown property;
#X msg 425 75 @decay_low 3 \, @decay_mid 2 \, @delay 60 \, @drywet 1 \, @dump_hf 6000 \, @freq_low 200 \,;
#X obj 425 25 msg.onload;
#X obj 500 550 outlet~;
#X obj 600 550 outlet~;
#X obj 700 550 outlet ctl;
#X obj 3 202 cnv 8 198 18 empty empty [fx.zita_rev1~] 3 9 0 12 -104026
-262144 0;
#X obj 12 226 ui.toggle @size 12 12 @label bypass @label_side right
@label_align left @fontsize 10 @presetname
/gui/\$1/fx.zita_rev1~/checkbox0;
#X msg 260 218 @bypass \$1;
#X obj 12 256 ui.slider @size 125 12 @active_scale 1 @label
decay_low(s): @label_side top @label_align left @fontsize 10
@presetname /gui/\$1/fx.zita_rev1~/slider1 @min 1 @max 25;
#X obj 145 256 ui.number @size 50 12 @min 1 @max 25 @digits 2;
#X obj 200 256 msg set;
#X msg 260 256 @decay_low \$1;
#X obj 12 288 ui.slider @size 125 12 @active_scale 1 @label
decay_mid(s): @label_side top @label_align left @fontsize 10
@presetname /gui/\$1/fx.zita_rev1~/slider2 @min 1 @max 25;
#X obj 145 288 ui.number @size 50 12 @min 1 @max 25 @digits 2;
#X obj 200 288 msg set;
#X msg 260 288 @decay_mid \$1;
#X obj 12 320 ui.slider @size 125 12 @active_scale 1 @label delay(ms):
@label_side top @label_align left @fontsize 10 @presetname
/gui/\$1/fx.zita_rev1~/slider3 @min 20 @max 100;
#X obj 145 320 ui.number @size 50 12 @min 20 @max 100 @digits 2;
#X obj 200 320 msg set;
#X msg 260 320 @delay \$1;
#X obj 12 352 ui.slider @size 125 12 @active_scale 1 @label drywet:
@label_side top @label_align left @fontsize 10 @presetname
/gui/\$1/fx.zita_rev1~/slider4 @min 0 @max 1;
#X obj 145 352 ui.number @size 50 12 @min 0 @max 1 @digits 4;
#X obj 200 352 msg set;
#X msg 260 352 @drywet \$1;
#X obj 12 384 ui.slider @size 125 12 @active_scale 1 @label
dump_hf(Hz): @label_side top @label_align left @fontsize 10
@presetname /gui/\$1/fx.zita_rev1~/slider5 @min 1500 @max 47040;
#X obj 145 384 ui.number @size 50 12 @min 1500 @max 47040 @digits 1;
#X obj 200 384 msg set;
#X msg 260 384 @dump_hf \$1;
#X obj 12 416 ui.slider @size 125 12 @active_scale 1 @label
freq_low(Hz): @label_side top @label_align left @fontsize 10
@presetname /gui/\$1/fx.zita_rev1~/slider6 @min 50 @max 1000;
#X obj 145 416 ui.number @size 50 12 @min 50 @max 1000 @digits 1;
#X obj 200 416 msg set;
#X msg 260 416 @freq_low \$1;
#X connect 1 0 0 0;
#X connect 2 0 0 1;
#X connect 3 0 4 0;
#X connect 4 0 5 0;
#X connect 5 7 6 0;
#X connect 7 0 5 0;
#X connect 8 0 7 0;
#X connect 0 0 9 0;
#X connect 0 1 10 0;
#X connect 4 1 11 0;
#X connect 13 0 14 0;
#X connect 14 0 0 0;
#X connect 5 0 13 0;
#X connect 15 0 16 0;
#X connect 16 0 17 0;
#X connect 17 0 15 0;
#X connect 15 0 18 0;
#X connect 18 0 0 0;
#X connect 5 1 15 0;
#X connect 19 0 20 0;
#X connect 20 0 21 0;
#X connect 21 0 19 0;
#X connect 19 0 22 0;
#X connect 22 0 0 0;
#X connect 5 2 19 0;
#X connect 23 0 24 0;
#X connect 24 0 25 0;
#X connect 25 0 23 0;
#X connect 23 0 26 0;
#X connect 26 0 0 0;
#X connect 5 3 23 0;
#X connect 27 0 28 0;
#X connect 28 0 29 0;
#X connect 29 0 27 0;
#X connect 27 0 30 0;
#X connect 30 0 0 0;
#X connect 5 4 27 0;
#X connect 31 0 32 0;
#X connect 32 0 33 0;
#X connect 33 0 31 0;
#X connect 31 0 34 0;
#X connect 34 0 0 0;
#X connect 5 5 31 0;
#X connect 35 0 36 0;
#X connect 36 0 37 0;
#X connect 37 0 35 0;
#X connect 35 0 38 0;
#X connect 38 0 0 0;
#X connect 5 6 35 0;
#X coords 0 -1 1 1 200 236 2 2 200;
