#N canvas 0 0 950 600 12;
#X obj 25 125 fx.echo~;
#X obj 25 25 inlet~;
#X obj 425 25 inlet;
#X obj 425 125 route fx.echo * .;
#X obj 625 150 route.prop;
#X obj 475 200 msg *;
#X obj 425 250 route @bypass @c.attack @c.release @c.threshold
@compress @delay @drywet @f.hpf @f.lpf @feedback @filter @smooth
default reset;
#X obj 675 350 t b a;
#X msg 675 375 supported messages are: @bypass @c.attack @c.release @c.threshold @compress @delay @drywet @f.hpf @f.lpf @feedback @filter @smooth default reset;
#X obj 675 425 print;
#X obj 725 425 print [gfx.echo~] unknown message;
#X msg 325 75 @c.attack 10 \, @c.release 50 \, @c.threshold 0 \, @compress 0.5 \, @delay 500 \, @drywet 1 \, @f.hpf 300 \, @f.lpf 9000 \, @feedback 0.3 \, @smooth 50 \,;
#X obj 25 50 t b b;
#X msg 25 75 reset;
#X obj 325 25 msg.onload;
#X obj 500 550 outlet~;
#X obj 600 550 outlet ctl;
#X obj 3 202 cnv 8 198 339 empty empty empty 17 7 0 10 -174763 -1 0;
#X obj 3 202 cnv 8 198 18 empty empty [fx.echo~] 3 9 0 12 -104026
-262144 0;
#X obj 185 205 ui.toggle @size 12 12 @label bypass @label_side left
@label_align right @fontsize 10 @presetname
/gui/\$1/fx.echo~/checkbox0;
#X msg 260 218 @bypass \$1;
#X obj 12 236 ui.slider @size 125 12 @active_scale 1 @label
c.attack(ms): @label_side top @label_align left @fontsize 10
@presetname /gui/\$1/fx.echo~/slider1 @min 0.1 @max 100;
#X obj 215 236 sync;
#X obj 145 236 ui.number @size 50 12 @min 0.1 @max 100 @digits 2;
#X msg 260 236 @c.attack \$1;
#X obj 12 266 ui.slider @size 125 12 @active_scale 1 @label
c.release(ms): @label_side top @label_align left @fontsize 10
@presetname /gui/\$1/fx.echo~/slider2 @min 1 @max 500;
#X obj 215 266 sync;
#X obj 145 266 ui.number @size 50 12 @min 1 @max 500 @digits 1;
#X msg 260 266 @c.release \$1;
#X obj 12 296 ui.slider @size 125 12 @active_scale 1 @label
c.threshold(db): @label_side top @label_align left @fontsize 10
@presetname /gui/\$1/fx.echo~/slider3 @min -60 @max 0;
#X obj 215 296 sync;
#X obj 145 296 ui.number @size 50 12 @min -60 @max 0 @digits 2;
#X msg 260 296 @c.threshold \$1;
#X obj 12 326 ui.slider @size 125 12 @active_scale 1 @label compress:
@label_side top @label_align left @fontsize 10 @presetname
/gui/\$1/fx.echo~/slider4 @min 0 @max 1;
#X obj 215 326 sync;
#X obj 145 326 ui.number @size 50 12 @min 0 @max 1 @digits 4;
#X msg 260 326 @compress \$1;
#X obj 12 356 ui.slider @size 125 12 @active_scale 1 @label delay(ms):
@label_side top @label_align left @fontsize 10 @presetname
/gui/\$1/fx.echo~/slider5 @min 10 @max 10000;
#X obj 215 356 sync;
#X obj 145 356 ui.number @size 50 12 @min 10 @max 10000 @digits 0;
#X msg 260 356 @delay \$1;
#X obj 12 386 ui.slider @size 125 12 @active_scale 1 @label drywet:
@label_side top @label_align left @fontsize 10 @presetname
/gui/\$1/fx.echo~/slider6 @min 0 @max 1;
#X obj 215 386 sync;
#X obj 145 386 ui.number @size 50 12 @min 0 @max 1 @digits 4;
#X msg 260 386 @drywet \$1;
#X obj 12 416 ui.slider @size 125 12 @active_scale 1 @label f.hpf(hz):
@label_side top @label_align left @fontsize 10 @presetname
/gui/\$1/fx.echo~/slider7 @min 20 @max 20000;
#X obj 215 416 sync;
#X obj 145 416 ui.number @size 50 12 @min 20 @max 20000 @digits 1;
#X msg 260 416 @f.hpf \$1;
#X obj 12 446 ui.slider @size 125 12 @active_scale 1 @label f.lpf(hz):
@label_side top @label_align left @fontsize 10 @presetname
/gui/\$1/fx.echo~/slider8 @min 20 @max 20000;
#X obj 215 446 sync;
#X obj 145 446 ui.number @size 50 12 @min 20 @max 20000 @digits 1;
#X msg 260 446 @f.lpf \$1;
#X obj 12 476 ui.slider @size 125 12 @active_scale 1 @label feedback:
@label_side top @label_align left @fontsize 10 @presetname
/gui/\$1/fx.echo~/slider9 @min 0 @max 0.99;
#X obj 215 476 sync;
#X obj 145 476 ui.number @size 50 12 @min 0 @max 0.99 @digits 4;
#X msg 260 476 @feedback \$1;
#X obj 12 496 ui.toggle @size 12 12 @label filter @label_side right
@label_align left @fontsize 10 @presetname
/gui/\$1/fx.echo~/checkbox10;
#X msg 260 488 @filter \$1;
#X obj 12 524 ui.slider @size 125 12 @active_scale 1 @label
smooth(ms): @label_side top @label_align left @fontsize 10 @presetname
/gui/\$1/fx.echo~/slider11 @min 0 @max 500;
#X obj 215 524 sync;
#X obj 145 524 ui.number @size 50 12 @min 0 @max 500 @digits 1;
#X msg 260 524 @smooth \$1;
#X connect 1 0 0 0;
#X connect 2 0 3 0;
#X connect 3 3 4 0;
#X connect 3 1 5 0;
#X connect 3 0 6 0;
#X connect 3 1 6 0;
#X connect 3 2 6 0;
#X connect 4 0 6 0;
#X connect 6 14 7 0;
#X connect 7 0 8 0;
#X connect 8 0 9 0;
#X connect 7 1 10 0;
#X connect 11 0 6 0;
#X connect 6 12 11 0;
#X connect 12 1 13 0;
#X connect 12 0 11 0;
#X connect 13 0 0 0;
#X connect 6 13 12 0;
#X connect 14 0 11 0;
#X connect 0 0 15 0;
#X connect 4 1 16 0;
#X connect 5 0 16 0;
#X connect 19 0 20 0;
#X connect 20 0 0 0;
#X connect 6 0 19 0;
#X connect 21 0 22 0;
#X connect 22 0 21 0;
#X connect 23 0 22 1;
#X connect 22 1 23 0;
#X connect 21 0 24 0;
#X connect 24 0 0 0;
#X connect 6 1 21 0;
#X connect 25 0 26 0;
#X connect 26 0 25 0;
#X connect 27 0 26 1;
#X connect 26 1 27 0;
#X connect 25 0 28 0;
#X connect 28 0 0 0;
#X connect 6 2 25 0;
#X connect 29 0 30 0;
#X connect 30 0 29 0;
#X connect 31 0 30 1;
#X connect 30 1 31 0;
#X connect 29 0 32 0;
#X connect 32 0 0 0;
#X connect 6 3 29 0;
#X connect 33 0 34 0;
#X connect 34 0 33 0;
#X connect 35 0 34 1;
#X connect 34 1 35 0;
#X connect 33 0 36 0;
#X connect 36 0 0 0;
#X connect 6 4 33 0;
#X connect 37 0 38 0;
#X connect 38 0 37 0;
#X connect 39 0 38 1;
#X connect 38 1 39 0;
#X connect 37 0 40 0;
#X connect 40 0 0 0;
#X connect 6 5 37 0;
#X connect 41 0 42 0;
#X connect 42 0 41 0;
#X connect 43 0 42 1;
#X connect 42 1 43 0;
#X connect 41 0 44 0;
#X connect 44 0 0 0;
#X connect 6 6 41 0;
#X connect 45 0 46 0;
#X connect 46 0 45 0;
#X connect 47 0 46 1;
#X connect 46 1 47 0;
#X connect 45 0 48 0;
#X connect 48 0 0 0;
#X connect 6 7 45 0;
#X connect 49 0 50 0;
#X connect 50 0 49 0;
#X connect 51 0 50 1;
#X connect 50 1 51 0;
#X connect 49 0 52 0;
#X connect 52 0 0 0;
#X connect 6 8 49 0;
#X connect 53 0 54 0;
#X connect 54 0 53 0;
#X connect 55 0 54 1;
#X connect 54 1 55 0;
#X connect 53 0 56 0;
#X connect 56 0 0 0;
#X connect 6 9 53 0;
#X connect 57 0 58 0;
#X connect 58 0 0 0;
#X connect 6 10 57 0;
#X connect 59 0 60 0;
#X connect 60 0 59 0;
#X connect 61 0 60 1;
#X connect 60 1 61 0;
#X connect 59 0 62 0;
#X connect 62 0 0 0;
#X connect 6 11 59 0;
#X coords 0 -1 1 1 200 344 2 2 200;
