#N canvas 0 0 950 600 12;
#X obj 25 125 fx.greyhole~;
#X obj 25 25 inlet~;
#X obj 125 25 inlet~;
#X obj 525 25 inlet;
#X obj 525 200 route fx.greyhole;
#X obj 525 250 route @bypass @damping @delaytime @diffusion @drywet
@feedback @moddepth @modfreq @size;
#X obj 775 350 print unknown property;
#X msg 425 75 @damping 0 \, @delaytime 0.2 \, @diffusion 0.5 \, @drywet 1 \, @feedback 0.9 \, @moddepth 0.1 \, @modfreq 2 \, @size 1 \,;
#X obj 425 25 msg.onload;
#X obj 500 550 outlet~;
#X obj 600 550 outlet~;
#X obj 700 550 outlet ctl;
#X obj 3 202 cnv 8 198 18 empty empty [fx.greyhole~] 3 9 0 12 -104026
-262144 0;
#X obj 12 226 ui.toggle @size 12 12 @presetname
/gui/fx.greyhole~/checkbox0;
#X text 26 221 bypass;
#X msg 260 218 @bypass \$1;
#X text 10 238 damping:;
#X obj 12 257 ui.slider @size 120 12 @active_scale 1 @presetname
/gui/fx.greyhole~/slider1 @min 0 @max 0.99;
#X obj 140 257 ui.number @size 40 12 @digits 3 @min 0 @max 0.99;
#X obj 190 257 msg set;
#X msg 260 257 @damping \$1;
#X text 10 271 delaytime:;
#X obj 12 290 ui.slider @size 120 12 @active_scale 1 @presetname
/gui/fx.greyhole~/slider2 @min 0.001 @max 1.45;
#X obj 140 290 ui.number @size 40 12 @digits 3 @min 0.001 @max 1.45;
#X obj 190 290 msg set;
#X msg 260 290 @delaytime \$1;
#X text 10 304 diffusion:;
#X obj 12 323 ui.slider @size 120 12 @active_scale 1 @presetname
/gui/fx.greyhole~/slider3 @min 0 @max 0.99;
#X obj 140 323 ui.number @size 40 12 @digits 3 @min 0 @max 0.99;
#X obj 190 323 msg set;
#X msg 260 323 @diffusion \$1;
#X text 10 337 drywet:;
#X obj 12 356 ui.slider @size 120 12 @active_scale 1 @presetname
/gui/fx.greyhole~/slider4 @min 0 @max 1;
#X obj 140 356 ui.number @size 40 12 @digits 3 @min 0 @max 1;
#X obj 190 356 msg set;
#X msg 260 356 @drywet \$1;
#X text 10 370 feedback:;
#X obj 12 389 ui.slider @size 120 12 @active_scale 1 @presetname
/gui/fx.greyhole~/slider5 @min 0 @max 1;
#X obj 140 389 ui.number @size 40 12 @digits 3 @min 0 @max 1;
#X obj 190 389 msg set;
#X msg 260 389 @feedback \$1;
#X text 10 403 moddepth:;
#X obj 12 422 ui.slider @size 120 12 @active_scale 1 @presetname
/gui/fx.greyhole~/slider6 @min 0 @max 1;
#X obj 140 422 ui.number @size 40 12 @digits 3 @min 0 @max 1;
#X obj 190 422 msg set;
#X msg 260 422 @moddepth \$1;
#X text 10 436 modfreq:;
#X obj 12 455 ui.slider @size 120 12 @active_scale 1 @presetname
/gui/fx.greyhole~/slider7 @min 0 @max 10;
#X obj 140 455 ui.number @size 40 12 @digits 3 @min 0 @max 10;
#X obj 190 455 msg set;
#X msg 260 455 @modfreq \$1;
#X text 10 469 size:;
#X obj 12 488 ui.slider @size 120 12 @active_scale 1 @presetname
/gui/fx.greyhole~/slider8 @min 0.5 @max 3;
#X obj 140 488 ui.number @size 40 12 @digits 3 @min 0.5 @max 3;
#X obj 190 488 msg set;
#X msg 260 488 @size \$1;
#X connect 1 0 0 0;
#X connect 2 0 0 1;
#X connect 3 0 4 0;
#X connect 4 0 5 0;
#X connect 5 9 6 0;
#X connect 7 0 5 0;
#X connect 8 0 7 0;
#X connect 0 0 9 0;
#X connect 0 1 10 0;
#X connect 4 1 11 0;
#X connect 13 0 15 0;
#X connect 15 0 0 0;
#X connect 5 0 13 0;
#X connect 17 0 18 0;
#X connect 18 0 19 0;
#X connect 19 0 17 0;
#X connect 17 0 20 0;
#X connect 20 0 0 0;
#X connect 5 1 17 0;
#X connect 22 0 23 0;
#X connect 23 0 24 0;
#X connect 24 0 22 0;
#X connect 22 0 25 0;
#X connect 25 0 0 0;
#X connect 5 2 22 0;
#X connect 27 0 28 0;
#X connect 28 0 29 0;
#X connect 29 0 27 0;
#X connect 27 0 30 0;
#X connect 30 0 0 0;
#X connect 5 3 27 0;
#X connect 32 0 33 0;
#X connect 33 0 34 0;
#X connect 34 0 32 0;
#X connect 32 0 35 0;
#X connect 35 0 0 0;
#X connect 5 4 32 0;
#X connect 37 0 38 0;
#X connect 38 0 39 0;
#X connect 39 0 37 0;
#X connect 37 0 40 0;
#X connect 40 0 0 0;
#X connect 5 5 37 0;
#X connect 42 0 43 0;
#X connect 43 0 44 0;
#X connect 44 0 42 0;
#X connect 42 0 45 0;
#X connect 45 0 0 0;
#X connect 5 6 42 0;
#X connect 47 0 48 0;
#X connect 48 0 49 0;
#X connect 49 0 47 0;
#X connect 47 0 50 0;
#X connect 50 0 0 0;
#X connect 5 7 47 0;
#X connect 52 0 53 0;
#X connect 53 0 54 0;
#X connect 54 0 52 0;
#X connect 52 0 55 0;
#X connect 55 0 0 0;
#X connect 5 8 52 0;
#X coords 0 -1 1 1 200 310 2 2 200;
