#N canvas 0 0 950 600 12;
#X obj 25 125 fx.pitchshift~;
#X obj 25 25 inlet~;
#X obj 425 25 inlet;
#X obj 425 200 route fx.pitchshift;
#X obj 425 250 route @bypass @drywet @fade @pitch @window;
#X obj 675 350 print unknown property;
#X msg 325 75 @drywet 1 \, @fade 100 \, @pitch 0 \, @window 200 \,;
#X obj 325 25 msg.onload;
#X obj 500 550 outlet~;
#X obj 600 550 outlet ctl;
#X obj 3 202 cnv 8 198 18 empty empty [fx.pitchshift~] 3 9 0 12
-104026 -262144 0;
#X obj 12 226 ui.toggle @size 12 12 @label bypass @label_side right
@label_align left @fontsize 10 @presetname
/gui/\$1/fx.pitchshift~/checkbox0;
#X msg 260 218 @bypass \$1;
#X obj 12 256 ui.slider @size 125 12 @active_scale 1 @label drywet:
@label_side top @label_align left @fontsize 10 @presetname
/gui/\$1/fx.pitchshift~/slider1 @min 0 @max 1;
#X obj 145 256 ui.number @size 50 12 @min 0 @max 1 @digits 4;
#X obj 200 256 msg set;
#X msg 260 256 @drywet \$1;
#X obj 12 288 ui.slider @size 125 12 @active_scale 1 @label fade(ms):
@label_side top @label_align left @fontsize 10 @presetname
/gui/\$1/fx.pitchshift~/slider2 @min 0 @max 1000;
#X obj 145 288 ui.number @size 50 12 @min 0 @max 1000 @digits 1;
#X obj 200 288 msg set;
#X msg 260 288 @fade \$1;
#X obj 12 320 ui.slider @size 125 12 @active_scale 1 @label pitch:
@label_side top @label_align left @fontsize 10 @presetname
/gui/\$1/fx.pitchshift~/slider3 @min -38 @max 60;
#X obj 145 320 ui.number @size 50 12 @min -38 @max 60 @digits 2;
#X obj 200 320 msg set;
#X msg 260 320 @pitch \$1;
#X obj 12 352 ui.slider @size 125 12 @active_scale 1 @label
window(ms): @label_side top @label_align left @fontsize 10 @presetname
/gui/\$1/fx.pitchshift~/slider4 @min 10 @max 2000;
#X obj 145 352 ui.number @size 50 12 @min 10 @max 2000 @digits 0;
#X obj 200 352 msg set;
#X msg 260 352 @window \$1;
#X connect 1 0 0 0;
#X connect 2 0 3 0;
#X connect 3 0 4 0;
#X connect 4 5 5 0;
#X connect 6 0 4 0;
#X connect 7 0 6 0;
#X connect 0 0 8 0;
#X connect 3 1 9 0;
#X connect 11 0 12 0;
#X connect 12 0 0 0;
#X connect 4 0 11 0;
#X connect 13 0 14 0;
#X connect 14 0 15 0;
#X connect 15 0 13 0;
#X connect 13 0 16 0;
#X connect 16 0 0 0;
#X connect 4 1 13 0;
#X connect 17 0 18 0;
#X connect 18 0 19 0;
#X connect 19 0 17 0;
#X connect 17 0 20 0;
#X connect 20 0 0 0;
#X connect 4 2 17 0;
#X connect 21 0 22 0;
#X connect 22 0 23 0;
#X connect 23 0 21 0;
#X connect 21 0 24 0;
#X connect 24 0 0 0;
#X connect 4 3 21 0;
#X connect 25 0 26 0;
#X connect 26 0 27 0;
#X connect 27 0 25 0;
#X connect 25 0 28 0;
#X connect 28 0 0 0;
#X connect 4 4 25 0;
#X coords 0 -1 1 1 200 172 2 2 200;
