#N canvas 0 0 950 600 12;
#X obj 25 125 fx.satrev~;
#X obj 25 25 inlet~;
#X obj 425 25 inlet;
#X obj 425 200 route fx.satrev;
#X obj 425 250 route @bypass @drywet;
#X obj 675 350 print unknown property;
#X msg 325 75 @drywet 0.25 \,;
#X obj 325 25 msg.onload;
#X obj 500 550 outlet~;
#X obj 600 550 outlet~;
#X obj 700 550 outlet ctl;
#X obj 3 202 cnv 8 198 18 empty empty [fx.satrev~] 3 9 0 12 -104026
-262144 0;
#X obj 12 226 ui.toggle @size 12 12 @label bypass @label_side right
@label_align left @fontsize 10 @presetname
/gui/\$1/fx.satrev~/checkbox0;
#X msg 260 218 @bypass \$1;
#X obj 12 256 ui.slider @size 125 12 @active_scale 1 @label drywet:
@label_side top @label_align left @fontsize 10 @presetname
/gui/\$1/fx.satrev~/slider1 @min 0 @max 1;
#X obj 190 256 sync;
#X obj 145 256 ui.number @size 50 12 @min 0 @max 1 @digits 4;
#X msg 260 256 @drywet \$1;
#X connect 1 0 0 0;
#X connect 2 0 3 0;
#X connect 3 0 4 0;
#X connect 4 2 5 0;
#X connect 6 0 4 0;
#X connect 7 0 6 0;
#X connect 0 0 8 0;
#X connect 0 1 9 0;
#X connect 3 1 10 0;
#X connect 12 0 13 0;
#X connect 13 0 0 0;
#X connect 4 0 12 0;
#X connect 14 0 15 0;
#X connect 15 0 14 0;
#X connect 16 0 15 1;
#X connect 15 1 16 0;
#X connect 14 0 17 0;
#X connect 17 0 0 0;
#X connect 4 1 14 0;
#X coords 0 -1 1 1 200 76 2 2 200;
