#N canvas 0 0 950 600 12;
#X obj 25 125 fx_shimmer~;
#X obj 25 25 inlet~;
#X obj 125 25 inlet~;
#X obj 525 25 inlet;
#X obj 525 125 route fx_shimmer * .;
#X obj 725 150 t a a;
#X obj 775 175 is_prop;
#X obj 725 200 flow.demux 2;
#X obj 575 200 msg *;
#X obj 525 250 route @bypass @control @damp_hf @decay_low @decay_mid
@depth @drywet @envelope @freq_low @mode @ps_drywet @shift @speed
default reset;
#X obj 775 350 t b a;
#X msg 775 375 supported messages are: @bypass @control @damp_hf @decay_low @decay_mid @depth @drywet @envelope @freq_low @mode @ps_drywet @shift @speed default reset;
#X obj 775 425 print;
#X obj 825 425 print [gfx_shimmer~] unknown message;
#X msg 425 75 @control 0.5 \, @damp_hf 6000 \, @decay_low 3 \, @decay_mid 2 \, @depth 0 \, @drywet 0.5 \, @envelope 1 \, @freq_low 200 \, @mode 0 \, @ps_drywet 0.5 \, @shift 12 \, @speed 0.1 \,;
#X obj 25 50 t b b;
#X msg 25 75 reset;
#X obj 425 25 msg.onload;
#X obj 500 550 outlet~;
#X obj 600 550 outlet~;
#X obj 700 550 outlet ctl;
#X obj 3 202 cnv 8 198 381 empty empty empty 17 7 0 10 -174763 -1 0;
#X obj 3 202 cnv 8 198 18 empty empty [fx_shimmer~] 3 9 0 12 -104026
-262144 0;
#X obj 185 205 ui.toggle @size 12 12 @label bypass @label_side left
@label_align right @fontsize 10 @presetname
/gui/\$1/fx_shimmer~/checkbox0;
#X msg 260 218 @bypass \$1;
#X obj 12 236 ui.slider @size 125 12 @active_scale 1 @label control:
@label_side top @label_align left @fontsize 10 @presetname
/gui/\$1/fx_shimmer~/slider1 @min 0 @max 1;
#X obj 215 236 sync;
#X obj 145 236 ui.number @size 50 12 @min 0 @max 1 @digits 4;
#X msg 260 236 @control \$1;
#X obj 12 266 ui.slider @size 125 12 @active_scale 1 @label
damp_hf(Hz): @label_side top @label_align left @fontsize 10
@presetname /gui/\$1/fx_shimmer~/slider2 @min 1500 @max 47040;
#X obj 215 266 sync;
#X obj 145 266 ui.number @size 50 12 @min 1500 @max 47040 @digits 1;
#X msg 260 266 @damp_hf \$1;
#X obj 12 296 ui.slider @size 125 12 @active_scale 1 @label
decay_low(sec): @label_side top @label_align left @fontsize 10
@presetname /gui/\$1/fx_shimmer~/slider3 @min 1 @max 8;
#X obj 215 296 sync;
#X obj 145 296 ui.number @size 50 12 @min 1 @max 8 @digits 3;
#X msg 260 296 @decay_low \$1;
#X obj 12 326 ui.slider @size 125 12 @active_scale 1 @label
decay_mid(sec): @label_side top @label_align left @fontsize 10
@presetname /gui/\$1/fx_shimmer~/slider4 @min 1 @max 8;
#X obj 215 326 sync;
#X obj 145 326 ui.number @size 50 12 @min 1 @max 8 @digits 3;
#X msg 260 326 @decay_mid \$1;
#X obj 12 356 ui.slider @size 125 12 @active_scale 1 @label depth:
@label_side top @label_align left @fontsize 10 @presetname
/gui/\$1/fx_shimmer~/slider5 @min 0 @max 1;
#X obj 215 356 sync;
#X obj 145 356 ui.number @size 50 12 @min 0 @max 1 @digits 4;
#X msg 260 356 @depth \$1;
#X obj 12 386 ui.slider @size 125 12 @active_scale 1 @label drywet:
@label_side top @label_align left @fontsize 10 @presetname
/gui/\$1/fx_shimmer~/slider6 @min 0 @max 1;
#X obj 215 386 sync;
#X obj 145 386 ui.number @size 50 12 @min 0 @max 1 @digits 4;
#X msg 260 386 @drywet \$1;
#X obj 12 416 ui.slider @size 125 12 @active_scale 1 @label
envelope(sec): @label_side top @label_align left @fontsize 10
@presetname /gui/\$1/fx_shimmer~/slider7 @min 0.1 @max 3;
#X obj 215 416 sync;
#X obj 145 416 ui.number @size 50 12 @min 0.1 @max 3 @digits 3;
#X msg 260 416 @envelope \$1;
#X obj 12 446 ui.slider @size 125 12 @active_scale 1 @label
freq_low(Hz): @label_side top @label_align left @fontsize 10
@presetname /gui/\$1/fx_shimmer~/slider8 @min 50 @max 1000;
#X obj 215 446 sync;
#X obj 145 446 ui.number @size 50 12 @min 50 @max 1000 @digits 1;
#X msg 260 446 @freq_low \$1;
#X obj 12 476 ui.slider @size 125 12 @active_scale 1 @label mode:
@label_side top @label_align left @fontsize 10 @presetname
/gui/\$1/fx_shimmer~/slider9 @min -3 @max 3;
#X obj 215 476 sync;
#X obj 145 476 ui.number @size 50 12 @min -3 @max 3 @digits 3;
#X msg 260 476 @mode \$1;
#X obj 12 506 ui.slider @size 125 12 @active_scale 1 @label ps_drywet:
@label_side top @label_align left @fontsize 10 @presetname
/gui/\$1/fx_shimmer~/slider10 @min 0 @max 1;
#X obj 215 506 sync;
#X obj 145 506 ui.number @size 50 12 @min 0 @max 1 @digits 4;
#X msg 260 506 @ps_drywet \$1;
#X obj 12 536 ui.slider @size 125 12 @active_scale 1 @label
shift(semitone): @label_side top @label_align left @fontsize 10
@presetname /gui/\$1/fx_shimmer~/slider11 @min -12 @max 12;
#X obj 215 536 sync;
#X obj 145 536 ui.number @size 50 12 @min -12 @max 12 @digits 2;
#X msg 260 536 @shift \$1;
#X obj 12 566 ui.slider @size 125 12 @active_scale 1 @label speed(Hz):
@label_side top @label_align left @fontsize 10 @presetname
/gui/\$1/fx_shimmer~/slider12 @min 0.1 @max 10;
#X obj 215 566 sync;
#X obj 145 566 ui.number @size 50 12 @min 0.1 @max 10 @digits 3;
#X msg 260 566 @speed \$1;
#X connect 1 0 0 0;
#X connect 2 0 0 1;
#X connect 3 0 4 0;
#X connect 5 0 7 0;
#X connect 5 1 6 0;
#X connect 6 0 7 1;
#X connect 4 3 5 0;
#X connect 4 1 8 0;
#X connect 4 0 9 0;
#X connect 4 1 9 0;
#X connect 4 2 9 0;
#X connect 7 1 9 0;
#X connect 9 15 10 0;
#X connect 10 0 11 0;
#X connect 11 0 12 0;
#X connect 10 1 13 0;
#X connect 14 0 9 0;
#X connect 9 13 14 0;
#X connect 15 1 16 0;
#X connect 15 0 14 0;
#X connect 16 0 0 0;
#X connect 9 14 15 0;
#X connect 17 0 14 0;
#X connect 0 0 18 0;
#X connect 0 1 19 0;
#X connect 7 0 20 0;
#X connect 8 0 20 0;
#X connect 23 0 24 0;
#X connect 24 0 0 0;
#X connect 9 0 23 0;
#X connect 25 0 26 0;
#X connect 26 0 25 0;
#X connect 27 0 26 1;
#X connect 26 1 27 0;
#X connect 25 0 28 0;
#X connect 28 0 0 0;
#X connect 9 1 25 0;
#X connect 29 0 30 0;
#X connect 30 0 29 0;
#X connect 31 0 30 1;
#X connect 30 1 31 0;
#X connect 29 0 32 0;
#X connect 32 0 0 0;
#X connect 9 2 29 0;
#X connect 33 0 34 0;
#X connect 34 0 33 0;
#X connect 35 0 34 1;
#X connect 34 1 35 0;
#X connect 33 0 36 0;
#X connect 36 0 0 0;
#X connect 9 3 33 0;
#X connect 37 0 38 0;
#X connect 38 0 37 0;
#X connect 39 0 38 1;
#X connect 38 1 39 0;
#X connect 37 0 40 0;
#X connect 40 0 0 0;
#X connect 9 4 37 0;
#X connect 41 0 42 0;
#X connect 42 0 41 0;
#X connect 43 0 42 1;
#X connect 42 1 43 0;
#X connect 41 0 44 0;
#X connect 44 0 0 0;
#X connect 9 5 41 0;
#X connect 45 0 46 0;
#X connect 46 0 45 0;
#X connect 47 0 46 1;
#X connect 46 1 47 0;
#X connect 45 0 48 0;
#X connect 48 0 0 0;
#X connect 9 6 45 0;
#X connect 49 0 50 0;
#X connect 50 0 49 0;
#X connect 51 0 50 1;
#X connect 50 1 51 0;
#X connect 49 0 52 0;
#X connect 52 0 0 0;
#X connect 9 7 49 0;
#X connect 53 0 54 0;
#X connect 54 0 53 0;
#X connect 55 0 54 1;
#X connect 54 1 55 0;
#X connect 53 0 56 0;
#X connect 56 0 0 0;
#X connect 9 8 53 0;
#X connect 57 0 58 0;
#X connect 58 0 57 0;
#X connect 59 0 58 1;
#X connect 58 1 59 0;
#X connect 57 0 60 0;
#X connect 60 0 0 0;
#X connect 9 9 57 0;
#X connect 61 0 62 0;
#X connect 62 0 61 0;
#X connect 63 0 62 1;
#X connect 62 1 63 0;
#X connect 61 0 64 0;
#X connect 64 0 0 0;
#X connect 9 10 61 0;
#X connect 65 0 66 0;
#X connect 66 0 65 0;
#X connect 67 0 66 1;
#X connect 66 1 67 0;
#X connect 65 0 68 0;
#X connect 68 0 0 0;
#X connect 9 11 65 0;
#X connect 69 0 70 0;
#X connect 70 0 69 0;
#X connect 71 0 70 1;
#X connect 70 1 71 0;
#X connect 69 0 72 0;
#X connect 72 0 0 0;
#X connect 9 12 69 0;
#X coords 0 -1 1 1 200 386 2 2 200;
