#N canvas 0 0 950 600 12;
#X obj 25 125 noise.lfreq0~;
#X obj 325 25 inlet;
#X obj 325 200 route noise.lfreq0;
#X obj 325 250 route @freq;
#X obj 575 350 print unknown property;
#X msg 225 75 @freq 1000 \,;
#X obj 225 25 msg.onload;
#X obj 500 550 outlet~;
#X obj 600 550 outlet ctl;
#X obj 3 202 cnv 8 198 18 empty empty [noise.lfreq0~] 3 9 0 12 -104026
-262144 0;
#X text 10 218 freq(Hz):;
#X obj 12 237 ui.slider @size 120 12 @active_scale 1 @presetname
/gui/$1/noise.lfreq0~/slider0 @min 5 @max 22050;
#X obj 140 237 ui.number @size 40 12 @digits 3 @min 5 @max 22050;
#X obj 190 237 msg set;
#X msg 260 237 @freq \$1;
#X connect 1 0 2 0;
#X connect 2 0 3 0;
#X connect 3 1 4 0;
#X connect 5 0 3 0;
#X connect 6 0 5 0;
#X connect 0 0 7 0;
#X connect 2 1 8 0;
#X connect 11 0 12 0;
#X connect 12 0 13 0;
#X connect 13 0 11 0;
#X connect 11 0 14 0;
#X connect 14 0 0 0;
#X connect 3 0 11 0;
#X coords 0 -1 1 1 200 59 2 2 200;
