#N canvas 0 0 950 600 12;
#X obj 25 125 noise.lfreq0~;
#X obj 325 25 inlet;
#X obj 325 125 route noise.lfreq0 * .;
#X obj 525 150 route.prop;
#X obj 375 200 msg *;
#X obj 325 250 route @freq default reset;
#X obj 575 350 t b a;
#X msg 575 375 supported messages are: @freq default reset;
#X obj 575 425 print;
#X obj 625 425 print [gnoise.lfreq0~] unknown message;
#X msg 225 75 @freq 1000 \,;
#X obj 25 50 t b b;
#X msg 25 75 reset;
#X obj 225 25 msg.onload;
#X obj 500 550 outlet~;
#X obj 600 550 outlet ctl;
#X obj 3 202 cnv 8 198 51 empty empty empty 17 7 0 10 -174763 -1 0;
#X obj 3 202 cnv 8 198 18 empty empty [noise.lfreq0~] 3 9 0 12 -104026
-262144 0;
#X obj 12 236 ui.slider @size 125 12 @active_scale 1 @label freq(Hz):
@label_side top @label_align left @fontsize 10 @presetname
/gui/\$1/noise.lfreq0~/slider0 @min 0.5 @max 22050;
#X obj 215 236 sync;
#X obj 145 236 ui.number @size 50 12 @min 0.5 @max 22050 @digits 1;
#X msg 260 236 @freq \$1;
#X connect 1 0 2 0;
#X connect 2 3 3 0;
#X connect 2 1 4 0;
#X connect 2 0 5 0;
#X connect 2 1 5 0;
#X connect 2 2 5 0;
#X connect 3 0 5 0;
#X connect 5 3 6 0;
#X connect 6 0 7 0;
#X connect 7 0 8 0;
#X connect 6 1 9 0;
#X connect 10 0 5 0;
#X connect 5 1 10 0;
#X connect 11 1 12 0;
#X connect 11 0 10 0;
#X connect 12 0 0 0;
#X connect 5 2 11 0;
#X connect 13 0 10 0;
#X connect 0 0 14 0;
#X connect 3 1 15 0;
#X connect 4 0 15 0;
#X connect 18 0 19 0;
#X connect 19 0 18 0;
#X connect 20 0 19 1;
#X connect 19 1 20 0;
#X connect 18 0 21 0;
#X connect 21 0 0 0;
#X connect 5 0 18 0;
#X coords 0 -1 1 1 200 56 2 2 200;
