#N canvas 0 0 950 600 12;
#X obj 25 125 spat.pan4~;
#X obj 25 25 inlet~;
#X obj 425 25 inlet;
#X obj 425 200 route spat.pan4;
#X obj 425 250 route @angle @radius;
#X obj 675 350 print unknown property;
#X msg 325 75 @angle 0 \, @radius 1 \,;
#X obj 325 25 msg.onload;
#X obj 500 550 outlet~;
#X obj 600 550 outlet~;
#X obj 700 550 outlet~;
#X obj 800 550 outlet~;
#X obj 900 550 outlet ctl;
#X obj 3 202 cnv 8 198 18 empty empty [spat.pan4~] 3 9 0 12 -104026
-262144 0;
#X obj 12 238 ui.slider @size 125 12 @active_scale 1 @label
angle(rad): @label_side top @label_align left @fontsize 10 @presetname
/gui/\$1/spat.pan4~/slider0 @min 0 @max 6.28319;
#X obj 145 238 ui.number @size 50 12 @min 0 @max 6.28319 @digits 3;
#X obj 200 238 msg set;
#X msg 260 238 @angle \$1;
#X obj 12 270 ui.slider @size 125 12 @active_scale 1 @label radius:
@label_side top @label_align left @fontsize 10 @presetname
/gui/\$1/spat.pan4~/slider1 @min 0 @max 1;
#X obj 145 270 ui.number @size 50 12 @min 0 @max 1 @digits 4;
#X obj 200 270 msg set;
#X msg 260 270 @radius \$1;
#X connect 1 0 0 0;
#X connect 2 0 3 0;
#X connect 3 0 4 0;
#X connect 4 2 5 0;
#X connect 6 0 4 0;
#X connect 7 0 6 0;
#X connect 0 0 8 0;
#X connect 0 1 9 0;
#X connect 0 2 10 0;
#X connect 0 3 11 0;
#X connect 3 1 12 0;
#X connect 14 0 15 0;
#X connect 15 0 16 0;
#X connect 16 0 14 0;
#X connect 14 0 17 0;
#X connect 17 0 0 0;
#X connect 4 0 14 0;
#X connect 18 0 19 0;
#X connect 19 0 20 0;
#X connect 20 0 18 0;
#X connect 18 0 21 0;
#X connect 21 0 0 0;
#X connect 4 1 18 0;
#X coords 0 -1 1 1 200 90 2 2 200;
