#N canvas 0 0 950 600 12;
#X obj 25 125 spat.pan8~;
#X obj 25 25 inlet~;
#X obj 425 25 inlet;
#X obj 425 125 route spat.pan8 * .;
#X obj 625 150 route.prop;
#X obj 475 200 msg *;
#X obj 425 250 route @angle @radius default reset;
#X obj 675 350 t b a;
#X msg 675 375 supported messages are: @angle @radius default reset;
#X obj 675 425 print;
#X obj 725 425 print [gspat.pan8~] unknown message;
#X msg 325 75 @angle 0 \, @radius 1 \,;
#X obj 25 50 t b b;
#X msg 25 75 reset;
#X obj 325 25 msg.onload;
#X obj 500 550 outlet~;
#X obj 600 550 outlet~;
#X obj 700 550 outlet~;
#X obj 800 550 outlet~;
#X obj 900 550 outlet~;
#X obj 1000 550 outlet~;
#X obj 1100 550 outlet~;
#X obj 1200 550 outlet~;
#X obj 1300 550 outlet ctl;
#X obj 3 202 cnv 8 198 81 empty empty empty 17 7 0 10 -174763 -1 0;
#X obj 3 202 cnv 8 198 18 empty empty [spat.pan8~] 3 9 0 12 -104026
-262144 0;
#X obj 12 236 ui.slider @size 125 12 @active_scale 1 @label
angle(rad): @label_side top @label_align left @fontsize 10 @presetname
/gui/\$1/spat.pan8~/slider0 @min 0 @max 6.28319;
#X obj 215 236 sync;
#X obj 145 236 ui.number @size 50 12 @min 0 @max 6.28319 @digits 3;
#X msg 260 236 @angle \$1;
#X obj 12 266 ui.slider @size 125 12 @active_scale 1 @label radius:
@label_side top @label_align left @fontsize 10 @presetname
/gui/\$1/spat.pan8~/slider1 @min 0 @max 1;
#X obj 215 266 sync;
#X obj 145 266 ui.number @size 50 12 @min 0 @max 1 @digits 4;
#X msg 260 266 @radius \$1;
#X connect 1 0 0 0;
#X connect 2 0 3 0;
#X connect 3 3 4 0;
#X connect 3 1 5 0;
#X connect 3 0 6 0;
#X connect 3 1 6 0;
#X connect 3 2 6 0;
#X connect 4 0 6 0;
#X connect 6 4 7 0;
#X connect 7 0 8 0;
#X connect 8 0 9 0;
#X connect 7 1 10 0;
#X connect 11 0 6 0;
#X connect 6 2 11 0;
#X connect 12 1 13 0;
#X connect 12 0 11 0;
#X connect 13 0 0 0;
#X connect 6 3 12 0;
#X connect 14 0 11 0;
#X connect 0 0 15 0;
#X connect 0 1 16 0;
#X connect 0 2 17 0;
#X connect 0 3 18 0;
#X connect 0 4 19 0;
#X connect 0 5 20 0;
#X connect 0 6 21 0;
#X connect 0 7 22 0;
#X connect 4 1 23 0;
#X connect 5 0 23 0;
#X connect 26 0 27 0;
#X connect 27 0 26 0;
#X connect 28 0 27 1;
#X connect 27 1 28 0;
#X connect 26 0 29 0;
#X connect 29 0 0 0;
#X connect 6 0 26 0;
#X connect 30 0 31 0;
#X connect 31 0 30 0;
#X connect 32 0 31 1;
#X connect 31 1 32 0;
#X connect 30 0 33 0;
#X connect 33 0 0 0;
#X connect 6 1 30 0;
#X coords 0 -1 1 1 200 86 2 2 200;
