#N canvas 0 0 950 600 12;
#X obj 25 125 spat.zita8~;
#X obj 25 25 inlet~;
#X obj 425 25 inlet;
#X obj 425 125 route spat.zita8 * .;
#X obj 625 150 t a a;
#X obj 675 175 is_prop;
#X obj 625 200 flow.demux 2;
#X obj 475 200 msg *;
#X obj 425 250 route @angle @decay_low @decay_mid @delay @dump_hf
@freq_low @radius default reset;
#X obj 675 350 t b a;
#X msg 675 375 supported messages are: @angle @decay_low @decay_mid @delay @dump_hf @freq_low @radius default reset;
#X obj 675 425 print;
#X obj 725 425 print [gspat.zita8~] unknown message;
#X msg 325 75 @angle 0 \, @decay_low 3 \, @decay_mid 2 \, @delay 60 \, @dump_hf 6000 \, @freq_low 200 \, @radius 1 \,;
#X obj 25 50 t b b;
#X msg 25 75 reset;
#X obj 325 25 msg.onload;
#X obj 500 550 outlet~;
#X obj 600 550 outlet~;
#X obj 700 550 outlet~;
#X obj 800 550 outlet~;
#X obj 900 550 outlet~;
#X obj 1000 550 outlet~;
#X obj 1100 550 outlet~;
#X obj 1200 550 outlet~;
#X obj 1300 550 outlet ctl;
#X obj 3 202 cnv 8 198 231 empty empty empty 17 7 0 10 -174763 -1 0;
#X obj 3 202 cnv 8 198 18 empty empty [spat.zita8~] 3 9 0 12 -104026
-262144 0;
#X obj 12 236 ui.slider @size 125 12 @active_scale 1 @label angle:
@label_side top @label_align left @fontsize 10 @presetname
/gui/\$1/spat.zita8~/slider0 @min 0 @max 1;
#X obj 215 236 sync;
#X obj 145 236 ui.number @size 50 12 @min 0 @max 1 @digits 4;
#X msg 260 236 @angle \$1;
#X obj 12 266 ui.slider @size 125 12 @active_scale 1 @label
decay_low(sec): @label_side top @label_align left @fontsize 10
@presetname /gui/\$1/spat.zita8~/slider1 @min 1 @max 60;
#X obj 215 266 sync;
#X obj 145 266 ui.number @size 50 12 @min 1 @max 60 @digits 2;
#X msg 260 266 @decay_low \$1;
#X obj 12 296 ui.slider @size 125 12 @active_scale 1 @label
decay_mid(sec): @label_side top @label_align left @fontsize 10
@presetname /gui/\$1/spat.zita8~/slider2 @min 1 @max 60;
#X obj 215 296 sync;
#X obj 145 296 ui.number @size 50 12 @min 1 @max 60 @digits 2;
#X msg 260 296 @decay_mid \$1;
#X obj 12 326 ui.slider @size 125 12 @active_scale 1 @label delay(ms):
@label_side top @label_align left @fontsize 10 @presetname
/gui/\$1/spat.zita8~/slider3 @min 20 @max 100;
#X obj 215 326 sync;
#X obj 145 326 ui.number @size 50 12 @min 20 @max 100 @digits 2;
#X msg 260 326 @delay \$1;
#X obj 12 356 ui.slider @size 125 12 @active_scale 1 @label
dump_hf(Hz): @label_side top @label_align left @fontsize 10
@presetname /gui/\$1/spat.zita8~/slider4 @min 1500 @max 47040;
#X obj 215 356 sync;
#X obj 145 356 ui.number @size 50 12 @min 1500 @max 47040 @digits 1;
#X msg 260 356 @dump_hf \$1;
#X obj 12 386 ui.slider @size 125 12 @active_scale 1 @label
freq_low(Hz): @label_side top @label_align left @fontsize 10
@presetname /gui/\$1/spat.zita8~/slider5 @min 50 @max 1000;
#X obj 215 386 sync;
#X obj 145 386 ui.number @size 50 12 @min 50 @max 1000 @digits 1;
#X msg 260 386 @freq_low \$1;
#X obj 12 416 ui.slider @size 125 12 @active_scale 1 @label radius:
@label_side top @label_align left @fontsize 10 @presetname
/gui/\$1/spat.zita8~/slider6 @min 0 @max 1;
#X obj 215 416 sync;
#X obj 145 416 ui.number @size 50 12 @min 0 @max 1 @digits 4;
#X msg 260 416 @radius \$1;
#X connect 1 0 0 0;
#X connect 2 0 3 0;
#X connect 4 0 6 0;
#X connect 4 1 5 0;
#X connect 5 0 6 1;
#X connect 3 3 4 0;
#X connect 3 1 7 0;
#X connect 3 0 8 0;
#X connect 3 1 8 0;
#X connect 3 2 8 0;
#X connect 6 1 8 0;
#X connect 8 9 9 0;
#X connect 9 0 10 0;
#X connect 10 0 11 0;
#X connect 9 1 12 0;
#X connect 13 0 8 0;
#X connect 8 7 13 0;
#X connect 14 1 15 0;
#X connect 14 0 13 0;
#X connect 15 0 0 0;
#X connect 8 8 14 0;
#X connect 16 0 13 0;
#X connect 0 0 17 0;
#X connect 0 1 18 0;
#X connect 0 2 19 0;
#X connect 0 3 20 0;
#X connect 0 4 21 0;
#X connect 0 5 22 0;
#X connect 0 6 23 0;
#X connect 0 7 24 0;
#X connect 6 0 25 0;
#X connect 7 0 25 0;
#X connect 28 0 29 0;
#X connect 29 0 28 0;
#X connect 30 0 29 1;
#X connect 29 1 30 0;
#X connect 28 0 31 0;
#X connect 31 0 0 0;
#X connect 8 0 28 0;
#X connect 32 0 33 0;
#X connect 33 0 32 0;
#X connect 34 0 33 1;
#X connect 33 1 34 0;
#X connect 32 0 35 0;
#X connect 35 0 0 0;
#X connect 8 1 32 0;
#X connect 36 0 37 0;
#X connect 37 0 36 0;
#X connect 38 0 37 1;
#X connect 37 1 38 0;
#X connect 36 0 39 0;
#X connect 39 0 0 0;
#X connect 8 2 36 0;
#X connect 40 0 41 0;
#X connect 41 0 40 0;
#X connect 42 0 41 1;
#X connect 41 1 42 0;
#X connect 40 0 43 0;
#X connect 43 0 0 0;
#X connect 8 3 40 0;
#X connect 44 0 45 0;
#X connect 45 0 44 0;
#X connect 46 0 45 1;
#X connect 45 1 46 0;
#X connect 44 0 47 0;
#X connect 47 0 0 0;
#X connect 8 4 44 0;
#X connect 48 0 49 0;
#X connect 49 0 48 0;
#X connect 50 0 49 1;
#X connect 49 1 50 0;
#X connect 48 0 51 0;
#X connect 51 0 0 0;
#X connect 8 5 48 0;
#X connect 52 0 53 0;
#X connect 53 0 52 0;
#X connect 54 0 53 1;
#X connect 53 1 54 0;
#X connect 52 0 55 0;
#X connect 55 0 0 0;
#X connect 8 6 52 0;
#X coords 0 -1 1 1 200 236 2 2 200;
