#N canvas 0 0 950 600 12;
#X obj 25 125 synth.birds~;
#X obj 325 25 inlet;
#X obj 325 200 route synth.birds;
#X obj 325 250 route @probability @speed;
#X obj 575 350 print unknown property;
#X msg 225 75 @probability 50 \, @speed 240 \,;
#X obj 225 25 msg.onload;
#X obj 500 550 outlet~;
#X obj 600 550 outlet~;
#X obj 700 550 outlet ctl;
#X obj 3 202 cnv 8 198 18 empty empty [synth.birds~] 3 9 0 12 -104026
-262144 0;
#X text 10 218 probability(%):;
#X obj 12 237 ui.slider @size 120 12 @active_scale 1 @presetname
/gui/synth.birds~/slider0 @min 25 @max 100;
#X obj 140 237 ui.number @size 40 12 @digits 3 @min 25 @max 100;
#X obj 190 237 msg set;
#X msg 260 237 @probability \$1;
#X text 10 251 speed:;
#X obj 12 270 ui.slider @size 120 12 @active_scale 1 @presetname
/gui/synth.birds~/slider1 @min 120 @max 480;
#X obj 140 270 ui.number @size 40 12 @digits 3 @min 120 @max 480;
#X obj 190 270 msg set;
#X msg 260 270 @speed \$1;
#X connect 1 0 2 0;
#X connect 2 0 3 0;
#X connect 3 2 4 0;
#X connect 5 0 3 0;
#X connect 6 0 5 0;
#X connect 0 0 7 0;
#X connect 0 1 8 0;
#X connect 2 1 9 0;
#X connect 12 0 13 0;
#X connect 13 0 14 0;
#X connect 14 0 12 0;
#X connect 12 0 15 0;
#X connect 15 0 0 0;
#X connect 3 0 12 0;
#X connect 17 0 18 0;
#X connect 18 0 19 0;
#X connect 19 0 17 0;
#X connect 17 0 20 0;
#X connect 20 0 0 0;
#X connect 3 1 17 0;
#X coords 0 -1 1 1 200 92 2 2 200;
