#N canvas 0 0 950 600 12;
#X obj 25 125 synth.kick2~;
#X obj 325 25 inlet;
#X obj 325 200 route synth.kick2;
#X obj 325 250 route @attack @click @drive @freq @gate @release;
#X obj 575 350 print unknown property;
#X msg 225 75 @attack 20 \, @click 20 \, @drive 2.5 \, @freq 44 \, @release 100 \,;
#X obj 225 25 msg.onload;
#X obj 500 550 outlet~;
#X obj 600 550 outlet ctl;
#X obj 3 202 cnv 8 198 18 empty empty [synth.kick2~] 3 9 0 12 -104026
-262144 0;
#X obj 12 238 ui.slider @size 125 12 @active_scale 1 @label
attack(ms): @label_side top @label_align left @fontsize 10 @presetname
/gui/\$1/synth.kick2~/slider0 @min 5 @max 400;
#X obj 190 238 sync;
#X obj 145 238 ui.number @size 50 12 @min 5 @max 400 @digits 1;
#X msg 260 238 @attack \$1;
#X obj 12 270 ui.slider @size 125 12 @active_scale 1 @label click(ms):
@label_side top @label_align left @fontsize 10 @presetname
/gui/\$1/synth.kick2~/slider1 @min 5 @max 1000;
#X obj 190 270 sync;
#X obj 145 270 ui.number @size 50 12 @min 5 @max 1000 @digits 1;
#X msg 260 270 @click \$1;
#X obj 12 302 ui.slider @size 125 12 @active_scale 1 @label drive:
@label_side top @label_align left @fontsize 10 @presetname
/gui/\$1/synth.kick2~/slider2 @min 1 @max 10;
#X obj 190 302 sync;
#X obj 145 302 ui.number @size 50 12 @min 1 @max 10 @digits 3;
#X msg 260 302 @drive \$1;
#X obj 12 334 ui.slider @size 125 12 @active_scale 1 @label freq(Hz):
@label_side top @label_align left @fontsize 10 @presetname
/gui/\$1/synth.kick2~/slider3 @min 10 @max 5000;
#X obj 190 334 sync;
#X obj 145 334 ui.number @size 50 12 @min 10 @max 5000 @digits 0;
#X msg 260 334 @freq \$1;
#X obj 12 354 ui.toggle @size 12 12 @label gate @label_side right
@label_align left @fontsize 10;
#X msg 260 346 @gate \$1;
#X obj 12 384 ui.slider @size 125 12 @active_scale 1 @label
release(ms): @label_side top @label_align left @fontsize 10
@presetname /gui/\$1/synth.kick2~/slider5 @min 5 @max 4000;
#X obj 190 384 sync;
#X obj 145 384 ui.number @size 50 12 @min 5 @max 4000 @digits 0;
#X msg 260 384 @release \$1;
#X connect 1 0 2 0;
#X connect 2 0 3 0;
#X connect 3 6 4 0;
#X connect 5 0 3 0;
#X connect 6 0 5 0;
#X connect 0 0 7 0;
#X connect 2 1 8 0;
#X connect 10 0 11 0;
#X connect 11 0 10 0;
#X connect 12 0 11 1;
#X connect 11 1 12 0;
#X connect 10 0 13 0;
#X connect 13 0 0 0;
#X connect 3 0 10 0;
#X connect 14 0 15 0;
#X connect 15 0 14 0;
#X connect 16 0 15 1;
#X connect 15 1 16 0;
#X connect 14 0 17 0;
#X connect 17 0 0 0;
#X connect 3 1 14 0;
#X connect 18 0 19 0;
#X connect 19 0 18 0;
#X connect 20 0 19 1;
#X connect 19 1 20 0;
#X connect 18 0 21 0;
#X connect 21 0 0 0;
#X connect 3 2 18 0;
#X connect 22 0 23 0;
#X connect 23 0 22 0;
#X connect 24 0 23 1;
#X connect 23 1 24 0;
#X connect 22 0 25 0;
#X connect 25 0 0 0;
#X connect 3 3 22 0;
#X connect 26 0 27 0;
#X connect 27 0 0 0;
#X connect 3 4 26 0;
#X connect 28 0 29 0;
#X connect 29 0 28 0;
#X connect 30 0 29 1;
#X connect 29 1 30 0;
#X connect 28 0 31 0;
#X connect 31 0 0 0;
#X connect 3 5 28 0;
#X coords 0 -1 1 1 200 204 2 2 200;
