#N canvas 0 0 950 600 12;
#X obj 25 125 synth.eguitar~;
#X obj 325 25 inlet;
#X obj 325 200 route synth.eguitar;
#X obj 325 250 route @gain @gate @mute @pitch @pos;
#X obj 575 350 print unknown property;
#X msg 225 75 @gain 1 \, @mute 0 \, @pitch 48 \, @pos 0.5 \,;
#X obj 225 25 msg.onload;
#X obj 500 550 outlet~;
#X obj 600 550 outlet ctl;
#X obj 3 202 cnv 8 198 18 empty empty [synth.eguitar~] 3 9 0 12
-104026 -262144 0;
#X text 10 218 gain:;
#X obj 12 237 ui.slider @size 120 12 @active_scale 1 @presetname
/gui/synth.eguitar~/slider0 @min 0 @max 1;
#X obj 140 237 ui.number @size 40 12 @digits 3 @min 0 @max 1;
#X obj 190 237 msg set;
#X msg 260 237 @gain \$1;
#X obj 12 259 ui.toggle @size 12 12;
#X text 26 254 gate;
#X msg 260 251 @gate \$1;
#X text 10 271 mute:;
#X obj 12 290 ui.slider @size 120 12 @active_scale 1 @presetname
/gui/synth.eguitar~/slider2 @min 0 @max 1;
#X obj 140 290 ui.number @size 40 12 @digits 3 @min 0 @max 1;
#X obj 190 290 msg set;
#X msg 260 290 @mute \$1;
#X text 10 304 pitch:;
#X obj 12 323 ui.slider @size 120 12 @active_scale 1 @presetname
/gui/synth.eguitar~/slider3 @min 36 @max 84;
#X obj 140 323 ui.number @size 40 12 @digits 3 @min 36 @max 84;
#X obj 190 323 msg set;
#X msg 260 323 @pitch \$1;
#X text 10 337 pos:;
#X obj 12 356 ui.slider @size 120 12 @active_scale 1 @presetname
/gui/synth.eguitar~/slider4 @min 0 @max 1;
#X obj 140 356 ui.number @size 40 12 @digits 3 @min 0 @max 1;
#X obj 190 356 msg set;
#X msg 260 356 @pos \$1;
#X connect 1 0 2 0;
#X connect 2 0 3 0;
#X connect 3 5 4 0;
#X connect 5 0 3 0;
#X connect 6 0 5 0;
#X connect 0 0 7 0;
#X connect 2 1 8 0;
#X connect 11 0 12 0;
#X connect 12 0 13 0;
#X connect 13 0 11 0;
#X connect 11 0 14 0;
#X connect 14 0 0 0;
#X connect 3 0 11 0;
#X connect 15 0 17 0;
#X connect 17 0 0 0;
#X connect 3 1 15 0;
#X connect 19 0 20 0;
#X connect 20 0 21 0;
#X connect 21 0 19 0;
#X connect 19 0 22 0;
#X connect 22 0 0 0;
#X connect 3 2 19 0;
#X connect 24 0 25 0;
#X connect 25 0 26 0;
#X connect 26 0 24 0;
#X connect 24 0 27 0;
#X connect 27 0 0 0;
#X connect 3 3 24 0;
#X connect 29 0 30 0;
#X connect 30 0 31 0;
#X connect 31 0 29 0;
#X connect 29 0 32 0;
#X connect 32 0 0 0;
#X connect 3 4 29 0;
#X coords 0 -1 1 1 200 178 2 2 200;
