#N canvas 0 0 950 600 12;
#X obj 25 125 synth.church_bell~;
#X obj 325 25 inlet;
#X obj 325 200 route synth.church_bell;
#X obj 325 250 route @cutoff @gain @gate @pos @sharp;
#X obj 575 350 print unknown property;
#X msg 225 75 @cutoff 6500 \, @gain 1 \, @pos 0 \, @sharp 0.5 \,;
#X obj 225 25 msg.onload;
#X obj 500 550 outlet~;
#X obj 600 550 outlet ctl;
#X obj 3 202 cnv 8 198 18 empty empty [synth.church_bell~] 3 9 0 12
-104026 -262144 0;
#X text 10 218 cutoff:;
#X obj 12 237 ui.slider @size 120 12 @active_scale 1 @presetname
/gui/$1/synth.church_bell~/slider0 @min 20 @max 20000;
#X obj 140 237 ui.number @size 40 12 @digits 3 @min 20 @max 20000;
#X obj 190 237 msg set;
#X msg 260 237 @cutoff \$1;
#X text 10 251 gain:;
#X obj 12 270 ui.slider @size 120 12 @active_scale 1 @presetname
/gui/$1/synth.church_bell~/slider1 @min 0 @max 1;
#X obj 140 270 ui.number @size 40 12 @digits 3 @min 0 @max 1;
#X obj 190 270 msg set;
#X msg 260 270 @gain \$1;
#X obj 12 292 ui.toggle @size 12 12;
#X text 26 287 gate;
#X msg 260 284 @gate \$1;
#X text 10 304 pos:;
#X obj 12 323 ui.number @size 60 12 @presetname
/gui/$1/synth.church_bell~/numbox3 @min 0 @max 6 @step 1;
#X msg 260 323 @pos \$1;
#X text 10 337 sharp:;
#X obj 12 356 ui.slider @size 120 12 @active_scale 1 @presetname
/gui/$1/synth.church_bell~/slider4 @min 0.01 @max 5;
#X obj 140 356 ui.number @size 40 12 @digits 3 @min 0.01 @max 5;
#X obj 190 356 msg set;
#X msg 260 356 @sharp \$1;
#X connect 1 0 2 0;
#X connect 2 0 3 0;
#X connect 3 5 4 0;
#X connect 5 0 3 0;
#X connect 6 0 5 0;
#X connect 0 0 7 0;
#X connect 2 1 8 0;
#X connect 11 0 12 0;
#X connect 12 0 13 0;
#X connect 13 0 11 0;
#X connect 11 0 14 0;
#X connect 14 0 0 0;
#X connect 3 0 11 0;
#X connect 16 0 17 0;
#X connect 17 0 18 0;
#X connect 18 0 16 0;
#X connect 16 0 19 0;
#X connect 19 0 0 0;
#X connect 3 1 16 0;
#X connect 20 0 22 0;
#X connect 22 0 0 0;
#X connect 3 2 20 0;
#X connect 24 0 25 0;
#X connect 25 0 0 0;
#X connect 3 3 24 0;
#X connect 27 0 28 0;
#X connect 28 0 29 0;
#X connect 29 0 27 0;
#X connect 27 0 30 0;
#X connect 30 0 0 0;
#X connect 3 4 27 0;
#X coords 0 -1 1 1 200 178 2 2 200;
