#N canvas 0 0 950 600 12;
#X obj 25 125 synth.ks~;
#X obj 325 25 inlet;
#X obj 325 125 route synth.ks * .;
#X obj 525 150 route.prop;
#X obj 375 200 msg *;
#X obj 325 250 route @cutoff @gain @gate @mode @mute @pitch @pos
@sharp default reset;
#X obj 575 350 t b a;
#X msg 575 375 supported messages are: @cutoff @gain @gate @mode @mute @pitch @pos @sharp default reset;
#X obj 575 425 print;
#X obj 625 425 print [gsynth.ks~] unknown message;
#X msg 225 75 @cutoff 1 \, @gain 1 \, @mode 1 \, @mute 0 \, @pitch 48 \, @pos 0.7 \, @sharp 0.25 \,;
#X obj 25 50 t b b;
#X msg 25 75 reset;
#X obj 225 25 msg.onload;
#X obj 500 550 outlet~;
#X obj 600 550 outlet ctl;
#X obj 3 202 cnv 8 198 249 empty empty empty 17 7 0 10 -174763 -1 0;
#X obj 3 202 cnv 8 198 18 empty empty [synth.ks~] 3 9 0 12 -104026
-262144 0;
#X obj 12 236 ui.slider @size 125 12 @active_scale 1 @label cutoff:
@label_side top @label_align left @fontsize 10 @presetname
/gui/\$1/synth.ks~/slider0 @min 0.1 @max 1;
#X obj 215 236 sync;
#X obj 145 236 ui.number @size 50 12 @min 0.1 @max 1 @digits 4;
#X msg 260 236 @cutoff \$1;
#X obj 12 266 ui.slider @size 125 12 @active_scale 1 @label gain:
@label_side top @label_align left @fontsize 10 @presetname
/gui/\$1/synth.ks~/slider1 @min 0 @max 1;
#X obj 215 266 sync;
#X obj 145 266 ui.number @size 50 12 @min 0 @max 1 @digits 4;
#X msg 260 266 @gain \$1;
#X obj 12 286 ui.toggle @size 12 12 @label gate @label_side right
@label_align left @fontsize 10;
#X msg 260 278 @gate \$1;
#X obj 12 314 ui.slider @size 125 12 @active_scale 1 @label mode:
@label_side top @label_align left @fontsize 10 @presetname
/gui/\$1/synth.ks~/slider3 @min 0 @max 2;
#X obj 215 314 sync;
#X obj 145 314 ui.number @size 50 12 @min 0 @max 2 @digits 3;
#X msg 260 314 @mode \$1;
#X obj 12 344 ui.slider @size 125 12 @active_scale 1 @label mute:
@label_side top @label_align left @fontsize 10 @presetname
/gui/\$1/synth.ks~/slider4 @min 0 @max 1;
#X obj 215 344 sync;
#X obj 145 344 ui.number @size 50 12 @min 0 @max 1 @digits 4;
#X msg 260 344 @mute \$1;
#X obj 12 374 ui.slider @size 125 12 @active_scale 1 @label pitch:
@label_side top @label_align left @fontsize 10 @presetname
/gui/\$1/synth.ks~/slider5 @min 36 @max 84;
#X obj 215 374 sync;
#X obj 145 374 ui.number @size 50 12 @min 36 @max 84 @digits 2;
#X msg 260 374 @pitch \$1;
#X obj 12 404 ui.slider @size 125 12 @active_scale 1 @label pos:
@label_side top @label_align left @fontsize 10 @presetname
/gui/\$1/synth.ks~/slider6 @min 0 @max 1;
#X obj 215 404 sync;
#X obj 145 404 ui.number @size 50 12 @min 0 @max 1 @digits 4;
#X msg 260 404 @pos \$1;
#X obj 12 434 ui.slider @size 125 12 @active_scale 1 @label sharp:
@label_side top @label_align left @fontsize 10 @presetname
/gui/\$1/synth.ks~/slider7 @min 0.01 @max 1;
#X obj 215 434 sync;
#X obj 145 434 ui.number @size 50 12 @min 0.01 @max 1 @digits 4;
#X msg 260 434 @sharp \$1;
#X connect 1 0 2 0;
#X connect 2 3 3 0;
#X connect 2 1 4 0;
#X connect 2 0 5 0;
#X connect 2 1 5 0;
#X connect 2 2 5 0;
#X connect 3 0 5 0;
#X connect 5 10 6 0;
#X connect 6 0 7 0;
#X connect 7 0 8 0;
#X connect 6 1 9 0;
#X connect 10 0 5 0;
#X connect 5 8 10 0;
#X connect 11 1 12 0;
#X connect 11 0 10 0;
#X connect 12 0 0 0;
#X connect 5 9 11 0;
#X connect 13 0 10 0;
#X connect 0 0 14 0;
#X connect 3 1 15 0;
#X connect 4 0 15 0;
#X connect 18 0 19 0;
#X connect 19 0 18 0;
#X connect 20 0 19 1;
#X connect 19 1 20 0;
#X connect 18 0 21 0;
#X connect 21 0 0 0;
#X connect 5 0 18 0;
#X connect 22 0 23 0;
#X connect 23 0 22 0;
#X connect 24 0 23 1;
#X connect 23 1 24 0;
#X connect 22 0 25 0;
#X connect 25 0 0 0;
#X connect 5 1 22 0;
#X connect 26 0 27 0;
#X connect 27 0 0 0;
#X connect 5 2 26 0;
#X connect 28 0 29 0;
#X connect 29 0 28 0;
#X connect 30 0 29 1;
#X connect 29 1 30 0;
#X connect 28 0 31 0;
#X connect 31 0 0 0;
#X connect 5 3 28 0;
#X connect 32 0 33 0;
#X connect 33 0 32 0;
#X connect 34 0 33 1;
#X connect 33 1 34 0;
#X connect 32 0 35 0;
#X connect 35 0 0 0;
#X connect 5 4 32 0;
#X connect 36 0 37 0;
#X connect 37 0 36 0;
#X connect 38 0 37 1;
#X connect 37 1 38 0;
#X connect 36 0 39 0;
#X connect 39 0 0 0;
#X connect 5 5 36 0;
#X connect 40 0 41 0;
#X connect 41 0 40 0;
#X connect 42 0 41 1;
#X connect 41 1 42 0;
#X connect 40 0 43 0;
#X connect 43 0 0 0;
#X connect 5 6 40 0;
#X connect 44 0 45 0;
#X connect 45 0 44 0;
#X connect 46 0 45 1;
#X connect 45 1 46 0;
#X connect 44 0 47 0;
#X connect 47 0 0 0;
#X connect 5 7 44 0;
#X coords 0 -1 1 1 200 254 2 2 200;
