#N canvas 0 0 950 600 12;
#X obj 25 125 synth.glass_harm~;
#X obj 325 25 inlet;
#X obj 325 125 route synth.glass_harm * .;
#X obj 525 150 t a a;
#X obj 575 175 is_prop;
#X obj 525 200 flow.demux 2;
#X obj 375 200 msg *;
#X obj 325 250 route @bow_press @gain @gate @integration @modfreq
@modtype @nonlin @pan @pitch @reverb_gain @room_size @strike @width
default reset;
#X obj 575 350 t b a;
#X msg 575 375 supported messages are: @bow_press @gain @gate @integration @modfreq @modtype @nonlin @pan @pitch @reverb_gain @room_size @strike @width default reset;
#X obj 575 425 print;
#X obj 625 425 print [gsynth.glass_harm~] unknown message;
#X msg 225 75 @bow_press 0.2 \, @gain 1 \, @integration 0 \, @modfreq 220 \, @modtype 0 \, @nonlin 0 \, @pan 0.6 \, @pitch 48 \, @reverb_gain 0.137 \, @room_size 0.36 \, @strike 0 \, @width 0.5 \,;
#X obj 25 50 t b b;
#X msg 25 75 reset;
#X obj 225 25 msg.onload;
#X obj 500 550 outlet~;
#X obj 600 550 outlet~;
#X obj 700 550 outlet ctl;
#X obj 3 202 cnv 8 198 399 empty empty empty 17 7 0 10 -174763 -1 0;
#X obj 3 202 cnv 8 198 18 empty empty [synth.glass_harm~] 3 9 0 12
-104026 -262144 0;
#X obj 12 236 ui.slider @size 125 12 @active_scale 1 @label bow_press:
@label_side top @label_align left @fontsize 10 @presetname
/gui/\$1/synth.glass_harm~/slider0 @min 0 @max 1;
#X obj 215 236 sync;
#X obj 145 236 ui.number @size 50 12 @min 0 @max 1 @digits 4;
#X msg 260 236 @bow_press \$1;
#X obj 12 266 ui.slider @size 125 12 @active_scale 1 @label gain:
@label_side top @label_align left @fontsize 10 @presetname
/gui/\$1/synth.glass_harm~/slider1 @min 0 @max 1;
#X obj 215 266 sync;
#X obj 145 266 ui.number @size 50 12 @min 0 @max 1 @digits 4;
#X msg 260 266 @gain \$1;
#X obj 12 286 ui.toggle @size 12 12 @label gate @label_side right
@label_align left @fontsize 10;
#X msg 260 278 @gate \$1;
#X obj 12 314 ui.slider @size 125 12 @active_scale 1 @label
integration: @label_side top @label_align left @fontsize 10
@presetname /gui/\$1/synth.glass_harm~/slider3 @min 0 @max 1;
#X obj 215 314 sync;
#X obj 145 314 ui.number @size 50 12 @min 0 @max 1 @digits 4;
#X msg 260 314 @integration \$1;
#X obj 12 344 ui.slider @size 125 12 @active_scale 1 @label
modfreq(Hz): @label_side top @label_align left @fontsize 10
@presetname /gui/\$1/synth.glass_harm~/slider4 @min 20 @max 1000;
#X obj 215 344 sync;
#X obj 145 344 ui.number @size 50 12 @min 20 @max 1000 @digits 1;
#X msg 260 344 @modfreq \$1;
#X obj 12 374 ui.number @size 60 12 @label modtype: @label_side top
@label_align left @fontsize 10 @presetname
/gui/\$1/synth.glass_harm~/numbox5 @min 0 @max 4 @step 1;
#X msg 260 374 @modtype \$1;
#X obj 12 404 ui.slider @size 125 12 @active_scale 1 @label nonlin:
@label_side top @label_align left @fontsize 10 @presetname
/gui/\$1/synth.glass_harm~/slider6 @min 0 @max 1;
#X obj 215 404 sync;
#X obj 145 404 ui.number @size 50 12 @min 0 @max 1 @digits 4;
#X msg 260 404 @nonlin \$1;
#X obj 12 434 ui.slider @size 125 12 @active_scale 1 @label pan:
@label_side top @label_align left @fontsize 10 @presetname
/gui/\$1/synth.glass_harm~/slider7 @min 0 @max 1;
#X obj 215 434 sync;
#X obj 145 434 ui.number @size 50 12 @min 0 @max 1 @digits 4;
#X msg 260 434 @pan \$1;
#X obj 12 464 ui.slider @size 125 12 @active_scale 1 @label pitch:
@label_side top @label_align left @fontsize 10 @presetname
/gui/\$1/synth.glass_harm~/slider8 @min 24 @max 96;
#X obj 215 464 sync;
#X obj 145 464 ui.number @size 50 12 @min 24 @max 96 @digits 2;
#X msg 260 464 @pitch \$1;
#X obj 12 494 ui.slider @size 125 12 @active_scale 1 @label
reverb_gain: @label_side top @label_align left @fontsize 10
@presetname /gui/\$1/synth.glass_harm~/slider9 @min 0 @max 1;
#X obj 215 494 sync;
#X obj 145 494 ui.number @size 50 12 @min 0 @max 1 @digits 4;
#X msg 260 494 @reverb_gain \$1;
#X obj 12 524 ui.slider @size 125 12 @active_scale 1 @label room_size:
@label_side top @label_align left @fontsize 10 @presetname
/gui/\$1/synth.glass_harm~/slider10 @min 0.005 @max 1;
#X obj 215 524 sync;
#X obj 145 524 ui.number @size 50 12 @min 0.005 @max 1 @digits 4;
#X msg 260 524 @room_size \$1;
#X obj 12 554 ui.number @size 60 12 @label strike: @label_side top
@label_align left @fontsize 10 @presetname
/gui/\$1/synth.glass_harm~/numbox11 @min 0 @max 1 @step 1;
#X msg 260 554 @strike \$1;
#X obj 12 584 ui.slider @size 125 12 @active_scale 1 @label width:
@label_side top @label_align left @fontsize 10 @presetname
/gui/\$1/synth.glass_harm~/slider12 @min 0 @max 1;
#X obj 215 584 sync;
#X obj 145 584 ui.number @size 50 12 @min 0 @max 1 @digits 4;
#X msg 260 584 @width \$1;
#X connect 1 0 2 0;
#X connect 3 0 5 0;
#X connect 3 1 4 0;
#X connect 4 0 5 1;
#X connect 2 3 3 0;
#X connect 2 1 6 0;
#X connect 2 0 7 0;
#X connect 2 1 7 0;
#X connect 2 2 7 0;
#X connect 5 1 7 0;
#X connect 7 15 8 0;
#X connect 8 0 9 0;
#X connect 9 0 10 0;
#X connect 8 1 11 0;
#X connect 12 0 7 0;
#X connect 7 13 12 0;
#X connect 13 1 14 0;
#X connect 13 0 12 0;
#X connect 14 0 0 0;
#X connect 7 14 13 0;
#X connect 15 0 12 0;
#X connect 0 0 16 0;
#X connect 0 1 17 0;
#X connect 5 0 18 0;
#X connect 6 0 18 0;
#X connect 21 0 22 0;
#X connect 22 0 21 0;
#X connect 23 0 22 1;
#X connect 22 1 23 0;
#X connect 21 0 24 0;
#X connect 24 0 0 0;
#X connect 7 0 21 0;
#X connect 25 0 26 0;
#X connect 26 0 25 0;
#X connect 27 0 26 1;
#X connect 26 1 27 0;
#X connect 25 0 28 0;
#X connect 28 0 0 0;
#X connect 7 1 25 0;
#X connect 29 0 30 0;
#X connect 30 0 0 0;
#X connect 7 2 29 0;
#X connect 31 0 32 0;
#X connect 32 0 31 0;
#X connect 33 0 32 1;
#X connect 32 1 33 0;
#X connect 31 0 34 0;
#X connect 34 0 0 0;
#X connect 7 3 31 0;
#X connect 35 0 36 0;
#X connect 36 0 35 0;
#X connect 37 0 36 1;
#X connect 36 1 37 0;
#X connect 35 0 38 0;
#X connect 38 0 0 0;
#X connect 7 4 35 0;
#X connect 39 0 40 0;
#X connect 40 0 0 0;
#X connect 7 5 39 0;
#X connect 41 0 42 0;
#X connect 42 0 41 0;
#X connect 43 0 42 1;
#X connect 42 1 43 0;
#X connect 41 0 44 0;
#X connect 44 0 0 0;
#X connect 7 6 41 0;
#X connect 45 0 46 0;
#X connect 46 0 45 0;
#X connect 47 0 46 1;
#X connect 46 1 47 0;
#X connect 45 0 48 0;
#X connect 48 0 0 0;
#X connect 7 7 45 0;
#X connect 49 0 50 0;
#X connect 50 0 49 0;
#X connect 51 0 50 1;
#X connect 50 1 51 0;
#X connect 49 0 52 0;
#X connect 52 0 0 0;
#X connect 7 8 49 0;
#X connect 53 0 54 0;
#X connect 54 0 53 0;
#X connect 55 0 54 1;
#X connect 54 1 55 0;
#X connect 53 0 56 0;
#X connect 56 0 0 0;
#X connect 7 9 53 0;
#X connect 57 0 58 0;
#X connect 58 0 57 0;
#X connect 59 0 58 1;
#X connect 58 1 59 0;
#X connect 57 0 60 0;
#X connect 60 0 0 0;
#X connect 7 10 57 0;
#X connect 61 0 62 0;
#X connect 62 0 0 0;
#X connect 7 11 61 0;
#X connect 63 0 64 0;
#X connect 64 0 63 0;
#X connect 65 0 64 1;
#X connect 64 1 65 0;
#X connect 63 0 66 0;
#X connect 66 0 0 0;
#X connect 7 12 63 0;
#X coords 0 -1 1 1 200 404 2 2 200;
