#N canvas 0 0 950 600 12;
#X obj 25 125 synth.risset_arp~;
#X obj 325 25 inlet;
#X obj 325 200 route synth.risset_arp;
#X obj 325 250 route @detune @freq @harmonic1 @harmonic2 @harmonic3
@harmonic4 @harmonic5 @harmonic6 @harmonic7 @harmonic8 @spread;
#X obj 575 350 print unknown property;
#X msg 225 75 @detune 5 \, @freq 100 \, @harmonic1 1 \, @harmonic2 1 \, @harmonic3 1 \, @harmonic4 1 \, @harmonic5 1 \, @harmonic6 1 \, @harmonic7 1 \, @harmonic8 1 \, @spread 1 \,;
#X obj 225 25 msg.onload;
#X obj 500 550 outlet~;
#X obj 600 550 outlet~;
#X obj 700 550 outlet ctl;
#X obj 3 202 cnv 8 198 18 empty empty [synth.risset_arp~] 3 9 0 12
-104026 -262144 0;
#X text 10 218 detune:;
#X obj 12 237 ui.slider @size 120 12 @active_scale 1 @presetname
/gui/synth.risset_arp~/slider0 @min 0 @max 1000;
#X obj 140 237 ui.number @size 40 12 @digits 3 @min 0 @max 1000;
#X obj 190 237 msg set;
#X msg 260 237 @detune \$1;
#X text 10 251 freq:;
#X obj 12 270 ui.slider @size 120 12 @active_scale 1 @presetname
/gui/synth.risset_arp~/slider1 @min 40 @max 500;
#X obj 140 270 ui.number @size 40 12 @digits 3 @min 40 @max 500;
#X obj 190 270 msg set;
#X msg 260 270 @freq \$1;
#X text 10 284 harmonic1:;
#X obj 12 303 ui.slider @size 120 12 @active_scale 1 @presetname
/gui/synth.risset_arp~/slider2 @min 0 @max 1;
#X obj 140 303 ui.number @size 40 12 @digits 3 @min 0 @max 1;
#X obj 190 303 msg set;
#X msg 260 303 @harmonic1 \$1;
#X text 10 317 harmonic2:;
#X obj 12 336 ui.slider @size 120 12 @active_scale 1 @presetname
/gui/synth.risset_arp~/slider3 @min 0 @max 1;
#X obj 140 336 ui.number @size 40 12 @digits 3 @min 0 @max 1;
#X obj 190 336 msg set;
#X msg 260 336 @harmonic2 \$1;
#X text 10 350 harmonic3:;
#X obj 12 369 ui.slider @size 120 12 @active_scale 1 @presetname
/gui/synth.risset_arp~/slider4 @min 0 @max 1;
#X obj 140 369 ui.number @size 40 12 @digits 3 @min 0 @max 1;
#X obj 190 369 msg set;
#X msg 260 369 @harmonic3 \$1;
#X text 10 383 harmonic4:;
#X obj 12 402 ui.slider @size 120 12 @active_scale 1 @presetname
/gui/synth.risset_arp~/slider5 @min 0 @max 1;
#X obj 140 402 ui.number @size 40 12 @digits 3 @min 0 @max 1;
#X obj 190 402 msg set;
#X msg 260 402 @harmonic4 \$1;
#X text 10 416 harmonic5:;
#X obj 12 435 ui.slider @size 120 12 @active_scale 1 @presetname
/gui/synth.risset_arp~/slider6 @min 0 @max 1;
#X obj 140 435 ui.number @size 40 12 @digits 3 @min 0 @max 1;
#X obj 190 435 msg set;
#X msg 260 435 @harmonic5 \$1;
#X text 10 449 harmonic6:;
#X obj 12 468 ui.slider @size 120 12 @active_scale 1 @presetname
/gui/synth.risset_arp~/slider7 @min 0 @max 1;
#X obj 140 468 ui.number @size 40 12 @digits 3 @min 0 @max 1;
#X obj 190 468 msg set;
#X msg 260 468 @harmonic6 \$1;
#X text 10 482 harmonic7:;
#X obj 12 501 ui.slider @size 120 12 @active_scale 1 @presetname
/gui/synth.risset_arp~/slider8 @min 0 @max 1;
#X obj 140 501 ui.number @size 40 12 @digits 3 @min 0 @max 1;
#X obj 190 501 msg set;
#X msg 260 501 @harmonic7 \$1;
#X text 10 515 harmonic8:;
#X obj 12 534 ui.slider @size 120 12 @active_scale 1 @presetname
/gui/synth.risset_arp~/slider9 @min 0 @max 1;
#X obj 140 534 ui.number @size 40 12 @digits 3 @min 0 @max 1;
#X obj 190 534 msg set;
#X msg 260 534 @harmonic8 \$1;
#X text 10 548 spread:;
#X obj 12 567 ui.slider @size 120 12 @active_scale 1 @presetname
/gui/synth.risset_arp~/slider10 @min 0 @max 1;
#X obj 140 567 ui.number @size 40 12 @digits 3 @min 0 @max 1;
#X obj 190 567 msg set;
#X msg 260 567 @spread \$1;
#X connect 1 0 2 0;
#X connect 2 0 3 0;
#X connect 3 11 4 0;
#X connect 5 0 3 0;
#X connect 6 0 5 0;
#X connect 0 0 7 0;
#X connect 0 1 8 0;
#X connect 2 1 9 0;
#X connect 12 0 13 0;
#X connect 13 0 14 0;
#X connect 14 0 12 0;
#X connect 12 0 15 0;
#X connect 15 0 0 0;
#X connect 3 0 12 0;
#X connect 17 0 18 0;
#X connect 18 0 19 0;
#X connect 19 0 17 0;
#X connect 17 0 20 0;
#X connect 20 0 0 0;
#X connect 3 1 17 0;
#X connect 22 0 23 0;
#X connect 23 0 24 0;
#X connect 24 0 22 0;
#X connect 22 0 25 0;
#X connect 25 0 0 0;
#X connect 3 2 22 0;
#X connect 27 0 28 0;
#X connect 28 0 29 0;
#X connect 29 0 27 0;
#X connect 27 0 30 0;
#X connect 30 0 0 0;
#X connect 3 3 27 0;
#X connect 32 0 33 0;
#X connect 33 0 34 0;
#X connect 34 0 32 0;
#X connect 32 0 35 0;
#X connect 35 0 0 0;
#X connect 3 4 32 0;
#X connect 37 0 38 0;
#X connect 38 0 39 0;
#X connect 39 0 37 0;
#X connect 37 0 40 0;
#X connect 40 0 0 0;
#X connect 3 5 37 0;
#X connect 42 0 43 0;
#X connect 43 0 44 0;
#X connect 44 0 42 0;
#X connect 42 0 45 0;
#X connect 45 0 0 0;
#X connect 3 6 42 0;
#X connect 47 0 48 0;
#X connect 48 0 49 0;
#X connect 49 0 47 0;
#X connect 47 0 50 0;
#X connect 50 0 0 0;
#X connect 3 7 47 0;
#X connect 52 0 53 0;
#X connect 53 0 54 0;
#X connect 54 0 52 0;
#X connect 52 0 55 0;
#X connect 55 0 0 0;
#X connect 3 8 52 0;
#X connect 57 0 58 0;
#X connect 58 0 59 0;
#X connect 59 0 57 0;
#X connect 57 0 60 0;
#X connect 60 0 0 0;
#X connect 3 9 57 0;
#X connect 62 0 63 0;
#X connect 63 0 64 0;
#X connect 64 0 62 0;
#X connect 62 0 65 0;
#X connect 65 0 0 0;
#X connect 3 10 62 0;
#X coords 0 -1 1 1 200 389 2 2 200;
