#N canvas 0 0 950 600 12;
#X obj 25 125 synth.dx7~;
#X obj 325 25 inlet;
#X obj 325 200 route synth.dx7;
#X obj 325 250 route @algorithm @feedback @freq @gain @gate @op0:egL1
@op0:egL2 @op0:egL3 @op0:egL4 @op0:egR1 @op0:egR2 @op0:egR3 @op0:egR4
@op0:keyVelSens @op0:level @op0:opDetune @op0:opFreq @op0:opMode
@op0:opRateScale @op1:egL1 @op1:egL2 @op1:egL3 @op1:egL4 @op1:egR1
@op1:egR2 @op1:egR3 @op1:egR4 @op1:keyVelSens @op1:level @op1:opDetune
@op1:opFreq @op1:opMode @op1:opRateScale @op2:egL1 @op2:egL2 @op2:egL3
@op2:egL4 @op2:egR1 @op2:egR2 @op2:egR3 @op2:egR4 @op2:keyVelSens
@op2:level @op2:opDetune @op2:opFreq @op2:opMode @op2:opRateScale
@op3:egL1 @op3:egL2 @op3:egL3 @op3:egL4 @op3:egR1 @op3:egR2 @op3:egR3
@op3:egR4 @op3:keyVelSens @op3:level @op3:opDetune @op3:opFreq
@op3:opMode @op3:opRateScale @op4:egL1 @op4:egL2 @op4:egL3 @op4:egL4
@op4:egR1 @op4:egR2 @op4:egR3 @op4:egR4 @op4:keyVelSens @op4:level
@op4:opDetune @op4:opFreq @op4:opMode @op4:opRateScale @op5:egL1
@op5:egL2 @op5:egL3 @op5:egL4 @op5:egR1 @op5:egR2 @op5:egR3 @op5:egR4
@op5:keyVelSens @op5:level @op5:opDetune @op5:opFreq @op5:opMode
@op5:opRateScale;
#X obj 575 350 print unknown property;
#X msg 225 75 @algorithm 0 \, @feedback 0 \, @freq 400 \, @gain 0.8 \, @op0:egL1 0 \, @op0:egL2 90 \, @op0:egL3 90 \, @op0:egL4 0 \, @op0:egR1 90 \, @op0:egR2 90 \, @op0:egR3 90 \, @op0:egR4 90 \, @op0:keyVelSens 1 \, @op0:level 95 \, @op0:opDetune 1 \, @op0:opFreq 1 \, @op0:opMode 0 \, @op0:opRateScale 0 \, @op1:egL1 0 \, @op1:egL2 90 \, @op1:egL3 90 \, @op1:egL4 0 \, @op1:egR1 90 \, @op1:egR2 90 \, @op1:egR3 90 \, @op1:egR4 90 \, @op1:keyVelSens 1 \, @op1:level 95 \, @op1:opDetune 1 \, @op1:opFreq 1 \, @op1:opMode 0 \, @op1:opRateScale 0 \, @op2:egL1 0 \, @op2:egL2 90 \, @op2:egL3 90 \, @op2:egL4 0 \, @op2:egR1 90 \, @op2:egR2 90 \, @op2:egR3 90 \, @op2:egR4 90 \, @op2:keyVelSens 1 \, @op2:level 95 \, @op2:opDetune 1 \, @op2:opFreq 1 \, @op2:opMode 0 \, @op2:opRateScale 0 \, @op3:egL1 0 \, @op3:egL2 90 \, @op3:egL3 90 \, @op3:egL4 0 \, @op3:egR1 90 \, @op3:egR2 90 \, @op3:egR3 90 \, @op3:egR4 90 \, @op3:keyVelSens 1 \, @op3:level 95 \, @op3:opDetune 1 \, @op3:opFreq 1 \, @op3:opMode 0 \, @op3:opRateScale 0 \, @op4:egL1 0 \, @op4:egL2 90 \, @op4:egL3 90 \, @op4:egL4 0 \, @op4:egR1 90 \, @op4:egR2 90 \, @op4:egR3 90 \, @op4:egR4 90 \, @op4:keyVelSens 1 \, @op4:level 95 \, @op4:opDetune 1 \, @op4:opFreq 1 \, @op4:opMode 0 \, @op4:opRateScale 0 \, @op5:egL1 0 \, @op5:egL2 90 \, @op5:egL3 90 \, @op5:egL4 0 \, @op5:egR1 90 \, @op5:egR2 90 \, @op5:egR3 90 \, @op5:egR4 90 \, @op5:keyVelSens 1 \, @op5:level 95 \, @op5:opDetune 1 \, @op5:opFreq 1 \, @op5:opMode 0 \, @op5:opRateScale 0 \,;
#X obj 225 25 msg.onload;
#X obj 500 550 outlet~;
#X obj 600 550 outlet ctl;
#X obj 3 202 cnv 8 198 18 empty empty [synth.dx7~] 3 9 0 12 -104026
-262144 0;
#X text 10 218 algorithm:;
#X obj 12 232 ui.number @size 60 12 @presetname
/gui/\$1/synth.dx7~/numbox0 @min 0 @max 31 @step 1;
#X msg 260 232 @algorithm \$1;
#X text 10 246 feedback:;
#X obj 12 260 ui.number @size 60 12 @presetname
/gui/\$1/synth.dx7~/numbox1 @min 0 @max 99 @step 1;
#X msg 260 260 @feedback \$1;
#X obj 12 294 ui.slider @size 125 12 @active_scale 1 @label freq:
@label_side top @label_align left @fontsize 10 @presetname
/gui/\$1/synth.dx7~/slider2 @min 50 @max 1000;
#X obj 145 294 ui.number @size 50 12 @min 50 @max 1000 @digits 1;
#X obj 200 294 msg set;
#X msg 260 294 @freq \$1;
#X obj 12 326 ui.slider @size 125 12 @active_scale 1 @label gain:
@label_side top @label_align left @fontsize 10 @presetname
/gui/\$1/synth.dx7~/slider3 @min 0 @max 1;
#X obj 145 326 ui.number @size 50 12 @min 0 @max 1 @digits 4;
#X obj 200 326 msg set;
#X msg 260 326 @gain \$1;
#X obj 12 346 ui.toggle @size 12 12 @label gate @label_side right
@label_align left @fontsize 10;
#X msg 260 338 @gate \$1;
#X text 10 356 op0:egL1:;
#X obj 12 370 ui.number @size 60 12 @presetname
/gui/\$1/synth.dx7~/numbox5 @min 0 @max 99 @step 1;
#X msg 260 370 @op0:egL1 \$1;
#X text 10 384 op0:egL2:;
#X obj 12 398 ui.number @size 60 12 @presetname
/gui/\$1/synth.dx7~/numbox6 @min 0 @max 99 @step 1;
#X msg 260 398 @op0:egL2 \$1;
#X text 10 412 op0:egL3:;
#X obj 12 426 ui.number @size 60 12 @presetname
/gui/\$1/synth.dx7~/numbox7 @min 0 @max 99 @step 1;
#X msg 260 426 @op0:egL3 \$1;
#X text 10 440 op0:egL4:;
#X obj 12 454 ui.number @size 60 12 @presetname
/gui/\$1/synth.dx7~/numbox8 @min 0 @max 99 @step 1;
#X msg 260 454 @op0:egL4 \$1;
#X text 10 468 op0:egR1:;
#X obj 12 482 ui.number @size 60 12 @presetname
/gui/\$1/synth.dx7~/numbox9 @min 0 @max 99 @step 1;
#X msg 260 482 @op0:egR1 \$1;
#X text 10 496 op0:egR2:;
#X obj 12 510 ui.number @size 60 12 @presetname
/gui/\$1/synth.dx7~/numbox10 @min 0 @max 99 @step 1;
#X msg 260 510 @op0:egR2 \$1;
#X text 10 524 op0:egR3:;
#X obj 12 538 ui.number @size 60 12 @presetname
/gui/\$1/synth.dx7~/numbox11 @min 0 @max 99 @step 1;
#X msg 260 538 @op0:egR3 \$1;
#X text 10 552 op0:egR4:;
#X obj 12 566 ui.number @size 60 12 @presetname
/gui/\$1/synth.dx7~/numbox12 @min 0 @max 99 @step 1;
#X msg 260 566 @op0:egR4 \$1;
#X text 10 580 op0:keyVelSens:;
#X obj 12 594 ui.number @size 60 12 @presetname
/gui/\$1/synth.dx7~/numbox13 @min 0 @max 8 @step 1;
#X msg 260 594 @op0:keyVelSens \$1;
#X text 10 608 op0:level:;
#X obj 12 622 ui.number @size 60 12 @presetname
/gui/\$1/synth.dx7~/numbox14 @min 0 @max 99 @step 1;
#X msg 260 622 @op0:level \$1;
#X text 10 636 op0:opDetune:;
#X obj 12 650 ui.number @size 60 12 @presetname
/gui/\$1/synth.dx7~/numbox15 @min -10 @max 10 @step 1;
#X msg 260 650 @op0:opDetune \$1;
#X text 10 664 op0:opFreq:;
#X obj 12 678 ui.number @size 60 12 @presetname
/gui/\$1/synth.dx7~/numbox16 @min 0 @max 2 @step 0.01;
#X msg 260 678 @op0:opFreq \$1;
#X text 10 692 op0:opMode:;
#X obj 12 706 ui.number @size 60 12 @presetname
/gui/\$1/synth.dx7~/numbox17 @min 0 @max 1 @step 1;
#X msg 260 706 @op0:opMode \$1;
#X text 10 720 op0:opRateScale:;
#X obj 12 734 ui.number @size 60 12 @presetname
/gui/\$1/synth.dx7~/numbox18 @min 0 @max 10 @step 1;
#X msg 260 734 @op0:opRateScale \$1;
#X text 10 748 op1:egL1:;
#X obj 12 762 ui.number @size 60 12 @presetname
/gui/\$1/synth.dx7~/numbox19 @min 0 @max 99 @step 1;
#X msg 260 762 @op1:egL1 \$1;
#X text 10 776 op1:egL2:;
#X obj 12 790 ui.number @size 60 12 @presetname
/gui/\$1/synth.dx7~/numbox20 @min 0 @max 99 @step 1;
#X msg 260 790 @op1:egL2 \$1;
#X text 10 804 op1:egL3:;
#X obj 12 818 ui.number @size 60 12 @presetname
/gui/\$1/synth.dx7~/numbox21 @min 0 @max 99 @step 1;
#X msg 260 818 @op1:egL3 \$1;
#X text 10 832 op1:egL4:;
#X obj 12 846 ui.number @size 60 12 @presetname
/gui/\$1/synth.dx7~/numbox22 @min 0 @max 99 @step 1;
#X msg 260 846 @op1:egL4 \$1;
#X text 10 860 op1:egR1:;
#X obj 12 874 ui.number @size 60 12 @presetname
/gui/\$1/synth.dx7~/numbox23 @min 0 @max 99 @step 1;
#X msg 260 874 @op1:egR1 \$1;
#X text 10 888 op1:egR2:;
#X obj 12 902 ui.number @size 60 12 @presetname
/gui/\$1/synth.dx7~/numbox24 @min 0 @max 99 @step 1;
#X msg 260 902 @op1:egR2 \$1;
#X text 10 916 op1:egR3:;
#X obj 12 930 ui.number @size 60 12 @presetname
/gui/\$1/synth.dx7~/numbox25 @min 0 @max 99 @step 1;
#X msg 260 930 @op1:egR3 \$1;
#X text 10 944 op1:egR4:;
#X obj 12 958 ui.number @size 60 12 @presetname
/gui/\$1/synth.dx7~/numbox26 @min 0 @max 99 @step 1;
#X msg 260 958 @op1:egR4 \$1;
#X text 10 972 op1:keyVelSens:;
#X obj 12 986 ui.number @size 60 12 @presetname
/gui/\$1/synth.dx7~/numbox27 @min 0 @max 8 @step 1;
#X msg 260 986 @op1:keyVelSens \$1;
#X text 10 1000 op1:level:;
#X obj 12 1014 ui.number @size 60 12 @presetname
/gui/\$1/synth.dx7~/numbox28 @min 0 @max 99 @step 1;
#X msg 260 1014 @op1:level \$1;
#X text 10 1028 op1:opDetune:;
#X obj 12 1042 ui.number @size 60 12 @presetname
/gui/\$1/synth.dx7~/numbox29 @min -10 @max 10 @step 1;
#X msg 260 1042 @op1:opDetune \$1;
#X text 10 1056 op1:opFreq:;
#X obj 12 1070 ui.number @size 60 12 @presetname
/gui/\$1/synth.dx7~/numbox30 @min 0 @max 2 @step 0.01;
#X msg 260 1070 @op1:opFreq \$1;
#X text 10 1084 op1:opMode:;
#X obj 12 1098 ui.number @size 60 12 @presetname
/gui/\$1/synth.dx7~/numbox31 @min 0 @max 1 @step 1;
#X msg 260 1098 @op1:opMode \$1;
#X text 10 1112 op1:opRateScale:;
#X obj 12 1126 ui.number @size 60 12 @presetname
/gui/\$1/synth.dx7~/numbox32 @min 0 @max 10 @step 1;
#X msg 260 1126 @op1:opRateScale \$1;
#X text 10 1140 op2:egL1:;
#X obj 12 1154 ui.number @size 60 12 @presetname
/gui/\$1/synth.dx7~/numbox33 @min 0 @max 99 @step 1;
#X msg 260 1154 @op2:egL1 \$1;
#X text 10 1168 op2:egL2:;
#X obj 12 1182 ui.number @size 60 12 @presetname
/gui/\$1/synth.dx7~/numbox34 @min 0 @max 99 @step 1;
#X msg 260 1182 @op2:egL2 \$1;
#X text 10 1196 op2:egL3:;
#X obj 12 1210 ui.number @size 60 12 @presetname
/gui/\$1/synth.dx7~/numbox35 @min 0 @max 99 @step 1;
#X msg 260 1210 @op2:egL3 \$1;
#X text 10 1224 op2:egL4:;
#X obj 12 1238 ui.number @size 60 12 @presetname
/gui/\$1/synth.dx7~/numbox36 @min 0 @max 99 @step 1;
#X msg 260 1238 @op2:egL4 \$1;
#X text 10 1252 op2:egR1:;
#X obj 12 1266 ui.number @size 60 12 @presetname
/gui/\$1/synth.dx7~/numbox37 @min 0 @max 99 @step 1;
#X msg 260 1266 @op2:egR1 \$1;
#X text 10 1280 op2:egR2:;
#X obj 12 1294 ui.number @size 60 12 @presetname
/gui/\$1/synth.dx7~/numbox38 @min 0 @max 99 @step 1;
#X msg 260 1294 @op2:egR2 \$1;
#X text 10 1308 op2:egR3:;
#X obj 12 1322 ui.number @size 60 12 @presetname
/gui/\$1/synth.dx7~/numbox39 @min 0 @max 99 @step 1;
#X msg 260 1322 @op2:egR3 \$1;
#X text 10 1336 op2:egR4:;
#X obj 12 1350 ui.number @size 60 12 @presetname
/gui/\$1/synth.dx7~/numbox40 @min 0 @max 99 @step 1;
#X msg 260 1350 @op2:egR4 \$1;
#X text 10 1364 op2:keyVelSens:;
#X obj 12 1378 ui.number @size 60 12 @presetname
/gui/\$1/synth.dx7~/numbox41 @min 0 @max 8 @step 1;
#X msg 260 1378 @op2:keyVelSens \$1;
#X text 10 1392 op2:level:;
#X obj 12 1406 ui.number @size 60 12 @presetname
/gui/\$1/synth.dx7~/numbox42 @min 0 @max 99 @step 1;
#X msg 260 1406 @op2:level \$1;
#X text 10 1420 op2:opDetune:;
#X obj 12 1434 ui.number @size 60 12 @presetname
/gui/\$1/synth.dx7~/numbox43 @min -10 @max 10 @step 1;
#X msg 260 1434 @op2:opDetune \$1;
#X text 10 1448 op2:opFreq:;
#X obj 12 1462 ui.number @size 60 12 @presetname
/gui/\$1/synth.dx7~/numbox44 @min 0 @max 2 @step 0.01;
#X msg 260 1462 @op2:opFreq \$1;
#X text 10 1476 op2:opMode:;
#X obj 12 1490 ui.number @size 60 12 @presetname
/gui/\$1/synth.dx7~/numbox45 @min 0 @max 1 @step 1;
#X msg 260 1490 @op2:opMode \$1;
#X text 10 1504 op2:opRateScale:;
#X obj 12 1518 ui.number @size 60 12 @presetname
/gui/\$1/synth.dx7~/numbox46 @min 0 @max 10 @step 1;
#X msg 260 1518 @op2:opRateScale \$1;
#X text 10 1532 op3:egL1:;
#X obj 12 1546 ui.number @size 60 12 @presetname
/gui/\$1/synth.dx7~/numbox47 @min 0 @max 99 @step 1;
#X msg 260 1546 @op3:egL1 \$1;
#X text 10 1560 op3:egL2:;
#X obj 12 1574 ui.number @size 60 12 @presetname
/gui/\$1/synth.dx7~/numbox48 @min 0 @max 99 @step 1;
#X msg 260 1574 @op3:egL2 \$1;
#X text 10 1588 op3:egL3:;
#X obj 12 1602 ui.number @size 60 12 @presetname
/gui/\$1/synth.dx7~/numbox49 @min 0 @max 99 @step 1;
#X msg 260 1602 @op3:egL3 \$1;
#X text 10 1616 op3:egL4:;
#X obj 12 1630 ui.number @size 60 12 @presetname
/gui/\$1/synth.dx7~/numbox50 @min 0 @max 99 @step 1;
#X msg 260 1630 @op3:egL4 \$1;
#X text 10 1644 op3:egR1:;
#X obj 12 1658 ui.number @size 60 12 @presetname
/gui/\$1/synth.dx7~/numbox51 @min 0 @max 99 @step 1;
#X msg 260 1658 @op3:egR1 \$1;
#X text 10 1672 op3:egR2:;
#X obj 12 1686 ui.number @size 60 12 @presetname
/gui/\$1/synth.dx7~/numbox52 @min 0 @max 99 @step 1;
#X msg 260 1686 @op3:egR2 \$1;
#X text 10 1700 op3:egR3:;
#X obj 12 1714 ui.number @size 60 12 @presetname
/gui/\$1/synth.dx7~/numbox53 @min 0 @max 99 @step 1;
#X msg 260 1714 @op3:egR3 \$1;
#X text 10 1728 op3:egR4:;
#X obj 12 1742 ui.number @size 60 12 @presetname
/gui/\$1/synth.dx7~/numbox54 @min 0 @max 99 @step 1;
#X msg 260 1742 @op3:egR4 \$1;
#X text 10 1756 op3:keyVelSens:;
#X obj 12 1770 ui.number @size 60 12 @presetname
/gui/\$1/synth.dx7~/numbox55 @min 0 @max 8 @step 1;
#X msg 260 1770 @op3:keyVelSens \$1;
#X text 10 1784 op3:level:;
#X obj 12 1798 ui.number @size 60 12 @presetname
/gui/\$1/synth.dx7~/numbox56 @min 0 @max 99 @step 1;
#X msg 260 1798 @op3:level \$1;
#X text 10 1812 op3:opDetune:;
#X obj 12 1826 ui.number @size 60 12 @presetname
/gui/\$1/synth.dx7~/numbox57 @min -10 @max 10 @step 1;
#X msg 260 1826 @op3:opDetune \$1;
#X text 10 1840 op3:opFreq:;
#X obj 12 1854 ui.number @size 60 12 @presetname
/gui/\$1/synth.dx7~/numbox58 @min 0 @max 2 @step 0.01;
#X msg 260 1854 @op3:opFreq \$1;
#X text 10 1868 op3:opMode:;
#X obj 12 1882 ui.number @size 60 12 @presetname
/gui/\$1/synth.dx7~/numbox59 @min 0 @max 1 @step 1;
#X msg 260 1882 @op3:opMode \$1;
#X text 10 1896 op3:opRateScale:;
#X obj 12 1910 ui.number @size 60 12 @presetname
/gui/\$1/synth.dx7~/numbox60 @min 0 @max 10 @step 1;
#X msg 260 1910 @op3:opRateScale \$1;
#X text 10 1924 op4:egL1:;
#X obj 12 1938 ui.number @size 60 12 @presetname
/gui/\$1/synth.dx7~/numbox61 @min 0 @max 99 @step 1;
#X msg 260 1938 @op4:egL1 \$1;
#X text 10 1952 op4:egL2:;
#X obj 12 1966 ui.number @size 60 12 @presetname
/gui/\$1/synth.dx7~/numbox62 @min 0 @max 99 @step 1;
#X msg 260 1966 @op4:egL2 \$1;
#X text 10 1980 op4:egL3:;
#X obj 12 1994 ui.number @size 60 12 @presetname
/gui/\$1/synth.dx7~/numbox63 @min 0 @max 99 @step 1;
#X msg 260 1994 @op4:egL3 \$1;
#X text 10 2008 op4:egL4:;
#X obj 12 2022 ui.number @size 60 12 @presetname
/gui/\$1/synth.dx7~/numbox64 @min 0 @max 99 @step 1;
#X msg 260 2022 @op4:egL4 \$1;
#X text 10 2036 op4:egR1:;
#X obj 12 2050 ui.number @size 60 12 @presetname
/gui/\$1/synth.dx7~/numbox65 @min 0 @max 99 @step 1;
#X msg 260 2050 @op4:egR1 \$1;
#X text 10 2064 op4:egR2:;
#X obj 12 2078 ui.number @size 60 12 @presetname
/gui/\$1/synth.dx7~/numbox66 @min 0 @max 99 @step 1;
#X msg 260 2078 @op4:egR2 \$1;
#X text 10 2092 op4:egR3:;
#X obj 12 2106 ui.number @size 60 12 @presetname
/gui/\$1/synth.dx7~/numbox67 @min 0 @max 99 @step 1;
#X msg 260 2106 @op4:egR3 \$1;
#X text 10 2120 op4:egR4:;
#X obj 12 2134 ui.number @size 60 12 @presetname
/gui/\$1/synth.dx7~/numbox68 @min 0 @max 99 @step 1;
#X msg 260 2134 @op4:egR4 \$1;
#X text 10 2148 op4:keyVelSens:;
#X obj 12 2162 ui.number @size 60 12 @presetname
/gui/\$1/synth.dx7~/numbox69 @min 0 @max 8 @step 1;
#X msg 260 2162 @op4:keyVelSens \$1;
#X text 10 2176 op4:level:;
#X obj 12 2190 ui.number @size 60 12 @presetname
/gui/\$1/synth.dx7~/numbox70 @min 0 @max 99 @step 1;
#X msg 260 2190 @op4:level \$1;
#X text 10 2204 op4:opDetune:;
#X obj 12 2218 ui.number @size 60 12 @presetname
/gui/\$1/synth.dx7~/numbox71 @min -10 @max 10 @step 1;
#X msg 260 2218 @op4:opDetune \$1;
#X text 10 2232 op4:opFreq:;
#X obj 12 2246 ui.number @size 60 12 @presetname
/gui/\$1/synth.dx7~/numbox72 @min 0 @max 2 @step 0.01;
#X msg 260 2246 @op4:opFreq \$1;
#X text 10 2260 op4:opMode:;
#X obj 12 2274 ui.number @size 60 12 @presetname
/gui/\$1/synth.dx7~/numbox73 @min 0 @max 1 @step 1;
#X msg 260 2274 @op4:opMode \$1;
#X text 10 2288 op4:opRateScale:;
#X obj 12 2302 ui.number @size 60 12 @presetname
/gui/\$1/synth.dx7~/numbox74 @min 0 @max 10 @step 1;
#X msg 260 2302 @op4:opRateScale \$1;
#X text 10 2316 op5:egL1:;
#X obj 12 2330 ui.number @size 60 12 @presetname
/gui/\$1/synth.dx7~/numbox75 @min 0 @max 99 @step 1;
#X msg 260 2330 @op5:egL1 \$1;
#X text 10 2344 op5:egL2:;
#X obj 12 2358 ui.number @size 60 12 @presetname
/gui/\$1/synth.dx7~/numbox76 @min 0 @max 99 @step 1;
#X msg 260 2358 @op5:egL2 \$1;
#X text 10 2372 op5:egL3:;
#X obj 12 2386 ui.number @size 60 12 @presetname
/gui/\$1/synth.dx7~/numbox77 @min 0 @max 99 @step 1;
#X msg 260 2386 @op5:egL3 \$1;
#X text 10 2400 op5:egL4:;
#X obj 12 2414 ui.number @size 60 12 @presetname
/gui/\$1/synth.dx7~/numbox78 @min 0 @max 99 @step 1;
#X msg 260 2414 @op5:egL4 \$1;
#X text 10 2428 op5:egR1:;
#X obj 12 2442 ui.number @size 60 12 @presetname
/gui/\$1/synth.dx7~/numbox79 @min 0 @max 99 @step 1;
#X msg 260 2442 @op5:egR1 \$1;
#X text 10 2456 op5:egR2:;
#X obj 12 2470 ui.number @size 60 12 @presetname
/gui/\$1/synth.dx7~/numbox80 @min 0 @max 99 @step 1;
#X msg 260 2470 @op5:egR2 \$1;
#X text 10 2484 op5:egR3:;
#X obj 12 2498 ui.number @size 60 12 @presetname
/gui/\$1/synth.dx7~/numbox81 @min 0 @max 99 @step 1;
#X msg 260 2498 @op5:egR3 \$1;
#X text 10 2512 op5:egR4:;
#X obj 12 2526 ui.number @size 60 12 @presetname
/gui/\$1/synth.dx7~/numbox82 @min 0 @max 99 @step 1;
#X msg 260 2526 @op5:egR4 \$1;
#X text 10 2540 op5:keyVelSens:;
#X obj 12 2554 ui.number @size 60 12 @presetname
/gui/\$1/synth.dx7~/numbox83 @min 0 @max 8 @step 1;
#X msg 260 2554 @op5:keyVelSens \$1;
#X text 10 2568 op5:level:;
#X obj 12 2582 ui.number @size 60 12 @presetname
/gui/\$1/synth.dx7~/numbox84 @min 0 @max 99 @step 1;
#X msg 260 2582 @op5:level \$1;
#X text 10 2596 op5:opDetune:;
#X obj 12 2610 ui.number @size 60 12 @presetname
/gui/\$1/synth.dx7~/numbox85 @min -10 @max 10 @step 1;
#X msg 260 2610 @op5:opDetune \$1;
#X text 10 2624 op5:opFreq:;
#X obj 12 2638 ui.number @size 60 12 @presetname
/gui/\$1/synth.dx7~/numbox86 @min 0 @max 2 @step 0.01;
#X msg 260 2638 @op5:opFreq \$1;
#X text 10 2652 op5:opMode:;
#X obj 12 2666 ui.number @size 60 12 @presetname
/gui/\$1/synth.dx7~/numbox87 @min 0 @max 1 @step 1;
#X msg 260 2666 @op5:opMode \$1;
#X text 10 2680 op5:opRateScale:;
#X obj 12 2694 ui.number @size 60 12 @presetname
/gui/\$1/synth.dx7~/numbox88 @min 0 @max 10 @step 1;
#X msg 260 2694 @op5:opRateScale \$1;
#X connect 1 0 2 0;
#X connect 2 0 3 0;
#X connect 3 89 4 0;
#X connect 5 0 3 0;
#X connect 6 0 5 0;
#X connect 0 0 7 0;
#X connect 2 1 8 0;
#X connect 11 0 12 0;
#X connect 12 0 0 0;
#X connect 3 0 11 0;
#X connect 14 0 15 0;
#X connect 15 0 0 0;
#X connect 3 1 14 0;
#X connect 16 0 17 0;
#X connect 17 0 18 0;
#X connect 18 0 16 0;
#X connect 16 0 19 0;
#X connect 19 0 0 0;
#X connect 3 2 16 0;
#X connect 20 0 21 0;
#X connect 21 0 22 0;
#X connect 22 0 20 0;
#X connect 20 0 23 0;
#X connect 23 0 0 0;
#X connect 3 3 20 0;
#X connect 24 0 25 0;
#X connect 25 0 0 0;
#X connect 3 4 24 0;
#X connect 27 0 28 0;
#X connect 28 0 0 0;
#X connect 3 5 27 0;
#X connect 30 0 31 0;
#X connect 31 0 0 0;
#X connect 3 6 30 0;
#X connect 33 0 34 0;
#X connect 34 0 0 0;
#X connect 3 7 33 0;
#X connect 36 0 37 0;
#X connect 37 0 0 0;
#X connect 3 8 36 0;
#X connect 39 0 40 0;
#X connect 40 0 0 0;
#X connect 3 9 39 0;
#X connect 42 0 43 0;
#X connect 43 0 0 0;
#X connect 3 10 42 0;
#X connect 45 0 46 0;
#X connect 46 0 0 0;
#X connect 3 11 45 0;
#X connect 48 0 49 0;
#X connect 49 0 0 0;
#X connect 3 12 48 0;
#X connect 51 0 52 0;
#X connect 52 0 0 0;
#X connect 3 13 51 0;
#X connect 54 0 55 0;
#X connect 55 0 0 0;
#X connect 3 14 54 0;
#X connect 57 0 58 0;
#X connect 58 0 0 0;
#X connect 3 15 57 0;
#X connect 60 0 61 0;
#X connect 61 0 0 0;
#X connect 3 16 60 0;
#X connect 63 0 64 0;
#X connect 64 0 0 0;
#X connect 3 17 63 0;
#X connect 66 0 67 0;
#X connect 67 0 0 0;
#X connect 3 18 66 0;
#X connect 69 0 70 0;
#X connect 70 0 0 0;
#X connect 3 19 69 0;
#X connect 72 0 73 0;
#X connect 73 0 0 0;
#X connect 3 20 72 0;
#X connect 75 0 76 0;
#X connect 76 0 0 0;
#X connect 3 21 75 0;
#X connect 78 0 79 0;
#X connect 79 0 0 0;
#X connect 3 22 78 0;
#X connect 81 0 82 0;
#X connect 82 0 0 0;
#X connect 3 23 81 0;
#X connect 84 0 85 0;
#X connect 85 0 0 0;
#X connect 3 24 84 0;
#X connect 87 0 88 0;
#X connect 88 0 0 0;
#X connect 3 25 87 0;
#X connect 90 0 91 0;
#X connect 91 0 0 0;
#X connect 3 26 90 0;
#X connect 93 0 94 0;
#X connect 94 0 0 0;
#X connect 3 27 93 0;
#X connect 96 0 97 0;
#X connect 97 0 0 0;
#X connect 3 28 96 0;
#X connect 99 0 100 0;
#X connect 100 0 0 0;
#X connect 3 29 99 0;
#X connect 102 0 103 0;
#X connect 103 0 0 0;
#X connect 3 30 102 0;
#X connect 105 0 106 0;
#X connect 106 0 0 0;
#X connect 3 31 105 0;
#X connect 108 0 109 0;
#X connect 109 0 0 0;
#X connect 3 32 108 0;
#X connect 111 0 112 0;
#X connect 112 0 0 0;
#X connect 3 33 111 0;
#X connect 114 0 115 0;
#X connect 115 0 0 0;
#X connect 3 34 114 0;
#X connect 117 0 118 0;
#X connect 118 0 0 0;
#X connect 3 35 117 0;
#X connect 120 0 121 0;
#X connect 121 0 0 0;
#X connect 3 36 120 0;
#X connect 123 0 124 0;
#X connect 124 0 0 0;
#X connect 3 37 123 0;
#X connect 126 0 127 0;
#X connect 127 0 0 0;
#X connect 3 38 126 0;
#X connect 129 0 130 0;
#X connect 130 0 0 0;
#X connect 3 39 129 0;
#X connect 132 0 133 0;
#X connect 133 0 0 0;
#X connect 3 40 132 0;
#X connect 135 0 136 0;
#X connect 136 0 0 0;
#X connect 3 41 135 0;
#X connect 138 0 139 0;
#X connect 139 0 0 0;
#X connect 3 42 138 0;
#X connect 141 0 142 0;
#X connect 142 0 0 0;
#X connect 3 43 141 0;
#X connect 144 0 145 0;
#X connect 145 0 0 0;
#X connect 3 44 144 0;
#X connect 147 0 148 0;
#X connect 148 0 0 0;
#X connect 3 45 147 0;
#X connect 150 0 151 0;
#X connect 151 0 0 0;
#X connect 3 46 150 0;
#X connect 153 0 154 0;
#X connect 154 0 0 0;
#X connect 3 47 153 0;
#X connect 156 0 157 0;
#X connect 157 0 0 0;
#X connect 3 48 156 0;
#X connect 159 0 160 0;
#X connect 160 0 0 0;
#X connect 3 49 159 0;
#X connect 162 0 163 0;
#X connect 163 0 0 0;
#X connect 3 50 162 0;
#X connect 165 0 166 0;
#X connect 166 0 0 0;
#X connect 3 51 165 0;
#X connect 168 0 169 0;
#X connect 169 0 0 0;
#X connect 3 52 168 0;
#X connect 171 0 172 0;
#X connect 172 0 0 0;
#X connect 3 53 171 0;
#X connect 174 0 175 0;
#X connect 175 0 0 0;
#X connect 3 54 174 0;
#X connect 177 0 178 0;
#X connect 178 0 0 0;
#X connect 3 55 177 0;
#X connect 180 0 181 0;
#X connect 181 0 0 0;
#X connect 3 56 180 0;
#X connect 183 0 184 0;
#X connect 184 0 0 0;
#X connect 3 57 183 0;
#X connect 186 0 187 0;
#X connect 187 0 0 0;
#X connect 3 58 186 0;
#X connect 189 0 190 0;
#X connect 190 0 0 0;
#X connect 3 59 189 0;
#X connect 192 0 193 0;
#X connect 193 0 0 0;
#X connect 3 60 192 0;
#X connect 195 0 196 0;
#X connect 196 0 0 0;
#X connect 3 61 195 0;
#X connect 198 0 199 0;
#X connect 199 0 0 0;
#X connect 3 62 198 0;
#X connect 201 0 202 0;
#X connect 202 0 0 0;
#X connect 3 63 201 0;
#X connect 204 0 205 0;
#X connect 205 0 0 0;
#X connect 3 64 204 0;
#X connect 207 0 208 0;
#X connect 208 0 0 0;
#X connect 3 65 207 0;
#X connect 210 0 211 0;
#X connect 211 0 0 0;
#X connect 3 66 210 0;
#X connect 213 0 214 0;
#X connect 214 0 0 0;
#X connect 3 67 213 0;
#X connect 216 0 217 0;
#X connect 217 0 0 0;
#X connect 3 68 216 0;
#X connect 219 0 220 0;
#X connect 220 0 0 0;
#X connect 3 69 219 0;
#X connect 222 0 223 0;
#X connect 223 0 0 0;
#X connect 3 70 222 0;
#X connect 225 0 226 0;
#X connect 226 0 0 0;
#X connect 3 71 225 0;
#X connect 228 0 229 0;
#X connect 229 0 0 0;
#X connect 3 72 228 0;
#X connect 231 0 232 0;
#X connect 232 0 0 0;
#X connect 3 73 231 0;
#X connect 234 0 235 0;
#X connect 235 0 0 0;
#X connect 3 74 234 0;
#X connect 237 0 238 0;
#X connect 238 0 0 0;
#X connect 3 75 237 0;
#X connect 240 0 241 0;
#X connect 241 0 0 0;
#X connect 3 76 240 0;
#X connect 243 0 244 0;
#X connect 244 0 0 0;
#X connect 3 77 243 0;
#X connect 246 0 247 0;
#X connect 247 0 0 0;
#X connect 3 78 246 0;
#X connect 249 0 250 0;
#X connect 250 0 0 0;
#X connect 3 79 249 0;
#X connect 252 0 253 0;
#X connect 253 0 0 0;
#X connect 3 80 252 0;
#X connect 255 0 256 0;
#X connect 256 0 0 0;
#X connect 3 81 255 0;
#X connect 258 0 259 0;
#X connect 259 0 0 0;
#X connect 3 82 258 0;
#X connect 261 0 262 0;
#X connect 262 0 0 0;
#X connect 3 83 261 0;
#X connect 264 0 265 0;
#X connect 265 0 0 0;
#X connect 3 84 264 0;
#X connect 267 0 268 0;
#X connect 268 0 0 0;
#X connect 3 85 267 0;
#X connect 270 0 271 0;
#X connect 271 0 0 0;
#X connect 3 86 270 0;
#X connect 273 0 274 0;
#X connect 274 0 0 0;
#X connect 3 87 273 0;
#X connect 276 0 277 0;
#X connect 277 0 0 0;
#X connect 3 88 276 0;
#X coords 0 -1 1 1 200 2516 2 2 200;
