#N canvas 0 0 950 600 12;
#X obj 25 125 synth.voice_fofs~;
#X obj 325 25 inlet;
#X obj 325 200 route synth.voice_fofs;
#X obj 325 250 route @attack @freq @fvowel @gate @ivoice @portamento
@release @vibr_freq @vibr_gain @wsmooth;
#X obj 575 350 print unknown property;
#X msg 225 75 @attack 30 \, @freq 440 \, @fvowel 0 \, @ivoice 0 \, @portamento 0 \, @release 50 \, @vibr_freq 6 \, @vibr_gain 0.5 \, @wsmooth 10 \,;
#X obj 225 25 msg.onload;
#X obj 500 550 outlet~;
#X obj 600 550 outlet ctl;
#X obj 3 202 cnv 8 198 18 empty empty [synth.voice_fofs~] 3 9 0 12
-104026 -262144 0;
#X obj 12 236 ui.slider @size 125 12 @active_scale 1 @label
attack(ms): @label_side top @label_align left @fontsize 10 @presetname
/gui/\$1/synth.voice_fofs~/slider0 @min 0 @max 1000;
#X obj 215 236 sync;
#X obj 145 236 ui.number @size 50 12 @min 0 @max 1000 @digits 1;
#X msg 260 236 @attack \$1;
#X obj 12 266 ui.slider @size 125 12 @active_scale 1 @label freq(Hz):
@label_side top @label_align left @fontsize 10 @presetname
/gui/\$1/synth.voice_fofs~/slider1 @min 20 @max 20000;
#X obj 215 266 sync;
#X obj 145 266 ui.number @size 50 12 @min 20 @max 20000 @digits 1;
#X msg 260 266 @freq \$1;
#X obj 12 296 ui.slider @size 125 12 @active_scale 1 @label fvowel:
@label_side top @label_align left @fontsize 10 @presetname
/gui/\$1/synth.voice_fofs~/slider2 @min 0 @max 4;
#X obj 215 296 sync;
#X obj 145 296 ui.number @size 50 12 @min 0 @max 4 @digits 3;
#X msg 260 296 @fvowel \$1;
#X obj 12 316 ui.toggle @size 12 12 @label gate @label_side right
@label_align left @fontsize 10;
#X msg 260 308 @gate \$1;
#X obj 12 344 ui.slider @size 125 12 @active_scale 1 @label ivoice:
@label_side top @label_align left @fontsize 10 @presetname
/gui/\$1/synth.voice_fofs~/slider4 @min 0 @max 5;
#X obj 215 344 sync;
#X obj 145 344 ui.number @size 50 12 @min 0 @max 5 @digits 3;
#X msg 260 344 @ivoice \$1;
#X obj 12 374 ui.slider @size 125 12 @active_scale 1 @label
portamento(ms): @label_side top @label_align left @fontsize 10
@presetname /gui/\$1/synth.voice_fofs~/slider5 @min 0 @max 4000;
#X obj 215 374 sync;
#X obj 145 374 ui.number @size 50 12 @min 0 @max 4000 @digits 0;
#X msg 260 374 @portamento \$1;
#X obj 12 404 ui.slider @size 125 12 @active_scale 1 @label
release(ms): @label_side top @label_align left @fontsize 10
@presetname /gui/\$1/synth.voice_fofs~/slider6 @min 0 @max 1000;
#X obj 215 404 sync;
#X obj 145 404 ui.number @size 50 12 @min 0 @max 1000 @digits 1;
#X msg 260 404 @release \$1;
#X obj 12 434 ui.slider @size 125 12 @active_scale 1 @label
vibr_freq(Hz): @label_side top @label_align left @fontsize 10
@presetname /gui/\$1/synth.voice_fofs~/slider7 @min 1 @max 10;
#X obj 215 434 sync;
#X obj 145 434 ui.number @size 50 12 @min 1 @max 10 @digits 3;
#X msg 260 434 @vibr_freq \$1;
#X obj 12 464 ui.slider @size 125 12 @active_scale 1 @label vibr_gain:
@label_side top @label_align left @fontsize 10 @presetname
/gui/\$1/synth.voice_fofs~/slider8 @min 0 @max 1;
#X obj 215 464 sync;
#X obj 145 464 ui.number @size 50 12 @min 0 @max 1 @digits 4;
#X msg 260 464 @vibr_gain \$1;
#X obj 12 494 ui.slider @size 125 12 @active_scale 1 @label
wsmooth(ms): @label_side top @label_align left @fontsize 10
@presetname /gui/\$1/synth.voice_fofs~/slider9 @min 0 @max 1000;
#X obj 215 494 sync;
#X obj 145 494 ui.number @size 50 12 @min 0 @max 1000 @digits 1;
#X msg 260 494 @wsmooth \$1;
#X connect 1 0 2 0;
#X connect 2 0 3 0;
#X connect 3 10 4 0;
#X connect 5 0 3 0;
#X connect 6 0 5 0;
#X connect 0 0 7 0;
#X connect 2 1 8 0;
#X connect 10 0 11 0;
#X connect 11 0 10 0;
#X connect 12 0 11 1;
#X connect 11 1 12 0;
#X connect 10 0 13 0;
#X connect 13 0 0 0;
#X connect 3 0 10 0;
#X connect 14 0 15 0;
#X connect 15 0 14 0;
#X connect 16 0 15 1;
#X connect 15 1 16 0;
#X connect 14 0 17 0;
#X connect 17 0 0 0;
#X connect 3 1 14 0;
#X connect 18 0 19 0;
#X connect 19 0 18 0;
#X connect 20 0 19 1;
#X connect 19 1 20 0;
#X connect 18 0 21 0;
#X connect 21 0 0 0;
#X connect 3 2 18 0;
#X connect 22 0 23 0;
#X connect 23 0 0 0;
#X connect 3 3 22 0;
#X connect 24 0 25 0;
#X connect 25 0 24 0;
#X connect 26 0 25 1;
#X connect 25 1 26 0;
#X connect 24 0 27 0;
#X connect 27 0 0 0;
#X connect 3 4 24 0;
#X connect 28 0 29 0;
#X connect 29 0 28 0;
#X connect 30 0 29 1;
#X connect 29 1 30 0;
#X connect 28 0 31 0;
#X connect 31 0 0 0;
#X connect 3 5 28 0;
#X connect 32 0 33 0;
#X connect 33 0 32 0;
#X connect 34 0 33 1;
#X connect 33 1 34 0;
#X connect 32 0 35 0;
#X connect 35 0 0 0;
#X connect 3 6 32 0;
#X connect 36 0 37 0;
#X connect 37 0 36 0;
#X connect 38 0 37 1;
#X connect 37 1 38 0;
#X connect 36 0 39 0;
#X connect 39 0 0 0;
#X connect 3 7 36 0;
#X connect 40 0 41 0;
#X connect 41 0 40 0;
#X connect 42 0 41 1;
#X connect 41 1 42 0;
#X connect 40 0 43 0;
#X connect 43 0 0 0;
#X connect 3 8 40 0;
#X connect 44 0 45 0;
#X connect 45 0 44 0;
#X connect 46 0 45 1;
#X connect 45 1 46 0;
#X connect 44 0 47 0;
#X connect 47 0 0 0;
#X connect 3 9 44 0;
#X coords 0 -1 1 1 200 314 2 2 200;
