#N canvas 0 0 950 600 12;
#X obj 25 125 synth.ks~;
#X obj 325 25 inlet;
#X obj 325 200 route synth.ks;
#X obj 325 250 route @cutoff @gain @gate @mode @mute @pitch @pos
@sharp;
#X obj 575 350 print unknown property;
#X msg 225 75 @cutoff 1 \, @gain 1 \, @mode 0 \, @mute 0 \, @pitch 48 \, @pos 0.7 \, @sharp 0.25 \,;
#X obj 225 25 msg.onload;
#X obj 500 550 outlet~;
#X obj 600 550 outlet ctl;
#X obj 3 202 cnv 8 198 18 empty empty [synth.ks~] 3 9 0 12 -104026
-262144 0;
#X obj 12 238 ui.slider @size 125 12 @active_scale 1 @label cutoff:
@label_side top @label_align left @fontsize 10 @presetname
/gui/\$1/synth.ks~/slider0 @min 0.1 @max 1;
#X obj 190 238 sync;
#X obj 145 238 ui.number @size 50 12 @min 0.1 @max 1 @digits 4;
#X msg 260 238 @cutoff \$1;
#X obj 12 270 ui.slider @size 125 12 @active_scale 1 @label gain:
@label_side top @label_align left @fontsize 10 @presetname
/gui/\$1/synth.ks~/slider1 @min 0 @max 1;
#X obj 190 270 sync;
#X obj 145 270 ui.number @size 50 12 @min 0 @max 1 @digits 4;
#X msg 260 270 @gain \$1;
#X obj 12 290 ui.toggle @size 12 12 @label gate @label_side right
@label_align left @fontsize 10;
#X msg 260 282 @gate \$1;
#X obj 12 320 ui.slider @size 125 12 @active_scale 1 @label mode:
@label_side top @label_align left @fontsize 10 @presetname
/gui/\$1/synth.ks~/slider3 @min 0 @max 1;
#X obj 190 320 sync;
#X obj 145 320 ui.number @size 50 12 @min 0 @max 1 @digits 4;
#X msg 260 320 @mode \$1;
#X obj 12 352 ui.slider @size 125 12 @active_scale 1 @label mute:
@label_side top @label_align left @fontsize 10 @presetname
/gui/\$1/synth.ks~/slider4 @min 0 @max 1;
#X obj 190 352 sync;
#X obj 145 352 ui.number @size 50 12 @min 0 @max 1 @digits 4;
#X msg 260 352 @mute \$1;
#X obj 12 384 ui.slider @size 125 12 @active_scale 1 @label pitch:
@label_side top @label_align left @fontsize 10 @presetname
/gui/\$1/synth.ks~/slider5 @min 36 @max 84;
#X obj 190 384 sync;
#X obj 145 384 ui.number @size 50 12 @min 36 @max 84 @digits 2;
#X msg 260 384 @pitch \$1;
#X obj 12 416 ui.slider @size 125 12 @active_scale 1 @label pos:
@label_side top @label_align left @fontsize 10 @presetname
/gui/\$1/synth.ks~/slider6 @min 0 @max 1;
#X obj 190 416 sync;
#X obj 145 416 ui.number @size 50 12 @min 0 @max 1 @digits 4;
#X msg 260 416 @pos \$1;
#X obj 12 448 ui.slider @size 125 12 @active_scale 1 @label sharp:
@label_side top @label_align left @fontsize 10 @presetname
/gui/\$1/synth.ks~/slider7 @min 0.01 @max 1;
#X obj 190 448 sync;
#X obj 145 448 ui.number @size 50 12 @min 0.01 @max 1 @digits 4;
#X msg 260 448 @sharp \$1;
#X connect 1 0 2 0;
#X connect 2 0 3 0;
#X connect 3 8 4 0;
#X connect 5 0 3 0;
#X connect 6 0 5 0;
#X connect 0 0 7 0;
#X connect 2 1 8 0;
#X connect 10 0 11 0;
#X connect 11 0 10 0;
#X connect 12 0 11 1;
#X connect 11 1 12 0;
#X connect 10 0 13 0;
#X connect 13 0 0 0;
#X connect 3 0 10 0;
#X connect 14 0 15 0;
#X connect 15 0 14 0;
#X connect 16 0 15 1;
#X connect 15 1 16 0;
#X connect 14 0 17 0;
#X connect 17 0 0 0;
#X connect 3 1 14 0;
#X connect 18 0 19 0;
#X connect 19 0 0 0;
#X connect 3 2 18 0;
#X connect 20 0 21 0;
#X connect 21 0 20 0;
#X connect 22 0 21 1;
#X connect 21 1 22 0;
#X connect 20 0 23 0;
#X connect 23 0 0 0;
#X connect 3 3 20 0;
#X connect 24 0 25 0;
#X connect 25 0 24 0;
#X connect 26 0 25 1;
#X connect 25 1 26 0;
#X connect 24 0 27 0;
#X connect 27 0 0 0;
#X connect 3 4 24 0;
#X connect 28 0 29 0;
#X connect 29 0 28 0;
#X connect 30 0 29 1;
#X connect 29 1 30 0;
#X connect 28 0 31 0;
#X connect 31 0 0 0;
#X connect 3 5 28 0;
#X connect 32 0 33 0;
#X connect 33 0 32 0;
#X connect 34 0 33 1;
#X connect 33 1 34 0;
#X connect 32 0 35 0;
#X connect 35 0 0 0;
#X connect 3 6 32 0;
#X connect 36 0 37 0;
#X connect 37 0 36 0;
#X connect 38 0 37 1;
#X connect 37 1 38 0;
#X connect 36 0 39 0;
#X connect 39 0 0 0;
#X connect 3 7 36 0;
#X coords 0 -1 1 1 200 268 2 2 200;
