#N canvas 0 0 950 600 12;
#X obj 25 125 synth.risset_arp~;
#X obj 325 25 inlet;
#X obj 325 200 route synth.risset_arp;
#X obj 325 250 route @detune @freq @harmonic1 @harmonic2 @harmonic3
@harmonic4 @harmonic5 @harmonic6 @harmonic7 @harmonic8 @spread;
#X obj 575 350 print unknown property;
#X msg 225 75 @detune 5 \, @freq 100 \, @harmonic1 1 \, @harmonic2 1 \, @harmonic3 1 \, @harmonic4 1 \, @harmonic5 1 \, @harmonic6 1 \, @harmonic7 1 \, @harmonic8 1 \, @spread 1 \,;
#X obj 225 25 msg.onload;
#X obj 500 550 outlet~;
#X obj 600 550 outlet~;
#X obj 700 550 outlet ctl;
#X obj 3 202 cnv 8 198 18 empty empty [synth.risset_arp~] 3 9 0 12
-104026 -262144 0;
#X obj 12 238 ui.slider @size 125 12 @active_scale 1 @label detune:
@label_side top @label_align left @fontsize 10 @presetname
/gui/\$1/synth.risset_arp~/slider0 @min 0 @max 1000;
#X obj 145 238 ui.number @size 50 12 @min 0 @max 1000 @digits 1;
#X obj 200 238 msg set;
#X msg 260 238 @detune \$1;
#X obj 12 270 ui.slider @size 125 12 @active_scale 1 @label freq:
@label_side top @label_align left @fontsize 10 @presetname
/gui/\$1/synth.risset_arp~/slider1 @min 40 @max 500;
#X obj 145 270 ui.number @size 50 12 @min 40 @max 500 @digits 1;
#X obj 200 270 msg set;
#X msg 260 270 @freq \$1;
#X obj 12 302 ui.slider @size 125 12 @active_scale 1 @label harmonic1:
@label_side top @label_align left @fontsize 10 @presetname
/gui/\$1/synth.risset_arp~/slider2 @min 0 @max 1;
#X obj 145 302 ui.number @size 50 12 @min 0 @max 1 @digits 4;
#X obj 200 302 msg set;
#X msg 260 302 @harmonic1 \$1;
#X obj 12 334 ui.slider @size 125 12 @active_scale 1 @label harmonic2:
@label_side top @label_align left @fontsize 10 @presetname
/gui/\$1/synth.risset_arp~/slider3 @min 0 @max 1;
#X obj 145 334 ui.number @size 50 12 @min 0 @max 1 @digits 4;
#X obj 200 334 msg set;
#X msg 260 334 @harmonic2 \$1;
#X obj 12 366 ui.slider @size 125 12 @active_scale 1 @label harmonic3:
@label_side top @label_align left @fontsize 10 @presetname
/gui/\$1/synth.risset_arp~/slider4 @min 0 @max 1;
#X obj 145 366 ui.number @size 50 12 @min 0 @max 1 @digits 4;
#X obj 200 366 msg set;
#X msg 260 366 @harmonic3 \$1;
#X obj 12 398 ui.slider @size 125 12 @active_scale 1 @label harmonic4:
@label_side top @label_align left @fontsize 10 @presetname
/gui/\$1/synth.risset_arp~/slider5 @min 0 @max 1;
#X obj 145 398 ui.number @size 50 12 @min 0 @max 1 @digits 4;
#X obj 200 398 msg set;
#X msg 260 398 @harmonic4 \$1;
#X obj 12 430 ui.slider @size 125 12 @active_scale 1 @label harmonic5:
@label_side top @label_align left @fontsize 10 @presetname
/gui/\$1/synth.risset_arp~/slider6 @min 0 @max 1;
#X obj 145 430 ui.number @size 50 12 @min 0 @max 1 @digits 4;
#X obj 200 430 msg set;
#X msg 260 430 @harmonic5 \$1;
#X obj 12 462 ui.slider @size 125 12 @active_scale 1 @label harmonic6:
@label_side top @label_align left @fontsize 10 @presetname
/gui/\$1/synth.risset_arp~/slider7 @min 0 @max 1;
#X obj 145 462 ui.number @size 50 12 @min 0 @max 1 @digits 4;
#X obj 200 462 msg set;
#X msg 260 462 @harmonic6 \$1;
#X obj 12 494 ui.slider @size 125 12 @active_scale 1 @label harmonic7:
@label_side top @label_align left @fontsize 10 @presetname
/gui/\$1/synth.risset_arp~/slider8 @min 0 @max 1;
#X obj 145 494 ui.number @size 50 12 @min 0 @max 1 @digits 4;
#X obj 200 494 msg set;
#X msg 260 494 @harmonic7 \$1;
#X obj 12 526 ui.slider @size 125 12 @active_scale 1 @label harmonic8:
@label_side top @label_align left @fontsize 10 @presetname
/gui/\$1/synth.risset_arp~/slider9 @min 0 @max 1;
#X obj 145 526 ui.number @size 50 12 @min 0 @max 1 @digits 4;
#X obj 200 526 msg set;
#X msg 260 526 @harmonic8 \$1;
#X obj 12 558 ui.slider @size 125 12 @active_scale 1 @label spread:
@label_side top @label_align left @fontsize 10 @presetname
/gui/\$1/synth.risset_arp~/slider10 @min 0 @max 1;
#X obj 145 558 ui.number @size 50 12 @min 0 @max 1 @digits 4;
#X obj 200 558 msg set;
#X msg 260 558 @spread \$1;
#X connect 1 0 2 0;
#X connect 2 0 3 0;
#X connect 3 11 4 0;
#X connect 5 0 3 0;
#X connect 6 0 5 0;
#X connect 0 0 7 0;
#X connect 0 1 8 0;
#X connect 2 1 9 0;
#X connect 11 0 12 0;
#X connect 12 0 13 0;
#X connect 13 0 11 0;
#X connect 11 0 14 0;
#X connect 14 0 0 0;
#X connect 3 0 11 0;
#X connect 15 0 16 0;
#X connect 16 0 17 0;
#X connect 17 0 15 0;
#X connect 15 0 18 0;
#X connect 18 0 0 0;
#X connect 3 1 15 0;
#X connect 19 0 20 0;
#X connect 20 0 21 0;
#X connect 21 0 19 0;
#X connect 19 0 22 0;
#X connect 22 0 0 0;
#X connect 3 2 19 0;
#X connect 23 0 24 0;
#X connect 24 0 25 0;
#X connect 25 0 23 0;
#X connect 23 0 26 0;
#X connect 26 0 0 0;
#X connect 3 3 23 0;
#X connect 27 0 28 0;
#X connect 28 0 29 0;
#X connect 29 0 27 0;
#X connect 27 0 30 0;
#X connect 30 0 0 0;
#X connect 3 4 27 0;
#X connect 31 0 32 0;
#X connect 32 0 33 0;
#X connect 33 0 31 0;
#X connect 31 0 34 0;
#X connect 34 0 0 0;
#X connect 3 5 31 0;
#X connect 35 0 36 0;
#X connect 36 0 37 0;
#X connect 37 0 35 0;
#X connect 35 0 38 0;
#X connect 38 0 0 0;
#X connect 3 6 35 0;
#X connect 39 0 40 0;
#X connect 40 0 41 0;
#X connect 41 0 39 0;
#X connect 39 0 42 0;
#X connect 42 0 0 0;
#X connect 3 7 39 0;
#X connect 43 0 44 0;
#X connect 44 0 45 0;
#X connect 45 0 43 0;
#X connect 43 0 46 0;
#X connect 46 0 0 0;
#X connect 3 8 43 0;
#X connect 47 0 48 0;
#X connect 48 0 49 0;
#X connect 49 0 47 0;
#X connect 47 0 50 0;
#X connect 50 0 0 0;
#X connect 3 9 47 0;
#X connect 51 0 52 0;
#X connect 52 0 53 0;
#X connect 53 0 51 0;
#X connect 51 0 54 0;
#X connect 54 0 0 0;
#X connect 3 10 51 0;
#X coords 0 -1 1 1 200 378 2 2 200;
