#N canvas 0 0 950 600 12;
#X obj 25 125 synth.church_bell~;
#X obj 325 25 inlet;
#X obj 325 125 route synth.church_bell * .;
#X obj 525 150 route.prop;
#X obj 375 200 msg *;
#X obj 325 250 route @cutoff @decay_ratio @decay_slope @gain @gate
@pos @sharp @t60 default reset;
#X obj 575 350 t b a;
#X msg 575 375 supported messages are: @cutoff @decay_ratio @decay_slope @gain @gate @pos @sharp @t60 default reset;
#X obj 575 425 print;
#X obj 625 425 print [gsynth.church_bell~] unknown message;
#X msg 225 75 @cutoff 6500 \, @decay_ratio 1 \, @decay_slope 2.5 \, @gain 1 \, @pos 0 \, @sharp 0.5 \, @t60 20 \,;
#X obj 25 50 t b b;
#X msg 25 75 reset;
#X obj 225 25 msg.onload;
#X obj 500 550 outlet~;
#X obj 600 550 outlet ctl;
#X obj 3 202 cnv 8 198 249 empty empty empty 17 7 0 10 -174763 -1 0;
#X obj 3 202 cnv 8 198 18 empty empty [synth.church_bell~] 3 9 0 12
-104026 -262144 0;
#X obj 12 236 ui.slider @size 125 12 @active_scale 1 @label
cutoff(Hz): @label_side top @label_align left @fontsize 10 @presetname
/gui/\$1/synth.church_bell~/slider0 @min 20 @max 20000;
#X obj 215 236 sync;
#X obj 145 236 ui.number @size 50 12 @min 20 @max 20000 @digits 1;
#X msg 260 236 @cutoff \$1;
#X obj 12 266 ui.slider @size 125 12 @active_scale 1 @label
decay_ratio: @label_side top @label_align left @fontsize 10
@presetname /gui/\$1/synth.church_bell~/slider1 @min 0 @max 1;
#X obj 215 266 sync;
#X obj 145 266 ui.number @size 50 12 @min 0 @max 1 @digits 4;
#X msg 260 266 @decay_ratio \$1;
#X obj 12 296 ui.slider @size 125 12 @active_scale 1 @label
decay_slope: @label_side top @label_align left @fontsize 10
@presetname /gui/\$1/synth.church_bell~/slider2 @min 0 @max 10;
#X obj 215 296 sync;
#X obj 145 296 ui.number @size 50 12 @min 0 @max 10 @digits 3;
#X msg 260 296 @decay_slope \$1;
#X obj 12 326 ui.slider @size 125 12 @active_scale 1 @label gain:
@label_side top @label_align left @fontsize 10 @presetname
/gui/\$1/synth.church_bell~/slider3 @min 0 @max 1;
#X obj 215 326 sync;
#X obj 145 326 ui.number @size 50 12 @min 0 @max 1 @digits 4;
#X msg 260 326 @gain \$1;
#X obj 12 346 ui.toggle @size 12 12 @label gate @label_side right
@label_align left @fontsize 10;
#X msg 260 338 @gate \$1;
#X obj 12 374 ui.number @size 60 12 @label pos: @label_side top
@label_align left @fontsize 10 @presetname
/gui/\$1/synth.church_bell~/numbox5 @min 0 @max 6 @step 1;
#X msg 260 374 @pos \$1;
#X obj 12 404 ui.slider @size 125 12 @active_scale 1 @label sharp:
@label_side top @label_align left @fontsize 10 @presetname
/gui/\$1/synth.church_bell~/slider6 @min 0.01 @max 5;
#X obj 215 404 sync;
#X obj 145 404 ui.number @size 50 12 @min 0.01 @max 5 @digits 3;
#X msg 260 404 @sharp \$1;
#X obj 12 434 ui.slider @size 125 12 @active_scale 1 @label t60(sec):
@label_side top @label_align left @fontsize 10 @presetname
/gui/\$1/synth.church_bell~/slider7 @min 0.1 @max 30;
#X obj 215 434 sync;
#X obj 145 434 ui.number @size 50 12 @min 0.1 @max 30 @digits 2;
#X msg 260 434 @t60 \$1;
#X connect 1 0 2 0;
#X connect 2 3 3 0;
#X connect 2 1 4 0;
#X connect 2 0 5 0;
#X connect 2 1 5 0;
#X connect 2 2 5 0;
#X connect 3 0 5 0;
#X connect 5 10 6 0;
#X connect 6 0 7 0;
#X connect 7 0 8 0;
#X connect 6 1 9 0;
#X connect 10 0 5 0;
#X connect 5 8 10 0;
#X connect 11 1 12 0;
#X connect 11 0 10 0;
#X connect 12 0 0 0;
#X connect 5 9 11 0;
#X connect 13 0 10 0;
#X connect 0 0 14 0;
#X connect 3 1 15 0;
#X connect 4 0 15 0;
#X connect 18 0 19 0;
#X connect 19 0 18 0;
#X connect 20 0 19 1;
#X connect 19 1 20 0;
#X connect 18 0 21 0;
#X connect 21 0 0 0;
#X connect 5 0 18 0;
#X connect 22 0 23 0;
#X connect 23 0 22 0;
#X connect 24 0 23 1;
#X connect 23 1 24 0;
#X connect 22 0 25 0;
#X connect 25 0 0 0;
#X connect 5 1 22 0;
#X connect 26 0 27 0;
#X connect 27 0 26 0;
#X connect 28 0 27 1;
#X connect 27 1 28 0;
#X connect 26 0 29 0;
#X connect 29 0 0 0;
#X connect 5 2 26 0;
#X connect 30 0 31 0;
#X connect 31 0 30 0;
#X connect 32 0 31 1;
#X connect 31 1 32 0;
#X connect 30 0 33 0;
#X connect 33 0 0 0;
#X connect 5 3 30 0;
#X connect 34 0 35 0;
#X connect 35 0 0 0;
#X connect 5 4 34 0;
#X connect 36 0 37 0;
#X connect 37 0 0 0;
#X connect 5 5 36 0;
#X connect 38 0 39 0;
#X connect 39 0 38 0;
#X connect 40 0 39 1;
#X connect 39 1 40 0;
#X connect 38 0 41 0;
#X connect 41 0 0 0;
#X connect 5 6 38 0;
#X connect 42 0 43 0;
#X connect 43 0 42 0;
#X connect 44 0 43 1;
#X connect 43 1 44 0;
#X connect 42 0 45 0;
#X connect 45 0 0 0;
#X connect 5 7 42 0;
#X coords 0 -1 1 1 200 254 2 2 200;
