#N canvas 0 0 950 600 12;
#X obj 25 125 synth.birds~;
#X obj 325 25 inlet;
#X obj 325 125 route synth.birds * .;
#X obj 525 150 t a a;
#X obj 575 175 is_prop;
#X obj 525 200 flow.demux 2;
#X obj 375 200 msg *;
#X obj 325 250 route @auto @gate @probability @speed default reset;
#X obj 575 350 t b a;
#X msg 575 375 supported messages are: @auto @gate @probability @speed default reset;
#X obj 575 425 print;
#X obj 625 425 print [gsynth.birds~] unknown message;
#X msg 225 75 @probability 50 \, @speed 240 \,;
#X obj 25 50 t b b;
#X msg 25 75 reset;
#X obj 225 25 msg.onload;
#X obj 500 550 outlet~;
#X obj 600 550 outlet~;
#X obj 700 550 outlet ctl;
#X obj 3 202 cnv 8 198 117 empty empty empty 17 7 0 10 -174763 -1 0;
#X obj 3 202 cnv 8 198 18 empty empty [synth.birds~] 3 9 0 12 -104026
-262144 0;
#X obj 12 226 ui.toggle @size 12 12 @label auto @label_side right
@label_align left @fontsize 10 @presetname
/gui/\$1/synth.birds~/checkbox0;
#X msg 260 218 @auto \$1;
#X obj 12 244 ui.toggle @size 12 12 @label gate @label_side right
@label_align left @fontsize 10;
#X msg 260 236 @gate \$1;
#X obj 12 272 ui.slider @size 125 12 @active_scale 1 @label
probability(%): @label_side top @label_align left @fontsize 10
@presetname /gui/\$1/synth.birds~/slider2 @min 25 @max 100;
#X obj 215 272 sync;
#X obj 145 272 ui.number @size 50 12 @min 25 @max 100 @digits 2;
#X msg 260 272 @probability \$1;
#X obj 12 302 ui.slider @size 125 12 @active_scale 1 @label speed:
@label_side top @label_align left @fontsize 10 @presetname
/gui/\$1/synth.birds~/slider3 @min 120 @max 480;
#X obj 215 302 sync;
#X obj 145 302 ui.number @size 50 12 @min 120 @max 480 @digits 1;
#X msg 260 302 @speed \$1;
#X connect 1 0 2 0;
#X connect 3 0 5 0;
#X connect 3 1 4 0;
#X connect 4 0 5 1;
#X connect 2 3 3 0;
#X connect 2 1 6 0;
#X connect 2 0 7 0;
#X connect 2 1 7 0;
#X connect 2 2 7 0;
#X connect 5 1 7 0;
#X connect 7 6 8 0;
#X connect 8 0 9 0;
#X connect 9 0 10 0;
#X connect 8 1 11 0;
#X connect 12 0 7 0;
#X connect 7 4 12 0;
#X connect 13 1 14 0;
#X connect 13 0 12 0;
#X connect 14 0 0 0;
#X connect 7 5 13 0;
#X connect 15 0 12 0;
#X connect 0 0 16 0;
#X connect 0 1 17 0;
#X connect 5 0 18 0;
#X connect 6 0 18 0;
#X connect 21 0 22 0;
#X connect 22 0 0 0;
#X connect 7 0 21 0;
#X connect 23 0 24 0;
#X connect 24 0 0 0;
#X connect 7 1 23 0;
#X connect 25 0 26 0;
#X connect 26 0 25 0;
#X connect 27 0 26 1;
#X connect 26 1 27 0;
#X connect 25 0 28 0;
#X connect 28 0 0 0;
#X connect 7 2 25 0;
#X connect 29 0 30 0;
#X connect 30 0 29 0;
#X connect 31 0 30 1;
#X connect 30 1 31 0;
#X connect 29 0 32 0;
#X connect 32 0 0 0;
#X connect 7 3 29 0;
#X coords 0 -1 1 1 200 122 2 2 200;
