#N canvas 0 0 950 600 12;
#X obj 25 125 synth.dx7~;
#X obj 325 25 inlet;
#X obj 325 125 route synth.dx7 * .;
#X obj 525 150 route.prop;
#X obj 375 200 msg *;
#X obj 325 250 route @algorithm @feedback @gain @gate @op0:detune
@op0:egL1 @op0:egL2 @op0:egL3 @op0:egL4 @op0:egR1 @op0:egR2 @op0:egR3
@op0:egR4 @op0:freq @op0:key_vel_sens @op0:level @op0:mode
@op0:rate_scale @op1:detune @op1:egL1 @op1:egL2 @op1:egL3 @op1:egL4
@op1:egR1 @op1:egR2 @op1:egR3 @op1:egR4 @op1:freq @op1:key_vel_sens
@op1:level @op1:mode @op1:rate_scale @op2:detune @op2:egL1 @op2:egL2
@op2:egL3 @op2:egL4 @op2:egR1 @op2:egR2 @op2:egR3 @op2:egR4 @op2:freq
@op2:key_vel_sens @op2:level @op2:mode @op2:rate_scale @op3:detune
@op3:egL1 @op3:egL2 @op3:egL3 @op3:egL4 @op3:egR1 @op3:egR2 @op3:egR3
@op3:egR4 @op3:freq @op3:key_vel_sens @op3:level @op3:mode
@op3:rate_scale @op4:detune @op4:egL1 @op4:egL2 @op4:egL3 @op4:egL4
@op4:egR1 @op4:egR2 @op4:egR3 @op4:egR4 @op4:freq @op4:key_vel_sens
@op4:level @op4:mode @op4:rate_scale @op5:detune @op5:egL1 @op5:egL2
@op5:egL3 @op5:egL4 @op5:egR1 @op5:egR2 @op5:egR3 @op5:egR4 @op5:freq
@op5:key_vel_sens @op5:level @op5:mode @op5:rate_scale @pitch default
reset;
#X obj 575 350 t b a;
#X msg 575 375 supported messages are: @algorithm @feedback @gain @gate @op0:detune @op0:egL1 @op0:egL2 @op0:egL3 @op0:egL4 @op0:egR1 @op0:egR2 @op0:egR3 @op0:egR4 @op0:freq @op0:key_vel_sens @op0:level @op0:mode @op0:rate_scale @op1:detune @op1:egL1 @op1:egL2 @op1:egL3 @op1:egL4 @op1:egR1 @op1:egR2 @op1:egR3 @op1:egR4 @op1:freq @op1:key_vel_sens @op1:level @op1:mode @op1:rate_scale @op2:detune @op2:egL1 @op2:egL2 @op2:egL3 @op2:egL4 @op2:egR1 @op2:egR2 @op2:egR3 @op2:egR4 @op2:freq @op2:key_vel_sens @op2:level @op2:mode @op2:rate_scale @op3:detune @op3:egL1 @op3:egL2 @op3:egL3 @op3:egL4 @op3:egR1 @op3:egR2 @op3:egR3 @op3:egR4 @op3:freq @op3:key_vel_sens @op3:level @op3:mode @op3:rate_scale @op4:detune @op4:egL1 @op4:egL2 @op4:egL3 @op4:egL4 @op4:egR1 @op4:egR2 @op4:egR3 @op4:egR4 @op4:freq @op4:key_vel_sens @op4:level @op4:mode @op4:rate_scale @op5:detune @op5:egL1 @op5:egL2 @op5:egL3 @op5:egL4 @op5:egR1 @op5:egR2 @op5:egR3 @op5:egR4 @op5:freq @op5:key_vel_sens @op5:level @op5:mode @op5:rate_scale @pitch default reset;
#X obj 575 425 print;
#X obj 625 425 print [gsynth.dx7~] unknown message;
#X msg 225 75 @algorithm 0 \, @feedback 0 \, @gain 0.8 \, @op0:detune 1 \, @op0:egL1 0 \, @op0:egL2 90 \, @op0:egL3 90 \, @op0:egL4 0 \, @op0:egR1 90 \, @op0:egR2 90 \, @op0:egR3 90 \, @op0:egR4 90 \, @op0:freq 1 \, @op0:key_vel_sens 1 \, @op0:level 95 \, @op0:mode 0 \, @op0:rate_scale 0 \, @op1:detune 1 \, @op1:egL1 0 \, @op1:egL2 90 \, @op1:egL3 90 \, @op1:egL4 0 \, @op1:egR1 90 \, @op1:egR2 90 \, @op1:egR3 90 \, @op1:egR4 90 \, @op1:freq 1 \, @op1:key_vel_sens 1 \, @op1:level 95 \, @op1:mode 0 \, @op1:rate_scale 0 \, @op2:detune 1 \, @op2:egL1 0 \, @op2:egL2 90 \, @op2:egL3 90 \, @op2:egL4 0 \, @op2:egR1 90 \, @op2:egR2 90 \, @op2:egR3 90 \, @op2:egR4 90 \, @op2:freq 1 \, @op2:key_vel_sens 1 \, @op2:level 95 \, @op2:mode 0 \, @op2:rate_scale 0 \, @op3:detune 1 \, @op3:egL1 0 \, @op3:egL2 90 \, @op3:egL3 90 \, @op3:egL4 0 \, @op3:egR1 90 \, @op3:egR2 90 \, @op3:egR3 90 \, @op3:egR4 90 \, @op3:freq 1 \, @op3:key_vel_sens 1 \, @op3:level 95 \, @op3:mode 0 \, @op3:rate_scale 0 \, @op4:detune 1 \, @op4:egL1 0 \, @op4:egL2 90 \, @op4:egL3 90 \, @op4:egL4 0 \, @op4:egR1 90 \, @op4:egR2 90 \, @op4:egR3 90 \, @op4:egR4 90 \, @op4:freq 1 \, @op4:key_vel_sens 1 \, @op4:level 95 \, @op4:mode 0 \, @op4:rate_scale 0 \, @op5:detune 1 \, @op5:egL1 0 \, @op5:egL2 90 \, @op5:egL3 90 \, @op5:egL4 0 \, @op5:egR1 90 \, @op5:egR2 90 \, @op5:egR3 90 \, @op5:egR4 90 \, @op5:freq 1 \, @op5:key_vel_sens 1 \, @op5:level 95 \, @op5:mode 0 \, @op5:rate_scale 0 \, @pitch 48 \,;
#X obj 25 50 t b b;
#X msg 25 75 reset;
#X obj 225 25 msg.onload;
#X obj 500 550 outlet~;
#X obj 600 550 outlet ctl;
#X obj 3 202 cnv 8 198 2679 empty empty empty 17 7 0 10 -174763 -1 0;
#X obj 3 202 cnv 8 198 18 empty empty [synth.dx7~] 3 9 0 12 -104026
-262144 0;
#X obj 12 236 ui.number @size 60 12 @label algorithm: @label_side top
@label_align left @fontsize 10 @presetname /gui/\$1/synth.dx7~/numbox0
@min 0 @max 15 @step 1;
#X msg 260 236 @algorithm \$1;
#X obj 12 266 ui.number @size 60 12 @label feedback: @label_side top
@label_align left @fontsize 10 @presetname /gui/\$1/synth.dx7~/numbox1
@min 0 @max 99 @step 1;
#X msg 260 266 @feedback \$1;
#X obj 12 296 ui.slider @size 125 12 @active_scale 1 @label gain:
@label_side top @label_align left @fontsize 10 @presetname
/gui/\$1/synth.dx7~/slider2 @min 0 @max 1;
#X obj 215 296 sync;
#X obj 145 296 ui.number @size 50 12 @min 0 @max 1 @digits 4;
#X msg 260 296 @gain \$1;
#X obj 12 316 ui.toggle @size 12 12 @label gate @label_side right
@label_align left @fontsize 10;
#X msg 260 308 @gate \$1;
#X obj 12 344 ui.number @size 60 12 @label op0:detune: @label_side top
@label_align left @fontsize 10 @presetname /gui/\$1/synth.dx7~/numbox4
@min -10 @max 10 @step 1;
#X msg 260 344 @op0:detune \$1;
#X obj 12 374 ui.number @size 60 12 @label op0:egL1: @label_side top
@label_align left @fontsize 10 @presetname /gui/\$1/synth.dx7~/numbox5
@min 0 @max 99 @step 1;
#X msg 260 374 @op0:egL1 \$1;
#X obj 12 404 ui.number @size 60 12 @label op0:egL2: @label_side top
@label_align left @fontsize 10 @presetname /gui/\$1/synth.dx7~/numbox6
@min 0 @max 99 @step 1;
#X msg 260 404 @op0:egL2 \$1;
#X obj 12 434 ui.number @size 60 12 @label op0:egL3: @label_side top
@label_align left @fontsize 10 @presetname /gui/\$1/synth.dx7~/numbox7
@min 0 @max 99 @step 1;
#X msg 260 434 @op0:egL3 \$1;
#X obj 12 464 ui.number @size 60 12 @label op0:egL4: @label_side top
@label_align left @fontsize 10 @presetname /gui/\$1/synth.dx7~/numbox8
@min 0 @max 99 @step 1;
#X msg 260 464 @op0:egL4 \$1;
#X obj 12 494 ui.number @size 60 12 @label op0:egR1: @label_side top
@label_align left @fontsize 10 @presetname /gui/\$1/synth.dx7~/numbox9
@min 0 @max 99 @step 1;
#X msg 260 494 @op0:egR1 \$1;
#X obj 12 524 ui.number @size 60 12 @label op0:egR2: @label_side top
@label_align left @fontsize 10 @presetname
/gui/\$1/synth.dx7~/numbox10 @min 0 @max 99 @step 1;
#X msg 260 524 @op0:egR2 \$1;
#X obj 12 554 ui.number @size 60 12 @label op0:egR3: @label_side top
@label_align left @fontsize 10 @presetname
/gui/\$1/synth.dx7~/numbox11 @min 0 @max 99 @step 1;
#X msg 260 554 @op0:egR3 \$1;
#X obj 12 584 ui.number @size 60 12 @label op0:egR4: @label_side top
@label_align left @fontsize 10 @presetname
/gui/\$1/synth.dx7~/numbox12 @min 0 @max 99 @step 1;
#X msg 260 584 @op0:egR4 \$1;
#X obj 12 614 ui.number @size 60 12 @label op0:freq: @label_side top
@label_align left @fontsize 10 @presetname
/gui/\$1/synth.dx7~/numbox13 @min 0 @max 2 @step 0.01;
#X msg 260 614 @op0:freq \$1;
#X obj 12 644 ui.number @size 60 12 @label op0:key_vel_sens:
@label_side top @label_align left @fontsize 10 @presetname
/gui/\$1/synth.dx7~/numbox14 @min 0 @max 8 @step 1;
#X msg 260 644 @op0:key_vel_sens \$1;
#X obj 12 674 ui.number @size 60 12 @label op0:level: @label_side top
@label_align left @fontsize 10 @presetname
/gui/\$1/synth.dx7~/numbox15 @min 0 @max 99 @step 1;
#X msg 260 674 @op0:level \$1;
#X obj 12 704 ui.number @size 60 12 @label op0:mode: @label_side top
@label_align left @fontsize 10 @presetname
/gui/\$1/synth.dx7~/numbox16 @min 0 @max 1 @step 1;
#X msg 260 704 @op0:mode \$1;
#X obj 12 734 ui.number @size 60 12 @label op0:rate_scale: @label_side
top @label_align left @fontsize 10 @presetname
/gui/\$1/synth.dx7~/numbox17 @min 0 @max 10 @step 1;
#X msg 260 734 @op0:rate_scale \$1;
#X obj 12 764 ui.number @size 60 12 @label op1:detune: @label_side top
@label_align left @fontsize 10 @presetname
/gui/\$1/synth.dx7~/numbox18 @min -10 @max 10 @step 1;
#X msg 260 764 @op1:detune \$1;
#X obj 12 794 ui.number @size 60 12 @label op1:egL1: @label_side top
@label_align left @fontsize 10 @presetname
/gui/\$1/synth.dx7~/numbox19 @min 0 @max 99 @step 1;
#X msg 260 794 @op1:egL1 \$1;
#X obj 12 824 ui.number @size 60 12 @label op1:egL2: @label_side top
@label_align left @fontsize 10 @presetname
/gui/\$1/synth.dx7~/numbox20 @min 0 @max 99 @step 1;
#X msg 260 824 @op1:egL2 \$1;
#X obj 12 854 ui.number @size 60 12 @label op1:egL3: @label_side top
@label_align left @fontsize 10 @presetname
/gui/\$1/synth.dx7~/numbox21 @min 0 @max 99 @step 1;
#X msg 260 854 @op1:egL3 \$1;
#X obj 12 884 ui.number @size 60 12 @label op1:egL4: @label_side top
@label_align left @fontsize 10 @presetname
/gui/\$1/synth.dx7~/numbox22 @min 0 @max 99 @step 1;
#X msg 260 884 @op1:egL4 \$1;
#X obj 12 914 ui.number @size 60 12 @label op1:egR1: @label_side top
@label_align left @fontsize 10 @presetname
/gui/\$1/synth.dx7~/numbox23 @min 0 @max 99 @step 1;
#X msg 260 914 @op1:egR1 \$1;
#X obj 12 944 ui.number @size 60 12 @label op1:egR2: @label_side top
@label_align left @fontsize 10 @presetname
/gui/\$1/synth.dx7~/numbox24 @min 0 @max 99 @step 1;
#X msg 260 944 @op1:egR2 \$1;
#X obj 12 974 ui.number @size 60 12 @label op1:egR3: @label_side top
@label_align left @fontsize 10 @presetname
/gui/\$1/synth.dx7~/numbox25 @min 0 @max 99 @step 1;
#X msg 260 974 @op1:egR3 \$1;
#X obj 12 1004 ui.number @size 60 12 @label op1:egR4: @label_side top
@label_align left @fontsize 10 @presetname
/gui/\$1/synth.dx7~/numbox26 @min 0 @max 99 @step 1;
#X msg 260 1004 @op1:egR4 \$1;
#X obj 12 1034 ui.number @size 60 12 @label op1:freq: @label_side top
@label_align left @fontsize 10 @presetname
/gui/\$1/synth.dx7~/numbox27 @min 0 @max 2 @step 0.01;
#X msg 260 1034 @op1:freq \$1;
#X obj 12 1064 ui.number @size 60 12 @label op1:key_vel_sens:
@label_side top @label_align left @fontsize 10 @presetname
/gui/\$1/synth.dx7~/numbox28 @min 0 @max 8 @step 1;
#X msg 260 1064 @op1:key_vel_sens \$1;
#X obj 12 1094 ui.number @size 60 12 @label op1:level: @label_side top
@label_align left @fontsize 10 @presetname
/gui/\$1/synth.dx7~/numbox29 @min 0 @max 99 @step 1;
#X msg 260 1094 @op1:level \$1;
#X obj 12 1124 ui.number @size 60 12 @label op1:mode: @label_side top
@label_align left @fontsize 10 @presetname
/gui/\$1/synth.dx7~/numbox30 @min 0 @max 1 @step 1;
#X msg 260 1124 @op1:mode \$1;
#X obj 12 1154 ui.number @size 60 12 @label op1:rate_scale:
@label_side top @label_align left @fontsize 10 @presetname
/gui/\$1/synth.dx7~/numbox31 @min 0 @max 10 @step 1;
#X msg 260 1154 @op1:rate_scale \$1;
#X obj 12 1184 ui.number @size 60 12 @label op2:detune: @label_side
top @label_align left @fontsize 10 @presetname
/gui/\$1/synth.dx7~/numbox32 @min -10 @max 10 @step 1;
#X msg 260 1184 @op2:detune \$1;
#X obj 12 1214 ui.number @size 60 12 @label op2:egL1: @label_side top
@label_align left @fontsize 10 @presetname
/gui/\$1/synth.dx7~/numbox33 @min 0 @max 99 @step 1;
#X msg 260 1214 @op2:egL1 \$1;
#X obj 12 1244 ui.number @size 60 12 @label op2:egL2: @label_side top
@label_align left @fontsize 10 @presetname
/gui/\$1/synth.dx7~/numbox34 @min 0 @max 99 @step 1;
#X msg 260 1244 @op2:egL2 \$1;
#X obj 12 1274 ui.number @size 60 12 @label op2:egL3: @label_side top
@label_align left @fontsize 10 @presetname
/gui/\$1/synth.dx7~/numbox35 @min 0 @max 99 @step 1;
#X msg 260 1274 @op2:egL3 \$1;
#X obj 12 1304 ui.number @size 60 12 @label op2:egL4: @label_side top
@label_align left @fontsize 10 @presetname
/gui/\$1/synth.dx7~/numbox36 @min 0 @max 99 @step 1;
#X msg 260 1304 @op2:egL4 \$1;
#X obj 12 1334 ui.number @size 60 12 @label op2:egR1: @label_side top
@label_align left @fontsize 10 @presetname
/gui/\$1/synth.dx7~/numbox37 @min 0 @max 99 @step 1;
#X msg 260 1334 @op2:egR1 \$1;
#X obj 12 1364 ui.number @size 60 12 @label op2:egR2: @label_side top
@label_align left @fontsize 10 @presetname
/gui/\$1/synth.dx7~/numbox38 @min 0 @max 99 @step 1;
#X msg 260 1364 @op2:egR2 \$1;
#X obj 12 1394 ui.number @size 60 12 @label op2:egR3: @label_side top
@label_align left @fontsize 10 @presetname
/gui/\$1/synth.dx7~/numbox39 @min 0 @max 99 @step 1;
#X msg 260 1394 @op2:egR3 \$1;
#X obj 12 1424 ui.number @size 60 12 @label op2:egR4: @label_side top
@label_align left @fontsize 10 @presetname
/gui/\$1/synth.dx7~/numbox40 @min 0 @max 99 @step 1;
#X msg 260 1424 @op2:egR4 \$1;
#X obj 12 1454 ui.number @size 60 12 @label op2:freq: @label_side top
@label_align left @fontsize 10 @presetname
/gui/\$1/synth.dx7~/numbox41 @min 0 @max 2 @step 0.01;
#X msg 260 1454 @op2:freq \$1;
#X obj 12 1484 ui.number @size 60 12 @label op2:key_vel_sens:
@label_side top @label_align left @fontsize 10 @presetname
/gui/\$1/synth.dx7~/numbox42 @min 0 @max 8 @step 1;
#X msg 260 1484 @op2:key_vel_sens \$1;
#X obj 12 1514 ui.number @size 60 12 @label op2:level: @label_side top
@label_align left @fontsize 10 @presetname
/gui/\$1/synth.dx7~/numbox43 @min 0 @max 99 @step 1;
#X msg 260 1514 @op2:level \$1;
#X obj 12 1544 ui.number @size 60 12 @label op2:mode: @label_side top
@label_align left @fontsize 10 @presetname
/gui/\$1/synth.dx7~/numbox44 @min 0 @max 1 @step 1;
#X msg 260 1544 @op2:mode \$1;
#X obj 12 1574 ui.number @size 60 12 @label op2:rate_scale:
@label_side top @label_align left @fontsize 10 @presetname
/gui/\$1/synth.dx7~/numbox45 @min 0 @max 10 @step 1;
#X msg 260 1574 @op2:rate_scale \$1;
#X obj 12 1604 ui.number @size 60 12 @label op3:detune: @label_side
top @label_align left @fontsize 10 @presetname
/gui/\$1/synth.dx7~/numbox46 @min -10 @max 10 @step 1;
#X msg 260 1604 @op3:detune \$1;
#X obj 12 1634 ui.number @size 60 12 @label op3:egL1: @label_side top
@label_align left @fontsize 10 @presetname
/gui/\$1/synth.dx7~/numbox47 @min 0 @max 99 @step 1;
#X msg 260 1634 @op3:egL1 \$1;
#X obj 12 1664 ui.number @size 60 12 @label op3:egL2: @label_side top
@label_align left @fontsize 10 @presetname
/gui/\$1/synth.dx7~/numbox48 @min 0 @max 99 @step 1;
#X msg 260 1664 @op3:egL2 \$1;
#X obj 12 1694 ui.number @size 60 12 @label op3:egL3: @label_side top
@label_align left @fontsize 10 @presetname
/gui/\$1/synth.dx7~/numbox49 @min 0 @max 99 @step 1;
#X msg 260 1694 @op3:egL3 \$1;
#X obj 12 1724 ui.number @size 60 12 @label op3:egL4: @label_side top
@label_align left @fontsize 10 @presetname
/gui/\$1/synth.dx7~/numbox50 @min 0 @max 99 @step 1;
#X msg 260 1724 @op3:egL4 \$1;
#X obj 12 1754 ui.number @size 60 12 @label op3:egR1: @label_side top
@label_align left @fontsize 10 @presetname
/gui/\$1/synth.dx7~/numbox51 @min 0 @max 99 @step 1;
#X msg 260 1754 @op3:egR1 \$1;
#X obj 12 1784 ui.number @size 60 12 @label op3:egR2: @label_side top
@label_align left @fontsize 10 @presetname
/gui/\$1/synth.dx7~/numbox52 @min 0 @max 99 @step 1;
#X msg 260 1784 @op3:egR2 \$1;
#X obj 12 1814 ui.number @size 60 12 @label op3:egR3: @label_side top
@label_align left @fontsize 10 @presetname
/gui/\$1/synth.dx7~/numbox53 @min 0 @max 99 @step 1;
#X msg 260 1814 @op3:egR3 \$1;
#X obj 12 1844 ui.number @size 60 12 @label op3:egR4: @label_side top
@label_align left @fontsize 10 @presetname
/gui/\$1/synth.dx7~/numbox54 @min 0 @max 99 @step 1;
#X msg 260 1844 @op3:egR4 \$1;
#X obj 12 1874 ui.number @size 60 12 @label op3:freq: @label_side top
@label_align left @fontsize 10 @presetname
/gui/\$1/synth.dx7~/numbox55 @min 0 @max 2 @step 0.01;
#X msg 260 1874 @op3:freq \$1;
#X obj 12 1904 ui.number @size 60 12 @label op3:key_vel_sens:
@label_side top @label_align left @fontsize 10 @presetname
/gui/\$1/synth.dx7~/numbox56 @min 0 @max 8 @step 1;
#X msg 260 1904 @op3:key_vel_sens \$1;
#X obj 12 1934 ui.number @size 60 12 @label op3:level: @label_side top
@label_align left @fontsize 10 @presetname
/gui/\$1/synth.dx7~/numbox57 @min 0 @max 99 @step 1;
#X msg 260 1934 @op3:level \$1;
#X obj 12 1964 ui.number @size 60 12 @label op3:mode: @label_side top
@label_align left @fontsize 10 @presetname
/gui/\$1/synth.dx7~/numbox58 @min 0 @max 1 @step 1;
#X msg 260 1964 @op3:mode \$1;
#X obj 12 1994 ui.number @size 60 12 @label op3:rate_scale:
@label_side top @label_align left @fontsize 10 @presetname
/gui/\$1/synth.dx7~/numbox59 @min 0 @max 10 @step 1;
#X msg 260 1994 @op3:rate_scale \$1;
#X obj 12 2024 ui.number @size 60 12 @label op4:detune: @label_side
top @label_align left @fontsize 10 @presetname
/gui/\$1/synth.dx7~/numbox60 @min -10 @max 10 @step 1;
#X msg 260 2024 @op4:detune \$1;
#X obj 12 2054 ui.number @size 60 12 @label op4:egL1: @label_side top
@label_align left @fontsize 10 @presetname
/gui/\$1/synth.dx7~/numbox61 @min 0 @max 99 @step 1;
#X msg 260 2054 @op4:egL1 \$1;
#X obj 12 2084 ui.number @size 60 12 @label op4:egL2: @label_side top
@label_align left @fontsize 10 @presetname
/gui/\$1/synth.dx7~/numbox62 @min 0 @max 99 @step 1;
#X msg 260 2084 @op4:egL2 \$1;
#X obj 12 2114 ui.number @size 60 12 @label op4:egL3: @label_side top
@label_align left @fontsize 10 @presetname
/gui/\$1/synth.dx7~/numbox63 @min 0 @max 99 @step 1;
#X msg 260 2114 @op4:egL3 \$1;
#X obj 12 2144 ui.number @size 60 12 @label op4:egL4: @label_side top
@label_align left @fontsize 10 @presetname
/gui/\$1/synth.dx7~/numbox64 @min 0 @max 99 @step 1;
#X msg 260 2144 @op4:egL4 \$1;
#X obj 12 2174 ui.number @size 60 12 @label op4:egR1: @label_side top
@label_align left @fontsize 10 @presetname
/gui/\$1/synth.dx7~/numbox65 @min 0 @max 99 @step 1;
#X msg 260 2174 @op4:egR1 \$1;
#X obj 12 2204 ui.number @size 60 12 @label op4:egR2: @label_side top
@label_align left @fontsize 10 @presetname
/gui/\$1/synth.dx7~/numbox66 @min 0 @max 99 @step 1;
#X msg 260 2204 @op4:egR2 \$1;
#X obj 12 2234 ui.number @size 60 12 @label op4:egR3: @label_side top
@label_align left @fontsize 10 @presetname
/gui/\$1/synth.dx7~/numbox67 @min 0 @max 99 @step 1;
#X msg 260 2234 @op4:egR3 \$1;
#X obj 12 2264 ui.number @size 60 12 @label op4:egR4: @label_side top
@label_align left @fontsize 10 @presetname
/gui/\$1/synth.dx7~/numbox68 @min 0 @max 99 @step 1;
#X msg 260 2264 @op4:egR4 \$1;
#X obj 12 2294 ui.number @size 60 12 @label op4:freq: @label_side top
@label_align left @fontsize 10 @presetname
/gui/\$1/synth.dx7~/numbox69 @min 0 @max 2 @step 0.01;
#X msg 260 2294 @op4:freq \$1;
#X obj 12 2324 ui.number @size 60 12 @label op4:key_vel_sens:
@label_side top @label_align left @fontsize 10 @presetname
/gui/\$1/synth.dx7~/numbox70 @min 0 @max 8 @step 1;
#X msg 260 2324 @op4:key_vel_sens \$1;
#X obj 12 2354 ui.number @size 60 12 @label op4:level: @label_side top
@label_align left @fontsize 10 @presetname
/gui/\$1/synth.dx7~/numbox71 @min 0 @max 99 @step 1;
#X msg 260 2354 @op4:level \$1;
#X obj 12 2384 ui.number @size 60 12 @label op4:mode: @label_side top
@label_align left @fontsize 10 @presetname
/gui/\$1/synth.dx7~/numbox72 @min 0 @max 1 @step 1;
#X msg 260 2384 @op4:mode \$1;
#X obj 12 2414 ui.number @size 60 12 @label op4:rate_scale:
@label_side top @label_align left @fontsize 10 @presetname
/gui/\$1/synth.dx7~/numbox73 @min 0 @max 10 @step 1;
#X msg 260 2414 @op4:rate_scale \$1;
#X obj 12 2444 ui.number @size 60 12 @label op5:detune: @label_side
top @label_align left @fontsize 10 @presetname
/gui/\$1/synth.dx7~/numbox74 @min -10 @max 10 @step 1;
#X msg 260 2444 @op5:detune \$1;
#X obj 12 2474 ui.number @size 60 12 @label op5:egL1: @label_side top
@label_align left @fontsize 10 @presetname
/gui/\$1/synth.dx7~/numbox75 @min 0 @max 99 @step 1;
#X msg 260 2474 @op5:egL1 \$1;
#X obj 12 2504 ui.number @size 60 12 @label op5:egL2: @label_side top
@label_align left @fontsize 10 @presetname
/gui/\$1/synth.dx7~/numbox76 @min 0 @max 99 @step 1;
#X msg 260 2504 @op5:egL2 \$1;
#X obj 12 2534 ui.number @size 60 12 @label op5:egL3: @label_side top
@label_align left @fontsize 10 @presetname
/gui/\$1/synth.dx7~/numbox77 @min 0 @max 99 @step 1;
#X msg 260 2534 @op5:egL3 \$1;
#X obj 12 2564 ui.number @size 60 12 @label op5:egL4: @label_side top
@label_align left @fontsize 10 @presetname
/gui/\$1/synth.dx7~/numbox78 @min 0 @max 99 @step 1;
#X msg 260 2564 @op5:egL4 \$1;
#X obj 12 2594 ui.number @size 60 12 @label op5:egR1: @label_side top
@label_align left @fontsize 10 @presetname
/gui/\$1/synth.dx7~/numbox79 @min 0 @max 99 @step 1;
#X msg 260 2594 @op5:egR1 \$1;
#X obj 12 2624 ui.number @size 60 12 @label op5:egR2: @label_side top
@label_align left @fontsize 10 @presetname
/gui/\$1/synth.dx7~/numbox80 @min 0 @max 99 @step 1;
#X msg 260 2624 @op5:egR2 \$1;
#X obj 12 2654 ui.number @size 60 12 @label op5:egR3: @label_side top
@label_align left @fontsize 10 @presetname
/gui/\$1/synth.dx7~/numbox81 @min 0 @max 99 @step 1;
#X msg 260 2654 @op5:egR3 \$1;
#X obj 12 2684 ui.number @size 60 12 @label op5:egR4: @label_side top
@label_align left @fontsize 10 @presetname
/gui/\$1/synth.dx7~/numbox82 @min 0 @max 99 @step 1;
#X msg 260 2684 @op5:egR4 \$1;
#X obj 12 2714 ui.number @size 60 12 @label op5:freq: @label_side top
@label_align left @fontsize 10 @presetname
/gui/\$1/synth.dx7~/numbox83 @min 0 @max 2 @step 0.01;
#X msg 260 2714 @op5:freq \$1;
#X obj 12 2744 ui.number @size 60 12 @label op5:key_vel_sens:
@label_side top @label_align left @fontsize 10 @presetname
/gui/\$1/synth.dx7~/numbox84 @min 0 @max 8 @step 1;
#X msg 260 2744 @op5:key_vel_sens \$1;
#X obj 12 2774 ui.number @size 60 12 @label op5:level: @label_side top
@label_align left @fontsize 10 @presetname
/gui/\$1/synth.dx7~/numbox85 @min 0 @max 99 @step 1;
#X msg 260 2774 @op5:level \$1;
#X obj 12 2804 ui.number @size 60 12 @label op5:mode: @label_side top
@label_align left @fontsize 10 @presetname
/gui/\$1/synth.dx7~/numbox86 @min 0 @max 1 @step 1;
#X msg 260 2804 @op5:mode \$1;
#X obj 12 2834 ui.number @size 60 12 @label op5:rate_scale:
@label_side top @label_align left @fontsize 10 @presetname
/gui/\$1/synth.dx7~/numbox87 @min 0 @max 10 @step 1;
#X msg 260 2834 @op5:rate_scale \$1;
#X obj 12 2864 ui.slider @size 125 12 @active_scale 1 @label pitch:
@label_side top @label_align left @fontsize 10 @presetname
/gui/\$1/synth.dx7~/slider88 @min 24 @max 84;
#X obj 215 2864 sync;
#X obj 145 2864 ui.number @size 50 12 @min 24 @max 84 @digits 2;
#X msg 260 2864 @pitch \$1;
#X connect 1 0 2 0;
#X connect 2 3 3 0;
#X connect 2 1 4 0;
#X connect 2 0 5 0;
#X connect 2 1 5 0;
#X connect 2 2 5 0;
#X connect 3 0 5 0;
#X connect 5 91 6 0;
#X connect 6 0 7 0;
#X connect 7 0 8 0;
#X connect 6 1 9 0;
#X connect 10 0 5 0;
#X connect 5 89 10 0;
#X connect 11 1 12 0;
#X connect 11 0 10 0;
#X connect 12 0 0 0;
#X connect 5 90 11 0;
#X connect 13 0 10 0;
#X connect 0 0 14 0;
#X connect 3 1 15 0;
#X connect 4 0 15 0;
#X connect 18 0 19 0;
#X connect 19 0 0 0;
#X connect 5 0 18 0;
#X connect 20 0 21 0;
#X connect 21 0 0 0;
#X connect 5 1 20 0;
#X connect 22 0 23 0;
#X connect 23 0 22 0;
#X connect 24 0 23 1;
#X connect 23 1 24 0;
#X connect 22 0 25 0;
#X connect 25 0 0 0;
#X connect 5 2 22 0;
#X connect 26 0 27 0;
#X connect 27 0 0 0;
#X connect 5 3 26 0;
#X connect 28 0 29 0;
#X connect 29 0 0 0;
#X connect 5 4 28 0;
#X connect 30 0 31 0;
#X connect 31 0 0 0;
#X connect 5 5 30 0;
#X connect 32 0 33 0;
#X connect 33 0 0 0;
#X connect 5 6 32 0;
#X connect 34 0 35 0;
#X connect 35 0 0 0;
#X connect 5 7 34 0;
#X connect 36 0 37 0;
#X connect 37 0 0 0;
#X connect 5 8 36 0;
#X connect 38 0 39 0;
#X connect 39 0 0 0;
#X connect 5 9 38 0;
#X connect 40 0 41 0;
#X connect 41 0 0 0;
#X connect 5 10 40 0;
#X connect 42 0 43 0;
#X connect 43 0 0 0;
#X connect 5 11 42 0;
#X connect 44 0 45 0;
#X connect 45 0 0 0;
#X connect 5 12 44 0;
#X connect 46 0 47 0;
#X connect 47 0 0 0;
#X connect 5 13 46 0;
#X connect 48 0 49 0;
#X connect 49 0 0 0;
#X connect 5 14 48 0;
#X connect 50 0 51 0;
#X connect 51 0 0 0;
#X connect 5 15 50 0;
#X connect 52 0 53 0;
#X connect 53 0 0 0;
#X connect 5 16 52 0;
#X connect 54 0 55 0;
#X connect 55 0 0 0;
#X connect 5 17 54 0;
#X connect 56 0 57 0;
#X connect 57 0 0 0;
#X connect 5 18 56 0;
#X connect 58 0 59 0;
#X connect 59 0 0 0;
#X connect 5 19 58 0;
#X connect 60 0 61 0;
#X connect 61 0 0 0;
#X connect 5 20 60 0;
#X connect 62 0 63 0;
#X connect 63 0 0 0;
#X connect 5 21 62 0;
#X connect 64 0 65 0;
#X connect 65 0 0 0;
#X connect 5 22 64 0;
#X connect 66 0 67 0;
#X connect 67 0 0 0;
#X connect 5 23 66 0;
#X connect 68 0 69 0;
#X connect 69 0 0 0;
#X connect 5 24 68 0;
#X connect 70 0 71 0;
#X connect 71 0 0 0;
#X connect 5 25 70 0;
#X connect 72 0 73 0;
#X connect 73 0 0 0;
#X connect 5 26 72 0;
#X connect 74 0 75 0;
#X connect 75 0 0 0;
#X connect 5 27 74 0;
#X connect 76 0 77 0;
#X connect 77 0 0 0;
#X connect 5 28 76 0;
#X connect 78 0 79 0;
#X connect 79 0 0 0;
#X connect 5 29 78 0;
#X connect 80 0 81 0;
#X connect 81 0 0 0;
#X connect 5 30 80 0;
#X connect 82 0 83 0;
#X connect 83 0 0 0;
#X connect 5 31 82 0;
#X connect 84 0 85 0;
#X connect 85 0 0 0;
#X connect 5 32 84 0;
#X connect 86 0 87 0;
#X connect 87 0 0 0;
#X connect 5 33 86 0;
#X connect 88 0 89 0;
#X connect 89 0 0 0;
#X connect 5 34 88 0;
#X connect 90 0 91 0;
#X connect 91 0 0 0;
#X connect 5 35 90 0;
#X connect 92 0 93 0;
#X connect 93 0 0 0;
#X connect 5 36 92 0;
#X connect 94 0 95 0;
#X connect 95 0 0 0;
#X connect 5 37 94 0;
#X connect 96 0 97 0;
#X connect 97 0 0 0;
#X connect 5 38 96 0;
#X connect 98 0 99 0;
#X connect 99 0 0 0;
#X connect 5 39 98 0;
#X connect 100 0 101 0;
#X connect 101 0 0 0;
#X connect 5 40 100 0;
#X connect 102 0 103 0;
#X connect 103 0 0 0;
#X connect 5 41 102 0;
#X connect 104 0 105 0;
#X connect 105 0 0 0;
#X connect 5 42 104 0;
#X connect 106 0 107 0;
#X connect 107 0 0 0;
#X connect 5 43 106 0;
#X connect 108 0 109 0;
#X connect 109 0 0 0;
#X connect 5 44 108 0;
#X connect 110 0 111 0;
#X connect 111 0 0 0;
#X connect 5 45 110 0;
#X connect 112 0 113 0;
#X connect 113 0 0 0;
#X connect 5 46 112 0;
#X connect 114 0 115 0;
#X connect 115 0 0 0;
#X connect 5 47 114 0;
#X connect 116 0 117 0;
#X connect 117 0 0 0;
#X connect 5 48 116 0;
#X connect 118 0 119 0;
#X connect 119 0 0 0;
#X connect 5 49 118 0;
#X connect 120 0 121 0;
#X connect 121 0 0 0;
#X connect 5 50 120 0;
#X connect 122 0 123 0;
#X connect 123 0 0 0;
#X connect 5 51 122 0;
#X connect 124 0 125 0;
#X connect 125 0 0 0;
#X connect 5 52 124 0;
#X connect 126 0 127 0;
#X connect 127 0 0 0;
#X connect 5 53 126 0;
#X connect 128 0 129 0;
#X connect 129 0 0 0;
#X connect 5 54 128 0;
#X connect 130 0 131 0;
#X connect 131 0 0 0;
#X connect 5 55 130 0;
#X connect 132 0 133 0;
#X connect 133 0 0 0;
#X connect 5 56 132 0;
#X connect 134 0 135 0;
#X connect 135 0 0 0;
#X connect 5 57 134 0;
#X connect 136 0 137 0;
#X connect 137 0 0 0;
#X connect 5 58 136 0;
#X connect 138 0 139 0;
#X connect 139 0 0 0;
#X connect 5 59 138 0;
#X connect 140 0 141 0;
#X connect 141 0 0 0;
#X connect 5 60 140 0;
#X connect 142 0 143 0;
#X connect 143 0 0 0;
#X connect 5 61 142 0;
#X connect 144 0 145 0;
#X connect 145 0 0 0;
#X connect 5 62 144 0;
#X connect 146 0 147 0;
#X connect 147 0 0 0;
#X connect 5 63 146 0;
#X connect 148 0 149 0;
#X connect 149 0 0 0;
#X connect 5 64 148 0;
#X connect 150 0 151 0;
#X connect 151 0 0 0;
#X connect 5 65 150 0;
#X connect 152 0 153 0;
#X connect 153 0 0 0;
#X connect 5 66 152 0;
#X connect 154 0 155 0;
#X connect 155 0 0 0;
#X connect 5 67 154 0;
#X connect 156 0 157 0;
#X connect 157 0 0 0;
#X connect 5 68 156 0;
#X connect 158 0 159 0;
#X connect 159 0 0 0;
#X connect 5 69 158 0;
#X connect 160 0 161 0;
#X connect 161 0 0 0;
#X connect 5 70 160 0;
#X connect 162 0 163 0;
#X connect 163 0 0 0;
#X connect 5 71 162 0;
#X connect 164 0 165 0;
#X connect 165 0 0 0;
#X connect 5 72 164 0;
#X connect 166 0 167 0;
#X connect 167 0 0 0;
#X connect 5 73 166 0;
#X connect 168 0 169 0;
#X connect 169 0 0 0;
#X connect 5 74 168 0;
#X connect 170 0 171 0;
#X connect 171 0 0 0;
#X connect 5 75 170 0;
#X connect 172 0 173 0;
#X connect 173 0 0 0;
#X connect 5 76 172 0;
#X connect 174 0 175 0;
#X connect 175 0 0 0;
#X connect 5 77 174 0;
#X connect 176 0 177 0;
#X connect 177 0 0 0;
#X connect 5 78 176 0;
#X connect 178 0 179 0;
#X connect 179 0 0 0;
#X connect 5 79 178 0;
#X connect 180 0 181 0;
#X connect 181 0 0 0;
#X connect 5 80 180 0;
#X connect 182 0 183 0;
#X connect 183 0 0 0;
#X connect 5 81 182 0;
#X connect 184 0 185 0;
#X connect 185 0 0 0;
#X connect 5 82 184 0;
#X connect 186 0 187 0;
#X connect 187 0 0 0;
#X connect 5 83 186 0;
#X connect 188 0 189 0;
#X connect 189 0 0 0;
#X connect 5 84 188 0;
#X connect 190 0 191 0;
#X connect 191 0 0 0;
#X connect 5 85 190 0;
#X connect 192 0 193 0;
#X connect 193 0 0 0;
#X connect 5 86 192 0;
#X connect 194 0 195 0;
#X connect 195 0 0 0;
#X connect 5 87 194 0;
#X connect 196 0 197 0;
#X connect 197 0 196 0;
#X connect 198 0 197 1;
#X connect 197 1 198 0;
#X connect 196 0 199 0;
#X connect 199 0 0 0;
#X connect 5 88 196 0;
#X coords 0 -1 1 1 200 2684 2 2 200;
