#N canvas 0 0 950 600 12;
#X obj 25 125 synth.eguitar~;
#X obj 325 25 inlet;
#X obj 325 200 route synth.eguitar * .;
#X obj 325 250 route @gain @gate @mute @pitch @pos default reset;
#X obj 575 350 t b a;
#X msg 575 375 supported messages are: @gain @gate @mute @pitch @pos default reset;
#X obj 575 425 print;
#X obj 625 425 print [gsynth.eguitar~] unknown message;
#X msg 225 75 @gain 1 \, @mute 0 \, @pitch 48 \, @pos 0.5 \,;
#X obj 25 50 t b b;
#X msg 25 75 reset;
#X obj 225 25 msg.onload;
#X obj 500 550 outlet~;
#X obj 600 550 outlet ctl;
#X obj 3 202 cnv 8 198 159 empty empty empty 17 7 0 10 -174763 -1 0;
#X obj 3 202 cnv 8 198 18 empty empty [synth.eguitar~] 3 9 0 12
-104026 -262144 0;
#X obj 12 236 ui.slider @size 125 12 @active_scale 1 @label gain:
@label_side top @label_align left @fontsize 10 @presetname
/gui/\$1/synth.eguitar~/slider0 @min 0 @max 1;
#X obj 215 236 sync;
#X obj 145 236 ui.number @size 50 12 @min 0 @max 1 @digits 4;
#X msg 260 236 @gain \$1;
#X obj 12 256 ui.toggle @size 12 12 @label gate @label_side right
@label_align left @fontsize 10;
#X msg 260 248 @gate \$1;
#X obj 12 284 ui.slider @size 125 12 @active_scale 1 @label mute:
@label_side top @label_align left @fontsize 10 @presetname
/gui/\$1/synth.eguitar~/slider2 @min 0 @max 1;
#X obj 215 284 sync;
#X obj 145 284 ui.number @size 50 12 @min 0 @max 1 @digits 4;
#X msg 260 284 @mute \$1;
#X obj 12 314 ui.slider @size 125 12 @active_scale 1 @label pitch:
@label_side top @label_align left @fontsize 10 @presetname
/gui/\$1/synth.eguitar~/slider3 @min 36 @max 84;
#X obj 215 314 sync;
#X obj 145 314 ui.number @size 50 12 @min 36 @max 84 @digits 2;
#X msg 260 314 @pitch \$1;
#X obj 12 344 ui.slider @size 125 12 @active_scale 1 @label pos:
@label_side top @label_align left @fontsize 10 @presetname
/gui/\$1/synth.eguitar~/slider4 @min 0 @max 1;
#X obj 215 344 sync;
#X obj 145 344 ui.number @size 50 12 @min 0 @max 1 @digits 4;
#X msg 260 344 @pos \$1;
#X connect 1 0 2 0;
#X connect 2 0 3 0;
#X connect 2 1 3 0;
#X connect 2 2 3 0;
#X connect 3 7 4 0;
#X connect 4 0 5 0;
#X connect 5 0 6 0;
#X connect 4 1 7 0;
#X connect 8 0 3 0;
#X connect 3 5 8 0;
#X connect 9 1 10 0;
#X connect 9 0 8 0;
#X connect 10 0 0 0;
#X connect 3 6 9 0;
#X connect 11 0 8 0;
#X connect 0 0 12 0;
#X connect 2 3 13 0;
#X connect 2 1 13 0;
#X connect 16 0 17 0;
#X connect 17 0 16 0;
#X connect 18 0 17 1;
#X connect 17 1 18 0;
#X connect 16 0 19 0;
#X connect 19 0 0 0;
#X connect 3 0 16 0;
#X connect 20 0 21 0;
#X connect 21 0 0 0;
#X connect 3 1 20 0;
#X connect 22 0 23 0;
#X connect 23 0 22 0;
#X connect 24 0 23 1;
#X connect 23 1 24 0;
#X connect 22 0 25 0;
#X connect 25 0 0 0;
#X connect 3 2 22 0;
#X connect 26 0 27 0;
#X connect 27 0 26 0;
#X connect 28 0 27 1;
#X connect 27 1 28 0;
#X connect 26 0 29 0;
#X connect 29 0 0 0;
#X connect 3 3 26 0;
#X connect 30 0 31 0;
#X connect 31 0 30 0;
#X connect 32 0 31 1;
#X connect 31 1 32 0;
#X connect 30 0 33 0;
#X connect 33 0 0 0;
#X connect 3 4 30 0;
#X coords 0 -1 1 1 200 164 2 2 200;
