#N canvas 0 0 785 555 12;
#X declare -lib ceammc;
#X obj 592 50 cnv 1 173 23 empty empty empty 17 7 0 10 -245760 -1 0;
#X text 592 50 realtime pitch shifter;
#X obj 1 1 cnv 5 765 40 empty empty soundtouch~ 20 20 0 20 -104026
-4096 0;
#X obj 660 11 soundtouch~;
#X obj 210 80 cnv 1 555 35 empty empty empty 17 7 0 10 -257983 -1 0;
#X text 215 80 Based on SoundTouch library.;
#X msg 50 143 open %CEAMMC%/guitar1.wav \, 1;
#X obj 50 172 expand_env;
#X msg 174 172 0;
#X obj 50 201 readsf~;
#X obj 165 230 ui.hsl -24 24 @show_value 1;
#X obj 50 259 soundtouch~ -12;
#X obj 50 287 ui.gain~ @size 120 16;
#X obj 280 287 ui.dsp~;
#X obj 50 316 dac~;
#X obj 20 365 cnv 1 745 1 empty empty empty 17 7 0 10 -203890 -1 0;
#X obj 20 370 cnv 5 90 26 empty empty arguments: 4 10 0 14 -262144
-49933 0;
#X text 110 405 1\.;
#X text 150 405 float;
#X obj 246 406 cnv 1 46 20 empty empty empty 17 7 0 10 -245695 -1 0;
#X text 245 405 PITCH: pitch shift in semitones. Type: float.;
#X obj 20 435 cnv 1 745 1 empty empty empty 17 7 0 10 -203890 -1 0;
#X obj 20 440 cnv 5 98 26 empty empty properties: 4 10 0 14 -262144
-49933 0;
#X msg 110 475 @aalength;
#X text 245 475 Get/Set pitch transposer anti-alias filter length.
Type: int. Default value: 64\. Range: 8\...128\.;
#X msg 110 517 @antialias;
#X text 245 517 Get/Set use of anti-alias filter. Anti-alias filter
is used to prevent folding of high frequencies when transposing the
sample rate with interpolation. Type: int. Default value: 0\. Allowed
values: 0 \, 1\.;
#X msg 110 589 @bypass;
#X text 245 589 Get/Set if set to 1 - bypass 'effected' signal. Type:
int. Default value: 0\. Allowed values: 0 \, 1\.;
#X msg 110 631 @drywet;
#X text 245 631 Get/Set Ratio between processed signal (wet) and source
signal. Type: float. Default value: 1\. Range: 0\...1\.;
#X msg 110 673 @pitch;
#X text 245 673 Get/Set relative pitch change in semitones. Type: float.
Default value: 0\.;
#X obj 20 725 cnv 1 745 1 empty empty empty 17 7 0 10 -203890 -1 0;
#X obj 20 730 cnv 5 64 26 empty empty inlets: 4 10 0 14 -262144 -49933
0;
#X text 110 731 1\.;
#X text 245 731 input signal.;
#X text 110 751 2\.;
#X text 150 751 *float*;
#X text 245 751 pitch shift in semitones.;
#X obj 20 781 cnv 1 745 1 empty empty empty 17 7 0 10 -203890 -1 0;
#X obj 20 786 cnv 5 73 26 empty empty outlets: 4 10 0 14 -262144
-49933 0;
#X text 110 787 1\.;
#X text 245 787 output signal.;
#X obj 10 48 ui.link @title index @url ../index-help.pd;
#X text 51 45 ::;
#X obj 67 48 ui.link @title soundtouch @url soundtouch-help.pd;
#X text 143 45 ::;
#X obj 159 48 ui.link @title pitch @url soundtouch.pitch-help.pd;
#X obj 1 837 cnv 5 765 48 empty empty empty 17 7 0 10 -203890 -1 0;
#X text 10 840 library: soundtouch v0.2;
#N canvas 10 859 400 290 info 0;
#X obj 1 1 cnv 1 107 287 empty empty empty 17 7 0 10 -183085 -1 0;
#X text 10 10 library:;
#X text 120 10 soundtouch;
#X text 10 32 version:;
#X text 120 32 0.2;
#X text 10 54 object:;
#X text 120 54 soundtouch~;
#X text 10 76 category:;
#X text 120 76 pitch;
#X text 10 98 since:;
#X text 120 98 0.1;
#X text 10 120 authors:;
#X text 120 120 Olli Parviainen \, Serge Poltavsky;
#X text 10 142 license:;
#X text 120 142 GPL3;
#X text 10 164 keywords:;
#X text 120 164 pitch \, pitchshift;
#X text 10 186 website:;
#X obj 120 189 ui.link @title https://www.surina.net/soundtouch/ @url
https://www.surina.net/soundtouch/;
#X obj 120 208 declare -lib ceammc;
#X obj 120 268 cnv 1 270 1 empty empty empty 17 7 0 10 -203890 -1 0;
#X text 120 268 generated by pddoc;
#X restore 10 859 pd info;
#X connect 6 0 7 0;
#X connect 7 0 9 0;
#X connect 8 0 9 0;
#X connect 9 0 11 0;
#X connect 10 0 11 1;
#X connect 11 0 12 0;
#X connect 12 0 14 0;
#X connect 12 0 14 1;
#X connect 9 1 6 0;