#N canvas 64 108 803 555 10;
#X obj 401 265 hoa.in~;
#X obj 401 448 hoa.out~;
#X obj 401 357 c.convolve~ buffer 1;
#X obj 303 356 line~;
#X obj 303 329 pack 0 20;
#X obj 344 246 line~;
#X obj 344 219 pack 0 20;
#X obj 403 397 *~;
#X obj 352 397 *~;
#X obj 303 65 hoa.in 1;
#X obj 303 108 route @dry @wet set nomalize;
#X obj 473 394 prop.declare dry @f @min 0 @max 1 @default 0;
#X obj 473 424 prop.declare wet @f @min 0 @max 1 @default 1;
#X obj 527 285 msg set;
#X obj 527 245 msg normalize;
#X obj 303 304 prop @dry;
#X obj 344 190 prop @wet;
#X connect 0 0 2 0;
#X connect 0 0 8 0;
#X connect 2 0 7 0;
#X connect 3 0 8 1;
#X connect 4 0 3 0;
#X connect 5 0 7 1;
#X connect 6 0 5 0;
#X connect 7 0 1 0;
#X connect 8 0 1 0;
#X connect 9 0 10 0;
#X connect 10 0 15 0;
#X connect 10 1 16 0;
#X connect 10 2 13 0;
#X connect 10 3 14 0;
#X connect 13 0 2 0;
#X connect 14 0 2 0;
#X connect 15 0 4 0;
#X connect 16 0 6 0;
