#N canvas 861 385 851 541 10;
#X obj 218 210 until;
#X obj 218 287 * 20;
#X obj 249 238 + 1;
#X obj 218 238 f 0;
#X obj 257 288 + 1;
#X obj 218 65 unpack f f f, f 13;
#X obj 337 322 makefilename \$0-%d;
#X obj 218 189 f;
#X obj 544 382 send, f 5;
#X obj 544 291 /;
#X obj 631 339 makefilename \$0-%d;
#X obj 544 214 t f f, f 15;
#X obj 544 160 until;
#X obj 575 188 + 1;
#X obj 544 188 f 0;
#X obj 544 132 f;
#X obj 218 262 t f f, f 6;
#X obj 631 318 + 1;
#X obj 218 350 pack f f f s f, f 27;
#X obj 377 214 + 1;
#X obj 377 242 t b f;
#X obj 377 264 f 1;
#X obj 377 286 /, f 5;
#X obj 412 35 hoa.in;
#X msg 218 396 obj 0 \$1 hoa.pw.2d.dec~ \$2 \$3 \$4 \$5;
#X obj 233 167 r \$0-nls;
#X obj 559 109 r \$0-nls;
#X obj 559 268 r \$0-nls;
#X obj 218 97 t b f f;
#N canvas 253 402 450 300 nls 0;
#X obj 95 142 f;
#X obj 95 175 s \$0-nls;
#X obj 77 49 == -1;
#X obj 110 14 inlet;
#X obj 28 14 inlet;
#X obj 28 42 t b f;
#X obj 55 93 * 2;
#X obj 55 116 + 2;
#X obj 55 72 spigot;
#X connect 0 0 1 0;
#X connect 2 0 8 1;
#X connect 3 0 0 1;
#X connect 3 0 2 0;
#X connect 4 0 5 0;
#X connect 5 0 0 0;
#X connect 5 1 8 0;
#X connect 6 0 7 0;
#X connect 7 0 0 1;
#X connect 8 0 6 0;
#X restore 257 125 pd nls;
#X obj 218 40 hoa.thisprocess~ -1;
#X obj 412 67 sel done;
#X obj 10 10 switch~;
#X obj 544 314 math.pi 2;
#X obj 218 20 msg.onload;
#X obj 334 143 hoa.@process;
#X msg 334 120 @order? @horder?;
#X obj 334 165 prop-> @order @horder;
#X obj 43 297 namecanvas \$0-cnv;
#X obj 218 426 s \$0-cnv;
#X connect 0 0 3 0;
#X connect 1 0 18 0;
#X connect 2 0 3 1;
#X connect 3 0 2 0;
#X connect 3 0 16 0;
#X connect 4 0 6 0;
#X connect 4 0 18 1;
#X connect 5 0 28 0;
#X connect 5 2 18 2;
#X connect 6 0 18 3;
#X connect 7 0 0 0;
#X connect 9 0 33 0;
#X connect 10 0 8 1;
#X connect 11 0 9 0;
#X connect 11 1 17 0;
#X connect 12 0 14 0;
#X connect 13 0 14 1;
#X connect 14 0 13 0;
#X connect 14 0 11 0;
#X connect 15 0 12 0;
#X connect 16 0 1 0;
#X connect 16 1 4 0;
#X connect 17 0 10 0;
#X connect 18 0 24 0;
#X connect 19 0 20 0;
#X connect 20 0 21 0;
#X connect 20 1 22 1;
#X connect 21 0 22 0;
#X connect 22 0 18 4;
#X connect 23 0 31 0;
#X connect 24 0 39 0;
#X connect 25 0 7 1;
#X connect 26 0 15 1;
#X connect 27 0 9 1;
#X connect 28 0 7 0;
#X connect 28 1 19 0;
#X connect 28 2 29 0;
#X connect 30 0 5 0;
#X connect 30 2 29 1;
#X connect 30 3 31 0;
#X connect 31 0 15 0;
#X connect 33 0 8 0;
#X connect 34 0 30 0;
#X connect 34 0 36 0;
#X connect 35 0 37 0;
#X connect 36 0 35 0;
#X connect 37 1 7 0;
#X connect 37 2 19 0;
