#N canvas 813 735 450 300 10;
#X obj 167 233 hoa.out~;
#X obj 179 169 *~ 0;
#X obj 10 10 switch~;
#X obj 155 89 hoa.in~ 1;
#X obj 273 96 hoa.in;
#X connect 1 0 0 0;
#X connect 3 0 1 0;
#X connect 4 0 1 1;
