#N canvas 813 281 758 712 10;
#X text 360 314 Mousewheel and alt to change the zoom.;
#X text 360 225 To create group \, drag select a set of sources \, when mouse up the group will be created. To remove group \, right-click or click with cmd on group then select "Remove group".;
#X text 358 276 To mute source or group \, right-click or click with cmd on it and select "Mute" or "Unmute".;
#N canvas 765 351 1155 640 messages 0;
#X text 14 55 Set the zoom;
#X obj 439 251 send map_mes;
#X obj 740 151 send map_mes;
#X obj 752 320 send map_mes;
#X msg 752 269 source 1 color 0.7 0 0.6 1;
#X obj 507 404 send map_mes;
#X text 361 277 Mute with the "mute" message".;
#X text 742 357 Remove a source or group with the "remove" message". Note that remove will also remove coordinates \, descriptions \, color and send a message to hoa.2D.map~ to mute the source (exept for groups).;
#X obj 755 470 send map_mes;
#X msg 755 419 group 1 remove;
#X msg 777 442 source 3 remove;
#X text 850 419 (create the group 1 before);
#X text 873 441 (create the source 3 before);
#X text 104 79 Bang to output;
#X msg 740 100 source 1 description Jimi Hendrix;
#X msg 762 123 group 1 description Band of Gypsys;
#X msg 774 292 group 1 color 0.2 0.9 0 1;
#X text 213 82 Clear all;
#X msg 501 155 source 2 abscissa 2.5;
#X msg 577 351 group 1 mute \$1;
#X msg 424 316 source 1 mute \$1;
#X msg 501 372 source 2 mute \$1;
#X obj 29 562 send map_mes;
#X text 22 496 If the source or group messages are prepended by the "set" symbol \, it will not producing any output;
#X msg 527 180 group 1 azimuth 1.14;
#X msg 349 155 source 1 pol 1 3.14 0;
#X msg 345 189 group 1 car 0.5 0.5 0.5;
#X msg 495 208 source 3 car 0.2 -0.7 0;
#X obj 398 556 send map_mes;
#X msg 29 536 set source 1 pol 1 3.14 0.2;
#X msg 398 530 group 1 set 1 2 3 4;
#X text 343 11 Display source or group and set coordinates with "source" or "group" message followed by an integer for the index \, the type of coordinates and zero \, one \, two or three floating values for coordinates. The coordinates types accepted are "polar" (or "pol") \, "cartesian" (or "car") \, "radius" \, "azimuth" \, "elevation" \, "abscissa" \, "ordinate" \, "height". The polar type is followed by the radius \, the azimuth and the elevation and the cartesian type is followed by the abscissa \, the ordinate and the height. Exemple : "source 1 car 1 0 0.3.".;
#X text 381 462 Create a group with the "group" message followed by an integer for the group index \, "set" message and a list of intergers \, the indexs of source to put in the group. Exemple : "group 1 set 1 2 3 4".;
#X text 741 12 Set descriptions with "source" or "group" message followed by an integer for the index \, the "description" message and everything you want for the description. Set "remove" instead of the description to remove the description. Exemple : "source 1 description Jimi Hendrix".;
#X text 744 188 Set colors with "source" or "group" message followed by an integer for the index \, the "color" message and four floating values for red \, green \, blue and alpha (ok... there's no alpha). Exemple : "source 1 color 1 0.2 0.6 1;
#X obj 27 76 ui.number @size 53 17 @receive "(null)" @send "(null)" @nosave 0 @pinned 0 @presetname "(null)" @background_color 0.93 0.93 0.93 1 @border_color 0.6 0.6 0.6 1 @label_color 0 0 0 1 @active_color 0 0.75 1 1 @text_color 0 0 0 1 @fontname "Helvetica" @fontweight "normal" @fontslant "roman" @fontsize 11 @label "(null)" @label_inner 0 @label_side "top" @label_align "left" @label_valign "top" @label_margins 0 0 @min 0.2 @max 1 @display_only 0 @digits -1;
#X obj 109 106 ui.bang @size 17 17 @receive "(null)" @send "(null)" @nosave 0 @pinned 0 @background_color 0.93 0.93 0.93 1 @border_color 0.6 0.6 0.6 1 @label_color 0 0 0 1 @active_color 0 0.75 1 1 @fontname "Helvetica" @fontweight "normal" @fontslant "roman" @fontsize 11 @label "(null)" @label_inner 0 @label_side "top" @label_align "left" @label_valign "top" @label_margins 0 0;
#X msg 214 107 clear_all;
#X obj 68 451 print SRC;
#X obj 424 294 ui.toggle @size 15 15 @receive "(null)" @send "(null)" @nosave 0 @pinned 0 @presetname "ui.toggle.2" @background_color 0.93 0.93 0.93 1 @border_color 0.6 0.6 0.6 1 @label_color 0 0 0 1 @active_color 0 0.75 1 1 @fontname "Helvetica" @fontweight "normal" @fontslant "roman" @fontsize 11 @label "(null)" @label_inner 0 @label_side "top" @label_align "left" @label_valign "top" @label_margins 0 0 @on_value 1 @off_value 0 @midi_channel 0 @midi_control -1;
#X obj 577 324 ui.toggle @size 15 15 @receive "(null)" @send "(null)" @nosave 0 @pinned 0 @presetname "ui.toggle.3" @background_color 0.93 0.93 0.93 1 @border_color 0.6 0.6 0.6 1 @label_color 0 0 0 1 @active_color 0 0.75 1 1 @fontname "Helvetica" @fontweight "normal" @fontslant "roman" @fontsize 11 @label "(null)" @label_inner 0 @label_side "top" @label_align "left" @label_valign "top" @label_margins 0 0 @on_value 1 @off_value 0 @midi_channel 0 @midi_control -1;
#X obj 501 344 ui.toggle @size 15 15 @receive "(null)" @send "(null)" @nosave 0 @pinned 0 @presetname "ui.toggle.4" @background_color 0.93 0.93 0.93 1 @border_color 0.6 0.6 0.6 1 @label_color 0 0 0 1 @active_color 0 0.75 1 1 @fontname "Helvetica" @fontweight "normal" @fontslant "roman" @fontsize 11 @label "(null)" @label_inner 0 @label_side "top" @label_align "left" @label_valign "top" @label_margins 0 0 @on_value 1 @off_value 0 @midi_channel 0 @midi_control -1;
#X obj 68 221 hoa.map.ui @size 225 225 @receive "map_mes" @send "(null)" @nosave 0 @pinned 0 @presetname "(null)" @background_color 0.93 0.93 0.93 1 @border_color 0.6 0.6 0.6 1 @label_color 0 0 0 1 @selection_color 0 0.75 1 1 @fontname "Helvetica" @fontweight "normal" @fontslant "roman" @fontsize 11 @label "(null)" @label_inner 0 @label_side "top" @label_align "left" @label_valign "top" @label_margins 0 0 @view "xy" @mapname "(null)" @outputmode "polar" @zoom 0.2;
#X msg 27 106 @zoom \$1;
#X connect 4 0 3 0;
#X connect 9 0 8 0;
#X connect 10 0 8 0;
#X connect 14 0 2 0;
#X connect 15 0 2 0;
#X connect 16 0 3 0;
#X connect 18 0 1 0;
#X connect 19 0 5 0;
#X connect 20 0 5 0;
#X connect 21 0 5 0;
#X connect 24 0 1 0;
#X connect 25 0 1 0;
#X connect 26 0 1 0;
#X connect 27 0 1 0;
#X connect 29 0 22 0;
#X connect 30 0 28 0;
#X connect 35 0 43 0;
#X connect 36 0 42 0;
#X connect 37 0 42 0;
#X connect 39 0 20 0;
#X connect 40 0 19 0;
#X connect 41 0 21 0;
#X connect 42 0 38 0;
#X connect 43 0 42 0;
#X restore 452 359 pd messages;
#N canvas 1040 355 820 638 outputs 1;
#X obj 58 423 send map_outs_sources;
#X obj 167 396 send map_outs_groups;
#X obj 535 25 receive map_outs_sources;
#X text 257 47 Change the coordinates type;
#X obj 531 283 receive map_outs_groups;
#X obj 277 450 route list;
#X text 33 56 Outputs sources;
#X text 21 72 and groups coordinates;
#X text 168 68 Output general;
#X text 172 83 informations;
#X msg 588 509 polar 1.382 -0.0781813 0;
#X obj 531 447 route mute;
#X text 600 321 Route group by index;
#X msg 592 247 cartesian -0.850794 1.84127 0;
#X obj 535 185 route mute;
#X msg 617 157 polar 1.62421 1.10016 0;
#X obj 560 95 route mute;
#X msg 613 408 polar 1.15395 2.72225 0;
#X obj 556 346 route mute;
#X text 601 58 Route source by index;
#X obj 329 527 print group;
#X obj 277 502 print source;
#X obj 277 476 route source group;
#X obj 535 58 route 1 2;
#X obj 531 319 route 1 2;
#X obj 58 100 ui.bang @size 17 17 @receive "(null)" @send "(null)" @nosave 0 @pinned 0 @background_color 0.93 0.93 0.93 1 @border_color 0.6 0.6 0.6 1 @label_color 0 0 0 1 @active_color 0 0.75 1 1 @fontname "Helvetica" @fontweight "normal" @fontslant "roman" @fontsize 11 @label "(null)" @label_inner 0 @label_side "top" @label_align "left" @label_valign "top" @label_margins 0 0;
#X obj 297 72 ui.menu @size 85 16 @receive "(null)" @send "(null)" @nosave 0 @pinned 0 @presetname "(null)" @background_color 0.93 0.93 0.93 1 @border_color 0.6 0.6 0.6 1 @label_color 0 0 0 1 @text_color 0 0 0 1 @active_color 0 0.75 1 1 @fontname "Helvetica" @fontweight "normal" @fontslant "roman" @fontsize 11 @label "(null)" @label_inner 0 @label_side "top" @label_align "left" @label_valign "top" @label_margins 0 0 @items "polar" "cartesian" @max_length 100;
#X obj 425 140 ui.preset @size 62 41 @receive "(null)" @send "(null)" @nosave 0 @pinned 0 @background_color 0.93 0.93 0.93 1 @border_color 0.6 0.6 0.6 1 @label_color 0 0 0 1 @text_color 0 0 0 1 @empty_color 0.86 0.86 0.86 1 @stored_color 0.5 0.5 0.5 1 @active_color 0 0.75 1 1 @fontname "Helvetica" @fontweight "normal" @fontslant "roman" @fontsize 10 @label "(null)" @label_inner 0 @label_side "top" @label_align "left" @label_valign "top" @label_margins 0 0;
#X obj 617 125 prepend set;
#X obj 560 157 ui.toggle @size 15 15 @receive "(null)" @send "(null)" @nosave 0 @pinned 0 @presetname "ui.toggle.5" @background_color 0.93 0.93 0.93 1 @border_color 0.6 0.6 0.6 1 @label_color 0 0 0 1 @active_color 0 0.75 1 1 @fontname "Helvetica" @fontweight "normal" @fontslant "roman" @fontsize 11 @label "(null)" @label_inner 0 @label_side "top" @label_align "left" @label_valign "top" @label_margins 0 0 @on_value 1 @off_value 0 @midi_channel 0 @midi_control -1;
#X obj 592 215 prepend set;
#X obj 535 247 ui.toggle @size 15 15 @receive "(null)" @send "(null)" @nosave 0 @pinned 0 @presetname "ui.toggle.6" @background_color 0.93 0.93 0.93 1 @border_color 0.6 0.6 0.6 1 @label_color 0 0 0 1 @active_color 0 0.75 1 1 @fontname "Helvetica" @fontweight "normal" @fontslant "roman" @fontsize 11 @label "(null)" @label_inner 0 @label_side "top" @label_align "left" @label_valign "top" @label_margins 0 0 @on_value 1 @off_value 0 @midi_channel 0 @midi_control -1;
#X obj 613 376 prepend set;
#X obj 556 408 ui.toggle @size 15 15 @receive "(null)" @send "(null)" @nosave 0 @pinned 0 @presetname "ui.toggle.7" @background_color 0.93 0.93 0.93 1 @border_color 0.6 0.6 0.6 1 @label_color 0 0 0 1 @active_color 0 0.75 1 1 @fontname "Helvetica" @fontweight "normal" @fontslant "roman" @fontsize 11 @label "(null)" @label_inner 0 @label_side "top" @label_align "left" @label_valign "top" @label_margins 0 0 @on_value 1 @off_value 0 @midi_channel 0 @midi_control -1;
#X obj 588 477 prepend set;
#X obj 531 509 ui.toggle @size 15 15 @receive "(null)" @send "(null)" @nosave 0 @pinned 0 @presetname "ui.toggle.8" @background_color 0.93 0.93 0.93 1 @border_color 0.6 0.6 0.6 1 @label_color 0 0 0 1 @active_color 0 0.75 1 1 @fontname "Helvetica" @fontweight "normal" @fontslant "roman" @fontsize 11 @label "(null)" @label_inner 0 @label_side "top" @label_align "left" @label_valign "top" @label_margins 0 0 @on_value 1 @off_value 0 @midi_channel 0 @midi_control -1;
#X msg 180 102 info;
#X obj 58 145 hoa.map.ui @size 225 225 @receive "(null)" @send "(null)" @nosave 0 @pinned 0 @presetname "hoamapex3" @background_color 0.93 0.93 0.93 1 @border_color 0.6 0.6 0.6 1 @label_color 0 0 0 1 @selection_color 0 0.75 1 1 @fontname "Helvetica" @fontweight "normal" @fontslant "roman" @fontsize 11 @label "(null)" @label_inner 0 @label_side "top" @label_align "left" @label_valign "top" @label_margins 0 0 @view "xy" @mapname "(null)" @outputmode "cartesian" @zoom 0.35;
#X msg 297 98 @outputmode \$2;
#X obj 425 98 msg.onload load 1;
#X obj 425 120 flow.pipe 200;
#X connect 2 0 23 0;
#X connect 4 0 24 0;
#X connect 5 0 22 0;
#X connect 11 0 35 0;
#X connect 11 1 34 0;
#X connect 14 0 31 0;
#X connect 14 1 30 0;
#X connect 16 0 29 0;
#X connect 16 1 28 0;
#X connect 18 0 33 0;
#X connect 18 1 32 0;
#X connect 22 0 21 0;
#X connect 22 1 20 0;
#X connect 23 0 14 0;
#X connect 23 1 16 0;
#X connect 24 0 11 0;
#X connect 24 1 18 0;
#X connect 25 0 37 0;
#X connect 26 0 38 0;
#X connect 28 0 15 0;
#X connect 30 0 13 0;
#X connect 32 0 17 0;
#X connect 34 0 10 0;
#X connect 36 0 37 0;
#X connect 37 0 0 0;
#X connect 37 1 1 0;
#X connect 37 2 5 0;
#X connect 38 0 37 0;
#X connect 39 0 40 0;
#X connect 40 0 27 0;
#X restore 603 361 pd outputs;
#N canvas 724 504 450 300 preset_player 0;
#X obj 158 175 line;
#X obj 182 209 sel 11;
#X msg 180 103 1;
#X obj 131 82 t b b;
#X obj 171 57 spigot;
#X obj 130 130 pack 11 10000;
#X msg 130 103 11;
#X obj 106 25 inlet;
#X obj 248 14 inlet;
#X obj 222 57 inlet;
#X obj 185 247 outlet;
#X obj 262 167 pipe 500;
#X obj 104 51 sel 0;
#X msg 91 140 stop;
#X obj 260 126 msg.onload 0;
#X connect 0 0 1 0;
#X connect 0 0 10 0;
#X connect 1 0 4 0;
#X connect 2 0 0 0;
#X connect 3 0 6 0;
#X connect 3 1 2 0;
#X connect 4 0 3 0;
#X connect 5 0 0 0;
#X connect 6 0 5 0;
#X connect 7 0 12 0;
#X connect 8 0 4 1;
#X connect 9 0 5 1;
#X connect 11 0 10 0;
#X connect 12 0 13 0;
#X connect 12 1 3 0;
#X connect 13 0 0 0;
#X connect 14 0 0 0;
#X connect 14 0 11 0;
#X restore 400 480 pd preset_player _____;
#X text 395 422 Play;
#X text 467 422 Duration;
#X text 524 422 Loop;
#X text 449 343 Control with messages;
#X text 601 342 Output informations;
#X obj 2 4 hoa.help.header;
#X obj 148 649 hoa.help.pub;
#X obj 418 4 hoa.help.also;
#N canvas 373 200 913 586 3D 0;
#X text 734 193 |;
#X text 734 186 ^;
#X text 734 175 z;
#X text 444 193 |;
#X text 444 186 ^;
#X text 444 175 z;
#X text 854 306 _;
#X text 861 309 >;
#X text 871 309 y;
#X text 564 309 _;
#X text 571 312 >;
#X text 581 312 x;
#X text 156 194 |;
#X text 156 187 ^;
#X text 276 310 _;
#X text 283 313 >;
#X text 293 313 x;
#X text 156 176 y;
#X text 22 4 These three hoa.map objects share the same "mapname" attribute so they are linked together and react to the changes of each others. Thus \, sources and groups position \, description and colors modifications will affect all linked hoa.map objects., f 124;
#X obj 336 446 route 2;
#X obj 48 446 route 1;
#X obj 627 446 route 3;
#X text 16 59 Change the coordinate system to change the point of view and interact differently with sources and groups.;
#X obj 48 108 msg.onload set 0;
#X obj 336 108 msg.onload set 1;
#X obj 627 112 msg.onload set 2;
#X obj 796 65 ui.preset @size 61 60 @receive "(null)" @send "(null)" @nosave 0 @pinned 0 @background_color 0.93 0.93 0.93 1 @border_color 0.6 0.6 0.6 1 @label_color 0 0 0 1 @text_color 0 0 0 1 @empty_color 0.86 0.86 0.86 1 @stored_color 0.5 0.5 0.5 1 @active_color 0 0.75 1 1 @fontname "Helvetica" @fontweight "normal" @fontslant "roman" @fontsize 10 @label "(null)" @label_inner 0 @label_side "top" @label_align "left" @label_valign "top" @label_margins 0 0;
#X obj 48 138 ui.menu @size 40 16 @receive "(null)" @send "(null)" @nosave 0 @pinned 0 @presetname "ui.menu.1" @background_color 0.93 0.93 0.93 1 @border_color 0.6 0.6 0.6 1 @label_color 0 0 0 1 @text_color 0 0 0 1 @active_color 0 0.75 1 1 @fontname "Helvetica" @fontweight "normal" @fontslant "roman" @fontsize 11 @label "(null)" @label_inner 0 @label_side "top" @label_align "left" @label_valign "top" @label_margins 0 0 @items "xy" "xz" "yz" @max_length 100;
#X obj 336 137 ui.menu @size 40 16 @receive "(null)" @send "(null)" @nosave 0 @pinned 0 @presetname "ui.menu.2" @background_color 0.93 0.93 0.93 1 @border_color 0.6 0.6 0.6 1 @label_color 0 0 0 1 @text_color 0 0 0 1 @active_color 0 0.75 1 1 @fontname "Helvetica" @fontweight "normal" @fontslant "roman" @fontsize 11 @label "(null)" @label_inner 0 @label_side "top" @label_align "left" @label_valign "top" @label_margins 0 0 @items "xy" "xz" "yz" @max_length 100;
#X obj 627 142 ui.menu @size 40 16 @receive "(null)" @send "(null)" @nosave 0 @pinned 0 @presetname "ui.menu.3" @background_color 0.93 0.93 0.93 1 @border_color 0.6 0.6 0.6 1 @label_color 0 0 0 1 @text_color 0 0 0 1 @active_color 0 0.75 1 1 @fontname "Helvetica" @fontweight "normal" @fontslant "roman" @fontsize 11 @label "(null)" @label_inner 0 @label_side "top" @label_align "left" @label_valign "top" @label_margins 0 0 @items "xy" "xz" "yz" @max_length 100;
#X obj 336 468 ui.display @size 233 18 @receive "(null)" @send "(null)" @nosave 0 @pinned 0 @background_color 0.93 0.93 0.93 1 @border_color 0.6 0.6 0.6 1 @label_color 0 0 0 1 @text_color 0 0 0 1 @active_color 0 0.75 1 1 @fontname "Helvetica" @fontweight "normal" @fontslant "roman" @fontsize 11 @label "(null)" @label_inner 0 @label_side "top" @label_align "left" @label_valign "top" @label_margins 0 0 @display_events 1 @display_type 1 @auto_size 0 @float_width -1 @hex 0 @hex_width 2;
#X obj 48 471 ui.display @size 224 18 @receive "(null)" @send "(null)" @nosave 0 @pinned 0 @background_color 0.93 0.93 0.93 1 @border_color 0.6 0.6 0.6 1 @label_color 0 0 0 1 @text_color 0 0 0 1 @active_color 0 0.75 1 1 @fontname "Helvetica" @fontweight "normal" @fontslant "roman" @fontsize 11 @label "(null)" @label_inner 0 @label_side "top" @label_align "left" @label_valign "top" @label_margins 0 0 @display_events 1 @display_type 1 @auto_size 0 @float_width -1 @hex 0 @hex_width 2;
#X obj 627 471 ui.display @size 223 18 @receive "(null)" @send "(null)" @nosave 0 @pinned 0 @background_color 0.93 0.93 0.93 1 @border_color 0.6 0.6 0.6 1 @label_color 0 0 0 1 @text_color 0 0 0 1 @active_color 0 0.75 1 1 @fontname "Helvetica" @fontweight "normal" @fontslant "roman" @fontsize 11 @label "(null)" @label_inner 0 @label_side "top" @label_align "left" @label_valign "top" @label_margins 0 0 @display_events 1 @display_type 1 @auto_size 0 @float_width -1 @hex 0 @hex_width 2;
#X obj 48 209 hoa.map.ui @size 225 225 @receive "(null)" @send "(null)" @nosave 0 @pinned 0 @presetname "hoamapex2" @background_color 0.93 0.93 0.93 1 @border_color 0.6 0.6 0.6 1 @label_color 0 0 0 1 @selection_color 0 0.75 1 1 @fontname "Helvetica" @fontweight "normal" @fontslant "roman" @fontsize 11 @label "(null)" @label_inner 0 @label_side "top" @label_align "left" @label_valign "top" @label_margins 0 0 @view "xy" @mapname "map3d" @outputmode "polar" @zoom 0.35;
#X obj 336 209 hoa.map.ui @size 225 225 @receive "(null)" @send "(null)" @nosave 0 @pinned 0 @presetname "hoa.map.ui.1" @background_color 0.93 0.93 0.93 1 @border_color 0.6 0.6 0.6 1 @label_color 0 0 0 1 @selection_color 0 0.75 1 1 @fontname "Helvetica" @fontweight "normal" @fontslant "roman" @fontsize 11 @label "(null)" @label_inner 0 @label_side "top" @label_align "left" @label_valign "top" @label_margins 0 0 @view "xz" @mapname "map3d" @outputmode "polar" @zoom 0.35;
#X obj 627 206 hoa.map.ui @size 225 225 @receive "(null)" @send "(null)" @nosave 0 @pinned 0 @presetname "hoa.map.ui.2" @background_color 0.93 0.93 0.93 1 @border_color 0.6 0.6 0.6 1 @label_color 0 0 0 1 @selection_color 0 0.75 1 1 @fontname "Helvetica" @fontweight "normal" @fontslant "roman" @fontsize 11 @label "(null)" @label_inner 0 @label_side "top" @label_align "left" @label_valign "top" @label_margins 0 0 @view "yz" @mapname "map3d" @outputmode "polar" @zoom 0.35;
#X msg 627 173 @view \$2;
#X msg 336 168 @view \$2;
#X msg 48 169 @view \$2;
#X obj 796 23 msg.onload load 1;
#X obj 796 43 flow.pipe 200;
#X connect 19 0 30 0;
#X connect 20 0 31 0;
#X connect 21 0 32 0;
#X connect 23 0 27 0;
#X connect 24 0 28 0;
#X connect 25 0 29 0;
#X connect 27 0 38 0;
#X connect 28 0 37 0;
#X connect 29 0 36 0;
#X connect 33 0 20 0;
#X connect 34 0 19 0;
#X connect 35 0 21 0;
#X connect 36 0 35 0;
#X connect 37 0 34 0;
#X connect 38 0 33 0;
#X connect 39 0 40 0;
#X connect 40 0 26 0;
#X restore 367 359 pd 3D;
#X text 358 99 To move source or group \, click on it and drag it. Click and drag with alt to change the radius. Click and drag with shift to change the angle. CLick and drag with ctrl to change the abscissa. Click and drag with ctrl and shift to change the ordinate.;
#X text 3 48 hoa.map allows you to spatialize several sources on a plane to control hoa.2d.map~ or hoa.3d.map. You can add and remove sources \, change coordinates \, add description and create groups., f 90;
#X text 364 343 3D Multimap;
#X text 359 171 To create source \, right-click or click with cmd on a "free" zone then select "Add source" in the popup menu. To remove source \, idem and select "Remove source".;
#N canvas 92 117 468 381 init 0;
#X obj 179 123 msg.onload @name?;
#X obj 179 145 canvas.top;
#X obj 179 167 prop-> @name;
#X obj 213 191 outlet;
#X connect 0 0 1 0;
#X connect 1 0 2 0;
#X connect 2 1 3 0;
#X restore 9 4 pd init;
#X f 5;
#X obj 33 121 msg.onload;
#X obj 464 398 msg.onload 10000;
#X obj 400 449 ui.toggle @size 15 15 @receive "(null)" @send "(null)" @nosave 0 @pinned 0 @presetname "(null)" @background_color 0.93 0.93 0.93 1 @border_color 0.6 0.6 0.6 1 @label_color 0 0 0 1 @active_color 0 0.75 1 1 @fontname "Helvetica" @fontweight "normal" @fontslant "roman" @fontsize 11 @label "(null)" @label_inner 0 @label_side "top" @label_align "left" @label_valign "top" @label_margins 0 0 @on_value 1 @off_value 0 @midi_channel 0 @midi_control -1;
#X obj 464 449 ui.number @size 53 17 @receive "(null)" @send "(null)" @nosave 0 @pinned 0 @presetname "(null)" @background_color 0.93 0.93 0.93 1 @border_color 0.6 0.6 0.6 1 @label_color 0 0 0 1 @active_color 0 0.75 1 1 @text_color 0 0 0 1 @fontname "Helvetica" @fontweight "normal" @fontslant "roman" @fontsize 11 @label "(null)" @label_inner 0 @label_side "top" @label_align "left" @label_valign "top" @label_margins 0 0 @min 1 @max 3.40282e+38 @display_only 0 @digits -1;
#X obj 529 449 ui.toggle @size 15 15 @receive "(null)" @send "(null)" @nosave 0 @pinned 0 @presetname "(null)" @background_color 0.93 0.93 0.93 1 @border_color 0.6 0.6 0.6 1 @label_color 0 0 0 1 @active_color 0 0.75 1 1 @fontname "Helvetica" @fontweight "normal" @fontslant "roman" @fontsize 11 @label "(null)" @label_inner 0 @label_side "top" @label_align "left" @label_valign "top" @label_margins 0 0 @on_value 1 @off_value 0 @midi_channel 0 @midi_control -1;
#X obj 53 591 dac~ 1 2, f 48;
#X obj 53 551 hoa.decoder~ 3 binaural, f 48;
#X obj 53 511 hoa.process~ 3 hoa.fx.freeverb~ harmonics, f 48;
#X obj 53 466 hoa.2d.optim~ 3 inphase, f 41;
#X obj 53 431 hoa.2d.map~ 3 4, f 41;
#N canvas 284 119 790 666 hoa.rhythm 0;
#X msg 431 135 0;
#X obj 358 261 *~ 0;
#X msg 411 207 0;
#X obj 404 135 + 1;
#X obj 379 136 f;
#X obj 208 261 *~ 0;
#X msg 261 207 0;
#X obj 254 135 + 1;
#X obj 229 136 f;
#X msg 281 135 0;
#X obj 229 158 sel 0 4;
#X obj 261 184 delay 3;
#X obj 88 297 *~ 0;
#X msg 141 227 0;
#X obj 134 155 + 1;
#X obj 109 156 f;
#X msg 161 155 0;
#X obj 109 178 sel 0 6;
#X obj 138 471 *~ 0;
#X msg 191 417 0;
#X obj 191 394 delay 1;
#X obj 184 345 + 1;
#X obj 159 346 f;
#X msg 211 345 0;
#X obj 159 368 sel 0 2;
#X obj 138 440 osc~ 0.05;
#X obj 88 251 phasor~ 0.1;
#X obj 141 204 delay 3;
#X obj 88 272 +~ 0.2;
#X obj 256 231 osc~ 3.7;
#X obj 411 181 delay 5;
#X obj 168 272 +~ 0.2;
#X obj 261 258 abs~;
#X obj 391 74 nbx 5 14 -1e+37 1e+37 0 0 empty empty empty 0 -8 0 10 #fcfcfc #000000 #000000 0 256;
#X obj 345 46 tgl 15 0 empty empty empty 17 7 0 10 #fcfcfc #000000 #000000 0 1;
#X obj 379 158 sel 1 3 8;
#X obj 229 102 metro 120;
#X msg 109 227 0.8;
#X msg 229 207 0.8;
#X obj 336 174 noise~;
#X obj 344 228 lop~ 200;
#X msg 379 207 4;
#X msg 159 417 0.7;
#X obj 320 345 outlet~;
#X obj 380 345 outlet~;
#X obj 380 385 outlet~;
#X obj 320 385 outlet~;
#X obj 551 194 inlet;
#X connect 0 0 4 0;
#X connect 1 0 44 0;
#X connect 2 0 1 1;
#X connect 3 0 4 1;
#X connect 4 0 3 0;
#X connect 4 0 35 0;
#X connect 5 0 43 0;
#X connect 6 0 5 1;
#X connect 7 0 8 1;
#X connect 8 0 7 0;
#X connect 8 0 10 0;
#X connect 9 0 8 0;
#X connect 10 0 38 0;
#X connect 10 0 11 0;
#X connect 10 1 9 0;
#X connect 11 0 6 0;
#X connect 12 0 46 0;
#X connect 13 0 12 1;
#X connect 14 0 15 1;
#X connect 15 0 14 0;
#X connect 15 0 17 0;
#X connect 16 0 15 0;
#X connect 17 0 37 0;
#X connect 17 0 27 0;
#X connect 17 1 16 0;
#X connect 18 0 45 0;
#X connect 19 0 18 1;
#X connect 20 0 19 0;
#X connect 21 0 22 1;
#X connect 22 0 21 0;
#X connect 22 0 24 0;
#X connect 23 0 22 0;
#X connect 24 0 42 0;
#X connect 24 0 20 0;
#X connect 24 1 23 0;
#X connect 25 0 18 0;
#X connect 26 0 28 0;
#X connect 27 0 13 0;
#X connect 28 0 12 0;
#X connect 29 0 32 0;
#X connect 30 0 2 0;
#X connect 31 0 5 0;
#X connect 32 0 31 0;
#X connect 33 0 36 1;
#X connect 34 0 36 0;
#X connect 35 0 41 0;
#X connect 35 0 30 0;
#X connect 35 1 41 0;
#X connect 35 1 30 0;
#X connect 35 2 0 0;
#X connect 36 0 4 0;
#X connect 36 0 8 0;
#X connect 36 0 15 0;
#X connect 36 0 22 0;
#X connect 37 0 12 1;
#X connect 38 0 5 1;
#X connect 39 0 40 0;
#X connect 40 0 1 0;
#X connect 41 0 1 1;
#X connect 42 0 18 1;
#X connect 47 0 34 0;
#X restore 53 399 pd hoa.rhythm;
#X f 41;
#X obj 53 376 msg.onload 1;
#X obj 400 512 ui.number @size 53 17 @receive "(null)" @send "(null)" @nosave 0 @pinned 0 @presetname "(null)" @background_color 0.93 0.93 0.93 1 @border_color 0.6 0.6 0.6 1 @label_color 0 0 0 1 @active_color 0 0.75 1 1 @text_color 0 0 0 1 @fontname "Helvetica" @fontweight "normal" @fontslant "roman" @fontsize 11 @label "(null)" @label_inner 0 @label_side "top" @label_align "left" @label_valign "top" @label_margins 0 0 @min 1 @max 3.40282e+38 @display_only 0 @digits -1;
#X obj 400 565 ui.preset @size 103 41 @receive "(null)" @send "(null)" @nosave 0 @pinned 0 @background_color 0.93 0.93 0.93 1 @border_color 0.6 0.6 0.6 1 @label_color 0 0 0 1 @text_color 0 0 0 1 @empty_color 0.86 0.86 0.86 1 @stored_color 0.5 0.5 0.5 1 @active_color 0 0.75 1 1 @fontname "Helvetica" @fontweight "normal" @fontslant "roman" @fontsize 11 @label "(null)" @label_inner 0 @label_side "top" @label_align "left" @label_valign "top" @label_margins 0 0;
#X obj 547 531 ui.dsp~ @size 30 30 @receive "(null)" @send "(null)" @nosave 0 @pinned 0 @background_color 0.93 0.93 0.93 1 @border_color 0.6 0.6 0.6 1 @label_color 0 0 0 1 @active_color 0 0.75 1 1 @fontname "Helvetica" @fontweight "normal" @fontslant "roman" @fontsize 11 @label "(null)" @label_inner 0 @label_side "top" @label_align "left" @label_valign "top" @label_margins 0 0;
#X obj 33 145 hoa.map.ui @size 225 225 @receive "(null)" @send "(null)" @nosave 0 @pinned 0 @presetname "hoamapexample" @background_color 0.93 0.93 0.93 1 @border_color 0.6 0.6 0.6 1 @label_color 0 0 0 1 @selection_color 0 0.75 1 1 @fontname "Helvetica" @fontweight "normal" @fontslant "roman" @fontsize 11 @label "(null)" @label_inner 0 @label_side "top" @label_align "left" @label_valign "top" @label_margins 0 0 @view "xy" @mapname "(null)" @outputmode "polar" @zoom 0.5;
#X msg 400 540 interp \$1;
#X connect 5 0 32 0;
#X connect 19 0 11 0;
#X connect 20 0 35 0;
#X connect 21 0 23 0;
#X connect 22 0 5 0;
#X connect 23 0 5 1;
#X connect 24 0 5 2;
#X connect 26 0 25 0;
#X connect 26 1 25 1;
#X connect 27 0 26 0;
#X connect 27 1 26 1;
#X connect 27 2 26 2;
#X connect 27 3 26 3;
#X connect 27 4 26 4;
#X connect 27 5 26 5;
#X connect 27 6 26 6;
#X connect 28 0 27 0;
#X connect 28 1 27 1;
#X connect 28 2 27 2;
#X connect 28 3 27 3;
#X connect 28 4 27 4;
#X connect 28 5 27 5;
#X connect 28 6 27 6;
#X connect 29 0 28 0;
#X connect 29 1 28 1;
#X connect 29 2 28 2;
#X connect 29 3 28 3;
#X connect 29 4 28 4;
#X connect 29 5 28 5;
#X connect 29 6 28 6;
#X connect 30 0 29 0;
#X connect 30 1 29 1;
#X connect 30 2 29 2;
#X connect 30 3 29 3;
#X connect 31 0 30 0;
#X connect 32 0 36 0;
#X connect 35 0 29 0;
#X connect 36 0 33 0;
#X coords 0 712 1 711 85 60 0;
