#N canvas 995 439 690 585 10;
#X obj 7 11 hoa.help.header;
#X obj 6 527 hoa.help.pub;
#X obj 421 11 hoa.help.also;
#X text 10 60 hoa.2d.exchanger~ renumbers and normalizes the channels.;
#X obj 372 61 sig~ 1;
#X text 10 185 Numbering :, f 46;
#X text 10 195 toFurseMalham, f 46;
#X text 10 205 fromFurseMalham, f 46;
#X text 10 225 Normaliaztion :, f 46;
#X text 10 235 toMaxN, f 46;
#X text 10 245 fromMaxN, f 46;
#X text 10 266 The standards :, f 46;
#X text 10 275 toBFormat (aka. toFurseMalham & toMaxN), f 46;
#X text 10 285 fromBFormat (aka. fromFurseMalham & fromMaxN);
#X text 2 485 For further informations : http://en.wikipedia.org/wiki/Ambisonic_data_exchange_formats#N3D;
#X text 10 85 By default \, there is no normalization and the numbering is ACN (cf tutorials). The exchangers will always convert from or to the standard.;
#X text 10 145 The exchanger can take one or two arguments for the numbering and the normalization.;
#X obj 372 84 hoa.2d.encoder~ 3, f 43;
#X obj 149 441 ui.dsp~ @size 30 30 @receive "(null)" @send "(null)" @nosave 0 @pinned 0 @background_color 0.93 0.93 0.93 1 @border_color 0.6 0.6 0.6 1 @label_color 0 0 0 1 @active_color 0 0.75 1 1 @fontname "Helvetica" @fontweight "normal" @fontslant "roman" @fontsize 11 @label "(null)" @label_inner 0 @label_side "top" @label_align "left" @label_valign "top" @label_margins 0 0;
#X obj 372 401 ui.number~ @size 45 15 @receive "(null)" @send "(null)" @nosave 0 @pinned 0 @background_color 0.3 0.3 0.3 1 @border_color 0 0 0 1 @label_color 0 0 0 1 @text_color 0.9 0.9 0.9 1 @active_color 0 0.75 1 1 @fontname "Helvetica" @fontweight "normal" @fontslant "roman" @fontsize 11 @label "(null)" @label_inner 0 @label_side "top" @label_align "left" @label_valign "top" @label_margins 0 0 @precision 6 @interval 50;
#X obj 414 426 ui.number~ @size 45 15 @receive "(null)" @send "(null)" @nosave 0 @pinned 0 @background_color 0.3 0.3 0.3 1 @border_color 0 0 0 1 @label_color 0 0 0 1 @text_color 0.9 0.9 0.9 1 @active_color 0 0.75 1 1 @fontname "Helvetica" @fontweight "normal" @fontslant "roman" @fontsize 11 @label "(null)" @label_inner 0 @label_side "top" @label_align "left" @label_valign "top" @label_margins 0 0 @precision 6 @interval 50;
#X obj 457 401 ui.number~ @size 45 15 @receive "(null)" @send "(null)" @nosave 0 @pinned 0 @background_color 0.3 0.3 0.3 1 @border_color 0 0 0 1 @label_color 0 0 0 1 @text_color 0.9 0.9 0.9 1 @active_color 0 0.75 1 1 @fontname "Helvetica" @fontweight "normal" @fontslant "roman" @fontsize 11 @label "(null)" @label_inner 0 @label_side "top" @label_align "left" @label_valign "top" @label_margins 0 0 @precision 6 @interval 50;
#X obj 542 401 ui.number~ @size 45 15 @receive "(null)" @send "(null)" @nosave 0 @pinned 0 @background_color 0.3 0.3 0.3 1 @border_color 0 0 0 1 @label_color 0 0 0 1 @text_color 0.9 0.9 0.9 1 @active_color 0 0.75 1 1 @fontname "Helvetica" @fontweight "normal" @fontslant "roman" @fontsize 11 @label "(null)" @label_inner 0 @label_side "top" @label_align "left" @label_valign "top" @label_margins 0 0 @precision 6 @interval 50;
#X obj 499 426 ui.number~ @size 45 15 @receive "(null)" @send "(null)" @nosave 0 @pinned 0 @background_color 0.3 0.3 0.3 1 @border_color 0 0 0 1 @label_color 0 0 0 1 @text_color 0.9 0.9 0.9 1 @active_color 0 0.75 1 1 @fontname "Helvetica" @fontweight "normal" @fontslant "roman" @fontsize 11 @label "(null)" @label_inner 0 @label_side "top" @label_align "left" @label_valign "top" @label_margins 0 0 @precision 6 @interval 50;
#X obj 627 401 ui.number~ @size 45 15 @receive "(null)" @send "(null)" @nosave 0 @pinned 0 @background_color 0.3 0.3 0.3 1 @border_color 0 0 0 1 @label_color 0 0 0 1 @text_color 0.9 0.9 0.9 1 @active_color 0 0.75 1 1 @fontname "Helvetica" @fontweight "normal" @fontslant "roman" @fontsize 11 @label "(null)" @label_inner 0 @label_side "top" @label_align "left" @label_valign "top" @label_margins 0 0 @precision 6 @interval 50;
#X obj 584 426 ui.number~ @size 45 15 @receive "(null)" @send "(null)" @nosave 0 @pinned 0 @background_color 0.3 0.3 0.3 1 @border_color 0 0 0 1 @label_color 0 0 0 1 @text_color 0.9 0.9 0.9 1 @active_color 0 0.75 1 1 @fontname "Helvetica" @fontweight "normal" @fontslant "roman" @fontsize 11 @label "(null)" @label_inner 0 @label_side "top" @label_align "left" @label_valign "top" @label_margins 0 0 @precision 6 @interval 50;
#X obj 372 261 ui.number~ @size 45 15 @receive "(null)" @send "(null)" @nosave 0 @pinned 0 @background_color 0.3 0.3 0.3 1 @border_color 0 0 0 1 @label_color 0 0 0 1 @text_color 0.9 0.9 0.9 1 @active_color 0 0.75 1 1 @fontname "Helvetica" @fontweight "normal" @fontslant "roman" @fontsize 11 @label "(null)" @label_inner 0 @label_side "top" @label_align "left" @label_valign "top" @label_margins 0 0 @precision 6 @interval 50;
#X obj 414 286 ui.number~ @size 45 15 @receive "(null)" @send "(null)" @nosave 0 @pinned 0 @background_color 0.3 0.3 0.3 1 @border_color 0 0 0 1 @label_color 0 0 0 1 @text_color 0.9 0.9 0.9 1 @active_color 0 0.75 1 1 @fontname "Helvetica" @fontweight "normal" @fontslant "roman" @fontsize 11 @label "(null)" @label_inner 0 @label_side "top" @label_align "left" @label_valign "top" @label_margins 0 0 @precision 6 @interval 50;
#X obj 457 261 ui.number~ @size 45 15 @receive "(null)" @send "(null)" @nosave 0 @pinned 0 @background_color 0.3 0.3 0.3 1 @border_color 0 0 0 1 @label_color 0 0 0 1 @text_color 0.9 0.9 0.9 1 @active_color 0 0.75 1 1 @fontname "Helvetica" @fontweight "normal" @fontslant "roman" @fontsize 11 @label "(null)" @label_inner 0 @label_side "top" @label_align "left" @label_valign "top" @label_margins 0 0 @precision 6 @interval 50;
#X obj 499 286 ui.number~ @size 45 15 @receive "(null)" @send "(null)" @nosave 0 @pinned 0 @background_color 0.3 0.3 0.3 1 @border_color 0 0 0 1 @label_color 0 0 0 1 @text_color 0.9 0.9 0.9 1 @active_color 0 0.75 1 1 @fontname "Helvetica" @fontweight "normal" @fontslant "roman" @fontsize 11 @label "(null)" @label_inner 0 @label_side "top" @label_align "left" @label_valign "top" @label_margins 0 0 @precision 6 @interval 50;
#X obj 542 261 ui.number~ @size 45 15 @receive "(null)" @send "(null)" @nosave 0 @pinned 0 @background_color 0.3 0.3 0.3 1 @border_color 0 0 0 1 @label_color 0 0 0 1 @text_color 0.9 0.9 0.9 1 @active_color 0 0.75 1 1 @fontname "Helvetica" @fontweight "normal" @fontslant "roman" @fontsize 11 @label "(null)" @label_inner 0 @label_side "top" @label_align "left" @label_valign "top" @label_margins 0 0 @precision 6 @interval 50;
#X obj 584 286 ui.number~ @size 45 15 @receive "(null)" @send "(null)" @nosave 0 @pinned 0 @background_color 0.3 0.3 0.3 1 @border_color 0 0 0 1 @label_color 0 0 0 1 @text_color 0.9 0.9 0.9 1 @active_color 0 0.75 1 1 @fontname "Helvetica" @fontweight "normal" @fontslant "roman" @fontsize 11 @label "(null)" @label_inner 0 @label_side "top" @label_align "left" @label_valign "top" @label_margins 0 0 @precision 6 @interval 50;
#X obj 627 261 ui.number~ @size 45 15 @receive "(null)" @send "(null)" @nosave 0 @pinned 0 @background_color 0.3 0.3 0.3 1 @border_color 0 0 0 1 @label_color 0 0 0 1 @text_color 0.9 0.9 0.9 1 @active_color 0 0.75 1 1 @fontname "Helvetica" @fontweight "normal" @fontslant "roman" @fontsize 11 @label "(null)" @label_inner 0 @label_side "top" @label_align "left" @label_valign "top" @label_margins 0 0 @precision 6 @interval 50;
#X obj 372 131 ui.number~ @size 45 15 @receive "(null)" @send "(null)" @nosave 0 @pinned 0 @background_color 0.3 0.3 0.3 1 @border_color 0 0 0 1 @label_color 0 0 0 1 @text_color 0.9 0.9 0.9 1 @active_color 0 0.75 1 1 @fontname "Helvetica" @fontweight "normal" @fontslant "roman" @fontsize 11 @label "(null)" @label_inner 0 @label_side "top" @label_align "left" @label_valign "top" @label_margins 0 0 @precision 6 @interval 50;
#X obj 414 156 ui.number~ @size 45 15 @receive "(null)" @send "(null)" @nosave 0 @pinned 0 @background_color 0.3 0.3 0.3 1 @border_color 0 0 0 1 @label_color 0 0 0 1 @text_color 0.9 0.9 0.9 1 @active_color 0 0.75 1 1 @fontname "Helvetica" @fontweight "normal" @fontslant "roman" @fontsize 11 @label "(null)" @label_inner 0 @label_side "top" @label_align "left" @label_valign "top" @label_margins 0 0 @precision 6 @interval 50;
#X obj 457 131 ui.number~ @size 45 15 @receive "(null)" @send "(null)" @nosave 0 @pinned 0 @background_color 0.3 0.3 0.3 1 @border_color 0 0 0 1 @label_color 0 0 0 1 @text_color 0.9 0.9 0.9 1 @active_color 0 0.75 1 1 @fontname "Helvetica" @fontweight "normal" @fontslant "roman" @fontsize 11 @label "(null)" @label_inner 0 @label_side "top" @label_align "left" @label_valign "top" @label_margins 0 0 @precision 6 @interval 50;
#X obj 499 156 ui.number~ @size 45 15 @receive "(null)" @send "(null)" @nosave 0 @pinned 0 @background_color 0.3 0.3 0.3 1 @border_color 0 0 0 1 @label_color 0 0 0 1 @text_color 0.9 0.9 0.9 1 @active_color 0 0.75 1 1 @fontname "Helvetica" @fontweight "normal" @fontslant "roman" @fontsize 11 @label "(null)" @label_inner 0 @label_side "top" @label_align "left" @label_valign "top" @label_margins 0 0 @precision 6 @interval 50;
#X obj 542 131 ui.number~ @size 45 15 @receive "(null)" @send "(null)" @nosave 0 @pinned 0 @background_color 0.3 0.3 0.3 1 @border_color 0 0 0 1 @label_color 0 0 0 1 @text_color 0.9 0.9 0.9 1 @active_color 0 0.75 1 1 @fontname "Helvetica" @fontweight "normal" @fontslant "roman" @fontsize 11 @label "(null)" @label_inner 0 @label_side "top" @label_align "left" @label_valign "top" @label_margins 0 0 @precision 6 @interval 50;
#X obj 584 156 ui.number~ @size 45 15 @receive "(null)" @send "(null)" @nosave 0 @pinned 0 @background_color 0.3 0.3 0.3 1 @border_color 0 0 0 1 @label_color 0 0 0 1 @text_color 0.9 0.9 0.9 1 @active_color 0 0.75 1 1 @fontname "Helvetica" @fontweight "normal" @fontslant "roman" @fontsize 11 @label "(null)" @label_inner 0 @label_side "top" @label_align "left" @label_valign "top" @label_margins 0 0 @precision 6 @interval 50;
#X obj 627 131 ui.number~ @size 45 15 @receive "(null)" @send "(null)" @nosave 0 @pinned 0 @background_color 0.3 0.3 0.3 1 @border_color 0 0 0 1 @label_color 0 0 0 1 @text_color 0.9 0.9 0.9 1 @active_color 0 0.75 1 1 @fontname "Helvetica" @fontweight "normal" @fontslant "roman" @fontsize 11 @label "(null)" @label_inner 0 @label_side "top" @label_align "left" @label_valign "top" @label_margins 0 0 @precision 6 @interval 50;
#X obj 372 214 hoa.2d.exchanger~ 3 @toB, f 43;
#X obj 372 354 hoa.2d.exchanger~ 3 @fromB, f 43;
#N canvas 92 117 350 288 init 0;
#X obj 130 77 msg.onload @name?;
#X obj 130 99 canvas.top;
#X obj 130 121 prop-> @name;
#X obj 164 146 outlet;
#X connect 0 0 1 0;
#X connect 1 0 2 0;
#X connect 2 1 3 0;
#X restore 8 11 pd init;
#X f 5;
#X connect 4 0 17 0;
#X connect 17 0 33 0;
#X connect 17 0 40 0;
#X connect 17 1 34 0;
#X connect 17 1 40 1;
#X connect 17 2 35 0;
#X connect 17 2 40 2;
#X connect 17 3 36 0;
#X connect 17 3 40 3;
#X connect 17 4 37 0;
#X connect 17 4 40 4;
#X connect 17 5 38 0;
#X connect 17 5 40 5;
#X connect 17 6 39 0;
#X connect 17 6 40 6;
#X connect 40 0 26 0;
#X connect 40 0 41 0;
#X connect 40 1 27 0;
#X connect 40 1 41 1;
#X connect 40 2 28 0;
#X connect 40 2 41 2;
#X connect 40 3 29 0;
#X connect 40 3 41 3;
#X connect 40 4 30 0;
#X connect 40 4 41 4;
#X connect 40 5 31 0;
#X connect 40 5 41 5;
#X connect 40 6 32 0;
#X connect 40 6 41 6;
#X connect 41 0 19 0;
#X connect 41 1 20 0;
#X connect 41 2 21 0;
#X connect 41 3 23 0;
#X connect 41 4 22 0;
#X connect 41 5 25 0;
#X connect 41 6 24 0;
#X connect 42 0 0 0;
#X coords 0 585 1 584 100 60 0;
