#N canvas 1616 73 776 537 10;
#X obj 88 414 hoa.out~;
#X text 62 306 Receive the signal;
#X text 64 436 Output the signal;
#X text 318 109 Input messages selector;
#X obj 88 372 *~;
#X obj 189 354 osc~ 1;
#X obj 189 332 line~;
#X msg 189 310 \$1 20;
#X text 317 64 Extra 1 Receive the inlet messages.;
#X text 240 354 Simple ring modulation;
#X obj 189 229 *;
#X text 52 203 factor;
#X text 48 193 instance;
#X obj 49 173 nbx 5 14 -1e+37 1e+37 0 0 empty empty empty 0 -8 0 10 #fcfcfc #000000 #000000 0 256;
#X text 324 226 float : The value \, that control the frequency of the ring modulation \, is multiplied by a factor depending on the intance. The factor is 1 for the highest harmonic and decreases toward 0 for the lower harmonics.;
#X text 233 18 This hoa.processing synthesizes a sound field with ring modulation.;
#X obj 256 310 random 1000;
#X obj 256 333 / 1000;
#X obj 88 328 hoa.in~ 1;
#X obj 256 286 loadbang;
#X obj 7 10 switch~;
#X obj 6 38 msg.onload @total? @index?;
#X obj 6 65 hoa.@process;
#X obj 6 87 prop-> @index @total, f 22;
#X obj 49 131 expr 1-($f1/$f2);
#X obj 197 191 t b f;
#X obj 189 69 hoa.in;
#X obj 412 353 prop.declare freq @min 0 @max 5000 @default 100;
#X obj 189 110 route float @freq;
#X obj 238 227 prop @freq;
#X obj 189 251 f;
#X floatatom 199 273 5 0 0 0 - - - 0;
#X connect 4 0 0 0;
#X connect 5 0 4 1;
#X connect 6 0 5 0;
#X connect 7 0 6 0;
#X connect 10 0 30 0;
#X connect 16 0 17 0;
#X connect 17 0 5 1;
#X connect 18 0 4 0;
#X connect 19 0 16 0;
#X connect 21 0 22 0;
#X connect 22 0 23 0;
#X connect 23 1 24 0;
#X connect 23 2 24 1;
#X connect 24 0 13 0;
#X connect 24 0 25 0;
#X connect 25 0 10 0;
#X connect 25 1 10 1;
#X connect 26 0 28 0;
#X connect 28 0 10 0;
#X connect 28 1 29 0;
#X connect 29 0 30 0;
#X connect 30 0 7 0;
#X connect 30 0 31 0;
