#N canvas 487 167 741 618 10;
#X obj 280 383 hoa.in~;
#X obj 280 526 hoa.out~;
#X obj 319 469 *~;
#X obj 280 470 *~;
#X obj 295 355 line~;
#X obj 295 328 pack 0 20;
#X obj 334 305 line~;
#X obj 334 278 pack 0 20;
#X text 273 8 This hoa.processing applies reveberation on a sound field
with the freeverb.;
#X obj 295 91 hoa.in 1;
#X msg 412 370 @damp \$1;
#X obj 13 76 hoa.@process;
#X obj 13 98 prop-> @index @total;
#X obj 52 192 + 1;
#X obj 52 214 /;
#X obj 106 206 expr 1-($f1/$f2);
#X floatatom 106 228 5 0 0 0 - - -;
#X floatatom 52 236 5 0 0 0 - - -;
#X msg 373 340 @room \$1;
#X obj 295 132 route @wet @dry @room @damp @diff;
#X obj 295 154 prop @wet;
#X obj 334 182 prop @dry;
#X obj 280 435 fx.freeverb~ @drywet 1;
#X obj 451 171 prop @diff;
#X obj 388 223 expr (1-$f1)+($f1*$f2);
#X obj 373 244 *';
#X obj 427 283 expr (1-$f1)+($f1*$f2);
#X obj 412 304 *';
#X floatatom 103 148 5 0 0 0 - - -;
#X obj 13 54 msg.onload @total? @index?;
#X floatatom 257 171 5 0 0 0 - - -;
#X floatatom 302 199 5 0 0 0 - - -;
#X obj 423 456 prop.declare dry @min 0 @max 1 @default 0;
#X obj 423 479 prop.declare wet @min 0 @max 1 @default 1;
#X obj 423 502 prop.declare diff @min 0 @max 1 @default 0;
#X floatatom 419 188 5 0 0 0 - - -;
#X floatatom 442 321 5 0 0 0 - - -;
#X floatatom 403 261 5 0 0 0 - - -;
#X connect 0 0 2 0;
#X connect 0 0 22 0;
#X connect 2 0 1 0;
#X connect 3 0 1 0;
#X connect 4 0 3 1;
#X connect 5 0 4 0;
#X connect 6 0 2 1;
#X connect 7 0 6 0;
#X connect 9 0 19 0;
#X connect 10 0 22 0;
#X connect 11 0 12 0;
#X connect 12 1 13 0;
#X connect 12 1 15 0;
#X connect 12 2 14 1;
#X connect 12 2 15 1;
#X connect 12 2 28 0;
#X connect 13 0 14 0;
#X connect 14 0 17 0;
#X connect 14 0 26 1;
#X connect 15 0 16 0;
#X connect 15 0 24 1;
#X connect 18 0 22 0;
#X connect 19 0 20 0;
#X connect 19 1 21 0;
#X connect 19 2 25 0;
#X connect 19 3 27 0;
#X connect 19 4 23 0;
#X connect 20 0 5 0;
#X connect 20 0 30 0;
#X connect 21 0 7 0;
#X connect 21 0 31 0;
#X connect 22 0 3 0;
#X connect 23 0 24 0;
#X connect 23 0 26 0;
#X connect 23 0 35 0;
#X connect 24 0 25 1;
#X connect 25 0 18 0;
#X connect 25 0 37 0;
#X connect 26 0 27 1;
#X connect 27 0 10 0;
#X connect 27 0 36 0;
#X connect 29 0 11 0;
