#N canvas 983 477 552 433 10;
#X obj 39 306 hoa.out~;
#X obj 39 162 hoa.in~;
#X obj 66 130 abs;
#X obj 39 284 *~ 1;
#X obj 235 146 t f f;
#X obj 208 96 t f f;
#X text 285 39 Clip the widen value;
#X text 285 49 between 0 and 1;
#X text 252 70 Compute a(x) :;
#N canvas 65 107 450 300 widening 0;
#X obj 131 127 clip 0 1;
#X obj 131 84 t f b b;
#X msg 176 105 1, f 2;
#X msg 153 106 0, f 2;
#X obj 131 62 inlet;
#X obj 131 148 outlet;
#X connect 0 0 5 0;
#X connect 1 0 0 0;
#X connect 1 1 3 0;
#X connect 1 2 2 0;
#X connect 2 0 0 2;
#X connect 3 0 0 1;
#X connect 4 0 1 0;
#X restore 208 43 pd widening;
#N canvas 65 107 450 300 a_x 0;
#X obj 166 61 inlet;
#X obj 166 194 outlet;
#X msg 166 107 1;
#X obj 166 83 t b f b;
#X obj 166 173 *;
#X obj 166 130 -;
#X obj 181 151 math.pi;
#X connect 0 0 3 0;
#X connect 2 0 5 0;
#X connect 3 0 2 0;
#X connect 3 1 5 1;
#X connect 3 2 6 0;
#X connect 4 0 1 0;
#X connect 5 0 4 0;
#X connect 6 0 4 1;
#X restore 208 75 pd a_x;
#N canvas 65 102 450 300 b_x 1;
#X obj 149 73 inlet;
#X obj 149 226 outlet;
#X obj 149 140 -;
#X obj 149 95 t f b;
#X obj 149 162 sin;
#X obj 149 184 + 1;
#X obj 149 205 * 0.5;
#X obj 164 118 math.pi 0.5;
#X connect 0 0 3 0;
#X connect 2 0 4 0;
#X connect 3 0 2 0;
#X connect 3 1 7 0;
#X connect 4 0 5 0;
#X connect 5 0 6 0;
#X connect 6 0 1 0;
#X connect 7 0 2 1;
#X restore 235 125 pd b_x;
#X text 277 120 Compute b(x) :;
#X text 252 80 (1 - x) * π;
#X text 277 130 (sin(a(x) - π / 2) + 1) * 0.5;
#X obj 60 263 *;
#N canvas 151 185 450 300 g_1 0;
#X obj 74 34 inlet;
#X text 126 56 decomposition order;
#X obj 89 55 inlet;
#X obj 104 77 inlet;
#X text 140 78 harmonic degree;
#X obj 89 124 -;
#X obj 74 146 *;
#X obj 74 167 + 1;
#X obj 74 218 outlet;
#X msg 158 167 1;
#X obj 203 167 == 1;
#X obj 158 144 t b f;
#X obj 158 189 spigot 0;
#X obj 74 188 spigot 0;
#X obj 119 167 != 1;
#X obj 104 98 t f f;
#X text 71 16 b(x);
#X connect 0 0 6 0;
#X connect 2 0 5 0;
#X connect 3 0 15 0;
#X connect 5 0 6 1;
#X connect 6 0 7 0;
#X connect 7 0 13 0;
#X connect 9 0 12 0;
#X connect 10 0 12 1;
#X connect 11 0 9 0;
#X connect 11 1 10 0;
#X connect 12 0 8 0;
#X connect 13 0 8 0;
#X connect 14 0 13 1;
#X connect 15 0 5 1;
#X connect 15 1 11 0;
#X connect 15 1 14 0;
#X restore 75 241 pd g_1;
#N canvas 163 191 456 397 g_2 0;
#X obj 50 26 inlet;
#X obj 50 157 clip 0 1;
#X msg 72 135 0, f 2;
#X obj 50 111 t f b b;
#X obj 50 90 *;
#X obj 65 46 inlet;
#X text 100 48 harmonic degree;
#X obj 50 179 cos;
#X obj 50 201 + 1;
#X obj 50 222 * 0.5;
#X obj 50 275 spigot 0;
#X obj 138 277 spigot 0;
#X obj 50 310 outlet;
#X obj 183 255 == 1;
#X obj 138 255 *;
#X obj 153 234 -;
#X obj 153 124 inlet;
#X obj 65 68 t f f;
#X obj 93 254 != 1;
#X obj 153 191 *;
#X obj 168 168 inlet;
#X text 203 169 decomposition order;
#X obj 153 212 + 1;
#X obj 153 146 t f f;
#X text 87 28 a(x);
#X text 189 124 b(x);
#X obj 95 135 math.pi 1;
#X connect 0 0 4 0;
#X connect 1 0 7 0;
#X connect 2 0 1 1;
#X connect 3 0 1 0;
#X connect 3 1 2 0;
#X connect 3 2 26 0;
#X connect 4 0 3 0;
#X connect 5 0 17 0;
#X connect 7 0 8 0;
#X connect 8 0 9 0;
#X connect 9 0 10 0;
#X connect 9 0 14 0;
#X connect 10 0 12 0;
#X connect 11 0 12 0;
#X connect 13 0 11 1;
#X connect 14 0 11 0;
#X connect 15 0 14 1;
#X connect 16 0 23 0;
#X connect 17 0 4 1;
#X connect 17 1 13 0;
#X connect 17 1 18 0;
#X connect 18 0 10 1;
#X connect 19 0 22 0;
#X connect 20 0 19 1;
#X connect 22 0 15 0;
#X connect 23 0 19 0;
#X connect 23 1 15 1;
#X connect 26 0 1 2;
#X restore 60 216 pd g_2;
#X text 116 242 Compute the first part of g(x);
#X text 101 217 Compute the second part of g(x);
#X obj 10 10 switch~;
#X obj 208 14 hoa.in 1;
#X obj 9 44 msg.onload;
#X obj 9 66 hoa.@process;
#X obj 9 89 unpack f f f;
#X floatatom 82 285 5 0 0 0 - - - 0;
#X connect 1 0 3 0;
#X connect 2 0 16 2;
#X connect 2 0 17 1;
#X connect 3 0 0 0;
#X connect 4 0 16 0;
#X connect 4 1 17 2;
#X connect 5 0 17 0;
#X connect 5 1 11 0;
#X connect 9 0 10 0;
#X connect 10 0 5 0;
#X connect 11 0 4 0;
#X connect 15 0 3 1;
#X connect 15 0 25 0;
#X connect 16 0 15 1;
#X connect 17 0 15 0;
#X connect 21 0 9 0;
#X connect 22 0 23 0;
#X connect 23 0 24 0;
#X connect 24 0 16 1;
#X connect 24 0 17 3;
#X connect 24 2 2 0;
