#N canvas 604 157 758 685 10;
#X obj 2 27 c.patcherinfos;
#X obj 2 10 loadbang;
#X obj 2 10 hoa.help.header;
#X obj 67 622 hoa.help.pub;
#X obj 418 10 hoa.help.also;
#X text 7 54 hoa.fx.convolve~ use the HiFi-Lofi convolution reverberation;
#X obj 272 101 phasor~ 0.1;
#X obj 113 101 phasor~ 1;
#X obj 471 565 table \$0-ir;
#X obj 471 542 soundfiler;
#X obj 471 398 openpanel;
#X obj 471 459 pack s s;
#X obj 471 418 t s b;
#X msg 471 481 read -resize \$1 \$2;
#X obj 516 437 symbol \$0-ir;
#X text 503 375 load an ir;
#X obj 517 186 symbol \$0-ir;
#X text 312 293 Attrs : wet \, dry and normalization;
#X text 312 281 Arg : table name;
#X text 408 78 For the moment \, the convolution is not optimized enough.;
#X text 408 88 You shouldn't use big irs or and high orders.;
#X text 408 98 The process patch is very simple but you can use;
#X text 408 108 a different ir for each harmonics to decorrelate them.;
#X text 408 118 You can also use it in the planewave domain.;
#X msg 627 214 target \$1;
#X msg 517 209 set \$1;
#X obj 113 130 ui.gain~ @size 120 15 @receive "(null)" @send "(null)" @nosave 0 @pinned 0 @presetname "ui.hgain~.0" @mouse_events 0 @background_color 0.93 0.93 0.93 1 @border_color 0.6 0.6 0.6 1 @label_color 0 0 0 1 @knob_color 0 0.75 1 1 @fontname "Helvetica" @fontweight "normal" @fontslant "roman" @fontsize 11 @label "(null)" @label_inner 0 @label_side "top" @label_align "left" @label_valign "top" @label_margins 0 0 @max 0 @min -60 @output_value 0 @relative 1 @midi_channel 0 @midi_control 0 @midi_pickup 0 @show_range 1;
#X obj 272 123 phase->rad~;
#X obj 113 275 hoa.process~ 3 hoa.fx.convolve~ harmonics \$0-ir "@wet" 1 "@dry" 0, f 30;
#X obj 113 331 hoa.scope~ @size 184 184 @receive "(null)" @send "(null)" @nosave 0 @pinned 0 @background_color 0.93 0.93 0.93 1 @border_color 0.6 0.6 0.6 1 @label_color 0 0 0 1 @ph_color 1 0 0 1 @nh_color 0 0 1 1 @fontname "Helvetica" @fontweight "normal" @fontslant "roman" @fontsize 11 @label "(null)" @label_inner 0 @label_side "top" @label_align "left" @label_valign "top" @label_margins 0 0 @gain 1 @refresh 100 @order 3 @view 0;
#X obj 338 164 msg.onload 0;
#X obj 428 164 msg.onload 1;
#X obj 338 186 ui.number @size 53 15 @receive "(null)" @send "(null)" @nosave 0 @pinned 0 @presetname "(null)" @background_color 0.93 0.93 0.93 1 @border_color 0.6 0.6 0.6 1 @label_color 0 0 0 1 @active_color 0 0.75 1 1 @text_color 0 0 0 1 @fontname "Helvetica" @fontweight "normal" @fontslant "roman" @fontsize 13 @label "(null)" @label_inner 0 @label_side "top" @label_align "left" @label_valign "top" @label_margins 0 0 @min -3.40282e+38 @max 3.40282e+38 @display_only 0 @digits -1;
#X obj 428 186 ui.number @size 53 15 @receive "(null)" @send "(null)" @nosave 0 @pinned 0 @presetname "(null)" @background_color 0.93 0.93 0.93 1 @border_color 0.6 0.6 0.6 1 @label_color 0 0 0 1 @active_color 0 0.75 1 1 @text_color 0 0 0 1 @fontname "Helvetica" @fontweight "normal" @fontslant "roman" @fontsize 13 @label "(null)" @label_inner 0 @label_side "top" @label_align "left" @label_valign "top" @label_margins 0 0 @min -3.40282e+38 @max 3.40282e+38 @display_only 0 @digits -1;
#X obj 113 539 hoa.2d.decoder~ 3 regular 8, f 30;
#X obj 450 511 msg.onload read -resize Cistern.wav \$0-ir;
#X obj 471 367 ui.bang @size 15 15 @receive "(null)" @send "(null)" @nosave 0 @pinned 0 @background_color 0.93 0.93 0.93 1 @border_color 0.6 0.6 0.6 1 @label_color 0 0 0 1 @active_color 0 0.75 1 1 @fontname "Helvetica" @fontweight "normal" @fontslant "roman" @fontsize 11 @label "(null)" @label_inner 0 @label_side "top" @label_align "left" @label_valign "top" @label_margins 0 0;
#X obj 517 164 ui.bang @size 15 15 @receive "(null)" @send "(null)" @nosave 0 @pinned 0 @background_color 0.93 0.93 0.93 1 @border_color 0.6 0.6 0.6 1 @label_color 0 0 0 1 @active_color 0 0.75 1 1 @fontname "Helvetica" @fontweight "normal" @fontslant "roman" @fontsize 11 @label "(null)" @label_inner 0 @label_side "top" @label_align "left" @label_valign "top" @label_margins 0 0;
#X obj 627 163 ui.menu @size 100 16 @receive "(null)" @send "(null)" @nosave 0 @pinned 0 @presetname "(null)" @background_color 0.93 0.93 0.93 1 @border_color 0.6 0.6 0.6 1 @label_color 0 0 0 1 @text_color 0 0 0 1 @active_color 0 0.75 1 1 @fontname "Helvetica" @fontweight "normal" @fontslant "roman" @fontsize 11 @label "(null)" @label_inner 0 @label_side "top" @label_align "left" @label_valign "top" @label_margins 0 0 @items "all" -1 1 -2 2 -3 3 @max_length 100;
#X msg 338 209 @dry \$1;
#X msg 428 209 @wet \$1;
#X obj 113 571 xdac~ 1:8, f 30;
#X obj 113 158 hoa.2d.encoder~ 3, f 25;
#X connect 0 0 2 0;
#X connect 1 0 0 0;
#X connect 6 0 27 0;
#X connect 7 0 26 0;
#X connect 10 0 12 0;
#X connect 11 0 13 0;
#X connect 12 0 11 0;
#X connect 12 1 14 0;
#X connect 13 0 9 0;
#X connect 14 0 11 1;
#X connect 16 0 25 0;
#X connect 24 0 28 7;
#X connect 25 0 28 7;
#X connect 26 0 42 0;
#X connect 27 0 42 1;
#X connect 28 0 29 0;
#X connect 28 0 34 0;
#X connect 28 1 29 1;
#X connect 28 1 34 1;
#X connect 28 2 29 2;
#X connect 28 2 34 2;
#X connect 28 3 29 3;
#X connect 28 3 34 3;
#X connect 28 4 29 4;
#X connect 28 4 34 4;
#X connect 28 5 29 5;
#X connect 28 5 34 5;
#X connect 28 6 29 6;
#X connect 28 6 34 6;
#X connect 30 0 32 0;
#X connect 31 0 33 0;
#X connect 32 0 39 0;
#X connect 33 0 40 0;
#X connect 34 0 41 0;
#X connect 34 1 41 1;
#X connect 34 2 41 2;
#X connect 34 3 41 3;
#X connect 34 4 41 4;
#X connect 34 5 41 5;
#X connect 34 6 41 6;
#X connect 34 7 41 7;
#X connect 35 0 9 0;
#X connect 36 0 10 0;
#X connect 37 0 16 0;
#X connect 38 0 24 0;
#X connect 39 0 28 7;
#X connect 40 0 28 7;
#X connect 42 0 28 0;
#X connect 42 1 28 1;
#X connect 42 2 28 2;
#X connect 42 3 28 3;
#X connect 42 4 28 4;
#X connect 42 5 28 5;
#X connect 42 6 28 6;
#X coords 0 685 1 684 100 60 0;
