#N canvas 701 590 776 567 10;
#X obj 45 1 cnv 15 315 40 empty \$0-hoa.header Tutorial\ 1 3 12 0 18 #cccccc #000000 0;
#X obj 438 444 s \$0-hoa.header;
#X obj 437 14 inlet;
#X obj 278 87 namecanvas \$0-r;
#X obj 472 395 s \$0-r;
#X msg 438 414 label \$1;
#X obj 404 317 list split 1;
#X obj 438 337 list split 1;
#X obj 484 127 textfile;
#X obj 452 97 until;
#X obj 467 260 f 1;
#X obj 500 259 f 0;
#X obj 404 282 spigot 0;
#X obj 467 206 sel sa;
#X msg 505 97 rewind;
#X obj 404 156 list;
#X obj 500 234 bang;
#X obj 404 180 t list symbol;
#X obj 437 44 t b b b b s;
#X msg 484 67 read hoa.tuto.txt;
#X obj 1 1 ui.canvas @size 43 40 @receive "(null)" @send "(null)" @nosave 0 @pinned 0 @background_color 0.93 0.93 0.93 1 @border_color 0.6 0.6 0.6 1 @label_color 0 0 0 1 @fontname "Helvetica" @fontweight "normal" @fontslant "roman" @fontsize 11 @label "(null)" @label_inner 0 @label_side "top" @label_align "left" @label_valign "top" @label_margins 0 0;
#X obj 472 367 prepend text 46 23;
#X msg 39 129 clear \, image 0 0 hoa_logo.svg 0.33 \, update, f 24;
#X connect 2 0 18 0;
#X connect 2 0 22 0;
#X connect 5 0 1 0;
#X connect 6 1 7 0;
#X connect 6 1 5 0;
#X connect 7 1 21 0;
#X connect 8 0 15 0;
#X connect 8 1 9 1;
#X connect 9 0 8 0;
#X connect 10 0 12 1;
#X connect 11 0 12 1;
#X connect 12 0 6 0;
#X connect 13 0 10 0;
#X connect 13 1 16 0;
#X connect 14 0 8 0;
#X connect 15 0 17 0;
#X connect 16 0 11 0;
#X connect 17 0 12 0;
#X connect 17 1 13 0;
#X connect 18 1 9 0;
#X connect 18 2 14 0;
#X connect 18 3 19 0;
#X connect 18 4 13 1;
#X connect 19 0 8 0;
#X connect 21 0 4 0;
#X connect 22 0 20 0;
#X coords 0 -1 1 1 361 42 2 0 0;
