#N canvas 850 265 946 598 10;
#X obj 486 87 hoa.in~;
#X obj 351 483 hoa.out~;
#X obj 467 268 f;
#X obj 285 333 *~ 513;
#X obj 732 364 table \$0-hoa_hann1 512;
#X obj 285 361 tabread4~ \$0-hoa_hann1;
#X obj 270 412 *~;
#X obj 466 412 *~;
#X obj 270 268 f;
#X obj 481 361 tabread4~ \$0-hoa_hann1;
#X obj 481 312 wrap~;
#X obj 481 291 +~ 0.5;
#X obj 481 333 *~ 513;
#X obj 467 392 delread~ \$0-hoa.delay 1;
#X obj 270 392 delread~ \$0-hoa.delay 1;
#X obj 312 246 phasor~ 0.5;
#N canvas 970 176 450 300 sel~ 0;
#X obj 92 141 samphold~;
#X obj 92 165 snapshot~;
#X obj 92 187 change;
#X obj 92 209 < 126;
#X obj 92 233 sel 0 1;
#X obj 38 59 inlet~;
#X obj 108 49 inlet~;
#X obj 92 261 outlet;
#X obj 153 261 outlet;
#X obj 155 232 nbx 5 14 -1e+37 1e+37 0 0 empty empty empty 0 -8 0 10 #fcfcfc #000000 #000000 0 256;
#X obj 73 109 metro 5;
#X obj 73 20 msg.onload 1;
#X connect 0 0 1 0;
#X connect 1 0 2 0;
#X connect 2 0 3 0;
#X connect 2 0 9 0;
#X connect 3 0 4 0;
#X connect 4 0 8 0;
#X connect 4 1 7 0;
#X connect 5 0 0 0;
#X connect 5 0 0 1;
#X connect 6 0 0 1;
#X connect 10 0 1 0;
#X connect 11 0 10 0;
#X restore 413 415 pd sel~;
#X text 346 7 This hoa.processing diffuses a sound field with delay lines.;
#X text 66 216 factor;
#X text 62 206 instance;
#X obj 63 186 nbx 5 14 -1e+37 1e+37 0 0 empty empty empty 0 -8 0 10 #fcfcfc #000000 #000000 0 256;
#X obj 486 130 delwrite~ \$0-hoa.delay 5000;
#X obj 304 179 * 1;
#X obj 304 149 t b f;
#X text 527 431 list : The item is selected depending on the instance and directly set the delay time of the instance (mostly used in the plane waves domain).;
#X text 527 491 float : The delay time are mapped depending on the intance and increase while the index and the band of the harmonics increase.;
#X obj 732 300 window;
#X obj 732 322 array.set \$0-hoa_hann1;
#X obj 732 278 msg.onload hann \, bang;
#X obj 304 36 hoa.in 1;
#X obj 24 52 msg.onload @total? @index?;
#X obj 24 74 hoa.@process;
#X obj 24 96 prop-> @index @total;
#X obj 63 119 + 1;
#X obj 63 141 pack f f;
#X obj 63 163 /;
#X obj 565 201 prop.declare delay @f @default 0 @min 0 @max 5000;
#X obj 200 209 prop @delay;
#X obj 200 285 ui.number @size 53 15 @receive "(null)" @send "(null)" @nosave 0 @pinned 0 @presetname "(null)" @background_color 0.93 0.93 0.93 1 @border_color 0.6 0.6 0.6 1 @label_color 0 0 0 1 @active_color 0 0.75 1 1 @text_color 0 0 0 1 @fontname "Helvetica" @fontweight "normal" @fontslant "roman" @fontsize 11 @label "delay" @label_inner 0 @label_side "top" @label_align "left" @label_valign "top" @label_margins 0 0 @min -3.40282e+38 @max 3.40282e+38 @display_only 0 @digits -1;
#X obj 10 10 switch~;
#X obj 304 86 route @delay float;
#X connect 0 0 21 0;
#X connect 2 0 13 0;
#X connect 3 0 5 0;
#X connect 3 0 16 0;
#X connect 5 0 6 1;
#X connect 6 0 1 0;
#X connect 7 0 1 0;
#X connect 8 0 14 0;
#X connect 8 0 38 0;
#X connect 9 0 7 1;
#X connect 10 0 12 0;
#X connect 11 0 10 0;
#X connect 12 0 9 0;
#X connect 12 0 16 1;
#X connect 13 0 7 0;
#X connect 14 0 6 0;
#X connect 15 0 3 0;
#X connect 15 0 11 0;
#X connect 16 0 8 0;
#X connect 16 1 2 0;
#X connect 22 0 8 1;
#X connect 22 0 2 1;
#X connect 23 0 22 0;
#X connect 23 1 22 1;
#X connect 26 0 27 0;
#X connect 28 0 26 0;
#X connect 29 0 40 0;
#X connect 30 0 31 0;
#X connect 31 0 32 0;
#X connect 32 1 33 0;
#X connect 32 2 34 1;
#X connect 33 0 34 0;
#X connect 34 0 35 0;
#X connect 35 0 23 0;
#X connect 35 0 20 0;
#X connect 37 0 2 0;
#X connect 37 0 8 0;
#X connect 40 0 37 0;
#X connect 40 1 22 0;
