#N canvas 1077 843 732 403 10;
#N canvas 409 488 709 635 partializer 0;
#X obj 108 391 osc~ 100;
#X obj 238 316 osc~ 0.1;
#X obj 239 354 *~;
#X obj 238 172 random 1000;
#X obj 238 263 /, f 5;
#X obj 238 219 t b f;
#X obj 238 290 / 1000;
#X obj 238 196 + 500;
#X obj 108 365 + 100;
#X obj 108 431 *~;
#X obj 239 381 -~ 0.001;
#X obj 239 405 max~ 0;
#X obj 108 342 random 2000;
#X obj 239 507 sel 1;
#X obj 238 241 samplerate~;
#X obj 239 442 env~ 512 256;
#X obj 239 473 <= 0;
#X obj 101 169 unpack s f f;
#X obj 74 24 loadbang;
#X obj 27 133 bang;
#X obj 108 528 outlet~;
#X text 240 152 Envelope;
#X text 111 314 Partial;
#X obj 108 471 *~;
#X obj 27 342 random 9000;
#X obj 27 365 + 1000;
#X obj 27 401 / 10000;
#X text 41 314 Gain;
#X obj 74 53 t b b;
#X obj 172 250 -;
#X obj 144 223 t b f;
#X msg 101 74 @args?;
#X obj 101 96 canvas.current;
#X obj 101 118 prop-> @args;
#X connect 0 0 9 0;
#X connect 1 0 2 1;
#X connect 1 0 2 0;
#X connect 2 0 10 0;
#X connect 3 0 7 0;
#X connect 4 0 6 0;
#X connect 5 0 14 0;
#X connect 5 1 4 1;
#X connect 6 0 1 0;
#X connect 7 0 5 0;
#X connect 8 0 0 0;
#X connect 9 0 23 0;
#X connect 10 0 11 0;
#X connect 11 0 9 1;
#X connect 11 0 15 0;
#X connect 12 0 8 0;
#X connect 13 0 19 0;
#X connect 14 0 4 0;
#X connect 15 0 16 0;
#X connect 16 0 13 0;
#X connect 17 1 8 1;
#X connect 17 1 30 0;
#X connect 17 2 29 0;
#X connect 18 0 28 0;
#X connect 19 0 12 0;
#X connect 19 0 3 0;
#X connect 19 0 24 0;
#X connect 23 0 20 0;
#X connect 24 0 25 0;
#X connect 25 0 26 0;
#X connect 26 0 23 1;
#X connect 28 0 19 0;
#X connect 28 1 31 0;
#X connect 29 0 12 1;
#X connect 30 0 29 0;
#X connect 30 1 29 1;
#X connect 31 0 32 0;
#X connect 32 0 33 0;
#X connect 33 1 17 0;
#X restore 110 27 pd partializer 80 120;
#X obj 77 285 outlet~;
#X obj 77 255 *~ 0.1;
#N canvas 409 488 709 635 partializer 0;
#X obj 108 391 osc~ 100;
#X obj 238 316 osc~ 0.1;
#X obj 239 354 *~;
#X obj 238 172 random 1000;
#X obj 238 263 /, f 5;
#X obj 238 219 t b f;
#X obj 238 290 / 1000;
#X obj 238 196 + 500;
#X obj 108 365 + 100;
#X obj 108 431 *~;
#X obj 239 381 -~ 0.001;
#X obj 239 405 max~ 0;
#X obj 108 342 random 2000;
#X obj 239 507 sel 1;
#X obj 238 241 samplerate~;
#X obj 239 442 env~ 512 256;
#X obj 239 473 <= 0;
#X obj 101 169 unpack s f f;
#X obj 74 24 loadbang;
#X obj 27 133 bang;
#X obj 108 528 outlet~;
#X text 240 152 Envelope;
#X text 111 314 Partial;
#X obj 108 471 *~;
#X obj 27 342 random 9000;
#X obj 27 365 + 1000;
#X obj 27 401 / 10000;
#X text 41 314 Gain;
#X obj 74 53 t b b;
#X obj 172 250 -;
#X obj 144 223 t b f;
#X msg 101 74 @args?;
#X obj 101 96 canvas.current;
#X obj 101 118 prop-> @args;
#X connect 0 0 9 0;
#X connect 1 0 2 1;
#X connect 1 0 2 0;
#X connect 2 0 10 0;
#X connect 3 0 7 0;
#X connect 4 0 6 0;
#X connect 5 0 14 0;
#X connect 5 1 4 1;
#X connect 6 0 1 0;
#X connect 7 0 5 0;
#X connect 8 0 0 0;
#X connect 9 0 23 0;
#X connect 10 0 11 0;
#X connect 11 0 9 1;
#X connect 11 0 15 0;
#X connect 12 0 8 0;
#X connect 13 0 19 0;
#X connect 14 0 4 0;
#X connect 15 0 16 0;
#X connect 16 0 13 0;
#X connect 17 1 8 1;
#X connect 17 1 30 0;
#X connect 17 2 29 0;
#X connect 18 0 28 0;
#X connect 19 0 12 0;
#X connect 19 0 3 0;
#X connect 19 0 24 0;
#X connect 23 0 20 0;
#X connect 24 0 25 0;
#X connect 25 0 26 0;
#X connect 26 0 23 1;
#X connect 28 0 19 0;
#X connect 28 1 31 0;
#X connect 29 0 12 1;
#X connect 30 0 29 0;
#X connect 30 1 29 1;
#X connect 31 0 32 0;
#X connect 32 0 33 0;
#X connect 33 1 17 0;
#X restore 110 57 pd partializer 120 220;
#N canvas 409 488 709 635 partializer 0;
#X obj 108 391 osc~ 100;
#X obj 238 316 osc~ 0.1;
#X obj 239 354 *~;
#X obj 238 172 random 1000;
#X obj 238 263 /, f 5;
#X obj 238 219 t b f;
#X obj 238 290 / 1000;
#X obj 238 196 + 500;
#X obj 108 365 + 100;
#X obj 108 431 *~;
#X obj 239 381 -~ 0.001;
#X obj 239 405 max~ 0;
#X obj 108 342 random 2000;
#X obj 239 507 sel 1;
#X obj 238 241 samplerate~;
#X obj 239 442 env~ 512 256;
#X obj 239 473 <= 0;
#X obj 101 169 unpack s f f;
#X obj 74 24 loadbang;
#X obj 27 133 bang;
#X obj 108 528 outlet~;
#X text 240 152 Envelope;
#X text 111 314 Partial;
#X obj 108 471 *~;
#X obj 27 342 random 9000;
#X obj 27 365 + 1000;
#X obj 27 401 / 10000;
#X text 41 314 Gain;
#X obj 74 53 t b b;
#X obj 172 250 -;
#X obj 144 223 t b f;
#X msg 101 74 @args?;
#X obj 101 96 canvas.current;
#X obj 101 118 prop-> @args;
#X connect 0 0 9 0;
#X connect 1 0 2 1;
#X connect 1 0 2 0;
#X connect 2 0 10 0;
#X connect 3 0 7 0;
#X connect 4 0 6 0;
#X connect 5 0 14 0;
#X connect 5 1 4 1;
#X connect 6 0 1 0;
#X connect 7 0 5 0;
#X connect 8 0 0 0;
#X connect 9 0 23 0;
#X connect 10 0 11 0;
#X connect 11 0 9 1;
#X connect 11 0 15 0;
#X connect 12 0 8 0;
#X connect 13 0 19 0;
#X connect 14 0 4 0;
#X connect 15 0 16 0;
#X connect 16 0 13 0;
#X connect 17 1 8 1;
#X connect 17 1 30 0;
#X connect 17 2 29 0;
#X connect 18 0 28 0;
#X connect 19 0 12 0;
#X connect 19 0 3 0;
#X connect 19 0 24 0;
#X connect 23 0 20 0;
#X connect 24 0 25 0;
#X connect 25 0 26 0;
#X connect 26 0 23 1;
#X connect 28 0 19 0;
#X connect 28 1 31 0;
#X connect 29 0 12 1;
#X connect 30 0 29 0;
#X connect 30 1 29 1;
#X connect 31 0 32 0;
#X connect 32 0 33 0;
#X connect 33 1 17 0;
#X restore 110 87 pd partializer 220 360;
#N canvas 409 488 709 635 partializer 0;
#X obj 108 391 osc~ 100;
#X obj 238 316 osc~ 0.1;
#X obj 239 354 *~;
#X obj 238 172 random 1000;
#X obj 238 263 /, f 5;
#X obj 238 219 t b f;
#X obj 238 290 / 1000;
#X obj 238 196 + 500;
#X obj 108 365 + 100;
#X obj 108 431 *~;
#X obj 239 381 -~ 0.001;
#X obj 239 405 max~ 0;
#X obj 108 342 random 2000;
#X obj 239 507 sel 1;
#X obj 238 241 samplerate~;
#X obj 239 442 env~ 512 256;
#X obj 239 473 <= 0;
#X obj 101 169 unpack s f f;
#X obj 74 24 loadbang;
#X obj 27 133 bang;
#X obj 108 528 outlet~;
#X text 240 152 Envelope;
#X text 111 314 Partial;
#X obj 108 471 *~;
#X obj 27 342 random 9000;
#X obj 27 365 + 1000;
#X obj 27 401 / 10000;
#X text 41 314 Gain;
#X obj 74 53 t b b;
#X obj 172 250 -;
#X obj 144 223 t b f;
#X msg 101 74 @args?;
#X obj 101 96 canvas.current;
#X obj 101 118 prop-> @args;
#X connect 0 0 9 0;
#X connect 1 0 2 1;
#X connect 1 0 2 0;
#X connect 2 0 10 0;
#X connect 3 0 7 0;
#X connect 4 0 6 0;
#X connect 5 0 14 0;
#X connect 5 1 4 1;
#X connect 6 0 1 0;
#X connect 7 0 5 0;
#X connect 8 0 0 0;
#X connect 9 0 23 0;
#X connect 10 0 11 0;
#X connect 11 0 9 1;
#X connect 11 0 15 0;
#X connect 12 0 8 0;
#X connect 13 0 19 0;
#X connect 14 0 4 0;
#X connect 15 0 16 0;
#X connect 16 0 13 0;
#X connect 17 1 8 1;
#X connect 17 1 30 0;
#X connect 17 2 29 0;
#X connect 18 0 28 0;
#X connect 19 0 12 0;
#X connect 19 0 3 0;
#X connect 19 0 24 0;
#X connect 23 0 20 0;
#X connect 24 0 25 0;
#X connect 25 0 26 0;
#X connect 26 0 23 1;
#X connect 28 0 19 0;
#X connect 28 1 31 0;
#X connect 29 0 12 1;
#X connect 30 0 29 0;
#X connect 30 1 29 1;
#X connect 31 0 32 0;
#X connect 32 0 33 0;
#X connect 33 1 17 0;
#X restore 260 27 pd partializer 80 120;
#N canvas 409 488 709 635 partializer 0;
#X obj 108 391 osc~ 100;
#X obj 238 316 osc~ 0.1;
#X obj 239 354 *~;
#X obj 238 172 random 1000;
#X obj 238 263 /, f 5;
#X obj 238 219 t b f;
#X obj 238 290 / 1000;
#X obj 238 196 + 500;
#X obj 108 365 + 100;
#X obj 108 431 *~;
#X obj 239 381 -~ 0.001;
#X obj 239 405 max~ 0;
#X obj 108 342 random 2000;
#X obj 239 507 sel 1;
#X obj 238 241 samplerate~;
#X obj 239 442 env~ 512 256;
#X obj 239 473 <= 0;
#X obj 101 169 unpack s f f;
#X obj 74 24 loadbang;
#X obj 27 133 bang;
#X obj 108 528 outlet~;
#X text 240 152 Envelope;
#X text 111 314 Partial;
#X obj 108 471 *~;
#X obj 27 342 random 9000;
#X obj 27 365 + 1000;
#X obj 27 401 / 10000;
#X text 41 314 Gain;
#X obj 74 53 t b b;
#X obj 172 250 -;
#X obj 144 223 t b f;
#X msg 101 74 @args?;
#X obj 101 96 canvas.current;
#X obj 101 118 prop-> @args;
#X connect 0 0 9 0;
#X connect 1 0 2 1;
#X connect 1 0 2 0;
#X connect 2 0 10 0;
#X connect 3 0 7 0;
#X connect 4 0 6 0;
#X connect 5 0 14 0;
#X connect 5 1 4 1;
#X connect 6 0 1 0;
#X connect 7 0 5 0;
#X connect 8 0 0 0;
#X connect 9 0 23 0;
#X connect 10 0 11 0;
#X connect 11 0 9 1;
#X connect 11 0 15 0;
#X connect 12 0 8 0;
#X connect 13 0 19 0;
#X connect 14 0 4 0;
#X connect 15 0 16 0;
#X connect 16 0 13 0;
#X connect 17 1 8 1;
#X connect 17 1 30 0;
#X connect 17 2 29 0;
#X connect 18 0 28 0;
#X connect 19 0 12 0;
#X connect 19 0 3 0;
#X connect 19 0 24 0;
#X connect 23 0 20 0;
#X connect 24 0 25 0;
#X connect 25 0 26 0;
#X connect 26 0 23 1;
#X connect 28 0 19 0;
#X connect 28 1 31 0;
#X connect 29 0 12 1;
#X connect 30 0 29 0;
#X connect 30 1 29 1;
#X connect 31 0 32 0;
#X connect 32 0 33 0;
#X connect 33 1 17 0;
#X restore 260 57 pd partializer 120 220;
#N canvas 409 488 709 635 partializer 0;
#X obj 108 391 osc~ 100;
#X obj 238 316 osc~ 0.1;
#X obj 239 354 *~;
#X obj 238 172 random 1000;
#X obj 238 263 /, f 5;
#X obj 238 219 t b f;
#X obj 238 290 / 1000;
#X obj 238 196 + 500;
#X obj 108 365 + 100;
#X obj 108 431 *~;
#X obj 239 381 -~ 0.001;
#X obj 239 405 max~ 0;
#X obj 108 342 random 2000;
#X obj 239 507 sel 1;
#X obj 238 241 samplerate~;
#X obj 239 442 env~ 512 256;
#X obj 239 473 <= 0;
#X obj 101 169 unpack s f f;
#X obj 74 24 loadbang;
#X obj 27 133 bang;
#X obj 108 528 outlet~;
#X text 240 152 Envelope;
#X text 111 314 Partial;
#X obj 108 471 *~;
#X obj 27 342 random 9000;
#X obj 27 365 + 1000;
#X obj 27 401 / 10000;
#X text 41 314 Gain;
#X obj 74 53 t b b;
#X obj 172 250 -;
#X obj 144 223 t b f;
#X msg 101 74 @args?;
#X obj 101 96 canvas.current;
#X obj 101 118 prop-> @args;
#X connect 0 0 9 0;
#X connect 1 0 2 1;
#X connect 1 0 2 0;
#X connect 2 0 10 0;
#X connect 3 0 7 0;
#X connect 4 0 6 0;
#X connect 5 0 14 0;
#X connect 5 1 4 1;
#X connect 6 0 1 0;
#X connect 7 0 5 0;
#X connect 8 0 0 0;
#X connect 9 0 23 0;
#X connect 10 0 11 0;
#X connect 11 0 9 1;
#X connect 11 0 15 0;
#X connect 12 0 8 0;
#X connect 13 0 19 0;
#X connect 14 0 4 0;
#X connect 15 0 16 0;
#X connect 16 0 13 0;
#X connect 17 1 8 1;
#X connect 17 1 30 0;
#X connect 17 2 29 0;
#X connect 18 0 28 0;
#X connect 19 0 12 0;
#X connect 19 0 3 0;
#X connect 19 0 24 0;
#X connect 23 0 20 0;
#X connect 24 0 25 0;
#X connect 25 0 26 0;
#X connect 26 0 23 1;
#X connect 28 0 19 0;
#X connect 28 1 31 0;
#X connect 29 0 12 1;
#X connect 30 0 29 0;
#X connect 30 1 29 1;
#X connect 31 0 32 0;
#X connect 32 0 33 0;
#X connect 33 1 17 0;
#X restore 260 87 pd partializer 220 360;
#N canvas 409 488 709 635 partializer 0;
#X obj 108 391 osc~ 100;
#X obj 238 316 osc~ 0.1;
#X obj 239 354 *~;
#X obj 238 172 random 1000;
#X obj 238 263 /, f 5;
#X obj 238 219 t b f;
#X obj 238 290 / 1000;
#X obj 238 196 + 500;
#X obj 108 365 + 100;
#X obj 108 431 *~;
#X obj 239 381 -~ 0.001;
#X obj 239 405 max~ 0;
#X obj 108 342 random 2000;
#X obj 239 507 sel 1;
#X obj 238 241 samplerate~;
#X obj 239 442 env~ 512 256;
#X obj 239 473 <= 0;
#X obj 101 169 unpack s f f;
#X obj 74 24 loadbang;
#X obj 27 133 bang;
#X obj 108 528 outlet~;
#X text 240 152 Envelope;
#X text 111 314 Partial;
#X obj 108 471 *~;
#X obj 27 342 random 9000;
#X obj 27 365 + 1000;
#X obj 27 401 / 10000;
#X text 41 314 Gain;
#X obj 74 53 t b b;
#X obj 172 250 -;
#X obj 144 223 t b f;
#X msg 101 74 @args?;
#X obj 101 96 canvas.current;
#X obj 101 118 prop-> @args;
#X connect 0 0 9 0;
#X connect 1 0 2 1;
#X connect 1 0 2 0;
#X connect 2 0 10 0;
#X connect 3 0 7 0;
#X connect 4 0 6 0;
#X connect 5 0 14 0;
#X connect 5 1 4 1;
#X connect 6 0 1 0;
#X connect 7 0 5 0;
#X connect 8 0 0 0;
#X connect 9 0 23 0;
#X connect 10 0 11 0;
#X connect 11 0 9 1;
#X connect 11 0 15 0;
#X connect 12 0 8 0;
#X connect 13 0 19 0;
#X connect 14 0 4 0;
#X connect 15 0 16 0;
#X connect 16 0 13 0;
#X connect 17 1 8 1;
#X connect 17 1 30 0;
#X connect 17 2 29 0;
#X connect 18 0 28 0;
#X connect 19 0 12 0;
#X connect 19 0 3 0;
#X connect 19 0 24 0;
#X connect 23 0 20 0;
#X connect 24 0 25 0;
#X connect 25 0 26 0;
#X connect 26 0 23 1;
#X connect 28 0 19 0;
#X connect 28 1 31 0;
#X connect 29 0 12 1;
#X connect 30 0 29 0;
#X connect 30 1 29 1;
#X connect 31 0 32 0;
#X connect 32 0 33 0;
#X connect 33 1 17 0;
#X restore 270 127 pd partializer 360 560;
#N canvas 409 488 709 635 partializer 0;
#X obj 108 391 osc~ 100;
#X obj 238 316 osc~ 0.1;
#X obj 239 354 *~;
#X obj 238 172 random 1000;
#X obj 238 263 /, f 5;
#X obj 238 219 t b f;
#X obj 238 290 / 1000;
#X obj 238 196 + 500;
#X obj 108 365 + 100;
#X obj 108 431 *~;
#X obj 239 381 -~ 0.001;
#X obj 239 405 max~ 0;
#X obj 108 342 random 2000;
#X obj 239 507 sel 1;
#X obj 238 241 samplerate~;
#X obj 239 442 env~ 512 256;
#X obj 239 473 <= 0;
#X obj 101 169 unpack s f f;
#X obj 74 24 loadbang;
#X obj 27 133 bang;
#X obj 108 528 outlet~;
#X text 240 152 Envelope;
#X text 111 314 Partial;
#X obj 108 471 *~;
#X obj 27 342 random 9000;
#X obj 27 365 + 1000;
#X obj 27 401 / 10000;
#X text 41 314 Gain;
#X obj 74 53 t b b;
#X obj 172 250 -;
#X obj 144 223 t b f;
#X msg 101 74 @args?;
#X obj 101 96 canvas.current;
#X obj 101 118 prop-> @args;
#X connect 0 0 9 0;
#X connect 1 0 2 1;
#X connect 1 0 2 0;
#X connect 2 0 10 0;
#X connect 3 0 7 0;
#X connect 4 0 6 0;
#X connect 5 0 14 0;
#X connect 5 1 4 1;
#X connect 6 0 1 0;
#X connect 7 0 5 0;
#X connect 8 0 0 0;
#X connect 9 0 23 0;
#X connect 10 0 11 0;
#X connect 11 0 9 1;
#X connect 11 0 15 0;
#X connect 12 0 8 0;
#X connect 13 0 19 0;
#X connect 14 0 4 0;
#X connect 15 0 16 0;
#X connect 16 0 13 0;
#X connect 17 1 8 1;
#X connect 17 1 30 0;
#X connect 17 2 29 0;
#X connect 18 0 28 0;
#X connect 19 0 12 0;
#X connect 19 0 3 0;
#X connect 19 0 24 0;
#X connect 23 0 20 0;
#X connect 24 0 25 0;
#X connect 25 0 26 0;
#X connect 26 0 23 1;
#X connect 28 0 19 0;
#X connect 28 1 31 0;
#X connect 29 0 12 1;
#X connect 30 0 29 0;
#X connect 30 1 29 1;
#X connect 31 0 32 0;
#X connect 32 0 33 0;
#X connect 33 1 17 0;
#X restore 280 157 pd partializer 560 800;
#N canvas 409 488 709 635 partializer 0;
#X obj 108 391 osc~ 100;
#X obj 238 316 osc~ 0.1;
#X obj 239 354 *~;
#X obj 238 172 random 1000;
#X obj 238 263 /, f 5;
#X obj 238 219 t b f;
#X obj 238 290 / 1000;
#X obj 238 196 + 500;
#X obj 108 365 + 100;
#X obj 108 431 *~;
#X obj 239 381 -~ 0.001;
#X obj 239 405 max~ 0;
#X obj 108 342 random 2000;
#X obj 239 507 sel 1;
#X obj 238 241 samplerate~;
#X obj 239 442 env~ 512 256;
#X obj 239 473 <= 0;
#X obj 101 169 unpack s f f;
#X obj 74 24 loadbang;
#X obj 27 133 bang;
#X obj 108 528 outlet~;
#X text 240 152 Envelope;
#X text 111 314 Partial;
#X obj 108 471 *~;
#X obj 27 342 random 9000;
#X obj 27 365 + 1000;
#X obj 27 401 / 10000;
#X text 41 314 Gain;
#X obj 74 53 t b b;
#X obj 172 250 -;
#X obj 144 223 t b f;
#X msg 101 74 @args?;
#X obj 101 96 canvas.current;
#X obj 101 118 prop-> @args;
#X connect 0 0 9 0;
#X connect 1 0 2 1;
#X connect 1 0 2 0;
#X connect 2 0 10 0;
#X connect 3 0 7 0;
#X connect 4 0 6 0;
#X connect 5 0 14 0;
#X connect 5 1 4 1;
#X connect 6 0 1 0;
#X connect 7 0 5 0;
#X connect 8 0 0 0;
#X connect 9 0 23 0;
#X connect 10 0 11 0;
#X connect 11 0 9 1;
#X connect 11 0 15 0;
#X connect 12 0 8 0;
#X connect 13 0 19 0;
#X connect 14 0 4 0;
#X connect 15 0 16 0;
#X connect 16 0 13 0;
#X connect 17 1 8 1;
#X connect 17 1 30 0;
#X connect 17 2 29 0;
#X connect 18 0 28 0;
#X connect 19 0 12 0;
#X connect 19 0 3 0;
#X connect 19 0 24 0;
#X connect 23 0 20 0;
#X connect 24 0 25 0;
#X connect 25 0 26 0;
#X connect 26 0 23 1;
#X connect 28 0 19 0;
#X connect 28 1 31 0;
#X connect 29 0 12 1;
#X connect 30 0 29 0;
#X connect 30 1 29 1;
#X connect 31 0 32 0;
#X connect 32 0 33 0;
#X connect 33 1 17 0;
#X restore 290 187 pd partializer 800 1200;
#N canvas 409 488 709 635 partializer 0;
#X obj 108 391 osc~ 100;
#X obj 238 316 osc~ 0.1;
#X obj 239 354 *~;
#X obj 238 172 random 1000;
#X obj 238 263 /, f 5;
#X obj 238 219 t b f;
#X obj 238 290 / 1000;
#X obj 238 196 + 500;
#X obj 108 365 + 100;
#X obj 108 431 *~;
#X obj 239 381 -~ 0.001;
#X obj 239 405 max~ 0;
#X obj 108 342 random 2000;
#X obj 239 507 sel 1;
#X obj 238 241 samplerate~;
#X obj 239 442 env~ 512 256;
#X obj 239 473 <= 0;
#X obj 101 169 unpack s f f;
#X obj 74 24 loadbang;
#X obj 27 133 bang;
#X obj 108 528 outlet~;
#X text 240 152 Envelope;
#X text 111 314 Partial;
#X obj 108 471 *~;
#X obj 27 342 random 9000;
#X obj 27 365 + 1000;
#X obj 27 401 / 10000;
#X text 41 314 Gain;
#X obj 74 53 t b b;
#X obj 172 250 -;
#X obj 144 223 t b f;
#X msg 101 74 @args?;
#X obj 101 96 canvas.current;
#X obj 101 118 prop-> @args;
#X connect 0 0 9 0;
#X connect 1 0 2 1;
#X connect 1 0 2 0;
#X connect 2 0 10 0;
#X connect 3 0 7 0;
#X connect 4 0 6 0;
#X connect 5 0 14 0;
#X connect 5 1 4 1;
#X connect 6 0 1 0;
#X connect 7 0 5 0;
#X connect 8 0 0 0;
#X connect 9 0 23 0;
#X connect 10 0 11 0;
#X connect 11 0 9 1;
#X connect 11 0 15 0;
#X connect 12 0 8 0;
#X connect 13 0 19 0;
#X connect 14 0 4 0;
#X connect 15 0 16 0;
#X connect 16 0 13 0;
#X connect 17 1 8 1;
#X connect 17 1 30 0;
#X connect 17 2 29 0;
#X connect 18 0 28 0;
#X connect 19 0 12 0;
#X connect 19 0 3 0;
#X connect 19 0 24 0;
#X connect 23 0 20 0;
#X connect 24 0 25 0;
#X connect 25 0 26 0;
#X connect 26 0 23 1;
#X connect 28 0 19 0;
#X connect 28 1 31 0;
#X connect 29 0 12 1;
#X connect 30 0 29 0;
#X connect 30 1 29 1;
#X connect 31 0 32 0;
#X connect 32 0 33 0;
#X connect 33 1 17 0;
#X restore 300 217 pd partializer 1200 2000;
#X connect 0 0 2 0;
#X connect 2 0 1 0;
#X connect 3 0 2 0;
#X connect 4 0 2 0;
#X connect 5 0 2 0;
#X connect 6 0 2 0;
#X connect 7 0 2 0;
#X connect 8 0 2 0;
#X connect 9 0 2 0;
#X connect 10 0 2 0;
#X connect 11 0 2 0;
