#N canvas 433 151 758 737 10;
#X obj 67 621 hoa.help.pub;
#X obj 418 9 hoa.help.also;
#X obj 272 100 phasor~ 0.1;
#X obj 113 100 phasor~ 1;
#X text 368 407 You can also use it in the planewave domain.;
#X text 368 373 With diffusion \, the roomsize and the damping value;
#X text 368 383 are mapped depending on the harmonic orders and degrees.;
#X text 368 350 Attrs : wet \, dry \, roomsize \, damp \, diff;
#X text 7 53 hoa.fx.freeverb~ uses the freeverb reverberation.;
#X obj 113 139 ui.gain~ @size 120 15 @receive "(null)" @send "(null)" @nosave 0 @pinned 0 @presetname "(null)" @mouse_events 0 @background_color 0.93 0.93 0.93 1 @border_color 0.6 0.6 0.6 1 @label_color 0 0 0 1 @knob_color 0 0.75 1 1 @fontname "Helvetica" @fontweight "normal" @fontslant "roman" @fontsize 11 @label "(null)" @label_inner 0 @label_side "top" @label_align "left" @label_valign "top" @label_margins 0 0 @max 0 @min -60 @output_value 0 @relative 1 @midi_channel 0 @midi_control 0 @midi_pickup 0 @show_range 1;
#X obj 272 122 phase->rad~;
#X obj 2 9 hoa.help.header;
#X obj 565 9 ui.dsp~ @size 42 42 @receive "(null)" @send "(null)" @nosave 0 @pinned 0 @background_color 0.93 0.93 0.93 1 @border_color 0.6 0.6 0.6 1 @label_color 0 0 0 1 @active_color 0 0.75 1 1 @fontname "Helvetica" @fontweight "normal" @fontslant "roman" @fontsize 11 @label "(null)" @label_inner 0 @label_side "top" @label_align "left" @label_valign "top" @label_margins 0 0;
#X obj 113 157 hoa.2d.encoder~ 3, f 27;
#X obj 113 570 xdac~ 1:8, f 31;
#X obj 113 331 hoa.scope~ @size 190 190 @receive "(null)" @send "(null)" @nosave 0 @pinned 0 @background_color 0.93 0.93 0.93 1 @border_color 0.6 0.6 0.6 1 @label_color 0 0 0 1 @ph_color 1 0 0 1 @nh_color 0 0 1 1 @fontname "Helvetica" @fontweight "normal" @fontslant "roman" @fontsize 11 @label "(null)" @label_inner 0 @label_side "top" @label_align "left" @label_valign "top" @label_margins 0 0 @gain 1 @refresh 100 @order 3 @view 0;
#X obj 338 163 msg.onload 0;
#X obj 428 163 msg.onload 1;
#X obj 528 163 msg.onload 0.5;
#X obj 639 163 msg.onload 0.75;
#X obj 639 243 msg.onload 0.75;
#X obj 338 185 ui.number @size 53 15 @receive "(null)" @send "(null)" @nosave 0 @pinned 0 @presetname "(null)" @background_color 0.93 0.93 0.93 1 @border_color 0.6 0.6 0.6 1 @label_color 0 0 0 1 @active_color 0 0.75 1 1 @text_color 0 0 0 1 @fontname "Helvetica" @fontweight "normal" @fontslant "roman" @fontsize 13 @label "(null)" @label_inner 0 @label_side "top" @label_align "left" @label_valign "top" @label_margins 0 0 @min 0 @max 1 @display_only 0 @digits -1;
#X msg 338 208 @dry \$1;
#X msg 428 208 @wet \$1;
#X obj 428 185 ui.number @size 53 15 @receive "(null)" @send "(null)" @nosave 0 @pinned 0 @presetname "(null)" @background_color 0.93 0.93 0.93 1 @border_color 0.6 0.6 0.6 1 @label_color 0 0 0 1 @active_color 0 0.75 1 1 @text_color 0 0 0 1 @fontname "Helvetica" @fontweight "normal" @fontslant "roman" @fontsize 13 @label "(null)" @label_inner 0 @label_side "top" @label_align "left" @label_valign "top" @label_margins 0 0 @min 0 @max 1 @display_only 0 @digits -1;
#X obj 528 185 ui.number @size 53 15 @receive "(null)" @send "(null)" @nosave 0 @pinned 0 @presetname "(null)" @background_color 0.93 0.93 0.93 1 @border_color 0.6 0.6 0.6 1 @label_color 0 0 0 1 @active_color 0 0.75 1 1 @text_color 0 0 0 1 @fontname "Helvetica" @fontweight "normal" @fontslant "roman" @fontsize 13 @label "(null)" @label_inner 0 @label_side "top" @label_align "left" @label_valign "top" @label_margins 0 0 @min 0 @max 1 @display_only 0 @digits -1;
#X obj 639 185 ui.number @size 53 15 @receive "(null)" @send "(null)" @nosave 0 @pinned 0 @presetname "(null)" @background_color 0.93 0.93 0.93 1 @border_color 0.6 0.6 0.6 1 @label_color 0 0 0 1 @active_color 0 0.75 1 1 @text_color 0 0 0 1 @fontname "Helvetica" @fontweight "normal" @fontslant "roman" @fontsize 13 @label "(null)" @label_inner 0 @label_side "top" @label_align "left" @label_valign "top" @label_margins 0 0 @min 0 @max 0.99 @display_only 0 @digits -1;
#X obj 639 265 ui.number @size 53 15 @receive "(null)" @send "(null)" @nosave 0 @pinned 0 @presetname "(null)" @background_color 0.93 0.93 0.93 1 @border_color 0.6 0.6 0.6 1 @label_color 0 0 0 1 @active_color 0 0.75 1 1 @text_color 0 0 0 1 @fontname "Helvetica" @fontweight "normal" @fontslant "roman" @fontsize 13 @label "(null)" @label_inner 0 @label_side "top" @label_align "left" @label_valign "top" @label_margins 0 0 @min 0 @max 1 @display_only 0 @digits -1;
#X msg 528 208 @damp \$1;
#X msg 639 287 @diff \$1;
#X msg 639 208 @room \$1;
#X obj 113 264 hoa.process~ 3 hoa.fx.freeverb~ harmonics "@wet" 1 "@dry" 0 "@room" 0.75 "@damp" 0.5 "@diff" 0.75, f 31;
#X obj 6 225 ui.radio @size 105 15 @receive "(null)" @send "(null)" @nosave 0 @pinned 0 @presetname "(null)" @mouse_events 0 @background_color 0.93 0.93 0.93 1 @border_color 0.6 0.6 0.6 1 @label_color 0 0 0 1 @active_color 0 0.75 1 1 @fontname "Helvetica" @fontweight "normal" @fontslant "roman" @fontsize 11 @label "(null)" @label_inner 0 @label_side "top" @label_align "left" @label_valign "top" @label_margins 0 0 @nitems 7 @mode 0;
#X msg 6 247 open \$1;
#X obj 113 538 hoa.2d.decoder~ 3 regular 8, f 31;
#N canvas 1165 416 230 227 ini 0;
#X obj 37 37 msg.onload @name?;
#X obj 37 59 canvas.top;
#X obj 37 81 prop-> @name;
#X obj 71 102 outlet;
#X connect 0 0 1 0;
#X connect 1 0 2 0;
#X connect 2 1 3 0;
#X restore 2 26 pd ini;
#X connect 2 0 10 0;
#X connect 3 0 9 0;
#X connect 9 0 13 0;
#X connect 10 0 13 1;
#X connect 13 0 31 0;
#X connect 13 1 31 1;
#X connect 13 2 31 2;
#X connect 13 3 31 3;
#X connect 13 4 31 4;
#X connect 13 5 31 5;
#X connect 13 6 31 6;
#X connect 16 0 21 0;
#X connect 17 0 24 0;
#X connect 18 0 25 0;
#X connect 19 0 26 0;
#X connect 20 0 27 0;
#X connect 21 0 22 0;
#X connect 22 0 31 7;
#X connect 23 0 31 7;
#X connect 24 0 23 0;
#X connect 25 0 28 0;
#X connect 26 0 30 0;
#X connect 27 0 29 0;
#X connect 28 0 31 7;
#X connect 29 0 31 7;
#X connect 30 0 31 7;
#X connect 31 0 15 0;
#X connect 31 0 34 0;
#X connect 31 1 15 1;
#X connect 31 1 34 1;
#X connect 31 2 15 2;
#X connect 31 2 34 2;
#X connect 31 3 15 3;
#X connect 31 3 34 3;
#X connect 31 4 15 4;
#X connect 31 4 34 4;
#X connect 31 5 15 5;
#X connect 31 5 34 5;
#X connect 31 6 15 6;
#X connect 31 6 34 6;
#X connect 32 0 33 0;
#X connect 33 0 31 0;
#X connect 34 0 14 0;
#X connect 34 1 14 1;
#X connect 34 2 14 2;
#X connect 34 3 14 3;
#X connect 34 4 14 4;
#X connect 34 5 14 5;
#X connect 34 6 14 6;
#X connect 34 7 14 7;
#X connect 35 0 11 0;
#X coords 0 737 1 736 100 60 0;
