#N canvas 992 551 570 676 10;
#X obj 320 100 phasor~ -0.3;
#X text 6 196 basic has no effect.;
#X text 6 225 confined to the center of the;
#X obj 214 125 hoa.soundcoat;
#X text 5 254 inPhase is used when audience;
#X text 9 302 Important : the optimization;
#X text 9 312 can be changed in real time;
#X text 9 322 but this is not a good practice.;
#X text 9 332 You should only use this;
#X text 9 343 option for your tests.;
#X obj 3 4 hoa.help.header;
#X obj 110 606 hoa.help.pub;
#X obj 414 4 hoa.help.also;
#X obj 215 268 hoa.3d.scope~ @size 219 219 @receive "(null)" @send "(null)" @nosave 0 @pinned 0 @background_color 0.93 0.93 0.93 1 @border_color 0.6 0.6 0.6 1 @label_color 0 0 0 1 @ph_color 1 0 0 1 @nh_color 0 0 1 1 @fontname "Helvetica" @fontweight "normal" @fontslant "roman" @fontsize 11 @label "(null)" @label_inner 0 @label_side "top" @label_align "left" @label_valign "top" @label_margins 0 0 @gain 20 @refresh 100 @order 3 @view 0 0 0;
#X obj 214 153 hoa.3d.encoder~ 3 ------------------;
#X obj 215 526 hoa.3d.decoder~ 3 regular 20 -------;
#X text 4 48 hoa.3d.optim~ weights the spherical harmonics signals depending on the optimization.;
#X text 6 235 the sphere.;
#X obj 427 100 sig~ 0;
#X text 5 264 coverzs all the sphere.;
#X text 6 215 maxRe is used when audience is;
#X obj 215 574 xdac~ 1:20, f 36;
#X obj 469 229 ui.dsp~ @size 30 30 @receive "(null)" @send "(null)" @nosave 0 @pinned 0 @background_color 0.93 0.93 0.93 1 @border_color 0.6 0.6 0.6 1 @label_color 0 0 0 1 @active_color 0 0.75 1 1 @fontname "Helvetica" @fontweight "normal" @fontslant "roman" @fontsize 11 @label "(null)" @label_inner 0 @label_side "top" @label_align "left" @label_valign "top" @label_margins 0 0;
#X obj 320 125 phase->rad~;
#X obj 427 125 phase->rad~;
#X obj 105 148 ui.menu @size 100 16 @receive "(null)" @send "(null)" @nosave 0 @pinned 0 @presetname "ui.menu.0" @background_color 0.93 0.93 0.93 1 @border_color 0.6 0.6 0.6 1 @label_color 0 0 0 1 @text_color 0 0 0 1 @active_color 0 0.75 1 1 @fontname "Helvetica" @fontweight "normal" @fontslant "roman" @fontsize 11 @label "(null)" @label_inner 0 @label_side "top" @label_align "left" @label_valign "top" @label_margins 0 0 @items "basic" "maxre" "inphase" @max_length 100;
#X obj 105 116 msg.onload set 1;
#X msg 105 169 @mode \$2;
#X obj 214 192 hoa.3d.optim~ 3 maxre, f 36;
#N canvas 121 146 449 359 init 0;
#X obj 175 84 msg.onload @name?;
#X obj 175 106 canvas.top;
#X obj 175 128 prop-> @name;
#X obj 209 153 outlet;
#X connect 0 0 1 0;
#X connect 1 0 2 0;
#X connect 2 1 3 0;
#X restore 13 11 pd init;
#X f 4;
#X connect 0 0 23 0;
#X connect 3 0 14 0;
#X connect 14 0 28 0;
#X connect 14 1 28 1;
#X connect 14 2 28 2;
#X connect 14 3 28 3;
#X connect 14 4 28 4;
#X connect 14 5 28 5;
#X connect 14 6 28 6;
#X connect 14 7 28 7;
#X connect 14 8 28 8;
#X connect 14 9 28 9;
#X connect 14 10 28 10;
#X connect 14 11 28 11;
#X connect 14 12 28 12;
#X connect 14 13 28 13;
#X connect 14 14 28 14;
#X connect 14 15 28 15;
#X connect 15 0 21 0;
#X connect 15 1 21 1;
#X connect 15 2 21 2;
#X connect 15 3 21 3;
#X connect 15 4 21 4;
#X connect 15 5 21 5;
#X connect 15 6 21 6;
#X connect 15 7 21 7;
#X connect 15 8 21 8;
#X connect 15 9 21 9;
#X connect 15 10 21 10;
#X connect 15 11 21 11;
#X connect 15 12 21 12;
#X connect 15 13 21 13;
#X connect 15 14 21 14;
#X connect 15 15 21 15;
#X connect 15 16 21 16;
#X connect 15 17 21 17;
#X connect 15 18 21 18;
#X connect 15 19 21 19;
#X connect 18 0 24 0;
#X connect 23 0 14 1;
#X connect 24 0 14 2;
#X connect 25 0 27 0;
#X connect 26 0 25 0;
#X connect 27 0 28 0;
#X connect 28 0 13 0;
#X connect 28 0 15 0;
#X connect 28 1 13 1;
#X connect 28 1 15 1;
#X connect 28 2 13 2;
#X connect 28 2 15 2;
#X connect 28 3 13 3;
#X connect 28 3 15 3;
#X connect 28 4 13 4;
#X connect 28 4 15 4;
#X connect 28 5 13 5;
#X connect 28 5 15 5;
#X connect 28 6 13 6;
#X connect 28 6 15 6;
#X connect 28 7 13 7;
#X connect 28 7 15 7;
#X connect 28 8 13 8;
#X connect 28 8 15 8;
#X connect 28 9 13 9;
#X connect 28 9 15 9;
#X connect 28 10 13 10;
#X connect 28 10 15 10;
#X connect 28 11 13 11;
#X connect 28 11 15 11;
#X connect 28 12 13 12;
#X connect 28 12 15 12;
#X connect 28 13 13 13;
#X connect 28 13 15 13;
#X connect 28 14 13 14;
#X connect 28 14 15 14;
#X connect 28 15 13 15;
#X connect 28 15 15 15;
#X connect 29 0 10 0;
#X coords 0 676 1 675 100 60 0;
