#N canvas 384 211 655 411 10;
#X obj 25 25 msg.onload @name?;
#X obj 25 47 canvas.top;
#X obj 25 25 prop-> @name;
#X obj 21 22 hoa.help.header;
#X obj 67 267 ui.gain~ @size 120 15 @receive "(null)" @send "(null)"
@pinned 0 @presetname "ui.hgain~.0" @mouse_events 0 @background_color
0.93 0.93 0.93 1 @border_color 0.6 0.6 0.6 1 @label_color 0 0 0 1 @knob_color
0 0.75 1 1 @fontname "Helvetica" @fontweight "normal" @fontslant "roman"
@fontsize 11 @label "(null)" @label_inner 0 @label_side "top" @label_align
"left" @label_valign "top" @label_margins 0 0 @max 0 @min -60 @output_value
0 @relative 1 @midi_channel 0 @midi_control 0 @midi_pickup 1 @show_range
1;
#X obj 67 307 dac~;
#X obj 437 22 hoa.help.also;
#X obj 579 22 ui.dsp~ @size 42 42 @receive "(null)" @send "(null)"
@pinned 0 @background_color 0.93 0.93 0.93 1 @border_color 0.6 0.6
0.6 1 @label_color 0 0 0 1 @active_color 0 0.75 1 1 @fontname "Helvetica"
@fontweight "normal" @fontslant "roman" @fontsize 11 @label "(null)"
@label_inner 0 @label_side "top" @label_align "left" @label_valign
"top" @label_margins 0 0;
#X obj 67 145 osc~ 400;
#X obj 67 245 hoa.process~ 4 hoa.fx.sum~ planewaves;
#X obj 140 145 osc~ 600;
#X obj 213 145 osc~ 800;
#X obj 286 145 osc~ 1000;
#X connect 0 0 1 0;
#X connect 1 0 2 0;
#X connect 2 1 3 0;
#X connect 4 0 5 0;
#X connect 4 0 5 1;
#X connect 8 0 9 0;
#X connect 9 0 4 0;
#X connect 10 0 9 1;
#X connect 11 0 9 2;
#X connect 12 0 9 3;
