#N canvas 498 433 797 456 10;
#X obj 144 351 hoa.out~;
#X text 118 243 Receive the signal;
#X text 120 373 Output the signal;
#X obj 144 309 *~;
#X obj 255 269 line~;
#X msg 255 247 \$1 20;
#N canvas 1041 597 450 300 print.domain.error 0;
#X obj 6 133 sel 0;
#X obj 5 214 print hoa.syn.encoder~;
#X msg 6 163 only valid in the circular harmonics domain.;
#X obj 6 24 inlet;
#X obj 6 54 symbol.equal harmonics;
#X connect 0 0 2 0;
#X connect 2 0 1 0;
#X connect 3 0 4 0;
#X connect 4 0 0 0;
#X restore 140 98 pd print.domain.error;
#X text 299 15 This hoa.processing shows what performs the encoding of a signal in the circular harmonics domain.;
#N canvas 980 455 450 300 exp_img 0;
#X obj 139 109 spigot;
#X obj 216 109 spigot;
#X obj 172 82 >= 0;
#X obj 139 181 *;
#X obj 179 245 outlet;
#X obj 154 161 abs;
#X obj 139 203 cos;
#X obj 249 82 < 0;
#X obj 216 181 *;
#X obj 231 161 abs;
#X obj 216 203 sin;
#X obj 186 9 inlet;
#X text 12 196 e^i|m|θ = cos(|m|θ);
#X text 252 186 else if m < 0;
#X text 262 196 e^i|m|θ = sin(|m|θ);
#X text 2 186 if m >= 0, f 10;
#X obj 249 61 r \$0-order;
#X obj 231 141 r \$0-order;
#X obj 154 141 r \$0-order;
#X obj 172 61 r \$0-order;
#X connect 0 0 3 0;
#X connect 1 0 8 0;
#X connect 2 0 0 1;
#X connect 3 0 6 0;
#X connect 5 0 3 1;
#X connect 6 0 4 0;
#X connect 7 0 1 1;
#X connect 8 0 10 0;
#X connect 9 0 8 1;
#X connect 10 0 4 0;
#X connect 11 0 1 0;
#X connect 11 0 0 0;
#X connect 16 0 7 0;
#X connect 17 0 9 0;
#X connect 18 0 5 0;
#X connect 19 0 2 0;
#X restore 255 216 pd exp_img;
#X text 260 199 e^i|m|θ;
#X obj 54 145 s \$0-degree;
#X obj 97 122 s \$0-order;
#X text 133 144 l;
#X text 165 121 m;
#X obj 187 166 f 0;
#X obj 10 10 switch~;
#X obj 144 265 hoa.in~ 1;
#X obj 12 52 hoa.@process;
#X text 213 121 Extra: Receive the azimuth (in radian).;
#X obj 187 143 loadbang;
#X obj 255 141 hoa.in;
#X obj 12 74 prop-> @degree @horder @ptype;
#X obj 12 31 msg.onload @hdegree? @ptype? @horder?;
#X connect 3 0 0 0;
#X connect 4 0 3 1;
#X connect 5 0 4 0;
#X connect 8 0 5 0;
#X connect 14 0 8 0;
#X connect 16 0 3 0;
#X connect 17 0 21 0;
#X connect 19 0 14 0;
#X connect 20 0 8 0;
#X connect 21 1 10 0;
#X connect 21 2 11 0;
#X connect 21 3 6 0;
#X connect 22 0 17 0;
