#N canvas 820 348 888 663 10;
#X obj 198 602 hoa.help.pub;
#X obj 3 4 hoa.tuto.header;
#X text 11 293 Number of harmonics;
#X text 191 163 Number of harmonics;
#X obj 376 26 s norder;
#X obj 459 25 s nharmo;
#X msg 216 519 0 -1 0 1;
#N canvas 1480 171 410 369 hoaNumbering 0;
#X obj 145 69 inlet;
#X obj 145 236 outlet;
#X obj 145 139 list.seq;
#X obj 145 161 list.each;
#X msg 145 116 1 \$1;
#X obj 145 183 list.prepend 0;
#X obj 145 205 msg set;
#X obj 145 91 + 1;
#X obj 229 160 list.seq;
#X obj 229 127 pack f f;
#X obj 229 93 expr -$f1 \; $f1+1 \;, f 13;
#X connect 0 0 7 0;
#X connect 2 0 3 0;
#X connect 3 0 5 0;
#X connect 3 1 10 0;
#X connect 4 0 2 0;
#X connect 5 0 6 0;
#X connect 6 0 1 0;
#X connect 7 0 4 0;
#X connect 8 0 3 1;
#X connect 9 0 8 0;
#X connect 10 0 9 0;
#X connect 10 1 9 1;
#X restore 216 474 pd hoaNumbering;
#X msg 16 519 0 1 1 1 2 2 2 2 2 3 3 3 3 3 3 3;
#N canvas 1363 217 497 280 hoaNumbering 0;
#X obj 165 19 inlet;
#X obj 165 186 outlet;
#X obj 165 89 list.seq;
#X obj 165 111 list.each;
#X msg 165 66 1 \$1;
#X obj 249 110 list.repeat;
#X obj 249 63 expr $f1 \; 2*($f1+1)-1, f 14;
#X obj 165 133 list.prepend 0;
#X obj 165 155 msg set;
#X obj 165 41 + 1;
#X connect 0 0 9 0;
#X connect 2 0 3 0;
#X connect 3 0 7 0;
#X connect 3 1 6 0;
#X connect 4 0 2 0;
#X connect 5 0 3 1;
#X connect 6 0 5 0;
#X connect 6 1 5 1;
#X connect 7 0 8 0;
#X connect 8 0 1 0;
#X connect 9 0 4 0;
#X restore 16 474 pd hoaNumbering;
#X msg 494 267 0 1 2 3 4 5 6 7 8 9 10 11 12 13 14;
#N canvas 801 544 455 323 hoaNumbering 0;
#X obj 95 9 inlet;
#X obj 95 261 outlet;
#X obj 95 55 + 1;
#X obj 95 77 pow 2;
#X obj 95 99 - 1;
#X obj 95 121 list.seq;
#X obj 95 143 msg set;
#X connect 0 0 2 0;
#X connect 2 0 3 0;
#X connect 3 0 4 0;
#X connect 4 0 5 0;
#X connect 5 0 6 0;
#X connect 6 0 1 0;
#X restore 494 222 pd hoaNumbering;
#X text 488 293 ACN of the harmonics;
#X msg 496 519 W Y Z X V T R S U Q O M K L N P;
#N canvas 1231 272 908 474 hoaNumbering 0;
#X obj 95 34 t f b, f 7;
#X obj 95 9 inlet;
#X obj 95 381 outlet;
#X obj 95 61 + 1;
#X obj 95 87 pow 2;
#X obj 95 132 list.seq;
#X obj 95 286 msg set;
#X obj 95 154 list.map [0: W 1: Y 2: Z 3: X 4: V 5: T 6: R 7: S 8: U 9: Q 10: O 11: M 12: K 13: L 14: N 15: P] @def ?, f 32;
#X connect 0 0 3 0;
#X connect 1 0 0 0;
#X connect 3 0 4 0;
#X connect 4 0 5 0;
#X connect 5 0 7 0;
#X connect 6 0 2 0;
#X connect 7 0 6 0;
#X restore 496 474 pd hoaNumbering;
#X text 490 545 Letter codes of the harmonics;
#X obj 16 214 + 1;
#X obj 16 240 pow 2;
#X obj 196 214 sqrt;
#X obj 196 240 - 1;
#X text 11 163 Order of decomposition N;
#X text 191 293 Order of decomposition N;
#X text 489 163 Order of decomposition N;
#X text 491 415 Order of decomposition N;
#X text 211 415 Order of decomposition N;
#X text 11 415 Order of decomposition N;
#X text 211 545 Orders of the harmonics m;
#X text 11 545 Degrees of the harmonics l;
#X text 12 106 The number of harmonics depends on the order of decomposition N:;
#X text 15 356 An harmonic is defined by a degree l and an order m thus it can be noted h[l \, m]:;
#X text 483 356 The letter codes of the harmonics are not in the alphabetic order:;
#X text 481 104 The numbering of the harmonics channels is similar to the ACN even if the use of the degrees and the orders is preferred:;
#X obj 376 5 msg.onload 3;
#X obj 459 4 msg.onload 16;
#N canvas 121 146 444 281 init 0;
#X obj 180 67 msg.onload @name?;
#X obj 180 89 canvas.top;
#X obj 180 111 prop-> @name;
#X obj 214 139 outlet;
#X connect 0 0 1 0;
#X connect 1 0 2 0;
#X connect 2 1 3 0;
#X restore 4 15 pd init;
#X f 5;
#X text 5 20 comment;
#X obj 16 187 ui.number @size 53 17 @receive "norder" @send "(null)" @nosave 0 @pinned 0 @presetname "ui.number.15" @background_color 0.93 0.93 0.93 1 @border_color 0.6 0.6 0.6 1 @label_color 0 0 0 1 @active_color 0 0.75 1 1 @text_color 0 0 0 1 @fontname "Helvetica" @fontweight "normal" @fontslant "roman" @fontsize 11 @label "(null)" @label_inner 0 @label_side "top" @label_align "left" @label_valign "top" @label_margins 0 0 @min 1 @max 3.40282e+38 @digits -1;
#X obj 16 267 ui.number @size 53 17 @receive "(null)" @send "(null)" @nosave 0 @pinned 0 @presetname "ui.number.16" @background_color 0.93 0.93 0.93 1 @border_color 0.6 0.6 0.6 1 @label_color 0 0 0 1 @active_color 0 0.75 1 1 @text_color 0 0 0 1 @fontname "Helvetica" @fontweight "normal" @fontslant "roman" @fontsize 11 @label "(null)" @label_inner 0 @label_side "top" @label_align "left" @label_valign "top" @label_margins 0 0 @min -3.40282e+38 @max 3.40282e+38 @digits -1;
#X obj 196 187 ui.number @size 53 17 @receive "nharmo" @send "(null)" @nosave 0 @pinned 0 @presetname "ui.number.17" @background_color 0.93 0.93 0.93 1 @border_color 0.6 0.6 0.6 1 @label_color 0 0 0 1 @active_color 0 0.75 1 1 @text_color 0 0 0 1 @fontname "Helvetica" @fontweight "normal" @fontslant "roman" @fontsize 11 @label "(null)" @label_inner 0 @label_side "top" @label_align "left" @label_valign "top" @label_margins 0 0 @min 4 @max 64 @digits -1;
#X obj 196 267 ui.number @size 53 17 @receive "(null)" @send "(null)" @nosave 0 @pinned 0 @presetname "ui.number.18" @background_color 0.93 0.93 0.93 1 @border_color 0.6 0.6 0.6 1 @label_color 0 0 0 1 @active_color 0 0.75 1 1 @text_color 0 0 0 1 @fontname "Helvetica" @fontweight "normal" @fontslant "roman" @fontsize 11 @label "(null)" @label_inner 0 @label_side "top" @label_align "left" @label_valign "top" @label_margins 0 0 @min -3.40282e+38 @max 3.40282e+38 @digits -1;
#X obj 494 187 ui.number @size 53 17 @receive "norder" @send "(null)" @nosave 0 @pinned 0 @presetname "ui.number.19" @background_color 0.93 0.93 0.93 1 @border_color 0.6 0.6 0.6 1 @label_color 0 0 0 1 @active_color 0 0.75 1 1 @text_color 0 0 0 1 @fontname "Helvetica" @fontweight "normal" @fontslant "roman" @fontsize 11 @label "(null)" @label_inner 0 @label_side "top" @label_align "left" @label_valign "top" @label_margins 0 0 @min 1 @max 16 @digits -1;
#X obj 16 439 ui.number @size 53 17 @receive "norder" @send "(null)" @nosave 0 @pinned 0 @presetname "ui.number.20" @background_color 0.93 0.93 0.93 1 @border_color 0.6 0.6 0.6 1 @label_color 0 0 0 1 @active_color 0 0.75 1 1 @text_color 0 0 0 1 @fontname "Helvetica" @fontweight "normal" @fontslant "roman" @fontsize 11 @label "(null)" @label_inner 0 @label_side "top" @label_align "left" @label_valign "top" @label_margins 0 0 @min 1 @max 16 @digits -1;
#X obj 216 439 ui.number @size 53 17 @receive "norder" @send "(null)" @nosave 0 @pinned 0 @presetname "ui.number.21" @background_color 0.93 0.93 0.93 1 @border_color 0.6 0.6 0.6 1 @label_color 0 0 0 1 @active_color 0 0.75 1 1 @text_color 0 0 0 1 @fontname "Helvetica" @fontweight "normal" @fontslant "roman" @fontsize 11 @label "(null)" @label_inner 0 @label_side "top" @label_align "left" @label_valign "top" @label_margins 0 0 @min 1 @max 16 @digits -1;
#X obj 496 439 ui.number @size 53 17 @receive "norder" @send "(null)" @nosave 0 @pinned 0 @presetname "ui.number.22" @background_color 0.93 0.93 0.93 1 @border_color 0.6 0.6 0.6 1 @label_color 0 0 0 1 @active_color 0 0.75 1 1 @text_color 0 0 0 1 @fontname "Helvetica" @fontweight "normal" @fontslant "roman" @fontsize 11 @label "(null)" @label_inner 0 @label_side "top" @label_align "left" @label_valign "top" @label_margins 0 0 @min 1 @max 16 @digits -1;
#X connect 7 0 6 0;
#X connect 9 0 8 0;
#X connect 11 0 10 0;
#X connect 14 0 13 0;
#X connect 16 0 17 0;
#X connect 17 0 37 0;
#X connect 18 0 19 0;
#X connect 19 0 39 0;
#X connect 32 0 4 0;
#X connect 33 0 5 0;
#X connect 34 0 1 0;
#X connect 36 0 16 0;
#X connect 38 0 18 0;
#X connect 40 0 11 0;
#X connect 41 0 9 0;
#X connect 42 0 7 0;
#X connect 43 0 14 0;
