#N canvas 1320 253 888 666 10;
#X obj 201 605 hoa.help.pub;
#X obj 6 7 hoa.tuto.header;
#X text 14 296 Number of harmonics;
#X obj 19 217 * 2;
#X obj 19 243 + 1;
#X text 194 166 Number of harmonics;
#X obj 199 217 - 1;
#X obj 199 243 / 2;
#X obj 379 29 s norder;
#X obj 462 28 s nharmo;
#X msg 219 522 0 -1 1 -2 2 -3 3 -4 4 -5 5 -6 6 -7 7;
#N canvas 642 627 617 430 hoaNumbering 0;
#X obj 195 49 inlet;
#X obj 195 261 outlet;
#X obj 195 71 + 1;
#X msg 195 93 1 \$1;
#X obj 195 137 t l l;
#X obj 195 163 math.* -1;
#X obj 195 185 list.zip;
#X obj 195 207 list.prepend 0;
#X obj 195 229 msg set;
#X obj 195 115 list.seq;
#X connect 0 0 2 0;
#X connect 2 0 3 0;
#X connect 3 0 9 0;
#X connect 4 0 5 0;
#X connect 4 1 6 1;
#X connect 5 0 6 0;
#X connect 6 0 7 0;
#X connect 7 0 8 0;
#X connect 8 0 1 0;
#X connect 9 0 4 0;
#X restore 219 477 pd hoaNumbering;
#X msg 19 522 0 1 1 2 2 3 3 4 4 5 5 6 6 7 7;
#N canvas 755 685 450 300 hoaNumbering 0;
#X obj 95 9 inlet;
#X obj 95 221 outlet;
#X msg 95 71 1 \$1;
#X obj 95 101 list.seq;
#X obj 95 41 + 1;
#X obj 95 123 t l l;
#X obj 95 151 list.zip;
#X obj 95 173 list.prepend 0;
#X obj 95 195 msg set;
#X connect 0 0 4 0;
#X connect 2 0 3 0;
#X connect 3 0 5 0;
#X connect 4 0 2 0;
#X connect 5 0 6 0;
#X connect 5 1 6 1;
#X connect 6 0 7 0;
#X connect 7 0 8 0;
#X connect 8 0 1 0;
#X restore 19 477 pd hoaNumbering;
#N canvas 892 537 450 300 hoaNumbering 0;
#X obj 175 49 inlet;
#X obj 175 171 outlet;
#X obj 175 121 list.seq;
#X obj 175 71 * 2;
#X obj 175 93 + 1;
#X obj 175 143 msg set;
#X connect 0 0 3 0;
#X connect 2 0 5 0;
#X connect 3 0 4 0;
#X connect 4 0 2 0;
#X connect 5 0 1 0;
#X restore 497 225 pd hoaNumbering;
#X text 491 296 ACN of the harmonics;
#X msg 499 522 W Y X V U Q P;
#N canvas 733 325 814 411 hoaNumbering 0;
#X obj 175 89 inlet;
#X obj 175 271 outlet;
#X obj 175 118 * 2;
#X obj 175 183 list.seq;
#X obj 175 140 + 1;
#X obj 175 249 msg set;
#X obj 175 205 list.map [0: W 1: Y 2: X 3: V 4: U 5: Q 6: P] @def ?;
#X msg 175 162 0 \$1;
#X connect 0 0 2 0;
#X connect 2 0 4 0;
#X connect 3 0 6 0;
#X connect 4 0 7 0;
#X connect 5 0 1 0;
#X connect 6 0 5 0;
#X connect 7 0 3 0;
#X restore 499 477 pd hoaNumbering;
#X text 493 548 Letter codes of the harmonics;
#X text 14 166 Order of decomposition N;
#X text 194 296 Order of decomposition N;
#X text 492 166 Order of decomposition N;
#X text 494 418 Order of decomposition N;
#X text 14 418 Order of decomposition N;
#X text 14 548 Degrees of the harmonics l;
#X text 214 418 Order of decomposition N;
#X text 214 548 Orders of the harmonics m;
#X text 15 109 The number of harmonics depends on the order of decomposition N:;
#X text 18 359 An harmonic is defined by a degree l and an order m thus it can be noted h[l \, m]. In 2d \, the degree l is rarely used because it is equal to the absolute value of the order m:;
#X text 484 107 The numbering of the harmonics channels is similar to the ACN even if the use of the degrees and the orders is preferred:;
#X text 486 359 The letter codes of the harmonics are not in the alphabetic order:;
#X obj 462 7 msg.onload 15;
#X obj 379 8 msg.onload 7;
#X obj 19 190 ui.number @size 53 17 @receive "norder" @send "(null)" @nosave 0 @pinned 0 @presetname "ui.number.5" @background_color 0.93 0.93 0.93 1 @border_color 0.6 0.6 0.6 1 @label_color 0 0 0 1 @active_color 0 0.75 1 1 @text_color 0 0 0 1 @fontname "Helvetica" @fontweight "normal" @fontslant "roman" @fontsize 11 @label "(null)" @label_inner 0 @label_side "top" @label_align "left" @label_valign "top" @label_margins 0 0 @min 1 @max 3.40282e+38 @digits -1;
#X obj 199 190 ui.number @size 53 17 @receive "nharmo" @send "(null)" @nosave 0 @pinned 0 @presetname "ui.number.6" @background_color 0.93 0.93 0.93 1 @border_color 0.6 0.6 0.6 1 @label_color 0 0 0 1 @active_color 0 0.75 1 1 @text_color 0 0 0 1 @fontname "Helvetica" @fontweight "normal" @fontslant "roman" @fontsize 11 @label "(null)" @label_inner 0 @label_side "top" @label_align "left" @label_valign "top" @label_margins 0 0 @min 3 @max 3.40282e+38 @digits -1;
#X obj 497 190 ui.number @size 53 17 @receive "norder" @send "(null)" @nosave 0 @pinned 0 @presetname "ui.number.7" @background_color 0.93 0.93 0.93 1 @border_color 0.6 0.6 0.6 1 @label_color 0 0 0 1 @active_color 0 0.75 1 1 @text_color 0 0 0 1 @fontname "Helvetica" @fontweight "normal" @fontslant "roman" @fontsize 11 @label "(null)" @label_inner 0 @label_side "top" @label_align "left" @label_valign "top" @label_margins 0 0 @min 1 @max 64 @digits -1;
#X obj 19 270 ui.number @size 53 17 @receive "(null)" @send "(null)" @nosave 0 @pinned 0 @presetname "ui.number.8" @background_color 0.93 0.93 0.93 1 @border_color 0.6 0.6 0.6 1 @label_color 0 0 0 1 @active_color 0 0.75 1 1 @text_color 0 0 0 1 @fontname "Helvetica" @fontweight "normal" @fontslant "roman" @fontsize 11 @label "(null)" @label_inner 0 @label_side "top" @label_align "left" @label_valign "top" @label_margins 0 0 @min -3.40282e+38 @max 3.40282e+38 @digits -1;
#X obj 199 270 ui.number @size 53 17 @receive "(null)" @send "(null)" @nosave 0 @pinned 0 @presetname "ui.number.9" @background_color 0.93 0.93 0.93 1 @border_color 0.6 0.6 0.6 1 @label_color 0 0 0 1 @active_color 0 0.75 1 1 @text_color 0 0 0 1 @fontname "Helvetica" @fontweight "normal" @fontslant "roman" @fontsize 11 @label "(null)" @label_inner 0 @label_side "top" @label_align "left" @label_valign "top" @label_margins 0 0 @min -3.40282e+38 @max 3.40282e+38 @digits -1;
#N canvas 150 175 245 294 init 0;
#X obj 85 83 msg.onload @name?;
#X obj 85 105 canvas.top;
#X obj 85 127 prop-> @name;
#X obj 118 158 outlet;
#X connect 0 0 1 0;
#X connect 1 0 2 0;
#X connect 2 1 3 0;
#X restore 6 18 pd init;
#X f 6;
#X text 8 13 comment;
#X msg 497 270 0 1 2 3 4 5 6 7 8 9 10 11 12 13 14;
#X obj 19 442 ui.number @size 53 17 @receive "norder" @send "(null)" @nosave 0 @pinned 0 @presetname "ui.number.12" @background_color 0.93 0.93 0.93 1 @border_color 0.6 0.6 0.6 1 @label_color 0 0 0 1 @active_color 0 0.75 1 1 @text_color 0 0 0 1 @fontname "Helvetica" @fontweight "normal" @fontslant "roman" @fontsize 11 @label "(null)" @label_inner 0 @label_side "top" @label_align "left" @label_valign "top" @label_margins 0 0 @min 1 @max 3.40282e+38 @digits -1;
#X obj 219 442 ui.number @size 53 17 @receive "norder" @send "(null)" @nosave 0 @pinned 0 @presetname "ui.number.13" @background_color 0.93 0.93 0.93 1 @border_color 0.6 0.6 0.6 1 @label_color 0 0 0 1 @active_color 0 0.75 1 1 @text_color 0 0 0 1 @fontname "Helvetica" @fontweight "normal" @fontslant "roman" @fontsize 11 @label "(null)" @label_inner 0 @label_side "top" @label_align "left" @label_valign "top" @label_margins 0 0 @min 1 @max 3.40282e+38 @digits -1;
#X obj 499 442 ui.number @size 53 17 @receive "norder" @send "(null)" @nosave 0 @pinned 0 @presetname "ui.number.14" @background_color 0.93 0.93 0.93 1 @border_color 0.6 0.6 0.6 1 @label_color 0 0 0 1 @active_color 0 0.75 1 1 @text_color 0 0 0 1 @fontname "Helvetica" @fontweight "normal" @fontslant "roman" @fontsize 11 @label "(null)" @label_inner 0 @label_side "top" @label_align "left" @label_valign "top" @label_margins 0 0 @min 1 @max 64 @digits -1;
#X connect 3 0 4 0;
#X connect 4 0 36 0;
#X connect 6 0 7 0;
#X connect 7 0 37 0;
#X connect 11 0 10 0;
#X connect 13 0 12 0;
#X connect 14 0 40 0;
#X connect 17 0 16 0;
#X connect 31 0 9 0;
#X connect 32 0 8 0;
#X connect 33 0 3 0;
#X connect 34 0 6 0;
#X connect 35 0 14 0;
#X connect 38 0 1 0;
#X connect 41 0 13 0;
#X connect 42 0 11 0;
#X connect 43 0 17 0;
