#N canvas 247 104 876 589 10;
#X obj 45 1 cnv 15 354 40 empty \$0-hoa.header HOA 10 12 0 14 -233017
-66577 0;
#X obj 444 462 s \$0-hoa.header;
#X obj 443 32 inlet;
#X obj 284 80 namecanvas \$0-r;
#X msg 490 85 read hoa.objects.txt;
#X obj 478 413 s \$0-r;
#X msg 444 432 label \$1;
#X obj 410 335 list split 1;
#X obj 444 355 list split 1;
#X obj 490 145 textfile;
#X obj 458 115 until;
#X obj 473 278 f 1;
#X obj 506 277 f 0;
#X obj 410 300 spigot 0;
#X obj 473 224 sel sa;
#X msg 511 115 rewind;
#X obj 410 174 list;
#X obj 506 252 bang;
#X obj 410 198 t list symbol;
#X obj 443 62 t b b b b s;
#X obj 478 385 prepend text 46 23;
#X text 46 23 High Order Ambisonics Library.;
#X obj 541 35 canvas.top;
#X obj 541 11 msg.onload @name?;
#X obj 541 57 prop-> @name;
#X connect 2 0 19 0;
#X connect 4 0 9 0;
#X connect 6 0 1 0;
#X connect 7 1 8 0;
#X connect 7 1 6 0;
#X connect 8 1 20 0;
#X connect 9 0 16 0;
#X connect 9 1 10 1;
#X connect 10 0 9 0;
#X connect 11 0 13 1;
#X connect 12 0 13 1;
#X connect 13 0 7 0;
#X connect 14 0 11 0;
#X connect 14 1 17 0;
#X connect 15 0 9 0;
#X connect 16 0 18 0;
#X connect 17 0 12 0;
#X connect 18 0 13 0;
#X connect 18 1 14 0;
#X connect 19 1 10 0;
#X connect 19 2 15 0;
#X connect 19 3 4 0;
#X connect 19 4 14 1;
#X connect 20 0 5 0;
#X connect 22 0 24 0;
#X connect 23 0 22 0;
#X connect 24 1 19 0;
#X coords 0 -1 1 1 400 42 2 0 0;
