#N canvas 394 82 722 655 10;
#X obj 16 185 hoa.scope~ @size 214 214 @receive "(null)" @send "(null)" @nosave 0 @pinned 0 @background_color 0.93 0.93 0.93 1 @border_color 0.6 0.6 0.6 1 @label_color 0 0 0 1 @ph_color 1 0 0 1 @nh_color 0 0 1 1 @fontname "Helvetica" @fontweight "normal" @fontslant "roman" @fontsize 11 @label "(null)" @label_inner 0 @label_side "top" @label_align "left" @label_valign "top" @label_margins 0 0 @gain 5 @refresh 100 @order 7 @view 0;
#X obj 3 3 hoa.tuto.header;
#X obj 305 595 hoa.help.pub;
#X obj 17 425 ui.cmeter~ @size 214 214 @receive "(null)" @send "(null)" @nosave 0 @pinned 0 @background_color 0.93 0.93 0.93 1 @border_color 0.6 0.6 0.6 1 @label_color 0 0 0 1 @cold_color 0 0.6 0 1 @tepid_color 0.6 0.73 0 1 @warm_color 0.85 0.85 0 1 @hot_color 1 0.6 0 1 @over_color 1 0 0 1 @fontname "Helvetica" @fontweight "normal" @fontslant "roman" @fontsize 11 @label "(null)" @label_inner 0 @label_side "top" @label_align "left" @label_valign "top" @label_margins 0 0 @interval 50 @nch 16 @offset 0 @clockwise 0 @rotation 0;
#X text 489 534 Dsp on/off;
#X text 247 397 with;
#X text 265 412 a(x) = (1 - x) * π;
#X text 247 326 if l == 0 \,;
#X text 265 341 g(x) = b(x) * N + 1;
#X text 247 359 else \,;
#X text 265 376 g(x) = (b(x) * N - 1) + 1) * (cos(min(0 \, max(a(x) * l \, π))) + 1) * 0.5, f 70;
#X text 247 429 with;
#X text 265 447 b(x) = (sin(a(x) - π / 2) + 1) * 0.5;
#X text 236 162 Click to open;
#X text 247 274 This operation consists to multiply each harmonic by a gain g which depends on the decomposition order N \, the harmonic degree l and the widening value x :, f 73;
#X text 281 122 Widening value between 0 (omnidirectional);
#X text 282 134 and 1 (the most directional).;
#X text 4 51 During the harmonic treatments \, we can change the directivity of the sound field. This is one of the underlying operations of the distance compensation algorithm \, while the sound enters in the ambisonic sphere or circle., f 73;
#X obj 16 115 sig~ 1;
#X obj 223 103 msg.onload 1;
#X obj 223 129 ui.number @size 53 17 @receive "(null)" @send "(null)" @nosave 0 @pinned 0 @presetname "ui.number.0" @background_color 0.93 0.93 0.93 1 @border_color 0.6 0.6 0.6 1 @label_color 0 0 0 1 @active_color 0 0.75 1 1 @text_color 0 0 0 1 @fontname "Helvetica" @fontweight "normal" @fontslant "roman" @fontsize 11 @label "(null)" @label_inner 0 @label_side "top" @label_align "left" @label_valign "top" @label_margins 0 0 @min 0 @max 1 @display_only 0 @digits 2;
#N canvas 121 146 700 500 init 0;
#X obj 212 80 msg.onload @name?;
#X obj 212 102 canvas.top;
#X obj 212 124 prop-> @name;
#X obj 246 148 outlet;
#X connect 0 0 1 0;
#X connect 1 0 2 0;
#X connect 2 1 3 0;
#X restore 4 9 pd init;
#X f 6;
#X obj 16 136 hoa.2d.encoder~ 7, f 32;
#X obj 16 161 hoa.2d.process~ 7 hoa.fx.wider~, f 35;
#X obj 452 527 ui.dsp~ @size 30 30 @receive "(null)" @send "(null)" @nosave 0 @pinned 0 @background_color 0.93 0.93 0.93 1 @border_color 0.6 0.6 0.6 1 @label_color 0 0 0 1 @active_color 0 0.75 1 1 @fontname "Helvetica" @fontweight "normal" @fontslant "roman" @fontsize 11 @label "(null)" @label_inner 0 @label_side "top" @label_align "left" @label_valign "top" @label_margins 0 0;
#X obj 17 402 hoa.2d.decoder~ 7 regular 16, f 35;
#X connect 18 0 22 0;
#X connect 19 0 20 0;
#X connect 20 0 23 15;
#X connect 21 0 1 0;
#X connect 22 0 23 0;
#X connect 22 1 23 1;
#X connect 22 2 23 2;
#X connect 22 3 23 3;
#X connect 22 4 23 4;
#X connect 22 5 23 5;
#X connect 22 6 23 6;
#X connect 22 7 23 7;
#X connect 22 8 23 8;
#X connect 22 9 23 9;
#X connect 22 10 23 10;
#X connect 22 11 23 11;
#X connect 22 12 23 12;
#X connect 22 13 23 13;
#X connect 22 14 23 14;
#X connect 23 0 0 0;
#X connect 23 0 25 0;
#X connect 23 1 0 1;
#X connect 23 1 25 1;
#X connect 23 2 0 2;
#X connect 23 2 25 2;
#X connect 23 3 0 3;
#X connect 23 3 25 3;
#X connect 23 4 0 4;
#X connect 23 4 25 4;
#X connect 23 5 0 5;
#X connect 23 5 25 5;
#X connect 23 6 0 6;
#X connect 23 6 25 6;
#X connect 23 7 0 7;
#X connect 23 7 25 7;
#X connect 23 8 0 8;
#X connect 23 8 25 8;
#X connect 23 9 0 9;
#X connect 23 9 25 9;
#X connect 23 10 0 10;
#X connect 23 10 25 10;
#X connect 23 11 0 11;
#X connect 23 11 25 11;
#X connect 23 12 0 12;
#X connect 23 12 25 12;
#X connect 23 13 0 13;
#X connect 23 13 25 13;
#X connect 23 14 0 14;
#X connect 23 14 25 14;
#X connect 25 0 3 0;
#X connect 25 1 3 1;
#X connect 25 2 3 2;
#X connect 25 3 3 3;
#X connect 25 4 3 4;
#X connect 25 5 3 5;
#X connect 25 6 3 6;
#X connect 25 7 3 7;
#X connect 25 8 3 8;
#X connect 25 9 3 9;
#X connect 25 10 3 10;
#X connect 25 11 3 11;
#X connect 25 12 3 12;
#X connect 25 13 3 13;
#X connect 25 14 3 14;
#X connect 25 15 3 15;
