#N canvas 714 351 959 780 10;
#X obj 2 6 hoa.tuto.header;
#X obj 415 6 hoa.help.pub;
#X text 2 156 Overall \, the decoding operation for one loudspeaker (or planewave) comes down to compute the sum of the mutiplication of the circular harmonics of the sound field with the circular harmonics of a dirac in the direction of the loudspeaker :, f 61;
#X text 1 229 Example for the 2nd order:;
#X text 644 172 Synthesis of the sound field;
#X text 644 313 of the sound field.;
#X text 646 417 Click to open.;
#X text 654 534 of each loudspeaker.;
#X text 439 669 Dsp on/off;
#X text 646 397 In the process~ \, we compute the operations;
#X text 646 407 for each planewaves (or loudspeakers).;
#X obj 457 204 hoa.scope~ @size 184 184 @receive "(null)" @send "(null)" @nosave 0 @pinned 0 @background_color 0.93 0.93 0.93 1 @border_color 0.6 0.6 0.6 1 @label_color 0 0 0 1 @ph_color 1 0 0 1 @nh_color 0 0 1 1 @fontname "Helvetica" @fontweight "normal" @fontslant "roman" @fontsize 11 @label "(null)" @label_inner 0 @label_side "top" @label_align "left" @label_valign "top" @label_margins 0 0 @gain 1 @refresh 100 @order 3 @view 0;
#X obj 457 172 hoa.2d.encoder~ 3, f 30;
#X text 644 303 Representation of the 7 harmonics;
#N canvas 498 866 410 281 norm 0;
#X msg 100 100 1;
#X obj 100 128 /, f 5;
#X obj 100 150 sig~;
#X obj 100 192 outlet~;
#X obj 127 100 + 1;
#X obj 100 21 loadbang;
#X obj 100 77 t b f;
#X obj 100 54 f 2;
#X text 131 55 Order 2;
#X connect 0 0 1 0;
#X connect 1 0 2 0;
#X connect 2 0 3 0;
#X connect 4 0 1 1;
#X connect 5 0 7 0;
#X connect 6 0 0 0;
#X connect 6 1 4 0;
#X connect 7 0 6 0;
#X restore 205 328 pd norm;
#X text 305 288 Angle of the;
#X text 305 298 loudspeaker in;
#X text 305 308 radians :;
#X text 10 470 is always;
#X text 10 481 divided by 2;
#X text 10 459 The harmonic 0;
#X obj 27 361 hoa.2d.encoder~ 1;
#X obj 205 361 hoa.2d.encoder~ 1, f 18;
#X obj 90 415 *~;
#X obj 150 415 *~;
#X obj 210 415 *~;
#X obj 90 437 /~ 2;
#X obj 150 489 +~;
#X obj 27 331 noise~;
#N canvas 1132 362 450 300 rotate 0;
#X obj 12 14 phasor~ 0.1;
#X obj 12 80 outlet~;
#X obj 12 58 phase->rad~;
#X connect 0 0 2 0;
#X connect 2 0 1 0;
#X restore 126 328 pd rotate;
#X text 203 290 The dirac is;
#X text 203 300 equal to;
#X text 203 310 1 / (N + 1);
#X text 227 249 Loudspeaker in the;
#X text 227 259 harmonics domain;
#X text 41 249 Sound field in the;
#X text 41 259 harmonics domain;
#X text 243 414 Mutliply each;
#X text 178 493 harmonics;
#X text 178 483 Sum all the;
#X text 243 424 harmonic;
#X text 145 553 Signal of the;
#X text 145 563 loudspeaker;
#X text 6 585 To decode a sound field for a set of loudspeakers \, we reproduce the operation for each loudspeaker. This operation can be spread out for high orders and in 3d.;
#X obj 457 147 sig~ 1;
#X text 653 523 Representation of the contribution;
#X obj 458 400 hoa.process~ 3 hoa.fx.2d.decoder~ harmonics 8, f 30;
#X text 2 56 After the multiple processes in the harmonics domain \, the sound field can be rendered into the planewaves domain for a set of loudspeakers via the decoding operations. In this tutorial \, we present the underlying operations of the regular decoding. For further informations about the use of the irregular and binaural decoding \, please refer to the decoder help., f 61;
#X text 417 60 In the example \, all the opeations are done inside the object hoa.process~ :;
#X obj 634 130 ui.number @size 53 17 @receive "(null)" @send "(null)" @nosave 0 @pinned 0 @presetname "ui.number.0" @background_color 0.93 0.93 0.93 1 @border_color 0.6 0.6 0.6 1 @label_color 0 0 0 1 @active_color 0 0.75 1 1 @text_color 0 0 0 1 @fontname "Helvetica" @fontweight "normal" @fontslant "roman" @fontsize 11 @label "(null)" @label_inner 0 @label_side "top" @label_align "left" @label_valign "top" @label_margins 0 0 @min -3.40282e+38 @max 3.40282e+38 @digits -1;
#X obj 634 152 phase->rad~;
#X obj 634 100 msg.onload 0;
#X obj 310 330 ui.number @size 55 17 @receive "(null)" @send "(null)" @nosave 0 @pinned 0 @presetname "ui.number.1" @background_color 0.93 0.93 0.93 1 @border_color 0.6 0.6 0.6 1 @label_color 0 0 0 1 @active_color 0 0.75 1 1 @text_color 0 0 0 1 @fontname "Helvetica" @fontweight "normal" @fontslant "roman" @fontsize 11 @label "(null)" @label_inner 0 @label_side "top" @label_align "left" @label_valign "top" @label_margins 0 0 @min -3.40282e+38 @max 3.40282e+38 @digits -1;
#X obj 401 661 ui.dsp~ @size 30 30 @receive "(null)" @send "(null)" @nosave 0 @pinned 0 @background_color 0.93 0.93 0.93 1 @border_color 0.6 0.6 0.6 1 @label_color 0 0 0 1 @active_color 0 0.75 1 1 @fontname "Helvetica" @fontweight "normal" @fontslant "roman" @fontsize 11 @label "(null)" @label_inner 0 @label_side "top" @label_align "left" @label_valign "top" @label_margins 0 0;
#X obj 150 511 ui.meter~ @size 196 13 @receive "(null)" @send "(null)" @nosave 0 @pinned 0 @background_color 0.93 0.93 0.93 1 @border_color 0.6 0.6 0.6 1 @label_color 0 0 0 1 @cold_color 0 0.6 0 1 @tepid_color 0.6 0.73 0 1 @warm_color 0.85 0.85 0 1 @hot_color 1 0.6 0 1 @over_color 1 0 0 1 @fontname "Helvetica" @fontweight "normal" @fontslant "roman" @fontsize 11 @label "(null)" @label_inner 0 @label_side "top" @label_align "left" @label_valign "top" @label_margins 0 0 @interval 50;
#X obj 150 534 ui.number~ @size 53 15 @receive "(null)" @send "(null)" @nosave 0 @pinned 0 @background_color 0.3 0.3 0.3 1 @border_color 0 0 0 1 @label_color 0 0 0 1 @text_color 0.9 0.9 0.9 1 @active_color 0 0.75 1 1 @fontname "Helvetica" @fontweight "normal" @fontslant "roman" @fontsize 11 @label "(null)" @label_inner 0 @label_side "top" @label_align "left" @label_valign "top" @label_margins 0 0 @precision 6 @interval 50;
#X obj 458 452 ui.cmeter~ @size 183 183 @receive "(null)" @send "(null)" @nosave 0 @pinned 0 @background_color 0.93 0.93 0.93 1 @border_color 0.6 0.6 0.6 1 @label_color 0 0 0 1 @cold_color 0 0.6 0 1 @tepid_color 0.6 0.73 0 1 @warm_color 0.85 0.85 0 1 @hot_color 1 0.6 0 1 @over_color 1 0 0 1 @fontname "Helvetica" @fontweight "normal" @fontslant "roman" @fontsize 11 @label "(null)" @label_inner 0 @label_side "top" @label_align "left" @label_valign "top" @label_margins 0 0 @interval 50 @nch 8 @offset 0 @clockwise 0 @rotation 0 @angles 0 45 90 135 180 225 270 315;
#N canvas 266 291 598 269 init 0;
#X obj 250 78 msg.onload @name?;
#X obj 250 100 canvas.top;
#X obj 250 122 prop-> @name;
#X obj 284 147 outlet;
#X connect 0 0 1 0;
#X connect 1 0 2 0;
#X connect 2 1 3 0;
#X restore 9 7 pd init;
#X f 5;
#X connect 12 0 11 0;
#X connect 12 0 46 0;
#X connect 12 1 11 1;
#X connect 12 1 46 1;
#X connect 12 2 11 2;
#X connect 12 3 11 3;
#X connect 12 4 11 4;
#X connect 12 5 11 5;
#X connect 12 6 11 6;
#X connect 14 0 22 0;
#X connect 21 0 23 0;
#X connect 21 1 24 0;
#X connect 21 2 25 0;
#X connect 22 0 23 0;
#X connect 22 1 24 1;
#X connect 22 2 25 1;
#X connect 23 0 26 0;
#X connect 24 0 27 0;
#X connect 25 0 27 0;
#X connect 26 0 27 0;
#X connect 27 0 54 0;
#X connect 27 0 55 0;
#X connect 28 0 21 0;
#X connect 29 0 21 1;
#X connect 44 0 12 0;
#X connect 49 0 50 0;
#X connect 50 0 12 1;
#X connect 51 0 49 0;
#X connect 52 0 22 1;
#X connect 57 0 0 0;
