#N canvas 1179 368 976 668 10;
#X obj 4 4 hoa.tuto.header;
#X obj 417 4 hoa.help.pub;
#X obj 144 396 hoa.scope~ @size 225 225 @receive "(null)" @send "(null)" @nosave 0 @pinned 0 @background_color 0.93 0.93 0.93 1 @border_color 0.6 0.6 0.6 1 @label_color 0 0 0 1 @ph_color 1 0 0 1 @nh_color 0 0 1 1 @fontname "Helvetica" @fontweight "normal" @fontslant "roman" @fontsize 11 @label "(null)" @label_inner 0 @label_side "top" @label_align "left" @label_valign "top" @label_margins 0 0 @gain 100 @refresh 100 @order 7 @view 0;
#X obj 144 284 sig~ 1;
#N canvas 228 488 494 402 target.pro 0;
#X obj 199 27 inlet;
#X obj 199 267 outlet;
#X obj 199 165 list.seq;
#X msg 199 139 \$1 \$2;
#X obj 199 187 list.sep;
#X obj 199 116 pack f f;
#X obj 199 81 expr -$f1 \; $f1+1;
#X obj 199 209 expr abs(2*$f1)-($f1<0);
#X msg 199 231 #\$1 1;
#X obj 199 49 t f b;
#X msg 283 80 #* 0;
#X connect 0 0 9 0;
#X connect 2 0 4 0;
#X connect 3 0 2 0;
#X connect 4 0 7 0;
#X connect 5 0 3 0;
#X connect 6 0 5 0;
#X connect 6 1 5 1;
#X connect 7 0 8 0;
#X connect 8 0 1 0;
#X connect 9 0 6 0;
#X connect 9 1 10 0;
#X connect 10 0 1 0;
#X restore 363 337 pd target.pro;
#X obj 144 362 hoa.2d.process~ 7 hoa.fx.gain~ harmonics, f 37;
#X text 212 283 Order of decomposition;
#X obj 554 396 hoa.scope~ @size 225 225 @receive "(null)" @send "(null)" @nosave 0 @pinned 0 @background_color 0.93 0.93 0.93 1 @border_color 0.6 0.6 0.6 1 @label_color 0 0 0 1 @ph_color 1 0 0 1 @nh_color 0 0 1 1 @fontname "Helvetica" @fontweight "normal" @fontslant "roman" @fontsize 11 @label "(null)" @label_inner 0 @label_side "top" @label_align "left" @label_valign "top" @label_margins 0 0 @gain 100 @refresh 100 @order 7 @view 0;
#X obj 554 284 sig~ 1;
#X obj 144 336 hoa.2d.encoder~ 7 -----------------;
#X obj 554 336 hoa.2d.encoder~ 7 -----------------;
#X obj 554 362 hoa.2d.wider~ 7 ---------------------;
#X text 583 309 Fractional decomposition order;
#X text 3 53 The order of decomposition affects the quality of the sound field restitution. While the order of decomposition increases \, the number of harmonics increases and the "spatial resolution" of the sound field increases. "Quality" or "relevance" of ambisonic processings varies according to the spatial resolution. During the encoding of a point source in the circular harmonics domain \, the precision with which the listener perceives a point source depends on the spatial resolution of the sound field. With a high order of decomposition \, the listener can clearly define the direction of a point source. It is usual to talk about "angular resolution" to describe the precision with which the listener perceives a point source. The "spatial resolution" is a broader concept to qualify more varied and complex sound field where sound field is not necessarily composed of point sources (eg. diffuse sound field)., f 66;
#X text 615 138 Dsp On/Off;
#X obj 578 132 ui.dsp~ @size 30 30 @receive "(null)" @send "(null)" @nosave 0 @pinned 0 @background_color 0.93 0.93 0.93 1 @border_color 0.6 0.6 0.6 1 @label_color 0 0 0 1 @active_color 0 0.75 1 1 @fontname "Helvetica" @fontweight "normal" @fontslant "roman" @fontsize 11 @label "(null)" @label_inner 0 @label_side "top" @label_align "left" @label_valign "top" @label_margins 0 0;
#X obj 363 255 msg.onload 7;
#X obj 773 281 msg.onload 1;
#X obj 363 284 ui.number @size 53 17 @receive "(null)" @send "(null)" @nosave 0 @pinned 0 @presetname "ui.number.1" @background_color 0.93 0.93 0.93 1 @border_color 0.6 0.6 0.6 1 @label_color 0 0 0 1 @active_color 0 0.75 1 1 @text_color 0 0 0 1 @fontname "Helvetica" @fontweight "normal" @fontslant "roman" @fontsize 11 @label "(null)" @label_inner 0 @label_side "top" @label_align "left" @label_valign "top" @label_margins 0 0 @min 0 @max 7 @digits -1;
#X obj 355 284 ui.incdec @size 15 17 @receive "(null)" @send "(null)" @nosave 0 @pinned 0 @presetname "ui.incdec.0" @background_color 0.93 0.93 0.93 1 @border_color 0.6 0.6 0.6 1 @label_color 0 0 0 1 @arrow_color 0.6 0.6 0.6 1 @fontname "Helvetica" @fontweight "normal" @fontslant "roman" @fontsize 11 @label "(null)" @label_inner 0 @label_side "top" @label_align "left" @label_valign "top" @label_margins 0 0 @step 1;
#X obj 356 284 sync;
#N canvas 121 146 217 214 init 0;
#X obj 57 47 msg.onload @name?;
#X obj 57 69 canvas.top;
#X obj 57 91 prop-> @name;
#X obj 91 113 outlet;
#X connect 0 0 1 0;
#X connect 1 0 2 0;
#X connect 2 1 3 0;
#X restore 7 5 pd init;
#X f 6;
#X obj 773 310 ui.slider @size 120 15 @receive "(null)" @send "(null)" @nosave 0 @pinned 0 @presetname "ui.hsl.0" @mouse_events 0 @background_color 0.93 0.93 0.93 1 @border_color 0.6 0.6 0.6 1 @label_color 0 0 0 1 @knob_color 0 0.75 1 1 @text_color 0 0 0 1 @fontname "Helvetica" @fontweight "normal" @fontslant "roman" @fontsize 11 @label "(null)" @label_inner 0 @label_side "top" @label_align "left" @label_valign "top" @label_margins 0 0 @min 0 @max 1 @mode 0 @scale "linear" @active_scale 0 @midi_channel 0 @midi_control -1 @midi_pickup 1 @show_value 1 @value_pos "center" @value_precision 2;
#X connect 3 0 9 0;
#X connect 4 0 5 15;
#X connect 5 0 2 0;
#X connect 5 1 2 1;
#X connect 5 2 2 2;
#X connect 5 3 2 3;
#X connect 5 4 2 4;
#X connect 5 5 2 5;
#X connect 5 6 2 6;
#X connect 5 7 2 7;
#X connect 5 8 2 8;
#X connect 5 9 2 9;
#X connect 5 10 2 10;
#X connect 5 11 2 11;
#X connect 5 12 2 12;
#X connect 5 13 2 13;
#X connect 5 14 2 14;
#X connect 8 0 10 0;
#X connect 9 0 5 0;
#X connect 9 1 5 1;
#X connect 9 2 5 2;
#X connect 9 3 5 3;
#X connect 9 4 5 4;
#X connect 9 5 5 5;
#X connect 9 6 5 6;
#X connect 9 7 5 7;
#X connect 9 8 5 8;
#X connect 9 9 5 9;
#X connect 9 10 5 10;
#X connect 9 11 5 11;
#X connect 9 12 5 12;
#X connect 9 13 5 13;
#X connect 9 14 5 14;
#X connect 10 0 11 0;
#X connect 10 1 11 1;
#X connect 10 2 11 2;
#X connect 10 3 11 3;
#X connect 10 4 11 4;
#X connect 10 5 11 5;
#X connect 10 6 11 6;
#X connect 10 7 11 7;
#X connect 10 8 11 8;
#X connect 10 9 11 9;
#X connect 10 10 11 10;
#X connect 10 11 11 11;
#X connect 10 12 11 12;
#X connect 10 13 11 13;
#X connect 10 14 11 14;
#X connect 11 0 7 0;
#X connect 11 1 7 1;
#X connect 11 2 7 2;
#X connect 11 3 7 3;
#X connect 11 4 7 4;
#X connect 11 5 7 5;
#X connect 11 6 7 6;
#X connect 11 7 7 7;
#X connect 11 8 7 8;
#X connect 11 9 7 9;
#X connect 11 10 7 10;
#X connect 11 11 7 11;
#X connect 11 12 7 12;
#X connect 11 13 7 13;
#X connect 11 14 7 14;
#X connect 16 0 18 0;
#X connect 17 0 22 0;
#X connect 18 0 20 1;
#X connect 18 0 4 0;
#X connect 19 0 20 0;
#X connect 20 0 19 0;
#X connect 20 1 18 0;
#X connect 21 0 0 0;
#X connect 22 0 11 15;
