#N canvas 0 0 760 555 12;
#X declare -lib ceammc;
#X declare -lib numeric;
#X obj 552 50 cnv 1 188 21 empty empty empty 17 7 0 10 -245760 -1 0;
#X text 552 50 add two complex numbers;
#X obj 1 1 cnv 5 740 40 empty empty complex.add 20 20 0 20 -104026
-4096 0;
#X obj 546 11 complex.+;
#X obj 636 11 complex.add;
#X obj 50 118 declare -lib numeric;
#X obj 50 162 bng 15 250 50 0 empty empty empty 17 7 0 10 -262144 -1
-1;
#X obj 50 190 complex.new 2 4;
#X msg 222 190 3 5;
#X obj 50 219 complex.add 3;
#X obj 50 248 ui.display @display_type 1 @size 150 18;
#X obj 20 288 cnv 1 720 1 empty empty empty 17 7 0 10 -203890 -1 0;
#X obj 20 293 cnv 5 90 26 empty empty arguments: 4 10 0 14 -262144
-49933 0;
#X text 120 298 1\.;
#X text 150 298 list;
#X obj 281 299 cnv 1 16 18 empty empty empty 17 7 0 10 -245695 -1 0;
#X text 280 298 C: complex number to add (Complex REAL IMAG) or float
to add.;
#X obj 20 340 cnv 1 720 1 empty empty empty 17 7 0 10 -203890 -1 0;
#X obj 20 345 cnv 5 64 26 empty empty inlets: 4 10 0 14 -262144 -49933
0;
#X text 120 350 1\.;
#X text 150 350 *list*;
#X text 280 350 Complex data constructor: REAL IMAG.;
#X text 150 368 *data*;
#X text 280 368 Complex data.;
#X text 120 386 2\.;
#X text 150 386 *list*;
#X text 280 386 complex number to add: REAL IMAG.;
#X text 150 404 *data*;
#X text 280 404 complex number to add.;
#X text 150 422 *float*;
#X text 280 422 float to add.;
#X obj 20 450 cnv 1 720 1 empty empty empty 17 7 0 10 -203890 -1 0;
#X obj 20 455 cnv 5 73 26 empty empty outlets: 4 10 0 14 -262144
-49933 0;
#X text 120 460 1\.;
#X text 280 460 output addition result (Complex);
#X obj 10 48 ui.link @title index @url ../index-help.pd;
#X text 51 45 ::;
#X obj 67 48 ui.link @title numeric @url numeric-help.pd;
#X text 122 45 ::;
#X obj 138 48 ui.link @title complex @url numeric.complex-help.pd;
#X obj 1 508 cnv 5 740 48 empty empty empty 17 7 0 10 -203890 -1 0;
#X text 10 511 library: numeric v0.1;
#X text 564 523 see also:;
#X obj 640 523 complex.sub;
#N canvas 10 530 400 290 info 0;
#X obj 1 1 cnv 1 107 287 empty empty empty 17 7 0 10 -183085 -1 0;
#X text 10 10 library:;
#X text 120 10 numeric;
#X text 10 32 version:;
#X text 120 32 0.1;
#X text 10 54 object:;
#X text 120 54 complex.add;
#X text 10 76 category:;
#X text 120 76 complex;
#X text 10 98 since:;
#X text 120 98 0.1;
#X text 10 120 authors:;
#X text 120 120 Serge Poltavski;
#X text 10 142 license:;
#X text 120 142 GPL3;
#X text 10 164 keywords:;
#X text 120 164 arithmetic \, math;
#X obj 120 186 declare -lib ceammc;
#X obj 120 268 cnv 1 270 1 empty empty empty 17 7 0 10 -203890 -1 0;
#X text 120 268 generated by pddoc;
#X restore 10 530 pd info;
#X connect 6 0 7 0;
#X connect 7 0 9 0;
#X connect 8 0 9 1;
#X connect 9 0 10 0;