#N canvas 0 0 288 187 12;
#X declare -lib numeric;
#X obj 20 48 declare -lib numeric;
#X msg 20 92 2 4;
#X msg 87 92 3 6;
#X obj 154 92 bng 15 250 50 0 empty empty empty 17 7 0 10 -262144 -1
-1;
#X obj 154 120 complex.new 2 4;
#X obj 20 149 complex.!= 3 6;
#X floatatom 20 178 5 0 0 0 - - -;
#X connect 3 0 4 0;
#X connect 1 0 5 0;
#X connect 2 0 5 0;
#X connect 4 0 5 1;
#X connect 5 0 6 0;
