#N canvas 0 0 785 555 12;
#X declare -lib ceammc;
#X declare -lib numeric;
#X obj 431 50 cnv 1 334 23 empty empty empty 17 7 0 10 -245760 -1 0;
#X text 431 50 creates Complex number in polar coordinates;
#X obj 1 1 cnv 5 765 40 empty empty complex.polar 20 20 0 20 -104026
-4096 0;
#X obj 646 11 complex.polar;
#X obj 50 118 declare -lib numeric;
#X msg 50 162 bang;
#X msg 117 162 1 3.1415926;
#X msg 251 162 1 6.2831852;
#X obj 50 190 complex.polar 1 1.5707963;
#X obj 50 219 ui.display @display_type 1;
#X obj 20 268 cnv 1 745 1 empty empty empty 17 7 0 10 -203890 -1 0;
#X obj 20 273 cnv 5 90 26 empty empty arguments: 4 10 0 14 -262144
-49933 0;
#X text 110 308 1\.;
#X text 150 308 float;
#X obj 246 309 cnv 1 16 20 empty empty empty 17 7 0 10 -245695 -1 0;
#X text 245 308 R: magnitude.;
#X text 110 328 2\.;
#X text 150 328 float;
#X obj 246 329 cnv 1 47 20 empty empty empty 17 7 0 10 -245695 -1 0;
#X text 245 328 THETA: phase angle in radians.;
#X obj 20 358 cnv 1 745 1 empty empty empty 17 7 0 10 -203890 -1 0;
#X obj 20 363 cnv 5 64 26 empty empty inlets: 4 10 0 14 -262144 -49933
0;
#X text 110 364 1\.;
#X text 150 364 *float*;
#X text 245 364 magnitude.;
#X text 110 384 2\.;
#X text 150 384 *float*;
#X text 245 384 phase angle in radians.;
#X obj 20 414 cnv 1 745 1 empty empty empty 17 7 0 10 -203890 -1 0;
#X obj 20 419 cnv 5 73 26 empty empty outlets: 4 10 0 14 -262144
-49933 0;
#X text 110 420 1\.;
#X text 245 420 output Complex number (Complex).;
#X obj 10 48 ui.link @title index @url ../index-help.pd;
#X text 51 45 ::;
#X obj 67 48 ui.link @title numeric @url numeric-help.pd;
#X text 122 45 ::;
#X obj 138 48 ui.link @title complex @url numeric.complex-help.pd;
#X obj 1 505 cnv 5 765 48 empty empty empty 17 7 0 10 -203890 -1 0;
#X text 10 508 library: numeric v0.1;
#X text 586 520 see also:;
#X obj 660 520 complex.new;
#N canvas 10 527 400 290 info 0;
#X obj 1 1 cnv 1 107 287 empty empty empty 17 7 0 10 -183085 -1 0;
#X text 10 10 library:;
#X text 120 10 numeric;
#X text 10 32 version:;
#X text 120 32 0.1;
#X text 10 54 object:;
#X text 120 54 complex.polar;
#X text 10 76 category:;
#X text 120 76 complex;
#X text 10 98 since:;
#X text 120 98 0.1;
#X text 10 120 authors:;
#X text 120 120 Serge Poltavski;
#X text 10 142 license:;
#X text 120 142 GPL3;
#X text 10 164 keywords:;
#X text 120 164 polar;
#X obj 120 186 declare -lib ceammc;
#X obj 120 268 cnv 1 270 1 empty empty empty 17 7 0 10 -203890 -1 0;
#X text 120 268 generated by pddoc;
#X restore 10 527 pd info;
#X connect 5 0 8 0;
#X connect 6 0 8 0;
#X connect 7 0 8 0;
#X connect 8 0 9 0;