#N canvas 0 0 261 188 12;
#X declare -lib numeric;
#X obj 20 48 declare -lib numeric;
#X msg 20 92 3.14159265;
#X msg 58 120 1;
#X msg 96 120 16;
#X msg 144 120 256;
#X msg 202 120 4096;
#X obj 20 149 float->rational 1;
#X obj 20 178 ui.display @display_type 1 @size 150 18;
#X connect 1 0 6 0;
#X connect 2 0 6 1;
#X connect 3 0 6 1;
#X connect 4 0 6 1;
#X connect 5 0 6 1;
#X connect 6 0 7 0;
