#N canvas 0 0 342 188 12;
#X declare -lib numeric;
#X obj 20 48 declare -lib numeric;
#X obj 20 92 bng 15 250 50 0 empty empty empty 17 7 0 10 -262144 -1
-1;
#X obj 202 92 bng 15 250 50 0 empty empty empty 17 7 0 10 -262144 -1
-1;
#X obj 20 120 rational.new 2 3;
#X obj 202 120 rational.new 4 5;
#X obj 20 149 rational.div 3;
#X obj 20 178 ui.display @display_type 1 @size 150 18;
#X connect 1 0 3 0;
#X connect 2 0 4 0;
#X connect 3 0 5 0;
#X connect 4 0 5 1;
#X connect 5 0 6 0;
