#N canvas 0 0 190 158 12;
#X declare -lib numeric;
#X obj 20 48 declare -lib numeric;
#X msg 20 92 0 0;
#X msg 77 92 1 0;
#X msg 135 92 2 2;
#X obj 20 120 rational->tuple;
#X floatatom 20 149 5 0 0 0 - - -;
#X floatatom 96 149 5 0 0 0 - - -;
#X connect 1 0 4 0;
#X connect 2 0 4 0;
#X connect 3 0 4 0;
#X connect 4 0 5 0;
#X connect 4 1 6 0;
