#N canvas 0 0 760 555 12;
#X declare -lib ceammc;
#X declare -lib numeric;
#X obj 591 50 cnv 1 149 21 empty empty empty 17 7 0 10 -245760 -1 0;
#X text 591 50 The Rational class;
#X obj 1 1 cnv 5 740 40 empty empty rational.new 20 20 0 20 -104026
-4096 0;
#X obj 628 11 rational.new;
#X obj 50 118 declare -lib numeric;
#X obj 50 162 bng 15 250 50 0 empty empty empty 17 7 0 10 -262144 -1
-1;
#X msg 88 162 1 2;
#X msg 146 162 set 3 4;
#X msg 242 162 9/8;
#X floatatom 299 162 5 0 0 0 - - -;
#X msg 357 162 9 / 8;
#X obj 50 219 rational.new 4;
#X obj 50 248 ui.display @size 150 18 display_type 1;
#X obj 20 288 cnv 1 720 1 empty empty empty 17 7 0 10 -203890 -1 0;
#X obj 20 293 cnv 5 90 26 empty empty arguments: 4 10 0 14 -262144
-49933 0;
#X text 120 298 1\.;
#X text 150 298 int;
#X obj 281 299 cnv 1 33 18 empty empty empty 17 7 0 10 -245695 -1 0;
#X text 280 298 NUM: numerator.;
#X text 120 316 2\.;
#X text 150 316 int;
#X obj 281 317 cnv 1 32 18 empty empty empty 17 7 0 10 -245695 -1 0;
#X text 280 316 DEN: denominator.;
#X obj 20 344 cnv 1 720 1 empty empty empty 17 7 0 10 -203890 -1 0;
#X obj 20 349 cnv 5 73 26 empty empty methods: 4 10 0 14 -262144
-49933 0;
#X msg 120 354 set;
#X text 280 354 set data without output.;
#X obj 20 396 cnv 1 720 1 empty empty empty 17 7 0 10 -203890 -1 0;
#X obj 20 401 cnv 5 64 26 empty empty inlets: 4 10 0 14 -262144 -49933
0;
#X text 120 406 1\.;
#X text 150 406 *bang*;
#X text 280 406 output current data.;
#X text 150 424 *data*;
#X text 280 424 (on Rational) set new data value and output it.;
#X text 150 442 *list*;
#X text 280 442 list: int int (numerator/denominator).;
#X obj 20 470 cnv 1 720 1 empty empty empty 17 7 0 10 -203890 -1 0;
#X obj 20 475 cnv 5 73 26 empty empty outlets: 4 10 0 14 -262144
-49933 0;
#X text 120 480 1\.;
#X text 280 480 output created data (Rational);
#X obj 10 48 ui.link @title index @url ../index-help.pd;
#X text 51 45 ::;
#X obj 67 48 ui.link @title numeric @url numeric-help.pd;
#X text 122 45 ::;
#X obj 138 48 ui.link @title rational @url numeric.rational-help.pd;
#X obj 1 528 cnv 5 740 48 empty empty empty 17 7 0 10 -203890 -1 0;
#X text 10 531 library: numeric v0.1;
#N canvas 10 550 400 290 info 0;
#X obj 1 1 cnv 1 107 287 empty empty empty 17 7 0 10 -183085 -1 0;
#X text 10 10 library:;
#X text 120 10 numeric;
#X text 10 32 version:;
#X text 120 32 0.1;
#X text 10 54 object:;
#X text 120 54 rational.new;
#X text 10 76 category:;
#X text 120 76 rational;
#X text 10 98 since:;
#X text 120 98 0.1;
#X text 10 120 authors:;
#X text 120 120 Serge Poltavski;
#X text 10 142 license:;
#X text 120 142 GPL3;
#X text 10 164 keywords:;
#X text 120 164 rational \, math;
#X obj 120 186 declare -lib ceammc;
#X obj 120 268 cnv 1 270 1 empty empty empty 17 7 0 10 -203890 -1 0;
#X text 120 268 generated by pddoc;
#X restore 10 550 pd info;
#X connect 5 0 11 0;
#X connect 6 0 11 0;
#X connect 7 0 11 0;
#X connect 8 0 11 0;
#X connect 9 0 11 0;
#X connect 10 0 11 0;
#X connect 11 0 12 0;