#N canvas 0 0 190 159 12;
#X declare -lib numeric;
#X obj 20 48 declare -lib numeric;
#X msg 20 92 -11/4;
#X msg 96 92 1/4;
#X obj 20 120 rational.abs;
#X obj 20 149 ui.display @display_type 1 @size 150 18;
#X connect 1 0 3 0;
#X connect 2 0 3 0;
#X connect 3 0 4 0;
