#N canvas 0 0 785 555 12;
#X declare -lib ceammc;
#X declare -lib numeric;
#X obj 561 50 cnv 1 204 23 empty empty empty 17 7 0 10 -245760 -1 0;
#X text 561 50 reciprocal rational number;
#X obj 1 1 cnv 5 765 40 empty empty rational.reciprocal 20 20 0 20
-104026 -4096 0;
#X obj 493 11 rational.1/x;
#X obj 604 11 rational.reciprocal;
#X obj 50 118 declare -lib numeric;
#X msg 50 162 1/2;
#X obj 50 190 rational.reciprocal;
#X obj 50 219 rational.reciprocal;
#X obj 261 219 ui.display @display_type 1;
#X obj 50 248 ui.display @display_type 1;
#X obj 20 297 cnv 1 745 1 empty empty empty 17 7 0 10 -203890 -1 0;
#X obj 20 302 cnv 5 64 26 empty empty inlets: 4 10 0 14 -262144 -49933
0;
#X text 110 303 1\.;
#X text 150 303 *list*;
#X text 245 303 Rational data constructor: NUM DEN.;
#X text 150 323 *data*;
#X text 245 323 Rational data.;
#X obj 20 353 cnv 1 745 1 empty empty empty 17 7 0 10 -203890 -1 0;
#X obj 20 358 cnv 5 73 26 empty empty outlets: 4 10 0 14 -262144
-49933 0;
#X text 110 359 1\.;
#X text 245 359 output reciprocal number (Rational).;
#X obj 10 48 ui.link @title index @url ../index-help.pd;
#X text 51 45 ::;
#X obj 67 48 ui.link @title numeric @url numeric-help.pd;
#X text 122 45 ::;
#X obj 138 48 ui.link @title rational @url numeric.rational-help.pd;
#X obj 1 505 cnv 5 765 48 empty empty empty 17 7 0 10 -203890 -1 0;
#X text 10 508 library: numeric v0.1;
#N canvas 10 527 400 290 info 0;
#X obj 1 1 cnv 1 107 287 empty empty empty 17 7 0 10 -183085 -1 0;
#X text 10 10 library:;
#X text 120 10 numeric;
#X text 10 32 version:;
#X text 120 32 0.1;
#X text 10 54 object:;
#X text 120 54 rational.reciprocal;
#X text 10 76 category:;
#X text 120 76 rational;
#X text 10 98 since:;
#X text 120 98 0.1;
#X text 10 120 authors:;
#X text 120 120 Serge Poltavski;
#X text 10 142 license:;
#X text 120 142 GPL3;
#X obj 120 164 declare -lib ceammc;
#X obj 120 268 cnv 1 270 1 empty empty empty 17 7 0 10 -203890 -1 0;
#X text 120 268 generated by pddoc;
#X restore 10 527 pd info;
#X connect 6 0 7 0;
#X connect 7 0 8 0;
#X connect 7 0 9 0;
#X connect 8 0 10 0;