#N canvas 0 0 715 555 12;
#X declare -lib ceammc;
#X declare -lib numeric;
#X obj 546 50 cnv 1 149 21 empty empty empty 17 7 0 10 -245760 -1 0;
#X text 546 50 abs absolute value;
#X obj 1 1 cnv 5 712 40 empty empty rational.abs 20 20 0 20 -104026
-4096 0;
#X obj 602 11 rational.abs;
#X obj 50 118 declare -lib numeric;
#X msg 50 162 -11/4;
#X msg 126 162 1/4;
#X obj 50 190 rational.abs;
#X obj 50 219 ui.display @display_type 1 @size 150 18;
#X obj 20 259 cnv 1 685 1 empty empty empty 17 7 0 10 -203890 -1 0;
#X obj 20 264 cnv 5 64 26 empty empty inlets: 4 10 0 14 -262144 -49933
0;
#X text 120 269 1\.;
#X text 150 269 *list*;
#X text 240 269 Rational data constructor: NUM DEN.;
#X text 150 287 *data*;
#X text 240 287 Rational data.;
#X obj 20 315 cnv 1 685 1 empty empty empty 17 7 0 10 -203890 -1 0;
#X obj 20 320 cnv 5 73 26 empty empty outlets: 4 10 0 14 -262144
-49933 0;
#X text 120 325 1\.;
#X text 240 325 output result value (Rational);
#X obj 10 48 ui.link @title index @url ../index-help.pd;
#X text 51 45 ::;
#X obj 67 48 ui.link @title numeric @url numeric-help.pd;
#X text 122 45 ::;
#X obj 138 48 ui.link @title rational @url numeric.rational-help.pd;
#X obj 1 505 cnv 5 712 48 empty empty empty 17 7 0 10 -203890 -1 0;
#X text 10 508 library: numeric v0.1;
#N canvas 10 527 400 290 info 0;
#X obj 1 1 cnv 1 107 287 empty empty empty 17 7 0 10 -183085 -1 0;
#X text 10 10 library:;
#X text 120 10 numeric;
#X text 10 32 version:;
#X text 120 32 0.1;
#X text 10 54 object:;
#X text 120 54 rational.abs;
#X text 10 76 category:;
#X text 120 76 rational;
#X text 10 98 since:;
#X text 120 98 0.1;
#X text 10 120 authors:;
#X text 120 120 Serge Poltavski;
#X text 10 142 license:;
#X text 120 142 GPL3;
#X obj 120 164 declare -lib ceammc;
#X obj 120 268 cnv 1 270 1 empty empty empty 17 7 0 10 -203890 -1 0;
#X text 120 268 generated by pddoc;
#X restore 10 527 pd info;
#X connect 5 0 7 0;
#X connect 6 0 7 0;
#X connect 7 0 8 0;