#N canvas 0 0 715 555 12;
#X declare -lib ceammc;
#X declare -lib numeric;
#X obj 229 50 cnv 1 466 21 empty empty empty 17 7 0 10 -245760 -1 0;
#X text 229 50 unpacks rational number to numerator and denominator
parts;
#X obj 1 1 cnv 5 712 40 empty empty rational.unpack 20 20 0 20 -104026
-4096 0;
#X obj 446 11 rational->tuple;
#X obj 579 11 rational.unpack;
#X obj 50 118 declare -lib numeric;
#X msg 50 162 0 0;
#X msg 107 162 1 0;
#X msg 165 162 2 2;
#X obj 50 190 rational->tuple;
#X floatatom 50 219 5 0 0 0 - - -;
#X floatatom 126 219 5 0 0 0 - - -;
#X obj 20 258 cnv 1 685 1 empty empty empty 17 7 0 10 -203890 -1 0;
#X obj 20 263 cnv 5 64 26 empty empty inlets: 4 10 0 14 -262144 -49933
0;
#X text 120 268 1\.;
#X text 150 268 *list*;
#X text 240 268 Rational data constructor: NUM DEN.;
#X text 150 286 *data*;
#X text 240 286 Rational data.;
#X obj 20 314 cnv 1 685 1 empty empty empty 17 7 0 10 -203890 -1 0;
#X obj 20 319 cnv 5 73 26 empty empty outlets: 4 10 0 14 -262144
-49933 0;
#X text 120 324 1\.;
#X text 240 324 output numerator part (float);
#X text 120 342 2\.;
#X text 240 342 output demonimator part (float);
#X obj 10 48 ui.link @title index @url ../index-help.pd;
#X text 51 45 ::;
#X obj 67 48 ui.link @title numeric @url numeric-help.pd;
#X text 122 45 ::;
#X obj 138 48 ui.link @title rational @url numeric.rational-help.pd;
#X obj 1 505 cnv 5 712 48 empty empty empty 17 7 0 10 -203890 -1 0;
#X text 10 508 library: numeric v0.1;
#N canvas 10 527 400 290 info 0;
#X obj 1 1 cnv 1 107 287 empty empty empty 17 7 0 10 -183085 -1 0;
#X text 10 10 library:;
#X text 120 10 numeric;
#X text 10 32 version:;
#X text 120 32 0.1;
#X text 10 54 object:;
#X text 120 54 rational.unpack;
#X text 10 76 category:;
#X text 120 76 rational;
#X text 10 98 since:;
#X text 120 98 0.1;
#X text 10 120 authors:;
#X text 120 120 Serge Poltavski;
#X text 10 142 license:;
#X text 120 142 GPL3;
#X obj 120 164 declare -lib ceammc;
#X obj 120 268 cnv 1 270 1 empty empty empty 17 7 0 10 -203890 -1 0;
#X text 120 268 generated by pddoc;
#X restore 10 527 pd info;
#X connect 6 0 9 0;
#X connect 7 0 9 0;
#X connect 8 0 9 0;
#X connect 9 0 10 0;
#X connect 9 1 11 0;