#N canvas 0 0 205 187 12;
#X declare -lib numeric;
#X obj 20 48 declare -lib numeric;
#X msg 20 92 2 1;
#X msg 87 92 3 6;
#X msg 154 120 0.5;
#X obj 20 149 rational.== 2 1;
#X floatatom 20 178 5 0 0 0 - - -;
#X connect 1 0 4 0;
#X connect 2 0 4 0;
#X connect 3 0 4 1;
#X connect 4 0 5 0;
