#N canvas 0 0 760 555 12;
#X declare -lib ceammc;
#X declare -lib numeric;
#X obj 536 50 cnv 1 204 21 empty empty empty 17 7 0 10 -245760 -1 0;
#X text 536 50 multiply rational numbers;
#X obj 1 1 cnv 5 740 40 empty empty rational.mul 20 20 0 20 -104026
-4096 0;
#X obj 532 11 rational.*;
#X obj 629 11 rational.mul;
#X obj 50 118 declare -lib numeric;
#X obj 20 157 cnv 1 720 1 empty empty empty 17 7 0 10 -203890 -1 0;
#X obj 20 162 cnv 5 90 26 empty empty arguments: 4 10 0 14 -262144
-49933 0;
#X text 120 167 1\.;
#X text 150 167 list;
#X obj 281 168 cnv 1 16 18 empty empty empty 17 7 0 10 -245695 -1 0;
#X text 280 167 C: rational number multiplier (Rational NUM DEN) or
integer muptiplier.;
#X obj 20 209 cnv 1 720 1 empty empty empty 17 7 0 10 -203890 -1 0;
#X obj 20 214 cnv 5 64 26 empty empty inlets: 4 10 0 14 -262144 -49933
0;
#X text 120 219 1\.;
#X text 150 219 *list*;
#X text 280 219 Rational data constructor: NUM DEN.;
#X text 150 237 *data*;
#X text 280 237 Rational data.;
#X text 120 255 2\.;
#X text 150 255 *list*;
#X text 280 255 rational number multiplier: NUM DEN.;
#X text 150 273 *data*;
#X text 280 273 rational number multiplier.;
#X text 150 291 *int*;
#X text 280 291 integer muptiplier.;
#X obj 20 319 cnv 1 720 1 empty empty empty 17 7 0 10 -203890 -1 0;
#X obj 20 324 cnv 5 73 26 empty empty outlets: 4 10 0 14 -262144
-49933 0;
#X text 120 329 1\.;
#X text 280 329 output multiplication result (Rational);
#X obj 10 48 ui.link @title index @url ../index-help.pd;
#X text 51 45 ::;
#X obj 67 48 ui.link @title numeric @url numeric-help.pd;
#X text 122 45 ::;
#X obj 138 48 ui.link @title rational @url numeric.rational-help.pd;
#X obj 1 505 cnv 5 740 48 empty empty empty 17 7 0 10 -203890 -1 0;
#X text 10 508 library: numeric v0.1;
#X text 558 520 see also:;
#X obj 634 520 rational.div;
#N canvas 10 527 400 290 info 0;
#X obj 1 1 cnv 1 107 287 empty empty empty 17 7 0 10 -183085 -1 0;
#X text 10 10 library:;
#X text 120 10 numeric;
#X text 10 32 version:;
#X text 120 32 0.1;
#X text 10 54 object:;
#X text 120 54 rational.mul;
#X text 10 76 category:;
#X text 120 76 rational;
#X text 10 98 since:;
#X text 120 98 0.1;
#X text 10 120 authors:;
#X text 120 120 Serge Poltavski;
#X text 10 142 license:;
#X text 120 142 GPL3;
#X text 10 164 keywords:;
#X text 120 164 arithmetic \, math;
#X obj 120 186 declare -lib ceammc;
#X obj 120 268 cnv 1 270 1 empty empty empty 17 7 0 10 -203890 -1 0;
#X text 120 268 generated by pddoc;
#X restore 10 527 pd info;