#N canvas 0 0 785 555 12;
#X declare -lib ceammc;
#X obj 651 50 cnv 1 114 23 empty empty empty 17 7 0 10 -245760 -1 0;
#X text 651 50 onset detector;
#X obj 1 1 cnv 5 765 40 empty empty an.onset~ 20 20 0 20 -104026 -4096
0;
#X obj 673 11 an.onset~;
#X obj 210 80 cnv 1 555 59 empty empty empty 17 7 0 10 -257983 -1 0;
#X text 215 80 Onset detector based on aubio library;
#X obj 215 105 ui.link @background_color 0.98039 0.98039 0.98039
@title https://aubio.org @url https://aubio.org/;
#X obj 50 167 adc~ 1;
#X obj 88 211 tgl 15 0 empty empty empty 17 7 0 10 -262144 -1 -1 0 1;
#X obj 146 211 ui.menu hfc energy complex phase wphase specdiff
specflux kl mkl;
#X obj 50 239 gain~;
#X msg 146 239 @method \$1 \, dump;
#X msg 174 268 reset;
#X obj 50 311 an.onset~ 2048;
#X obj 328 311 ui.dsp~;
#X obj 50 340 bng 15 250 50 0 empty empty empty 17 7 0 10 -262144 -1
-1;
#X floatatom 136 340 10 0 0 0 - - -;
#X obj 20 372 cnv 1 745 1 empty empty empty 17 7 0 10 -203890 -1 0;
#X obj 20 377 cnv 5 90 25 empty empty arguments: 4 12 0 14 -262144
-49933 0;
#X obj 735 380 ui.link @background_color 0.98039 0.98039 0.98039
@title [?] @url ceammc.args-info.pd;
#X text 110 412 1\.;
#X text 150 412 int;
#X obj 246 413 cnv 1 70 20 empty empty empty 17 7 0 10 -245695 -1 0;
#X text 245 412 BS(samp): buffer size. Type: int. Min value: 64;
#X text 110 432 2\.;
#X text 150 432 symbol;
#X obj 246 433 cnv 1 55 20 empty empty empty 17 7 0 10 -245695 -1 0;
#X text 245 432 METHOD: detection method. Allowed values: centroid
\, complex \, complexdomain \, decrease \, default \, energy \, hfc
\, kl \, kurtosis \, phase \, rolloff \, skewness \, slope \, specdiff
\, specflux \, spread \, wphase. Type: symbol.;
#X text 110 497 3\.;
#X text 150 497 int;
#X obj 246 498 cnv 1 70 20 empty empty empty 17 7 0 10 -245695 -1 0;
#X text 245 497 HS(samp): hop size (by default buffer_size/2). Type:
int. Min value: 0;
#X obj 20 542 cnv 1 745 1 empty empty empty 17 7 0 10 -203890 -1 0;
#X obj 20 547 cnv 5 98 25 empty empty properties: 4 12 0 14 -262144
-49933 0;
#X obj 735 550 ui.link @background_color 0.98039 0.98039 0.98039
@title [?] @url ceammc.props-info.pd;
#X msg 110 582 @bs;
#X text 245 582 (initonly) Get/Set buffer size. Type: int. Units: 'samp'.
Default value: 1024\. Min value: 64\.;
#X msg 110 624 @active;
#X text 245 624 Get/Set audio processing state. Type: bool. Default
value: 1\.;
#X msg 110 666 @awhitening;
#X text 245 666 Get/Set adaptive whitening. Type: bool. Default value:
0\.;
#X msg 110 696 @complex;
#X text 245 696 Alias to @method complex. Complex Domain Method onset
detection function.;
#X msg 110 753 @compression;
#X text 245 753 Get/Set lambda logarithmic compression factor \, 0
to disable. Type: float. Default value: 1\. Min value: 0\.;
#X msg 110 780 @delay;
#X text 245 780 Get/Set constant system delay to take back from detection
time. Type: float. Units: 'ms'. Default value: 49.9093\. Min value:
0\.;
#X msg 110 837 @energy;
#X text 245 837 Alias to @method energy. Energy based onset detection
function.;
#X msg 110 879 @hfc;
#X text 245 879 Alias to @method hfc. High Frequency Content onset
detection.;
#X msg 110 909 @hs;
#X text 245 909 Get/Set hop size. 0 means @bs/2\. Type: int. Units:
'samp'. Default value: 0\. Min value: 0\.;
#X msg 110 951 @kl;
#X text 245 951 Alias to @method kl. Kullback-Liebler onset detection
function.;
#X msg 110 993 @method;
#X text 245 993 Get/Set onset method. Default is hfc. Type: symbol.
Default value: default. Allowed values: specflux \, phase \, energy
\, hfc \, kl \, complex \, default \, specdiff \, wphase \, rolloff
\, spread \, kurtosis \, skewness \, complexdomain \, decrease \, slope
\, centroid.;
#X msg 110 1065 @mkl;
#X text 245 1065 Alias to @method mkl. Modified Kullback-Liebler onset
detection function.;
#X msg 110 1107 @phase;
#X text 245 1107 Alias to @method phase. Phase Based Method onset detection
function.;
#X msg 110 1149 @silence;
#X text 245 1149 Get/Set onset detection silence threshold. Type: float.
Units: 'db'. Default value: -70\. Range: -80\...0\.;
#X msg 110 1191 @specdiff;
#X text 245 1191 Alias to @method specdiff. Spectral difference method
onset detection function.;
#X msg 110 1233 @specflux;
#X text 245 1233 Alias to @method specflux. Spectral Flux.;
#X msg 110 1263 @speedlim;
#X text 245 1263 Get/Set minimum interval between two consecutive onsets.
Type: float. Units: 'ms'. Default value: 50\. Min value: 1\.;
#X msg 110 1305 @threshold;
#X text 245 1305 Get/Set peak picking threshold. Type: float. Default
value: 0.058\.;
#X msg 110 1347 @wphase;
#X text 245 1347 Alias to @method phase. Weighted Phase Deviation onset
detection function.;
#X obj 20 1399 cnv 1 745 1 empty empty empty 17 7 0 10 -203890 -1 0;
#X obj 20 1404 cnv 5 73 25 empty empty methods: 4 12 0 14 -262144
-49933 0;
#X msg 110 1439 reset;
#X text 245 1439 reset onset last frame and total frames counters.;
#X obj 20 1477 cnv 1 745 1 empty empty empty 17 7 0 10 -203890 -1 0;
#X obj 20 1482 cnv 5 64 25 empty empty inlets: 4 12 0 14 -262144
-49933 0;
#X text 110 1483 1\.;
#X text 245 1483 input signal.;
#X obj 20 1513 cnv 1 745 1 empty empty empty 17 7 0 10 -203890 -1 0;
#X obj 20 1518 cnv 5 73 25 empty empty outlets: 4 12 0 14 -262144
-49933 0;
#X text 110 1519 1\.;
#X text 245 1519 bang if onset detected.;
#X text 110 1539 2\.;
#X text 245 1539 float: time of the latest onset detected in milliseconds
from starting of measuring. You can reset start time with 'reset' message.;
#X obj 10 48 ui.link @title index @url ../index-help.pd;
#X text 51 45 ::;
#X obj 68 48 ui.link @title ceammc @url ceammc-help.pd;
#X text 116 45 ::;
#X obj 133 48 ui.link @title an @url ceammc.an-help.pd;
#X obj 1 1619 cnv 5 765 48 empty empty empty 17 7 0 10 -203890 -1 0;
#X text 10 1622 library: ceammc v0.9.7;
#X text 607 1634 see also:;
#X obj 682 1634 an.onset;
#N canvas 10 1641 400 290 info 0;
#X obj 1 1 cnv 1 107 287 empty empty empty 17 7 0 10 -183085 -1 0;
#X text 10 10 library:;
#X text 120 10 ceammc;
#X text 10 32 version:;
#X text 120 32 0.9.7;
#X text 10 54 object:;
#X text 120 54 an.onset~;
#X text 10 76 category:;
#X text 120 76 an;
#X text 10 98 since:;
#X text 120 98 0.9;
#X text 10 120 authors:;
#X text 120 120 Serge Poltavsky;
#X text 10 142 license:;
#X text 120 142 GPL3 or later;
#X text 10 164 keywords:;
#X text 120 164 onset;
#X text 10 186 website:;
#X obj 120 189 ui.link @title https://github.com/uliss/pd-ceammc @url
https://github.com/uliss/pd-ceammc;
#X obj 120 208 declare -lib ceammc;
#X obj 120 268 cnv 1 270 1 empty empty empty 17 7 0 10 -203890 -1 0;
#X text 120 268 generated by pddoc;
#X restore 10 1641 pd info;
#X connect 7 0 10 0;
#X connect 8 0 10 1;
#X connect 9 0 11 0;
#X connect 10 0 13 0;
#X connect 11 0 13 0;
#X connect 12 0 13 0;
#X connect 13 0 15 0;
#X connect 13 1 16 0;