#N canvas 0 0 785 555 12;
#X declare -lib ceammc;
#X obj 453 50 cnv 1 312 23 empty empty empty 17 7 0 10 -245760 -1 0;
#X text 453 50 zero crossing count/rate/freq calculator;
#X obj 1 1 cnv 5 765 40 empty empty an.zero~ 20 20 0 20 -104026 -4096
0;
#X obj 681 11 an.zero~;
#X floatatom 50 118 5 0 0 0 - - -;
#X obj 203 118 ui.dsp~;
#X obj 50 162 osc~;
#X obj 146 190 an.zero~ @mode freq;
#X obj 146 219 ui.n~;
#X obj 98 248 an.zero~ @mode rate;
#X obj 98 277 ui.n~;
#X obj 50 305 an.zero~ @mode count;
#X obj 50 334 ui.n~;
#X floatatom 50 363 5 0 0 0 - - -;
#X obj 50 392 osc~;
#X obj 50 421 an.zero~ @clock;
#X obj 50 449 ui.hgain~;
#X obj 50 478 dac~;
#X obj 20 527 cnv 1 745 1 empty empty empty 17 7 0 10 -203890 -1 0;
#X obj 20 532 cnv 5 98 26 empty empty properties: 4 10 0 14 -262144
-49933 0;
#X msg 110 567 @bs;
#X text 245 567 (initonly) Get/Set buffer size. Type: int. Units: samp.
Default value: 1024\. Range: 1\...65536\.;
#X msg 110 609 @clock;
#X text 245 609 (initonly) Get/Set alias for @mode count @bs 1\. Output
impulse at each zero crossing. Type: list. Default value: 0\.;
#X msg 110 651 @mode;
#X text 245 651 Get/Set calculation mode: if 'count' - output number
of zero crossing occurred in a period of current block size \, if 'rate'
- output zero crossing rate (zero crossing number / block size) \,
if 'freq' - output zero crossing frequency in hertz. Type: symbol.
Default value: count. Allowed values: count \, rate \, freq.;
#X obj 20 763 cnv 1 745 1 empty empty empty 17 7 0 10 -203890 -1 0;
#X obj 20 768 cnv 5 64 26 empty empty inlets: 4 10 0 14 -262144 -49933
0;
#X text 110 769 1\.;
#X text 245 769 input signal.;
#X obj 20 799 cnv 1 745 1 empty empty empty 17 7 0 10 -203890 -1 0;
#X obj 20 804 cnv 5 73 26 empty empty outlets: 4 10 0 14 -262144
-49933 0;
#X text 110 805 1\.;
#X text 245 805 output zero crossing count/freq/rate.;
#X obj 10 48 ui.link @title index @url ../index-help.pd;
#X text 51 45 ::;
#X obj 67 48 ui.link @title ceammc @url ceammc-help.pd;
#X text 115 45 ::;
#X obj 131 48 ui.link @title an @url ceammc.an-help.pd;
#X obj 1 855 cnv 5 765 48 empty empty empty 17 7 0 10 -203890 -1 0;
#X text 10 858 library: ceammc v0.9.6;
#X text 564 870 see also:;
#X obj 638 870 an.pitchtrack~;
#N canvas 10 877 400 290 info 0;
#X obj 1 1 cnv 1 107 287 empty empty empty 17 7 0 10 -183085 -1 0;
#X text 10 10 library:;
#X text 120 10 ceammc;
#X text 10 32 version:;
#X text 120 32 0.9.6;
#X text 10 54 object:;
#X text 120 54 an.zero~;
#X text 10 76 category:;
#X text 120 76 an;
#X text 10 98 since:;
#X text 120 98 0.9.5;
#X text 10 120 authors:;
#X text 120 120 Serge Poltavsky;
#X text 10 142 license:;
#X text 120 142 GPL3 or later;
#X text 10 164 keywords:;
#X text 120 164 zero \, crossing \, rate \, count \, freq;
#X text 10 186 website:;
#X obj 120 189 ui.link @title https://github.com/uliss/pure-data @url
https://github.com/uliss/pure-data;
#X obj 120 208 declare -lib ceammc;
#X obj 120 268 cnv 1 270 1 empty empty empty 17 7 0 10 -203890 -1 0;
#X text 120 268 generated by pddoc;
#X restore 10 877 pd info;
#X connect 4 0 6 0;
#X connect 6 0 7 0;
#X connect 7 0 8 0;
#X connect 6 0 9 0;
#X connect 9 0 10 0;
#X connect 6 0 11 0;
#X connect 11 0 12 0;
#X connect 13 0 14 0;
#X connect 14 0 15 0;
#X connect 15 0 16 0;
#X connect 16 0 17 0;
#X connect 16 0 17 1;