#N canvas 0 0 715 555 12;
#X declare -lib ceammc -lib creammc;
#X obj 578 50 cnv 1 117 21 empty empty empty 17 7 0 10 -245760 -1 0;
#X text 578 50 BPM calculator;
#X obj 1 1 cnv 5 712 40 empty empty array.bpm 20 20 0 20 -104026 -4096
0;
#X obj 621 11 array.bpm;
#X obj 205 80 cnv 1 490 47 empty empty empty 17 7 0 10 -257983 -1 0;
#X text 210 80 Calculates BPM (Beats Per Minute) rate using SoundTouch
library;
#X obj 50 155 bng 15 250 50 0 empty empty empty 17 7 0 10 -262144 -1
-1;
#N canvas 0 22 450 300 (subpatch) 0;
#X array A1 100 float 0;
#A 0 0 0 0 0 0 0 0 0 0 0 0 0 0 0 0 0 0 0 0 0 0 0 0 0 0 0 0 0 0 0 0 0 0
0 0 0 0 0 0 0 0 0 0 0 0 0 0 0 0 0 0 0 0 0 0 0 0 0 0 0 0 0 0 0 0 0 0 0
0 0 0 0 0 0 0 0 0 0 0 0 0 0 0 0 0 0 0 0 0 0 0 0 0 0 0 0 0 0 0 0;
#X coords 0 1 100 -1 200 140 1;
#X restore 395 155 graph;
#X obj 50 184 openpanel;
#X msg 50 213 load \$1 @to A1 @resize;
#X obj 50 242 snd.file;
#X obj 50 271 bng 15 250 50 0 empty empty empty 17 7 0 10 -262144 -1
-1;
#X obj 50 299 array.bpm A1;
#X floatatom 50 328 5 0 0 0 - - -;
#X obj 20 367 cnv 1 685 1 empty empty empty 17 7 0 10 -203890 -1 0;
#X obj 20 372 cnv 5 90 26 empty empty arguments: 4 10 0 14 -262144
-49933 0;
#X text 120 377 1\.;
#X text 150 377 symbol;
#X obj 241 378 cnv 1 49 18 empty empty empty 17 7 0 10 -245695 -1 0;
#X text 240 377 ARRAY: array name.;
#X obj 20 405 cnv 1 685 1 empty empty empty 17 7 0 10 -203890 -1 0;
#X obj 20 410 cnv 5 98 26 empty empty properties: 4 10 0 14 -262144
-49933 0;
#X msg 120 415 @array;
#X text 240 415 Get/Set array name. Type: symbol;
#X obj 20 452 cnv 1 685 1 empty empty empty 17 7 0 10 -203890 -1 0;
#X obj 20 457 cnv 5 64 26 empty empty inlets: 4 10 0 14 -262144 -49933
0;
#X text 120 462 1\.;
#X text 150 462 *bang*;
#X text 240 462 starts calculation.;
#X obj 20 490 cnv 1 685 1 empty empty empty 17 7 0 10 -203890 -1 0;
#X obj 20 495 cnv 5 73 26 empty empty outlets: 4 10 0 14 -262144
-49933 0;
#X text 120 500 1\.;
#X text 240 500 float value - BPM;
#X obj 10 48 ui.link @title index @url ../index-help.pd;
#X text 51 45 ::;
#X obj 67 48 ui.link @title ceammc @url ceammc-help.pd;
#X text 115 45 ::;
#X obj 131 48 ui.link @title array @url ceammc.array-help.pd;
#X obj 1 548 cnv 5 712 48 empty empty empty 17 7 0 10 -203890 -1 0;
#X text 10 551 library: ceammc v0.3;
#N canvas 10 570 400 290 info 0;
#X obj 1 1 cnv 1 107 287 empty empty empty 17 7 0 10 -183085 -1 0;
#X text 10 10 library:;
#X text 120 10 ceammc;
#X text 10 32 version:;
#X text 120 32 0.3;
#X text 10 54 object:;
#X text 120 54 array.bpm;
#X text 10 76 category:;
#X text 120 76 array;
#X text 10 98 since:;
#X text 120 98 0.4;
#X text 10 120 authors:;
#X text 120 120 Olli Parviainen \, Serge Poltavsky;
#X text 10 142 license:;
#X text 120 142 GPL3;
#X text 10 164 keywords:;
#X text 120 164 array \, bpm;
#X text 10 186 website:;
#X obj 120 189 ui.link @title https://github.com/uliss/pure-data @url
https://github.com/uliss/pure-data;
#X obj 120 208 declare -lib ceammc -lib creammc;
#X obj 120 268 cnv 1 270 1 empty empty empty 17 7 0 10 -203890 -1 0;
#X text 120 268 generated by pddoc;
#X restore 10 570 pd info;
#X connect 12 0 13 0;
#X connect 8 0 9 0;
#X connect 6 0 8 0;
#X connect 10 0 11 0;
#X connect 11 0 12 0;
#X connect 9 0 10 0;