#N canvas 0 0 645 385 12;
#X msg 20 48 stop;
#X text 20 77 phase range 0..1;
#X text 221 77 percent range 0..100;
#X obj 20 106 ui.rslider;
#X obj 221 106 ui.rslider;
#X msg 20 135 range \$1 \$2;
#X obj 221 135 math.* 100;
#X msg 125 164 bang;
#X msg 221 164 range \$1% \$2%;
#X obj 20 192 array.play~ APLAY;
#X obj 20 221 ui.hgain~;
#X obj 20 250 dac~;
#X connect 3 0 5 0;
#X connect 4 0 6 0;
#X connect 6 0 8 0;
#X connect 5 0 9 0;
#X connect 8 0 9 0;
#X connect 9 0 10 0;
#X connect 10 0 11 0;
#X connect 10 0 11 1;
#X connect 7 0 9 0;
#X connect 0 0 9 0;
#X connect 9 2 7 0;
