#N canvas 0 0 785 555 12;
#X declare -lib ceammc;
#X obj 598 50 cnv 1 167 23 empty empty empty 17 7 0 10 -245760 -1 0;
#X text 598 50 array FFT convolution;
#X obj 1 1 cnv 5 765 40 empty empty array.convolve 20 20 0 20 -104026
-4096 0;
#X obj 638 11 array.convolve;
#N canvas 0 22 450 300 (subpatch) 0;
#X array A-CONV 100 float 1;
#A 0 0 0 0 0 0 0 0 0 0 0 0 0 0 0 0 0 0 0 0 0 0 0 0 0 0 0 0 0 0 0 0 0 0
0 0 0 0 0 0 0 0 0 0 0 0 0 0 0 0 0 0 0 0 0 0 0 0 0 0 0 0 0 0 0 0 0 0 0
0 0 0 0 0 0 0 0 0 0 0 0 0 0 0 0 0 0 0 0 0 0 0 0 0 0 0 0 0 0 0 0;
#X coords 0 1 100 -1 93 18 1;
#X restore 50 118 graph;
#N canvas 0 22 450 300 (subpatch) 0;
#X array A-IR 10 float 1;
#A 0 0 0 0 0 0 0 0 0 0 0;
#X coords 0 1 10 -1 79 18 1;
#X restore 270 118 graph;
#X obj 50 277 bng 15 250 50 0 empty empty empty 17 7 0 10 -262144 -1
-1;
#X obj 50 305 array.convolve A-CONV A-IR;
#X obj 50 334 bng 15 250 50 0 empty empty empty 17 7 0 10 -262144 -1
-1;
#X obj 20 366 cnv 1 745 1 empty empty empty 17 7 0 10 -203890 -1 0;
#X obj 20 371 cnv 5 90 25 empty empty arguments: 4 10 0 14 -262144
-49933 0;
#X text 110 406 1.;
#X text 150 406 symbol;
#X obj 246 407 cnv 1 48 20 empty empty empty 17 7 0 10 -245695 -1 0;
#X text 245 406 ARRAY: target array. Type: symbol.;
#X text 110 426 2.;
#X text 150 426 symbol;
#X obj 246 427 cnv 1 24 20 empty empty empty 17 7 0 10 -245695 -1 0;
#X text 245 426 IR: array with impulse response. Type: symbol.;
#X obj 20 456 cnv 1 745 1 empty empty empty 17 7 0 10 -203890 -1 0;
#X obj 20 461 cnv 5 98 25 empty empty properties: 4 10 0 14 -262144
-49933 0;
#X msg 110 496 @array;
#X text 245 496 Get/Set target array. Type: symbol.;
#X msg 110 526 @ir;
#X text 245 526 Get/Set impulse response source array. Type: symbol.;
#X msg 110 556 @norm;
#X text 245 556 Get/Set impulse response normalization. Type: bool.
Default value: 0.;
#X obj 20 608 cnv 1 745 1 empty empty empty 17 7 0 10 -203890 -1 0;
#X obj 20 613 cnv 5 64 25 empty empty inlets: 4 10 0 14 -262144 -49933
0;
#X text 110 614 1.;
#X text 150 614 *bang*;
#X text 245 614 start convolution process.;
#X text 110 634 2.;
#X text 150 634 *symbol*;
#X text 245 634 set array name.;
#X obj 20 664 cnv 1 745 1 empty empty empty 17 7 0 10 -203890 -1 0;
#X obj 20 669 cnv 5 73 25 empty empty outlets: 4 10 0 14 -262144
-49933 0;
#X text 110 670 1.;
#X text 245 670 bang: on done.;
#X obj 10 48 ui.link @title index @url ../index-help.pd;
#X text 51 45 ::;
#X obj 68 48 ui.link @title ceammc @url ceammc-help.pd;
#X text 116 45 ::;
#X obj 133 48 ui.link @title array @url ceammc.array-help.pd;
#X obj 1 720 cnv 5 765 48 empty empty empty 17 7 0 10 -203890 -1 0;
#X text 10 723 library: ceammc v0.9.7;
#N canvas 10 742 400 290 info 0;
#X obj 1 1 cnv 1 107 287 empty empty empty 17 7 0 10 -183085 -1 0;
#X text 10 10 library:;
#X text 120 10 ceammc;
#X text 10 32 version:;
#X text 120 32 0.9.7;
#X text 10 54 object:;
#X text 120 54 array.convolve;
#X text 10 76 category:;
#X text 120 76 array;
#X text 10 98 since:;
#X text 120 98 0.9.5;
#X text 10 120 authors:;
#X text 120 120 Serge Poltavsky;
#X text 10 142 license:;
#X text 120 142 GPL3 or later;
#X text 10 164 keywords:;
#X text 120 164 array \, fft \, convolution;
#X text 10 186 website:;
#X obj 120 189 ui.link @title https://github.com/uliss/pd-ceammc @url
https://github.com/uliss/pd-ceammc;
#X obj 120 208 declare -lib ceammc;
#X obj 120 268 cnv 1 270 1 empty empty empty 17 7 0 10 -203890 -1 0;
#X text 120 268 generated by pddoc;
#X restore 10 742 pd info;
#X connect 6 0 7 0;
#X connect 7 0 8 0;