#N canvas 0 0 785 555 12;
#X declare -lib ceammc;
#X obj 553 50 cnv 1 212 23 empty empty empty 17 7 0 10 -245760 -1 0;
#X text 553 50 set array content from list;
#X obj 1 1 cnv 5 765 40 empty empty array.set 20 20 0 20 -104026 -4096
0;
#X obj 413 11 ceammc/list->array;
#X obj 569 11 list->array;
#X obj 674 11 array.set;
#N canvas 0 22 450 300 (subpatch) 0;
#X array aset 100 float 0;
#X coords 0 1 100 0 78 18 1;
#X restore 50 118 graph;
#X msg 50 248 0 0.2 0.5;
#X msg 165 248 0 0.9;
#X msg 251 248 1 2 0 4 -5;
#X msg 376 248 1 2 1 4 5 6 7 8 1 9;
#X obj 50 277 array.set aset;
#X obj 251 277 array.set aset @normalize;
#X obj 20 327 cnv 1 745 1 empty empty empty 17 7 0 10 -203890 -1 0;
#X obj 20 332 cnv 5 90 25 empty empty arguments: 4 12 0 14 -262144
-49933 0;
#X obj 735 335 ui.link @background_color 0.98039 0.98039 0.98039
@title [?] @url ceammc.args-info.pd;
#X text 110 367 1\.;
#X text 150 367 symbol;
#X obj 246 368 cnv 1 48 20 empty empty empty 17 7 0 10 -245695 -1 0;
#X text 245 367 ARRAY: array name. Type: symbol.;
#X obj 20 397 cnv 1 745 1 empty empty empty 17 7 0 10 -203890 -1 0;
#X obj 20 402 cnv 5 98 25 empty empty properties: 4 12 0 14 -262144
-49933 0;
#X obj 735 405 ui.link @background_color 0.98039 0.98039 0.98039
@title [?] @url ceammc.props-info.pd;
#X msg 110 437 @normalize;
#X text 245 437 scale input values to fit them in [0 \, 1] range. Default
value: 0\.;
#X msg 110 479 @array;
#X text 245 479 Get/Set array name. Type: symbol.;
#X msg 110 509 @redraw;
#X text 245 509 Get/Set redraw array view. Type: bool. Default value:
1\.;
#X obj 20 549 cnv 1 745 1 empty empty empty 17 7 0 10 -203890 -1 0;
#X obj 20 554 cnv 5 64 25 empty empty inlets: 4 12 0 14 -262144 -49933
0;
#X text 110 555 1\.;
#X text 150 555 *list*;
#X text 245 555 resizes array and sets its content.;
#X text 150 575 *symbol*;
#X text 245 575 set array name.;
#X obj 10 48 ui.link @title index @url ../index-help.pd;
#X text 51 45 ::;
#X obj 68 48 ui.link @title ceammc @url ceammc-help.pd;
#X text 116 45 ::;
#X obj 133 48 ui.link @title array @url ceammc.array-help.pd;
#X obj 1 625 cnv 5 765 48 empty empty empty 17 7 0 10 -203890 -1 0;
#X text 10 628 library: ceammc v0.9.7;
#X text 592 640 see also:;
#X obj 667 640 array.each;
#N canvas 10 647 400 290 info 0;
#X obj 1 1 cnv 1 107 287 empty empty empty 17 7 0 10 -183085 -1 0;
#X text 10 10 library:;
#X text 120 10 ceammc;
#X text 10 32 version:;
#X text 120 32 0.9.7;
#X text 10 54 object:;
#X text 120 54 array.set;
#X text 10 76 category:;
#X text 120 76 array;
#X text 10 98 since:;
#X text 120 98 0.4;
#X text 10 120 authors:;
#X text 120 120 Serge Poltavsky;
#X text 10 142 license:;
#X text 120 142 GPL3 or later;
#X text 10 164 keywords:;
#X text 120 164 array \, set;
#X text 10 186 website:;
#X obj 120 189 ui.link @title https://github.com/uliss/pd-ceammc @url
https://github.com/uliss/pd-ceammc;
#X obj 120 208 declare -lib ceammc;
#X obj 120 268 cnv 1 270 1 empty empty empty 17 7 0 10 -203890 -1 0;
#X text 120 268 generated by pddoc;
#X restore 10 647 pd info;
#X connect 7 0 11 0;
#X connect 8 0 11 0;
#X connect 9 0 12 0;
#X connect 10 0 12 0;