#N canvas 0 0 785 555 12;
#X declare -lib ceammc;
#X obj 529 50 cnv 1 236 23 empty empty empty 17 7 0 10 -245760 -1 0;
#X text 529 50 plot signal on specified array;
#X obj 1 1 cnv 5 765 40 empty empty array.plot~ 20 20 0 20 -104026
-4096 0;
#X obj 659 11 array.plot~;
#X obj 50 118 ui.dsp~;
#N canvas 0 22 450 300 (subpatch) 0;
#X array APL1 100 float 1;
#A 0 0 0 0 0 0 0 0 0 0 0 0 0 0 0 0 0 0 0 0 0 0 0 0 0 0 0 0 0 0 0 0 0 0
0 0 0 0 0 0 0 0 0 0 0 0 0 0 0 0 0 0 0 0 0 0 0 0 0 0 0 0 0 0 0 0 0 0 0
0 0 0 0 0 0 0 0 0 0 0 0 0 0 0 0 0 0 0 0 0 0 0 0 0 0 0 0 0 0 0 0;
#X coords 0 1 100 -1 200 200 1;
#X restore 261 118 graph;
#X obj 50 176 osc~ 440;
#X obj 174 176 bng 15 250 50 0 empty empty empty 17 7 0 10 -262144 -1
-1;
#X obj 50 205 array.plot~ APL1;
#X obj 50 248 bng 15 250 50 0 empty empty empty 17 7 0 10 -262144 -1
-1;
#X obj 50 277 plot.geomspace~ 2 1024;
#X obj 50 305 array.plot~ APL1 @yauto 1;
#X obj 20 354 cnv 1 745 1 empty empty empty 17 7 0 10 -203890 -1 0;
#X obj 20 359 cnv 5 98 26 empty empty properties: 4 10 0 14 -262144
-49933 0;
#X msg 110 394 @array;
#X text 245 394 Get/Set array name. Type: symbol.;
#X msg 110 423 @yauto;
#X text 245 423 Get/Set calculate y-axis range automatically. Type:
int. Default value: 0\. Allowed values: 0 \, 1\.;
#X msg 110 465 @ymax;
#X text 245 465 Get/Set minimal y-axis value. Type: float. Default
value: 1\. Range: -1024\...1024\.;
#X msg 110 507 @ymin;
#X text 245 507 Get/Set minimal y-axis value. Type: float. Default
value: -1\. Range: -1024\...1024\.;
#X obj 20 559 cnv 1 745 1 empty empty empty 17 7 0 10 -203890 -1 0;
#X obj 20 564 cnv 5 64 26 empty empty inlets: 4 10 0 14 -262144 -49933
0;
#X text 110 565 1\.;
#X text 245 565 input signal.;
#X text 110 585 2\.;
#X text 150 585 *bang*;
#X text 245 585 plot all samples fitted to specified array.;
#X text 150 605 *float*;
#X text 245 605 plot specified number of samples \, resizes array.;
#X obj 20 635 cnv 1 745 1 empty empty empty 17 7 0 10 -203890 -1 0;
#X obj 20 640 cnv 5 73 26 empty empty outlets: 4 10 0 14 -262144
-49933 0;
#X obj 10 48 ui.link @title index @url ../index-help.pd;
#X text 51 45 ::;
#X obj 67 48 ui.link @title ceammc @url ceammc-help.pd;
#X text 115 45 ::;
#X obj 131 48 ui.link @title array @url ceammc.array-help.pd;
#X obj 1 681 cnv 5 765 48 empty empty empty 17 7 0 10 -203890 -1 0;
#X text 10 684 library: ceammc v0.9.4;
#X text 519 696 see also:;
#X obj 593 699 ui.link @background_color 0.78431 0.78431 0.78431
@title [ui.plot~] @url ui.plot~-help.pd;
#X obj 668 696 array.plot;
#N canvas 10 703 400 290 info 0;
#X obj 1 1 cnv 1 107 287 empty empty empty 17 7 0 10 -183085 -1 0;
#X text 10 10 library:;
#X text 120 10 ceammc;
#X text 10 32 version:;
#X text 120 32 0.9.4;
#X text 10 54 object:;
#X text 120 54 array.plot~;
#X text 10 76 category:;
#X text 120 76 array;
#X text 10 98 since:;
#X text 120 98 0.9;
#X text 10 120 authors:;
#X text 120 120 Serge Poltavsky;
#X text 10 142 license:;
#X text 120 142 GPL3 or later;
#X text 10 164 keywords:;
#X text 120 164 array \, plot;
#X text 10 186 website:;
#X obj 120 189 ui.link @title https://github.com/uliss/pure-data @url
https://github.com/uliss/pure-data;
#X obj 120 208 declare -lib ceammc;
#X obj 120 268 cnv 1 270 1 empty empty empty 17 7 0 10 -203890 -1 0;
#X text 120 268 generated by pddoc;
#X restore 10 703 pd info;
#X connect 6 0 8 0;
#X connect 7 0 8 1;
#X connect 9 0 10 0;
#X connect 10 0 11 0;
#X connect 10 1 11 1;