#N canvas 0 0 645 385 12;
#X msg 20 48 play;
#X msg 87 48 stop;
#X msg 164 48 @speed 0.5 \, bang;
#X msg 356 48 @speed -2 \, bang;
#X obj 20 77 array.play~ APLAY @clock 0.1;
#X obj 20 106 sec->str @symbol;
#X symbolatom 20 135 5 0 0 0 - - -;
#X connect 0 0 4 0;
#X connect 1 0 4 0;
#X connect 2 0 4 0;
#X connect 3 0 4 0;
#X connect 4 1 5 0;
#X connect 5 0 6 0;
