#N canvas 0 0 645 357 12;
#X msg 20 48 @speed * 0.9 \, bang;
#X obj 20 77 array.play~ APLAY;
#X obj 20 106 ui.hgain~;
#X obj 20 135 dac~;
#X connect 0 0 1 0;
#X connect 1 0 2 0;
#X connect 2 0 3 0;
#X connect 2 0 3 1;
#X connect 1 2 0 0;
