#N canvas 0 0 760 555 12;
#X obj 20 53 ui.link @title index @url ../index-help.pd;
#X text 62 50 ::;
#X obj 80 53 ui.link @title ceammc @url ceammc-help.pd;
#X obj 30 117 lfo.+pulse~;
#X text 200 117 Unit-amplitude nonnegative low frequency pulse train;
#X obj 30 145 lfo.+saw~;
#X text 200 145 Positive unit-amplitude low frequency saw wave;
#X obj 30 173 lfo.+square~;
#X text 200 173 Positive low frequency square wave;
#X obj 30 201 lfo.+tri~;
#X text 200 201 Positive unit-amplitude low frequency triangle wave;
#X obj 30 229 lfo.impulse~;
#X text 200 229 Unit-amplitude low-frequency impulse train;
#X obj 30 257 lfo.mosc~;
#X text 200 257 multi-oscillator with various waveforms;
#X obj 30 285 lfo.pulse~;
#X text 200 285 Full-range unit-amplitude low frequency pulse train;
#X obj 30 313 lfo.saw~;
#X text 200 313 Full-range unit-amplitude low frequency saw;
#X obj 30 341 lfo.square~;
#X text 200 341 Zero-mean unit-amplitude low frequency square wave;
#X obj 30 369 lfo.tri~;
#X text 200 369 Zero-mean unit-amplitude low frequency triangle wave;
#X obj 1 1 cnv 5 740 40 empty empty ceammc::lfo 20 20 0 20 -104026
-4096 0;
#X obj 1 513 cnv 5 740 40 empty empty empty 17 7 0 10 -203890 -1 0;
#X text 20 523 library: ceammc;