#N canvas 0 0 760 555 12;
#X obj 20 53 ui.link @title index @url ../index-help.pd;
#X text 62 50 ::;
#X obj 80 53 ui.link @title ceammc @url ceammc-help.pd;
#X obj 30 117 ceammc.search;
#X text 200 117 ceammc library search object;
#X obj 30 145 chrono.datetime;
#X text 200 145 output current date and time info;
#X obj 30 173 convolve~;
#X text 200 173 realtime FFT convolution;
#X obj 30 204 ui.link @title [function] @url function-help.pd;
#X text 200 201 named function;
#X obj 30 226 function.call;
#X text 200 226 call named function;
#X obj 30 254 gain~;
#X text 200 254 multislot signal gain;
#X obj 30 282 gate~;
#X text 200 282 multislot signal gate;
#X obj 30 310 logger;
#X text 200 310 advanced data logger;
#X obj 30 338 matrix~;
#X text 200 338 signal routing matrix;
#X obj 30 366 merge~;
#X text 200 366 parametrized signal merge;
#X obj 30 394 metro.choice;
#X text 200 394 metro with random choice from timeset;
#X obj 30 422 metro.pattern;
#X text 200 422 metro with rhythmic patterns;
#X obj 30 450 metro.random;
#X text 200 450 metro random bang with specified range;
#X obj 30 478 metro.seq;
#X text 200 478 metro sequencer;
#X obj 30 506 metro.wchoice;
#X text 200 506 metro with weighted random choice from timeset;
#X obj 30 534 mix~;
#X text 200 534 multislot signal mixer;
#X obj 30 562 nsig~;
#X text 200 562 Mulitchannel converter from control to audio rate;
#X obj 30 590 obj.props;
#X text 200 590 property extractor;
#X obj 30 618 radio;
#X text 200 618 float index to outlet values as radio switch;
#X obj 30 646 split~;
#X text 200 646 parametrized signal splitter;
#X obj 30 674 spring;
#X text 200 674 float value "spring";
#X obj 30 702 sync;
#X text 200 702 value synchronization;
#X obj 30 730 window;
#X text 200 730 returns window value by given window position;
#X obj 30 758 xdac~;
#X text 200 758 dac~ with channel ranges;
#X obj 30 786 xfade2~;
#X text 200 786 multi stereo-signal crossfade;
#X obj 30 814 xfade~;
#X text 200 814 multi signal crossfade;
#X obj 30 842 z~;
#X text 200 842 sample delay;
#X obj 1 1 cnv 5 740 40 empty empty ceammc::base 20 20 0 20 -104026
-4096 0;
#X obj 1 870 cnv 5 740 40 empty empty empty 17 7 0 10 -203890 -1 0;
#X text 20 880 library: ceammc;