#N canvas 0 0 760 555 12;
#X obj 20 53 ui.link @title index @url ../index-help.pd;
#X text 62 50 ::;
#X obj 79 53 ui.link @title ceammc @url ceammc-help.pd;
#X obj 30 116 dyn.comp2~;
#X text 200 116 stereo dynamic range compressor;
#X obj 30 143 dyn.comp_peak2~;
#X text 200 143 stereo peak feed forward compressor with channel linking;
#X obj 30 170 dyn.comp_peak~;
#X text 200 170 mono dynamic range peak feed forward compressor;
#X obj 30 197 dyn.comp_up2~;
#X text 200 197 stereo upward compressor with channel linking;
#X obj 30 224 dyn.comp_up~;
#X text 200 224 mono upward compressor;
#X obj 30 251 dyn.comp~;
#X text 200 251 mono dynamic range compressors;
#X obj 30 278 dyn.expand2~;
#X text 200 278 stereo dynamic range expander with channel linking;
#X obj 30 305 dyn.expand~;
#X text 200 305 mono dynamic range expander;
#X obj 30 332 dyn.gate2~;
#X text 200 332 stereo signal gate;
#X obj 30 359 dyn.gate~;
#X text 200 359 mono signal gate;
#X obj 30 386 dyn.limit2~;
#X text 200 386 stereo 1176LN Peak Limiter;
#X obj 30 413 dyn.limit~;
#X text 200 413 mono 1176LN Peak Limiter;
#X obj 30 440 dyn.softclip~;
#X text 200 440 soft signal clip;
#X obj 1 1 cnv 5 740 40 empty empty ceammc::dyn 20 20 0 20 -104026
-4096 0;
#X obj 1 513 cnv 5 740 40 empty empty empty 17 7 0 10 -203890 -1 0;
#X text 20 523 library: ceammc;