#N canvas 0 0 760 555 12;
#X obj 20 53 ui.link @title index @url ../index-help.pd;
#X text 62 50 ::;
#X obj 80 53 ui.link @title ceammc @url ceammc-help.pd;
#X obj 30 117 is_any;
#X text 200 117 checks if input data has *any* type;
#X obj 30 145 is_bang;
#X text 200 145 checks if input data has *bang* type;
#X obj 30 173 is_data;
#X text 200 173 checks if input data has *data* type;
#X obj 30 201 is_dict;
#X text 200 201 checks if input data has *dict* type;
#X obj 30 229 is_even;
#X text 200 229 checks if input number is even;
#X obj 30 257 is_file;
#X text 200 257 checks if file exists and accessible;
#X obj 30 285 is_float;
#X text 200 285 checks if input data has *float* type;
#X obj 30 313 is_list;
#X text 200 313 checks if input data has *list* type;
#X obj 30 341 is_odd;
#X text 200 341 checks if input number is odd;
#X obj 30 369 is_pointer;
#X text 200 369 checks if input data has *pointer* type;
#X obj 30 397 is_prop;
#X text 200 397 checks if input message is *property* message;
#X obj 30 425 is_symbol;
#X text 200 425 checks if input data has *symbol* type;
#X obj 1 1 cnv 5 740 40 empty empty ceammc::predicates 20 20 0 20
-104026 -4096 0;
#X obj 1 513 cnv 5 740 40 empty empty empty 17 7 0 10 -203890 -1 0;
#X text 20 523 library: ceammc;