#N canvas 0 0 760 555 12;
#X obj 20 53 ui.link @title index @url ../index-help.pd;
#X text 62 50 ::;
#X obj 80 53 ui.link @title ceammc @url ceammc-help.pd;
#X obj 30 117 file.size;
#X text 200 117 output file size;
#X obj 30 145 path.basename;
#X text 200 145 outputs filename portion of pathname;
#X obj 30 173 path.dirname;
#X text 200 173 outputs directory portion of pathname;
#X obj 30 201 path.exists;
#X text 200 201 checks if given path exists;
#X obj 30 229 path.file;
#X text 200 229 file input/output;
#X obj 30 257 path.is_dir;
#X text 200 257 check if path is directory;
#X obj 30 285 path.lsdir;
#X text 200 285 list directory contents;
#X obj 30 313 path.monitor;
#X text 200 313 filesystem event monitor;
#X obj 30 341 path.normalize;
#X text 200 341 normalize file paths;
#X obj 30 369 path.pattern;
#X text 200 369 pattern filename generator;
#X obj 30 397 path.search;
#X text 200 397 file search;
#X obj 30 425 path.split;
#X text 200 425 file path split;
#X obj 1 1 cnv 5 740 40 empty empty ceammc::path 20 20 0 20 -104026
-4096 0;
#X obj 1 513 cnv 5 740 40 empty empty empty 17 7 0 10 -203890 -1 0;
#X text 20 523 library: ceammc;