#N canvas 0 0 760 555 12;
#X obj 20 53 ui.link @title index @url ../index-help.pd;
#X text 62 50 ::;
#X obj 80 53 ui.link @title ceammc @url ceammc-help.pd;
#X obj 30 117 canvas.active;
#X text 200 117 checks if canvas window is on top and active;
#X obj 30 145 canvas.current;
#X text 200 145 verbose information about current canvas;
#X obj 30 173 canvas.dir;
#X text 200 173 current canvas directory and nesting level;
#X obj 30 201 canvas.name;
#X text 200 201 current canvas name;
#X obj 30 229 canvas.path;
#X text 200 229 current canvas fullpath;
#X obj 30 257 canvas.top;
#X text 200 257 verbose information about top-level canvas;
#X obj 30 285 patch.args;
#X text 200 285 Get patch or subpatch arguments;
#X obj 30 313 patch.deps;
#X text 200 313 patch dependencies: used objects and abstractions;
#X obj 30 341 patch.tree;
#X text 200 341 patch tree;
#X obj 1 1 cnv 5 740 40 empty empty ceammc::patch 20 20 0 20 -104026
-4096 0;
#X obj 1 513 cnv 5 740 40 empty empty empty 17 7 0 10 -203890 -1 0;
#X text 20 523 library: ceammc;