#N canvas 0 0 700 500 12;
#X obj 1 1 cnv 5 680 40 empty empty CEAMMC\ documentation 20 20 0 20
-104026 -4096 0;
#X obj 20 103 cnv 1 660 1 empty empty empty 17 7 0 10 -203890 -1 0;
#X obj 20 61 cnv 5 450 32 empty empty Object\ arguments\ in\ ceammc 4
16 0 17 -262144 -104026 0;
#X text 40 124 Object arguments and properties in ceammc objects are
**expanded** before(!) object creation and the object has no access
to unexpanded arguments \, it sees only expansion result. Note: this
happens only for ceammc library objects \, not vanilla or others!, f 80;
#X text 40 199 The several things are happend:, f 80;
#X text 50 229 1\. Unquoting: if you create object with arguments [obj
"THE ARGS"] the object first arguments will be single symbol: THE ARG
(with whitespace in the middle), f 79;
#X msg 140 274 dump;
#X obj 164 298 symbol.equal "the string with spaces";
#X obj 140 322 symbol.equal the\ string\ with\ spaces;
#X text 70 355 If you need to enter double quotes: escape them with
a backtick: `, f 77;
#X msg 140 385 dump;
#X obj 140 409 symbol.equal "`"quoted string`"";
#X text 70 466 To enter the backtick symbol inside of the double-quoted
string: escape it with itself:, f 77;
#X msg 140 511 dump;
#X obj 140 535 symbol.equal "``back-ticks``";
#X text 50 592 2\. Number substitution: hex or binary values recognized
and replaced with decimal values:, f 79;
#X msg 140 637 bang;
#X obj 140 661 data.list 0xBEEF 0b110101;
#X obj 140 685 ui.dt;
#X text 50 718 3\. Do the function calling for inital arguments. In
the following example (before object creation!) list 4 1 3.1415 2 is
sorted in ascending order \, then reversed \, thus [data.list] is created
with list arguments: 4 3.1415 2 1\. Function call can be nested., f 79;
#X msg 140 793 dump;
#X obj 140 817 data.list reverse(sort(4 1 pi() 2));
#X text 50 874 the following functions are available:, f 79;
#X text 70 904 ◦ pi() - replaced with π number, f 67;
#X text 70 924 ◦ e() - replaced with e number, f 67;
#X text 70 944 ◦ sort(LIST) - sort list arguments in ascending order, f 67;
#X text 70 964 ◦ reverse(LIST) - reverse list order, f 67;
#X text 70 984 ◦ ..., f 67;
#X obj 70 1007 ui.link @title ceammc.functions-info.pd @url
ceammc.functions-info.pd;
#X text 50 1049 4\. Data parsing. Ceammc library supports data structures
that are stored in the single special data atom., f 79;
#X text 70 1094 Note: vanilla [print] printing method is replaced for
data printing support., f 77;
#X msg 140 1124 bang;
#X obj 140 1148 data.dict \[a: 1 2 3 b: A B C\];
#X obj 140 1172 print DICT;
#X obj 1 1225 cnv 5 680 40 empty empty empty 17 7 0 10 -203890 -1 0;
#X connect 6 0 7 0;
#X connect 6 0 8 0;
#X connect 10 0 11 0;
#X connect 13 0 14 0;
#X connect 16 0 17 0;
#X connect 17 0 18 0;
#X connect 20 0 21 0;
#X connect 31 0 32 0;
#X connect 32 0 33 0;