#N canvas 0 0 760 555 12;
#X obj 20 53 ui.link @title index @url ../index-help.pd;
#X text 62 50 ::;
#X obj 80 53 ui.link @title ceammc @url ceammc-help.pd;
#X obj 30 117 string;
#X text 200 117 string constructor;
#X obj 30 145 string.contains;
#X text 200 145 checks if string contains specified substring;
#X obj 30 173 string.ends_with;
#X text 200 173 checks if string ends with specified substring;
#X obj 30 201 string.equal;
#X text 200 201 check strings or symbols for equality;
#X obj 30 229 string.format;
#X text 200 229 formats string like printf.;
#X obj 30 257 string.join;
#X text 200 257 joins (concatenates) list to string with separator;
#X obj 30 285 string.length;
#X text 200 285 number of characters in string (unicode supported);
#X obj 30 313 string.match;
#X text 200 313 check if string match regular expression;
#X obj 30 341 string.remove;
#X text 200 341 remove substring from input string;
#X obj 30 369 string.replace;
#X text 200 369 replace from one substring to another in input string;
#X obj 30 397 string.split;
#X text 200 397 split string or symbol by separator;
#X obj 30 425 string.starts_with;
#X text 200 425 checks if string starts with specified substring;
#X obj 30 453 string.substr;
#X text 200 453 extract substring from input string;
#X obj 30 481 string2symbol;
#X text 200 481 converts string to symbol;
#X obj 1 1 cnv 5 740 40 empty empty ceammc::string 20 20 0 20 -104026
-4096 0;
#X obj 1 513 cnv 5 740 40 empty empty empty 17 7 0 10 -203890 -1 0;
#X text 20 523 library: ceammc;