#N canvas 0 0 760 555 12;
#X obj 20 53 ui.link @title index @url ../index-help.pd;
#X text 62 50 ::;
#X obj 80 53 ui.link @title ceammc @url ceammc-help.pd;
#X obj 30 117 local.dict;
#X text 200 117 local named dict object;
#X obj 30 145 local.float;
#X text 200 145 canvas-scoped named float variable;
#X obj 30 173 local.int;
#X text 200 173 canvas-scoped named integer variable;
#X obj 30 201 local.list;
#X text 200 201 local named list object;
#X obj 30 229 local.mlist;
#X text 200 229 local named mlist object;
#X obj 30 257 local.set;
#X text 200 257 local named set object;
#X obj 1 1 cnv 5 740 40 empty empty ceammc::local 20 20 0 20 -104026
-4096 0;
#X obj 1 513 cnv 5 740 40 empty empty empty 17 7 0 10 -203890 -1 0;
#X text 20 523 library: ceammc;