#N canvas 0 0 785 555 12;
#X declare -lib ceammc;
#X obj 482 50 cnv 1 283 23 empty empty empty 17 7 0 10 -245760 -1 0;
#X text 482 50 Gingerbreadman map chaotic generator;
#X obj 1 1 cnv 5 765 40 empty empty chaos.gbman0 20 20 0 20 -104026
-4096 0;
#X obj 653 11 chaos.gbman0;
#X obj 210 80 cnv 1 555 124 empty empty empty 17 7 0 10 -257983 -1 0;
#X text 215 80 A non-interpolating generator based on the difference
equations:;
#X text 215 120 x(n+1) = 1 - y(n) + |x(n)|;
#X text 215 145 y(n+1) = x(n);
#X obj 215 170 ui.link @background_color 0.98039 0.98039 0.98039
@title wiki: Gingerbreadman map @url
https://en.wikipedia.org/wiki/Gingerbreadman_map;
#X obj 50 232 tgl 15 0 empty empty empty 17 7 0 10 -262144 -1 -1 0 1;
#X obj 165 232 ui.dsp~;
#X obj 376 232 r~ gbman~;
#X obj 50 261 metro 100;
#X obj 376 261 rzero~ -1;
#X obj 491 261 rzero~ 1;
#X msg 50 290 3;
#X obj 376 290 clip~ -1 1;
#X obj 491 290 clip~ -1 1;
#X obj 50 319 list.gen;
#X obj 174 319 chaos.gbman0;
#X obj 376 319 flt.resonbp~ 62 40;
#X obj 50 348 l->l -2 7 60 250;
#X obj 376 348 pan.spread~ 4, f 18;
#X obj 50 376 list.unpack 3;
#X obj 376 376 ui.hgain2~ @size 15 129;
#X obj 50 405 sig~;
#X obj 155 405 * 600;
#X obj 251 405 / 250;
#X obj 376 405 dac~, f 18;
#X obj 50 434 lop~ 25;
#X obj 155 434 sig~;
#X msg 251 434 @res \$1;
#X obj 50 463 osc.saw~;
#X obj 155 463 lop~ 6;
#X obj 50 492 flt.moog_vcf~;
#X obj 50 520 s~ gbman~;
#X obj 20 570 cnv 1 745 1 empty empty empty 17 7 0 10 -203890 -1 0;
#X obj 20 575 cnv 5 90 25 empty empty arguments: 4 10 0 14 -262144
-49933 0;
#X text 110 610 1.;
#X text 150 610 float;
#X obj 246 611 cnv 1 17 20 empty empty empty 17 7 0 10 -245695 -1 0;
#X text 245 610 X: initial x value \, default 1.2. Type: float.;
#X text 110 630 2.;
#X text 150 630 float;
#X obj 246 631 cnv 1 17 20 empty empty empty 17 7 0 10 -245695 -1 0;
#X text 245 630 Y: initial y value \, default 2.1. Type: float.;
#X obj 20 660 cnv 1 745 1 empty empty empty 17 7 0 10 -203890 -1 0;
#X obj 20 665 cnv 5 98 25 empty empty properties: 4 10 0 14 -262144
-49933 0;
#X obj 20 720 cnv 1 745 1 empty empty empty 17 7 0 10 -203890 -1 0;
#X obj 20 725 cnv 5 73 25 empty empty methods: 4 10 0 14 -262144
-49933 0;
#X obj 20 780 cnv 1 745 1 empty empty empty 17 7 0 10 -203890 -1 0;
#X obj 20 785 cnv 5 64 25 empty empty inlets: 4 10 0 14 -262144 -49933
0;
#X text 110 786 1.;
#X text 150 786 *bang*;
#X text 245 786 generates and outputs next x-value.;
#X obj 20 816 cnv 1 745 1 empty empty empty 17 7 0 10 -203890 -1 0;
#X obj 20 821 cnv 5 73 25 empty empty outlets: 4 10 0 14 -262144
-49933 0;
#X text 110 822 1.;
#X text 245 822 outputs x-value.;
#X text 110 842 2.;
#X text 245 842 outputs y-value.;
#X obj 10 48 ui.link @title index @url ../index-help.pd;
#X text 51 45 ::;
#X obj 68 48 ui.link @title ceammc @url ceammc-help.pd;
#X text 116 45 ::;
#X obj 133 48 ui.link @title chaos @url ceammc.chaos-help.pd;
#X obj 1 892 cnv 5 765 48 empty empty empty 17 7 0 10 -203890 -1 0;
#X text 10 895 library: ceammc v0.9.7;
#X text 578 907 see also:;
#X obj 653 907 chaos.gbman0;
#N canvas 10 914 400 290 info 0;
#X obj 1 1 cnv 1 107 287 empty empty empty 17 7 0 10 -183085 -1 0;
#X text 10 10 library:;
#X text 120 10 ceammc;
#X text 10 32 version:;
#X text 120 32 0.9.7;
#X text 10 54 object:;
#X text 120 54 chaos.gbman0;
#X text 10 76 category:;
#X text 120 76 chaos;
#X text 10 98 since:;
#X text 120 98 0.9;
#X text 10 120 authors:;
#X text 120 120 Serge Poltavsky;
#X text 10 142 license:;
#X text 120 142 GPL3 or later;
#X text 10 164 keywords:;
#X text 120 164 chaos \, generator \, gingerbreadman;
#X text 10 186 website:;
#X obj 120 189 ui.link @title https://github.com/uliss/pd-ceammc @url
https://github.com/uliss/pd-ceammc;
#X obj 120 208 declare -lib ceammc;
#X obj 120 268 cnv 1 270 1 empty empty empty 17 7 0 10 -203890 -1 0;
#X text 120 268 generated by pddoc;
#X restore 10 914 pd info;
#X connect 9 0 12 0;
#X connect 11 0 13 0;
#X connect 11 0 14 0;
#X connect 12 0 15 0;
#X connect 13 0 16 0;
#X connect 14 0 17 0;
#X connect 15 0 18 0;
#X connect 16 0 20 0;
#X connect 18 0 21 0;
#X connect 21 0 23 0;
#X connect 22 0 24 0;
#X connect 22 1 24 1;
#X connect 23 0 25 0;
#X connect 23 1 26 0;
#X connect 23 2 27 0;
#X connect 24 0 28 0;
#X connect 24 1 28 1;
#X connect 25 0 29 0;
#X connect 26 0 30 0;
#X connect 27 0 31 0;
#X connect 29 0 32 0;
#X connect 30 0 33 0;
#X connect 32 0 34 0;
#X connect 33 0 34 1;
#X connect 31 0 34 0;
#X connect 34 0 35 0;
#X connect 16 0 22 1;
#X connect 17 0 22 2;
#X connect 20 0 22 0;
#X connect 20 0 22 3;
#X connect 18 1 19 0;
#X connect 19 0 18 1;