#N canvas 0 0 785 555 12;
#X declare -lib ceammc;
#X obj 614 50 cnv 1 151 23 empty empty empty 17 7 0 10 -245760 -1 0;
#X text 614 50 create color scales;
#X obj 1 1 cnv 5 765 40 empty empty color.scale 20 20 0 20 -104026
-4096 0;
#X obj 660 11 color.scale;
#X obj 50 118 ui.hsl @show_value 1;
#X obj 309 118 ui.tab none short long inc dec @size 200 15;
#X msg 309 147 @interp \$2;
#X obj 50 176 color.scale Color(red) Color(blue) Color(yellow);
#X obj 50 205 color->rgba @pack @float;
#X msg 50 234 @background_color \$1 \$2 \$3;
#X obj 50 262 ui.hsl @nosave 1;
#X obj 20 312 cnv 1 745 1 empty empty empty 17 7 0 10 -203890 -1 0;
#X obj 20 317 cnv 5 90 25 empty empty arguments: 4 12 0 14 -262144
-49933 0;
#X obj 735 320 ui.link @background_color 0.98039 0.98039 0.98039
@title [?] @url ceammc.args-info.pd;
#X text 110 352 1\.;
#X text 150 352 list;
#X obj 246 353 cnv 1 47 20 empty empty empty 17 7 0 10 -245695 -1 0;
#X text 245 352 SCALE: color list. Type: list.;
#X obj 20 382 cnv 1 745 1 empty empty empty 17 7 0 10 -203890 -1 0;
#X obj 20 387 cnv 5 98 25 empty empty properties: 4 12 0 14 -262144
-49933 0;
#X obj 735 390 ui.link @background_color 0.98039 0.98039 0.98039
@title [?] @url ceammc.props-info.pd;
#X msg 110 422 @hex;
#X text 245 422 Alias to @mode hex.;
#X msg 110 452 @interp;
#X text 245 452 Get/Set hue interpolation strategy. Type: symbol. Default
value: none. Allowed values: none \, short \, long \, inc \, dec.;
#X msg 110 494 @mode;
#X text 245 494 Get/Set output mode: if 'color' - output as data:color
type \, if 'hex' - output as hex value \, if 'rgb' - RGB list. Type:
symbol. Default value: color. Allowed values: color \, hex \, rgb.;
#X msg 110 566 @rgb;
#X text 245 566 Alias to @mode rgb.;
#X msg 110 596 @scale;
#X text 245 596 Get/Set color list. Type: list.;
#X msg 110 626 @color;
#X text 245 626 Alias to @mode color.;
#X obj 20 666 cnv 1 745 1 empty empty empty 17 7 0 10 -203890 -1 0;
#X obj 20 671 cnv 5 64 25 empty empty inlets: 4 12 0 14 -262144 -49933
0;
#X text 110 672 1\.;
#X text 150 672 *float*;
#X text 245 672 calculate color scale hue and output. Range: 0\...1\.;
#X obj 20 702 cnv 1 745 1 empty empty empty 17 7 0 10 -203890 -1 0;
#X obj 20 707 cnv 5 73 25 empty empty outlets: 4 12 0 14 -262144
-49933 0;
#X text 110 708 1\.;
#X text 245 708 data:color output.;
#X obj 10 48 ui.link @title index @url ../index-help.pd;
#X text 51 45 ::;
#X obj 68 48 ui.link @title ceammc @url ceammc-help.pd;
#X text 116 45 ::;
#X obj 133 48 ui.link @title data @url ceammc.data-help.pd;
#X obj 1 758 cnv 5 765 48 empty empty empty 17 7 0 10 -203890 -1 0;
#X text 10 761 library: ceammc v0.9.7;
#N canvas 10 780 400 290 info 0;
#X obj 1 1 cnv 1 107 287 empty empty empty 17 7 0 10 -183085 -1 0;
#X text 10 10 library:;
#X text 120 10 ceammc;
#X text 10 32 version:;
#X text 120 32 0.9.7;
#X text 10 54 object:;
#X text 120 54 color.scale;
#X text 10 76 category:;
#X text 120 76 data;
#X text 10 98 since:;
#X text 120 98 0.9.7;
#X text 10 120 authors:;
#X text 120 120 Serge Poltavsky;
#X text 10 142 license:;
#X text 120 142 GPL3 or later;
#X text 10 164 keywords:;
#X text 120 164 data \, color \, scale;
#X text 10 186 website:;
#X obj 120 189 ui.link @title https://github.com/uliss/pd-ceammc @url
https://github.com/uliss/pd-ceammc;
#X obj 120 208 declare -lib ceammc;
#X obj 120 268 cnv 1 270 1 empty empty empty 17 7 0 10 -203890 -1 0;
#X text 120 268 generated by pddoc;
#X restore 10 780 pd info;
#X connect 5 0 6 0;
#X connect 4 0 7 0;
#X connect 6 0 7 0;
#X connect 7 0 8 0;
#X connect 8 0 9 0;
#X connect 9 0 10 0;