#N canvas 0 0 785 555 12;
#X declare -lib ceammc;
#X obj 377 50 cnv 1 388 23 empty empty empty 17 7 0 10 -245760 -1 0;
#X text 377 50 convert frequency in BPM to period in milliseconds;
#X obj 1 1 cnv 5 765 40 empty empty conv.bpm2ms 20 20 0 20 -104026
-4096 0;
#X obj 460 11 ceammc/bpm->ms;
#X obj 586 11 bpm->ms;
#X obj 661 11 conv.bpm2ms;
#X obj 210 80 cnv 1 555 50 empty empty empty 17 7 0 10 -257983 -1 0;
#X text 215 80 Converts frequency from BPM (beats per minute) to period
in ms. It is simple as (60 / f) * 1000 \, but more readable.;
#X floatatom 126 158 5 0 0 0 - - -;
#X text 184 158 tempo;
#X obj 126 187 * 8;
#X text 184 187 32nds;
#X obj 50 216 tgl 15 0 empty empty empty 17 7 0 10 -262144 -1 -1 0 1;
#X obj 126 216 bpm->ms;
#X floatatom 126 245 5 0 0 0 - - -;
#X obj 50 274 metro 80;
#X msg 50 302 next;
#X obj 50 331 list.walk mtof(60 72 48 77 84 62 67) @fold;
#X obj 50 360 osc.pulse~;
#X obj 194 360 ui.dsp~;
#X obj 50 389 ui.hgain~;
#X obj 50 418 dac~;
#X obj 20 467 cnv 1 745 1 empty empty empty 17 7 0 10 -203890 -1 0;
#X obj 20 472 cnv 5 64 26 empty empty inlets: 4 10 0 14 -262144 -49933
0;
#X text 110 473 1\.;
#X text 150 473 *float*;
#X text 245 473 frequency in BPM.;
#X obj 20 503 cnv 1 745 1 empty empty empty 17 7 0 10 -203890 -1 0;
#X obj 20 508 cnv 5 73 26 empty empty outlets: 4 10 0 14 -262144
-49933 0;
#X text 110 509 1\.;
#X text 245 509 period in milliseconds.;
#X obj 10 48 ui.link @title index @url ../index-help.pd;
#X text 51 45 ::;
#X obj 67 48 ui.link @title ceammc @url ceammc-help.pd;
#X text 115 45 ::;
#X obj 131 48 ui.link @title conv @url ceammc.conv-help.pd;
#X obj 1 559 cnv 5 765 48 empty empty empty 17 7 0 10 -203890 -1 0;
#X text 10 562 library: ceammc v0.9.5;
#X text 485 574 see also:;
#X obj 559 574 conv.bpm2sec;
#X obj 661 574 conv.bpm2hz;
#N canvas 10 581 400 290 info 0;
#X obj 1 1 cnv 1 107 287 empty empty empty 17 7 0 10 -183085 -1 0;
#X text 10 10 library:;
#X text 120 10 ceammc;
#X text 10 32 version:;
#X text 120 32 0.9.5;
#X text 10 54 object:;
#X text 120 54 conv.bpm2ms;
#X text 10 76 category:;
#X text 120 76 conv;
#X text 10 98 since:;
#X text 120 98 0.1;
#X text 10 120 authors:;
#X text 120 120 Serge Poltavsky;
#X text 10 142 license:;
#X text 120 142 GPL3 or later;
#X text 10 164 keywords:;
#X text 120 164 conv \, time;
#X text 10 186 website:;
#X obj 120 189 ui.link @title https://github.com/uliss/pure-data @url
https://github.com/uliss/pure-data;
#X obj 120 208 declare -lib ceammc;
#X obj 120 268 cnv 1 270 1 empty empty empty 17 7 0 10 -203890 -1 0;
#X text 120 268 generated by pddoc;
#X restore 10 581 pd info;
#X connect 8 0 10 0;
#X connect 10 0 13 0;
#X connect 13 0 14 0;
#X connect 12 0 15 0;
#X connect 14 0 15 1;
#X connect 15 0 16 0;
#X connect 16 0 17 0;
#X connect 17 0 18 0;
#X connect 18 0 20 0;
#X connect 20 0 21 0;
#X connect 20 0 21 1;