#N canvas 0 0 785 555 12;
#X declare -lib ceammc;
#X obj 423 50 cnv 1 342 23 empty empty empty 17 7 0 10 -245760 -1 0;
#X text 423 50 convert list of bits to list of bit position;
#X obj 1 1 cnv 5 765 40 empty empty conv.bits2pos 20 20 0 20 -104026
-4096 0;
#X obj 416 11 ceammc/bits->pos;
#X obj 556 11 bits->pos;
#X obj 646 11 conv.bits2pos;
#X obj 210 80 cnv 1 555 50 empty empty empty 17 7 0 10 -257983 -1 0;
#X text 215 80 Note: byte default the least significant bit is the
rightmost \, this can be changed with @rev property;
#X msg 50 158 1 0 1 1 0 0 0 0;
#X obj 222 158 tgl 15 0 empty empty empty 17 7 0 10 -262144 -1 -1 0 1;
#X msg 222 187 @rev \$1;
#X obj 50 216 bits->pos;
#X obj 50 245 ui.dt;
#X obj 20 294 cnv 1 745 1 empty empty empty 17 7 0 10 -203890 -1 0;
#X obj 20 299 cnv 5 98 26 empty empty properties: 4 10 0 14 -262144
-49933 0;
#X msg 110 334 @rev;
#X text 245 334 Get/Set reversed bit order. Type: bool. Default value:
0\.;
#X obj 20 373 cnv 1 745 1 empty empty empty 17 7 0 10 -203890 -1 0;
#X obj 20 378 cnv 5 64 26 empty empty inlets: 4 10 0 14 -262144 -49933
0;
#X text 110 379 1\.;
#X text 150 379 *list*;
#X text 245 379 input bit list.;
#X obj 20 409 cnv 1 745 1 empty empty empty 17 7 0 10 -203890 -1 0;
#X obj 20 414 cnv 5 73 26 empty empty outlets: 4 10 0 14 -262144
-49933 0;
#X text 110 415 1\.;
#X text 245 415 list of bit positions.;
#X obj 10 48 ui.link @title index @url ../index-help.pd;
#X text 51 45 ::;
#X obj 67 48 ui.link @title ceammc @url ceammc-help.pd;
#X text 115 45 ::;
#X obj 131 48 ui.link @title conv @url ceammc.conv-help.pd;
#X obj 1 505 cnv 5 765 48 empty empty empty 17 7 0 10 -203890 -1 0;
#X text 10 508 library: ceammc v0.9.5;
#X text 572 520 see also:;
#X obj 646 520 conv.bits2int;
#N canvas 10 527 400 290 info 0;
#X obj 1 1 cnv 1 107 287 empty empty empty 17 7 0 10 -183085 -1 0;
#X text 10 10 library:;
#X text 120 10 ceammc;
#X text 10 32 version:;
#X text 120 32 0.9.5;
#X text 10 54 object:;
#X text 120 54 conv.bits2pos;
#X text 10 76 category:;
#X text 120 76 conv;
#X text 10 98 since:;
#X text 120 98 0.9.2;
#X text 10 120 authors:;
#X text 120 120 Serge Poltavsky;
#X text 10 142 license:;
#X text 120 142 GPL3 or later;
#X text 10 164 keywords:;
#X text 120 164 conv \, bits \, position;
#X text 10 186 website:;
#X obj 120 189 ui.link @title https://github.com/uliss/pure-data @url
https://github.com/uliss/pure-data;
#X obj 120 208 declare -lib ceammc;
#X obj 120 268 cnv 1 270 1 empty empty empty 17 7 0 10 -203890 -1 0;
#X text 120 268 generated by pddoc;
#X restore 10 527 pd info;
#X connect 9 0 10 0;
#X connect 8 0 11 0;
#X connect 10 0 11 0;
#X connect 11 0 12 0;