#N canvas 0 0 785 555 12;
#X declare -lib ceammc;
#X obj 576 50 cnv 1 189 23 empty empty empty 17 7 0 10 -245760 -1 0;
#X text 576 50 convert signal to floats;
#X obj 1 1 cnv 5 765 40 empty empty conv.sig2float~ 20 20 0 20 -104026
-4096 0;
#N canvas 533 11 250 400 aliases 0;
#X obj 30 40 ceammc/sig->float~;
#X obj 30 78 sig->float~;
#X obj 30 116 ceammc/s->f~;
#X obj 30 154 s->f~;
#X restore 533 11 pd aliases;
#X obj 630 11 conv.sig2float~;
#X obj 210 80 cnv 1 555 35 empty empty empty 17 7 0 10 -257983 -1 0;
#X text 215 80 convert signal to float via specified time intervals;
#X obj 50 143 phasor~ 0.5;
#X msg 184 143 bang;
#X obj 50 172 sig->float~ 500;
#X floatatom 50 201 5 0 0 0 - - -;
#X obj 184 201 ui.dsp~;
#X obj 20 251 cnv 1 745 1 empty empty empty 17 7 0 10 -203890 -1 0;
#X obj 20 256 cnv 5 115 25 empty empty mouse_events: 4 12 0 14 -262144
-49933 0;
#X text 110 291 Right-click;
#X text 285 291 sample immediately.;
#X obj 20 321 cnv 1 745 1 empty empty empty 17 7 0 10 -203890 -1 0;
#X obj 20 326 cnv 5 90 25 empty empty arguments: 4 12 0 14 -262144
-49933 0;
#X obj 735 329 ui.link @background_color 0.98039 0.98039 0.98039
@title [?] @url ceammc.args-info.pd;
#X text 110 361 1\.;
#X text 150 361 float;
#X obj 246 362 cnv 1 100 20 empty empty empty 17 7 0 10 -245695 -1 0;
#X text 245 361 INTERVAL(ms): sampling interval. Type: float. Min value:
-1;
#X obj 20 391 cnv 1 745 1 empty empty empty 17 7 0 10 -203890 -1 0;
#X obj 20 396 cnv 5 98 25 empty empty properties: 4 12 0 14 -262144
-49933 0;
#X obj 735 399 ui.link @background_color 0.98039 0.98039 0.98039
@title [?] @url ceammc.props-info.pd;
#X msg 110 431 @interval;
#X text 245 431 Get/Set sampling interval. Type: float. Units: 'ms'.
Default value: 50\. Min value: -1\.;
#X msg 110 473 @offset;
#X text 245 473 Get/Set sample offset inside DSP block. Type: int.
Units: 'samp'. Default value: 0\. Range: 0\...8192\.;
#X obj 20 525 cnv 1 745 1 empty empty empty 17 7 0 10 -203890 -1 0;
#X obj 20 530 cnv 5 64 25 empty empty inlets: 4 12 0 14 -262144 -49933
0;
#X text 110 531 1\.;
#X text 245 531 input signal.;
#X text 150 551 *bang*;
#X text 245 551 sample immediately.;
#X text 110 571 2\.;
#X text 150 571 *float*;
#X text 245 571 set sample interval.;
#X obj 20 601 cnv 1 745 1 empty empty empty 17 7 0 10 -203890 -1 0;
#X obj 20 606 cnv 5 73 25 empty empty outlets: 4 12 0 14 -262144
-49933 0;
#X text 110 607 1\.;
#X text 245 607 float: sample.;
#X obj 10 48 ui.link @title index @url ../index-help.pd;
#X text 51 45 ::;
#X obj 68 48 ui.link @title ceammc @url ceammc-help.pd;
#X text 116 45 ::;
#X obj 133 48 ui.link @title conv @url ceammc.conv-help.pd;
#X obj 1 657 cnv 5 765 48 empty empty empty 17 7 0 10 -203890 -1 0;
#X text 10 660 library: ceammc v0.9.7;
#X text 599 672 see also:;
#X obj 674 672 snapshot~;
#N canvas 10 679 400 290 info 0;
#X obj 1 1 cnv 1 107 287 empty empty empty 17 7 0 10 -183085 -1 0;
#X text 10 10 library:;
#X text 120 10 ceammc;
#X text 10 32 version:;
#X text 120 32 0.9.7;
#X text 10 54 object:;
#X text 120 54 conv.sig2float~;
#X text 10 76 category:;
#X text 120 76 conv;
#X text 10 98 since:;
#X text 120 98 0.9.2;
#X text 10 120 authors:;
#X text 120 120 Serge Poltavsky;
#X text 10 142 license:;
#X text 120 142 GPL3 or later;
#X text 10 164 keywords:;
#X text 120 164 conv \, signal \, float \, snapshot;
#X text 10 186 website:;
#X obj 120 189 ui.link @title https://github.com/uliss/pd-ceammc @url
https://github.com/uliss/pd-ceammc;
#X obj 120 208 declare -lib ceammc;
#X obj 120 268 cnv 1 270 1 empty empty empty 17 7 0 10 -203890 -1 0;
#X text 120 268 generated by pddoc;
#X restore 10 679 pd info;
#X connect 7 0 9 0;
#X connect 8 0 9 0;
#X connect 9 0 10 0;