#N canvas 0 0 785 555 12;
#X declare -lib ceammc;
#X obj 506 50 cnv 1 259 23 empty empty empty 17 7 0 10 -245760 -1 0;
#X text 506 50 convert cartesian coords to polar;
#X obj 1 1 cnv 5 765 40 empty empty conv.car2pol 20 20 0 20 -104026
-4096 0;
#X obj 436 11 ceammc/car->pol;
#X obj 570 11 car->pol;
#X obj 653 11 conv.car2pol;
#X obj 50 118 ui.slider2d @size 100 100;
#X obj 203 176 tgl 15 0 empty empty empty 17 7 0 10 -262144 -1 -1 0 1;
#X msg 203 205 @positive \$1;
#X obj 50 234 car->pol;
#X obj 50 262 ui.display @display_type 1;
#X obj 20 311 cnv 1 745 1 empty empty empty 17 7 0 10 -203890 -1 0;
#X obj 20 316 cnv 5 98 26 empty empty properties: 4 10 0 14 -262144
-49933 0;
#X msg 110 351 @positive;
#X text 245 351 Get/Set output in positive range. If true output is
in [0\..2π) range \, otherwise output range is [-π..+π]. Type: bool.
Default value: 0\.;
#X obj 20 418 cnv 1 745 1 empty empty empty 17 7 0 10 -203890 -1 0;
#X obj 20 423 cnv 5 64 26 empty empty inlets: 4 10 0 14 -262144 -49933
0;
#X text 110 424 1\.;
#X text 150 424 *list*;
#X text 245 424 x \, y coord pair.;
#X obj 20 454 cnv 1 745 1 empty empty empty 17 7 0 10 -203890 -1 0;
#X obj 20 459 cnv 5 73 26 empty empty outlets: 4 10 0 14 -262144
-49933 0;
#X text 110 460 1\.;
#X text 245 460 radius and angle (in radians) pair.;
#X obj 10 48 ui.link @title index @url ../index-help.pd;
#X text 51 45 ::;
#X obj 67 48 ui.link @title ceammc @url ceammc-help.pd;
#X text 115 45 ::;
#X obj 131 48 ui.link @title conv @url ceammc.conv-help.pd;
#X obj 1 510 cnv 5 765 48 empty empty empty 17 7 0 10 -203890 -1 0;
#X text 10 513 library: ceammc v0.9.5;
#X text 579 525 see also:;
#X obj 653 525 conv.pol2car;
#N canvas 10 532 400 290 info 0;
#X obj 1 1 cnv 1 107 287 empty empty empty 17 7 0 10 -183085 -1 0;
#X text 10 10 library:;
#X text 120 10 ceammc;
#X text 10 32 version:;
#X text 120 32 0.9.5;
#X text 10 54 object:;
#X text 120 54 conv.car2pol;
#X text 10 76 category:;
#X text 120 76 conv;
#X text 10 98 since:;
#X text 120 98 0.8;
#X text 10 120 authors:;
#X text 120 120 Serge Poltavsky;
#X text 10 142 license:;
#X text 120 142 GPL3 or later;
#X text 10 164 keywords:;
#X text 120 164 conv \, polar \, cartesian;
#X text 10 186 website:;
#X obj 120 189 ui.link @title https://github.com/uliss/pure-data @url
https://github.com/uliss/pure-data;
#X obj 120 208 declare -lib ceammc;
#X obj 120 268 cnv 1 270 1 empty empty empty 17 7 0 10 -203890 -1 0;
#X text 120 268 generated by pddoc;
#X restore 10 532 pd info;
#X connect 7 0 8 0;
#X connect 6 0 9 0;
#X connect 8 0 9 0;
#X connect 9 0 10 0;