#N canvas 0 0 785 555 12;
#X declare -lib ceammc;
#X obj 415 50 cnv 1 350 23 empty empty empty 17 7 0 10 -245760 -1 0;
#X text 415 50 convert frequency in BPM to period in seconds;
#X obj 1 1 cnv 5 765 40 empty empty conv.bpm2sec 20 20 0 20 -104026
-4096 0;
#X obj 437 11 ceammc/bpm->sec;
#X obj 570 11 bpm->sec;
#X obj 653 11 conv.bpm2sec;
#X obj 210 80 cnv 1 555 50 empty empty empty 17 7 0 10 -257983 -1 0;
#X text 215 80 Convert frequency from BPM (beats per minute) to period
in seconds. It's simple as 60/f \, but more readable.;
#X msg 50 158 120;
#X msg 117 158 60;
#X obj 50 187 bpm->sec;
#X floatatom 50 216 5 0 0 0 - - -;
#X obj 20 265 cnv 1 745 1 empty empty empty 17 7 0 10 -203890 -1 0;
#X obj 20 270 cnv 5 64 26 empty empty inlets: 4 10 0 14 -262144 -49933
0;
#X text 110 271 1\.;
#X text 150 271 *float*;
#X text 245 271 frequency in BPM.;
#X obj 20 301 cnv 1 745 1 empty empty empty 17 7 0 10 -203890 -1 0;
#X obj 20 306 cnv 5 73 26 empty empty outlets: 4 10 0 14 -262144
-49933 0;
#X text 110 307 1\.;
#X text 245 307 period in seconds.;
#X obj 10 48 ui.link @title index @url ../index-help.pd;
#X text 51 45 ::;
#X obj 67 48 ui.link @title ceammc @url ceammc-help.pd;
#X text 115 45 ::;
#X obj 131 48 ui.link @title conv @url ceammc.conv-help.pd;
#X obj 1 505 cnv 5 765 48 empty empty empty 17 7 0 10 -203890 -1 0;
#X text 10 508 library: ceammc v0.9.2;
#X text 493 520 see also:;
#X obj 567 520 conv.bpm2ms;
#X obj 661 520 conv.bpm2hz;
#N canvas 10 527 400 290 info 0;
#X obj 1 1 cnv 1 107 287 empty empty empty 17 7 0 10 -183085 -1 0;
#X text 10 10 library:;
#X text 120 10 ceammc;
#X text 10 32 version:;
#X text 120 32 0.9.2;
#X text 10 54 object:;
#X text 120 54 conv.bpm2sec;
#X text 10 76 category:;
#X text 120 76 conv;
#X text 10 98 since:;
#X text 120 98 0.1;
#X text 10 120 authors:;
#X text 120 120 Serge Poltavsky;
#X text 10 142 license:;
#X text 120 142 GPL3 or later;
#X text 10 164 keywords:;
#X text 120 164 conv \, time;
#X text 10 186 website:;
#X obj 120 189 ui.link @title https://github.com/uliss/pure-data @url
https://github.com/uliss/pure-data;
#X obj 120 208 declare -lib ceammc;
#X obj 120 268 cnv 1 270 1 empty empty empty 17 7 0 10 -203890 -1 0;
#X text 120 268 generated by pddoc;
#X restore 10 527 pd info;
#X connect 8 0 10 0;
#X connect 9 0 10 0;
#X connect 10 0 11 0;