#N canvas 0 0 785 555 12;
#X declare -lib ceammc;
#X obj 522 50 cnv 1 243 23 empty empty empty 17 7 0 10 -245760 -1 0;
#X text 522 50 convert character to morse code;
#X obj 1 1 cnv 5 765 40 empty empty conv.char2morse 20 20 0 20 -104026
-4096 0;
#X obj 370 11 ceammc/char->morse;
#X obj 526 11 char->morse;
#X obj 631 11 conv.char2morse;
#X obj 210 80 cnv 1 555 35 empty empty empty 17 7 0 10 -257983 -1 0;
#X text 215 80 Note: cyrillic utf-8 characters are also supported.;
#X symbolatom 50 143 5 0 0 0 - - -;
#X obj 174 143 tgl 15 0 empty empty empty 17 7 0 10 -262144 -1 -1 0 1;
#X msg 174 172 @sym \$1;
#X obj 50 201 conv.char2morse;
#X obj 50 230 ui.dt;
#X obj 20 280 cnv 1 745 1 empty empty empty 17 7 0 10 -203890 -1 0;
#X obj 20 285 cnv 5 98 25 empty empty properties: 4 10 0 14 -262144
-49933 0;
#X msg 110 320 @sym;
#X text 245 320 Get/Set symbol output mode. If on - output as list
of dots and dashes \, otherwise as 0 and 1\. Type: bool. Default value:
0\.;
#X obj 20 387 cnv 1 745 1 empty empty empty 17 7 0 10 -203890 -1 0;
#X obj 20 392 cnv 5 64 25 empty empty inlets: 4 10 0 14 -262144 -49933
0;
#X text 110 393 1\.;
#X text 150 393 *symbol*;
#X text 245 393 single characted.;
#X obj 20 423 cnv 1 745 1 empty empty empty 17 7 0 10 -203890 -1 0;
#X obj 20 428 cnv 5 73 25 empty empty outlets: 4 10 0 14 -262144
-49933 0;
#X text 110 429 1\.;
#X text 245 429 list of 0 and 1 (or dots and dashes).;
#X obj 10 48 ui.link @title index @url ../index-help.pd;
#X text 51 45 ::;
#X obj 68 48 ui.link @title ceammc @url ceammc-help.pd;
#X text 116 45 ::;
#X obj 133 48 ui.link @title conv @url ceammc.conv-help.pd;
#X obj 1 505 cnv 5 765 48 empty empty empty 17 7 0 10 -203890 -1 0;
#X text 10 508 library: ceammc v0.9.7;
#X text 585 520 see also:;
#X obj 660 520 proto.morse;
#N canvas 10 527 400 290 info 0;
#X obj 1 1 cnv 1 107 287 empty empty empty 17 7 0 10 -183085 -1 0;
#X text 10 10 library:;
#X text 120 10 ceammc;
#X text 10 32 version:;
#X text 120 32 0.9.7;
#X text 10 54 object:;
#X text 120 54 conv.char2morse;
#X text 10 76 category:;
#X text 120 76 conv;
#X text 10 98 since:;
#X text 120 98 0.9.7;
#X text 10 120 authors:;
#X text 120 120 Serge Poltavsky;
#X text 10 142 license:;
#X text 120 142 GPL3 or later;
#X text 10 164 keywords:;
#X text 120 164 conv \, char \, morse;
#X text 10 186 website:;
#X obj 120 189 ui.link @title https://github.com/uliss/pd-ceammc @url
https://github.com/uliss/pd-ceammc;
#X obj 120 208 declare -lib ceammc;
#X obj 120 268 cnv 1 270 1 empty empty empty 17 7 0 10 -203890 -1 0;
#X text 120 268 generated by pddoc;
#X restore 10 527 pd info;
#X connect 9 0 10 0;
#X connect 8 0 11 0;
#X connect 10 0 11 0;
#X connect 11 0 12 0;