#N canvas 0 0 785 555 12;
#X declare -lib ceammc;
#X obj 529 50 cnv 1 236 23 empty empty empty 17 7 0 10 -245760 -1 0;
#X text 529 50 convert radians value to phase;
#X obj 1 1 cnv 5 765 40 empty empty conv.rad2phase 20 20 0 20 -104026
-4096 0;
#X obj 392 11 ceammc/rad->phase;
#X obj 541 11 rad->phase;
#X obj 638 11 conv.rad2phase;
#X obj 50 118 ui.hsl @min 0 @max 7;
#X obj 50 147 rad->phase;
#X obj 50 176 ui.knob;
#X obj 50 234 phase->rad;
#X floatatom 50 262 5 0 0 0 - - -;
#X obj 20 294 cnv 1 745 1 empty empty empty 17 7 0 10 -203890 -1 0;
#X obj 20 299 cnv 5 64 25 empty empty inlets: 4 10 0 14 -262144 -49933
0;
#X text 110 300 1\.;
#X text 150 300 *float*;
#X text 245 300 input value.;
#X text 150 320 *list*;
#X text 245 320 input values.;
#X obj 20 350 cnv 1 745 1 empty empty empty 17 7 0 10 -203890 -1 0;
#X obj 20 355 cnv 5 73 25 empty empty outlets: 4 10 0 14 -262144
-49933 0;
#X text 110 356 1\.;
#X text 245 356 converted value.;
#X obj 10 48 ui.link @title index @url ../index-help.pd;
#X text 51 45 ::;
#X obj 68 48 ui.link @title ceammc @url ceammc-help.pd;
#X text 116 45 ::;
#X obj 133 48 ui.link @title conv @url ceammc.conv-help.pd;
#X obj 1 505 cnv 5 765 48 empty empty empty 17 7 0 10 -203890 -1 0;
#X text 10 508 library: ceammc v0.9.7;
#X text 564 520 see also:;
#X obj 639 520 conv.phase2rad;
#N canvas 10 527 400 290 info 0;
#X obj 1 1 cnv 1 107 287 empty empty empty 17 7 0 10 -183085 -1 0;
#X text 10 10 library:;
#X text 120 10 ceammc;
#X text 10 32 version:;
#X text 120 32 0.9.7;
#X text 10 54 object:;
#X text 120 54 conv.rad2phase;
#X text 10 76 category:;
#X text 120 76 conv;
#X text 10 98 since:;
#X text 120 98 0.8;
#X text 10 120 authors:;
#X text 120 120 Serge Poltavsky;
#X text 10 142 license:;
#X text 120 142 GPL3 or later;
#X text 10 164 keywords:;
#X text 120 164 conv \, phase \, radians;
#X text 10 186 website:;
#X obj 120 189 ui.link @title https://github.com/uliss/pd-ceammc @url
https://github.com/uliss/pd-ceammc;
#X obj 120 208 declare -lib ceammc;
#X obj 120 268 cnv 1 270 1 empty empty empty 17 7 0 10 -203890 -1 0;
#X text 120 268 generated by pddoc;
#X restore 10 527 pd info;
#X connect 6 0 7 0;
#X connect 7 0 8 0;
#X connect 8 0 9 0;
#X connect 9 0 10 0;