#N canvas 0 0 785 555 12;
#X declare -lib ceammc;
#X obj 460 50 cnv 1 305 23 empty empty empty 17 7 0 10 -245760 -1 0;
#X text 460 50 convert decibel full scale to amplitude;
#X obj 1 1 cnv 5 765 40 empty empty conv.dbfs2amp 20 20 0 20 -104026
-4096 0;
#X obj 413 11 ceammc/dbfs->amp;
#X obj 554 11 dbfs->amp;
#X obj 645 11 conv.dbfs2amp;
#X obj 210 80 cnv 1 555 35 empty empty empty 17 7 0 10 -257983 -1 0;
#X text 215 80 Note: db values <= -144 are converted to 0;
#X obj 50 143 ui.hsl @min -144 @max 6;
#X floatatom 50 172 8 0 0 0 - - -;
#X obj 50 201 dbfs->amp;
#X floatatom 50 230 8 0 0 0 - - -;
#X obj 50 259 amp->dbfs;
#X floatatom 50 287 8 0 0 0 - - -;
#X obj 20 319 cnv 1 745 1 empty empty empty 17 7 0 10 -203890 -1 0;
#X obj 20 324 cnv 5 64 25 empty empty inlets: 4 12 0 14 -262144 -49933
0;
#X text 110 325 1\.;
#X text 150 325 *float*;
#X text 245 325 input value.;
#X text 150 345 *list*;
#X text 245 345 input values.;
#X obj 20 375 cnv 1 745 1 empty empty empty 17 7 0 10 -203890 -1 0;
#X obj 20 380 cnv 5 73 25 empty empty outlets: 4 12 0 14 -262144
-49933 0;
#X text 110 381 1\.;
#X text 245 381 converted value.;
#X obj 10 48 ui.link @title index @url ../index-help.pd;
#X text 51 45 ::;
#X obj 68 48 ui.link @title ceammc @url ceammc-help.pd;
#X text 116 45 ::;
#X obj 133 48 ui.link @title conv @url ceammc.conv-help.pd;
#X obj 1 505 cnv 5 765 48 empty empty empty 17 7 0 10 -203890 -1 0;
#X text 10 508 library: ceammc v0.9.7;
#X text 599 520 see also:;
#X obj 674 520 amp->dbfs;
#N canvas 10 527 400 290 info 0;
#X obj 1 1 cnv 1 107 287 empty empty empty 17 7 0 10 -183085 -1 0;
#X text 10 10 library:;
#X text 120 10 ceammc;
#X text 10 32 version:;
#X text 120 32 0.9.7;
#X text 10 54 object:;
#X text 120 54 conv.dbfs2amp;
#X text 10 76 category:;
#X text 120 76 conv;
#X text 10 98 since:;
#X text 120 98 0.6;
#X text 10 120 authors:;
#X text 120 120 Serge Poltavsky;
#X text 10 142 license:;
#X text 120 142 GPL3 or later;
#X text 10 164 keywords:;
#X text 120 164 conv \, amp \, dbfs \, decibel;
#X text 10 186 website:;
#X obj 120 189 ui.link @title https://github.com/uliss/pd-ceammc @url
https://github.com/uliss/pd-ceammc;
#X obj 120 208 declare -lib ceammc;
#X obj 120 268 cnv 1 270 1 empty empty empty 17 7 0 10 -203890 -1 0;
#X text 120 268 generated by pddoc;
#X restore 10 527 pd info;
#X connect 8 0 9 0;
#X connect 9 0 10 0;
#X connect 10 0 11 0;
#X connect 11 0 12 0;
#X connect 12 0 13 0;