#N canvas 0 0 785 555 12;
#X declare -lib ceammc;
#X obj 468 50 cnv 1 297 23 empty empty empty 17 7 0 10 -245760 -1 0;
#X text 468 50 convert from MIDI Control Change range;
#X obj 1 1 cnv 5 765 40 empty empty conv.cc2amp 20 20 0 20 -104026
-4096 0;
#X obj 457 11 ceammc/cc->amp;
#X obj 584 11 cc->amp;
#X obj 660 11 conv.cc2amp;
#X obj 210 80 cnv 1 555 35 empty empty empty 17 7 0 10 -257983 -1 0;
#X text 215 80 By default converts from [0\..127] to [0\..1];
#X floatatom 50 143 5 0 127 0 - - -;
#X obj 88 172 ctlin 0;
#X floatatom 203 172 5 0 127 0 - - -;
#X obj 50 201 cc->amp;
#X obj 203 201 cc->amp @from 1 @to -1;
#X floatatom 50 230 5 0 0 0 - - -;
#X floatatom 203 230 5 0 0 0 - - -;
#X obj 20 262 cnv 1 745 1 empty empty empty 17 7 0 10 -203890 -1 0;
#X obj 20 267 cnv 5 90 25 empty empty arguments: 4 12 0 14 -262144
-49933 0;
#X obj 735 270 ui.link @background_color 0.98039 0.98039 0.98039
@title [?] @url ceammc.args-info.pd;
#X text 110 302 1\.;
#X text 150 302 float;
#X obj 246 303 cnv 1 39 20 empty empty empty 17 7 0 10 -245695 -1 0;
#X text 245 302 FROM: start value of output range. Type: float.;
#X text 110 322 2\.;
#X text 150 322 float;
#X obj 246 323 cnv 1 25 20 empty empty empty 17 7 0 10 -245695 -1 0;
#X text 245 322 TO: end value of output range. Type: float.;
#X obj 20 352 cnv 1 745 1 empty empty empty 17 7 0 10 -203890 -1 0;
#X obj 20 357 cnv 5 98 25 empty empty properties: 4 12 0 14 -262144
-49933 0;
#X obj 735 360 ui.link @background_color 0.98039 0.98039 0.98039
@title [?] @url ceammc.props-info.pd;
#X msg 110 392 @from;
#X text 245 392 Get/Set start value of output range. Type: float. Default
value: 0\.;
#X msg 110 434 @to;
#X text 245 434 Get/Set end value of output range. Type: float. Default
value: 1\.;
#X obj 20 486 cnv 1 745 1 empty empty empty 17 7 0 10 -203890 -1 0;
#X obj 20 491 cnv 5 64 25 empty empty inlets: 4 12 0 14 -262144 -49933
0;
#X text 110 492 1\.;
#X text 150 492 *float*;
#X text 245 492 value in MIDI CC range [0\..127].;
#X obj 20 522 cnv 1 745 1 empty empty empty 17 7 0 10 -203890 -1 0;
#X obj 20 527 cnv 5 73 25 empty empty outlets: 4 12 0 14 -262144
-49933 0;
#X text 110 528 1\.;
#X text 245 528 converted value.;
#X obj 10 48 ui.link @title index @url ../index-help.pd;
#X text 51 45 ::;
#X obj 68 48 ui.link @title ceammc @url ceammc-help.pd;
#X text 116 45 ::;
#X obj 133 48 ui.link @title conv @url ceammc.conv-help.pd;
#X obj 1 578 cnv 5 765 48 empty empty empty 17 7 0 10 -203890 -1 0;
#X text 10 581 library: ceammc v0.9.7;
#X text 519 593 see also:;
#X obj 594 593 lin->lin;
#X obj 667 593 lin->curve;
#N canvas 10 600 400 290 info 0;
#X obj 1 1 cnv 1 107 287 empty empty empty 17 7 0 10 -183085 -1 0;
#X text 10 10 library:;
#X text 120 10 ceammc;
#X text 10 32 version:;
#X text 120 32 0.9.7;
#X text 10 54 object:;
#X text 120 54 conv.cc2amp;
#X text 10 76 category:;
#X text 120 76 conv;
#X text 10 98 since:;
#X text 120 98 0.3;
#X text 10 120 authors:;
#X text 120 120 Serge Poltavsky;
#X text 10 142 license:;
#X text 120 142 GPL3 or later;
#X text 10 164 keywords:;
#X text 120 164 conv \, cc \, amp;
#X text 10 186 website:;
#X obj 120 189 ui.link @title https://github.com/uliss/pd-ceammc @url
https://github.com/uliss/pd-ceammc;
#X obj 120 208 declare -lib ceammc;
#X obj 120 268 cnv 1 270 1 empty empty empty 17 7 0 10 -203890 -1 0;
#X text 120 268 generated by pddoc;
#X restore 10 600 pd info;
#X connect 8 0 11 0;
#X connect 9 0 11 0;
#X connect 10 0 12 0;
#X connect 11 0 13 0;
#X connect 12 0 14 0;