#N canvas 0 0 785 555 12;
#X declare -lib ceammc;
#X obj 492 50 cnv 1 273 23 empty empty empty 17 7 0 10 -245760 -1 0;
#X text 492 50 convert MIDI note to Guido notation;
#X obj 1 1 cnv 5 765 40 empty empty conv.note2guido 20 20 0 20 -104026
-4096 0;
#X obj 372 11 ceammc/note->guido;
#X obj 527 11 note->guido;
#X obj 632 11 conv.note2guido;
#X obj 50 118 ui.keyboard;
#X msg 50 190 \$1;
#X msg 98 190 60 61 62;
#X msg 203 190 note 61 4.5;
#X msg 338 190 note 61 4.25;
#X obj 50 234 conv.note2guido;
#X obj 50 262 ui.dt;
#X obj 50 291 conv.note2guido.inscore;
#X obj 20 340 cnv 1 745 1 empty empty empty 17 7 0 10 -203890 -1 0;
#X obj 20 345 cnv 5 73 26 empty empty methods: 4 10 0 14 -262144
-49933 0;
#X msg 110 380 note;
#X text 245 380 Arguments are:;
#X obj 255 403 cnv 1 44 23 empty empty empty 17 7 0 10 -245695 -1 0;
#X text 255 403 PITCH: note pitch (pitch <0 treated as rest). Type:
int.;
#X obj 255 426 cnv 1 30 23 empty empty empty 17 7 0 10 -245695 -1 0;
#X text 255 426 DUR: note duration. Type: float.;
#X obj 20 461 cnv 1 745 1 empty empty empty 17 7 0 10 -203890 -1 0;
#X obj 20 466 cnv 5 64 26 empty empty inlets: 4 10 0 14 -262144 -49933
0;
#X text 110 467 1\.;
#X text 150 467 *float*;
#X text 245 467 pitch.;
#X text 150 487 *list*;
#X text 245 487 list of pitches.;
#X obj 20 517 cnv 1 745 1 empty empty empty 17 7 0 10 -203890 -1 0;
#X obj 20 522 cnv 5 73 26 empty empty outlets: 4 10 0 14 -262144
-49933 0;
#X text 110 523 1\.;
#X text 245 523 symbol: converted value.;
#X obj 10 48 ui.link @title index @url ../index-help.pd;
#X text 51 45 ::;
#X obj 67 48 ui.link @title ceammc @url ceammc-help.pd;
#X text 115 45 ::;
#X obj 131 48 ui.link @title conv @url ceammc.conv-help.pd;
#X obj 1 573 cnv 5 765 48 empty empty empty 17 7 0 10 -203890 -1 0;
#X text 10 576 library: ceammc v0.9.4;
#X text 572 588 see also:;
#X obj 646 588 proto.inscore;
#N canvas 10 595 400 290 info 0;
#X obj 1 1 cnv 1 107 287 empty empty empty 17 7 0 10 -183085 -1 0;
#X text 10 10 library:;
#X text 120 10 ceammc;
#X text 10 32 version:;
#X text 120 32 0.9.4;
#X text 10 54 object:;
#X text 120 54 conv.note2guido;
#X text 10 76 category:;
#X text 120 76 conv;
#X text 10 98 since:;
#X text 120 98 0.9.5;
#X text 10 120 authors:;
#X text 120 120 Serge Poltavsky;
#X text 10 142 license:;
#X text 120 142 GPL3 or later;
#X text 10 164 keywords:;
#X text 120 164 conv \, guido \, midil;
#X text 10 186 website:;
#X obj 120 189 ui.link @title https://github.com/uliss/pure-data @url
https://github.com/uliss/pure-data;
#X obj 120 208 declare -lib ceammc;
#X obj 120 268 cnv 1 270 1 empty empty empty 17 7 0 10 -203890 -1 0;
#X text 120 268 generated by pddoc;
#X restore 10 595 pd info;
#X connect 6 0 7 0;
#X connect 7 0 11 0;
#X connect 8 0 11 0;
#X connect 9 0 11 0;
#X connect 10 0 11 0;
#X connect 11 0 12 0;