#N canvas 0 0 785 555 12;
#X declare -lib ceammc;
#X obj 492 50 cnv 1 273 23 empty empty empty 17 7 0 10 -245760 -1 0;
#X text 492 50 convert list of bits to bang events;
#X obj 1 1 cnv 5 765 40 empty empty conv.bits2bang 20 20 0 20 -104026
-4096 0;
#X obj 394 11 ceammc/bits->bang;
#X obj 542 11 bits->bang;
#X obj 639 11 conv.bits2bang;
#X obj 210 80 cnv 1 555 90 empty empty empty 17 7 0 10 -257983 -1 0;
#X text 215 80 in default mode if bit is on - sends bang to corresponding
outlet;
#X text 215 120 in @poly mode if bit is on - send list (BIT_IDX bang)
to single outlet;
#X msg 50 198 random;
#X obj 50 227 ui.hrd* @nitems 4;
#X obj 50 256 bits->bang 4;
#X obj 50 285 osc~ 400;
#X obj 174 285 osc~ 800;
#X obj 299 285 osc~ 1200;
#X obj 424 285 osc~ 1600;
#X obj 50 314 env.ar~ 50 500;
#X obj 174 314 env.ar~ 50 500;
#X obj 299 314 env.ar~ 50 500;
#X obj 424 314 env.ar~ 50 500;
#X obj 50 342 pan.spread~ 4, f 54;
#X obj 50 371 ui.hgain2~;
#X obj 50 400 dac~;
#X text 50 429 Poly version;
#X obj 50 458 ui.hrd* 4;
#X obj 50 486 bits->bang @poly;
#X obj 50 515 clone conv.bits2bang.osc~ 4 400 800 1200 1600;
#X obj 50 544 ui.hgain~;
#X obj 50 573 dac~;
#X obj 20 622 cnv 1 745 1 empty empty empty 17 7 0 10 -203890 -1 0;
#X obj 20 627 cnv 5 98 26 empty empty properties: 4 10 0 14 -262144
-49933 0;
#X msg 110 662 @n;
#X text 245 662 (readonly) Get 123\. Type: int. Default value: 8\.
Range: 1\...64\.;
#X msg 110 704 @poly;
#X text 245 704 polyphonic mode for using with [clone] object.;
#X msg 110 733 @rev;
#X text 245 733 Get/Set reversed bit order. Type: int. Default value:
0\. Allowed values: 0 \, 1\.;
#X obj 20 785 cnv 1 745 1 empty empty empty 17 7 0 10 -203890 -1 0;
#X obj 20 790 cnv 5 64 26 empty empty inlets: 4 10 0 14 -262144 -49933
0;
#X text 110 791 1\.;
#X text 150 791 *list*;
#X text 245 791 input bit list.;
#X obj 20 821 cnv 1 745 1 empty empty empty 17 7 0 10 -203890 -1 0;
#X obj 20 826 cnv 5 73 26 empty empty outlets: 4 10 0 14 -262144
-49933 0;
#X text 110 827 1\.;
#X text 245 827 output.;
#X obj 10 48 ui.link @title index @url ../index-help.pd;
#X text 51 45 ::;
#X obj 67 48 ui.link @title ceammc @url ceammc-help.pd;
#X text 115 45 ::;
#X obj 131 48 ui.link @title conv @url ceammc.conv-help.pd;
#X obj 1 877 cnv 5 765 48 empty empty empty 17 7 0 10 -203890 -1 0;
#X text 10 880 library: ceammc v0.9.3;
#N canvas 10 899 400 290 info 0;
#X obj 1 1 cnv 1 107 287 empty empty empty 17 7 0 10 -183085 -1 0;
#X text 10 10 library:;
#X text 120 10 ceammc;
#X text 10 32 version:;
#X text 120 32 0.9.3;
#X text 10 54 object:;
#X text 120 54 conv.bits2bang;
#X text 10 76 category:;
#X text 120 76 conv;
#X text 10 98 since:;
#X text 120 98 0.9.2;
#X text 10 120 authors:;
#X text 120 120 Serge Poltavsky;
#X text 10 142 license:;
#X text 120 142 GPL3 or later;
#X text 10 164 keywords:;
#X text 120 164 conv \, bits \, bangs;
#X text 10 186 website:;
#X obj 120 189 ui.link @title https://github.com/uliss/pure-data @url
https://github.com/uliss/pure-data;
#X obj 120 208 declare -lib ceammc;
#X obj 120 268 cnv 1 270 1 empty empty empty 17 7 0 10 -203890 -1 0;
#X text 120 268 generated by pddoc;
#X restore 10 899 pd info;
#X connect 9 0 10 0;
#X connect 10 0 11 0;
#X connect 12 0 16 0;
#X connect 13 0 17 0;
#X connect 14 0 18 0;
#X connect 15 0 19 0;
#X connect 16 0 20 0;
#X connect 17 0 20 1;
#X connect 18 0 20 2;
#X connect 19 0 20 3;
#X connect 20 0 21 0;
#X connect 20 1 21 1;
#X connect 21 0 22 0;
#X connect 21 1 22 1;
#X connect 24 0 25 0;
#X connect 25 0 26 0;
#X connect 26 0 27 0;
#X connect 27 0 28 0;
#X connect 27 0 28 1;
#X connect 11 0 16 0;
#X connect 11 1 17 0;
#X connect 11 2 18 0;
#X connect 11 3 19 0;