#N canvas 0 0 785 555 12;
#X declare -lib ceammc;
#X obj 492 50 cnv 1 273 23 empty empty empty 17 7 0 10 -245760 -1 0;
#X text 492 50 convert list of bits to note events;
#X obj 1 1 cnv 5 765 40 empty empty conv.bits2note 20 20 0 20 -104026
-4096 0;
#X obj 394 11 ceammc/bits->note;
#X obj 542 11 bits->note;
#X obj 639 11 conv.bits2note;
#X obj 210 80 cnv 1 555 75 empty empty empty 17 7 0 10 -257983 -1 0;
#X text 215 80 In default mode: output NOTE VEL pair to corresponding
bit index outlet. If bit is on: velocity is @vel \, otherwise 0;
#X text 215 120 In @poly mode: output VOICE NOTE VEL triplet to first
outlet;
#X msg 50 183 bang;
#X obj 50 212 ui.hrd* 4;
#X obj 174 212 ui.tab tie off raw;
#X msg 174 241 @mode \$2;
#X obj 50 270 bits->note 60 70 80 90 @vel 100;
#X obj 50 299 ui.d @auto_size 0 @size 50 18;
#X obj 146 299 ui.d @auto_size 0 @size 50 18;
#X obj 242 299 ui.d @auto_size 0 @size 50 18;
#X obj 338 299 ui.d @auto_size 0 @size 50 18;
#X msg 50 342 bang;
#X obj 50 370 ui.hrd* 4;
#X obj 174 370 ui.tab tie off raw;
#X msg 174 399 @mode \$2;
#X obj 50 428 bits->note 60 70 80 90 @vel 100 @poly;
#X obj 50 457 ui.dt;
#X obj 20 506 cnv 1 745 1 empty empty empty 17 7 0 10 -203890 -1 0;
#X obj 20 511 cnv 5 90 26 empty empty arguments: 4 10 0 14 -262144
-49933 0;
#X text 110 546 1\.;
#X text 150 546 list;
#X obj 246 547 cnv 1 39 20 empty empty empty 17 7 0 10 -245695 -1 0;
#X text 245 546 KEYS: list of note keys.;
#X obj 20 576 cnv 1 745 1 empty empty empty 17 7 0 10 -203890 -1 0;
#X obj 20 581 cnv 5 98 26 empty empty properties: 4 10 0 14 -262144
-49933 0;
#X msg 110 616 @keys;
#X text 245 616 Get/Set list of mapped keys. Type: list.;
#X msg 110 645 @mode;
#X text 245 645 Get/Set mode for repeated notes. If 'off' - send note
off before retriggering \, if 'tie' - ignore repeated events \, if
'raw' - always send on/off events. Type: symbol. Default value: off.
Allowed values: off \, tie \, raw.;
#X msg 110 717 @poly;
#X text 245 717 polyphonic mode. (for using with [clone] object). Default
value: 0\.;
#X msg 110 759 @vel;
#X text 245 759 Get/Set output velocity. Type: float. Default value:
90\. Range: 0\...127\.;
#X obj 20 811 cnv 1 745 1 empty empty empty 17 7 0 10 -203890 -1 0;
#X obj 20 816 cnv 5 64 26 empty empty inlets: 4 10 0 14 -262144 -49933
0;
#X text 110 817 1\.;
#X text 150 817 *list*;
#X text 245 817 input bit list.;
#X obj 20 847 cnv 1 745 1 empty empty empty 17 7 0 10 -203890 -1 0;
#X obj 20 852 cnv 5 73 26 empty empty outlets: 4 10 0 14 -262144
-49933 0;
#X text 110 853 1\.;
#X text 245 853 output.;
#X obj 10 48 ui.link @title index @url ../index-help.pd;
#X text 51 45 ::;
#X obj 67 48 ui.link @title ceammc @url ceammc-help.pd;
#X text 115 45 ::;
#X obj 131 48 ui.link @title conv @url ceammc.conv-help.pd;
#X obj 1 903 cnv 5 765 48 empty empty empty 17 7 0 10 -203890 -1 0;
#X text 10 906 library: ceammc v0.9.2;
#N canvas 10 925 400 290 info 0;
#X obj 1 1 cnv 1 107 287 empty empty empty 17 7 0 10 -183085 -1 0;
#X text 10 10 library:;
#X text 120 10 ceammc;
#X text 10 32 version:;
#X text 120 32 0.9.2;
#X text 10 54 object:;
#X text 120 54 conv.bits2note;
#X text 10 76 category:;
#X text 120 76 conv;
#X text 10 98 since:;
#X text 120 98 0.9.2;
#X text 10 120 authors:;
#X text 120 120 Serge Poltavsky;
#X text 10 142 license:;
#X text 120 142 GPL3 or later;
#X text 10 164 keywords:;
#X text 120 164 conv \, bits \, note \, poly;
#X text 10 186 website:;
#X obj 120 189 ui.link @title https://github.com/uliss/pure-data @url
https://github.com/uliss/pure-data;
#X obj 120 208 declare -lib ceammc;
#X obj 120 268 cnv 1 270 1 empty empty empty 17 7 0 10 -203890 -1 0;
#X text 120 268 generated by pddoc;
#X restore 10 925 pd info;
#X connect 9 0 10 0;
#X connect 11 0 12 0;
#X connect 10 0 13 0;
#X connect 12 0 13 0;
#X connect 13 0 14 0;
#X connect 13 1 15 0;
#X connect 13 2 16 0;
#X connect 13 3 17 0;
#X connect 18 0 19 0;
#X connect 20 0 21 0;
#X connect 19 0 22 0;
#X connect 21 0 22 0;
#X connect 22 0 23 0;