#N canvas 0 0 785 555 12;
#X declare -lib ceammc;
#X obj 407 50 cnv 1 358 23 empty empty empty 17 7 0 10 -245760 -1 0;
#X text 407 50 converts symbol pitch name to MIDI note number;
#X obj 1 1 cnv 5 765 40 empty empty conv.pitch2midi 20 20 0 20 -104026
-4096 0;
#X obj 371 11 ceammc/pitch->midi;
#X obj 526 11 pitch->midi;
#X obj 631 11 conv.pitch2midi;
#X obj 210 80 cnv 1 555 65 empty empty empty 17 7 0 10 -257983 -1 0;
#X text 215 80 Convert Scientific Pitch Notation to MIDI note numbers.
SPN consist of pitch class (C \, C# \, D \, Eb etc.) and octave (0-9).
C4 is middle C (MIDI: 60). The rest symtol is R (-1 output);
#X obj 50 173 tgl 15 0 empty empty empty 17 7 0 10 -262144 -1 -1 0 1;
#X obj 184 173 ui.dsp~;
#X obj 50 202 metro 100;
#X msg 50 231 list Bb3 C4 F4 G4 C6 E##7 R R R R;
#X obj 50 260 list.choice;
#X obj 50 289 pitch->midi;
#X obj 50 317 t f f;
#X obj 50 346 mtof;
#X obj 117 346 != -1;
#X obj 50 375 osc~;
#X obj 117 375 lop~ 30;
#X obj 50 404 *~;
#X obj 50 433 ui.hgain~;
#X obj 50 461 dac~;
#X obj 20 510 cnv 1 745 1 empty empty empty 17 7 0 10 -203890 -1 0;
#X obj 20 515 cnv 5 64 26 empty empty inlets: 4 10 0 14 -262144 -49933
0;
#X text 110 516 1\.;
#X text 150 516 *symbol*;
#X text 245 516 Scientific Pitch Notation value.;
#X text 150 536 *list*;
#X text 245 536 list of SPN values.;
#X text 150 556 *data:string*;
#X text 245 556 SPN value.;
#X text 150 576 *data:mlist*;
#X text 245 576 list SPN values.;
#X obj 20 606 cnv 1 745 1 empty empty empty 17 7 0 10 -203890 -1 0;
#X obj 20 611 cnv 5 73 26 empty empty outlets: 4 10 0 14 -262144
-49933 0;
#X text 110 612 1\.;
#X text 245 612 MIDI note number or -1 on Rest.;
#X obj 10 48 ui.link @title index @url ../index-help.pd;
#X text 51 45 ::;
#X obj 67 48 ui.link @title ceammc @url ceammc-help.pd;
#X text 115 45 ::;
#X obj 131 48 ui.link @title conv @url ceammc.conv-help.pd;
#X obj 1 662 cnv 5 765 48 empty empty empty 17 7 0 10 -203890 -1 0;
#X text 10 665 library: ceammc v0.9.2;
#N canvas 10 684 400 290 info 0;
#X obj 1 1 cnv 1 107 287 empty empty empty 17 7 0 10 -183085 -1 0;
#X text 10 10 library:;
#X text 120 10 ceammc;
#X text 10 32 version:;
#X text 120 32 0.9.2;
#X text 10 54 object:;
#X text 120 54 conv.pitch2midi;
#X text 10 76 category:;
#X text 120 76 conv;
#X text 10 98 since:;
#X text 120 98 0.4;
#X text 10 120 authors:;
#X text 120 120 Serge Poltavsky;
#X text 10 142 license:;
#X text 120 142 GPL3 or later;
#X text 10 164 keywords:;
#X text 120 164 conv \, pitch \, midi;
#X text 10 186 website:;
#X obj 120 189 ui.link @title https://github.com/uliss/pure-data @url
https://github.com/uliss/pure-data;
#X obj 120 208 declare -lib ceammc;
#X obj 120 268 cnv 1 270 1 empty empty empty 17 7 0 10 -203890 -1 0;
#X text 120 268 generated by pddoc;
#X restore 10 684 pd info;
#X connect 8 0 10 0;
#X connect 10 0 11 0;
#X connect 11 0 12 0;
#X connect 12 0 13 0;
#X connect 13 0 14 0;
#X connect 14 0 15 0;
#X connect 14 1 16 0;
#X connect 15 0 17 0;
#X connect 16 0 18 0;
#X connect 17 0 19 0;
#X connect 18 0 19 1;
#X connect 19 0 20 0;
#X connect 20 0 21 0;
#X connect 20 0 21 1;