#N canvas 0 0 785 555 12;
#X declare -lib ceammc;
#X obj 401 50 cnv 1 364 23 empty empty empty 17 7 0 10 -245760 -1 0;
#X text 401 50 map linear to exponential range with 0 allowed.;
#X obj 1 1 cnv 5 765 40 empty empty conv.lin2curve 20 20 0 20 -104026
-4096 0;
#X obj 391 11 ceammc/lin->curve;
#X obj 540 11 lin->curve;
#X obj 638 11 conv.lin2curve;
#X obj 210 80 cnv 1 555 95 empty empty empty 17 7 0 10 -257983 -1 0;
#X text 215 80 map the receiver from an assumed linear input range
to an exponential curve output range. Unlike with [conv.lin2exp] \,
the output range may include zero. If the input exceeds the input range
\, the following behaviours are specified by the clip property.;
#X obj 50 203 loadbang;
#X floatatom 194 203 5 0 0 0 - - -;
#N canvas 0 22 450 300 (subpatch) 0;
#X array l2c 255 float 1;
#A 0 0 0 0 0 0 0 0 0 0 0 0 0 0 0 0 0 0 0 0 0 0 0 0 0 0 0 0 0 0 0 0 0 0
0 0 0 0 0 0 0 0 0 0 0 0 0 0 0 0 0 0 0 0 0 0 0 0 0 0 0 0 0 0 0 0 0 0 0
0 0 0 0 0 0 0 0 0 0 0 0 0 0 0 0 0 0 0 0 0 0 0 0 0 0 0 0 0 0 0 0 0 0 0
0 0 0 0 0 0 0 0 0 0 0 0 0 0 0 0 0 0 0 0 0 0 0 0 0 0 0 0 0 0 0 0 0 0 0
0 0 0 0 0 0 0 0 0 0 0 0 0 0 0 0 0 0 0 0 0 0 0 0 0 0 0 0 0 0 0 0 0 0 0
0 0 0 0 0 0 0 0 0 0 0 0 0 0 0 0 0 0 0 0 0 0 0 0 0 0 0 0 0 0 0 0 0 0 0
0 0 0 0 0 0 0 0 0 0 0 0 0 0 0 0 0 0 0 0 0 0 0 0 0 0 0 0 0 0 0 0 0 0 0
0 0 0 0 0 0 0 0 0 0 0 0;
#X coords 0 1 255 0 71 18 1;
#X restore 357 203 graph;
#X msg 50 232 0 256;
#X obj 194 232 t b f;
#X obj 50 261 list.seq;
#X msg 194 261 @curve \$1;
#X obj 50 290 list.separate;
#X obj 50 319 t f f, f 12;
#X obj 50 347 lin->curve 0 256 0 1;
#X obj 50 376 tabwrite l2c;
#X obj 20 426 cnv 1 745 1 empty empty empty 17 7 0 10 -203890 -1 0;
#X obj 20 431 cnv 5 90 25 empty empty arguments: 4 10 0 14 -262144
-49933 0;
#X text 110 466 1.;
#X text 150 466 float;
#X obj 246 467 cnv 1 62 20 empty empty empty 17 7 0 10 -245695 -1 0;
#X text 245 466 IN_FROM: begin of input range. Type: float.;
#X text 110 486 2.;
#X text 150 486 float;
#X obj 246 487 cnv 1 47 20 empty empty empty 17 7 0 10 -245695 -1 0;
#X text 245 486 IN_TO: end of input range. Type: float.;
#X text 110 506 3.;
#X text 150 506 float;
#X obj 246 507 cnv 1 70 20 empty empty empty 17 7 0 10 -245695 -1 0;
#X text 245 506 OUT_FROM: begin of output range. Type: float.;
#X text 110 526 4.;
#X text 150 526 float;
#X obj 246 527 cnv 1 55 20 empty empty empty 17 7 0 10 -245695 -1 0;
#X text 245 526 OUT_TO: end of output range. Type: float.;
#X text 110 546 5.;
#X text 150 546 float;
#X obj 246 547 cnv 1 47 20 empty empty empty 17 7 0 10 -245695 -1 0;
#X text 245 546 CURVE: curve shape. Type: float.;
#X obj 20 576 cnv 1 745 1 empty empty empty 17 7 0 10 -203890 -1 0;
#X obj 20 581 cnv 5 98 25 empty empty properties: 4 10 0 14 -262144
-49933 0;
#X msg 110 616 @clip;
#X text 245 616 Get/Set noclip (don't clip) max (clip ceiling) min
(clip floor) minmax (clip both). Type: symbol. Default value: minmax.
Allowed values: noclip \, min \, max \, minmax.;
#X msg 110 673 @curve;
#X text 245 673 Get/Set 0 (linear) <0 (concave \, negatively curved)
>0 (convex \, positively curved). Type: float. Default value: -4.;
#X msg 110 715 @in_from;
#X text 245 715 Get/Set begin of input range. Type: float. Default
value: 0.;
#X msg 110 745 @in_to;
#X text 245 745 Get/Set end of input range. Type: float. Default value:
127.;
#X msg 110 775 @max;
#X text 245 775 Get/Set alias to @clip max. Type: symbol.;
#X msg 110 805 @min;
#X text 245 805 Get/Set alias to @clip min. Type: symbol.;
#X msg 110 835 @minmax;
#X text 245 835 Get/Set alias to @clip minmax. Type: symbol.;
#X msg 110 865 @noclip;
#X text 245 865 Get/Set alias to @clip noclip. Type: symbol.;
#X msg 110 895 @out_from;
#X text 245 895 Get/Set begin of output range. Type: float. Default
value: 0.;
#X msg 110 925 @out_to;
#X text 245 925 Get/Set end of output range. Type: float. Default value:
1.;
#X obj 20 965 cnv 1 745 1 empty empty empty 17 7 0 10 -203890 -1 0;
#X obj 20 970 cnv 5 64 25 empty empty inlets: 4 10 0 14 -262144 -49933
0;
#X text 110 971 1.;
#X text 150 971 *float*;
#X text 245 971 input value.;
#X text 150 991 *list*;
#X text 245 991 input list.;
#X obj 20 1021 cnv 1 745 1 empty empty empty 17 7 0 10 -203890 -1 0;
#X obj 20 1026 cnv 5 73 25 empty empty outlets: 4 10 0 14 -262144
-49933 0;
#X text 110 1027 1.;
#X text 245 1027 converted value.;
#X obj 10 48 ui.link @title index @url ../index-help.pd;
#X text 51 45 ::;
#X obj 68 48 ui.link @title ceammc @url ceammc-help.pd;
#X text 116 45 ::;
#X obj 133 48 ui.link @title conv @url ceammc.conv-help.pd;
#X obj 1 1077 cnv 5 765 48 empty empty empty 17 7 0 10 -203890 -1 0;
#X text 10 1080 library: ceammc v0.9.7;
#X text 578 1092 see also:;
#X obj 653 1092 conv.lin2exp;
#N canvas 10 1099 400 290 info 0;
#X obj 1 1 cnv 1 107 287 empty empty empty 17 7 0 10 -183085 -1 0;
#X text 10 10 library:;
#X text 120 10 ceammc;
#X text 10 32 version:;
#X text 120 32 0.9.7;
#X text 10 54 object:;
#X text 120 54 conv.lin2curve;
#X text 10 76 category:;
#X text 120 76 conv;
#X text 10 98 since:;
#X text 120 98 0.1;
#X text 10 120 authors:;
#X text 120 120 Serge Poltavsky;
#X text 10 142 license:;
#X text 120 142 GPL3 or later;
#X text 10 164 keywords:;
#X text 120 164 convert \, exponential \, curve;
#X text 10 186 website:;
#X obj 120 189 ui.link @title https://github.com/uliss/pd-ceammc @url
https://github.com/uliss/pd-ceammc;
#X obj 120 208 declare -lib ceammc;
#X obj 120 268 cnv 1 270 1 empty empty empty 17 7 0 10 -203890 -1 0;
#X text 120 268 generated by pddoc;
#X restore 10 1099 pd info;
#X connect 8 0 11 0;
#X connect 9 0 12 0;
#X connect 11 0 13 0;
#X connect 12 1 14 0;
#X connect 13 0 15 0;
#X connect 15 0 16 0;
#X connect 16 0 17 0;
#X connect 17 0 18 0;
#X connect 16 1 18 1;
#X connect 14 0 17 0;
#X connect 12 0 11 0;