#N canvas 0 0 785 555 12;
#X declare -lib ceammc;
#X obj 445 50 cnv 1 320 23 empty empty empty 17 7 0 10 -245760 -1 0;
#X text 445 50 dictionary container: store values by key;
#X obj 1 1 cnv 5 765 40 empty empty data.dict 20 20 0 20 -104026 -4096
0;
#X obj 517 11 ceammc/dict;
#X obj 621 11 dict;
#X obj 675 11 data.dict;
#X obj 210 80 cnv 1 555 50 empty empty empty 17 7 0 10 -257983 -1 0;
#X text 215 80 Syntax: [key1: value key2 : "with space"]. Nested dictionaries
are supported: [a: [A:1 B:2]]).;
#X msg 50 158 bang;
#X msg 117 158 [a: [K0: 1 2 3 K2: "a symbol"]] \, bang;
#X msg 530 158 get_key a;
#X msg 78 187 [a: b c: d] \, bang;
#X msg 280 187 clear;
#X msg 357 187 remove a;
#X msg 107 216 add KEY value;
#X obj 376 216 bng 15 250 50 0 empty empty empty 17 7 0 10 -262144 -1
-1;
#X obj 376 245 openpanel;
#X msg 136 259 list a b c d;
#X msg 376 274 read \$1;
#X obj 50 302 data.dict \[tempo: 120 title: "New Masterpiece"\];
#X obj 50 331 ui.display @display_type 1;
#X obj 20 380 cnv 1 745 1 empty empty empty 17 7 0 10 -203890 -1 0;
#X obj 20 385 cnv 5 115 26 empty empty mouse_events: 4 10 0 14 -262144
-49933 0;
#X text 110 420 Left-click;
#X text 285 420 open data editor.;
#X obj 20 450 cnv 1 745 1 empty empty empty 17 7 0 10 -203890 -1 0;
#X obj 20 455 cnv 5 98 26 empty empty properties: 4 10 0 14 -262144
-49933 0;
#X msg 110 490 @empty?;
#X text 245 490 (readonly) Get 1 if dict is empty \, otherwise 0\.
Type: bool. Default value: 1\.;
#X msg 110 532 @keys?;
#X text 245 532 (readonly) Get keys of dictionary. Type: list.;
#X msg 110 561 @size?;
#X text 245 561 (readonly) Get number of entries in dictionary. Type:
int. Default value: 0\. Min value: 0\.;
#X obj 20 613 cnv 1 745 1 empty empty empty 17 7 0 10 -203890 -1 0;
#X obj 20 618 cnv 5 73 26 empty empty methods: 4 10 0 14 -262144
-49933 0;
#X msg 110 653 add;
#X text 245 653 adds entry to dictionary. Arguments are:;
#X obj 255 676 cnv 1 29 23 empty empty empty 17 7 0 10 -245695 -1 0;
#X text 255 676 KEY: entry key. Type: symbol.;
#X obj 255 699 cnv 1 30 23 empty empty empty 17 7 0 10 -245695 -1 0;
#X text 255 699 VAL: single value or list. Type: list.;
#X msg 110 724 choose;
#X text 245 724 choose random key and output it.;
#X msg 110 751 clear;
#X text 245 751 removes all dict values. No output.;
#X msg 110 778 get_key;
#X text 245 778 get entry from dictionary. Arguments are:;
#X obj 255 801 cnv 1 29 23 empty empty empty 17 7 0 10 -245695 -1 0;
#X text 255 801 KEY: entry key. Type: symbol.;
#X msg 110 826 read;
#X text 245 826 read dict from JSON file. Arguments are:;
#X obj 255 849 cnv 1 36 23 empty empty empty 17 7 0 10 -245695 -1 0;
#X text 255 849 PATH: file path. Type: symbol.;
#X msg 110 874 remove;
#X text 245 874 remove entry from dictionary. Arguments are:;
#X obj 255 897 cnv 1 29 23 empty empty empty 17 7 0 10 -245695 -1 0;
#X text 255 897 KEY: entry key. Type: symbol.;
#X msg 110 922 set;
#X text 245 922 set dict content without output.;
#X msg 110 949 set_key;
#X text 245 949 change entry in dictionary. If it's not exists \, do
nothing. Arguments are:;
#X obj 255 987 cnv 1 29 23 empty empty empty 17 7 0 10 -245695 -1 0;
#X text 255 987 KEY: key. Type: symbol.;
#X obj 255 1010 cnv 1 30 23 empty empty empty 17 7 0 10 -245695 -1 0;
#X text 255 1010 VAL: single value or list. Type: list.;
#X msg 110 1035 write;
#X text 245 1035 write dict as JSON file. Arguments are:;
#X obj 255 1058 cnv 1 36 23 empty empty empty 17 7 0 10 -245695 -1 0;
#X text 255 1058 PATH: file path. Type: symbol.;
#X msg 110 1083 [....];
#X text 245 1083 sets new content without output.;
#X obj 20 1120 cnv 1 745 1 empty empty empty 17 7 0 10 -203890 -1 0;
#X obj 20 1125 cnv 5 64 26 empty empty inlets: 4 10 0 14 -262144
-49933 0;
#X text 110 1126 1\.;
#X text 150 1126 *bang*;
#X text 245 1126 output current dictionary value.;
#X text 150 1146 *list*;
#X text 245 1146 set dict from list. Key-value pairs are expected.
[1 2 3 4( becames dict with keys: 1 and 3 \, values: 2 and 4\. No output.;
#X text 150 1181 *data:dict*;
#X text 245 1181 set and output new dict.;
#X obj 20 1211 cnv 1 745 1 empty empty empty 17 7 0 10 -203890 -1 0;
#X obj 20 1216 cnv 5 73 26 empty empty outlets: 4 10 0 14 -262144
-49933 0;
#X text 110 1217 1\.;
#X text 245 1217 output dictionary.;
#X obj 10 48 ui.link @title index @url ../index-help.pd;
#X text 51 45 ::;
#X obj 67 48 ui.link @title ceammc @url ceammc-help.pd;
#X text 115 45 ::;
#X obj 131 48 ui.link @title data @url ceammc.data-help.pd;
#X obj 1 1267 cnv 5 765 48 empty empty empty 17 7 0 10 -203890 -1 0;
#X text 10 1270 library: ceammc v0.9.7;
#X text 521 1282 see also:;
#X obj 595 1282 data.set;
#X obj 668 1282 data.mlist;
#N canvas 10 1289 400 290 info 0;
#X obj 1 1 cnv 1 107 287 empty empty empty 17 7 0 10 -183085 -1 0;
#X text 10 10 library:;
#X text 120 10 ceammc;
#X text 10 32 version:;
#X text 120 32 0.9.7;
#X text 10 54 object:;
#X text 120 54 data.dict;
#X text 10 76 category:;
#X text 120 76 data;
#X text 10 98 since:;
#X text 120 98 0.6;
#X text 10 120 authors:;
#X text 120 120 Serge Poltavsky;
#X text 10 142 license:;
#X text 120 142 GPL3 or later;
#X text 10 164 keywords:;
#X text 120 164 data \, dictionary;
#X text 10 186 website:;
#X obj 120 189 ui.link @title https://github.com/uliss/pure-data @url
https://github.com/uliss/pure-data;
#X obj 120 208 declare -lib ceammc;
#X obj 120 268 cnv 1 270 1 empty empty empty 17 7 0 10 -203890 -1 0;
#X text 120 268 generated by pddoc;
#X restore 10 1289 pd info;
#X connect 15 0 16 0;
#X connect 16 0 18 0;
#X connect 8 0 19 0;
#X connect 11 0 19 0;
#X connect 14 0 19 0;
#X connect 17 0 19 0;
#X connect 12 0 19 0;
#X connect 13 0 19 0;
#X connect 18 0 19 0;
#X connect 19 0 20 0;
#X connect 9 0 19 0;
#X connect 10 0 19 0;