#N canvas 0 0 785 555 12;
#X declare -lib ceammc;
#X obj 652 50 cnv 1 113 23 empty empty empty 17 7 0 10 -245760 -1 0;
#X text 652 50 Color datatype;
#X obj 1 1 cnv 5 765 40 empty empty data.color 20 20 0 20 -104026
-4096 0;
#X obj 493 11 color;
#X obj 555 11 ceammc/color;
#X obj 667 11 data.color;
#X msg 50 118 hex #AA0055;
#X msg 222 118 darken 0.1;
#X msg 376 118 brighten 0.1;
#X msg 549 118 rgb8 10 255 100;
#X msg 50 147 red 1;
#X msg 155 147 green 0.5;
#X msg 299 147 blue 0.5;
#X msg 434 147 grayscale;
#X msg 578 147 invert;
#X msg 50 176 rotate 20;
#X msg 194 176 saturate 0.1;
#X msg 366 176 desaturate 0.1;
#X obj 50 205 msg.after 0 bang;
#X obj 261 205 loadbang;
#X obj 50 234 data.color \#DEF;
#X obj 50 262 rgb->hex;
#X msg 50 291 color \$1 -1 -1;
#X obj 50 320 hslider 128 15 0.0 127.0 0 0 empty empty empty 17 7 0 10
-262144 -1 -1 0 0;
#X obj 20 367 cnv 1 745 1 empty empty empty 17 7 0 10 -203890 -1 0;
#X obj 20 372 cnv 5 115 26 empty empty mouse_events: 4 10 0 14 -262144
-49933 0;
#X text 110 407 Left-click;
#X text 285 407 open color chooser popup.;
#X obj 20 437 cnv 1 745 1 empty empty empty 17 7 0 10 -203890 -1 0;
#X obj 20 442 cnv 5 90 26 empty empty arguments: 4 10 0 14 -262144
-49933 0;
#X text 110 477 1\.;
#X text 150 477 atom;
#X obj 246 478 cnv 1 47 20 empty empty empty 17 7 0 10 -245695 -1 0;
#X text 245 477 VALUE: initial value. Type: atom.;
#X obj 20 507 cnv 1 745 1 empty empty empty 17 7 0 10 -203890 -1 0;
#X obj 20 512 cnv 5 98 26 empty empty properties: 4 10 0 14 -262144
-49933 0;
#X msg 110 547 @value;
#X text 245 547 Get/Set current color. Type: atom.;
#X obj 20 586 cnv 1 745 1 empty empty empty 17 7 0 10 -203890 -1 0;
#X obj 20 591 cnv 5 73 26 empty empty methods: 4 10 0 14 -262144
-49933 0;
#X msg 110 626 alpha;
#X text 245 626 set alpha channel value. Arguments are:;
#X obj 255 649 cnv 1 45 23 empty empty empty 17 7 0 10 -245695 -1 0;
#X text 255 649 ALPHA: value. Type: float. Range: 0\...1\.;
#X msg 110 674 alpha;
#X text 245 674 set alpha channel. Arguments are:;
#X obj 255 697 cnv 1 45 23 empty empty empty 17 7 0 10 -245695 -1 0;
#X text 255 697 ALPHA: alpha value. Type: float. Range: 0\...1\.;
#X msg 110 722 blue;
#X text 245 722 set blue channel value. Arguments are:;
#X obj 255 745 cnv 1 36 23 empty empty empty 17 7 0 10 -245695 -1 0;
#X text 255 745 BLUE: value. Type: float. Range: 0\...1\.;
#X msg 110 770 blue;
#X text 245 770 set blue channel. Arguments are:;
#X obj 255 793 cnv 1 36 23 empty empty empty 17 7 0 10 -245695 -1 0;
#X text 255 793 BLUE: blue value. Type: float. Range: 0\...1\.;
#X msg 110 818 brighten;
#X text 245 818 set color brighter. Arguments are:;
#X obj 255 841 cnv 1 14 23 empty empty empty 17 7 0 10 -245695 -1 0;
#X text 255 841 V: value. Type: float. Range: 0\...1\.;
#X msg 110 866 darken;
#X text 245 866 set color darker. Arguments are:;
#X obj 255 889 cnv 1 14 23 empty empty empty 17 7 0 10 -245695 -1 0;
#X text 255 889 V: value. Type: float. Range: 0\...1\.;
#X msg 110 914 desaturate;
#X text 245 914 decrease color saturation. Arguments are:;
#X obj 255 937 cnv 1 14 23 empty empty empty 17 7 0 10 -245695 -1 0;
#X text 255 937 V: value. Type: float. Range: 0\...1\.;
#X msg 110 962 flip;
#X text 245 962 flip color hue. Arguments are:;
#X obj 255 985 cnv 1 24 23 empty empty empty 17 7 0 10 -245695 -1 0;
#X text 255 985 [V]: v. Type: float. Range: 0\...1\.;
#X msg 110 1010 grayscale;
#X text 245 1010 convert color to grayscale.;
#X msg 110 1037 green;
#X text 245 1037 set green channel value. Arguments are:;
#X obj 255 1060 cnv 1 44 23 empty empty empty 17 7 0 10 -245695 -1 0;
#X text 255 1060 GREEN: value. Type: float. Range: 0\...1\.;
#X msg 110 1085 green;
#X text 245 1085 set green channel. Arguments are:;
#X obj 255 1108 cnv 1 44 23 empty empty empty 17 7 0 10 -245695 -1 0;
#X text 255 1108 GREEN: green value. Type: float. Range: 0\...1\.;
#X msg 110 1133 hex;
#X text 245 1133 set color with hex #RGB or #RRGGBB value. Arguments
are:;
#X obj 255 1156 cnv 1 30 23 empty empty empty 17 7 0 10 -245695 -1 0;
#X text 255 1156 HEX: mix amount. Type: symbol.;
#X msg 110 1181 hsl;
#X text 245 1181 set color in HSL colorspace. Arguments are:;
#X obj 255 1204 cnv 1 29 23 empty empty empty 17 7 0 10 -245695 -1 0;
#X text 255 1204 HUE: hue value. Type: float. Range: 0\...360\.;
#X obj 255 1227 cnv 1 82 23 empty empty empty 17 7 0 10 -245695 -1 0;
#X text 255 1227 SATURATION: saturation value. Type: float. Range:
0\...1\.;
#X obj 255 1250 cnv 1 74 23 empty empty empty 17 7 0 10 -245695 -1 0;
#X text 255 1250 LIGHTNESS: lightness value. Type: float. Range: 0\...1\.;
#X obj 255 1273 cnv 1 54 23 empty empty empty 17 7 0 10 -245695 -1 0;
#X text 255 1273 [ALPHA]: alpha value. Type: float. Range: 0\...1\.;
#X msg 110 1298 hwb;
#X text 245 1298 set color in HWB colorspace. Arguments are:;
#X obj 255 1321 cnv 1 29 23 empty empty empty 17 7 0 10 -245695 -1 0;
#X text 255 1321 HUE: hue value. Type: float. Range: 0\...360\.;
#X obj 255 1344 cnv 1 76 23 empty empty empty 17 7 0 10 -245695 -1 0;
#X text 255 1344 WHITENESS: whiteness value. Type: float. Range: 0\...1\.;
#X obj 255 1367 cnv 1 75 23 empty empty empty 17 7 0 10 -245695 -1 0;
#X text 255 1367 BLACKNESS: blackness value. Type: float. Range: 0\...1\.;
#X obj 255 1390 cnv 1 54 23 empty empty empty 17 7 0 10 -245695 -1 0;
#X text 255 1390 [ALPHA]: alpha value. Type: float. Range: 0\...1\.;
#X msg 110 1415 invert;
#X text 245 1415 invert color in RGB colorspace.;
#X msg 110 1442 mix;
#X text 245 1442 mix with specified color. Arguments are:;
#X obj 255 1465 cnv 1 45 23 empty empty empty 17 7 0 10 -245695 -1 0;
#X text 255 1465 COLOR: color to mix with. Type: data:color.;
#X obj 255 1488 cnv 1 30 23 empty empty empty 17 7 0 10 -245695 -1 0;
#X text 255 1488 MIX: mix amount. Type: float. Range: 0\...1\.;
#X msg 110 1513 oklab;
#X text 245 1513 set color in OkLab colorspace. Arguments are:;
#X obj 255 1536 cnv 1 29 23 empty empty empty 17 7 0 10 -245695 -1 0;
#X text 255 1536 HUE: hue value. Type: float. Range: 0\...360\.;
#X obj 255 1559 cnv 1 13 23 empty empty empty 17 7 0 10 -245695 -1 0;
#X text 255 1559 a: a value. Type: float. Range: -1\...1\.;
#X obj 255 1582 cnv 1 13 23 empty empty empty 17 7 0 10 -245695 -1 0;
#X text 255 1582 b: b value. Type: float. Range: -1\...1\.;
#X obj 255 1605 cnv 1 54 23 empty empty empty 17 7 0 10 -245695 -1 0;
#X text 255 1605 [ALPHA]: alpha value. Type: float. Range: 0\...1\.;
#X msg 110 1630 red;
#X text 245 1630 set red channel value. Arguments are:;
#X obj 255 1653 cnv 1 29 23 empty empty empty 17 7 0 10 -245695 -1 0;
#X text 255 1653 RED: value. Type: float. Range: 0\...1\.;
#X msg 110 1678 red;
#X text 245 1678 set red channel. Arguments are:;
#X obj 255 1701 cnv 1 29 23 empty empty empty 17 7 0 10 -245695 -1 0;
#X text 255 1701 RED: red value. Type: float. Range: 0\...1\.;
#X msg 110 1726 rgb;
#X text 245 1726 set RGB with floats. Arguments are:;
#X obj 255 1749 cnv 1 29 23 empty empty empty 17 7 0 10 -245695 -1 0;
#X text 255 1749 RED: red value. Type: float. Range: 0\...1\.;
#X obj 255 1772 cnv 1 44 23 empty empty empty 17 7 0 10 -245695 -1 0;
#X text 255 1772 GREEN: green value. Type: float. Range: 0\...1\.;
#X obj 255 1795 cnv 1 36 23 empty empty empty 17 7 0 10 -245695 -1 0;
#X text 255 1795 BLUE: blue value. Type: float. Range: 0\...1\.;
#X obj 255 1818 cnv 1 54 23 empty empty empty 17 7 0 10 -245695 -1 0;
#X text 255 1818 [ALPHA]: alpha value. Type: float. Range: 0\...1\.;
#X msg 110 1843 rgb8;
#X text 245 1843 set RGB with int values. Arguments are:;
#X obj 255 1866 cnv 1 29 23 empty empty empty 17 7 0 10 -245695 -1 0;
#X text 255 1866 RED: red value. Type: int. Range: 0\...255\.;
#X obj 255 1889 cnv 1 44 23 empty empty empty 17 7 0 10 -245695 -1 0;
#X text 255 1889 GREEN: green value. Type: int. Range: 0\...255\.;
#X obj 255 1912 cnv 1 36 23 empty empty empty 17 7 0 10 -245695 -1 0;
#X text 255 1912 BLUE: blue value. Type: int. Range: 0\...255\.;
#X obj 255 1935 cnv 1 54 23 empty empty empty 17 7 0 10 -245695 -1 0;
#X text 255 1935 [ALPHA]: alpha value. Type: int. Range: 0\...255\.;
#X msg 110 1960 rotate;
#X text 245 1960 rotate color hue. Arguments are:;
#X obj 255 1983 cnv 1 14 23 empty empty empty 17 7 0 10 -245695 -1 0;
#X text 255 1983 V: rotation angle. Type: float. Range: 0\...360\.;
#X msg 110 2008 saturate;
#X text 245 2008 increase color saturation. Arguments are:;
#X obj 255 2031 cnv 1 14 23 empty empty empty 17 7 0 10 -245695 -1 0;
#X text 255 2031 V: value. Type: float. Range: 0\...1\.;
#X msg 110 2056 set;
#X text 245 2056 set color. Arguments are:;
#X obj 255 2079 cnv 1 45 23 empty empty empty 17 7 0 10 -245695 -1 0;
#X text 255 2079 COLOR: new color value. Type: data:color.;
#X obj 20 2114 cnv 1 745 1 empty empty empty 17 7 0 10 -203890 -1 0;
#X obj 20 2119 cnv 5 64 26 empty empty inlets: 4 10 0 14 -262144
-49933 0;
#X text 110 2120 1\.;
#X text 150 2120 *data:color*;
#X text 245 2120 set color and output.;
#X text 110 2140 2\.;
#X text 150 2140 *data:color*;
#X text 245 2140 set color without output.;
#X obj 20 2170 cnv 1 745 1 empty empty empty 17 7 0 10 -203890 -1 0;
#X obj 20 2175 cnv 5 73 26 empty empty outlets: 4 10 0 14 -262144
-49933 0;
#X text 110 2176 1\.;
#X text 245 2176 data:color output.;
#X obj 10 48 ui.link @title index @url ../index-help.pd;
#X text 51 45 ::;
#X obj 67 48 ui.link @title ceammc @url ceammc-help.pd;
#X text 115 45 ::;
#X obj 131 48 ui.link @title data @url ceammc.data-help.pd;
#X obj 1 2226 cnv 5 765 48 empty empty empty 17 7 0 10 -203890 -1 0;
#X text 10 2229 library: ceammc v0.9.7;
#N canvas 10 2248 400 290 info 0;
#X obj 1 1 cnv 1 107 287 empty empty empty 17 7 0 10 -183085 -1 0;
#X text 10 10 library:;
#X text 120 10 ceammc;
#X text 10 32 version:;
#X text 120 32 0.9.7;
#X text 10 54 object:;
#X text 120 54 data.color;
#X text 10 76 category:;
#X text 120 76 data;
#X text 10 98 since:;
#X text 120 98 0.9.7;
#X text 10 120 authors:;
#X text 120 120 Serge Poltavsky;
#X text 10 142 license:;
#X text 120 142 GPL3 or later;
#X text 10 164 keywords:;
#X text 120 164 data \, color;
#X text 10 186 website:;
#X obj 120 189 ui.link @title https://github.com/uliss/pure-data @url
https://github.com/uliss/pure-data;
#X obj 120 208 declare -lib ceammc;
#X obj 120 268 cnv 1 270 1 empty empty empty 17 7 0 10 -203890 -1 0;
#X text 120 268 generated by pddoc;
#X restore 10 2248 pd info;
#X connect 18 0 20 0;
#X connect 19 0 20 0;
#X connect 20 0 21 0;
#X connect 21 0 22 0;
#X connect 22 0 23 0;
#X connect 6 0 18 0;
#X connect 7 0 18 0;
#X connect 8 0 18 0;
#X connect 10 0 18 0;
#X connect 11 0 18 0;
#X connect 12 0 18 0;
#X connect 13 0 18 0;
#X connect 9 0 18 0;
#X connect 14 0 18 0;
#X connect 15 0 18 0;
#X connect 16 0 18 0;
#X connect 17 0 18 0;