#N canvas 0 0 785 555 12;
#X declare -lib ceammc;
#X obj 407 50 cnv 1 358 23 empty empty empty 17 7 0 10 -245760 -1 0;
#X text 407 50 First-In-First-Out (FIFO) queue data container;
#X obj 1 1 cnv 5 765 40 empty empty data.fifo 20 20 0 20 -104026 -4096
0;
#X obj 675 11 data.fifo;
#X obj 210 80 cnv 1 555 65 empty empty empty 17 7 0 10 -257983 -1 0;
#X text 215 80 If size argument specified - creates queue with fixed
size. When count of values exceed this limit \, outputs and removes
first value in queue.;
#X floatatom 213 173 5 0 0 0 - - -;
#X msg 88 202 pop;
#X msg 155 202 1 2;
#X msg 213 202 resize \$1;
#X msg 338 217 @size?;
#X msg 424 217 @free?;
#X msg 510 217 @filled?;
#X floatatom 50 231 5 0 0 0 - - -;
#X obj 117 231 bng 15 250 50 0 empty empty empty 17 7 0 10 -262144 -1
-1;
#X msg 174 231 clear;
#X msg 270 231 flush;
#X obj 50 260 data.fifo 5;
#X obj 50 289 ui.dt;
#X obj 213 289 print;
#X obj 20 338 cnv 1 745 1 empty empty empty 17 7 0 10 -203890 -1 0;
#X obj 20 343 cnv 5 115 26 empty empty mouse_events: 4 10 0 14 -262144
-49933 0;
#X text 110 378 Left-click;
#X text 285 378 open data editor.;
#X obj 20 408 cnv 1 745 1 empty empty empty 17 7 0 10 -203890 -1 0;
#X obj 20 413 cnv 5 90 26 empty empty arguments: 4 10 0 14 -262144
-49933 0;
#X text 110 448 1\.;
#X text 150 448 int;
#X obj 246 449 cnv 1 39 20 empty empty empty 17 7 0 10 -245695 -1 0;
#X text 245 448 SIZE: if specified \, creates fixed-size queue. Value
'0' means default size (1024). Type: int. Min value: 0;
#X obj 20 493 cnv 1 745 1 empty empty empty 17 7 0 10 -203890 -1 0;
#X obj 20 498 cnv 5 98 26 empty empty properties: 4 10 0 14 -262144
-49933 0;
#X msg 110 533 @size;
#X text 245 533 Get/Set size of queue. Type: int. Default value: 32\.
Range: 1\...1024\.;
#X msg 110 575 @empty?;
#X text 245 575 (readonly) Get if queue is empty. Type: bool. Default
value: 1\.;
#X msg 110 617 @filled?;
#X text 245 617 (readonly) Get current number of elements in queue.
Type: int. Default value: 0\. Min value: 0\.;
#X msg 110 659 @free?;
#X text 245 659 (readonly) Get number of elements you can add to queue
until it full. Type: int. Default value: 32\. Min value: 0\.;
#X obj 20 711 cnv 1 745 1 empty empty empty 17 7 0 10 -203890 -1 0;
#X obj 20 716 cnv 5 73 26 empty empty methods: 4 10 0 14 -262144
-49933 0;
#X msg 110 751 clear;
#X text 245 751 removes all queue values.;
#X msg 110 778 flush;
#X text 245 778 outputs and removes all queue values.;
#X msg 110 805 pop;
#X text 245 805 outputs and removes first values in queue.;
#X msg 110 832 resize;
#X text 245 832 Arguments are:;
#X obj 255 855 cnv 1 62 23 empty empty empty 17 7 0 10 -245695 -1 0;
#X text 255 855 [anonym]: changes queue size. All previous values (if
any) are silently removed. Type: int. Min value: 0\.;
#X obj 20 905 cnv 1 745 1 empty empty empty 17 7 0 10 -203890 -1 0;
#X obj 20 910 cnv 5 64 26 empty empty inlets: 4 10 0 14 -262144 -49933
0;
#X text 110 911 1\.;
#X text 150 911 *bang*;
#X text 245 911 same as *flush* message.;
#X obj 20 941 cnv 1 745 1 empty empty empty 17 7 0 10 -203890 -1 0;
#X obj 20 946 cnv 5 73 26 empty empty outlets: 4 10 0 14 -262144
-49933 0;
#X text 110 947 1\.;
#X text 245 947 output value.;
#X obj 10 48 ui.link @title index @url ../index-help.pd;
#X text 51 45 ::;
#X obj 67 48 ui.link @title ceammc @url ceammc-help.pd;
#X text 115 45 ::;
#X obj 131 48 ui.link @title data @url ceammc.data-help.pd;
#X obj 1 997 cnv 5 765 48 empty empty empty 17 7 0 10 -203890 -1 0;
#X text 10 1000 library: ceammc v0.9.6;
#X text 601 1012 see also:;
#X obj 675 1012 data.list;
#N canvas 10 1019 400 290 info 0;
#X obj 1 1 cnv 1 107 287 empty empty empty 17 7 0 10 -183085 -1 0;
#X text 10 10 library:;
#X text 120 10 ceammc;
#X text 10 32 version:;
#X text 120 32 0.9.6;
#X text 10 54 object:;
#X text 120 54 data.fifo;
#X text 10 76 category:;
#X text 120 76 data;
#X text 10 98 since:;
#X text 120 98 0.1;
#X text 10 120 authors:;
#X text 120 120 Serge Poltavsky;
#X text 10 142 license:;
#X text 120 142 GPL3 or later;
#X text 10 164 keywords:;
#X text 120 164 data \, fifo;
#X text 10 186 website:;
#X obj 120 189 ui.link @title https://github.com/uliss/pure-data @url
https://github.com/uliss/pure-data;
#X obj 120 208 declare -lib ceammc;
#X obj 120 268 cnv 1 270 1 empty empty empty 17 7 0 10 -203890 -1 0;
#X text 120 268 generated by pddoc;
#X restore 10 1019 pd info;
#X connect 6 0 9 0;
#X connect 13 0 17 0;
#X connect 7 0 17 0;
#X connect 14 0 17 0;
#X connect 8 0 17 0;
#X connect 15 0 17 0;
#X connect 9 0 17 0;
#X connect 16 0 17 0;
#X connect 10 0 17 0;
#X connect 11 0 17 0;
#X connect 12 0 17 0;
#X connect 17 0 18 0;
#X connect 17 0 19 0;