#N canvas 0 0 425 201 12;
#X msg 20 48 dump;
#X msg 87 48 list a b c;
#X floatatom 221 48 5 0 0 0 - - -;
#X msg 327 48 10 11;
#X obj 39 77 bng 15 250 50 0 empty empty empty 17 7 0 10 -262144 -1
-1;
#X msg 116 77 pop;
#X obj 221 77 m append;
#X obj 327 77 m insert 1;
#X obj 20 135 data.list 1 2 3;
#X obj 20 164 m set;
#X msg 20 192 ;
#X connect 0 0 8 0;
#X connect 7 0 8 0;
#X connect 5 0 8 0;
#X connect 3 0 7 0;
#X connect 1 0 8 0;
#X connect 6 0 8 0;
#X connect 4 0 8 0;
#X connect 9 0 10 0;
#X connect 2 0 6 0;
#X connect 8 0 9 0;
