#N canvas 0 0 785 555 12;
#X declare -lib ceammc;
#X obj 606 50 cnv 1 159 23 empty empty empty 17 7 0 10 -245760 -1 0;
#X text 606 50 converts set to list;
#X obj 1 1 cnv 5 765 40 empty empty data.set2list 20 20 0 20 -104026
-4096 0;
#X obj 414 11 ceammc/set->list;
#X obj 555 11 set->list;
#X obj 645 11 data.set2list;
#X obj 210 80 cnv 1 555 50 empty empty empty 17 7 0 10 -257983 -1 0;
#X text 215 80 Note: output list is not sorted by default. You can
use @sort flag to get sorted output;
#X msg 50 158 dump;
#X obj 69 187 bng 15 250 50 0 empty empty empty 17 7 0 10 -262144 -1
-1;
#X msg 107 187 add a;
#X msg 203 187 remove a;
#X obj 50 245 data.set a b c d;
#X obj 50 274 set->list;
#X obj 165 274 set->list @sort;
#X obj 50 302 ui.dt;
#X obj 165 302 ui.dt;
#X obj 20 352 cnv 1 745 1 empty empty empty 17 7 0 10 -203890 -1 0;
#X obj 20 357 cnv 5 98 25 empty empty properties: 4 12 0 14 -262144
-49933 0;
#X obj 735 360 ui.link @background_color 0.98039 0.98039 0.98039
@title [?] @url ceammc.props-info.pd;
#X msg 110 392 @sort;
#X text 245 392 if specified - sort output list. Default value: 0\.;
#X obj 20 432 cnv 1 745 1 empty empty empty 17 7 0 10 -203890 -1 0;
#X obj 20 437 cnv 5 64 25 empty empty inlets: 4 12 0 14 -262144 -49933
0;
#X text 110 438 1\.;
#X text 245 438 input set.;
#X obj 20 468 cnv 1 745 1 empty empty empty 17 7 0 10 -203890 -1 0;
#X obj 20 473 cnv 5 73 25 empty empty outlets: 4 12 0 14 -262144
-49933 0;
#X text 110 474 1\.;
#X text 245 474 output list.;
#X obj 10 48 ui.link @title index @url ../index-help.pd;
#X text 51 45 ::;
#X obj 68 48 ui.link @title ceammc @url ceammc-help.pd;
#X text 116 45 ::;
#X obj 133 48 ui.link @title data @url ceammc.data-help.pd;
#X obj 1 524 cnv 5 765 48 empty empty empty 17 7 0 10 -203890 -1 0;
#X text 10 527 library: ceammc v0.9.7;
#X text 607 539 see also:;
#X obj 682 539 data.set;
#N canvas 10 546 400 290 info 0;
#X obj 1 1 cnv 1 107 287 empty empty empty 17 7 0 10 -183085 -1 0;
#X text 10 10 library:;
#X text 120 10 ceammc;
#X text 10 32 version:;
#X text 120 32 0.9.7;
#X text 10 54 object:;
#X text 120 54 data.set2list;
#X text 10 76 category:;
#X text 120 76 data;
#X text 10 98 since:;
#X text 120 98 0.3;
#X text 10 120 authors:;
#X text 120 120 Serge Poltavsky;
#X text 10 142 license:;
#X text 120 142 GPL3 or later;
#X text 10 164 keywords:;
#X text 120 164 data \, set \, list;
#X text 10 186 website:;
#X obj 120 189 ui.link @title https://github.com/uliss/pd-ceammc @url
https://github.com/uliss/pd-ceammc;
#X obj 120 208 declare -lib ceammc;
#X obj 120 268 cnv 1 270 1 empty empty empty 17 7 0 10 -203890 -1 0;
#X text 120 268 generated by pddoc;
#X restore 10 546 pd info;
#X connect 8 0 12 0;
#X connect 9 0 12 0;
#X connect 10 0 12 0;
#X connect 11 0 12 0;
#X connect 12 0 13 0;
#X connect 12 0 14 0;
#X connect 13 0 15 0;
#X connect 14 0 16 0;