#N canvas 0 0 785 555 12;
#X declare -lib ceammc;
#X obj 630 50 cnv 1 135 23 empty empty empty 17 7 0 10 -245760 -1 0;
#X text 630 50 robust int object;
#X obj 1 1 cnv 5 765 40 empty empty data.int 20 20 0 20 -104026 -4096
0;
#X obj 587 11 .int;
#X obj 640 11 .i;
#X obj 682 11 data.int;
#X floatatom 50 118 5 0 0 0 - - -;
#X msg 69 147 + 1 \, bang;
#X msg 203 147 - 10 \, bang;
#X msg 88 176 * 2 \, bang;
#X msg 222 176 / 3;
#X msg 107 205 bang;
#X floatatom 251 205 5 0 0 0 - - -;
#X obj 50 234 .int 100;
#X floatatom 50 262 5 0 0 0 - - -;
#X obj 20 294 cnv 1 745 1 empty empty empty 17 7 0 10 -203890 -1 0;
#X obj 20 299 cnv 5 90 25 empty empty arguments: 4 12 0 14 -262144
-49933 0;
#X obj 735 302 ui.link @background_color 0.98039 0.98039 0.98039
@title [?] @url ceammc.args-info.pd;
#X text 110 334 1\.;
#X text 150 334 int;
#X obj 246 335 cnv 1 48 20 empty empty empty 17 7 0 10 -245695 -1 0;
#X text 245 334 VALUE: set initial value. Type: int.;
#X obj 20 364 cnv 1 745 1 empty empty empty 17 7 0 10 -203890 -1 0;
#X obj 20 369 cnv 5 98 25 empty empty properties: 4 12 0 14 -262144
-49933 0;
#X obj 735 372 ui.link @background_color 0.98039 0.98039 0.98039
@title [?] @url ceammc.props-info.pd;
#X msg 110 404 @value?;
#X text 245 404 (readonly) Get current value. Type: int. Default value:
0\.;
#X obj 20 444 cnv 1 745 1 empty empty empty 17 7 0 10 -203890 -1 0;
#X obj 20 449 cnv 5 73 25 empty empty methods: 4 12 0 14 -262144
-49933 0;
#X msg 110 484 set;
#X text 245 484 sets new value without output.;
#X msg 110 512 *;
#X text 245 512 multiply to \, no output.;
#X msg 110 540 +;
#X text 245 540 add to int \, no output.;
#X msg 110 568 -;
#X text 245 568 subtract from int \, no output.;
#X msg 110 596 /;
#X text 245 596 divide by \, no output.;
#X obj 20 634 cnv 1 745 1 empty empty empty 17 7 0 10 -203890 -1 0;
#X obj 20 639 cnv 5 64 25 empty empty inlets: 4 12 0 14 -262144 -49933
0;
#X text 110 640 1\.;
#X text 150 640 *bang*;
#X text 245 640 output value.;
#X text 150 660 *float*;
#X text 245 660 set new value and outputs.;
#X text 110 680 2\.;
#X text 245 680 set new value without output.;
#X obj 20 710 cnv 1 745 1 empty empty empty 17 7 0 10 -203890 -1 0;
#X obj 20 715 cnv 5 73 25 empty empty outlets: 4 12 0 14 -262144
-49933 0;
#X text 110 716 1\.;
#X text 245 716 set output.;
#X obj 10 48 ui.link @title index @url ../index-help.pd;
#X text 51 45 ::;
#X obj 68 48 ui.link @title ceammc @url ceammc-help.pd;
#X text 116 45 ::;
#X obj 133 48 ui.link @title data @url ceammc.data-help.pd;
#X obj 1 766 cnv 5 765 48 empty empty empty 17 7 0 10 -203890 -1 0;
#X text 10 769 library: ceammc v0.9.7;
#X text 592 781 see also:;
#X obj 667 781 data.float;
#N canvas 10 788 400 290 info 0;
#X obj 1 1 cnv 1 107 287 empty empty empty 17 7 0 10 -183085 -1 0;
#X text 10 10 library:;
#X text 120 10 ceammc;
#X text 10 32 version:;
#X text 120 32 0.9.7;
#X text 10 54 object:;
#X text 120 54 data.int;
#X text 10 76 category:;
#X text 120 76 data;
#X text 10 98 since:;
#X text 120 98 0.6;
#X text 10 120 authors:;
#X text 120 120 Serge Poltavsky;
#X text 10 142 license:;
#X text 120 142 GPL3 or later;
#X text 10 164 keywords:;
#X text 120 164 data \, int;
#X text 10 186 website:;
#X obj 120 189 ui.link @title https://github.com/uliss/pd-ceammc @url
https://github.com/uliss/pd-ceammc;
#X obj 120 208 declare -lib ceammc;
#X obj 120 268 cnv 1 270 1 empty empty empty 17 7 0 10 -203890 -1 0;
#X text 120 268 generated by pddoc;
#X restore 10 788 pd info;
#X connect 6 0 13 0;
#X connect 7 0 13 0;
#X connect 9 0 13 0;
#X connect 11 0 13 0;
#X connect 8 0 13 0;
#X connect 10 0 13 0;
#X connect 12 0 13 1;
#X connect 13 0 14 0;