#N canvas 0 0 568 201 12;
#X floatatom 183 48 5 0 0 0 - - -;
#X msg 58 77 pop;
#X msg 125 77 1 2;
#X msg 183 77 resize \$1;
#X msg 308 92 @size?;
#X msg 394 92 @free?;
#X msg 480 92 @filled?;
#X floatatom 20 106 5 0 0 0 - - -;
#X obj 87 106 bng 15 250 50 0 empty empty empty 17 7 0 10 -262144 -1
-1;
#X msg 144 106 clear;
#X msg 240 106 flush;
#X obj 20 135 data.fifo 5;
#X obj 20 164 prepend set;
#X obj 183 164 print;
#X msg 20 192 ;
#X connect 11 0 13 0;
#X connect 8 0 11 0;
#X connect 9 0 11 0;
#X connect 2 0 11 0;
#X connect 3 0 11 0;
#X connect 1 0 11 0;
#X connect 4 0 11 0;
#X connect 5 0 11 0;
#X connect 0 0 3 0;
#X connect 10 0 11 0;
#X connect 11 0 12 0;
#X connect 6 0 11 0;
#X connect 7 0 11 0;
#X connect 12 0 14 0;
