#N canvas 0 0 785 555 12;
#X declare -lib ceammc;
#X obj 545 50 cnv 1 220 23 empty empty empty 17 7 0 10 -245760 -1 0;
#X text 545 50 creates dictionary from list;
#X obj 1 1 cnv 5 765 40 empty empty dict.from_list 20 20 0 20 -104026
-4096 0;
#X obj 393 11 ceammc/list->dict;
#X obj 541 11 list->dict;
#X obj 638 11 dict.from_list;
#X obj 210 80 cnv 1 555 65 empty empty empty 17 7 0 10 -257983 -1 0;
#X text 215 80 Convertion depends on property @step \, which means
a length of key/value pair. First element of the pair becames a key
\, and other elements becames value.;
#X msg 50 173 list a b c d e f g h j k;
#X obj 50 231 list->dict;
#X obj 309 231 list->dict 3;
#X obj 50 260 ui.d;
#X obj 309 260 ui.d;
#X obj 20 310 cnv 1 745 1 empty empty empty 17 7 0 10 -203890 -1 0;
#X obj 20 315 cnv 5 90 25 empty empty arguments: 4 10 0 14 -262144
-49933 0;
#X text 110 350 1\.;
#X text 150 350 int;
#X obj 246 351 cnv 1 39 20 empty empty empty 17 7 0 10 -245695 -1 0;
#X text 245 350 STEP: key/value length in input list. Type: int. Min
value: 2;
#X obj 20 380 cnv 1 745 1 empty empty empty 17 7 0 10 -203890 -1 0;
#X obj 20 385 cnv 5 98 25 empty empty properties: 4 10 0 14 -262144
-49933 0;
#X msg 110 420 @step;
#X text 245 420 Get/Set key/value length in input list. Type: int.
Default value: 2\. Min value: 2\.;
#X obj 20 472 cnv 1 745 1 empty empty empty 17 7 0 10 -203890 -1 0;
#X obj 20 477 cnv 5 64 25 empty empty inlets: 4 10 0 14 -262144 -49933
0;
#X text 110 478 1\.;
#X text 245 478 input.;
#X obj 20 508 cnv 1 745 1 empty empty empty 17 7 0 10 -203890 -1 0;
#X obj 20 513 cnv 5 73 25 empty empty outlets: 4 10 0 14 -262144
-49933 0;
#X text 110 514 1\.;
#X text 245 514 dict output.;
#X obj 10 48 ui.link @title index @url ../index-help.pd;
#X text 51 45 ::;
#X obj 68 48 ui.link @title ceammc @url ceammc-help.pd;
#X text 116 45 ::;
#X obj 133 48 ui.link @title data @url ceammc.data-help.pd;
#X obj 1 564 cnv 5 765 48 empty empty empty 17 7 0 10 -203890 -1 0;
#X text 10 567 library: ceammc v0.9.7;
#X text 599 579 see also:;
#X obj 674 579 data.dict;
#N canvas 10 586 400 290 info 0;
#X obj 1 1 cnv 1 107 287 empty empty empty 17 7 0 10 -183085 -1 0;
#X text 10 10 library:;
#X text 120 10 ceammc;
#X text 10 32 version:;
#X text 120 32 0.9.7;
#X text 10 54 object:;
#X text 120 54 dict.from_list;
#X text 10 76 category:;
#X text 120 76 data;
#X text 10 98 since:;
#X text 120 98 0.7;
#X text 10 120 authors:;
#X text 120 120 Serge Poltavsky;
#X text 10 142 license:;
#X text 120 142 GPL3 or later;
#X text 10 164 keywords:;
#X text 120 164 dictionary;
#X text 10 186 website:;
#X obj 120 189 ui.link @title https://github.com/uliss/pd-ceammc @url
https://github.com/uliss/pd-ceammc;
#X obj 120 208 declare -lib ceammc;
#X obj 120 268 cnv 1 270 1 empty empty empty 17 7 0 10 -203890 -1 0;
#X text 120 268 generated by pddoc;
#X restore 10 586 pd info;
#X connect 8 0 9 0;
#X connect 8 0 10 0;
#X connect 9 0 11 0;
#X connect 10 0 12 0;