#N canvas 0 0 785 555 12;
#X declare -lib ceammc;
#X obj 575 50 cnv 1 190 23 empty empty empty 17 7 0 10 -245760 -1 0;
#X text 575 50 mono 1176LN Peak Limiter;
#X obj 1 1 cnv 5 765 40 empty empty dyn.limit~ 20 20 0 20 -104026
-4096 0;
#X obj 667 11 dyn.limit~;
#X obj 210 80 cnv 1 555 33 empty empty empty 17 7 0 10 -257983 -1 0;
#X obj 215 80 ui.link @background_color 0.98039 0.98039 0.98039 @title
1176 Peak Limiter @url
https://en.wikipedia.org/wiki/1176_Peak_Limiter;
#X obj 50 141 osc~ 440;
#X floatatom 165 141 5 0 0 0 - - -;
#X obj 50 170 *~;
#X obj 69 199 env~;
#X floatatom 69 228 5 0 0 0 - - -;
#X obj 50 257 dyn.limit~;
#X obj 50 285 env~;
#X floatatom 50 314 5 0 0 0 - - -;
#X obj 20 363 cnv 1 745 1 empty empty empty 17 7 0 10 -203890 -1 0;
#X obj 20 368 cnv 5 98 26 empty empty properties: 4 10 0 14 -262144
-49933 0;
#X msg 110 403 @active;
#X text 245 403 Turn on/off dsp processing. Type: bool. Default value:
1\.;
#X obj 20 442 cnv 1 745 1 empty empty empty 17 7 0 10 -203890 -1 0;
#X obj 20 447 cnv 5 73 26 empty empty methods: 4 10 0 14 -262144
-49933 0;
#X msg 110 482 reset;
#X text 245 482 reset to initial state.;
#X obj 20 519 cnv 1 745 1 empty empty empty 17 7 0 10 -203890 -1 0;
#X obj 20 524 cnv 5 64 26 empty empty inlets: 4 10 0 14 -262144 -49933
0;
#X text 110 525 1\.;
#X text 245 525 input signal.;
#X obj 20 555 cnv 1 745 1 empty empty empty 17 7 0 10 -203890 -1 0;
#X obj 20 560 cnv 5 73 26 empty empty outlets: 4 10 0 14 -262144
-49933 0;
#X text 110 561 1\.;
#X text 245 561 output signal.;
#X obj 10 48 ui.link @title index @url ../index-help.pd;
#X text 51 45 ::;
#X obj 67 48 ui.link @title ceammc @url ceammc-help.pd;
#X text 115 45 ::;
#X obj 131 48 ui.link @title dyn @url ceammc.dyn-help.pd;
#X obj 1 611 cnv 5 765 48 empty empty empty 17 7 0 10 -203890 -1 0;
#X text 10 614 library: ceammc v0.9.7;
#X text 504 626 see also:;
#X obj 578 626 dyn.limit2~;
#X obj 674 626 dyn.comp~;
#N canvas 10 633 400 290 info 0;
#X obj 1 1 cnv 1 107 287 empty empty empty 17 7 0 10 -183085 -1 0;
#X text 10 10 library:;
#X text 120 10 ceammc;
#X text 10 32 version:;
#X text 120 32 0.9.7;
#X text 10 54 object:;
#X text 120 54 dyn.limit~;
#X text 10 76 category:;
#X text 120 76 dyn;
#X text 10 98 since:;
#X text 120 98 0.1;
#X text 10 120 authors:;
#X text 120 120 Alex Nadzharov \, Serge Poltavsky;
#X text 10 142 license:;
#X text 120 142 GPL3 or later;
#X text 10 164 keywords:;
#X text 120 164 limiter;
#X text 10 186 website:;
#X obj 120 189 ui.link @title https://github.com/uliss/pure-data @url
https://github.com/uliss/pure-data;
#X obj 120 208 declare -lib ceammc;
#X obj 120 268 cnv 1 270 1 empty empty empty 17 7 0 10 -203890 -1 0;
#X text 120 268 generated by pddoc;
#X restore 10 633 pd info;
#X connect 6 0 8 0;
#X connect 7 0 8 1;
#X connect 8 0 9 0;
#X connect 9 0 10 0;
#X connect 8 0 11 0;
#X connect 11 0 12 0;
#X connect 12 0 13 0;