#N canvas 0 0 372 187 12;
#X obj 20 48 osc~ 220;
#X floatatom 125 48 5 0 0 0 - - -;
#X obj 212 48 osc~ 220;
#X floatatom 317 48 5 0 0 0 - - -;
#X obj 20 77 *~;
#X obj 212 77 *~;
#X obj 20 106 dyn.softclip~;
#X obj 212 106 clip~ -1 1;
#X obj 77 120 tgl 15 0 empty empty empty 17 7 0 10 -262144 -1 -1 0 1;
#X obj 279 120 tgl 15 0 empty empty empty 17 7 0 10 -262144 -1 -1 0 1;
#X obj 20 149 *~;
#X obj 212 149 *~;
#X obj 20 178 dac~;
#X obj 212 178 dac~;
#X connect 11 0 13 1;
#X connect 11 0 13 0;
#X connect 9 0 11 1;
#X connect 10 0 12 1;
#X connect 1 0 4 1;
#X connect 5 0 7 0;
#X connect 2 0 5 0;
#X connect 8 0 10 1;
#X connect 6 0 10 0;
#X connect 7 0 11 0;
#X connect 0 0 4 0;
#X connect 4 0 6 0;
#X connect 3 0 5 1;
#X connect 10 0 12 0;
