#N canvas 0 0 785 555 12;
#X declare -lib ceammc;
#X obj 530 50 cnv 1 235 23 empty empty empty 17 7 0 10 -245760 -1 0;
#X text 530 50 mono dynamic range compressors;
#X obj 1 1 cnv 5 765 40 empty empty dyn.comp~ 20 20 0 20 -104026 -4096
0;
#X obj 674 11 dyn.comp~;
#X obj 210 80 cnv 1 555 33 empty empty empty 17 7 0 10 -257983 -1 0;
#X obj 215 80 ui.link @background_color 0.98039 0.98039 0.98039 @title
Dynamic range             compression @url
https://en.wikipedia.org/wiki/Dynamic_range_compression;
#X obj 50 141 ui.hsl -60 20 @show_value 1;
#X obj 338 141 ui.dsp~;
#X obj 50 170 dbfs->amp;
#X obj 50 199 sig~;
#X obj 146 199 ui.hsl 1 16 @show_value 1;
#X obj 280 199 ui.hsl -60 0 @show_value 1;
#X msg 146 242 @ratio \$1;
#X msg 280 242 @threshold \$1;
#X obj 50 285 dyn.comp~ 3 -60 10 100;
#X obj 50 314 env~;
#X obj 203 314 ui.hsl @active_scale 1;
#X obj 50 343 - 100;
#X floatatom 50 372 5 0 0 0 - - -;
#X obj 20 421 cnv 1 745 1 empty empty empty 17 7 0 10 -203890 -1 0;
#X obj 20 426 cnv 5 90 26 empty empty arguments: 4 10 0 14 -262144
-49933 0;
#X text 110 461 1\.;
#X text 150 461 float;
#X obj 246 462 cnv 1 47 20 empty empty empty 17 7 0 10 -245695 -1 0;
#X text 245 461 RATIO: compression ratio (1 = no compression \, >1
means compression). Type: float. Range: 1\...16;
#X text 110 496 2\.;
#X text 150 496 float;
#X obj 246 497 cnv 1 108 20 empty empty empty 17 7 0 10 -245695 -1 0;
#X text 245 496 THRESHOLD(db): level threshold above which compression
kicks in. Type: float. Range: -90\...0;
#X text 110 531 3\.;
#X text 150 531 float;
#X obj 246 532 cnv 1 85 20 empty empty empty 17 7 0 10 -245695 -1 0;
#X text 245 531 ATTACK(ms): attack time = time constant when level
& compression going up. Type: float. Range: 0.1\...100;
#X text 110 566 4\.;
#X text 150 566 float;
#X obj 246 567 cnv 1 92 20 empty empty empty 17 7 0 10 -245695 -1 0;
#X text 245 566 RELEASE(ms): release time = time constant coming out
of compression. Type: float. Range: 1\...500;
#X obj 20 611 cnv 1 745 1 empty empty empty 17 7 0 10 -203890 -1 0;
#X obj 20 616 cnv 5 98 26 empty empty properties: 4 10 0 14 -262144
-49933 0;
#X msg 110 651 @id;
#X text 245 651 (initonly) Get/Set OSC address id. If specified \,
bind properties to /ID/dyn_comp/PROP_NAME osc address \, if empty bind
to /dyn_comp/PROP_NAME. Type: symbol.;
#X msg 110 708 @osc;
#X text 245 708 (initonly) Get/Set OSC server name to listen. Type:
symbol.;
#X msg 110 737 @active;
#X text 245 737 Turn on/off dsp processing. Type: bool. Default value:
1\.;
#X msg 110 766 @attack;
#X text 245 766 Get/Set time constant when level & compression going
up. Type: float. Units: ms. Default value: 10\. Range: 0.1\...100\.;
#X msg 110 823 @bypass;
#X text 245 823 Get/Set bypass flag. If true: bypass 'effected' signal.
Type: bool. Default value: 0\.;
#X msg 110 865 @gain;
#X text 245 865 Get/Set make up gain: applied to the signal after the
compression takes place. Type: float. Units: db. Default value: 0\.
Range: -18\...18\.;
#X msg 110 922 @ratio;
#X text 245 922 Get/Set compression ratio (1 = no compression \, >1
means compression). Type: float. Default value: 1\. Range: 1\...16\.;
#X msg 110 979 @refresh;
#X text 245 979 Get/Set compression level output time interval. If
0 - no output. Type: int. Units: ms. Default value: 100\. Range: 0\...1000\.;
#X msg 110 1036 @release;
#X text 245 1036 Get/Set release time = time constant coming out of
compression. Type: float. Units: ms. Default value: 50\. Range: 1\...500\.;
#X msg 110 1093 @threshold;
#X text 245 1093 Get/Set level threshold above which compression kicks
in (100 dB = max level). Type: float. Units: db. Default value: -10\.
Range: -90\...0\.;
#X msg 110 1150 @level?;
#X text 245 1150 (readonly) Get current level of compression. Type:
float. Default value: 0\. Range: 0\...1\.;
#X obj 20 1202 cnv 1 745 1 empty empty empty 17 7 0 10 -203890 -1 0;
#X obj 20 1207 cnv 5 73 26 empty empty methods: 4 10 0 14 -262144
-49933 0;
#X msg 110 1242 preset;
#X text 245 1242 choose predefined preset. Arguments are:;
#X obj 255 1265 cnv 1 52 23 empty empty empty 17 7 0 10 -245695 -1 0;
#X text 255 1265 PRESET: name. Type: symbol. Allowed values: vocal
\, drums \, bass \, strings.;
#X msg 110 1305 reset;
#X text 245 1305 reset to initial state.;
#X obj 20 1342 cnv 1 745 1 empty empty empty 17 7 0 10 -203890 -1 0;
#X obj 20 1347 cnv 5 64 26 empty empty inlets: 4 10 0 14 -262144
-49933 0;
#X text 110 1348 1\.;
#X text 245 1348 input signal.;
#X obj 20 1378 cnv 1 745 1 empty empty empty 17 7 0 10 -203890 -1 0;
#X obj 20 1383 cnv 5 73 26 empty empty outlets: 4 10 0 14 -262144
-49933 0;
#X text 110 1384 1\.;
#X text 245 1384 output compressed signal.;
#X text 110 1404 2\.;
#X text 245 1404 float: output current compression level in [0\..1].;
#X obj 10 48 ui.link @title index @url ../index-help.pd;
#X text 51 45 ::;
#X obj 67 48 ui.link @title ceammc @url ceammc-help.pd;
#X text 115 45 ::;
#X obj 131 48 ui.link @title dyn @url ceammc.dyn-help.pd;
#X obj 1 1454 cnv 5 765 48 empty empty empty 17 7 0 10 -203890 -1 0;
#X text 10 1457 library: ceammc v0.9.6;
#X text 593 1469 see also:;
#X obj 667 1469 dyn.comp2~;
#N canvas 10 1476 400 290 info 0;
#X obj 1 1 cnv 1 107 287 empty empty empty 17 7 0 10 -183085 -1 0;
#X text 10 10 library:;
#X text 120 10 ceammc;
#X text 10 32 version:;
#X text 120 32 0.9.6;
#X text 10 54 object:;
#X text 120 54 dyn.comp~;
#X text 10 76 category:;
#X text 120 76 dyn;
#X text 10 98 since:;
#X text 120 98 0.1;
#X text 10 120 authors:;
#X text 120 120 Alex Nadzharov \, Serge Poltavsky;
#X text 10 142 license:;
#X text 120 142 GPL3 or later;
#X text 10 164 keywords:;
#X text 120 164 compressor;
#X text 10 186 website:;
#X obj 120 189 ui.link @title https://github.com/uliss/pure-data @url
https://github.com/uliss/pure-data;
#X obj 120 208 declare -lib ceammc;
#X obj 120 268 cnv 1 270 1 empty empty empty 17 7 0 10 -203890 -1 0;
#X text 120 268 generated by pddoc;
#X restore 10 1476 pd info;
#X connect 6 0 8 0;
#X connect 8 0 9 0;
#X connect 10 0 12 0;
#X connect 11 0 13 0;
#X connect 9 0 14 0;
#X connect 12 0 14 0;
#X connect 13 0 14 0;
#X connect 14 0 15 0;
#X connect 14 1 16 0;
#X connect 15 0 17 0;
#X connect 17 0 18 0;