#N canvas 0 0 270 187 12;
#X obj 20 48 osc~ 440;
#X floatatom 125 48 5 0 0 0 - - -;
#X obj 77 77 dbtorms;
#X floatatom 154 92 5 0 0 0 - - -;
#X obj 20 106 *~;
#X obj 68 120 bng 15 250 50 0 empty empty empty 17 7 0 10 -262144 -1
-1;
#X msg 154 120 threshold \$1;
#X obj 20 149 dyn.gate~ 90 id;
#X obj 20 178 dac~;
#X obj 116 178 print;
#X connect 3 0 6 0;
#X connect 7 1 9 0;
#X connect 5 0 7 0;
#X connect 2 0 4 1;
#X connect 6 0 7 0;
#X connect 7 0 8 1;
#X connect 4 0 7 0;
#X connect 1 0 2 0;
#X connect 0 0 4 0;
#X connect 7 0 8 0;
