#N canvas 0 0 347 187 12;
#X obj 20 48 lfo.impulse~ 10;
#X obj 192 48 tgl 15 0 empty empty empty 17 7 0 10 -262144 -1 -1 0 1;
#X obj 20 77 *~;
#X floatatom 116 92 5 0 0 0 - - -;
#X floatatom 231 92 5 0 0 0 - - -;
#X obj 20 106 *~ 4;
#X obj 58 120 bng 15 250 50 0 empty empty empty 17 7 0 10 -262144 -1
-1;
#X msg 116 120 ratio \$1;
#X msg 231 120 threshold \$1;
#X obj 20 149 dyn.comp~ 3 40 10 100 id;
#X obj 20 178 dac~;
#X obj 183 178 print;
#X connect 5 0 9 0;
#X connect 8 0 9 0;
#X connect 2 0 5 0;
#X connect 3 0 7 0;
#X connect 4 0 8 0;
#X connect 1 0 2 1;
#X connect 6 0 9 0;
#X connect 9 1 11 0;
#X connect 9 0 10 0;
#X connect 9 0 10 1;
#X connect 0 0 2 0;
#X connect 7 0 9 0;
