#N canvas 0 0 190 201 12;
#X obj 20 48 osc~ 440;
#X floatatom 135 48 5 0 0 0 - - -;
#X obj 20 77 *~;
#X obj 39 106 env~;
#X floatatom 39 135 5 0 0 0 - - -;
#X obj 20 164 dyn.limit~ id;
#X obj 20 192 dac~;
#X connect 3 0 4 0;
#X connect 2 0 5 0;
#X connect 5 0 6 1;
#X connect 5 0 6 0;
#X connect 1 0 2 1;
#X connect 2 0 3 0;
#X connect 0 0 2 0;
