#N canvas 0 0 785 555 12;
#X declare -lib ceammc;
#X obj 392 50 cnv 1 373 23 empty empty empty 17 7 0 10 -245760 -1 0;
#X text 392 50 stereo Attack/Sustain/Release envelope generator;
#X obj 1 1 cnv 5 765 40 empty empty env.asr2~ 20 20 0 20 -104026 -4096
0;
#X obj 674 11 env.asr2~;
#X obj 50 118 osc~ 440;
#X obj 155 118 osc~ 1000;
#X obj 270 118 tgl 15 0 empty empty empty 17 7 0 10 -262144 -1 -1 0 1;
#X obj 50 147 env.asr2~ 1000 100 1000;
#X obj 242 176 tgl 15 0 empty empty empty 17 7 0 10 -262144 -1 -1 0 1;
#X obj 50 205 ui.hgain2~;
#X obj 242 205 ui.dsp~;
#X obj 50 234 dac~;
#X obj 20 283 cnv 1 745 1 empty empty empty 17 7 0 10 -203890 -1 0;
#X obj 20 288 cnv 5 90 26 empty empty arguments: 4 10 0 14 -262144
-49933 0;
#X text 110 323 1\.;
#X text 150 323 float;
#X obj 246 324 cnv 1 85 20 empty empty empty 17 7 0 10 -245695 -1 0;
#X text 245 323 ATTACK(ms): attack time. Type: float. Range: 0\...100000;
#X text 110 343 2\.;
#X text 150 343 float;
#X obj 246 344 cnv 1 85 20 empty empty empty 17 7 0 10 -245695 -1 0;
#X text 245 343 SUSTAIN(%): sustain level (percentage of trigger).
Type: float. Range: 0\...100;
#X text 110 378 3\.;
#X text 150 378 float;
#X obj 246 379 cnv 1 92 20 empty empty empty 17 7 0 10 -245695 -1 0;
#X text 245 378 RELEASE(ms): release time. Type: float. Range: 0\...100000;
#X obj 20 408 cnv 1 745 1 empty empty empty 17 7 0 10 -203890 -1 0;
#X obj 20 413 cnv 5 98 26 empty empty properties: 4 10 0 14 -262144
-49933 0;
#X msg 110 448 @id;
#X text 245 448 (initonly) Get/Set OSC address id. If specified \,
bind all properties to /ID/env_asr2/PROP_NAME osc address \, if empty
bind to /env_asr2/PROP_NAME. Type: symbol.;
#X msg 110 505 @osc;
#X text 245 505 (initonly) Get/Set OSC server name to listen. Type:
symbol.;
#X msg 110 534 @active;
#X text 245 534 Turn on/off dsp processing. Type: bool. Default value:
1\.;
#X msg 110 563 @attack;
#X text 245 563 Get/Set attack time. Type: float. Units: 'ms'. Default
value: 10\. Range: 0\...100000\.;
#X msg 110 605 @gate;
#X text 245 605 Get/Set trigger. If > 0 - starts envelope. Type: float.
Default value: 0\. Range: 0\...1\.;
#X msg 110 647 @release;
#X text 245 647 Get/Set release time. Type: float. Units: 'ms'. Default
value: 300\. Range: 0\...100000\.;
#X msg 110 689 @sustain;
#X text 245 689 Get/Set sustain level - percent from trigger signal.
Type: float. Units: '%'. Default value: 100\. Range: 0\...100\.;
#X msg 110 731 @asr?;
#X text 245 731 (readonly) Get attack sustain release triplet. Type:
list.;
#X obj 20 770 cnv 1 745 1 empty empty empty 17 7 0 10 -203890 -1 0;
#X obj 20 775 cnv 5 73 26 empty empty methods: 4 10 0 14 -262144
-49933 0;
#X msg 110 810 play;
#X text 245 810 runs envelope and release it after specified time.
Arguments are:;
#X obj 255 848 cnv 1 39 23 empty empty empty 17 7 0 10 -245695 -1 0;
#X text 255 848 [DUR]: duration. Type: float. Min value: 0\.;
#X msg 110 873 reset;
#X text 245 873 reset envelope to initial state.;
#X obj 20 910 cnv 1 745 1 empty empty empty 17 7 0 10 -203890 -1 0;
#X obj 20 915 cnv 5 64 26 empty empty inlets: 4 10 0 14 -262144 -49933
0;
#X text 110 916 1\.;
#X text 245 916 first input signal.;
#X text 150 936 *list*;
#X text 245 936 ATTACK \, SUSTAIN \, RELEASE values are expected.;
#X text 150 956 *data*;
#X text 245 956 Envelope data type.;
#X text 110 976 2\.;
#X text 245 976 second input signal.;
#X text 110 996 3\.;
#X text 150 996 *float*;
#X text 245 996 float: 1 - start envelope \, 0 - stop.;
#X obj 20 1026 cnv 1 745 1 empty empty empty 17 7 0 10 -203890 -1 0;
#X obj 20 1031 cnv 5 73 26 empty empty outlets: 4 10 0 14 -262144
-49933 0;
#X text 110 1032 1\.;
#X text 245 1032 first output signal with applied envelope.;
#X text 110 1052 2\.;
#X text 245 1052 second output signal with applied envelope.;
#X text 110 1072 3\.;
#X text 245 1072 outputs 1 when attack phase finished \, 0 - when release
phase finished.;
#X obj 10 48 ui.link @title index @url ../index-help.pd;
#X text 51 45 ::;
#X obj 67 48 ui.link @title ceammc @url ceammc-help.pd;
#X text 115 45 ::;
#X obj 131 48 ui.link @title env @url ceammc.env-help.pd;
#X obj 1 1137 cnv 5 765 48 empty empty empty 17 7 0 10 -203890 -1 0;
#X text 10 1140 library: ceammc v0.9.7;
#X text 533 1152 see also:;
#X obj 607 1152 env.adsr~;
#X obj 688 1152 env.ar~;
#N canvas 10 1159 400 290 info 0;
#X obj 1 1 cnv 1 107 287 empty empty empty 17 7 0 10 -183085 -1 0;
#X text 10 10 library:;
#X text 120 10 ceammc;
#X text 10 32 version:;
#X text 120 32 0.9.7;
#X text 10 54 object:;
#X text 120 54 env.asr2~;
#X text 10 76 category:;
#X text 120 76 env;
#X text 10 98 since:;
#X text 120 98 0.9.7;
#X text 10 120 authors:;
#X text 120 120 Serge Poltavsky;
#X text 10 142 license:;
#X text 120 142 GPL3 or later;
#X text 10 164 keywords:;
#X text 120 164 envelope \, asr \, stereo;
#X text 10 186 website:;
#X obj 120 189 ui.link @title https://github.com/uliss/pure-data @url
https://github.com/uliss/pure-data;
#X obj 120 208 declare -lib ceammc;
#X obj 120 268 cnv 1 270 1 empty empty empty 17 7 0 10 -203890 -1 0;
#X text 120 268 generated by pddoc;
#X restore 10 1159 pd info;
#X connect 4 0 7 0;
#X connect 5 0 7 1;
#X connect 6 0 7 2;
#X connect 7 2 8 0;
#X connect 7 0 9 0;
#X connect 7 1 9 1;
#X connect 9 0 11 0;
#X connect 9 1 11 1;