#N canvas 0 0 267 259 12;
#X obj 20 48 osc~ 440;
#X floatatom 125 48 5 0 0 0 - - -;
#X floatatom 173 63 5 0 0 0 - - -;
#X obj 39 77 dbtorms;
#X msg 173 92 attack \$1;
#X obj 20 106 *~;
#X obj 68 106 bng 15 250 50 0 empty empty empty 17 7 0 10 -262144 -1
-1;
#X obj 20 135 env.follow~ 50 200 id;
#X obj 116 164 tgl 15 0 empty empty empty 17 7 0 10 -262144 -1 -1 0 1;
#X obj 183 164 print;
#X obj 116 192 metro 30;
#X obj 20 221 snapshot~;
#X floatatom 20 250 5 0 0 0 - - -;
#X connect 7 1 9 0;
#X connect 0 0 5 0;
#X connect 5 0 7 0;
#X connect 2 0 4 0;
#X connect 6 0 7 0;
#X connect 1 0 3 0;
#X connect 8 0 10 0;
#X connect 4 0 7 0;
#X connect 10 0 11 0;
#X connect 11 0 12 0;
#X connect 7 0 11 0;
#X connect 3 0 5 1;
