#N canvas 0 0 263 173 12;
#X obj 20 48 osc~ 440;
#X obj 116 63 tgl 15 0 empty empty empty 17 7 0 10 -262144 -1 -1 0 1;
#X msg 116 92 trigger \$1;
#X obj 48 106 bng 15 250 50 0 empty empty empty 17 7 0 10 -262144 -1
-1;
#X obj 20 135 env.ar~ 500 2000 id;
#X obj 20 164 dac~;
#X obj 202 164 print;
#X connect 0 0 4 0;
#X connect 4 1 6 0;
#X connect 2 0 4 0;
#X connect 3 0 4 0;
#X connect 1 0 2 0;
#X connect 4 0 5 0;
#X connect 4 0 5 1;
