#N canvas 0 0 785 555 12;
#X declare -lib ceammc;
#X obj 637 50 cnv 1 128 23 empty empty empty 17 7 0 10 -245760 -1 0;
#X text 637 50 output file size;
#X obj 1 1 cnv 5 765 40 empty empty file.size 20 20 0 20 -104026 -4096
0;
#X obj 675 11 file.size;
#X obj 210 80 cnv 1 555 50 empty empty empty 17 7 0 10 -257983 -1 0;
#X text 215 80 Note: by default filesize request performed asynchronously
\, so there's a (usually) short delay between input and output;
#X msg 50 158 bang;
#X msg 165 158 symbol %CEAMMC%/guitar1.wav;
#X obj 50 187 openpanel;
#X obj 165 187 expand_env;
#X obj 50 216 file.size;
#X obj 50 245 ui.dt;
#X obj 20 294 cnv 1 745 1 empty empty empty 17 7 0 10 -203890 -1 0;
#X obj 20 299 cnv 5 98 26 empty empty properties: 4 10 0 14 -262144
-49933 0;
#X msg 110 334 @async;
#X text 245 334 Get/Set async mode. Type: bool. Default value: 1\.;
#X msg 110 363 @sync;
#X text 245 363 alias for @async 0\.;
#X obj 20 402 cnv 1 745 1 empty empty empty 17 7 0 10 -203890 -1 0;
#X obj 20 407 cnv 5 64 26 empty empty inlets: 4 10 0 14 -262144 -49933
0;
#X text 110 408 1\.;
#X text 150 408 *symbol*;
#X text 245 408 file path.;
#X text 150 428 *data:string*;
#X text 245 428 file path.;
#X obj 20 458 cnv 1 745 1 empty empty empty 17 7 0 10 -203890 -1 0;
#X obj 20 463 cnv 5 73 26 empty empty outlets: 4 10 0 14 -262144
-49933 0;
#X text 110 464 1\.;
#X text 245 464 float: size in bytes.;
#X obj 10 48 ui.link @title index @url ../index-help.pd;
#X text 51 45 ::;
#X obj 67 48 ui.link @title ceammc @url ceammc-help.pd;
#X text 115 45 ::;
#X obj 131 48 ui.link @title path @url ceammc.path-help.pd;
#X obj 1 514 cnv 5 765 48 empty empty empty 17 7 0 10 -203890 -1 0;
#X text 10 517 library: ceammc v0.9.7;
#N canvas 10 536 400 290 info 0;
#X obj 1 1 cnv 1 107 287 empty empty empty 17 7 0 10 -183085 -1 0;
#X text 10 10 library:;
#X text 120 10 ceammc;
#X text 10 32 version:;
#X text 120 32 0.9.7;
#X text 10 54 object:;
#X text 120 54 file.size;
#X text 10 76 category:;
#X text 120 76 path;
#X text 10 98 since:;
#X text 120 98 0.9.4;
#X text 10 120 authors:;
#X text 120 120 Serge Poltavsky;
#X text 10 142 license:;
#X text 120 142 GPL3 or later;
#X text 10 164 keywords:;
#X text 120 164 path \, file \, size;
#X text 10 186 website:;
#X obj 120 189 ui.link @title https://github.com/uliss/pure-data @url
https://github.com/uliss/pure-data;
#X obj 120 208 declare -lib ceammc;
#X obj 120 268 cnv 1 270 1 empty empty empty 17 7 0 10 -203890 -1 0;
#X text 120 268 generated by pddoc;
#X restore 10 536 pd info;
#X connect 6 0 8 0;
#X connect 7 0 9 0;
#X connect 8 0 10 0;
#X connect 9 0 10 0;
#X connect 10 0 11 0;