#N canvas 0 0 427 400 12;
#X obj 20 48 ui.keyboard 24 60;
#X obj 20 120 msg note;
#X msg 48 149 qlist;
#X msg 125 149 clear;
#X obj 20 178 flow.record @auto 1 @max 16;
#X msg 48 207 clear;
#X msg 125 207 bang;
#X obj 20 235 qlist;
#X obj 20 264 r note;
#X obj 20 293 print QLIST;
#X connect 0 0 1 0;
#X connect 1 0 4 0;
#X connect 2 0 4 1;
#X connect 3 0 4 1;
#X connect 4 0 7 0;
#X connect 5 0 7 0;
#X connect 6 0 7 0;
#X connect 8 0 9 0;
