#N canvas 0 0 500 357 12;
#X obj 20 48 tgl 15 0 empty empty empty 17 7 0 10 -262144 -1 -1 0 1;
#X floatatom 87 48 5 0 0 0 - - -;
#X obj 20 77 metro 150;
#X obj 20 106 random.i 43 80 @seed 1;
#X obj 20 135 mtof;
#X msg 221 135 fill 0 \, bang;
#X obj 20 164 flow.ring 4, f 29;
#X obj 20 192 osc~;
#X obj 87 192 osc~;
#X obj 154 192 osc~;
#X obj 221 192 osc~;
#X obj 20 221 pan.spread~ 4, f 29;
#X obj 288 221 ui.dsp~;
#X obj 20 250 ui.hgain2~ @size 15 206;
#X obj 20 279 fx.zita_rev1~ @drywet 0.4, f 29;
#X obj 20 308 dac~, f 29;
#X connect 0 0 2 0;
#X connect 1 0 2 1;
#X connect 2 0 3 0;
#X connect 3 0 4 0;
#X connect 4 0 6 0;
#X connect 5 0 6 1;
#X connect 6 0 7 0;
#X connect 6 1 8 0;
#X connect 6 2 9 0;
#X connect 6 3 10 0;
#X connect 7 0 11 0;
#X connect 8 0 11 1;
#X connect 9 0 11 2;
#X connect 10 0 11 3;
#X connect 11 0 13 0;
#X connect 11 1 13 1;
#X connect 13 0 14 0;
#X connect 13 1 14 1;
#X connect 14 0 15 0;
#X connect 14 1 15 1;
