#N canvas 0 0 785 555 12;
#X declare -lib ceammc;
#X obj 500 50 cnv 1 265 23 empty empty empty 17 7 0 10 -245760 -1 0;
#X text 500 50 separate audio and control streams;
#X obj 1 1 cnv 5 765 40 empty empty flow.tee~ 20 20 0 20 -104026 -4096
0;
#N canvas 576 11 250 400 aliases 0;
#X obj 30 40 ceammc/tee~;
#X obj 30 77 tee~;
#X obj 30 114 ceammc/~->;
#X obj 30 151 ~->;
#X restore 576 11 pd aliases;
#X obj 674 11 flow.tee~;
#X obj 50 118 osc~ 440;
#X obj 165 118 ui.dsp~;
#X obj 69 162 bng 15 250 50 0 empty empty empty 17 7 0 10 -262144 -1
-1;
#X msg 107 162 symbol A;
#X msg 213 162 list 1 2 3;
#X msg 338 162 @p 1;
#X obj 50 205 flow.tee~;
#X obj 117 234 ui.dt;
#X obj 50 262 ui.hgain~;
#X obj 50 291 dac~;
#X obj 20 340 cnv 1 745 1 empty empty empty 17 7 0 10 -203890 -1 0;
#X obj 20 345 cnv 5 64 26 empty empty inlets: 4 10 0 14 -262144 -49933
0;
#X text 110 346 1\.;
#X text 245 346 mixed stream.;
#X obj 20 376 cnv 1 745 1 empty empty empty 17 7 0 10 -203890 -1 0;
#X obj 20 381 cnv 5 73 26 empty empty outlets: 4 10 0 14 -262144
-49933 0;
#X text 110 382 1\.;
#X text 245 382 audio stream.;
#X text 110 402 2\.;
#X text 245 402 control stream.;
#X obj 10 48 ui.link @title index @url ../index-help.pd;
#X text 51 45 ::;
#X obj 67 48 ui.link @title ceammc @url ceammc-help.pd;
#X text 115 45 ::;
#X obj 131 48 ui.link @title flow @url ceammc.flow-help.pd;
#X obj 1 505 cnv 5 765 48 empty empty empty 17 7 0 10 -203890 -1 0;
#X text 10 508 library: ceammc v0.9.7;
#N canvas 10 527 400 290 info 0;
#X obj 1 1 cnv 1 107 287 empty empty empty 17 7 0 10 -183085 -1 0;
#X text 10 10 library:;
#X text 120 10 ceammc;
#X text 10 32 version:;
#X text 120 32 0.9.7;
#X text 10 54 object:;
#X text 120 54 flow.tee~;
#X text 10 76 category:;
#X text 120 76 flow;
#X text 10 98 since:;
#X text 120 98 0.4;
#X text 10 120 authors:;
#X text 120 120 Serge Poltavsky;
#X text 10 142 license:;
#X text 120 142 GPL3 or later;
#X text 10 164 keywords:;
#X text 120 164 flow \, tee \, separate;
#X text 10 186 website:;
#X obj 120 189 ui.link @title https://github.com/uliss/pure-data @url
https://github.com/uliss/pure-data;
#X obj 120 208 declare -lib ceammc;
#X obj 120 268 cnv 1 270 1 empty empty empty 17 7 0 10 -203890 -1 0;
#X text 120 268 generated by pddoc;
#X restore 10 527 pd info;
#X connect 5 0 11 0;
#X connect 7 0 11 0;
#X connect 8 0 11 0;
#X connect 9 0 11 0;
#X connect 10 0 11 0;
#X connect 11 1 12 0;
#X connect 11 0 13 0;
#X connect 13 0 14 0;
#X connect 13 0 14 1;