#N canvas 0 0 280 342 12;
#X obj 20 48 inlet;
#X obj 20 77 unpack f f;
#X obj 20 106 mtof;
#X obj 96 106 > 0;
#X obj 20 135 osc~;
#X msg 96 135 \$1 50;
#X obj 96 164 line~;
#X obj 20 192 *~;
#X obj 20 221 outlet~;
#X connect 0 0 1 0;
#X connect 1 0 2 0;
#X connect 1 1 3 0;
#X connect 2 0 4 0;
#X connect 3 0 5 0;
#X connect 5 0 6 0;
#X connect 4 0 7 0;
#X connect 6 0 7 1;
#X connect 7 0 8 0;
