#N canvas 0 0 316 342 12;
#X obj 20 48 ui.keyboard;
#X obj 20 120 msg note;
#X obj 39 149 ui.hsl 0.25 4 @show_value 1;
#X msg 39 178 @speed \$1;
#X obj 20 207 flow.record @auto 1 @max 4 @r -1;
#X obj 20 235 fluid~;
#X obj 192 235 ui.dsp~;
#X obj 20 264 ui.hgain2~;
#X obj 20 293 dac~;
#X connect 0 0 1 0;
#X connect 2 0 3 0;
#X connect 1 0 4 0;
#X connect 3 0 4 0;
#X connect 4 0 5 0;
#X connect 5 0 7 0;
#X connect 5 1 7 1;
#X connect 7 0 8 0;
#X connect 7 1 8 1;
