#N canvas 0 0 431 400 12;
#X msg 20 48 bang;
#X obj 20 77 random.i 60 90;
#X obj 20 106 mtof;
#X msg 20 135 @freq \$1;
#X obj 288 135 tgl 15 0 empty empty empty 17 7 0 10 -262144 -1 -1 0 1;
#X floatatom 336 135 5 0 0 0 - - -;
#X msg 48 164 stop;
#X msg 116 164 play;
#X msg 183 164 clear;
#X obj 288 164 metro 200;
#X obj 20 192 flow.rec @auto 1 @sync 1 @r -1;
#X obj 336 192 bng 15 250 50 0 empty empty empty 17 7 0 10 -262144 -1
-1;
#X obj 20 221 t b a;
#X obj 20 250 click~;
#X obj 20 279 flt.resonbp~;
#X obj 20 308 ui.hgain2~;
#X obj 20 336 dac~;
#X connect 0 0 1 0;
#X connect 1 0 2 0;
#X connect 2 0 3 0;
#X connect 4 0 9 0;
#X connect 5 0 9 1;
#X connect 3 0 10 0;
#X connect 6 0 10 1;
#X connect 7 0 10 1;
#X connect 8 0 10 1;
#X connect 9 0 10 1;
#X connect 9 0 11 0;
#X connect 10 0 12 0;
#X connect 12 0 13 0;
#X connect 13 0 14 0;
#X connect 12 1 14 0;
#X connect 14 0 15 0;
#X connect 14 0 15 1;
#X connect 15 0 16 0;
#X connect 15 1 16 1;
