#N canvas 0 0 785 555 12;
#X declare -lib ceammc;
#X obj 560 50 cnv 1 205 23 empty empty empty 17 7 0 10 -245760 -1 0;
#X text 560 50 control flow demultiplexer;
#X obj 1 1 cnv 5 765 40 empty empty flow.demultiplex 20 20 0 20
-104026 -4096 0;
#X obj 526 11 flow.demux;
#X obj 624 11 flow.demultiplex;
#X obj 210 80 cnv 1 555 50 empty empty empty 17 7 0 10 -257983 -1 0;
#X text 215 80 Note: you can get/set object properties only via prop.set/prop.get
objects;
#X floatatom 50 158 5 0 0 0 - - -;
#X obj 222 187 ui.radio @nitems 4;
#X obj 50 230 flow.demultiplex 4;
#X floatatom 50 259 5 0 0 0 - - -;
#X floatatom 98 259 5 0 0 0 - - -;
#X floatatom 155 259 5 0 0 0 - - -;
#X floatatom 213 259 5 0 0 0 - - -;
#X obj 20 308 cnv 1 745 1 empty empty empty 17 7 0 10 -203890 -1 0;
#X obj 20 313 cnv 5 90 26 empty empty arguments: 4 10 0 14 -262144
-49933 0;
#X text 110 348 1\.;
#X text 150 348 int;
#X obj 246 349 cnv 1 17 20 empty empty empty 17 7 0 10 -245695 -1 0;
#X text 245 348 N: number of outlets. Type: int. Range: 2\...24;
#X obj 20 378 cnv 1 745 1 empty empty empty 17 7 0 10 -203890 -1 0;
#X obj 20 383 cnv 5 98 26 empty empty properties: 4 10 0 14 -262144
-49933 0;
#X msg 110 418 @n;
#X text 245 418 (initonly) Get/Set number of outlets. Type: int. Default
value: 2\. Range: 2\...24\.;
#X msg 110 460 @index;
#X text 245 460 Get/Set current demultiplexer output index. Type: int.
Default value: 0\. Min value: 0\.;
#X obj 20 512 cnv 1 745 1 empty empty empty 17 7 0 10 -203890 -1 0;
#X obj 20 517 cnv 5 64 26 empty empty inlets: 4 10 0 14 -262144 -49933
0;
#X text 110 518 1\.;
#X text 150 518 *any*;
#X text 245 518 input flow inlet.;
#X text 110 538 2\.;
#X text 150 538 *int*;
#X text 245 538 output selector.;
#X obj 20 568 cnv 1 745 1 empty empty empty 17 7 0 10 -203890 -1 0;
#X obj 20 573 cnv 5 73 26 empty empty outlets: 4 10 0 14 -262144
-49933 0;
#X text 110 574 1\.;
#X text 245 574 demultiplexer first output.;
#X text 110 594 n.;
#X text 245 594 demultiplexer N-th output.;
#X obj 10 48 ui.link @title index @url ../index-help.pd;
#X text 51 45 ::;
#X obj 67 48 ui.link @title ceammc @url ceammc-help.pd;
#X text 115 45 ::;
#X obj 131 48 ui.link @title flow @url ceammc.flow-help.pd;
#X obj 1 644 cnv 5 765 48 empty empty empty 17 7 0 10 -203890 -1 0;
#X text 10 647 library: ceammc v0.9.7;
#X text 564 659 see also:;
#X obj 638 659 flow.multiplex;
#N canvas 10 666 400 290 info 0;
#X obj 1 1 cnv 1 107 287 empty empty empty 17 7 0 10 -183085 -1 0;
#X text 10 10 library:;
#X text 120 10 ceammc;
#X text 10 32 version:;
#X text 120 32 0.9.7;
#X text 10 54 object:;
#X text 120 54 flow.demultiplex;
#X text 10 76 category:;
#X text 120 76 flow;
#X text 10 98 since:;
#X text 120 98 0.6;
#X text 10 120 authors:;
#X text 120 120 Serge Poltavsky;
#X text 10 142 license:;
#X text 120 142 GPL3 or later;
#X text 10 164 keywords:;
#X text 120 164 demultiplex;
#X text 10 186 website:;
#X obj 120 189 ui.link @title https://github.com/uliss/pure-data @url
https://github.com/uliss/pure-data;
#X obj 120 208 declare -lib ceammc;
#X obj 120 268 cnv 1 270 1 empty empty empty 17 7 0 10 -203890 -1 0;
#X text 120 268 generated by pddoc;
#X restore 10 666 pd info;
#X connect 7 0 9 0;
#X connect 8 0 9 1;
#X connect 9 0 10 0;
#X connect 9 1 11 0;
#X connect 9 2 12 0;
#X connect 9 3 13 0;