#N canvas 0 0 785 555 12;
#X declare -lib ceammc;
#X obj 455 50 cnv 1 310 23 empty empty empty 17 7 0 10 -245760 -1 0;
#X text 455 50 numeric stream router \, like many [moses];
#X obj 1 1 cnv 5 765 40 empty empty flow.less 20 20 0 20 -104026 -4096
0;
#X obj 606 11 flow.<;
#X obj 675 11 flow.less;
#X obj 210 80 cnv 1 555 50 empty empty empty 17 7 0 10 -257983 -1 0;
#X text 215 80 Numbers thar are *less* then N-th argument are passed
to N-th inlet;
#X floatatom 50 158 5 0 0 0 - - -;
#X obj 50 216 flow.less 0 10 20 30;
#X floatatom 50 245 5 0 0 0 - - -;
#X floatatom 107 245 5 0 0 0 - - -;
#X floatatom 165 245 5 0 0 0 - - -;
#X floatatom 222 245 5 0 0 0 - - -;
#X floatatom 290 245 5 0 0 0 - - -;
#X obj 20 277 cnv 1 745 1 empty empty empty 17 7 0 10 -203890 -1 0;
#X obj 20 282 cnv 5 90 25 empty empty arguments: 4 12 0 14 -262144
-49933 0;
#X obj 735 285 ui.link @background_color 0.98039 0.98039 0.98039
@title [?] @url ceammc.args-info.pd;
#X text 110 317 1\.;
#X text 150 317 list;
#X obj 246 318 cnv 1 55 20 empty empty empty 17 7 0 10 -245695 -1 0;
#X text 245 317 VALUES: compare values: list of floats in ascending
order. Type: list.;
#X obj 20 362 cnv 1 745 1 empty empty empty 17 7 0 10 -203890 -1 0;
#X obj 20 367 cnv 5 98 25 empty empty properties: 4 12 0 14 -262144
-49933 0;
#X obj 735 370 ui.link @background_color 0.98039 0.98039 0.98039
@title [?] @url ceammc.props-info.pd;
#X msg 110 402 @values;
#X text 245 402 (initonly) Get/Set compare values: list of floats in
ascending order. Type: list.;
#X obj 20 454 cnv 1 745 1 empty empty empty 17 7 0 10 -203890 -1 0;
#X obj 20 459 cnv 5 64 25 empty empty inlets: 4 12 0 14 -262144 -49933
0;
#X text 110 460 1\.;
#X text 150 460 *float*;
#X text 245 460 input flow.;
#X obj 20 490 cnv 1 745 1 empty empty empty 17 7 0 10 -203890 -1 0;
#X obj 20 495 cnv 5 73 25 empty empty outlets: 4 12 0 14 -262144
-49933 0;
#X text 110 496 1\.;
#X text 245 496 numbers that are less then 1st argument.;
#X text 110 516 ....;
#X text 245 516 numbers that are less than ... argument.;
#X text 110 536 n.;
#X text 245 536 numbers that are less than N-th argument.;
#X text 110 556 n+1\.;
#X text 245 556 numbers that are greater or equal than last argument.;
#X obj 10 48 ui.link @title index @url ../index-help.pd;
#X text 51 45 ::;
#X obj 68 48 ui.link @title ceammc @url ceammc-help.pd;
#X text 116 45 ::;
#X obj 133 48 ui.link @title flow @url ceammc.flow-help.pd;
#X obj 1 606 cnv 5 765 48 empty empty empty 17 7 0 10 -203890 -1 0;
#X text 10 609 library: ceammc v0.9.7;
#X text 475 621 see also:;
#X obj 550 621 flow.greater;
#X obj 653 621 flow.less_eq;
#N canvas 10 628 400 290 info 0;
#X obj 1 1 cnv 1 107 287 empty empty empty 17 7 0 10 -183085 -1 0;
#X text 10 10 library:;
#X text 120 10 ceammc;
#X text 10 32 version:;
#X text 120 32 0.9.7;
#X text 10 54 object:;
#X text 120 54 flow.less;
#X text 10 76 category:;
#X text 120 76 flow;
#X text 10 98 since:;
#X text 120 98 0.4;
#X text 10 120 authors:;
#X text 120 120 Serge Poltavsky;
#X text 10 142 license:;
#X text 120 142 GPL3 or later;
#X text 10 164 keywords:;
#X text 120 164 gate;
#X text 10 186 website:;
#X obj 120 189 ui.link @title https://github.com/uliss/pd-ceammc @url
https://github.com/uliss/pd-ceammc;
#X obj 120 208 declare -lib ceammc;
#X obj 120 268 cnv 1 270 1 empty empty empty 17 7 0 10 -203890 -1 0;
#X text 120 268 generated by pddoc;
#X restore 10 628 pd info;
#X connect 7 0 8 0;
#X connect 8 0 9 0;
#X connect 8 1 10 0;
#X connect 8 2 11 0;
#X connect 8 3 12 0;
#X connect 8 4 13 0;