#N canvas 0 0 423 241 12;
#X msg 20 48 1 2;
#X msg 96 48 3 4;
#X msg 173 48 5 6;
#X obj 250 48 ui.hrd 3;
#X obj 20 77 flow.multiplex 3, f 30;
#X obj 20 106 ui.d @display_type 1;
#X connect 0 0 4 0;
#X connect 1 0 4 1;
#X connect 2 0 4 2;
#X connect 3 0 4 3;
#X connect 4 0 5 0;
