#N canvas 0 0 785 555 12;
#X declare -lib ceammc;
#X obj 575 50 cnv 1 190 23 empty empty empty 17 7 0 10 -245760 -1 0;
#X text 575 50 control flow multiplexer;
#X obj 1 1 cnv 5 765 40 empty empty flow.multiplex 20 20 0 20 -104026
-4096 0;
#X obj 554 11 flow.mux;
#X obj 638 11 flow.multiplex;
#X obj 50 118 ui.hrd @nitems 4 @label select;
#X obj 251 118 flow.multiplex.bang;
#X obj 50 147 prop.set @index;
#X obj 251 147 flow.multiplex.list;
#X obj 251 176 flow.multiplex.any;
#X floatatom 69 205 5 0 0 0 - - -;
#X floatatom 117 205 5 0 0 0 - - -;
#X floatatom 165 205 5 0 0 0 - - -;
#X obj 213 205 ui.hrd @nitems 4 @label select;
#X obj 50 234 flow.multiplex 3;
#X floatatom 50 262 5 0 0 0 - - -;
#X obj 20 294 cnv 1 745 1 empty empty empty 17 7 0 10 -203890 -1 0;
#X obj 20 299 cnv 5 90 25 empty empty arguments: 4 12 0 14 -262144
-49933 0;
#X obj 735 302 ui.link @background_color 0.98039 0.98039 0.98039
@title [?] @url ceammc.args-info.pd;
#X text 110 334 1\.;
#X text 150 334 int;
#X obj 246 335 cnv 1 17 20 empty empty empty 17 7 0 10 -245695 -1 0;
#X text 245 334 N: number of multiplexed inputs. Type: int. Range:
2\...24;
#X text 110 354 2\.;
#X text 150 354 int;
#X obj 246 355 cnv 1 47 20 empty empty empty 17 7 0 10 -245695 -1 0;
#X text 245 354 INDEX: default input index. Type: int. Range: 0\...23;
#X obj 20 384 cnv 1 745 1 empty empty empty 17 7 0 10 -203890 -1 0;
#X obj 20 389 cnv 5 98 25 empty empty properties: 4 12 0 14 -262144
-49933 0;
#X obj 735 392 ui.link @background_color 0.98039 0.98039 0.98039
@title [?] @url ceammc.props-info.pd;
#X msg 110 424 @index;
#X text 245 424 Get/Set input index \, can be set only with [prop.set]
object or via rightmost inlet. Type: int. Default value: 0\. Range:
0\...23\.;
#X obj 20 491 cnv 1 745 1 empty empty empty 17 7 0 10 -203890 -1 0;
#X obj 20 496 cnv 5 64 25 empty empty inlets: 4 12 0 14 -262144 -49933
0;
#X text 110 497 1\.;
#X text 245 497 multiplexer first inlet.;
#X text 110 517 n.;
#X text 245 517 multiplexer N-th inlet.;
#X text 110 537 n+1\.;
#X text 150 537 *int*;
#X text 245 537 set input index.;
#X obj 20 567 cnv 1 745 1 empty empty empty 17 7 0 10 -203890 -1 0;
#X obj 20 572 cnv 5 73 25 empty empty outlets: 4 12 0 14 -262144
-49933 0;
#X text 110 573 1\.;
#X text 245 573 output.;
#X obj 10 48 ui.link @title index @url ../index-help.pd;
#X text 51 45 ::;
#X obj 68 48 ui.link @title ceammc @url ceammc-help.pd;
#X text 116 45 ::;
#X obj 133 48 ui.link @title flow @url ceammc.flow-help.pd;
#X obj 1 623 cnv 5 765 48 empty empty empty 17 7 0 10 -203890 -1 0;
#X text 10 626 library: ceammc v0.9.7;
#X text 548 638 see also:;
#X obj 623 638 flow.demultiplex;
#N canvas 10 645 400 290 info 0;
#X obj 1 1 cnv 1 107 287 empty empty empty 17 7 0 10 -183085 -1 0;
#X text 10 10 library:;
#X text 120 10 ceammc;
#X text 10 32 version:;
#X text 120 32 0.9.7;
#X text 10 54 object:;
#X text 120 54 flow.multiplex;
#X text 10 76 category:;
#X text 120 76 flow;
#X text 10 98 since:;
#X text 120 98 0.6;
#X text 10 120 authors:;
#X text 120 120 Serge Poltavsky;
#X text 10 142 license:;
#X text 120 142 GPL3 or later;
#X text 10 164 keywords:;
#X text 120 164 multiplex;
#X text 10 186 website:;
#X obj 120 189 ui.link @title https://github.com/uliss/pd-ceammc @url
https://github.com/uliss/pd-ceammc;
#X obj 120 208 declare -lib ceammc;
#X obj 120 268 cnv 1 270 1 empty empty empty 17 7 0 10 -203890 -1 0;
#X text 120 268 generated by pddoc;
#X restore 10 645 pd info;
#X connect 5 0 7 0;
#X connect 7 0 14 0;
#X connect 10 0 14 0;
#X connect 11 0 14 1;
#X connect 12 0 14 2;
#X connect 13 0 14 3;
#X connect 14 0 15 0;