#N canvas 0 0 603 428 12;
#X obj 20 48 ui.keyboard;
#X obj 20 120 flow.split, f 50;
#X obj 384 120 list.at 0;
#X obj 384 149 < 60;
#X obj 20 178 unpack f f;
#X obj 221 178 unpack f f;
#X obj 20 207 mtof;
#X obj 125 207 > 0;
#X obj 221 207 mtof;
#X obj 327 207 > 0;
#X obj 20 235 pack f f;
#X obj 221 235 pack f f;
#X msg 20 264 @freq \$1 \, @gate \$2;
#X msg 221 264 @freq \$1 \, @gate \$2;
#X obj 20 293 synth.bee3~;
#X obj 221 293 synth.rhodey~;
#X obj 20 322 pan.spread~ 4;
#X obj 20 351 ui.hgain2~;
#X obj 20 379 dac~;
#X connect 0 0 1 0;
#X connect 2 0 3 0;
#X connect 1 0 4 0;
#X connect 4 0 6 0;
#X connect 4 1 7 0;
#X connect 5 0 8 0;
#X connect 5 1 9 0;
#X connect 6 0 10 0;
#X connect 7 0 10 1;
#X connect 8 0 11 0;
#X connect 9 0 11 1;
#X connect 10 0 12 0;
#X connect 11 0 13 0;
#X connect 12 0 14 0;
#X connect 13 0 15 0;
#X connect 14 0 16 1;
#X connect 15 0 16 2;
#X connect 16 0 17 0;
#X connect 16 1 17 1;
#X connect 17 0 18 0;
#X connect 17 1 18 1;
#X connect 1 1 5 0;
#X connect 1 2 2 0;
#X connect 3 0 1 1;
