#N canvas 0 0 785 555 12;
#X declare -lib ceammc;
#X obj 576 50 cnv 1 189 23 empty empty empty 17 7 0 10 -245760 -1 0;
#X text 576 50 vanilla flow on steroids;
#X obj 1 1 cnv 5 765 40 empty empty flow.select 20 20 0 20 -104026
-4096 0;
#X obj 578 11 flow.sel;
#X obj 661 11 flow.select;
#X obj 210 80 cnv 1 555 165 empty empty empty 17 7 0 10 -257983 -1 0;
#X text 215 80 Match syntax:;
#X text 215 105 common: symbols or floats;
#X text 215 130 compare: >NUM \, >=NUM \, <NUM \, <=NUM;
#X text 215 155 intervals: FROM..TO \, or [FROM..TO] - closed interval
\, [FROM..TO) or (FROM..TO] semi-open interval \, (FROM..TO) open interval
\, NUM~EPSILON - value in NUM+-EPSILON range;
#X text 215 210 set: A|B|C - match to A or B or C;
#X msg 50 273 1 2 3;
#X msg 194 273 list c 17;
#X msg 50 302 10;
#X msg 117 302 40;
#X msg 194 302 b;
#X floatatom 50 331 5 0 0 0 - - -;
#X msg 117 331 30;
#X msg 194 331 symbol c;
#X msg 318 331 unmatched;
#X obj 50 360 flow.sel 1..10 >20 a|b|c @v, f 32;
#X obj 50 389 ui.dt;
#X obj 117 417 ui.dt;
#X obj 194 446 ui.dt;
#X obj 270 475 ui.dt;
#X obj 20 524 cnv 1 745 1 empty empty empty 17 7 0 10 -203890 -1 0;
#X obj 20 529 cnv 5 90 26 empty empty arguments: 4 10 0 14 -262144
-49933 0;
#X text 110 564 1\.;
#X text 150 564 list;
#X obj 246 565 cnv 1 40 20 empty empty empty 17 7 0 10 -245695 -1 0;
#X text 245 564 ARGS: flow match expressions. Type: list.;
#X obj 20 594 cnv 1 745 1 empty empty empty 17 7 0 10 -203890 -1 0;
#X obj 20 599 cnv 5 98 26 empty empty properties: 4 10 0 14 -262144
-49933 0;
#X msg 110 634 @keep_value;
#X text 245 634 Get/Set vakue output mode. If false (by default) acts
like vanilla select: output bang on match or full unmatched message
to last outlet. If true always outputs full matched message to corresponding
outlet. Type: int. Default value: 0\. Allowed values: 0 \, 1 \, on
\, off.;
#X msg 110 721 @v;
#X text 245 721 alias to @keep_value 1\.;
#X obj 20 760 cnv 1 745 1 empty empty empty 17 7 0 10 -203890 -1 0;
#X obj 20 765 cnv 5 64 26 empty empty inlets: 4 10 0 14 -262144 -49933
0;
#X text 110 766 1\.;
#X text 150 766 *float*;
#X text 245 766 check float for matches.;
#X text 150 786 *symbol*;
#X text 245 786 check symbol for matches.;
#X text 150 806 *list*;
#X text 245 806 check first list element for matches.;
#X text 150 826 *any*;
#X text 245 826 check message selector for matches.;
#X obj 20 856 cnv 1 745 1 empty empty empty 17 7 0 10 -203890 -1 0;
#X obj 20 861 cnv 5 73 26 empty empty outlets: 4 10 0 14 -262144
-49933 0;
#X text 110 862 1\.;
#X text 245 862 first matched output: bang or full message.;
#X text 110 882 ....;
#X text 245 882 ... matched output: bang or full message.;
#X text 110 902 n.;
#X text 245 902 nth matched output: bang or full message.;
#X text 110 922 n+1\.;
#X text 245 922 unmatched message.;
#X obj 10 48 ui.link @title index @url ../index-help.pd;
#X text 51 45 ::;
#X obj 67 48 ui.link @title ceammc @url ceammc-help.pd;
#X text 115 45 ::;
#X obj 131 48 ui.link @title flow @url ceammc.flow-help.pd;
#X obj 1 972 cnv 5 765 48 empty empty empty 17 7 0 10 -203890 -1 0;
#X text 10 975 library: ceammc v0.9.4;
#X text 594 987 see also:;
#X obj 668 987 flow.match;
#N canvas 10 994 400 290 info 0;
#X obj 1 1 cnv 1 107 287 empty empty empty 17 7 0 10 -183085 -1 0;
#X text 10 10 library:;
#X text 120 10 ceammc;
#X text 10 32 version:;
#X text 120 32 0.9.4;
#X text 10 54 object:;
#X text 120 54 flow.select;
#X text 10 76 category:;
#X text 120 76 flow;
#X text 10 98 since:;
#X text 120 98 0.9.1;
#X text 10 120 authors:;
#X text 120 120 Serge Poltavsky;
#X text 10 142 license:;
#X text 120 142 GPL3 or later;
#X text 10 164 keywords:;
#X text 120 164 select;
#X text 10 186 website:;
#X obj 120 189 ui.link @title https://github.com/uliss/pure-data @url
https://github.com/uliss/pure-data;
#X obj 120 208 declare -lib ceammc;
#X obj 120 268 cnv 1 270 1 empty empty empty 17 7 0 10 -203890 -1 0;
#X text 120 268 generated by pddoc;
#X restore 10 994 pd info;
#X connect 13 0 16 0;
#X connect 16 0 20 0;
#X connect 17 0 20 0;
#X connect 18 0 20 0;
#X connect 19 0 20 0;
#X connect 20 0 21 0;
#X connect 20 1 22 0;
#X connect 20 2 23 0;
#X connect 20 3 24 0;
#X connect 14 0 20 0;
#X connect 15 0 20 0;
#X connect 11 0 20 0;
#X connect 12 0 20 0;