#N canvas 0 0 785 555 12;
#X declare -lib ceammc;
#X obj 560 50 cnv 1 205 23 empty empty empty 17 7 0 10 -245760 -1 0;
#X text 560 50 data flow dollar converter;
#X obj 1 1 cnv 5 765 40 empty empty flow.dollar 20 20 0 20 -104026
-4096 0;
#X obj 584 11 flow.$$;
#X obj 660 11 flow.dollar;
#X msg 50 118 load file to \\\$0-array @resize;
#X obj 50 147 flow.dollar;
#X obj 50 176 ui.dt;
#X obj 50 205 flow.dollar.args A B;
#X obj 20 254 cnv 1 745 1 empty empty empty 17 7 0 10 -203890 -1 0;
#X obj 20 259 cnv 5 64 26 empty empty inlets: 4 10 0 14 -262144 -49933
0;
#X text 110 260 1\.;
#X text 245 260 input flow.;
#X obj 20 290 cnv 1 745 1 empty empty empty 17 7 0 10 -203890 -1 0;
#X obj 20 295 cnv 5 73 26 empty empty outlets: 4 10 0 14 -262144
-49933 0;
#X text 110 296 1\.;
#X text 245 296 outputs flow with realized dollar atoms.;
#X obj 10 48 ui.link @title index @url ../index-help.pd;
#X text 51 45 ::;
#X obj 67 48 ui.link @title ceammc @url ceammc-help.pd;
#X text 115 45 ::;
#X obj 131 48 ui.link @title flow @url ceammc.flow-help.pd;
#X obj 1 505 cnv 5 765 48 empty empty empty 17 7 0 10 -203890 -1 0;
#X text 10 508 library: ceammc v0.9.6;
#N canvas 10 527 400 290 info 0;
#X obj 1 1 cnv 1 107 287 empty empty empty 17 7 0 10 -183085 -1 0;
#X text 10 10 library:;
#X text 120 10 ceammc;
#X text 10 32 version:;
#X text 120 32 0.9.6;
#X text 10 54 object:;
#X text 120 54 flow.dollar;
#X text 10 76 category:;
#X text 120 76 flow;
#X text 10 98 since:;
#X text 120 98 0.9.3;
#X text 10 120 authors:;
#X text 120 120 Serge Poltavsky;
#X text 10 142 license:;
#X text 120 142 GPL3 or later;
#X text 10 164 keywords:;
#X text 120 164 dollar;
#X text 10 186 website:;
#X obj 120 189 ui.link @title https://github.com/uliss/pure-data @url
https://github.com/uliss/pure-data;
#X obj 120 208 declare -lib ceammc;
#X obj 120 268 cnv 1 270 1 empty empty empty 17 7 0 10 -203890 -1 0;
#X text 120 268 generated by pddoc;
#X restore 10 527 pd info;
#X connect 5 0 6 0;
#X connect 6 0 7 0;