#N canvas 0 0 785 555 12;
#X declare -lib ceammc;
#X obj 468 50 cnv 1 297 23 empty empty empty 17 7 0 10 -245760 -1 0;
#X text 468 50 duplicates message with possible delay;
#X obj 1 1 cnv 5 765 40 empty empty flow.dup 20 20 0 20 -104026 -4096
0;
#X obj 682 11 flow.dup;
#X obj 210 80 cnv 1 555 105 empty empty empty 17 7 0 10 -257983 -1 0;
#X text 215 80 Output any incoming message "as is" and if @delay>=0
repeats it after specified delay. If @delay <0 no duplication performed.;
#X text 215 135 Note: @delay property can be changed only via right
inlet or [prop.set] object;
#X msg 50 213 a;
#X msg 88 213 b;
#X msg 126 213 c;
#X floatatom 165 213 5 0 0 0 - - -;
#X text 213 213 - change delay;
#X obj 50 242 flow.dup 100;
#X obj 50 271 flow.route a b c, f 25;
#X obj 222 300 click~;
#X obj 136 329 click~;
#X obj 222 329 flt.resonbp~ 800 60;
#X obj 50 357 click~;
#X obj 136 357 flt.resonbp~ 600 50;
#X obj 50 386 flt.resonbp~ 400 50;
#X obj 50 415 ui.hgain~;
#X obj 222 415 ui.dsp~;
#X obj 50 444 dac~;
#X obj 20 493 cnv 1 745 1 empty empty empty 17 7 0 10 -203890 -1 0;
#X obj 20 498 cnv 5 90 26 empty empty arguments: 4 10 0 14 -262144
-49933 0;
#X text 110 533 1\.;
#X text 150 533 float;
#X obj 246 534 cnv 1 55 20 empty empty empty 17 7 0 10 -245695 -1 0;
#X text 245 533 MS(ms): init @delay property. Min value: -1;
#X obj 20 563 cnv 1 745 1 empty empty empty 17 7 0 10 -203890 -1 0;
#X obj 20 568 cnv 5 98 26 empty empty properties: 4 10 0 14 -262144
-49933 0;
#X msg 110 603 @block;
#X text 245 603 Get/Set blocking mode. If true: discards all incoming
messages until scheduled delay will output. If false: new incoming
message resets previous scheduled delay and sets new one. Type: int.
Default value: 0\. Allowed values: 0 \, 1\.;
#X msg 110 675 @delay;
#X text 245 675 Get/Set delay time. Type: float. Units: ms. Default
value: 0\. Min value: -1\.;
#X obj 20 727 cnv 1 745 1 empty empty empty 17 7 0 10 -203890 -1 0;
#X obj 20 732 cnv 5 73 26 empty empty methods: 4 10 0 14 -262144
-49933 0;
#X msg 110 767 reset;
#X text 245 767 stops scheduled duplication. Note: should be send to
the second inlet.;
#X obj 20 817 cnv 1 745 1 empty empty empty 17 7 0 10 -203890 -1 0;
#X obj 20 822 cnv 5 64 26 empty empty inlets: 4 10 0 14 -262144 -49933
0;
#X text 110 823 1\.;
#X text 245 823 input dataflow.;
#X text 110 843 2\.;
#X text 150 843 *bang*;
#X text 245 843 reset (stop) current delay.;
#X text 150 863 *float*;
#X text 245 863 set delay time. Min value: -1\.;
#X obj 20 893 cnv 1 745 1 empty empty empty 17 7 0 10 -203890 -1 0;
#X obj 20 898 cnv 5 73 26 empty empty outlets: 4 10 0 14 -262144
-49933 0;
#X text 110 899 1\.;
#X text 245 899 output dataflow.;
#X obj 10 48 ui.link @title index @url ../index-help.pd;
#X text 51 45 ::;
#X obj 67 48 ui.link @title ceammc @url ceammc-help.pd;
#X text 115 45 ::;
#X obj 131 48 ui.link @title flow @url ceammc.flow-help.pd;
#X obj 1 949 cnv 5 765 48 empty empty empty 17 7 0 10 -203890 -1 0;
#X text 10 952 library: ceammc v0.9.0;
#X text 593 964 see also:;
#X obj 667 964 flow.delay;
#N canvas 10 971 400 290 info 0;
#X obj 1 1 cnv 1 107 287 empty empty empty 17 7 0 10 -183085 -1 0;
#X text 10 10 library:;
#X text 120 10 ceammc;
#X text 10 32 version:;
#X text 120 32 0.9.0;
#X text 10 54 object:;
#X text 120 54 flow.dup;
#X text 10 76 category:;
#X text 120 76 flow;
#X text 10 98 since:;
#X text 120 98 0.9.1;
#X text 10 120 authors:;
#X text 120 120 Serge Poltavsky;
#X text 10 142 license:;
#X text 120 142 GPL3 or later;
#X text 10 164 keywords:;
#X text 120 164 flow \, duplicate;
#X text 10 186 website:;
#X obj 120 189 ui.link @title https://github.com/uliss/pure-data @url
https://github.com/uliss/pure-data;
#X obj 120 208 declare -lib ceammc;
#X obj 120 268 cnv 1 270 1 empty empty empty 17 7 0 10 -203890 -1 0;
#X text 120 268 generated by pddoc;
#X restore 10 971 pd info;
#X connect 7 0 12 0;
#X connect 8 0 12 0;
#X connect 9 0 12 0;
#X connect 10 0 12 1;
#X connect 12 0 13 0;
#X connect 13 2 14 0;
#X connect 13 1 15 0;
#X connect 14 0 16 0;
#X connect 13 0 17 0;
#X connect 15 0 18 0;
#X connect 17 0 19 0;
#X connect 19 0 20 0;
#X connect 20 0 22 0;
#X connect 20 0 22 1;
#X connect 18 0 20 0;
#X connect 16 0 20 0;