#N canvas 0 0 785 555 12;
#X declare -lib ceammc;
#X obj 559 50 cnv 1 206 23 empty empty empty 17 7 0 10 -245760 -1 0;
#X text 559 50 audio stream demultiplexer;
#X obj 1 1 cnv 5 765 40 empty empty flow.demultiplex~ 20 20 0 20
-104026 -4096 0;
#X obj 320 11 flow.demux~;
#X obj 426 11 ceammc/demux~;
#X obj 546 11 demux~;
#X obj 616 11 flow.demultiplex~;
#X obj 50 118 osc~ 440;
#X obj 184 118 ui.radio @nitems 4;
#X obj 386 118 ui.dsp~;
#X msg 69 147 @value?;
#X obj 50 176 flow.demultiplex~ 4;
#X obj 50 205 ~->;
#X obj 78 234 ui.display @display_type 1;
#X obj 50 262 env~;
#X obj 136 262 env~;
#X obj 232 262 env~;
#X obj 328 262 env~;
#X floatatom 50 291 5 0 0 0 - - -;
#X floatatom 136 291 5 0 0 0 - - -;
#X floatatom 232 291 5 0 0 0 - - -;
#X floatatom 328 291 5 0 0 0 - - -;
#X obj 20 323 cnv 1 745 1 empty empty empty 17 7 0 10 -203890 -1 0;
#X obj 20 328 cnv 5 90 25 empty empty arguments: 4 12 0 14 -262144
-49933 0;
#X obj 735 331 ui.link @background_color 0.98039 0.98039 0.98039
@title [?] @url ceammc.args-info.pd;
#X text 110 363 1\.;
#X text 150 363 int;
#X obj 246 364 cnv 1 17 20 empty empty empty 17 7 0 10 -245695 -1 0;
#X text 245 363 N: number of signals outputs. Type: int. Range: 2\...16;
#X obj 20 393 cnv 1 745 1 empty empty empty 17 7 0 10 -203890 -1 0;
#X obj 20 398 cnv 5 98 25 empty empty properties: 4 12 0 14 -262144
-49933 0;
#X obj 735 401 ui.link @background_color 0.98039 0.98039 0.98039
@title [?] @url ceammc.props-info.pd;
#X msg 110 433 @n;
#X text 245 433 (initonly) Get/Set number of outlets. Type: int. Default
value: 2\. Range: 2\...16\.;
#X msg 110 475 @value;
#X text 245 475 Get/Set gain coefficients per each output. Type: list.;
#X obj 20 515 cnv 1 745 1 empty empty empty 17 7 0 10 -203890 -1 0;
#X obj 20 520 cnv 5 64 25 empty empty inlets: 4 12 0 14 -262144 -49933
0;
#X text 110 521 1\.;
#X text 245 521 input signal.;
#X text 110 541 2\.;
#X text 245 541 demultiplexer control.;
#X obj 20 571 cnv 1 745 1 empty empty empty 17 7 0 10 -203890 -1 0;
#X obj 20 576 cnv 5 73 25 empty empty outlets: 4 12 0 14 -262144
-49933 0;
#X text 110 577 1\.;
#X text 245 577 first output.;
#X text 110 597 ....;
#X text 245 597 ... output.;
#X text 110 617 n.;
#X text 245 617 n-th output.;
#X obj 10 48 ui.link @title index @url ../index-help.pd;
#X text 51 45 ::;
#X obj 68 48 ui.link @title ceammc @url ceammc-help.pd;
#X text 116 45 ::;
#X obj 133 48 ui.link @title flow @url ceammc.flow-help.pd;
#X obj 1 667 cnv 5 765 48 empty empty empty 17 7 0 10 -203890 -1 0;
#X text 10 670 library: ceammc v0.9.7;
#X text 402 682 see also:;
#X obj 477 682 flow.demultiplex2~;
#X obj 623 682 flow.demultiplex;
#N canvas 10 689 400 290 info 0;
#X obj 1 1 cnv 1 107 287 empty empty empty 17 7 0 10 -183085 -1 0;
#X text 10 10 library:;
#X text 120 10 ceammc;
#X text 10 32 version:;
#X text 120 32 0.9.7;
#X text 10 54 object:;
#X text 120 54 flow.demultiplex~;
#X text 10 76 category:;
#X text 120 76 flow;
#X text 10 98 since:;
#X text 120 98 0.6;
#X text 10 120 authors:;
#X text 120 120 Serge Poltavsky;
#X text 10 142 license:;
#X text 120 142 GPL3 or later;
#X text 10 164 keywords:;
#X text 120 164 flow \, demultiplex;
#X text 10 186 website:;
#X obj 120 189 ui.link @title https://github.com/uliss/pd-ceammc @url
https://github.com/uliss/pd-ceammc;
#X obj 120 208 declare -lib ceammc;
#X obj 120 268 cnv 1 270 1 empty empty empty 17 7 0 10 -203890 -1 0;
#X text 120 268 generated by pddoc;
#X restore 10 689 pd info;
#X connect 7 0 11 0;
#X connect 10 0 11 0;
#X connect 8 0 11 1;
#X connect 11 0 12 0;
#X connect 12 1 13 0;
#X connect 12 0 14 0;
#X connect 14 0 18 0;
#X connect 15 0 19 0;
#X connect 16 0 20 0;
#X connect 17 0 21 0;
#X connect 11 1 15 0;
#X connect 11 2 16 0;
#X connect 11 3 17 0;