#N canvas 0 0 785 555 12;
#X declare -lib ceammc;
#X obj 401 50 cnv 1 364 23 empty empty empty 17 7 0 10 -245760 -1 0;
#X text 401 50 multi-channel control flow sync queue (or FIFO);
#X obj 1 1 cnv 5 765 40 empty empty flow.queue 20 20 0 20 -104026
-4096 0;
#X obj 668 11 flow.queue;
#X obj 50 118 tgl 15 0 empty empty empty 17 7 0 10 -262144 -1 -1 0 1;
#X obj 174 118 ui.dsp~;
#X obj 50 147 metro 200;
#X obj 50 176 random.i 48 72;
#X obj 50 205 makenote 127 180;
#X obj 50 234 pack f f;
#X obj 78 262 flow.queue 8 @auto_pop 1;
#X obj 50 291 msg note;
#X obj 174 291 msg note;
#X obj 50 320 synth.ks~;
#X obj 174 320 synth.ks~;
#X obj 50 349 ui.hgain2~;
#X obj 50 378 dac~;
#X obj 20 427 cnv 1 745 1 empty empty empty 17 7 0 10 -203890 -1 0;
#X obj 20 432 cnv 5 90 26 empty empty arguments: 4 10 0 14 -262144
-49933 0;
#X text 110 467 1\.;
#X text 150 467 int;
#X obj 246 468 cnv 1 32 20 empty empty empty 17 7 0 10 -245695 -1 0;
#X text 245 467 MAX: max queue size. Type: int. Range: 1\...1024;
#X text 110 487 2\.;
#X text 150 487 int;
#X obj 246 488 cnv 1 17 20 empty empty empty 17 7 0 10 -245695 -1 0;
#X text 245 487 N: number of lines. Type: int. Range: 1\...32;
#X obj 20 517 cnv 1 745 1 empty empty empty 17 7 0 10 -203890 -1 0;
#X obj 20 522 cnv 5 98 26 empty empty properties: 4 10 0 14 -262144
-49933 0;
#X msg 110 557 @auto_pop;
#X text 245 557 Get/Set auto pop mode. If true automatically pops oldest
elements when queue is full. Type: int. Default value: 0\. Allowed
values: 0 \, 1\.;
#X msg 110 614 @max_size;
#X text 245 614 Get/Set max queue size. Type: int. Default value: 32\.
Range: 1\...1024\.;
#X obj 20 666 cnv 1 745 1 empty empty empty 17 7 0 10 -203890 -1 0;
#X obj 20 671 cnv 5 64 26 empty empty inlets: 4 10 0 14 -262144 -49933
0;
#X text 110 672 1\.;
#X text 150 672 *any*;
#X text 245 672 1st queue input messages.;
#X text 110 692 ....;
#X text 150 692 *any*;
#X text 245 692 ... queue input messages.;
#X text 110 712 n.;
#X text 150 712 *any*;
#X text 245 712 n-th queue input messages.;
#X text 110 732 n+1\.;
#X text 150 732 *any*;
#X text 245 732 clear: remove all elements from all queues \, output:
output all element from all queues \, flush: output and clear all element
from all queues \, bang or pop: output and remove first message in
all queues.;
#X obj 20 807 cnv 1 745 1 empty empty empty 17 7 0 10 -203890 -1 0;
#X obj 20 812 cnv 5 73 26 empty empty outlets: 4 10 0 14 -262144
-49933 0;
#X text 110 813 1\.;
#X text 245 813 1st queue output.;
#X text 110 833 ....;
#X text 245 833 ... queue output.;
#X text 110 853 n.;
#X text 245 853 n-th queue output.;
#X obj 10 48 ui.link @title index @url ../index-help.pd;
#X text 51 45 ::;
#X obj 67 48 ui.link @title ceammc @url ceammc-help.pd;
#X text 115 45 ::;
#X obj 131 48 ui.link @title flow @url ceammc.flow-help.pd;
#X obj 1 903 cnv 5 765 48 empty empty empty 17 7 0 10 -203890 -1 0;
#X text 10 906 library: ceammc v0.9.4;
#N canvas 10 925 400 290 info 0;
#X obj 1 1 cnv 1 107 287 empty empty empty 17 7 0 10 -183085 -1 0;
#X text 10 10 library:;
#X text 120 10 ceammc;
#X text 10 32 version:;
#X text 120 32 0.9.4;
#X text 10 54 object:;
#X text 120 54 flow.queue;
#X text 10 76 category:;
#X text 120 76 flow;
#X text 10 98 since:;
#X text 120 98 0.9.1;
#X text 10 120 authors:;
#X text 120 120 Serge Poltavsky;
#X text 10 142 license:;
#X text 120 142 GPL3 or later;
#X text 10 164 keywords:;
#X text 120 164 counter;
#X text 10 186 website:;
#X obj 120 189 ui.link @title https://github.com/uliss/pure-data @url
https://github.com/uliss/pure-data;
#X obj 120 208 declare -lib ceammc;
#X obj 120 268 cnv 1 270 1 empty empty empty 17 7 0 10 -203890 -1 0;
#X text 120 268 generated by pddoc;
#X restore 10 925 pd info;
#X connect 4 0 6 0;
#X connect 6 0 7 0;
#X connect 7 0 8 0;
#X connect 8 0 9 0;
#X connect 8 1 9 1;
#X connect 9 0 10 0;
#X connect 9 0 11 0;
#X connect 10 0 12 0;
#X connect 11 0 13 0;
#X connect 12 0 14 0;
#X connect 13 0 15 0;
#X connect 14 0 15 1;
#X connect 15 0 16 0;
#X connect 15 1 16 1;