#N canvas 0 0 785 555 12;
#X declare -lib ceammc;
#X obj 415 50 cnv 1 350 23 empty empty empty 17 7 0 10 -245760 -1 0;
#X text 415 50 pass values that accepted by predicate object;
#X obj 1 1 cnv 5 765 40 empty empty flow.pass_if 20 20 0 20 -104026
-4096 0;
#X obj 452 11 ceammc/pass_if;
#X obj 578 11 pass_if;
#X obj 653 11 flow.pass_if;
#X obj 210 80 cnv 1 555 90 empty empty empty 17 7 0 10 -257983 -1 0;
#X text 215 80 conditional value pass according to *predicate* side-chain.
*predicate* should accept value and ouput 0 or 1 \, for value passing.;
#X text 215 135 [>=] [is_even] [is_list] - examples of predicates.;
#X floatatom 50 198 5 0 0 0 - - -;
#X floatatom 251 198 5 0 0 0 - - -;
#X obj 299 198 bng 15 250 50 0 empty empty empty 17 7 0 10 -262144 -1
-1;
#X msg 338 198 1 2 3 4 5;
#X obj 50 227 pass_if;
#X obj 146 227 is_even;
#X obj 251 227 flow.pass_if;
#X obj 395 227 is_list;
#X obj 50 256 ui.dt;
#X obj 251 256 ui.dt;
#X obj 50 285 hslider 128 15 0.0 127.0 0 0 empty empty empty 17 7 0 10
-262144 -1 -1 0 0;
#X obj 50 314 pass_if;
#X obj 146 314 < 64;
#X floatatom 50 342 5 0 0 0 - - -;
#X obj 20 391 cnv 1 745 1 empty empty empty 17 7 0 10 -203890 -1 0;
#X obj 20 396 cnv 5 64 26 empty empty inlets: 4 10 0 14 -262144 -49933
0;
#X text 110 397 1\.;
#X text 245 397 input value.;
#X text 110 417 2\.;
#X text 150 417 *int*;
#X text 245 417 conditional output from predicate object. '1' means
pass \, '0' means reject. Range: 0\...1\.;
#X obj 20 462 cnv 1 745 1 empty empty empty 17 7 0 10 -203890 -1 0;
#X obj 20 467 cnv 5 73 26 empty empty outlets: 4 10 0 14 -262144
-49933 0;
#X text 110 468 1\.;
#X text 245 468 passed values.;
#X text 110 488 2\.;
#X text 245 488 output to predicate side-chain.;
#X obj 10 48 ui.link @title index @url ../index-help.pd;
#X text 51 45 ::;
#X obj 67 48 ui.link @title ceammc @url ceammc-help.pd;
#X text 115 45 ::;
#X obj 131 48 ui.link @title flow @url ceammc.flow-help.pd;
#X obj 1 538 cnv 5 765 48 empty empty empty 17 7 0 10 -203890 -1 0;
#X text 10 541 library: ceammc v0.9.5;
#X text 601 553 see also:;
#X obj 675 553 flow.pass;
#N canvas 10 560 400 290 info 0;
#X obj 1 1 cnv 1 107 287 empty empty empty 17 7 0 10 -183085 -1 0;
#X text 10 10 library:;
#X text 120 10 ceammc;
#X text 10 32 version:;
#X text 120 32 0.9.5;
#X text 10 54 object:;
#X text 120 54 flow.pass_if;
#X text 10 76 category:;
#X text 120 76 flow;
#X text 10 98 since:;
#X text 120 98 0.3;
#X text 10 120 authors:;
#X text 120 120 Serge Poltavsky;
#X text 10 142 license:;
#X text 120 142 GPL3 or later;
#X text 10 164 keywords:;
#X text 120 164 pass \, functional;
#X text 10 186 website:;
#X obj 120 189 ui.link @title https://github.com/uliss/pure-data @url
https://github.com/uliss/pure-data;
#X obj 120 208 declare -lib ceammc;
#X obj 120 268 cnv 1 270 1 empty empty empty 17 7 0 10 -203890 -1 0;
#X text 120 268 generated by pddoc;
#X restore 10 560 pd info;
#X connect 9 0 13 0;
#X connect 10 0 15 0;
#X connect 11 0 15 0;
#X connect 12 0 15 0;
#X connect 13 0 17 0;
#X connect 15 0 18 0;
#X connect 19 0 20 0;
#X connect 20 0 22 0;
#X connect 13 1 14 0;
#X connect 14 0 13 1;
#X connect 15 1 16 0;
#X connect 16 0 15 1;
#X connect 20 1 21 0;
#X connect 21 0 20 1;