#N canvas 0 0 715 555 12;
#X declare -lib ceammc -lib creammc;
#X obj 453 50 cnv 1 242 21 empty empty empty 17 7 0 10 -245760 -1 0;
#X text 453 50 rejects redundant input values;
#X obj 1 1 cnv 5 712 40 empty empty flow.change 20 20 0 20 -104026
-4096 0;
#X obj 607 11 flow.change;
#X obj 205 80 cnv 1 490 70 empty empty empty 17 7 0 10 -257983 -1 0;
#X text 210 80 The object passes input values only when it's changed.
You can "set" the current value \, or bang to force output.;
#X text 210 117 Note: [list a b c( and [a b c( are different values!;
#X msg 88 178 1 2;
#X msg 146 178 3 4;
#X msg 203 178 list a b;
#X msg 309 178 a b;
#X msg 366 178 reset;
#X obj 472 178 func fn_repeat;
#X floatatom 50 207 5 0 0 0 - - -;
#X obj 107 207 bng 15 250 50 0 empty empty empty 17 7 0 10 -262144 -1
-1;
#X symbolatom 165 207 5 0 0 0 - - -;
#X obj 472 207 bng 15 250 50 0 empty empty empty 17 7 0 10 -262144 -1
-1;
#X obj 50 236 flow.change @onrepeat fn_repeat;
#X obj 50 265 msg set;
#X obj 222 265 print passed;
#X msg 50 294 ;
#X obj 50 337 bng 15 250 50 0 empty empty empty 17 7 0 10 -262144 -1
-1;
#X obj 88 337 func try_again;
#X obj 50 365 random.int 1 3;
#X obj 50 394 flow.change @onrepeat try_again;
#X floatatom 50 423 5 0 0 0 - - -;
#X obj 20 462 cnv 1 685 1 empty empty empty 17 7 0 10 -203890 -1 0;
#X obj 20 467 cnv 5 98 26 empty empty properties: 4 10 0 14 -262144
-49933 0;
#X msg 120 472 @onrepeat;
#X text 240 472 Get/Set function called when repeat occures. Type:
symbol;
#X obj 20 509 cnv 1 685 1 empty empty empty 17 7 0 10 -203890 -1 0;
#X obj 20 514 cnv 5 73 26 empty empty methods: 4 10 0 14 -262144
-49933 0;
#X msg 120 519 reset;
#X text 240 519 resets state.;
#X msg 120 551 set;
#X text 240 551 sets current value \, but without output.;
#X obj 20 593 cnv 1 685 1 empty empty empty 17 7 0 10 -203890 -1 0;
#X obj 20 598 cnv 5 64 26 empty empty inlets: 4 10 0 14 -262144 -49933
0;
#X text 120 603 1\.;
#X text 150 603 *bang*;
#X text 240 603 force output current value.;
#X obj 20 631 cnv 1 685 1 empty empty empty 17 7 0 10 -203890 -1 0;
#X obj 20 636 cnv 5 73 26 empty empty outlets: 4 10 0 14 -262144
-49933 0;
#X text 120 641 1\.;
#X text 240 641 output only if input changed;
#X obj 10 48 ui.link @title index @url ../index-help.pd;
#X text 51 45 ::;
#X obj 67 48 ui.link @title ceammc @url ceammc-help.pd;
#X text 115 45 ::;
#X obj 131 48 ui.link @title flow @url ceammc.flow-help.pd;
#X obj 1 689 cnv 5 712 48 empty empty empty 17 7 0 10 -203890 -1 0;
#X text 10 692 library: ceammc v0.3;
#X text 570 704 see also:;
#X obj 646 704 change;
#N canvas 10 711 400 290 info 0;
#X obj 1 1 cnv 1 107 287 empty empty empty 17 7 0 10 -183085 -1 0;
#X text 10 10 library:;
#X text 120 10 ceammc;
#X text 10 32 version:;
#X text 120 32 0.3;
#X text 10 54 object:;
#X text 120 54 flow.change;
#X text 10 76 category:;
#X text 120 76 flow;
#X text 10 98 since:;
#X text 120 98 0.3;
#X text 10 120 authors:;
#X text 120 120 Serge Poltavsky;
#X text 10 142 license:;
#X text 120 142 GPL3;
#X text 10 164 keywords:;
#X text 120 164 flow \, change;
#X text 10 186 website:;
#X obj 120 189 ui.link @title https://github.com/uliss/pure-data @url
https://github.com/uliss/pure-data;
#X obj 120 208 declare -lib ceammc -lib creammc;
#X obj 120 268 cnv 1 270 1 empty empty empty 17 7 0 10 -203890 -1 0;
#X text 120 268 generated by pddoc;
#X restore 10 711 pd info;
#X connect 18 0 20 0;
#X connect 13 0 17 0;
#X connect 10 0 17 0;
#X connect 8 0 17 0;
#X connect 15 0 17 0;
#X connect 24 0 25 0;
#X connect 12 1 16 0;
#X connect 22 1 23 0;
#X connect 17 0 19 0;
#X connect 23 0 24 0;
#X connect 9 0 17 0;
#X connect 21 0 23 0;
#X connect 14 0 17 0;
#X connect 17 0 18 0;
#X connect 7 0 17 0;
#X connect 11 0 17 0;