#N canvas 0 0 721 887 12;
#X text 20 48 **general**;
#X text 20 77 ` - escape symbol (instead of \\);
#X text 20 92 (( - open curly braces (not allowed character in Pd);
#X text 20 106 )) - close curly braces (not allowed character in Pd);
#X text 20 135 **kinds of single-character expressions**;
#X text 20 164 any character:;
#X text 365 164 .;
#X text 20 178 character class:;
#X text 365 178 [xyz];
#X text 20 192 negated character class:;
#X text 365 192 [^xyz];
#X text 20 207 Perl character class:;
#X text 365 207 `d;
#X text 20 221 negated Perl character class:;
#X text 365 221 `D;
#X text 20 250 **composites**;
#X text 20 279 xy;
#X text 212 279 x followed by y;
#X text 20 293 x|y;
#X text 212 293 x or y (prefer x);
#X text 20 322 **repetitions**;
#X text 20 351 x*;
#X text 212 351 zero or more x \, prefer more;
#X text 20 365 x+;
#X text 212 365 one or more x \, prefer more;
#X text 20 379 x?;
#X text 212 379 zero or one x \, prefer one;
#X text 20 394 x((n`.m));
#X text 212 394 n or n+1 or ... or m x \, prefer more;
#X text 20 408 x((n`.));
#X text 212 408 n or more x \, prefer more;
#X text 20 423 x((n));
#X text 212 423 exactly n x;
#X text 20 437 x*?;
#X text 212 437 zero or more x \, prefer fewer;
#X text 20 451 x+?;
#X text 212 451 one or more x \, prefer fewer;
#X text 20 466 x??;
#X text 212 466 zero or one x \, prefer zero;
#X text 20 495 **empty strings**;
#X text 20 524 ^;
#X text 212 524 at beginning of text;
#X text 20 538 $;
#X text 212 538 at end of text (like `z);
#X text 20 552 `A;
#X text 212 552 at beginning of text;
#X text 20 567 `b;
#X text 212 567 at ASCII word boundary (`w on one side and `W \, `A
\, or `z on the other);
#X text 20 596 `B;
#X text 212 596 not at ASCII word boundary;
#X text 20 610 `z;
#X text 212 610 at end of text;
#X text 20 639 **escape sequences**;
#X text 20 667 `*;
#X text 212 667 literal * \, for any punctuation character *;
#X text 20 682 `123;
#X text 212 682 octal character code (up to three digits);
#X text 20 696 `x7F;
#X text 212 696 hex character code (exactly two digits);
#X text 20 711 `x((10FFFF));
#X text 212 711 hex character code;
#X text 20 739 **perl character classes (all ASCII-only)**;
#X text 20 768 `d;
#X text 212 768 digits (≡ [0-9]);
#X text 20 783 `D;
#X text 212 783 not digits (≡ [^0-9]);
#X text 20 797 `s;
#X text 212 797 whitespace;
#X text 20 811 `S;
#X text 212 811 not whitespace;
#X text 20 826 `w;
#X text 212 826 word characters (≡ [0-9A-Za-z_]);
#X text 20 840 `W;
#X text 212 840 not word characters (≡ [^0-9A-Za-z_]);
