#N canvas 0 0 567 529 12;
#X obj 20 48 ui.keyboard;
#X obj 384 120 r \$0-fs;
#X obj 20 149 list.at 0;
#X obj 384 149 tgl 15 0 empty empty empty 17 7 0 10 -262144 -1 -1 0 1;
#X obj 20 178 flow.change;
#X obj 384 178 metro 110;
#X obj 39 207 flow.stack 6 @on_empty \$0-fs 0 @on_full \$0-fs 1;
#X msg 20 235 @pitch \$1 \, @gate 1;
#X obj 20 264 msg synth.dubdub;
#X obj 20 293 gsynth.dubdub~ d1;
#X obj 308 293 ui.dsp~;
#X obj 20 451 ui.hgain~;
#X obj 20 480 dac~;
#X connect 0 0 2 0;
#X connect 1 0 3 0;
#X connect 2 0 4 0;
#X connect 3 0 5 0;
#X connect 4 0 6 0;
#X connect 5 0 6 1;
#X connect 4 0 7 0;
#X connect 6 0 7 0;
#X connect 7 0 8 0;
#X connect 8 0 9 0;
#X connect 9 0 11 0;
#X connect 11 0 12 0;
#X connect 11 0 12 1;
