#N canvas 0 0 785 555 12;
#X declare -lib ceammc;
#X obj 498 50 cnv 1 267 23 empty empty empty 17 7 0 10 -245760 -1 0;
#X text 498 50 speaker emulation band-pass filter;
#X obj 1 1 cnv 5 765 40 empty empty flt.speaker~ 20 20 0 20 -104026
-4096 0;
#X obj 652 11 flt.speaker~;
#X obj 210 80 cnv 1 555 115 empty empty empty 17 7 0 10 -257983 -1 0;
#X text 215 80 Low-frequency speaker model = +12 dB/octave slope breaking
to flat near @f1\.;
#X text 215 120 Implemented using two dc blockers in series.;
#X text 215 145 High-frequency model = -24 dB/octave slope implemented
using a fourth-order Butterworth lowpass.;
#X listbox 50 223 20 0 0 0 - - -;
#X msg 338 238 bang;
#X text 434 238 plot response;
#X msg 50 267 @f1 \$1 \, @f2 \$2;
#X obj 338 267 click~;
#X obj 50 295 flt.speaker~ 1000 4000;
#X obj 50 324 plot.response~ @sr 1 @db 1;
#X obj 50 353 ui.plot~ @xlabels 1 @ylabels 1 @ymin -60 @ymax 0
@ymin_ticks 0 @ymaj_ticks 0 @size 400 200;
#X obj 50 569 ui.dsp~;
#X obj 20 619 cnv 1 745 1 empty empty empty 17 7 0 10 -203890 -1 0;
#X obj 20 624 cnv 5 90 25 empty empty arguments: 4 12 0 14 -262144
-49933 0;
#X obj 735 627 ui.link @background_color 0.98039 0.98039 0.98039
@title [?] @url ceammc.args-info.pd;
#X text 110 659 1\.;
#X text 150 659 float;
#X obj 246 660 cnv 1 54 20 empty empty empty 17 7 0 10 -245695 -1 0;
#X text 245 659 F1(Hz): lower band frequency. Type: float. Range: 20\...1000;
#X text 110 679 2\.;
#X text 150 679 float;
#X obj 246 680 cnv 1 54 20 empty empty empty 17 7 0 10 -245695 -1 0;
#X text 245 679 F2(Hz): high band frequency. Type: float. Range: 1000\...20000;
#X obj 20 724 cnv 1 745 1 empty empty empty 17 7 0 10 -203890 -1 0;
#X obj 20 729 cnv 5 98 25 empty empty properties: 4 12 0 14 -262144
-49933 0;
#X obj 735 732 ui.link @background_color 0.98039 0.98039 0.98039
@title [?] @url ceammc.props-info.pd;
#X msg 110 764 @id;
#X text 245 764 (initonly) Get/Set OSC address id. If specified \,
bind all properties to /ID/flt_speaker/PROP_NAME osc address \, if
empty bind to /flt_speaker/PROP_NAME. Type: symbol.;
#X msg 110 821 @osc;
#X text 245 821 (initonly) Get/Set OSC server name to listen. Type:
symbol.;
#X msg 110 851 @active;
#X text 245 851 Turn on/off dsp processing. Type: bool. Default value:
1\.;
#X msg 110 881 @bypass;
#X text 245 881 Get/Set bypass flag. If true: bypass 'effected' signal.
Type: bool. Default value: 0\.;
#X msg 110 923 @drywet;
#X text 245 923 Get/Set proportion of mix between the original (dry)
and 'effected' (wet) signals. 0 - dry signal \, 1 - wet. Type: float.
Default value: 1\. Range: 0\...1\.;
#X msg 110 980 @f1;
#X text 245 980 Get/Set lower band frequency. Type: float. Units: 'Hz'.
Default value: 130\. Range: 20\...1000\.;
#X msg 110 1022 @f2;
#X text 245 1022 Get/Set high band frequency. Type: float. Units: 'Hz'.
Default value: 5000\. Range: 1000\...20000\.;
#X msg 110 1064 @gain;
#X text 245 1064 Get/Set filter gain. Type: float. Units: 'db'. Default
value: 0\. Range: -30\...30\.;
#X obj 20 1116 cnv 1 745 1 empty empty empty 17 7 0 10 -203890 -1 0;
#X obj 20 1121 cnv 5 73 25 empty empty methods: 4 12 0 14 -262144
-49933 0;
#X msg 110 1156 reset;
#X text 245 1156 reset filter state.;
#X obj 20 1194 cnv 1 745 1 empty empty empty 17 7 0 10 -203890 -1 0;
#X obj 20 1199 cnv 5 64 25 empty empty inlets: 4 12 0 14 -262144
-49933 0;
#X text 110 1200 1\.;
#X text 245 1200 input signal.;
#X text 110 1220 2\.;
#X text 150 1220 *float*;
#X text 245 1220 set @f1 property.;
#X text 110 1240 3\.;
#X text 150 1240 *float*;
#X text 245 1240 set @f2 property.;
#X obj 20 1270 cnv 1 745 1 empty empty empty 17 7 0 10 -203890 -1 0;
#X obj 20 1275 cnv 5 73 25 empty empty outlets: 4 12 0 14 -262144
-49933 0;
#X text 110 1276 1\.;
#X text 245 1276 filtered signal.;
#X obj 10 48 ui.link @title index @url ../index-help.pd;
#X text 51 45 ::;
#X obj 68 48 ui.link @title ceammc @url ceammc-help.pd;
#X text 116 45 ::;
#X obj 133 48 ui.link @title flt @url ceammc.flt-help.pd;
#X obj 1 1326 cnv 5 765 48 empty empty empty 17 7 0 10 -203890 -1 0;
#X text 10 1329 library: ceammc v0.9.7;
#X text 591 1341 see also:;
#X obj 666 1341 flt.bpf24~;
#N canvas 10 1348 400 290 info 0;
#X obj 1 1 cnv 1 107 287 empty empty empty 17 7 0 10 -183085 -1 0;
#X text 10 10 library:;
#X text 120 10 ceammc;
#X text 10 32 version:;
#X text 120 32 0.9.7;
#X text 10 54 object:;
#X text 120 54 flt.speaker~;
#X text 10 76 category:;
#X text 120 76 flt;
#X text 10 98 since:;
#X text 120 98 0.9.7;
#X text 10 120 authors:;
#X text 120 120 Serge Poltavsky;
#X text 10 142 license:;
#X text 120 142 GPL3 or later;
#X text 10 164 keywords:;
#X text 120 164 filter \, speaker \, bandpass \, bpf;
#X text 10 186 website:;
#X obj 120 189 ui.link @title https://github.com/uliss/pd-ceammc @url
https://github.com/uliss/pd-ceammc;
#X obj 120 208 declare -lib ceammc;
#X obj 120 268 cnv 1 270 1 empty empty empty 17 7 0 10 -203890 -1 0;
#X text 120 268 generated by pddoc;
#X restore 10 1348 pd info;
#X connect 8 0 11 0;
#X connect 9 0 12 0;
#X connect 11 0 13 0;
#X connect 12 0 13 0;
#X connect 13 0 14 0;
#X connect 14 0 15 0;
#X connect 14 2 15 1;
#X connect 9 0 14 1;