#N canvas 0 0 785 555 12;
#X declare -lib ceammc;
#X obj 529 50 cnv 1 236 23 empty empty empty 17 7 0 10 -245760 -1 0;
#X text 529 50 Simple resonant lowpass filter;
#X obj 1 1 cnv 5 765 40 empty empty flt.resonlp~ 20 20 0 20 -104026
-4096 0;
#X obj 652 11 flt.resonlp~;
#X obj 50 118 osc.saw~ 200;
#X obj 299 118 ui.dsp~;
#X obj 78 147 ui.hsl 500 5000 @show_value 1;
#X msg 78 176 @freq \$1;
#X obj 184 176 ui.hsl 0.5 50 @show_value 1;
#X msg 184 205 @q \$1;
#X obj 50 234 flt.resonlp~ 1000 20;
#X obj 50 262 ui.gain~ @size 120 14;
#X obj 290 262 ui.ssc~ @size 400 120;
#X obj 50 349 dac~;
#X obj 20 399 cnv 1 745 1 empty empty empty 17 7 0 10 -203890 -1 0;
#X obj 20 404 cnv 5 90 25 empty empty arguments: 4 10 0 14 -262144
-49933 0;
#X text 110 439 1\.;
#X text 150 439 float;
#X obj 246 440 cnv 1 69 20 empty empty empty 17 7 0 10 -245695 -1 0;
#X text 245 439 FREQ(Hz): center frequency. Type: float. Range: 20\...20000;
#X text 110 459 2\.;
#X text 150 459 float;
#X obj 246 460 cnv 1 17 20 empty empty empty 17 7 0 10 -245695 -1 0;
#X text 245 459 Q: Quality factor. Type: float. Range: 0.1\...100;
#X obj 20 489 cnv 1 745 1 empty empty empty 17 7 0 10 -203890 -1 0;
#X obj 20 494 cnv 5 98 25 empty empty properties: 4 10 0 14 -262144
-49933 0;
#X msg 110 529 @id;
#X text 245 529 (initonly) Get/Set OSC address id. If specified \,
bind all properties to /ID/flt_resonlp/PROP_NAME osc address \, if
empty bind to /flt_resonlp/PROP_NAME. Type: symbol.;
#X msg 110 586 @osc;
#X text 245 586 (initonly) Get/Set OSC server name to listen. Type:
symbol.;
#X msg 110 616 @active;
#X text 245 616 Turn on/off dsp processing. Type: bool. Default value:
1\.;
#X msg 110 646 @freq;
#X text 245 646 Get/Set center frequency. Type: float. Units: 'Hz'.
Default value: 1000\. Range: 20\...20000\.;
#X msg 110 688 @q;
#X text 245 688 Get/Set Quality factor. Type: float. Default value:
40\. Range: 0.1\...100\.;
#X obj 20 740 cnv 1 745 1 empty empty empty 17 7 0 10 -203890 -1 0;
#X obj 20 745 cnv 5 64 25 empty empty inlets: 4 10 0 14 -262144 -49933
0;
#X text 110 746 1\.;
#X text 245 746 input signal.;
#X text 110 766 2\.;
#X text 150 766 *float*;
#X text 245 766 set frequency.;
#X text 110 786 3\.;
#X text 150 786 *float*;
#X text 245 786 set Q-factor.;
#X obj 20 816 cnv 1 745 1 empty empty empty 17 7 0 10 -203890 -1 0;
#X obj 20 821 cnv 5 73 25 empty empty outlets: 4 10 0 14 -262144
-49933 0;
#X text 110 822 1\.;
#X text 245 822 filtered signal.;
#X obj 10 48 ui.link @title index @url ../index-help.pd;
#X text 51 45 ::;
#X obj 68 48 ui.link @title ceammc @url ceammc-help.pd;
#X text 116 45 ::;
#X obj 133 48 ui.link @title flt @url ceammc.flt-help.pd;
#X obj 1 872 cnv 5 765 48 empty empty empty 17 7 0 10 -203890 -1 0;
#X text 10 875 library: ceammc v0.9.7;
#X text 577 887 see also:;
#X obj 652 887 flt.resonbp~;
#N canvas 10 894 400 290 info 0;
#X obj 1 1 cnv 1 107 287 empty empty empty 17 7 0 10 -183085 -1 0;
#X text 10 10 library:;
#X text 120 10 ceammc;
#X text 10 32 version:;
#X text 120 32 0.9.7;
#X text 10 54 object:;
#X text 120 54 flt.resonlp~;
#X text 10 76 category:;
#X text 120 76 flt;
#X text 10 98 since:;
#X text 120 98 0.9.6;
#X text 10 120 authors:;
#X text 120 120 Serge Poltavsky;
#X text 10 142 license:;
#X text 120 142 GPL3 or later;
#X text 10 164 keywords:;
#X text 120 164 filter \, resonant \, lowpass;
#X text 10 186 website:;
#X obj 120 189 ui.link @title https://github.com/uliss/pd-ceammc @url
https://github.com/uliss/pd-ceammc;
#X obj 120 208 declare -lib ceammc;
#X obj 120 268 cnv 1 270 1 empty empty empty 17 7 0 10 -203890 -1 0;
#X text 120 268 generated by pddoc;
#X restore 10 894 pd info;
#X connect 6 0 7 0;
#X connect 8 0 9 0;
#X connect 4 0 10 0;
#X connect 7 0 10 0;
#X connect 9 0 10 0;
#X connect 10 0 11 0;
#X connect 11 0 13 0;
#X connect 11 0 13 1;
#X connect 10 0 12 0;