#N canvas 0 0 715 555 12;
#X obj 436 50 cnv 1 259 21 empty empty empty 17 7 0 10 -245760 -1 0;
#X text 436 50 gain boost|cut above some frequency;
#X obj 1 1 cnv 5 712 40 empty empty flt.highshelf~ 20 20 0 20 -104026
-4096 0;
#X obj 585 11 flt.highshelf~;
#X obj 50 118 noise~;
#X obj 136 118 tgl 15 0 empty empty empty 17 7 0 10 -262144 -1 -1 0 1;
#X floatatom 203 118 5 0 0 0 - - -;
#X floatatom 318 118 5 0 0 0 - - -;
#X obj 50 147 *~;
#X obj 146 147 bng 15 250 50 0 empty empty empty 17 7 0 10 -262144 -1
-1;
#X msg 203 147 freq \$1;
#X msg 318 147 gain \$1;
#X obj 50 176 flt.highshelf~ 3000 -15 id;
#X obj 50 205 dac~;
#X obj 270 205 print;
#X obj 20 244 cnv 1 685 1 empty empty empty 17 7 0 10 -203890 -1 0;
#X obj 20 249 cnv 5 80 16 empty empty arguments: 0 14 0 14 -262144
-49933 0;
#X text 120 254 1\.;
#X text 150 254 float;
#X obj 241 255 cnv 1 65 18 empty empty empty 17 7 0 10 -245695 -1 0;
#X text 240 254 freq(Hz):   starting frequency for the shelf\. ;
#X text 120 272 2\.;
#X text 150 272 float;
#X obj 241 273 cnv 1 66 18 empty empty empty 17 7 0 10 -245695 -1 0;
#X text 240 272 gain(db):   amount of boost or cut apply to the
signal\. ;
#X text 120 290 3\.;
#X text 150 290 symbol;
#X obj 241 291 cnv 1 22 18 empty empty empty 17 7 0 10 -245695 -1 0;
#X text 240 290 ID: object ID for OSC control\. ;
#X obj 20 318 cnv 1 685 1 empty empty empty 17 7 0 10 -203890 -1 0;
#X obj 20 323 cnv 5 63 16 empty empty methods: 0 14 0 14 -262144
-49933 0;
#X msg 120 328 freq;
#X text 240 328  Arguments are: ;
#X obj 240 356 cnv 1 21 21 empty empty empty 17 7 0 10 -245695 -1 0;
#X text 240 356 HZ: starting frequency for the shelf (e\.g\. \, 5000
Hz);
#X msg 120 384 gain;
#X text 240 384  Arguments are: ;
#X obj 240 412 cnv 1 21 21 empty empty empty 17 7 0 10 -245695 -1 0;
#X text 240 412 DB: amount of boost or cut apply to the signal (e\.g\.
\, +10 db);
#X obj 20 464 cnv 1 685 1 empty empty empty 17 7 0 10 -203890 -1 0;
#X obj 20 469 cnv 5 54 16 empty empty inlets: 0 14 0 14 -262144 -49933
0;
#X text 120 474 1\.;
#X text 240 474 input signal\. ;
#X text 150 492 *bang*;
#X text 240 492 outputs object internal state to rightmost outlet\. ;
#X obj 20 520 cnv 1 685 1 empty empty empty 17 7 0 10 -203890 -1 0;
#X obj 20 525 cnv 5 63 16 empty empty outlets: 0 14 0 14 -262144
-49933 0;
#X text 120 530 1\.;
#X text 240 530 filtered signal;
#X text 120 548 2\.;
#X text 240 548 information output;
#X obj 10 48 ui.link @title index @url ../index-help.pd;
#X text 51 45 ::;
#X obj 67 48 ui.link @title ceammc @url ceammc-help.pd;
#X text 115 45 ::;
#X obj 131 48 ui.link @title flt @url ceammc.flt-help.pd;
#X obj 1 596 cnv 5 712 48 empty empty empty 17 7 0 10 -203890 -1 0;
#X text 10 599 library: ceammc v0\.1;
#X text 394 611 see also:;
#X obj 464 611 flt.lowshelf~;
#X obj 574 611 flt.c_highshelf~;
#N canvas 10 618 400 250 info 0;
#X obj 1 1 cnv 1 107 247 empty empty empty 17 7 0 10 -183085 -1 0;
#X text 10 10 library:;
#X text 120 10 ceammc;
#X text 10 32 version:;
#X text 120 32 0\.1;
#X text 10 54 object:;
#X text 120 54 flt\.highshelf~;
#X text 10 76 category:;
#X text 120 76 flt;
#X text 10 98 since:;
#X text 120 98 0\.1;
#X text 10 120 authors:;
#X text 120 120 Alex Nadzharov \, Serge Poltavsky;
#X text 10 142 license:;
#X text 120 142 GPL3;
#X text 10 164 keywords:;
#X text 120 164 filter \, highshelf;
#X text 10 186 website:;
#X obj 120 189 ui.link @title https://github.com/uliss/pure-data @url
https://github.com/uliss/pure-data;
#X obj 120 228 cnv 1 270 1 empty empty empty 17 7 0 10 -203890 -1 0;
#X text 120 228 generated by pddoc;
#X restore 10 618 pd info;
#X connect 9 0 12 0;
#X connect 10 0 12 0;
#X connect 5 0 8 1;
#X connect 4 0 8 0;
#X connect 11 0 12 0;
#X connect 8 0 12 0;
#X connect 12 0 13 0;
#X connect 12 0 13 1;
#X connect 12 1 14 0;
#X connect 7 0 11 0;
#X connect 6 0 10 0;