#N canvas 0 0 785 555 12;
#X declare -lib ceammc;
#X obj 578 50 cnv 1 187 23 empty empty empty 17 7 0 10 -245760 -1 0;
#X text 578 50 second order IIR filter.;
#X obj 1 1 cnv 5 765 40 empty empty flt.biquad~ 20 20 0 20 -104026
-4096 0;
#X obj 659 11 flt.biquad~;
#X obj 210 80 cnv 1 555 114 empty empty empty 17 7 0 10 -257983 -1 0;
#X text 215 80 Digital biquad filter is a second-order recursive linear
filter \, containing two poles and two zeros.;
#X text 215 120 transfer function: H(z)=(b0 + b1*z⁻¹ + b2*z⁻²)/(1 +
a1*z⁻¹ + a2*z⁻²);
#X obj 215 160 ui.link @background_color 0.98039 0.98039 0.98039
@title wiki: Digital biquad             filter @url
https://en.wikipedia.org/wiki/Digital_biquad_filter;
#X msg 50 222 bang;
#X msg 146 222 0.5 0 0.5;
#X msg 261 222 0.5 0 0 -0.5 0.25;
#X msg 453 222 0.5 0.5;
#X obj 50 251 click~;
#X obj 146 251 nsig~ 5 0.5 0.5;
#X obj 50 309 flt.biquad~;
#X obj 50 338 plot.response~;
#X obj 50 366 ui.plot~ @size 400 165 @n 2 @ymin -1.6 @ymax 1.6
@ylabels 1 @xlabels 1 @ymin_ticks 0;
#X obj 50 539 ui.dsp~;
#X obj 20 589 cnv 1 745 1 empty empty empty 17 7 0 10 -203890 -1 0;
#X obj 20 594 cnv 5 98 25 empty empty properties: 4 12 0 14 -262144
-49933 0;
#X obj 735 597 ui.link @background_color 0.98039 0.98039 0.98039
@title [?] @url ceammc.props-info.pd;
#X msg 110 629 @active;
#X text 245 629 Turn on/off dsp processing. Type: bool. Default value:
1\.;
#X obj 20 669 cnv 1 745 1 empty empty empty 17 7 0 10 -203890 -1 0;
#X obj 20 674 cnv 5 73 25 empty empty methods: 4 12 0 14 -262144
-49933 0;
#X msg 110 709 reset;
#X text 245 709 reset filter state.;
#X obj 20 747 cnv 1 745 1 empty empty empty 17 7 0 10 -203890 -1 0;
#X obj 20 752 cnv 5 64 25 empty empty inlets: 4 12 0 14 -262144 -49933
0;
#X text 110 753 1\.;
#X text 245 753 input signal.;
#X text 110 773 2\.;
#X text 245 773 b0\.;
#X text 110 793 3\.;
#X text 245 793 b1\.;
#X text 110 813 4\.;
#X text 245 813 b2\.;
#X text 110 833 5\.;
#X text 245 833 a1\.;
#X text 110 853 6\.;
#X text 245 853 a2\.;
#X obj 20 883 cnv 1 745 1 empty empty empty 17 7 0 10 -203890 -1 0;
#X obj 20 888 cnv 5 73 25 empty empty outlets: 4 12 0 14 -262144
-49933 0;
#X text 110 889 1\.;
#X text 245 889 filtered signal.;
#X obj 10 48 ui.link @title index @url ../index-help.pd;
#X text 51 45 ::;
#X obj 68 48 ui.link @title ceammc @url ceammc-help.pd;
#X text 116 45 ::;
#X obj 133 48 ui.link @title flt @url ceammc.flt-help.pd;
#X obj 1 939 cnv 5 765 48 empty empty empty 17 7 0 10 -203890 -1 0;
#X text 10 942 library: ceammc v0.9.7;
#X text 502 954 see also:;
#X obj 577 954 flt.c_bpf~;
#X obj 666 954 flt.c_hpf~;
#N canvas 10 961 400 290 info 0;
#X obj 1 1 cnv 1 107 287 empty empty empty 17 7 0 10 -183085 -1 0;
#X text 10 10 library:;
#X text 120 10 ceammc;
#X text 10 32 version:;
#X text 120 32 0.9.7;
#X text 10 54 object:;
#X text 120 54 flt.biquad~;
#X text 10 76 category:;
#X text 120 76 flt;
#X text 10 98 since:;
#X text 120 98 0.1;
#X text 10 120 authors:;
#X text 120 120 Alex Nadzharov \, Serge Poltavsky;
#X text 10 142 license:;
#X text 120 142 GPL3 or later;
#X text 10 164 keywords:;
#X text 120 164 filter \, biquad;
#X text 10 186 website:;
#X obj 120 189 ui.link @title https://github.com/uliss/pd-ceammc @url
https://github.com/uliss/pd-ceammc;
#X obj 120 208 declare -lib ceammc;
#X obj 120 268 cnv 1 270 1 empty empty empty 17 7 0 10 -203890 -1 0;
#X text 120 268 generated by pddoc;
#X restore 10 961 pd info;
#X connect 8 0 12 0;
#X connect 9 0 13 0;
#X connect 10 0 13 0;
#X connect 11 0 13 0;
#X connect 12 0 14 0;
#X connect 14 0 15 0;
#X connect 15 0 16 0;
#X connect 15 1 16 1;
#X connect 15 2 16 2;
#X connect 13 0 14 1;
#X connect 13 1 14 2;
#X connect 13 2 14 3;
#X connect 13 3 14 4;
#X connect 13 4 14 5;
#X connect 8 0 15 1;