#N canvas 0 0 785 555 12;
#X declare -lib ceammc;
#X obj 422 50 cnv 1 343 23 empty empty empty 17 7 0 10 -245760 -1 0;
#X text 422 50 elliptic band-pass filter with -72db rolloff;
#X obj 1 1 cnv 5 765 40 empty empty flt.bpf72e~ 20 20 0 20 -104026
-4096 0;
#X obj 660 11 flt.bpf72e~;
#X obj 210 80 cnv 1 555 73 empty empty empty 17 7 0 10 -257983 -1 0;
#X text 215 120 Wiki:;
#X text 215 80 Band-pass filter passes frequencies within a certain
range and rejects frequencies outside that range.;
#X obj 255 122 ui.link @background_color 0.98039 0.98039 0.98039
@title Elliptic filter @url
https://en.wikipedia.org/wiki/Elliptic_filter;
#X obj 50 181 noise~;
#X obj 203 181 ui.dsp~;
#X obj 50 210 flt.bpf72e~ 300 1;
#X obj 203 239 flt.bpf72e~ 320 1.5;
#X obj 126 268 flt.bpf72e~ 280 0.25;
#X obj 50 297 pan.spread~ 3, f 22;
#X obj 50 325 ui.hgain2~;
#X obj 50 354 dac~;
#X obj 20 403 cnv 1 745 1 empty empty empty 17 7 0 10 -203890 -1 0;
#X obj 20 408 cnv 5 90 26 empty empty arguments: 4 10 0 14 -262144
-49933 0;
#X text 110 443 1\.;
#X text 150 443 float;
#X obj 246 444 cnv 1 69 20 empty empty empty 17 7 0 10 -245695 -1 0;
#X text 245 443 FREQ(Hz): center frequency. Type: float. Range: 20\...20000;
#X text 110 463 2\.;
#X text 150 463 float;
#X obj 246 464 cnv 1 16 20 empty empty empty 17 7 0 10 -245695 -1 0;
#X text 245 463 Q: quality factory: @freq/BANDWIDTH. Type: float. Range:
0.25\...32;
#X obj 20 508 cnv 1 745 1 empty empty empty 17 7 0 10 -203890 -1 0;
#X obj 20 513 cnv 5 98 26 empty empty properties: 4 10 0 14 -262144
-49933 0;
#X msg 110 548 @freq;
#X text 245 548 (initonly) Get/Set cutoff frequency. Type: float. Units:
'Hz'. Default value: 1000\. Range: 20\...20000\.;
#X msg 110 590 @id;
#X text 245 590 (initonly) Get/Set OSC address id. If specified \,
bind all properties to /ID/flt_bpf72e/PROP_NAME osc address \, if empty
bind to /flt_bpf72e/PROP_NAME. Type: symbol.;
#X msg 110 647 @osc;
#X text 245 647 (initonly) Get/Set OSC server name to listen. Type:
symbol.;
#X msg 110 676 @q;
#X text 245 676 (initonly) Get/Set quality factor: @freq/BANDWIDTH.
Type: float. Default value: 2\. Range: 0.25\...32\.;
#X msg 110 718 @active;
#X text 245 718 Turn on/off dsp processing. Type: bool. Default value:
1\.;
#X obj 20 757 cnv 1 745 1 empty empty empty 17 7 0 10 -203890 -1 0;
#X obj 20 762 cnv 5 73 26 empty empty methods: 4 10 0 14 -262144
-49933 0;
#X msg 110 797 reset;
#X text 245 797 reset filter state.;
#X obj 20 834 cnv 1 745 1 empty empty empty 17 7 0 10 -203890 -1 0;
#X obj 20 839 cnv 5 64 26 empty empty inlets: 4 10 0 14 -262144 -49933
0;
#X text 110 840 1\.;
#X text 245 840 input signal.;
#X obj 20 870 cnv 1 745 1 empty empty empty 17 7 0 10 -203890 -1 0;
#X obj 20 875 cnv 5 73 26 empty empty outlets: 4 10 0 14 -262144
-49933 0;
#X text 110 876 1\.;
#X text 245 876 filtered signal.;
#X obj 10 48 ui.link @title index @url ../index-help.pd;
#X text 51 45 ::;
#X obj 67 48 ui.link @title ceammc @url ceammc-help.pd;
#X text 115 45 ::;
#X obj 131 48 ui.link @title flt @url ceammc.flt-help.pd;
#X obj 1 926 cnv 5 765 48 empty empty empty 17 7 0 10 -203890 -1 0;
#X text 10 929 library: ceammc v0.9.6;
#X text 593 941 see also:;
#X obj 667 941 flt.bpf24~;
#N canvas 10 948 400 290 info 0;
#X obj 1 1 cnv 1 107 287 empty empty empty 17 7 0 10 -183085 -1 0;
#X text 10 10 library:;
#X text 120 10 ceammc;
#X text 10 32 version:;
#X text 120 32 0.9.6;
#X text 10 54 object:;
#X text 120 54 flt.bpf72e~;
#X text 10 76 category:;
#X text 120 76 flt;
#X text 10 98 since:;
#X text 120 98 0.9.7;
#X text 10 120 authors:;
#X text 120 120 Serge Poltavsky;
#X text 10 142 license:;
#X text 120 142 GPL3 or later;
#X text 10 164 keywords:;
#X text 120 164 filter \, elliptic \, bpf;
#X text 10 186 website:;
#X obj 120 189 ui.link @title https://github.com/uliss/pure-data @url
https://github.com/uliss/pure-data;
#X obj 120 208 declare -lib ceammc;
#X obj 120 268 cnv 1 270 1 empty empty empty 17 7 0 10 -203890 -1 0;
#X text 120 268 generated by pddoc;
#X restore 10 948 pd info;
#X connect 8 0 10 0;
#X connect 13 0 14 0;
#X connect 13 1 14 1;
#X connect 14 0 15 0;
#X connect 14 1 15 1;
#X connect 8 0 12 0;
#X connect 8 0 11 0;
#X connect 10 0 13 0;
#X connect 12 0 13 1;
#X connect 11 0 13 2;