#N canvas 0 0 715 555 12;
#X declare -lib ceammc;
#X obj 450 50 cnv 1 245 21 empty empty empty 17 7 0 10 -245760 -1 0;
#X text 450 50 Moog Voltage Controlled Filter;
#X obj 1 1 cnv 5 712 40 empty empty flt.moog_vcf~ 20 20 0 20 -104026
-4096 0;
#X obj 592 11 flt.moog_vcf~;
#X obj 184 118 tgl 15 0 empty empty empty 17 7 0 10 -262144 -1 -1 0 1;
#X obj 184 147 metro 100;
#X msg 184 176 100 200 300 500 600 1600;
#X floatatom 50 205 5 0 0 0 - - -;
#X obj 184 205 list.choice;
#X obj 318 205 ui.knob @size 32 32;
#X obj 50 234 phasor~ 50;
#X msg 184 234 @freq \$1;
#X msg 318 248 @res \$1;
#X obj 50 277 flt.moog_vcf~ 1000 0.9;
#X obj 50 305 ui.gain~ @size 120 16;
#X obj 50 334 dac~;
#X obj 50 363 ui.dsp~;
#X obj 20 402 cnv 1 685 1 empty empty empty 17 7 0 10 -203890 -1 0;
#X obj 20 407 cnv 5 90 26 empty empty arguments: 4 10 0 14 -262144
-49933 0;
#X text 120 412 1\.;
#X text 150 412 float;
#X obj 241 413 cnv 1 72 18 empty empty empty 17 7 0 10 -245695 -1 0;
#X text 240 412 freq(Hz): corner-resonance frequency.;
#X text 120 430 2\.;
#X text 150 430 float;
#X obj 241 431 cnv 1 31 18 empty empty empty 17 7 0 10 -245695 -1 0;
#X text 240 430 res: normalized amount of corner-resonance. Range:
0\...1;
#X text 120 448 3\.;
#X text 150 448 symbol;
#X obj 241 449 cnv 1 24 18 empty empty empty 17 7 0 10 -245695 -1 0;
#X text 240 448 ID: object ID for OSC control.;
#X obj 20 476 cnv 1 685 1 empty empty empty 17 7 0 10 -203890 -1 0;
#X obj 20 481 cnv 5 98 26 empty empty properties: 4 10 0 14 -262144
-49933 0;
#X msg 120 486 @freq;
#X text 240 486 Get/Set center frequency. Type: float. Units: Hz;
#X msg 120 513 @res;
#X text 240 513 Get/Set normalized amount of corner-resonance. Type:
float. Default value: 0.4\. Value range: 0-1;
#X obj 20 560 cnv 1 685 1 empty empty empty 17 7 0 10 -203890 -1 0;
#X obj 20 565 cnv 5 73 26 empty empty methods: 4 10 0 14 -262144
-49933 0;
#X msg 120 570 freq;
#X text 240 570 Arguments are:;
#X obj 250 598 cnv 1 22 21 empty empty empty 17 7 0 10 -245695 -1 0;
#X text 250 598 HZ: corner-resonance frequency. Type: float. Range:
20\...20000;
#X msg 120 640 res;
#X text 240 640 Arguments are:;
#X obj 250 668 cnv 1 96 21 empty empty empty 17 7 0 10 -245695 -1 0;
#X text 250 668 [anonym=0.4]: normalized amount of corner-resonance.
Type: float. Range: 0\...1;
#X obj 20 720 cnv 1 685 1 empty empty empty 17 7 0 10 -203890 -1 0;
#X obj 20 725 cnv 5 64 26 empty empty inlets: 4 10 0 14 -262144 -49933
0;
#X text 120 730 1\.;
#X text 240 730 input signal.;
#X obj 20 758 cnv 1 685 1 empty empty empty 17 7 0 10 -203890 -1 0;
#X obj 20 763 cnv 5 73 26 empty empty outlets: 4 10 0 14 -262144
-49933 0;
#X text 120 768 1\.;
#X text 240 768 filtered signal;
#X text 120 786 2\.;
#X text 240 786 information output;
#X obj 10 48 ui.link @title index @url ../index-help.pd;
#X text 51 45 ::;
#X obj 67 48 ui.link @title ceammc @url ceammc-help.pd;
#X text 115 45 ::;
#X obj 131 48 ui.link @title flt @url ceammc.flt-help.pd;
#X obj 1 834 cnv 5 712 48 empty empty empty 17 7 0 10 -203890 -1 0;
#X text 10 837 library: ceammc v0.6;
#N canvas 10 856 400 290 info 0;
#X obj 1 1 cnv 1 107 287 empty empty empty 17 7 0 10 -183085 -1 0;
#X text 10 10 library:;
#X text 120 10 ceammc;
#X text 10 32 version:;
#X text 120 32 0.6;
#X text 10 54 object:;
#X text 120 54 flt.moog_vcf~;
#X text 10 76 category:;
#X text 120 76 flt;
#X text 10 98 since:;
#X text 120 98 0.6;
#X text 10 120 authors:;
#X text 120 120 Serge Poltavsky;
#X text 10 142 license:;
#X text 120 142 GPL3;
#X text 10 164 keywords:;
#X text 120 164 moog \, vcf;
#X text 10 186 website:;
#X obj 120 189 ui.link @title https://github.com/uliss/pure-data @url
https://github.com/uliss/pure-data;
#X obj 120 208 declare -lib ceammc;
#X obj 120 268 cnv 1 270 1 empty empty empty 17 7 0 10 -203890 -1 0;
#X text 120 268 generated by pddoc;
#X restore 10 856 pd info;
#X connect 4 0 5 0;
#X connect 5 0 6 0;
#X connect 6 0 8 0;
#X connect 7 0 10 0;
#X connect 8 0 11 0;
#X connect 9 0 12 0;
#X connect 10 0 13 0;
#X connect 11 0 13 0;
#X connect 12 0 13 0;
#X connect 13 0 14 0;
#X connect 14 0 15 0;
#X connect 14 0 15 1;