#N canvas 0 0 785 555 12;
#X declare -lib ceammc;
#X obj 422 50 cnv 1 343 23 empty empty empty 17 7 0 10 -245760 -1 0;
#X text 422 50 HPF coefficient calculator for biquad filter;
#X obj 1 1 cnv 5 765 40 empty empty flt.c_hpf 20 20 0 20 -104026 -4096
0;
#X obj 416 11 ceammc/hpf->biquad;
#X obj 571 11 hpf->biquad;
#X obj 675 11 flt.c_hpf;
#X obj 210 80 cnv 1 555 50 empty empty empty 17 7 0 10 -257983 -1 0;
#X text 215 80 Calculates coefficients for transfer function: H(z)=(b0
+ b1*z⁻¹ + b2*z⁻²)/(1 + a1*z⁻¹ + a2*z⁻²);
#X obj 50 158 ui.hsl;
#X obj 366 158 ui.hsl;
#X floatatom 50 187 5 0 0 0 - - -;
#X floatatom 366 187 5 0 0 0 - - -;
#X obj 50 216 math.* expr(sr/2);
#X obj 366 216 math.* pi();
#X obj 50 245 flt.c_hpf;
#X obj 366 245 flt.c_hpf @rad;
#X obj 50 274 ui.dt @float_width 5;
#X obj 366 274 ui.dt @float_width 5;
#X obj 50 345 flt.c_hpf.plot;
#X obj 20 394 cnv 1 745 1 empty empty empty 17 7 0 10 -203890 -1 0;
#X obj 20 399 cnv 5 90 26 empty empty arguments: 4 10 0 14 -262144
-49933 0;
#X text 110 434 1\.;
#X text 150 434 float;
#X obj 246 435 cnv 1 69 20 empty empty empty 17 7 0 10 -245695 -1 0;
#X text 245 434 freq(Hz): center frequency. Type: float. Range: 20\...20000;
#X obj 20 464 cnv 1 745 1 empty empty empty 17 7 0 10 -203890 -1 0;
#X obj 20 469 cnv 5 98 26 empty empty properties: 4 10 0 14 -262144
-49933 0;
#X msg 110 504 @freq;
#X text 245 504 Get/Set center frequency. Type: float. Units: Hz. Default
value: 1000\. Range: 20\...22050\.;
#X msg 110 546 @q;
#X text 245 546 Get/Set quality factor: @freq/BANDWIDTH. Type: float.
Default value: 0.707107\. Range: 0.01\...100\.;
#X msg 110 588 @rad;
#X text 245 588 use angular frequency.;
#X obj 20 627 cnv 1 745 1 empty empty empty 17 7 0 10 -203890 -1 0;
#X obj 20 632 cnv 5 73 26 empty empty methods: 4 10 0 14 -262144
-49933 0;
#X msg 110 667 bw;
#X text 245 667 set bandwidth in octaves. Arguments are:;
#X obj 255 690 cnv 1 29 23 empty empty empty 17 7 0 10 -245695 -1 0;
#X text 255 690 OCT: bandwidth. Type: float.;
#X obj 20 725 cnv 1 745 1 empty empty empty 17 7 0 10 -203890 -1 0;
#X obj 20 730 cnv 5 64 26 empty empty inlets: 4 10 0 14 -262144 -49933
0;
#X text 110 731 1\.;
#X text 150 731 *float*;
#X text 245 731 filter frequency.;
#X obj 20 761 cnv 1 745 1 empty empty empty 17 7 0 10 -203890 -1 0;
#X obj 20 766 cnv 5 73 26 empty empty outlets: 4 10 0 14 -262144
-49933 0;
#X text 110 767 1\.;
#X text 245 767 list: b0 b1 b2 a1 a2\.;
#X obj 10 48 ui.link @title index @url ../index-help.pd;
#X text 51 45 ::;
#X obj 67 48 ui.link @title ceammc @url ceammc-help.pd;
#X text 115 45 ::;
#X obj 131 48 ui.link @title flt @url ceammc.flt-help.pd;
#X obj 1 817 cnv 5 765 48 empty empty empty 17 7 0 10 -203890 -1 0;
#X text 10 820 library: ceammc v0.9.3;
#X text 601 832 see also:;
#X obj 675 832 flt.c_lpf;
#N canvas 10 839 400 290 info 0;
#X obj 1 1 cnv 1 107 287 empty empty empty 17 7 0 10 -183085 -1 0;
#X text 10 10 library:;
#X text 120 10 ceammc;
#X text 10 32 version:;
#X text 120 32 0.9.3;
#X text 10 54 object:;
#X text 120 54 flt.c_hpf;
#X text 10 76 category:;
#X text 120 76 flt;
#X text 10 98 since:;
#X text 120 98 0.9.2;
#X text 10 120 authors:;
#X text 120 120 Serge Poltavsky;
#X text 10 142 license:;
#X text 120 142 GPL3 or later;
#X text 10 164 keywords:;
#X text 120 164 filter \, biquad \, hpf \, highpass;
#X text 10 186 website:;
#X obj 120 189 ui.link @title https://github.com/uliss/pure-data @url
https://github.com/uliss/pure-data;
#X obj 120 208 declare -lib ceammc;
#X obj 120 268 cnv 1 270 1 empty empty empty 17 7 0 10 -203890 -1 0;
#X text 120 268 generated by pddoc;
#X restore 10 839 pd info;
#X connect 8 0 10 0;
#X connect 9 0 11 0;
#X connect 10 0 12 0;
#X connect 11 0 13 0;
#X connect 12 0 14 0;
#X connect 13 0 15 0;
#X connect 14 0 16 0;
#X connect 15 0 17 0;