#N canvas 0 0 785 555 12;
#X declare -lib ceammc;
#X obj 521 50 cnv 1 244 23 empty empty empty 17 7 0 10 -245760 -1 0;
#X text 521 50 Simple resonant highpass filter;
#X obj 1 1 cnv 5 765 40 empty empty flt.resonhp~ 20 20 0 20 -104026
-4096 0;
#X obj 653 11 flt.resonhp~;
#X obj 50 118 osc.saw~ 15;
#X obj 184 118 noise~;
#X obj 290 118 ui.dsp~;
#X obj 213 147 tgl 15 0 empty empty empty 17 7 0 10 -262144 -1 -1 0 1;
#X obj 50 176 mux~ 2;
#X obj 78 205 ui.hsl 20 4000 @show_value 1;
#X msg 78 234 @freq \$1;
#X obj 184 234 ui.hsl 0.5 50 @show_value 1;
#X msg 184 262 @q \$1;
#X obj 50 291 flt.resonhp~ 440 10;
#X obj 50 320 dyn.limit~;
#X obj 50 349 ui.gain~ @size 120 14;
#X obj 290 349 ui.ssc~ @size 400 120 @log_scale 1;
#X obj 50 435 dac~;
#X obj 20 484 cnv 1 745 1 empty empty empty 17 7 0 10 -203890 -1 0;
#X obj 20 489 cnv 5 90 26 empty empty arguments: 4 10 0 14 -262144
-49933 0;
#X text 110 524 1\.;
#X text 150 524 float;
#X obj 246 525 cnv 1 69 20 empty empty empty 17 7 0 10 -245695 -1 0;
#X text 245 524 FREQ(Hz): center frequency. Type: float. Range: 20\...20000;
#X text 110 544 2\.;
#X text 150 544 float;
#X obj 246 545 cnv 1 16 20 empty empty empty 17 7 0 10 -245695 -1 0;
#X text 245 544 Q: Quality factor. Type: float. Range: 0.1\...100;
#X obj 20 574 cnv 1 745 1 empty empty empty 17 7 0 10 -203890 -1 0;
#X obj 20 579 cnv 5 98 26 empty empty properties: 4 10 0 14 -262144
-49933 0;
#X msg 110 614 @id;
#X text 245 614 (initonly) Get/Set OSC address id. If specified \,
bind all properties to /ID/flt_resonhp/PROP_NAME osc address \, if
empty bind to /flt_resonhp/PROP_NAME. Type: symbol.;
#X msg 110 671 @osc;
#X text 245 671 (initonly) Get/Set OSC server name to listen. Type:
symbol.;
#X msg 110 700 @active;
#X text 245 700 Turn on/off dsp processing. Type: bool. Default value:
1\.;
#X msg 110 729 @freq;
#X text 245 729 Get/Set center frequency. Type: float. Units: 'Hz'.
Default value: 100\. Range: 20\...20000\.;
#X msg 110 771 @q;
#X text 245 771 Get/Set Quality factor. Type: float. Default value:
20\. Range: 0.1\...100\.;
#X obj 20 823 cnv 1 745 1 empty empty empty 17 7 0 10 -203890 -1 0;
#X obj 20 828 cnv 5 64 26 empty empty inlets: 4 10 0 14 -262144 -49933
0;
#X text 110 829 1\.;
#X text 245 829 input signal.;
#X text 110 849 2\.;
#X text 150 849 *float*;
#X text 245 849 set frequency.;
#X text 110 869 3\.;
#X text 150 869 *float*;
#X text 245 869 set Q-factor.;
#X obj 20 899 cnv 1 745 1 empty empty empty 17 7 0 10 -203890 -1 0;
#X obj 20 904 cnv 5 73 26 empty empty outlets: 4 10 0 14 -262144
-49933 0;
#X text 110 905 1\.;
#X text 245 905 filtered signal.;
#X obj 10 48 ui.link @title index @url ../index-help.pd;
#X text 51 45 ::;
#X obj 67 48 ui.link @title ceammc @url ceammc-help.pd;
#X text 115 45 ::;
#X obj 131 48 ui.link @title flt @url ceammc.flt-help.pd;
#X obj 1 955 cnv 5 765 48 empty empty empty 17 7 0 10 -203890 -1 0;
#X text 10 958 library: ceammc v0.9.6;
#X text 477 970 see also:;
#X obj 551 970 flt.resonbp~;
#X obj 653 970 flt.resonlp~;
#N canvas 10 977 400 290 info 0;
#X obj 1 1 cnv 1 107 287 empty empty empty 17 7 0 10 -183085 -1 0;
#X text 10 10 library:;
#X text 120 10 ceammc;
#X text 10 32 version:;
#X text 120 32 0.9.6;
#X text 10 54 object:;
#X text 120 54 flt.resonhp~;
#X text 10 76 category:;
#X text 120 76 flt;
#X text 10 98 since:;
#X text 120 98 0.9.6;
#X text 10 120 authors:;
#X text 120 120 Serge Poltavsky;
#X text 10 142 license:;
#X text 120 142 GPL3 or later;
#X text 10 164 keywords:;
#X text 120 164 filter \, resonant \, highpass;
#X text 10 186 website:;
#X obj 120 189 ui.link @title https://github.com/uliss/pure-data @url
https://github.com/uliss/pure-data;
#X obj 120 208 declare -lib ceammc;
#X obj 120 268 cnv 1 270 1 empty empty empty 17 7 0 10 -203890 -1 0;
#X text 120 268 generated by pddoc;
#X restore 10 977 pd info;
#X connect 4 0 8 0;
#X connect 5 0 8 1;
#X connect 7 0 8 2;
#X connect 9 0 10 0;
#X connect 11 0 12 0;
#X connect 8 0 13 0;
#X connect 10 0 13 0;
#X connect 12 0 13 0;
#X connect 13 0 14 0;
#X connect 14 0 15 0;
#X connect 15 0 17 0;
#X connect 15 0 17 1;
#X connect 13 0 16 0;