#N canvas 0 0 190 201 12;
#X obj 20 48 sig~ 2;
#X obj 87 77 env~;
#X floatatom 87 106 5 0 0 0 - - -;
#X obj 20 135 flt.dcblock2~;
#X obj 20 164 env~;
#X obj 135 164 env~;
#X floatatom 20 192 5 0 0 0 - - -;
#X floatatom 135 192 5 0 0 0 - - -;
#X connect 3 1 5 0;
#X connect 5 0 7 0;
#X connect 3 0 4 0;
#X connect 0 0 3 0;
#X connect 1 0 2 0;
#X connect 0 0 1 0;
#X connect 4 0 6 0;
