#N canvas 0 0 785 555 12;
#X declare -lib ceammc;
#X obj 598 50 cnv 1 167 23 empty empty empty 17 7 0 10 -245760 -1 0;
#X text 598 50 band-rejection filter;
#X obj 1 1 cnv 5 765 40 empty empty flt.notch~ 20 20 0 20 -104026
-4096 0;
#X obj 666 11 flt.notch~;
#X obj 210 80 cnv 1 555 65 empty empty empty 17 7 0 10 -257983 -1 0;
#X text 215 80 filter that passes most frequencies unaltered \, but
attenuates those in a specific range to very low levels. It is the
opposite of a band-pass filter.;
#X obj 50 173 osc~ 1000;
#X obj 165 173 tgl 15 0 empty empty empty 17 7 0 10 -262144 -1 -1 0 1;
#X obj 50 202 *~;
#X floatatom 107 231 5 0 0 0 - - -;
#X msg 107 260 @freq \$1;
#X obj 50 289 flt.notch~ 1000 10;
#X obj 50 317 ui.gain~ @size 120 16;
#X obj 50 346 dac~;
#X obj 50 375 ui.dsp~;
#X obj 20 425 cnv 1 745 1 empty empty empty 17 7 0 10 -203890 -1 0;
#X obj 20 430 cnv 5 90 25 empty empty arguments: 4 12 0 14 -262144
-49933 0;
#X obj 735 433 ui.link @background_color 0.98039 0.98039 0.98039
@title [?] @url ceammc.args-info.pd;
#X text 110 465 1\.;
#X text 150 465 float;
#X obj 246 466 cnv 1 69 20 empty empty empty 17 7 0 10 -245695 -1 0;
#X text 245 465 FREQ(Hz): center frequency. Type: float. Range: 20\...20000;
#X text 110 485 2\.;
#X text 150 485 float;
#X obj 246 486 cnv 1 79 20 empty empty empty 17 7 0 10 -245695 -1 0;
#X text 245 485 WIDTH(Hz): band width (approximate). Type: float. Range:
1\...10000;
#X obj 20 530 cnv 1 745 1 empty empty empty 17 7 0 10 -203890 -1 0;
#X obj 20 535 cnv 5 98 25 empty empty properties: 4 12 0 14 -262144
-49933 0;
#X obj 735 538 ui.link @background_color 0.98039 0.98039 0.98039
@title [?] @url ceammc.props-info.pd;
#X msg 110 570 @id;
#X text 245 570 (initonly) Get/Set OSC address id. If specified \,
bind all properties to /ID/flt_notch/PROP_NAME osc address \, if empty
bind to /flt_notch/PROP_NAME. Type: symbol.;
#X msg 110 627 @osc;
#X text 245 627 (initonly) Get/Set OSC server name to listen. Type:
symbol.;
#X msg 110 657 @active;
#X text 245 657 Turn on/off dsp processing. Type: bool. Default value:
1\.;
#X msg 110 687 @freq;
#X text 245 687 Get/Set center frequency. Type: float. Units: 'Hz'.
Default value: 1000\. Range: 20\...20000\.;
#X msg 110 729 @width;
#X text 245 729 Get/Set band width (approximate). Type: float. Units:
'Hz'. Default value: 50\. Range: 1\...10000\.;
#X obj 20 781 cnv 1 745 1 empty empty empty 17 7 0 10 -203890 -1 0;
#X obj 20 786 cnv 5 64 25 empty empty inlets: 4 12 0 14 -262144 -49933
0;
#X text 110 787 1\.;
#X text 245 787 input signal.;
#X text 110 807 2\.;
#X text 150 807 *float*;
#X text 245 807 set frequency.;
#X obj 20 837 cnv 1 745 1 empty empty empty 17 7 0 10 -203890 -1 0;
#X obj 20 842 cnv 5 73 25 empty empty outlets: 4 12 0 14 -262144
-49933 0;
#X text 110 843 1\.;
#X text 245 843 filtered signal.;
#X obj 10 48 ui.link @title index @url ../index-help.pd;
#X text 51 45 ::;
#X obj 68 48 ui.link @title ceammc @url ceammc-help.pd;
#X text 116 45 ::;
#X obj 133 48 ui.link @title flt @url ceammc.flt-help.pd;
#X obj 1 893 cnv 5 765 48 empty empty empty 17 7 0 10 -203890 -1 0;
#X text 10 896 library: ceammc v0.9.7;
#X text 591 908 see also:;
#X obj 666 908 flt.bpf12~;
#N canvas 10 915 400 290 info 0;
#X obj 1 1 cnv 1 107 287 empty empty empty 17 7 0 10 -183085 -1 0;
#X text 10 10 library:;
#X text 120 10 ceammc;
#X text 10 32 version:;
#X text 120 32 0.9.7;
#X text 10 54 object:;
#X text 120 54 flt.notch~;
#X text 10 76 category:;
#X text 120 76 flt;
#X text 10 98 since:;
#X text 120 98 0.1;
#X text 10 120 authors:;
#X text 120 120 Serge Poltavsky;
#X text 10 142 license:;
#X text 120 142 GPL3 or later;
#X text 10 164 keywords:;
#X text 120 164 filter \, lowshelf;
#X text 10 186 website:;
#X obj 120 189 ui.link @title https://github.com/uliss/pd-ceammc @url
https://github.com/uliss/pd-ceammc;
#X obj 120 208 declare -lib ceammc;
#X obj 120 268 cnv 1 270 1 empty empty empty 17 7 0 10 -203890 -1 0;
#X text 120 268 generated by pddoc;
#X restore 10 915 pd info;
#X connect 6 0 8 0;
#X connect 7 0 8 1;
#X connect 9 0 10 0;
#X connect 8 0 11 0;
#X connect 10 0 11 0;
#X connect 11 0 12 0;
#X connect 12 0 13 0;
#X connect 12 0 13 1;