#N canvas 0 0 785 555 12;
#X declare -lib ceammc;
#X obj 643 50 cnv 1 122 23 empty empty empty 17 7 0 10 -245760 -1 0;
#X text 643 50 mono DC blocker;
#X obj 1 1 cnv 5 765 40 empty empty flt.dcblock~ 20 20 0 20 -104026
-4096 0;
#X obj 652 11 flt.dcblock~;
#X obj 210 80 cnv 1 555 50 empty empty empty 17 7 0 10 -257983 -1 0;
#X text 215 80 Mono DC blocker. It has -3dB point near 35 Hz (at 44.1
kHz) and high-frequency gain near 1.0025 (due to no scaling);
#X obj 50 158 sig~ 2;
#X obj 69 187 env~;
#X floatatom 69 216 5 0 0 0 - - -;
#X obj 50 245 flt.dcblock~;
#X obj 50 274 env~;
#X floatatom 50 302 5 0 0 0 - - -;
#X obj 20 334 cnv 1 745 1 empty empty empty 17 7 0 10 -203890 -1 0;
#X obj 20 339 cnv 5 98 25 empty empty properties: 4 10 0 14 -262144
-49933 0;
#X msg 110 374 @active;
#X text 245 374 Turn on/off dsp processing. Type: bool. Default value:
1\.;
#X obj 20 414 cnv 1 745 1 empty empty empty 17 7 0 10 -203890 -1 0;
#X obj 20 419 cnv 5 64 25 empty empty inlets: 4 10 0 14 -262144 -49933
0;
#X text 110 420 1\.;
#X text 245 420 input signal.;
#X obj 20 450 cnv 1 745 1 empty empty empty 17 7 0 10 -203890 -1 0;
#X obj 20 455 cnv 5 73 25 empty empty outlets: 4 10 0 14 -262144
-49933 0;
#X text 110 456 1\.;
#X text 245 456 output signal.;
#X obj 10 48 ui.link @title index @url ../index-help.pd;
#X text 51 45 ::;
#X obj 68 48 ui.link @title ceammc @url ceammc-help.pd;
#X text 116 45 ::;
#X obj 133 48 ui.link @title flt @url ceammc.flt-help.pd;
#X obj 1 506 cnv 5 765 48 empty empty empty 17 7 0 10 -203890 -1 0;
#X text 10 509 library: ceammc v0.9.7;
#X text 570 521 see also:;
#X obj 645 521 flt.dcblock2~;
#N canvas 10 528 400 290 info 0;
#X obj 1 1 cnv 1 107 287 empty empty empty 17 7 0 10 -183085 -1 0;
#X text 10 10 library:;
#X text 120 10 ceammc;
#X text 10 32 version:;
#X text 120 32 0.9.7;
#X text 10 54 object:;
#X text 120 54 flt.dcblock~;
#X text 10 76 category:;
#X text 120 76 flt;
#X text 10 98 since:;
#X text 120 98 0.1;
#X text 10 120 authors:;
#X text 120 120 Alex Nadzharov \, Serge Poltavsky;
#X text 10 142 license:;
#X text 120 142 GPL3 or later;
#X text 10 164 keywords:;
#X text 120 164 filter \, dcblock;
#X text 10 186 website:;
#X obj 120 189 ui.link @title https://github.com/uliss/pd-ceammc @url
https://github.com/uliss/pd-ceammc;
#X obj 120 208 declare -lib ceammc;
#X obj 120 268 cnv 1 270 1 empty empty empty 17 7 0 10 -203890 -1 0;
#X text 120 268 generated by pddoc;
#X restore 10 528 pd info;
#X connect 6 0 7 0;
#X connect 7 0 8 0;
#X connect 6 0 9 0;
#X connect 9 0 10 0;
#X connect 10 0 11 0;