#N canvas 0 0 842 414 12;
#X obj 20 48 midiin;
#X obj 125 48 ui.k 0 16383 @show_value 1;
#X obj 221 48 ui.k -8192 8191 @show_value 1;
#X obj 327 48 ui.k -1 1 @show_value 1;
#X obj 20 106 msg midi;
#X msg 125 106 pan \$1;
#X msg 221 106 pan:i \$1;
#X msg 327 106 pan:f \$1;
#X obj 20 135 fluid~;
#X obj 20 164 ui.hgain2~;
#X obj 173 164 ui.dsp~;
#X obj 20 192 dac~;
#X connect 0 0 4 0;
#X connect 1 0 5 0;
#X connect 2 0 6 0;
#X connect 3 0 7 0;
#X connect 4 0 8 0;
#X connect 5 0 8 0;
#X connect 6 0 8 0;
#X connect 7 0 8 0;
#X connect 8 0 9 0;
#X connect 8 1 9 1;
#X connect 9 0 11 0;
#X connect 9 1 11 1;
