#N canvas 0 0 785 555 12;
#X declare -lib ceammc;
#X obj 507 50 cnv 1 258 23 empty empty empty 17 7 0 10 -245760 -1 0;
#X text 507 50 bit downer and downsampler effect;
#X obj 1 1 cnv 5 765 40 empty empty fx.bitdown~ 20 20 0 20 -104026
-4096 0;
#X obj 660 11 fx.bitdown~;
#X msg 50 118 open %CEAMMC%/guitar1.wav \, 1;
#X obj 50 147 expand_env;
#X floatatom 174 147 5 0 0 0 - - -;
#X floatatom 280 147 5 0 0 0 - - -;
#X obj 50 176 readsf~;
#X msg 174 176 @bits \$1;
#X msg 280 176 @downsamp \$1;
#X obj 50 234 fx.bitdown~ 8 12;
#X obj 50 262 ui.gain~ @size 120 14;
#X obj 280 262 ui.dsp~;
#X obj 50 291 dac~;
#X obj 20 340 cnv 1 745 1 empty empty empty 17 7 0 10 -203890 -1 0;
#X obj 20 345 cnv 5 90 26 empty empty arguments: 4 10 0 14 -262144
-49933 0;
#X text 110 380 1\.;
#X text 150 380 int;
#X obj 246 381 cnv 1 39 20 empty empty empty 17 7 0 10 -245695 -1 0;
#X text 245 380 BITS: number of bits. Type: int. Range: 1\...16;
#X text 110 400 2\.;
#X text 150 400 int;
#X obj 246 401 cnv 1 115 20 empty empty empty 17 7 0 10 -245695 -1 0;
#X text 245 400 DOWNSAMP(samp): number of samples to skip. Type: int.
Range: 1\...200;
#X obj 20 445 cnv 1 745 1 empty empty empty 17 7 0 10 -203890 -1 0;
#X obj 20 450 cnv 5 98 26 empty empty properties: 4 10 0 14 -262144
-49933 0;
#X msg 110 485 @active;
#X text 245 485 Get/Set on/off dsp processing. Type: bool. Default
value: 1\.;
#X msg 110 514 @bits;
#X text 245 514 Get/Set output bits. Type: int. Default value: 16\.
Range: 1\...16\.;
#X msg 110 556 @bypass;
#X text 245 556 Get/Set if set to 1 - bypass 'effected' signal. Type:
bool. Default value: 0\.;
#X msg 110 598 @downsamp;
#X text 245 598 Get/Set number samples to skip. Type: int. Units: samp.
Default value: 1\. Range: 1\...200\.;
#X msg 110 640 @id;
#X text 245 640 (initonly) Get/Set OSC address id. If specified \,
bind properties to /ID/fx_bitdown/PROP_NAME osc address \, if empty
bind to /fx_bitdown/PROP_NAME. Type: symbol.;
#X msg 110 697 @osc;
#X text 245 697 (initonly) Get/Set OSC server name to listen. Type:
symbol.;
#X obj 20 736 cnv 1 745 1 empty empty empty 17 7 0 10 -203890 -1 0;
#X obj 20 741 cnv 5 73 26 empty empty methods: 4 10 0 14 -262144
-49933 0;
#X msg 110 776 reset;
#X text 245 776 reset object.;
#X obj 20 813 cnv 1 745 1 empty empty empty 17 7 0 10 -203890 -1 0;
#X obj 20 818 cnv 5 64 26 empty empty inlets: 4 10 0 14 -262144 -49933
0;
#X text 110 819 1\.;
#X text 245 819 left channel.;
#X obj 20 849 cnv 1 745 1 empty empty empty 17 7 0 10 -203890 -1 0;
#X obj 20 854 cnv 5 73 26 empty empty outlets: 4 10 0 14 -262144
-49933 0;
#X text 110 855 1\.;
#X text 245 855 output.;
#X obj 10 48 ui.link @title index @url ../index-help.pd;
#X text 51 45 ::;
#X obj 67 48 ui.link @title ceammc @url ceammc-help.pd;
#X text 115 45 ::;
#X obj 131 48 ui.link @title fx @url ceammc.fx-help.pd;
#X obj 1 905 cnv 5 765 48 empty empty empty 17 7 0 10 -203890 -1 0;
#X text 10 908 library: ceammc v0.9.6;
#N canvas 10 927 400 290 info 0;
#X obj 1 1 cnv 1 107 287 empty empty empty 17 7 0 10 -183085 -1 0;
#X text 10 10 library:;
#X text 120 10 ceammc;
#X text 10 32 version:;
#X text 120 32 0.9.6;
#X text 10 54 object:;
#X text 120 54 fx.bitdown~;
#X text 10 76 category:;
#X text 120 76 fx;
#X text 10 98 since:;
#X text 120 98 0.7;
#X text 10 120 authors:;
#X text 120 120 Viacheslav Lotsmanov \, Serge Poltavsky;
#X text 10 142 license:;
#X text 120 142 GPL3 or later;
#X text 10 164 keywords:;
#X text 120 164 fx \, bits \, downsample;
#X text 10 186 website:;
#X obj 120 189 ui.link @title https://github.com/uliss/pure-data @url
https://github.com/uliss/pure-data;
#X obj 120 208 declare -lib ceammc;
#X obj 120 268 cnv 1 270 1 empty empty empty 17 7 0 10 -203890 -1 0;
#X text 120 268 generated by pddoc;
#X restore 10 927 pd info;
#X connect 4 0 5 0;
#X connect 5 0 8 0;
#X connect 6 0 9 0;
#X connect 7 0 10 0;
#X connect 8 0 11 0;
#X connect 9 0 11 0;
#X connect 10 0 11 0;
#X connect 11 0 12 0;
#X connect 12 0 14 0;
#X connect 12 0 14 1;