#N canvas 0 0 785 555 12;
#X declare -lib ceammc;
#X obj 660 50 cnv 1 105 23 empty empty empty 17 7 0 10 -245760 -1 0;
#X text 660 50 Chorus effect;
#X obj 1 1 cnv 5 765 40 empty empty fx.chorus~ 20 20 0 20 -104026
-4096 0;
#X obj 666 11 fx.chorus~;
#X msg 50 118 open %CEAMMC%/guitar1.wav \, 1;
#X obj 50 147 expand_env;
#X obj 174 147 ui.knob;
#X floatatom 290 147 5 0 0 0 - - -;
#X floatatom 405 147 5 0 0 0 - - -;
#X obj 50 205 readsf~;
#X msg 174 205 @depth \$1;
#X msg 290 205 @delay \$1;
#X msg 405 205 @freq \$1;
#X obj 50 262 fx.chorus~;
#X obj 50 291 ui.gain~ @size 120 14;
#X obj 280 291 ui.dsp~;
#X obj 50 320 dac~;
#X obj 20 370 cnv 1 745 1 empty empty empty 17 7 0 10 -203890 -1 0;
#X obj 20 375 cnv 5 98 25 empty empty properties: 4 10 0 14 -262144
-49933 0;
#X msg 110 410 @id;
#X text 245 410 (initonly) Get/Set OSC address id. If specified \,
bind all properties to /ID/fx_chorus/PROP_NAME osc address \, if empty
bind to /fx_chorus/PROP_NAME. Type: symbol.;
#X msg 110 467 @osc;
#X text 245 467 (initonly) Get/Set OSC server name to listen. Type:
symbol.;
#X msg 110 497 @active;
#X text 245 497 Turn on/off dsp processing. Type: bool. Default value:
1.;
#X msg 110 527 @bypass;
#X text 245 527 Get/Set bypass flag. If true: bypass 'effected' signal.
Type: bool. Default value: 0.;
#X msg 110 569 @delay;
#X text 245 569 Get/Set delay amount. Type: float. Units: 'ms'. Default
value: 25. Range: 0...200.;
#X msg 110 611 @depth;
#X text 245 611 Get/Set effect depth. Type: float. Default value: 0.02.
Range: 0...1.;
#X msg 110 653 @drywet;
#X text 245 653 Get/Set Ratio between processed signal (wet) and source
signal. Type: float. Default value: 1. Range: 0...1.;
#X msg 110 695 @freq;
#X text 245 695 Get/Set effect freq. Type: float. Units: 'Hz'. Default
value: 3. Range: 0...10.;
#X obj 20 747 cnv 1 745 1 empty empty empty 17 7 0 10 -203890 -1 0;
#X obj 20 752 cnv 5 73 25 empty empty methods: 4 10 0 14 -262144
-49933 0;
#X msg 110 787 reset;
#X text 245 787 reset object.;
#X obj 20 825 cnv 1 745 1 empty empty empty 17 7 0 10 -203890 -1 0;
#X obj 20 830 cnv 5 64 25 empty empty inlets: 4 10 0 14 -262144 -49933
0;
#X text 110 831 1.;
#X text 245 831 input signal.;
#X obj 20 861 cnv 1 745 1 empty empty empty 17 7 0 10 -203890 -1 0;
#X obj 20 866 cnv 5 73 25 empty empty outlets: 4 10 0 14 -262144
-49933 0;
#X text 110 867 1.;
#X text 245 867 output.;
#X obj 10 48 ui.link @title index @url ../index-help.pd;
#X text 51 45 ::;
#X obj 68 48 ui.link @title ceammc @url ceammc-help.pd;
#X text 116 45 ::;
#X obj 133 48 ui.link @title fx @url ceammc.fx-help.pd;
#X obj 1 917 cnv 5 765 48 empty empty empty 17 7 0 10 -203890 -1 0;
#X text 10 920 library: ceammc v0.9.7;
#N canvas 10 939 400 290 info 0;
#X obj 1 1 cnv 1 107 287 empty empty empty 17 7 0 10 -183085 -1 0;
#X text 10 10 library:;
#X text 120 10 ceammc;
#X text 10 32 version:;
#X text 120 32 0.9.7;
#X text 10 54 object:;
#X text 120 54 fx.chorus~;
#X text 10 76 category:;
#X text 120 76 fx;
#X text 10 98 since:;
#X text 120 98 0.7;
#X text 10 120 authors:;
#X text 120 120 Albert Graef \, Serge Poltavsky;
#X text 10 142 license:;
#X text 120 142 GPL3 or later;
#X text 10 164 keywords:;
#X text 120 164 fx \, chorus;
#X text 10 186 website:;
#X obj 120 189 ui.link @title https://github.com/uliss/pd-ceammc @url
https://github.com/uliss/pd-ceammc;
#X obj 120 208 declare -lib ceammc;
#X obj 120 268 cnv 1 270 1 empty empty empty 17 7 0 10 -203890 -1 0;
#X text 120 268 generated by pddoc;
#X restore 10 939 pd info;
#X connect 4 0 5 0;
#X connect 5 0 9 0;
#X connect 6 0 10 0;
#X connect 7 0 11 0;
#X connect 8 0 12 0;
#X connect 9 0 13 0;
#X connect 10 0 13 0;
#X connect 11 0 13 0;
#X connect 12 0 13 0;
#X connect 13 0 14 0;
#X connect 14 0 16 0;
#X connect 14 0 16 1;