#N canvas 0 0 785 555 12;
#X declare -lib ceammc;
#X obj 483 50 cnv 1 282 23 empty empty empty 17 7 0 10 -245760 -1 0;
#X text 483 50 mono sympathetic resonance generator;
#X obj 1 1 cnv 5 765 40 empty empty fx.drone_box~ 20 20 0 20 -104026
-4096 0;
#X obj 645 11 fx.drone_box~;
#X obj 50 118 bng 15 250 50 0 empty empty empty 17 7 0 10 -262144 -1
-1;
#X obj 50 147 click~;
#X obj 50 176 flt.resonbp~ 100 10;
#X obj 50 205 *~ 20;
#X obj 174 205 adc~ 1;
#X obj 261 205 tgl 15 0 empty empty empty 17 7 0 10 -262144 -1 -1 0 1;
#X obj 174 234 *~ 0;
#X obj 50 262 fx.drone_box~ 48;
#X obj 50 291 ui.gain~ @size 120 16;
#X obj 290 291 ui.dsp~;
#X obj 50 320 dac~;
#X obj 20 369 cnv 1 745 1 empty empty empty 17 7 0 10 -203890 -1 0;
#X obj 20 374 cnv 5 90 26 empty empty arguments: 4 10 0 14 -262144
-49933 0;
#X text 110 409 1\.;
#X text 150 409 float;
#X obj 246 410 cnv 1 46 20 empty empty empty 17 7 0 10 -245695 -1 0;
#X text 245 409 PITCH: drone MIDI pitch. Type: float. Range: 36\...60;
#X obj 20 439 cnv 1 745 1 empty empty empty 17 7 0 10 -203890 -1 0;
#X obj 20 444 cnv 5 98 26 empty empty properties: 4 10 0 14 -262144
-49933 0;
#X msg 110 479 @id;
#X text 245 479 (initonly) Get/Set OSC address id. If specified \,
bind properties to /ID/fx_drone_box/PROP_NAME osc address \, if empty
bind to /fx_drone_box/PROP_NAME. Type: symbol.;
#X msg 110 536 @osc;
#X text 245 536 (initonly) Get/Set OSC server name to listen. Type:
symbol.;
#X msg 110 565 @active;
#X text 245 565 Turn on/off dsp processing. Type: bool. Default value:
1\.;
#X msg 110 594 @bypass;
#X text 245 594 Get/Set if set to 1 - bypass 'effected' signal. Type:
bool. Default value: 0\.;
#X msg 110 636 @decay;
#X text 245 636 Get/Set drone pluck decay time. Type: float. Units:
ms. Default value: 4000\. Range: 100\...120000\.;
#X msg 110 678 @drywet;
#X text 245 678 Get/Set proportion of mix between the original (dry)
and 'effected' (wet) signals. 0 - dry signal \, 1 - wet. Type: float.
Default value: 0.5\. Range: 0\...1\.;
#X msg 110 735 @pitch;
#X text 245 735 Get/Set drone MIDI pitch. Type: float. Default value:
48\. Range: 36\...60\.;
#X obj 20 787 cnv 1 745 1 empty empty empty 17 7 0 10 -203890 -1 0;
#X obj 20 792 cnv 5 73 26 empty empty methods: 4 10 0 14 -262144
-49933 0;
#X msg 110 827 reset;
#X text 245 827 reset object.;
#X obj 20 864 cnv 1 745 1 empty empty empty 17 7 0 10 -203890 -1 0;
#X obj 20 869 cnv 5 64 26 empty empty inlets: 4 10 0 14 -262144 -49933
0;
#X text 110 870 1\.;
#X text 245 870 input signal.;
#X text 110 890 2\.;
#X text 150 890 *float*;
#X text 245 890 set drone pitch.;
#X obj 20 920 cnv 1 745 1 empty empty empty 17 7 0 10 -203890 -1 0;
#X obj 20 925 cnv 5 73 26 empty empty outlets: 4 10 0 14 -262144
-49933 0;
#X text 110 926 1\.;
#X text 245 926 output signal.;
#X obj 10 48 ui.link @title index @url ../index-help.pd;
#X text 51 45 ::;
#X obj 67 48 ui.link @title ceammc @url ceammc-help.pd;
#X text 115 45 ::;
#X obj 131 48 ui.link @title fx @url ceammc.fx-help.pd;
#X obj 1 976 cnv 5 765 48 empty empty empty 17 7 0 10 -203890 -1 0;
#X text 10 979 library: ceammc v0.9.6;
#N canvas 10 998 400 290 info 0;
#X obj 1 1 cnv 1 107 287 empty empty empty 17 7 0 10 -183085 -1 0;
#X text 10 10 library:;
#X text 120 10 ceammc;
#X text 10 32 version:;
#X text 120 32 0.9.6;
#X text 10 54 object:;
#X text 120 54 fx.drone_box~;
#X text 10 76 category:;
#X text 120 76 fx;
#X text 10 98 since:;
#X text 120 98 0.6;
#X text 10 120 authors:;
#X text 120 120 Oliver Larkin \, Serge Poltavsky;
#X text 10 142 license:;
#X text 120 142 GPL3 or later;
#X text 10 164 keywords:;
#X text 120 164 fx \, drone;
#X text 10 186 website:;
#X obj 120 189 ui.link @title https://github.com/uliss/pure-data @url
https://github.com/uliss/pure-data;
#X obj 120 208 declare -lib ceammc;
#X obj 120 268 cnv 1 270 1 empty empty empty 17 7 0 10 -203890 -1 0;
#X text 120 268 generated by pddoc;
#X restore 10 998 pd info;
#X connect 4 0 5 0;
#X connect 5 0 6 0;
#X connect 6 0 7 0;
#X connect 8 0 10 0;
#X connect 9 0 10 1;
#X connect 7 0 11 0;
#X connect 10 0 11 0;
#X connect 11 0 12 0;
#X connect 12 0 14 0;
#X connect 12 0 14 1;