#N canvas 0 0 785 555 12;
#X declare -lib ceammc;
#X obj 468 50 cnv 1 297 23 empty empty empty 17 7 0 10 -245760 -1 0;
#X text 468 50 freeverb2 - stereo version of freeverb;
#X obj 1 1 cnv 5 765 40 empty empty fx.freeverb2~ 20 20 0 20 -104026
-4096 0;
#X obj 645 11 fx.freeverb2~;
#X obj 210 80 cnv 1 555 95 empty empty empty 17 7 0 10 -257983 -1 0;
#X text 215 80 A simple Schroeder reverberator primarily developed
by "Jezar at Dreampoint" that is extensively used in the free-software
world. It uses four Schroeder allpasses in series and eight parallel
Schroeder-Moorer filtered-feedback comb-filters for each audio channel
\, and is said to be especially well tuned.;
#X msg 50 203 open %CEAMMC%/guitar1.wav \, 1;
#X obj 50 232 expand_env;
#X obj 174 261 ui.knob;
#X obj 280 261 ui.knob;
#X obj 386 261 ui.knob;
#X obj 50 290 readsf~;
#X msg 174 319 @room \$1;
#X msg 280 319 @damp \$1;
#X msg 386 319 @drywet \$1;
#X obj 405 347 tgl 15 0 empty empty empty 17 7 0 10 -262144 -1 -1 0 1;
#X msg 405 376 @freeze \$1;
#X obj 50 405 fx.freeverb2~ 0.95 0.125;
#X obj 50 434 ui.gain~ @size 120 16;
#X obj 280 434 ui.dsp~;
#X obj 50 463 dac~;
#X obj 20 512 cnv 1 745 1 empty empty empty 17 7 0 10 -203890 -1 0;
#X obj 20 517 cnv 5 90 26 empty empty arguments: 4 10 0 14 -262144
-49933 0;
#X text 110 552 1\.;
#X text 150 552 float;
#X obj 246 553 cnv 1 39 20 empty empty empty 17 7 0 10 -245695 -1 0;
#X text 245 552 ROOM: room size. Type: float. Range: 0\...1;
#X text 110 572 2\.;
#X text 150 572 float;
#X obj 246 573 cnv 1 54 20 empty empty empty 17 7 0 10 -245695 -1 0;
#X text 245 572 DRYWET: proportion of mix between the original (dry)
and 'effected' (wet) signals. Type: float. Range: 0\...1;
#X obj 20 617 cnv 1 745 1 empty empty empty 17 7 0 10 -203890 -1 0;
#X obj 20 622 cnv 5 98 26 empty empty properties: 4 10 0 14 -262144
-49933 0;
#X msg 110 657 @id;
#X text 245 657 (initonly) Get/Set OSC address id. If specified \,
bind properties to /ID/fx_freeverb/PROP_NAME osc address \, if empty
bind to /fx_freeverb/PROP_NAME. Type: symbol.;
#X msg 110 714 @osc;
#X text 245 714 (initonly) Get/Set OSC server name to listen. Type:
symbol.;
#X msg 110 743 @active;
#X text 245 743 Get/Set on/off dsp processing. Type: bool. Default
value: 1\.;
#X msg 110 772 @bypass;
#X text 245 772 Get/Set if set to 1 - bypass 'effected' signal. Type:
bool. Default value: 0\.;
#X msg 110 814 @damp;
#X text 245 814 Get/Set damping of the lowpass comb filter. Type: float.
Default value: 0.5\. Range: 0\...1\.;
#X msg 110 856 @drywet;
#X text 245 856 Get/Set proportion of mix between the original (dry)
and 'effected' (wet) signals. 0 - dry signal \, 1 - wet. Type: float.
Default value: 0.33\. Range: 0\...1\.;
#X msg 110 913 @fr_damp;
#X text 245 913 Get/Set freeze room damp. Type: float. Default value:
0.0001\. Range: 0\...1\.;
#X msg 110 955 @fr_room;
#X text 245 955 Get/Set freeze room size. Type: float. Default value:
0.999\. Range: 0\...1\.;
#X msg 110 997 @fr_time;
#X text 245 997 Get/Set length of freeze tail. Type: float. Units:
ms. Default value: 100\. Range: 0\...1000\.;
#X msg 110 1039 @freeze;
#X text 245 1039 Get/Set freeze reverberation tail. Type: bool. Default
value: 0\.;
#X msg 110 1081 @room;
#X text 245 1081 Get/Set room size. Type: float. Default value: 0.5\.
Range: 0\...1\.;
#X msg 110 1123 @spread;
#X text 245 1123 Get/Set spatial spread between 0 and 1 with 1 for
maximum spread. Type: float. Default value: 0.5\. Range: 0\...1\.;
#X obj 20 1175 cnv 1 745 1 empty empty empty 17 7 0 10 -203890 -1 0;
#X obj 20 1180 cnv 5 73 26 empty empty methods: 4 10 0 14 -262144
-49933 0;
#X msg 110 1215 reset;
#X text 245 1215 reset reverb.;
#X obj 20 1252 cnv 1 745 1 empty empty empty 17 7 0 10 -203890 -1 0;
#X obj 20 1257 cnv 5 64 26 empty empty inlets: 4 10 0 14 -262144
-49933 0;
#X text 110 1258 1\.;
#X text 245 1258 left channel.;
#X text 110 1278 2\.;
#X text 245 1278 right channel.;
#X obj 20 1308 cnv 1 745 1 empty empty empty 17 7 0 10 -203890 -1 0;
#X obj 20 1313 cnv 5 73 26 empty empty outlets: 4 10 0 14 -262144
-49933 0;
#X text 110 1314 1\.;
#X text 245 1314 output left.;
#X text 110 1334 2\.;
#X text 245 1334 output right.;
#X obj 10 48 ui.link @title index @url ../index-help.pd;
#X text 51 45 ::;
#X obj 67 48 ui.link @title ceammc @url ceammc-help.pd;
#X text 115 45 ::;
#X obj 131 48 ui.link @title fx @url ceammc.fx-help.pd;
#X obj 1 1384 cnv 5 765 48 empty empty empty 17 7 0 10 -203890 -1 0;
#X text 10 1387 library: ceammc v0.9.6;
#N canvas 10 1406 400 290 info 0;
#X obj 1 1 cnv 1 107 287 empty empty empty 17 7 0 10 -183085 -1 0;
#X text 10 10 library:;
#X text 120 10 ceammc;
#X text 10 32 version:;
#X text 120 32 0.9.6;
#X text 10 54 object:;
#X text 120 54 fx.freeverb2~;
#X text 10 76 category:;
#X text 120 76 fx;
#X text 10 98 since:;
#X text 120 98 0.2;
#X text 10 120 authors:;
#X text 120 120 Serge Poltavsky;
#X text 10 142 license:;
#X text 120 142 GPL3 or later;
#X text 10 164 keywords:;
#X text 120 164 fx \, reverb;
#X text 10 186 website:;
#X obj 120 189 ui.link @title https://github.com/uliss/pure-data @url
https://github.com/uliss/pure-data;
#X obj 120 208 declare -lib ceammc;
#X obj 120 268 cnv 1 270 1 empty empty empty 17 7 0 10 -203890 -1 0;
#X text 120 268 generated by pddoc;
#X restore 10 1406 pd info;
#X connect 6 0 7 0;
#X connect 7 0 11 0;
#X connect 8 0 12 0;
#X connect 9 0 13 0;
#X connect 10 0 14 0;
#X connect 15 0 16 0;
#X connect 11 0 17 0;
#X connect 12 0 17 0;
#X connect 13 0 17 0;
#X connect 14 0 17 0;
#X connect 16 0 17 0;
#X connect 17 0 18 0;
#X connect 18 0 20 0;
#X connect 18 0 20 1;