#N canvas 0 0 347 201 12;
#X floatatom 20 48 5 0 0 0 - - -;
#X obj 20 77 osc.tri~ 300;
#X floatatom 164 77 5 0 0 0 - - -;
#X text 221 77  frequency shift ;
#X obj 164 106 sig~;
#X obj 164 135 lop~ 10;
#X obj 20 164 fx.freqshift~ id;
#X obj 20 192 dac~;
#X obj 183 192 print;
#X connect 6 2 8 0;
#X connect 2 0 4 0;
#X connect 6 0 7 0;
#X connect 6 0 7 1;
#X connect 5 0 6 1;
#X connect 0 0 1 0;
#X connect 4 0 5 0;
#X connect 1 0 6 0;
