#N canvas 0 0 785 555 12;
#X declare -lib ceammc;
#X obj 445 50 cnv 1 320 23 empty empty empty 17 7 0 10 -245760 -1 0;
#X text 445 50 freeverb - common used open-source reverb;
#X obj 1 1 cnv 5 765 40 empty empty fx.freeverb~ 20 20 0 20 -104026
-4096 0;
#X obj 653 11 fx.freeverb~;
#X obj 210 80 cnv 1 555 95 empty empty empty 17 7 0 10 -257983 -1 0;
#X text 215 80 A simple Schroeder reverberator primarily developed
by "Jezar at Dreampoint" that is extensively used in the free-software
world. It uses four Schroeder allpasses in series and eight parallel
Schroeder-Moorer filtered-feedback comb-filters for each audio channel
\, and is said to be especially well tuned.;
#X floatatom 50 203 5 0 0 0 - - -;
#X msg 232 203 open %CEAMMC%/guitar1.wav \, 1;
#X obj 50 232 lfo.impulse~ 2;
#X obj 232 232 expand_env;
#X obj 78 261 tgl 15 0 empty empty empty 17 7 0 10 -262144 -1 -1 0 1;
#X obj 232 261 ui.knob;
#X obj 338 261 ui.knob;
#X obj 443 261 ui.knob;
#X obj 50 290 *~;
#X obj 107 290 readsf~;
#X msg 232 319 @room \$1;
#X msg 338 319 @damp \$1;
#X msg 443 319 @drywet \$1;
#X obj 50 376 fx.freeverb~ 0.95 0.125;
#X obj 50 405 ui.gain~ @size 120 16;
#X obj 280 405 ui.dsp~;
#X obj 50 434 dac~;
#X obj 20 483 cnv 1 745 1 empty empty empty 17 7 0 10 -203890 -1 0;
#X obj 20 488 cnv 5 90 26 empty empty arguments: 4 10 0 14 -262144
-49933 0;
#X text 110 523 1\.;
#X text 150 523 float;
#X obj 246 524 cnv 1 39 20 empty empty empty 17 7 0 10 -245695 -1 0;
#X text 245 523 ROOM: room size. Range: 0\...1;
#X text 110 543 2\.;
#X text 150 543 float;
#X obj 246 544 cnv 1 54 20 empty empty empty 17 7 0 10 -245695 -1 0;
#X text 245 543 DRYWET: proportion of mix between the original (dry)
and 'effected' (wet) signals. Range: 0\...1;
#X obj 20 588 cnv 1 745 1 empty empty empty 17 7 0 10 -203890 -1 0;
#X obj 20 593 cnv 5 98 26 empty empty properties: 4 10 0 14 -262144
-49933 0;
#X msg 110 628 @active;
#X text 245 628 Get/Set on/off dsp processing. Type: int. Default value:
1\. Allowed values: 0 \, 1\.;
#X msg 110 670 @bypass;
#X text 245 670 Get/Set if set to 1 - bypass 'effected' signal. Type:
int. Default value: 0\. Allowed values: 0 \, 1\.;
#X msg 110 712 @damp;
#X text 245 712 Get/Set damping of the lowpass comb filter. Type: float.
Default value: 0.5\. Range: 0\...1\.;
#X msg 110 754 @drywet;
#X text 245 754 Get/Set proportion of mix between the original (dry)
and 'effected' (wet) signals. 0 - dry signal \, 1 - wet. Type: float.
Default value: 0.33\. Range: 0\...1\.;
#X msg 110 811 @fr_damp;
#X text 245 811 Get/Set freeze room damp. Type: float. Default value:
0.0001\. Range: 0\...1\.;
#X msg 110 853 @fr_room;
#X text 245 853 Get/Set freeze room size. Type: float. Default value:
0.999\. Range: 0\...1\.;
#X msg 110 895 @fr_time;
#X text 245 895 Get/Set length of freeze tail. Type: float. Units:
ms. Default value: 100\. Range: 0\...1000\.;
#X msg 110 937 @freeze;
#X text 245 937 Get/Set freeze reverberation tail. Type: int. Default
value: 0\. Allowed values: 0 \, 1\.;
#X msg 110 979 @room;
#X text 245 979 Get/Set room size. Type: float. Default value: 0.5\.
Range: 0\...1\.;
#X obj 20 1031 cnv 1 745 1 empty empty empty 17 7 0 10 -203890 -1 0;
#X obj 20 1036 cnv 5 73 26 empty empty methods: 4 10 0 14 -262144
-49933 0;
#X msg 110 1071 reset;
#X text 245 1071 reset reverb.;
#X obj 20 1108 cnv 1 745 1 empty empty empty 17 7 0 10 -203890 -1 0;
#X obj 20 1113 cnv 5 64 26 empty empty inlets: 4 10 0 14 -262144
-49933 0;
#X text 110 1114 1\.;
#X text 245 1114 input signal.;
#X obj 20 1144 cnv 1 745 1 empty empty empty 17 7 0 10 -203890 -1 0;
#X obj 20 1149 cnv 5 73 26 empty empty outlets: 4 10 0 14 -262144
-49933 0;
#X text 110 1150 1\.;
#X text 245 1150 output signal.;
#X obj 10 48 ui.link @title index @url ../index-help.pd;
#X text 51 45 ::;
#X obj 67 48 ui.link @title ceammc @url ceammc-help.pd;
#X text 115 45 ::;
#X obj 131 48 ui.link @title fx @url ceammc.fx-help.pd;
#X obj 1 1200 cnv 5 765 48 empty empty empty 17 7 0 10 -203890 -1 0;
#X text 10 1203 library: ceammc v0.9.0;
#X text 571 1215 see also:;
#X obj 645 1215 fx.freeverb2~;
#N canvas 10 1222 400 290 info 0;
#X obj 1 1 cnv 1 107 287 empty empty empty 17 7 0 10 -183085 -1 0;
#X text 10 10 library:;
#X text 120 10 ceammc;
#X text 10 32 version:;
#X text 120 32 0.9.0;
#X text 10 54 object:;
#X text 120 54 fx.freeverb~;
#X text 10 76 category:;
#X text 120 76 fx;
#X text 10 98 since:;
#X text 120 98 0.2;
#X text 10 120 authors:;
#X text 120 120 Serge Poltavsky;
#X text 10 142 license:;
#X text 120 142 GPL3 or later;
#X text 10 164 keywords:;
#X text 120 164 fx \, reverb;
#X text 10 186 website:;
#X obj 120 189 ui.link @title https://github.com/uliss/pure-data @url
https://github.com/uliss/pure-data;
#X obj 120 208 declare -lib ceammc;
#X obj 120 268 cnv 1 270 1 empty empty empty 17 7 0 10 -203890 -1 0;
#X text 120 268 generated by pddoc;
#X restore 10 1222 pd info;
#X connect 6 0 8 0;
#X connect 7 0 9 0;
#X connect 8 0 14 0;
#X connect 10 0 14 1;
#X connect 11 0 16 0;
#X connect 12 0 17 0;
#X connect 13 0 18 0;
#X connect 14 0 19 0;
#X connect 15 0 19 0;
#X connect 16 0 19 0;
#X connect 17 0 19 0;
#X connect 18 0 19 0;
#X connect 19 0 20 0;
#X connect 20 0 22 0;
#X connect 20 0 22 1;
#X connect 9 0 15 0;