#N canvas 0 0 372 144 12;
#X floatatom 20 48 5 0 0 0 - - -;
#X obj 20 77 phasor~ 300;
#X floatatom 202 77 5 0 0 0 - - -;
#X text 260 77  transposition ;
#X obj 20 106 fx.pitchshift~ 200 100 id;
#X obj 20 135 dac~;
#X obj 202 135 print;
#X connect 1 0 4 0;
#X connect 4 1 6 0;
#X connect 2 0 4 1;
#X connect 0 0 1 0;
#X connect 4 0 5 1;
#X connect 4 0 5 0;
