#N canvas 0 0 785 555 12;
#X declare -lib ceammc;
#X obj 499 50 cnv 1 266 23 empty empty empty 17 7 0 10 -245760 -1 0;
#X text 499 50 Gardners room emulation algorithms;
#X obj 1 1 cnv 5 765 40 empty empty fx.room~ 20 20 0 20 -104026 -4096
0;
#X obj 681 11 fx.room~;
#X obj 50 118 tgl 15 0 empty empty empty 17 7 0 10 -262144 -1 -1 0 1;
#X obj 50 147 metro 1000;
#X msg 50 176 60;
#X obj 50 205 makenote 127 100;
#X obj 232 205 ui.hsl 0 3 @show_value 1;
#X obj 50 234 pack f f;
#X obj 232 234 ui.hrd 4;
#X obj 366 234 tgl 15 0 empty empty empty 17 7 0 10 -262144 -1 -1 0 1;
#X obj 50 262 synth.eguitar~;
#X msg 232 262 @size \$1;
#X msg 366 262 @bypass \$1;
#X obj 50 291 fx.room~;
#X obj 50 320 ui.hgain~;
#X obj 232 320 ui.dsp~;
#X obj 50 349 dac~;
#X obj 20 398 cnv 1 745 1 empty empty empty 17 7 0 10 -203890 -1 0;
#X obj 20 403 cnv 5 90 26 empty empty arguments: 4 10 0 14 -262144
-49933 0;
#X text 110 438 1\.;
#X text 150 438 float;
#X obj 246 439 cnv 1 39 20 empty empty empty 17 7 0 10 -245695 -1 0;
#X text 245 438 SIZE: echo time. Type: float. Range: 0\...3;
#X text 110 458 2\.;
#X text 150 458 float;
#X obj 246 459 cnv 1 23 20 empty empty empty 17 7 0 10 -245695 -1 0;
#X text 245 458 FB: feedback coefficient. Type: float. Range: 0\...1;
#X obj 20 488 cnv 1 745 1 empty empty empty 17 7 0 10 -203890 -1 0;
#X obj 20 493 cnv 5 98 26 empty empty properties: 4 10 0 14 -262144
-49933 0;
#X msg 110 528 @id;
#X text 245 528 (initonly) Get/Set OSC address id. If specified \,
bind all properties to /ID/fx_room/PROP_NAME osc address \, if empty
bind to /fx_room/PROP_NAME. Type: symbol.;
#X msg 110 585 @osc;
#X text 245 585 (initonly) Get/Set OSC server name to listen. Type:
symbol.;
#X msg 110 614 @active;
#X text 245 614 Turn on/off dsp processing. Type: bool. Default value:
1\.;
#X msg 110 643 @bypass;
#X text 245 643 Get/Set bypass flag. If true: bypass 'effected' signal.
Type: bool. Default value: 0\.;
#X msg 110 685 @drywet;
#X text 245 685 Get/Set proportion of mix between the original (dry)
and 'effected' (wet) signals. 0 - dry signal \, 1 - wet. Type: float.
Default value: 0.5\. Range: 0\...1\.;
#X msg 110 742 @fb;
#X text 245 742 Get/Set feedback coefficient. Type: float. Default
value: 0.3\. Range: 0\...1\.;
#X msg 110 784 @hfdamp;
#X text 245 784 Get/Set damping factor for high frequencies. Type:
float. Default value: 1\. Range: 0\...1\.;
#X msg 110 826 @predelay;
#X text 245 826 Get/Set pre delay. Type: float. Units: 'ms'. Default
value: 20\. Range: 1\...200\.;
#X msg 110 868 @size;
#X text 245 868 Get/Set room size (0: no room \, 1: small \, 2: medium
\, 3: large). Non-integer values are interpolated betweed neighbours
\, for example 1.3 is interpoltation between first and second room
size with 0.3 ratio. Type: float. Default value: 1\. Range: 0\...3\.;
#X obj 20 965 cnv 1 745 1 empty empty empty 17 7 0 10 -203890 -1 0;
#X obj 20 970 cnv 5 73 26 empty empty methods: 4 10 0 14 -262144
-49933 0;
#X msg 110 1005 reset;
#X text 245 1005 reset to initial state.;
#X obj 20 1042 cnv 1 745 1 empty empty empty 17 7 0 10 -203890 -1 0;
#X obj 20 1047 cnv 5 64 26 empty empty inlets: 4 10 0 14 -262144
-49933 0;
#X text 110 1048 1\.;
#X text 245 1048 input signal.;
#X text 110 1068 2\.;
#X text 150 1068 *float*;
#X text 245 1068 set room size.;
#X obj 20 1098 cnv 1 745 1 empty empty empty 17 7 0 10 -203890 -1 0;
#X obj 20 1103 cnv 5 73 26 empty empty outlets: 4 10 0 14 -262144
-49933 0;
#X text 110 1104 1\.;
#X text 245 1104 output signal.;
#X obj 10 48 ui.link @title index @url ../index-help.pd;
#X text 51 45 ::;
#X obj 67 48 ui.link @title ceammc @url ceammc-help.pd;
#X text 115 45 ::;
#X obj 131 48 ui.link @title fx @url ceammc.fx-help.pd;
#X obj 1 1154 cnv 5 765 48 empty empty empty 17 7 0 10 -203890 -1 0;
#X text 10 1157 library: ceammc v0.9.6;
#N canvas 10 1176 400 290 info 0;
#X obj 1 1 cnv 1 107 287 empty empty empty 17 7 0 10 -183085 -1 0;
#X text 10 10 library:;
#X text 120 10 ceammc;
#X text 10 32 version:;
#X text 120 32 0.9.6;
#X text 10 54 object:;
#X text 120 54 fx.room~;
#X text 10 76 category:;
#X text 120 76 fx;
#X text 10 98 since:;
#X text 120 98 0.9.4;
#X text 10 120 authors:;
#X text 120 120 Serge Poltavsky;
#X text 10 142 license:;
#X text 120 142 GPL3 or later;
#X text 10 164 keywords:;
#X text 120 164 fx \, room \, reverb;
#X text 10 186 website:;
#X obj 120 189 ui.link @title https://github.com/uliss/pure-data @url
https://github.com/uliss/pure-data;
#X obj 120 208 declare -lib ceammc;
#X obj 120 268 cnv 1 270 1 empty empty empty 17 7 0 10 -203890 -1 0;
#X text 120 268 generated by pddoc;
#X restore 10 1176 pd info;
#X connect 4 0 5 0;
#X connect 5 0 6 0;
#X connect 6 0 7 0;
#X connect 7 0 9 0;
#X connect 7 1 9 1;
#X connect 9 0 12 0;
#X connect 10 0 13 0;
#X connect 11 0 14 0;
#X connect 12 0 15 0;
#X connect 13 0 15 0;
#X connect 14 0 15 0;
#X connect 15 0 16 0;
#X connect 16 0 18 0;
#X connect 16 0 18 1;
#X connect 8 0 13 0;