#N canvas 0 0 785 555 12;
#X declare -lib ceammc;
#X obj 515 50 cnv 1 250 23 empty empty empty 17 7 0 10 -245760 -1 0;
#X text 515 50 scramble delayed sound fragments;
#X obj 1 1 cnv 5 765 40 empty empty fx.scramble~ 20 20 0 20 -104026
-4096 0;
#X obj 653 11 fx.scramble~;
#X msg 50 118 open %CEAMMC%/guitar1.wav \, 1;
#X obj 50 147 expand_env;
#X obj 50 176 readsf~;
#X obj 50 205 fx.scramble~;
#X obj 50 234 ui.gain2~ @size 120 16;
#X obj 299 234 ui.dsp~;
#X obj 50 262 dac~;
#X obj 20 311 cnv 1 745 1 empty empty empty 17 7 0 10 -203890 -1 0;
#X obj 20 316 cnv 5 90 26 empty empty arguments: 4 10 0 14 -262144
-49933 0;
#X text 110 351 1\.;
#X text 150 351 float;
#X obj 246 352 cnv 1 77 20 empty empty empty 17 7 0 10 -245695 -1 0;
#X text 245 351 FREQ1(Hz): left channel scramble frequency. Type: float.
Range: 0.25\...50;
#X text 110 386 2\.;
#X text 150 386 float;
#X obj 246 387 cnv 1 77 20 empty empty empty 17 7 0 10 -245695 -1 0;
#X text 245 386 FREQ2(Hz): right channel scramble frequency. Type:
float. Range: 0.25\...50;
#X obj 20 431 cnv 1 745 1 empty empty empty 17 7 0 10 -203890 -1 0;
#X obj 20 436 cnv 5 98 26 empty empty properties: 4 10 0 14 -262144
-49933 0;
#X msg 110 471 @id;
#X text 245 471 (initonly) Get/Set OSC address id. If specified \,
bind properties to /ID/fx_echo/PROP_NAME osc address \, if empty bind
to /fx_echo/PROP_NAME. Type: symbol.;
#X msg 110 528 @osc;
#X text 245 528 (initonly) Get/Set OSC server name to listen. Type:
symbol.;
#X msg 110 557 @active;
#X text 245 557 Get/Set on/off dsp processing. Type: bool. Default
value: 1\.;
#X msg 110 586 @bypass;
#X text 245 586 Get/Set if set to 1 - bypass 'effected' signal. Type:
bool. Default value: 0\.;
#X msg 110 628 @dev;
#X text 245 628 Get/Set scramble freq deviation. Type: float. Default
value: 0.25\. Range: 0\...1\.;
#X msg 110 670 @drywet;
#X text 245 670 Get/Set proportion of mix between the original (dry)
and 'effected' (wet) signals. 0 - dry signal \, 1 - wet. Type: float.
Default value: 0.5\. Range: 0\...1\.;
#X msg 110 727 @feedback;
#X text 245 727 Get/Set feedback coefficient. Type: float. Default
value: 0.25\. Range: 0\...0.99\.;
#X msg 110 769 @freq1;
#X text 245 769 Get/Set left channel scramble frequency. Type: float.
Units: Hz. Default value: 7\. Range: 0.25\...50\.;
#X msg 110 811 @freq2;
#X text 245 811 Get/Set right channel scramble frequency. Type: float.
Units: Hz. Default value: 5\. Range: 0.25\...50\.;
#X msg 110 853 @range;
#X text 245 853 Get/Set scramble delay amount. Type: float. Default
value: 0.5\. Range: 0\...1\.;
#X obj 20 905 cnv 1 745 1 empty empty empty 17 7 0 10 -203890 -1 0;
#X obj 20 910 cnv 5 73 26 empty empty methods: 4 10 0 14 -262144
-49933 0;
#X msg 110 945 reset;
#X text 245 945 reset to initial state.;
#X obj 20 982 cnv 1 745 1 empty empty empty 17 7 0 10 -203890 -1 0;
#X obj 20 987 cnv 5 64 26 empty empty inlets: 4 10 0 14 -262144 -49933
0;
#X text 110 988 1\.;
#X text 245 988 input signal.;
#X obj 20 1018 cnv 1 745 1 empty empty empty 17 7 0 10 -203890 -1 0;
#X obj 20 1023 cnv 5 73 26 empty empty outlets: 4 10 0 14 -262144
-49933 0;
#X text 110 1024 1\.;
#X text 245 1024 left output signal.;
#X text 110 1044 2\.;
#X text 245 1044 right output signal.;
#X obj 10 48 ui.link @title index @url ../index-help.pd;
#X text 51 45 ::;
#X obj 67 48 ui.link @title ceammc @url ceammc-help.pd;
#X text 115 45 ::;
#X obj 131 48 ui.link @title fx @url ceammc.fx-help.pd;
#X obj 1 1094 cnv 5 765 48 empty empty empty 17 7 0 10 -203890 -1 0;
#X text 10 1097 library: ceammc v0.9.6;
#X text 600 1109 see also:;
#X obj 674 1109 fx.delay~;
#N canvas 10 1116 400 290 info 0;
#X obj 1 1 cnv 1 107 287 empty empty empty 17 7 0 10 -183085 -1 0;
#X text 10 10 library:;
#X text 120 10 ceammc;
#X text 10 32 version:;
#X text 120 32 0.9.6;
#X text 10 54 object:;
#X text 120 54 fx.scramble~;
#X text 10 76 category:;
#X text 120 76 fx;
#X text 10 98 since:;
#X text 120 98 0.9.7;
#X text 10 120 authors:;
#X text 120 120 Serge Poltavsky;
#X text 10 142 license:;
#X text 120 142 GPL3 or later;
#X text 10 164 keywords:;
#X text 120 164 fx \, echo \, delay;
#X text 10 186 website:;
#X obj 120 189 ui.link @title https://github.com/uliss/pure-data @url
https://github.com/uliss/pure-data;
#X obj 120 208 declare -lib ceammc;
#X obj 120 268 cnv 1 270 1 empty empty empty 17 7 0 10 -203890 -1 0;
#X text 120 268 generated by pddoc;
#X restore 10 1116 pd info;
#X connect 4 0 5 0;
#X connect 5 0 6 0;
#X connect 6 0 7 0;
#X connect 7 0 8 0;
#X connect 7 1 8 1;
#X connect 8 0 10 0;
#X connect 8 1 10 1;