#N canvas 0 0 785 555 12;
#X declare -lib ceammc;
#X obj 546 50 cnv 1 219 23 empty empty empty 17 7 0 10 -245760 -1 0;
#X text 546 50 shimmer reverb effect effect;
#X obj 1 1 cnv 5 765 40 empty empty fx.shimmer~ 20 20 0 20 -104026
-4096 0;
#X obj 660 11 fx.shimmer~;
#X obj 50 118 tgl 15 0 empty empty empty 17 7 0 10 -262144 -1 -1 0 1;
#X obj 50 147 metro 250;
#X msg 50 176 60;
#X obj 50 205 makenote 127 100;
#X obj 50 234 pack f f;
#X obj 222 234 ui.hsl -12 12 @show_value 1;
#X obj 50 262 synth.eguitar~;
#X msg 222 262 @shift \$1;
#X obj 50 291 fx.shimmer~ @shift 12;
#X obj 50 320 ui.hgain2~;
#X obj 213 320 ui.dsp~;
#X obj 50 349 dac~;
#X obj 20 398 cnv 1 745 1 empty empty empty 17 7 0 10 -203890 -1 0;
#X obj 20 403 cnv 5 90 26 empty empty arguments: 4 10 0 14 -262144
-49933 0;
#X text 110 438 1\.;
#X text 150 438 float;
#X obj 246 439 cnv 1 115 20 empty empty empty 17 7 0 10 -245695 -1 0;
#X text 245 438 DECAY_LOW(sec): time to decay 60dB in low-frequency
band. Type: float. Range: 1\...8;
#X text 110 473 2\.;
#X text 150 473 float;
#X obj 246 474 cnv 1 115 20 empty empty empty 17 7 0 10 -245695 -1 0;
#X text 245 473 DECAY_MID(sec): time to decay 60dB in mid-frequency
band. Type: float. Range: 1\...8;
#X obj 20 518 cnv 1 745 1 empty empty empty 17 7 0 10 -203890 -1 0;
#X obj 20 523 cnv 5 98 26 empty empty properties: 4 10 0 14 -262144
-49933 0;
#X msg 110 558 @id;
#X text 245 558 (initonly) Get/Set OSC address id. If specified \,
bind properties to /ID/fx_shimmer/PROP_NAME osc address \, if empty
bind to /fx_shimmer/PROP_NAME. Type: symbol.;
#X msg 110 615 @osc;
#X text 245 615 (initonly) Get/Set OSC server name to listen. Type:
symbol.;
#X msg 110 644 @active;
#X text 245 644 Turn on/off dsp processing. Type: bool. Default value:
1\.;
#X msg 110 673 @bypass;
#X text 245 673 Get/Set if set to 1 - bypass 'effected' signal. Type:
bool. Default value: 0\.;
#X msg 110 715 @control;
#X text 245 715 Get/Set envelope follower to pitch shifter influence
coefficient. Type: float. Default value: 0.5\. Range: 0\...1\.;
#X msg 110 772 @damp_hf;
#X text 245 772 Get/Set Frequency (Hz) at which the high-frequency
T60 is half the middle-band's T60\. Type: float. Units: Hz. Default
value: 6000\. Range: 1500\...47040\.;
#X msg 110 829 @decay_low;
#X text 245 829 Get/Set time (in seconds) to decay 60dB in low-frequency
band. Type: float. Units: sec. Default value: 3\. Range: 1\...8\.;
#X msg 110 886 @decay_mid;
#X text 245 886 Get/Set time (in seconds) to decay 60dB in mid-frequency
band. Type: float. Units: sec. Default value: 2\. Range: 1\...8\.;
#X msg 110 943 @depth;
#X text 245 943 Get/Set pitchshift modulation amplitude. Type: float.
Default value: 0\. Range: 0\...1\.;
#X msg 110 985 @drywet;
#X text 245 985 Get/Set proportion of mix between the original (dry)
and 'effected' (wet) signals. 0 - dry signal \, 1 - wet. Type: float.
Default value: 0.5\. Range: 0\...1\.;
#X msg 110 1042 @envelope;
#X text 245 1042 Get/Set amplitude-envelope time-constant going down.
Type: float. Units: sec. Default value: 1\. Range: 0.1\...3\.;
#X msg 110 1084 @freq_low;
#X text 245 1084 Get/Set Crossover frequency (Hz) separating low and
middle frequencies. Type: float. Units: Hz. Default value: 200\. Range:
50\...1000\.;
#X msg 110 1141 @mode;
#X text 245 1141 Get/Set correlation between pitchshift. Type: int.
Default value: 0\. Range: -3\...3\.;
#X msg 110 1183 @ps_drywet;
#X text 245 1183 Get/Set proportion of mix between original and pitchshift
signal in shimmer feedback. Type: float. Default value: 0.5\. Range:
0\...1\.;
#X msg 110 1240 @shift;
#X text 245 1240 Get/Set frequency shifting. Type: float. Units: semitone.
Default value: 12\. Range: -12\...12\.;
#X msg 110 1282 @speed;
#X text 245 1282 Get/Set pitchshift modulation frequency. Type: float.
Units: Hz. Default value: 0.1\. Range: 0.1\...10\.;
#X obj 20 1334 cnv 1 745 1 empty empty empty 17 7 0 10 -203890 -1 0;
#X obj 20 1339 cnv 5 73 26 empty empty methods: 4 10 0 14 -262144
-49933 0;
#X msg 110 1374 reset;
#X text 245 1374 reset to initial state.;
#X obj 20 1411 cnv 1 745 1 empty empty empty 17 7 0 10 -203890 -1 0;
#X obj 20 1416 cnv 5 64 26 empty empty inlets: 4 10 0 14 -262144
-49933 0;
#X text 110 1417 1\.;
#X text 245 1417 input signal.;
#X text 110 1437 2\.;
#X text 245 1437 input signal.;
#X obj 20 1467 cnv 1 745 1 empty empty empty 17 7 0 10 -203890 -1 0;
#X obj 20 1472 cnv 5 73 26 empty empty outlets: 4 10 0 14 -262144
-49933 0;
#X text 110 1473 1\.;
#X text 245 1473 output signal.;
#X text 110 1493 2\.;
#X text 245 1493 output signal.;
#X obj 10 48 ui.link @title index @url ../index-help.pd;
#X text 51 45 ::;
#X obj 67 48 ui.link @title ceammc @url ceammc-help.pd;
#X text 115 45 ::;
#X obj 131 48 ui.link @title fx @url ceammc.fx-help.pd;
#X obj 1 1543 cnv 5 765 48 empty empty empty 17 7 0 10 -203890 -1 0;
#X text 10 1546 library: ceammc v0.9.6;
#N canvas 10 1565 400 290 info 0;
#X obj 1 1 cnv 1 107 287 empty empty empty 17 7 0 10 -183085 -1 0;
#X text 10 10 library:;
#X text 120 10 ceammc;
#X text 10 32 version:;
#X text 120 32 0.9.6;
#X text 10 54 object:;
#X text 120 54 fx.shimmer~;
#X text 10 76 category:;
#X text 120 76 fx;
#X text 10 98 since:;
#X text 120 98 0.9.4;
#X text 10 120 authors:;
#X text 120 120 thedrgreenthumb \, Serge Poltavsky;
#X text 10 142 license:;
#X text 120 142 GPL3 or later;
#X text 10 164 keywords:;
#X text 120 164 fx \, echo \, shimmer \, reverb;
#X text 10 186 website:;
#X obj 120 189 ui.link @title https://github.com/uliss/pure-data @url
https://github.com/uliss/pure-data;
#X obj 120 208 declare -lib ceammc;
#X obj 120 268 cnv 1 270 1 empty empty empty 17 7 0 10 -203890 -1 0;
#X text 120 268 generated by pddoc;
#X restore 10 1565 pd info;
#X connect 4 0 5 0;
#X connect 5 0 6 0;
#X connect 6 0 7 0;
#X connect 7 0 8 0;
#X connect 7 1 8 1;
#X connect 8 0 10 0;
#X connect 9 0 11 0;
#X connect 10 0 12 0;
#X connect 11 0 12 0;
#X connect 12 0 13 0;
#X connect 12 1 13 1;
#X connect 13 0 15 0;
#X connect 13 1 15 1;