#N canvas 0 0 785 555 12;
#X declare -lib ceammc;
#X obj 643 50 cnv 1 122 23 empty empty empty 17 7 0 10 -245760 -1 0;
#X text 643 50 multi-tap delay;
#X obj 1 1 cnv 5 765 40 empty empty fx.tapiir~ 20 20 0 20 -104026
-4096 0;
#X obj 666 11 fx.tapiir~;
#X obj 50 118 bng 15 250 50 0 empty empty empty 17 7 0 10 -262144 -1
-1;
#X msg 414 118 list 2 4_ 4 8_ 8 16_ 16;
#X obj 50 147 click~;
#X msg 414 147 list 4_ 8 4_ 8 4_ 8;
#X obj 50 176 flt.resonbp~ 1000 50;
#X obj 414 176 music.d->t @bpm 120 1;
#X obj 78 205 flt.resonbp~ 1700 50;
#X obj 88 234 ui.sliders 6 @size 84 50 @min 0 @max 1;
#X obj 251 234 ui.sliders 6 @size 84 50 @min 0 @max 1;
#X obj 414 234 ui.sliders 6 @size 84 50 @min 50 @max 1000;
#X obj 88 291 m @outs0;
#X obj 251 291 m @outs1;
#X obj 414 291 m @delays;
#X msg 88 320 reset;
#X msg 174 320 dump;
#X msg 414 320 random delays 200 3000 \, random fb 0.1 0.2;
#X msg 414 349 pingpong 250 0.7;
#X obj 50 378 fx.tapiir~ @out0.in0 1 @out1.in1 1;
#X obj 50 406 ui.hgain2~;
#X obj 414 406 ui.dsp~;
#X obj 50 435 dac~;
#X obj 20 485 cnv 1 745 1 empty empty empty 17 7 0 10 -203890 -1 0;
#X obj 20 490 cnv 5 98 25 empty empty properties: 4 12 0 14 -262144
-49933 0;
#X obj 735 493 ui.link @background_color 0.98039 0.98039 0.98039
@title [?] @url ceammc.props-info.pd;
#X msg 110 525 @id;
#X text 245 525 (initonly) Get/Set OSC address id. If specified \,
bind all properties to /ID/fx_tapiir/PROP_NAME osc address \, if empty
bind to /fx_tapiir/PROP_NAME. Type: symbol.;
#X msg 110 582 @osc;
#X text 245 582 (initonly) Get/Set OSC server name to listen. Type:
symbol.;
#X msg 110 612 @active;
#X text 245 612 Turn on/off dsp processing. Type: bool. Default value:
1\.;
#X msg 110 642 @delays;
#X text 245 642 Get/Set list of all tap delays. Type: list. Units:
'ms'. Default value: 0 0 0 0 0 0\.;
#X msg 110 684 @fbs0;
#X text 245 684 Get/Set list of all feedbacks to tap0\. Type: list.
Default value: 0 0 0 0 0 0\. Range: 0\...1\.;
#X msg 110 726 @fbs1;
#X text 245 726 Get/Set list of all feedbacks to tap1\. Type: list.
Default value: 0 0 0 0 0 0\. Range: 0\...1\.;
#X msg 110 768 @fbs2;
#X text 245 768 Get/Set list of all feedbacks to tap2\. Type: list.
Default value: 0 0 0 0 0 0\. Range: 0\...1\.;
#X msg 110 810 @fbs3;
#X text 245 810 Get/Set list of all feedbacks to tap3\. Type: list.
Default value: 0 0 0 0 0 0\. Range: 0\...1\.;
#X msg 110 852 @fbs4;
#X text 245 852 Get/Set list of all feedbacks to tap4\. Type: list.
Default value: 0 0 0 0 0 0\. Range: 0\...1\.;
#X msg 110 894 @fbs5;
#X text 245 894 Get/Set list of all feedbacks to tap5\. Type: list.
Default value: 0 0 0 0 0 0\. Range: 0\...1\.;
#X msg 110 936 @gains;
#X text 245 936 Get/Set list of all tap gains. Type: list. Units: 'db'.
Default value: 0 0 0 0 0 0\.;
#X msg 110 978 @ins0;
#X text 245 978 Get/Set list of all taps left channel input levels.
Type: list. Default value: 1 1 1 1 1 1\. Range: 0\...1\.;
#X msg 110 1020 @ins1;
#X text 245 1020 Get/Set list of all taps right channel input levels.
Type: list. Default value: 1 1 1 1 1 1\. Range: 0\...1\.;
#X msg 110 1062 @out0.gain;
#X text 245 1062 Get/Set left channel output gain. Type: float. Units:
'db'. Default value: 0\. Range: -60\...0\.;
#X msg 110 1104 @out0.in0;
#X text 245 1104 Get/Set input left channel level to left output. Type:
float. Default value: 0\. Range: 0\...1\.;
#X msg 110 1146 @out0.in1;
#X text 245 1146 Get/Set input right channel level to left output.
Type: float. Default value: 0\. Range: 0\...1\.;
#X msg 110 1188 @out0.tap0;
#X text 245 1188 Get/Set tap 0 output level to left channel. Type:
float. Default value: 0\. Range: 0\...1\.;
#X msg 110 1230 @out0.tap1;
#X text 245 1230 Get/Set tap 1 output level to left channel. Type:
float. Default value: 0\. Range: 0\...1\.;
#X msg 110 1272 @out0.tap2;
#X text 245 1272 Get/Set tap 2 output level to left channel. Type:
float. Default value: 0\. Range: 0\...1\.;
#X msg 110 1314 @out0.tap3;
#X text 245 1314 Get/Set tap 3 output level to left channel. Type:
float. Default value: 0\. Range: 0\...1\.;
#X msg 110 1356 @out0.tap4;
#X text 245 1356 Get/Set tap 4 output level to left channel. Type:
float. Default value: 0\. Range: 0\...1\.;
#X msg 110 1398 @out0.tap5;
#X text 245 1398 Get/Set tap 5 output level to left channel. Type:
float. Default value: 0\. Range: 0\...1\.;
#X msg 110 1440 @out1.gain;
#X text 245 1440 Get/Set right channel output gain. Type: float. Units:
'db'. Default value: 0\. Range: -60\...0\.;
#X msg 110 1482 @out1.in0;
#X text 245 1482 Get/Set input left channel level to right output.
Type: float. Default value: 0\. Range: 0\...1\.;
#X msg 110 1524 @out1.in1;
#X text 245 1524 Get/Set input right channel level to right output.
Type: float. Default value: 0\. Range: 0\...1\.;
#X msg 110 1566 @out1.tap0;
#X text 245 1566 Get/Set tap 0 output level to right channel. Type:
float. Default value: 0\. Range: 0\...1\.;
#X msg 110 1608 @out1.tap1;
#X text 245 1608 Get/Set tap 1 output level to right channel. Type:
float. Default value: 0\. Range: 0\...1\.;
#X msg 110 1650 @out1.tap2;
#X text 245 1650 Get/Set tap 2 output level to right channel. Type:
float. Default value: 0\. Range: 0\...1\.;
#X msg 110 1692 @out1.tap3;
#X text 245 1692 Get/Set tap 3 output level to right channel. Type:
float. Default value: 0\. Range: 0\...1\.;
#X msg 110 1734 @out1.tap4;
#X text 245 1734 Get/Set tap 4 output level to right channel. Type:
float. Default value: 0\. Range: 0\...1\.;
#X msg 110 1776 @out1.tap5;
#X text 245 1776 Get/Set tap 5 output level to right channel. Type:
float. Default value: 0\. Range: 0\...1\.;
#X msg 110 1818 @outs0;
#X text 245 1818 Get/Set list of all tap output levels to left channel.
Type: list. Default value: 0 0 0 0 0 0\. Range: 0\...1\.;
#X msg 110 1860 @outs1;
#X text 245 1860 Get/Set list of all tap output levels to right channel.
Type: list. Default value: 0 0 0 0 0 0\. Range: 0\...1\.;
#X msg 110 1902 @tap0.delay;
#X text 245 1902 Get/Set tap0 delay time. Type: float. Units: 'ms'.
Default value: 0\. Range: 0\...5000\.;
#X msg 110 1944 @tap0.fb0;
#X text 245 1944 Get/Set tap0 feedback to tap0\. Type: float. Default
value: 0\. Range: 0\...1\.;
#X msg 110 1986 @tap0.fb1;
#X text 245 1986 Get/Set tap1 feedback to tap0\. Type: float. Default
value: 0\. Range: 0\...1\.;
#X msg 110 2028 @tap0.fb2;
#X text 245 2028 Get/Set tap2 feedback to tap0\. Type: float. Default
value: 0\. Range: 0\...1\.;
#X msg 110 2070 @tap0.fb3;
#X text 245 2070 Get/Set tap3 feedback to tap0\. Type: float. Default
value: 0\. Range: 0\...1\.;
#X msg 110 2112 @tap0.fb4;
#X text 245 2112 Get/Set tap4 feedback to tap0\. Type: float. Default
value: 0\. Range: 0\...1\.;
#X msg 110 2154 @tap0.fb5;
#X text 245 2154 Get/Set tap5 feedback to tap0\. Type: float. Default
value: 0\. Range: 0\...1\.;
#X msg 110 2196 @tap0.gain;
#X text 245 2196 Get/Set tap0 common level. Type: float. Units: 'db'.
Default value: 0\. Range: -60\...0\.;
#X msg 110 2238 @tap0.in0;
#X text 245 2238 Get/Set left input level to tap0\. Type: float. Default
value: 1\. Range: 0\...1\.;
#X msg 110 2280 @tap0.in1;
#X text 245 2280 Get/Set right input level to tap0\. Type: float. Default
value: 1\. Range: 0\...1\.;
#X msg 110 2322 @tap1.delay;
#X text 245 2322 Get/Set tap1 delay time. Type: float. Units: 'ms'.
Default value: 0\. Range: 0\...5000\.;
#X msg 110 2364 @tap1.fb0;
#X text 245 2364 Get/Set tap0 feedback to tap1\. Type: float. Default
value: 0\. Range: 0\...1\.;
#X msg 110 2406 @tap1.fb1;
#X text 245 2406 Get/Set tap1 feedback to tap1\. Type: float. Default
value: 0\. Range: 0\...1\.;
#X msg 110 2448 @tap1.fb2;
#X text 245 2448 Get/Set tap2 feedback to tap1\. Type: float. Default
value: 0\. Range: 0\...1\.;
#X msg 110 2490 @tap1.fb3;
#X text 245 2490 Get/Set tap3 feedback to tap1\. Type: float. Default
value: 0\. Range: 0\...1\.;
#X msg 110 2532 @tap1.fb4;
#X text 245 2532 Get/Set tap4 feedback to tap1\. Type: float. Default
value: 0\. Range: 0\...1\.;
#X msg 110 2574 @tap1.fb5;
#X text 245 2574 Get/Set tap5 feedback to tap1\. Type: float. Default
value: 0\. Range: 0\...1\.;
#X msg 110 2616 @tap1.gain;
#X text 245 2616 Get/Set tap1 common level. Type: float. Units: 'db'.
Default value: 0\. Range: -60\...0\.;
#X msg 110 2658 @tap1.in0;
#X text 245 2658 Get/Set left input level to tap1\. Type: float. Default
value: 1\. Range: 0\...1\.;
#X msg 110 2700 @tap1.in1;
#X text 245 2700 Get/Set right input level to tap1\. Type: float. Default
value: 1\. Range: 0\...1\.;
#X msg 110 2742 @tap2.delay;
#X text 245 2742 Get/Set tap2 delay time. Type: float. Units: 'ms'.
Default value: 0\. Range: 0\...5000\.;
#X msg 110 2784 @tap2.fb0;
#X text 245 2784 Get/Set tap0 feedback to tap2\. Type: float. Default
value: 0\. Range: 0\...1\.;
#X msg 110 2826 @tap2.fb1;
#X text 245 2826 Get/Set tap1 feedback to tap2\. Type: float. Default
value: 0\. Range: 0\...1\.;
#X msg 110 2868 @tap2.fb2;
#X text 245 2868 Get/Set tap2 feedback to tap2\. Type: float. Default
value: 0\. Range: 0\...1\.;
#X msg 110 2910 @tap2.fb3;
#X text 245 2910 Get/Set tap3 feedback to tap2\. Type: float. Default
value: 0\. Range: 0\...1\.;
#X msg 110 2952 @tap2.fb4;
#X text 245 2952 Get/Set tap4 feedback to tap2\. Type: float. Default
value: 0\. Range: 0\...1\.;
#X msg 110 2994 @tap2.fb5;
#X text 245 2994 Get/Set tap5 feedback to tap2\. Type: float. Default
value: 0\. Range: 0\...1\.;
#X msg 110 3036 @tap2.gain;
#X text 245 3036 Get/Set tap2 common level. Type: float. Units: 'db'.
Default value: 0\. Range: -60\...0\.;
#X msg 110 3078 @tap2.in0;
#X text 245 3078 Get/Set left input level to tap2\. Type: float. Default
value: 1\. Range: 0\...1\.;
#X msg 110 3120 @tap2.in1;
#X text 245 3120 Get/Set right input level to tap2\. Type: float. Default
value: 1\. Range: 0\...1\.;
#X msg 110 3162 @tap3.delay;
#X text 245 3162 Get/Set tap3 delay time. Type: float. Units: 'ms'.
Default value: 0\. Range: 0\...5000\.;
#X msg 110 3204 @tap3.fb0;
#X text 245 3204 Get/Set tap0 feedback to tap3\. Type: float. Default
value: 0\. Range: 0\...1\.;
#X msg 110 3246 @tap3.fb1;
#X text 245 3246 Get/Set tap1 feedback to tap3\. Type: float. Default
value: 0\. Range: 0\...1\.;
#X msg 110 3288 @tap3.fb2;
#X text 245 3288 Get/Set tap2 feedback to tap3\. Type: float. Default
value: 0\. Range: 0\...1\.;
#X msg 110 3330 @tap3.fb3;
#X text 245 3330 Get/Set tap3 feedback to tap3\. Type: float. Default
value: 0\. Range: 0\...1\.;
#X msg 110 3372 @tap3.fb4;
#X text 245 3372 Get/Set tap4 feedback to tap3\. Type: float. Default
value: 0\. Range: 0\...1\.;
#X msg 110 3414 @tap3.fb5;
#X text 245 3414 Get/Set tap5 feedback to tap3\. Type: float. Default
value: 0\. Range: 0\...1\.;
#X msg 110 3456 @tap3.gain;
#X text 245 3456 Get/Set tap3 common level. Type: float. Units: 'db'.
Default value: 0\. Range: -60\...0\.;
#X msg 110 3498 @tap3.in0;
#X text 245 3498 Get/Set left input level to tap3\. Type: float. Default
value: 1\. Range: 0\...1\.;
#X msg 110 3540 @tap3.in1;
#X text 245 3540 Get/Set right input level to tap3\. Type: float. Default
value: 1\. Range: 0\...1\.;
#X msg 110 3582 @tap4.delay;
#X text 245 3582 Get/Set tap4 delay time. Type: float. Units: 'ms'.
Default value: 0\. Range: 0\...5000\.;
#X msg 110 3624 @tap4.fb0;
#X text 245 3624 Get/Set tap0 feedback to tap4\. Type: float. Default
value: 0\. Range: 0\...1\.;
#X msg 110 3666 @tap4.fb1;
#X text 245 3666 Get/Set tap1 feedback to tap4\. Type: float. Default
value: 0\. Range: 0\...1\.;
#X msg 110 3708 @tap4.fb2;
#X text 245 3708 Get/Set tap2 feedback to tap4\. Type: float. Default
value: 0\. Range: 0\...1\.;
#X msg 110 3750 @tap4.fb3;
#X text 245 3750 Get/Set tap3 feedback to tap4\. Type: float. Default
value: 0\. Range: 0\...1\.;
#X msg 110 3792 @tap4.fb4;
#X text 245 3792 Get/Set tap4 feedback to tap4\. Type: float. Default
value: 0\. Range: 0\...1\.;
#X msg 110 3834 @tap4.fb5;
#X text 245 3834 Get/Set tap5 feedback to tap4\. Type: float. Default
value: 0\. Range: 0\...1\.;
#X msg 110 3876 @tap4.gain;
#X text 245 3876 Get/Set tap4 common level. Type: float. Units: 'db'.
Default value: 0\. Range: -60\...0\.;
#X msg 110 3918 @tap4.in0;
#X text 245 3918 Get/Set left input level to tap4\. Type: float. Default
value: 1\. Range: 0\...1\.;
#X msg 110 3960 @tap4.in1;
#X text 245 3960 Get/Set right input level to tap4\. Type: float. Default
value: 1\. Range: 0\...1\.;
#X msg 110 4002 @tap5.delay;
#X text 245 4002 Get/Set tap5 delay time. Type: float. Units: 'ms'.
Default value: 0\. Range: 0\...5000\.;
#X msg 110 4044 @tap5.fb0;
#X text 245 4044 Get/Set tap0 feedback to tap5\. Type: float. Default
value: 0\. Range: 0\...1\.;
#X msg 110 4086 @tap5.fb1;
#X text 245 4086 Get/Set tap1 feedback to tap5\. Type: float. Default
value: 0\. Range: 0\...1\.;
#X msg 110 4128 @tap5.fb2;
#X text 245 4128 Get/Set tap2 feedback to tap5\. Type: float. Default
value: 0\. Range: 0\...1\.;
#X msg 110 4170 @tap5.fb3;
#X text 245 4170 Get/Set tap3 feedback to tap5\. Type: float. Default
value: 0\. Range: 0\...1\.;
#X msg 110 4212 @tap5.fb4;
#X text 245 4212 Get/Set tap4 feedback to tap5\. Type: float. Default
value: 0\. Range: 0\...1\.;
#X msg 110 4254 @tap5.fb5;
#X text 245 4254 Get/Set tap5 feedback to tap5\. Type: float. Default
value: 0\. Range: 0\...1\.;
#X msg 110 4296 @tap5.gain;
#X text 245 4296 Get/Set tap5 common level. Type: float. Units: 'db'.
Default value: 0\. Range: -60\...0\.;
#X msg 110 4338 @tap5.in0;
#X text 245 4338 Get/Set left input level to tap5\. Type: float. Default
value: 1\. Range: 0\...1\.;
#X msg 110 4380 @tap5.in1;
#X text 245 4380 Get/Set right input level to tap5\. Type: float. Default
value: 1\. Range: 0\...1\.;
#X obj 20 4432 cnv 1 745 1 empty empty empty 17 7 0 10 -203890 -1 0;
#X obj 20 4437 cnv 5 73 25 empty empty methods: 4 12 0 14 -262144
-49933 0;
#X msg 110 4472 pingpong;
#X text 245 4472 set pingpong delay values. Arguments are:;
#X obj 255 4495 cnv 1 45 23 empty empty empty 17 7 0 10 -245695 -1 0;
#X text 255 4495 DELAY: delay time. Type: float. Units: 'ms'.;
#X obj 255 4518 cnv 1 21 23 empty empty empty 17 7 0 10 -245695 -1 0;
#X text 255 4518 FB: feedback value. Type: float. Range: 0\...1\.;
#X msg 110 4543 random;
#X text 245 4543 randomize values. Arguments are:;
#X obj 255 4566 cnv 1 38 23 empty empty empty 17 7 0 10 -245695 -1 0;
#X text 255 4566 TYPE: group name. If 'delays' - randomize @delays
properties \, if 'fb' - randomize @fb* properties. Type: symbol. Allowed
values: delays \, fb \, inputs \, outputs \, gains.;
#X obj 255 4619 cnv 1 40 23 empty empty empty 17 7 0 10 -245695 -1 0;
#X text 255 4619 [MIN]: minimal value. Type: float. Min value: 0\.;
#X obj 255 4642 cnv 1 40 23 empty empty empty 17 7 0 10 -245695 -1 0;
#X text 255 4642 [MAX]: maximum value. Type: float. Min value: 0\.;
#X msg 110 4667 reset;
#X text 245 4667 reset to initial state.;
#X obj 20 4705 cnv 1 745 1 empty empty empty 17 7 0 10 -203890 -1 0;
#X obj 20 4710 cnv 5 64 25 empty empty inlets: 4 12 0 14 -262144
-49933 0;
#X text 110 4711 1\.;
#X text 245 4711 left in channel.;
#X text 110 4731 2\.;
#X text 245 4731 right in channel.;
#X obj 20 4761 cnv 1 745 1 empty empty empty 17 7 0 10 -203890 -1 0;
#X obj 20 4766 cnv 5 73 25 empty empty outlets: 4 12 0 14 -262144
-49933 0;
#X text 110 4767 1\.;
#X text 245 4767 left out channel.;
#X text 110 4787 2\.;
#X text 245 4787 right out channel.;
#X obj 10 48 ui.link @title index @url ../index-help.pd;
#X text 51 45 ::;
#X obj 68 48 ui.link @title ceammc @url ceammc-help.pd;
#X text 116 45 ::;
#X obj 133 48 ui.link @title fx @url ceammc.fx-help.pd;
#X obj 1 4837 cnv 5 765 48 empty empty empty 17 7 0 10 -203890 -1 0;
#X text 10 4840 library: ceammc v0.9.7;
#N canvas 10 4859 400 290 info 0;
#X obj 1 1 cnv 1 107 287 empty empty empty 17 7 0 10 -183085 -1 0;
#X text 10 10 library:;
#X text 120 10 ceammc;
#X text 10 32 version:;
#X text 120 32 0.9.7;
#X text 10 54 object:;
#X text 120 54 fx.tapiir~;
#X text 10 76 category:;
#X text 120 76 fx;
#X text 10 98 since:;
#X text 120 98 0.9.4;
#X text 10 120 authors:;
#X text 120 120 Viacheslav Lotsmanov \, Serge Poltavsky;
#X text 10 142 license:;
#X text 120 142 GPL3 or later;
#X text 10 164 keywords:;
#X text 120 164 fx \, delay \, tapiir;
#X text 10 186 website:;
#X obj 120 189 ui.link @title https://github.com/uliss/pd-ceammc @url
https://github.com/uliss/pd-ceammc;
#X obj 120 208 declare -lib ceammc;
#X obj 120 268 cnv 1 270 1 empty empty empty 17 7 0 10 -203890 -1 0;
#X text 120 268 generated by pddoc;
#X restore 10 4859 pd info;
#X connect 4 0 6 0;
#X connect 6 0 8 0;
#X connect 7 0 9 0;
#X connect 9 0 13 0;
#X connect 11 0 14 0;
#X connect 13 0 16 0;
#X connect 8 0 21 0;
#X connect 17 0 21 0;
#X connect 18 0 21 0;
#X connect 21 0 22 0;
#X connect 21 1 22 1;
#X connect 22 0 24 0;
#X connect 22 1 24 1;
#X connect 16 0 21 0;
#X connect 14 0 21 0;
#X connect 12 0 15 0;
#X connect 15 0 21 0;
#X connect 19 0 21 0;
#X connect 5 0 9 0;
#X connect 20 0 21 0;
#X connect 10 0 21 1;
#X connect 6 0 10 0;