#N canvas 0 0 785 555 12;
#X declare -lib ceammc;
#X obj 484 50 cnv 1 281 23 empty empty empty 17 7 0 10 -245760 -1 0;
#X text 484 50 tremolo effect from guitarix project;
#X obj 1 1 cnv 5 765 40 empty empty fx.tremolo~ 20 20 0 20 -104026
-4096 0;
#X obj 660 11 fx.tremolo~;
#X msg 50 118 open %CEAMMC%/guitar1.wav \, 1;
#X obj 50 147 expand_env;
#X obj 174 147 ui.hsl 0.5 10 @show_value 1;
#X obj 299 147 ui.hsl @show_value 1;
#X obj 434 147 ui.tab tri osc square @size 140 15;
#X obj 50 176 readsf~;
#X msg 174 176 @freq \$1;
#X msg 299 176 @depth \$1;
#X msg 434 176 @src \$1;
#X obj 50 234 fx.tremolo~;
#X obj 50 262 ui.gain~ @size 120 16;
#X obj 290 262 ui.dsp~;
#X obj 50 291 dac~;
#X obj 20 340 cnv 1 745 1 empty empty empty 17 7 0 10 -203890 -1 0;
#X obj 20 345 cnv 5 90 26 empty empty arguments: 4 10 0 14 -262144
-49933 0;
#X text 110 380 1\.;
#X text 150 380 float;
#X obj 246 381 cnv 1 69 20 empty empty empty 17 7 0 10 -245695 -1 0;
#X text 245 380 FREQ(Hz): tremolo frequency. Type: float. Range: 0.1\...50;
#X text 110 400 2\.;
#X text 150 400 float;
#X obj 246 401 cnv 1 47 20 empty empty empty 17 7 0 10 -245695 -1 0;
#X text 245 400 DEPTH: effect depth. Type: float. Range: 0\...1;
#X obj 20 430 cnv 1 745 1 empty empty empty 17 7 0 10 -203890 -1 0;
#X obj 20 435 cnv 5 98 26 empty empty properties: 4 10 0 14 -262144
-49933 0;
#X msg 110 470 @id;
#X text 245 470 (initonly) Get/Set OSC address id. If specified \,
bind properties to /ID/fx_tremolo/PROP_NAME osc address \, if empty
bind to /fx_tremolo/PROP_NAME. Type: symbol.;
#X msg 110 527 @osc;
#X text 245 527 (initonly) Get/Set OSC server name to listen. Type:
symbol.;
#X msg 110 556 @active;
#X text 245 556 Turn on/off dsp processing. Type: bool. Default value:
1\.;
#X msg 110 585 @bypass;
#X text 245 585 Get/Set if set to 1 - bypass 'effected' signal. Type:
bool. Default value: 0\.;
#X msg 110 627 @depth;
#X text 245 627 Get/Set effect depth. Type: float. Default value: 1\.
Range: 0\...1\.;
#X msg 110 669 @drywet;
#X text 245 669 Get/Set proportion of mix between the original (dry)
and 'effected' (wet) signals. 0 - dry signal \, 1 - wet. Type: float.
Default value: 0.75\. Range: 0\...1\.;
#X msg 110 726 @freq;
#X text 245 726 Get/Set tremolo frequency. Type: float. Units: Hz.
Default value: 5\. Range: 0.1\...50\.;
#X msg 110 768 @src;
#X text 245 768 Get/Set modulation source: 0 (triangle) \, 1 (sin)
or 2 (square). Type: int. Default value: 0\. Range: 0\...2\.;
#X obj 20 820 cnv 1 745 1 empty empty empty 17 7 0 10 -203890 -1 0;
#X obj 20 825 cnv 5 73 26 empty empty methods: 4 10 0 14 -262144
-49933 0;
#X msg 110 860 reset;
#X text 245 860 reset to initial state.;
#X obj 20 897 cnv 1 745 1 empty empty empty 17 7 0 10 -203890 -1 0;
#X obj 20 902 cnv 5 64 26 empty empty inlets: 4 10 0 14 -262144 -49933
0;
#X text 110 903 1\.;
#X text 245 903 input signal.;
#X text 110 923 2\.;
#X text 150 923 *float*;
#X text 245 923 set frequency (Hz).;
#X obj 20 953 cnv 1 745 1 empty empty empty 17 7 0 10 -203890 -1 0;
#X obj 20 958 cnv 5 73 26 empty empty outlets: 4 10 0 14 -262144
-49933 0;
#X text 110 959 1\.;
#X text 245 959 output signal.;
#X obj 10 48 ui.link @title index @url ../index-help.pd;
#X text 51 45 ::;
#X obj 67 48 ui.link @title ceammc @url ceammc-help.pd;
#X text 115 45 ::;
#X obj 131 48 ui.link @title fx @url ceammc.fx-help.pd;
#X obj 1 1009 cnv 5 765 48 empty empty empty 17 7 0 10 -203890 -1 0;
#X text 10 1012 library: ceammc v0.9.6;
#N canvas 10 1031 400 290 info 0;
#X obj 1 1 cnv 1 107 287 empty empty empty 17 7 0 10 -183085 -1 0;
#X text 10 10 library:;
#X text 120 10 ceammc;
#X text 10 32 version:;
#X text 120 32 0.9.6;
#X text 10 54 object:;
#X text 120 54 fx.tremolo~;
#X text 10 76 category:;
#X text 120 76 fx;
#X text 10 98 since:;
#X text 120 98 0.9.7;
#X text 10 120 authors:;
#X text 120 120 Serge Poltavsky;
#X text 10 142 license:;
#X text 120 142 GPL3 or later;
#X text 10 164 keywords:;
#X text 120 164 fx \, tremolo;
#X text 10 186 website:;
#X obj 120 189 ui.link @title https://github.com/uliss/pure-data @url
https://github.com/uliss/pure-data;
#X obj 120 208 declare -lib ceammc;
#X obj 120 268 cnv 1 270 1 empty empty empty 17 7 0 10 -203890 -1 0;
#X text 120 268 generated by pddoc;
#X restore 10 1031 pd info;
#X connect 4 0 5 0;
#X connect 5 0 9 0;
#X connect 6 0 10 0;
#X connect 7 0 11 0;
#X connect 8 0 12 0;
#X connect 9 0 13 0;
#X connect 10 0 13 0;
#X connect 11 0 13 0;
#X connect 12 0 13 0;
#X connect 13 0 14 0;
#X connect 14 0 16 0;
#X connect 14 0 16 1;