#N canvas 0 0 785 555 12;
#X declare -lib ceammc;
#X obj 621 50 cnv 1 144 23 empty empty empty 17 7 0 10 -245760 -1 0;
#X text 621 50 Zita stereo reverb;
#X obj 1 1 cnv 5 765 40 empty empty fx.zita_rev1~ 20 20 0 20 -104026
-4096 0;
#X obj 645 11 fx.zita_rev1~;
#X msg 50 118 bell.aiff;
#X msg 165 118 voice.wav;
#N canvas 0 22 450 300 (subpatch) 0;
#X array array1 100 float 0;
#X coords 0 1 100 -1 93 18 1;
#X restore 443 118 graph;
#X obj 50 147 symbol;
#X msg 50 176 load %DOC%/sound/\$1 @to array1 @resize;
#X obj 50 205 expand_env;
#X obj 50 234 snd.file;
#X msg 50 277 bang;
#X obj 50 305 tabplay~ array1;
#X obj 309 305 ui.dsp~;
#X floatatom 194 334 5 0 0 0 - - -;
#X obj 69 363 tgl 15 0 empty empty empty 17 7 0 10 -262144 -1 -1 0 1;
#X msg 194 363 @delay \$1;
#X floatatom 309 363 5 0 0 0 - - -;
#X floatatom 462 363 5 0 0 0 - - -;
#X msg 69 392 @bypass \$1;
#X msg 213 392 dump;
#X msg 309 392 @decay_mid \$1;
#X msg 462 392 @decay_low \$1;
#X obj 482 421 tgl 15 0 empty empty empty 17 7 0 10 -262144 -1 -1 0 1;
#X msg 482 449 @freeze \$1;
#X obj 50 478 fx.zita_rev1~ 3 4;
#X obj 50 507 ui.hgain2~;
#X obj 50 536 dac~;
#X obj 20 586 cnv 1 745 1 empty empty empty 17 7 0 10 -203890 -1 0;
#X obj 20 591 cnv 5 90 25 empty empty arguments: 4 12 0 14 -262144
-49933 0;
#X obj 735 594 ui.link @background_color 0.98039 0.98039 0.98039
@title [?] @url ceammc.args-info.pd;
#X text 110 626 1\.;
#X text 150 626 float;
#X obj 246 627 cnv 1 116 20 empty empty empty 17 7 0 10 -245695 -1 0;
#X text 245 626 DECAY_LOW(sec): time (in seconds) to decay 60dB in
low-frequency band. Type: float. Range: 1\...60;
#X text 110 661 2\.;
#X text 150 661 float;
#X obj 246 662 cnv 1 116 20 empty empty empty 17 7 0 10 -245695 -1 0;
#X text 245 661 DECAY_MID(sec): time (in seconds) to decay 60dB in
mid-frequency band. Type: float. Range: 1\...60;
#X text 110 696 3\.;
#X text 150 696 float;
#X obj 246 697 cnv 1 55 20 empty empty empty 17 7 0 10 -245695 -1 0;
#X text 245 696 DRYWET: ratio between source signal (dry) and processed
signal (wet). Type: float. Range: 0\...1;
#X obj 20 741 cnv 1 745 1 empty empty empty 17 7 0 10 -203890 -1 0;
#X obj 20 746 cnv 5 98 25 empty empty properties: 4 12 0 14 -262144
-49933 0;
#X obj 735 749 ui.link @background_color 0.98039 0.98039 0.98039
@title [?] @url ceammc.props-info.pd;
#X msg 110 781 @id;
#X text 245 781 (initonly) Get/Set OSC address id. If specified \,
bind all properties to /ID/fx_zita_rev1/PROP_NAME osc address \, if
empty bind to /fx_zita_rev1/PROP_NAME. Type: symbol.;
#X msg 110 838 @osc;
#X text 245 838 (initonly) Get/Set OSC server name to listen. Type:
symbol.;
#X msg 110 868 @active;
#X text 245 868 Turn on/off dsp processing. Type: bool. Default value:
1\.;
#X msg 110 898 @bypass;
#X text 245 898 Get/Set bypass flag. If true: bypass 'effected' signal.
Type: bool. Default value: 0\.;
#X msg 110 940 @damp_hf;
#X text 245 940 Get/Set Frequency (Hz) at which the high-frequency
T60 is half the middle-band's T60\. Type: float. Units: 'Hz'. Default
value: 6000\. Range: 1500\...47040\.;
#X msg 110 997 @decay_low;
#X text 245 997 Get/Set time (in seconds) to decay 60dB in low-frequency
band. Type: float. Units: 'sec'. Default value: 3\. Range: 1\...60\.;
#X msg 110 1054 @decay_mid;
#X text 245 1054 Get/Set time (in seconds) to decay 60dB in mid-frequency
band. Type: float. Units: 'sec'. Default value: 2\. Range: 1\...60\.;
#X msg 110 1111 @drywet;
#X text 245 1111 Get/Set Ratio between source signal (dry) and processed
signal (wet). Type: float. Default value: 1\. Range: 0\...1\.;
#X msg 110 1153 @fr_ldecay;
#X text 245 1153 Get/Set time (in seconds) to decay 60dB in low-frequency
band. Type: float. Units: 'sec'. Default value: 40\. Range: 0\...60\.;
#X msg 110 1210 @fr_mdecay;
#X text 245 1210 Get/Set time (in seconds) to decay 60dB in mid-frequency
band. Type: float. Units: 'sec'. Default value: 40\. Range: 0\...60\.;
#X msg 110 1267 @fr_time;
#X text 245 1267 Get/Set length of freeze tail. Type: float. Units:
'ms'. Default value: 100\. Range: 0\...1000\.;
#X msg 110 1309 @freeze;
#X text 245 1309 Get/Set freeze reverberation tail. Type: bool. Default
value: 0\.;
#X msg 110 1351 @freq_low;
#X text 245 1351 Get/Set Crossover frequency (Hz) separating low and
middle frequencies. Type: float. Units: 'Hz'. Default value: 200\.
Range: 50\...1000\.;
#X msg 110 1408 @predelay;
#X text 245 1408 Get/Set a delay operating on the 'wet' signal. Large
values will provide the impression of a larger room. Type: float. Units:
'ms'. Default value: 40\. Range: 0\...100\.;
#X obj 20 1475 cnv 1 745 1 empty empty empty 17 7 0 10 -203890 -1 0;
#X obj 20 1480 cnv 5 73 25 empty empty methods: 4 12 0 14 -262144
-49933 0;
#X msg 110 1515 reset;
#X text 245 1515 same as reset.;
#X obj 20 1553 cnv 1 745 1 empty empty empty 17 7 0 10 -203890 -1 0;
#X obj 20 1558 cnv 5 64 25 empty empty inlets: 4 12 0 14 -262144
-49933 0;
#X text 110 1559 1\.;
#X text 245 1559 left channel.;
#X text 110 1579 2\.;
#X text 245 1579 right channel.;
#X obj 20 1609 cnv 1 745 1 empty empty empty 17 7 0 10 -203890 -1 0;
#X obj 20 1614 cnv 5 73 25 empty empty outlets: 4 12 0 14 -262144
-49933 0;
#X text 110 1615 1\.;
#X text 245 1615 output left.;
#X text 110 1635 2\.;
#X text 245 1635 output right.;
#X obj 10 48 ui.link @title index @url ../index-help.pd;
#X text 51 45 ::;
#X obj 68 48 ui.link @title ceammc @url ceammc-help.pd;
#X text 116 45 ::;
#X obj 133 48 ui.link @title fx @url ceammc.fx-help.pd;
#X obj 1 1685 cnv 5 765 48 empty empty empty 17 7 0 10 -203890 -1 0;
#X text 10 1688 library: ceammc v0.9.7;
#N canvas 10 1707 400 290 info 0;
#X obj 1 1 cnv 1 107 287 empty empty empty 17 7 0 10 -183085 -1 0;
#X text 10 10 library:;
#X text 120 10 ceammc;
#X text 10 32 version:;
#X text 120 32 0.9.7;
#X text 10 54 object:;
#X text 120 54 fx.zita_rev1~;
#X text 10 76 category:;
#X text 120 76 fx;
#X text 10 98 since:;
#X text 120 98 0.2;
#X text 10 120 authors:;
#X text 120 120 Serge Poltavsky;
#X text 10 142 license:;
#X text 120 142 GPL3 or later;
#X text 10 164 keywords:;
#X text 120 164 fx \, reverb;
#X text 10 186 website:;
#X obj 120 189 ui.link @title https://github.com/uliss/pd-ceammc @url
https://github.com/uliss/pd-ceammc;
#X obj 120 208 declare -lib ceammc;
#X obj 120 268 cnv 1 270 1 empty empty empty 17 7 0 10 -203890 -1 0;
#X text 120 268 generated by pddoc;
#X restore 10 1707 pd info;
#X connect 4 0 7 0;
#X connect 5 0 7 0;
#X connect 7 0 8 0;
#X connect 8 0 9 0;
#X connect 9 0 10 0;
#X connect 11 0 12 0;
#X connect 14 0 16 0;
#X connect 15 0 19 0;
#X connect 17 0 21 0;
#X connect 18 0 22 0;
#X connect 23 0 24 0;
#X connect 12 0 25 0;
#X connect 19 0 25 0;
#X connect 16 0 25 0;
#X connect 20 0 25 0;
#X connect 21 0 25 0;
#X connect 22 0 25 0;
#X connect 24 0 25 0;
#X connect 25 0 26 0;
#X connect 25 1 26 1;
#X connect 26 0 27 0;
#X connect 26 1 27 1;