#N canvas 0 0 785 555 12;
#X declare -lib ceammc;
#X obj 536 50 cnv 1 229 23 empty empty empty 17 7 0 10 -245760 -1 0;
#X text 536 50 a 2d ambisonic harmonic scope;
#X obj 1 1 cnv 5 765 40 empty empty hoa.scope~ 20 20 0 20 -104026
-4096 0;
#X obj 543 13 ui.link @background_color 0.39216 0.39216 0.39216 @title
[hoa.2d.scope~] @url hoa.scope~-help.pd;
#X obj 665 13 ui.link @background_color 0.39216 0.39216 0.39216 @title
[hoa.scope~] @url hoa.scope~-help.pd;
#X obj 210 80 cnv 1 555 59 empty empty empty 17 7 0 10 -257983 -1 0;
#X text 215 80 displays the circular harmonics of an ambisonic sound
field;
#X obj 215 105 ui.link @background_color 0.98039 0.98039 0.98039
@title CICM documentation @url hoa/hoa.2d.scope~-help.pd;
#X obj 50 167 osc.square~ 0.15;
#X obj 280 167 phasor~ 0.15;
#X obj 50 196 ui.gain~ @size 120 14;
#X obj 280 196 phase->rad~;
#X obj 50 225 hoa.encoder~ 5, f 17;
#X obj 50 254 hoa.scope~ 5;
#X obj 50 383 ui.dsp~;
#X obj 20 433 cnv 1 745 1 empty empty empty 17 7 0 10 -203890 -1 0;
#X obj 20 438 cnv 5 115 25 empty empty mouse_events: 4 12 0 14 -262144
-49933 0;
#X text 110 473 Right-click + ⇧;
#X text 285 473 open the object help.;
#X text 110 493 Right-click + ⌥;
#X text 285 493 open the properties dialog.;
#X text 110 513 Right-click;
#X text 285 513 opens the Pd popup menu.;
#X text 61 513 [Edit];
#X text 110 533 Right-click + ⇧;
#X text 285 533 open the object help.;
#X text 61 533 [Edit];
#X text 110 553 Right-click + ⌥;
#X text 285 553 open the properties dialog.;
#X text 61 553 [Edit];
#X obj 20 583 cnv 1 745 1 empty empty empty 17 7 0 10 -203890 -1 0;
#X obj 20 588 cnv 5 90 25 empty empty arguments: 4 12 0 14 -262144
-49933 0;
#X obj 735 591 ui.link @background_color 0.98039 0.98039 0.98039
@title [?] @url ceammc.args-info.pd;
#X text 110 623 1\.;
#X text 150 623 int;
#X obj 246 624 cnv 1 47 20 empty empty empty 17 7 0 10 -245695 -1 0;
#X text 245 623 ORDER: the order of decomposition. Type: int. Min value:
1;
#X obj 20 653 cnv 1 745 1 empty empty empty 17 7 0 10 -203890 -1 0;
#X obj 20 658 cnv 5 98 25 empty empty properties: 4 12 0 14 -262144
-49933 0;
#X obj 735 661 ui.link @background_color 0.98039 0.98039 0.98039
@title [?] @url ceammc.props-info.pd;
#X msg 110 693 @gain;
#X text 245 693 Get/Set gain. Type: float. Default value: 1\. Min value:
0\.;
#X msg 110 723 @order;
#X text 245 723 Get/Set the order of decomposition. Type: int. Default
value: 1\. Range: 1\...63\.;
#X msg 110 765 @refresh;
#X text 245 765 Get/Set redraw time. Type: int. Units: 'ms'. Default
value: 100\. Range: 20\...1000\.;
#X msg 110 807 @view;
#X text 245 807 Get/Set view rotation. Type: float. Default value:
0\.;
#X msg 110 837 @background_color;
#X text 245 837 Get/Set element background color (list of red \, green
\, blue values in 0-1 range). Type: list. Default value: 0.93 0.93
0.93 1\.;
#X msg 110 894 @border_color;
#X text 245 894 Get/Set border color (list of red \, green \, blue
values in 0-1 range). Type: list. Default value: 0.6 0.6 0.6 1\.;
#X msg 110 936 @label_color;
#X text 245 936 Get/Set label color in RGB format within 0-1 range
\, for example: 0.2 0.4 0.1\. Type: list. Default value: 0 0 0 1\.;
#X msg 110 978 @nh_color;
#X text 245 978 Get/Set negative harmonics color. Type: list. Default
value: 0 0 1 1\.;
#X msg 110 1020 @ph_color;
#X text 245 1020 Get/Set positive harmonics color. Type: list. Default
value: 1 0 0 1\.;
#X msg 110 1062 @label;
#X text 245 1062 Get/Set label text. Type: symbol. Default value: (null).;
#X msg 110 1092 @label_align;
#X text 245 1092 Get/Set label horizontal align. Type: symbol. Default
value: left. Allowed values: left \, center \, right.;
#X msg 110 1134 @label_inner;
#X text 245 1134 Get/Set label position (1 - inner \, 0 - outer). Type:
bool. Default value: 0\.;
#X msg 110 1176 @label_margins;
#X text 245 1176 Get/Set label offset in pixels. Type: list. Default
value: 0 0\.;
#X msg 110 1218 @label_side;
#X text 245 1218 Get/Set label snap side. Type: symbol. Default value:
top. Allowed values: left \, top \, right \, bottom.;
#X msg 110 1260 @label_valign;
#X text 245 1260 Get/Set label vertical align. Type: symbol. Default
value: top. Allowed values: top \, center \, bottom.;
#X msg 110 1302 @fontname;
#X text 245 1302 Get/Set fontname. Type: symbol. Default value: Helvetica.
Allowed values: Courier \, DejaVu \, Helvetica \, Monaco \, Times.;
#X msg 110 1344 @fontsize;
#X text 245 1344 Get/Set fontsize. Type: int. Default value: 11\. Range:
4\...100\.;
#X msg 110 1386 @fontslant;
#X text 245 1386 Get/Set font slant. Type: symbol. Default value: roman.
Allowed values: roman \, italic.;
#X msg 110 1428 @fontweight;
#X text 245 1428 Get/Set font weight. Type: symbol. Default value:
normal. Allowed values: normal \, bold.;
#X msg 110 1470 @pinned;
#X text 245 1470 Get/Set pin mode. if 1 - put element to the lowest
level. Type: bool. Default value: 0\.;
#X msg 110 1512 @size;
#X text 245 1512 Get/Set element size (width \, height pair). Type:
list. Default value: 120 120\.;
#X obj 20 1564 cnv 1 745 1 empty empty empty 17 7 0 10 -203890 -1 0;
#X obj 20 1569 cnv 5 73 25 empty empty methods: 4 12 0 14 -262144
-49933 0;
#X msg 110 1604 pos;
#X text 245 1604 set UI element position. Arguments are:;
#X obj 255 1627 cnv 1 15 23 empty empty empty 17 7 0 10 -245695 -1 0;
#X text 255 1627 X: top left x-coord. Type: float.;
#X obj 255 1650 cnv 1 15 23 empty empty empty 17 7 0 10 -245695 -1 0;
#X text 255 1650 Y: top right y-coord. Type: float.;
#X msg 110 1675 dump;
#X text 245 1675 dumps all object info to Pd console window.;
#X obj 20 1713 cnv 1 745 1 empty empty empty 17 7 0 10 -203890 -1 0;
#X obj 20 1718 cnv 5 64 25 empty empty inlets: 4 12 0 14 -262144
-49933 0;
#X text 110 1719 1\.;
#X text 245 1719 first input harmonic.;
#X text 110 1739 ....;
#X text 245 1739 ... input harmonic.;
#X text 110 1759 n.;
#X text 245 1759 n-th input harmonic.;
#X obj 10 48 ui.link @title index @url ../index-help.pd;
#X text 51 45 ::;
#X obj 68 48 ui.link @title ceammc @url ceammc-help.pd;
#X text 116 45 ::;
#X obj 133 48 ui.link @title spat @url ceammc.spat-help.pd;
#X obj 1 1809 cnv 5 765 48 empty empty empty 17 7 0 10 -203890 -1 0;
#X text 10 1812 library: ceammc v0.9.7;
#N canvas 10 1831 400 290 info 0;
#X obj 1 1 cnv 1 107 287 empty empty empty 17 7 0 10 -183085 -1 0;
#X text 10 10 library:;
#X text 120 10 ceammc;
#X text 10 32 version:;
#X text 120 32 0.9.7;
#X text 10 54 object:;
#X text 120 54 hoa.scope~;
#X text 10 76 category:;
#X text 120 76 spat;
#X text 10 98 since:;
#X text 120 98 0.8;
#X text 10 120 authors:;
#X text 120 120 Serge Poltavsky \, Pierre Guillot \, Eliott Paris \,
Thomas Le Meur;
#X text 10 142 license:;
#X text 120 142 GPL3 or later;
#X text 10 164 keywords:;
#X text 120 164 hoa \, scope;
#X text 10 186 website:;
#X obj 120 189 ui.link @title https://github.com/uliss/pd-ceammc @url
https://github.com/uliss/pd-ceammc;
#X obj 120 208 declare -lib ceammc;
#X obj 120 268 cnv 1 270 1 empty empty empty 17 7 0 10 -203890 -1 0;
#X text 120 268 generated by pddoc;
#X restore 10 1831 pd info;
#X connect 8 0 10 0;
#X connect 9 0 11 0;
#X connect 10 0 12 0;
#X connect 11 0 12 1;
#X connect 12 0 13 0;
#X connect 12 1 13 1;
#X connect 12 2 13 2;
#X connect 12 3 13 3;
#X connect 12 4 13 4;
#X connect 12 5 13 5;
#X connect 12 6 13 6;
#X connect 12 7 13 7;
#X connect 12 8 13 8;
#X connect 12 9 13 9;
#X connect 12 10 13 10;