#N canvas 0 0 785 555 12;
#X declare -lib ceammc;
#X obj 368 50 cnv 1 397 23 empty empty empty 17 7 0 10 -245760 -1 0;
#X text 368 50 message outlet for a patcher loaded by hoa.process~;
#X obj 1 1 cnv 5 765 40 empty empty hoa.out 20 20 0 20 -104026 -4096
0;
#X obj 690 11 hoa.out;
#X obj 210 80 cnv 1 555 50 empty empty empty 17 7 0 10 -257983 -1 0;
#X text 215 80 hoa.out defines a message outlet for a patcher loaded
by a hoa.process~ object.;
#X msg 50 158 open 0;
#X msg 136 158 open 1;
#X msg 232 158 42;
#X msg 280 158 #0 43;
#X msg 366 158 #1 44;
#X obj 50 202 hoa.process~ 2 hoa/hoa_in_example1 planewaves;
#X obj 50 230 print A;
#X msg 50 259 open 0;
#X msg 174 259 42;
#X msg 222 259 #0 43;
#X msg 309 259 #1 44;
#X msg 395 259 45;
#X msg 443 259 #0 46;
#X msg 530 259 #1 47;
#X msg 69 288 open 1;
#X obj 50 317 hoa.process~ 2 hoa/hoa_in_example2 planewaves;
#X obj 50 345 print B;
#X obj 366 345 print C;
#X obj 20 394 cnv 1 745 1 empty empty empty 17 7 0 10 -203890 -1 0;
#X obj 20 399 cnv 5 90 26 empty empty arguments: 4 10 0 14 -262144
-49933 0;
#X text 110 434 1\.;
#X text 150 434 int;
#X obj 246 435 cnv 1 46 20 empty empty empty 17 7 0 10 -245695 -1 0;
#X text 245 434 INDEX: outlet index. Type: int. Min value: 1;
#X obj 20 464 cnv 1 745 1 empty empty empty 17 7 0 10 -203890 -1 0;
#X obj 20 469 cnv 5 98 26 empty empty properties: 4 10 0 14 -262144
-49933 0;
#X msg 110 504 @index;
#X text 245 504 Get/Set outlet index. Type: int. Default value: 1\.
Min value: 1\.;
#X obj 20 556 cnv 1 745 1 empty empty empty 17 7 0 10 -203890 -1 0;
#X obj 20 561 cnv 5 64 26 empty empty inlets: 4 10 0 14 -262144 -49933
0;
#X text 110 562 1\.;
#X text 150 562 *bang*;
#X text 245 562 output bang message in the corresponding hoa.process~
object's message outlet.;
#X text 150 597 *float*;
#X text 245 597 output float message in the corresponding hoa.process~
object's message outlet.;
#X text 150 632 *symbol*;
#X text 245 632 output symbol message in the corresponding hoa.process~
object's message outlet.;
#X text 150 667 *list*;
#X text 245 667 output list message in the corresponding hoa.process~
object's message outlet.;
#X text 150 702 *any*;
#X text 245 702 output any message in the corresponding hoa.process~
object's message outlet.;
#X obj 10 48 ui.link @title index @url ../index-help.pd;
#X text 51 45 ::;
#X obj 67 48 ui.link @title ceammc @url ceammc-help.pd;
#X text 115 45 ::;
#X obj 131 48 ui.link @title spat @url ceammc.spat-help.pd;
#X obj 1 767 cnv 5 765 48 empty empty empty 17 7 0 10 -203890 -1 0;
#X text 10 770 library: ceammc v0.9.4;
#X text 483 782 see also:;
#X obj 557 782 hoa.out~;
#X obj 631 782 hoa.in;
#X obj 689 782 hoa.in~;
#N canvas 10 789 400 290 info 0;
#X obj 1 1 cnv 1 107 287 empty empty empty 17 7 0 10 -183085 -1 0;
#X text 10 10 library:;
#X text 120 10 ceammc;
#X text 10 32 version:;
#X text 120 32 0.9.4;
#X text 10 54 object:;
#X text 120 54 hoa.out;
#X text 10 76 category:;
#X text 120 76 spat;
#X text 10 98 since:;
#X text 120 98 0.8;
#X text 10 120 authors:;
#X text 120 120 Serge Poltavsky \, Pierre Guillot \, Eliott Paris \,
Thomas Le Meur;
#X text 10 142 license:;
#X text 120 142 GPL3 or later;
#X text 10 164 keywords:;
#X text 120 164 hoa \, outlet;
#X text 10 186 website:;
#X obj 120 189 ui.link @title https://github.com/uliss/pure-data @url
https://github.com/uliss/pure-data;
#X obj 120 208 declare -lib ceammc;
#X obj 120 268 cnv 1 270 1 empty empty empty 17 7 0 10 -203890 -1 0;
#X text 120 268 generated by pddoc;
#X restore 10 789 pd info;
#X connect 6 0 11 0;
#X connect 7 0 11 0;
#X connect 8 0 11 1;
#X connect 9 0 11 1;
#X connect 10 0 11 1;
#X connect 11 0 12 0;
#X connect 13 0 21 0;
#X connect 20 0 21 0;
#X connect 14 0 21 1;
#X connect 15 0 21 1;
#X connect 16 0 21 1;
#X connect 17 0 21 3;
#X connect 18 0 21 3;
#X connect 19 0 21 3;
#X connect 21 0 22 0;
#X connect 21 1 23 0;