#N canvas 0 0 785 555 12;
#X declare -lib ceammc;
#X obj 568 50 cnv 1 197 23 empty empty empty 17 7 0 10 -245760 -1 0;
#X text 568 50 Raspberry Pi GPIO support;
#X obj 1 1 cnv 5 765 40 empty empty hw.gpio 20 20 0 20 -104026 -4096
0;
#X obj 689 11 hw.gpio;
#X obj 210 80 cnv 1 555 35 empty empty empty 17 7 0 10 -257983 -1 0;
#X text 215 80 At this moment supports only MacOSX;
#X obj 50 143 loadbang;
#X msg 50 172 input 17 \, pull_up 17 \, output 18;
#X msg 69 201 read 17;
#X obj 261 201 tgl 15 0 empty empty empty 17 7 0 10 -262144 -1 -1 0 1;
#X msg 299 201 toggle 18;
#X msg 69 230 start_poll 17;
#X msg 261 230 write 18 \$1;
#X msg 69 259 stop_poll 17;
#X msg 261 259 read 18;
#X msg 69 287 reset 17;
#X msg 261 287 set_pwm 18 500 100;
#X msg 491 287 set_pwm_freq 18 4 0.5;
#X msg 261 316 clear_pwm 18;
#X msg 261 345 reset 18;
#X obj 50 374 hw.gpio;
#X obj 50 403 route pin;
#X obj 50 431 ui.dt;
#X obj 20 481 cnv 1 745 1 empty empty empty 17 7 0 10 -203890 -1 0;
#X obj 20 486 cnv 5 73 25 empty empty methods: 4 12 0 14 -262144
-49933 0;
#X msg 110 521 clear_pwm;
#X text 245 521 clear PWM settings for pin. Arguments are:;
#X obj 255 544 cnv 1 29 23 empty empty empty 17 7 0 10 -245695 -1 0;
#X text 255 544 PIN: pin number. Type: int.;
#X msg 110 569 input;
#X text 245 569 config pin into input mode. Arguments are:;
#X obj 255 592 cnv 1 29 23 empty empty empty 17 7 0 10 -245695 -1 0;
#X text 255 592 PIN: pin number. Type: int.;
#X msg 110 617 list_pins;
#X text 245 617 method.;
#X msg 110 645 output;
#X text 245 645 config pin into output mode. Arguments are:;
#X obj 255 668 cnv 1 29 23 empty empty empty 17 7 0 10 -245695 -1 0;
#X text 255 668 PIN: pin number. Type: int.;
#X msg 110 693 pull_down;
#X text 245 693 pull internal pin resistors to low level. Arguments
are:;
#X obj 255 716 cnv 1 29 23 empty empty empty 17 7 0 10 -245695 -1 0;
#X text 255 716 PIN: pin number. Type: int.;
#X msg 110 741 pull_up;
#X text 245 741 pull internal pin resistors to high level. Arguments
are:;
#X obj 255 764 cnv 1 29 23 empty empty empty 17 7 0 10 -245695 -1 0;
#X text 255 764 PIN: pin number. Type: int.;
#X msg 110 789 read;
#X text 245 789 read current pin value. Arguments are:;
#X obj 255 812 cnv 1 29 23 empty empty empty 17 7 0 10 -245695 -1 0;
#X text 255 812 PIN: pin number. Type: int.;
#X msg 110 837 reset;
#X text 245 837 reset current pin to initial state. Arguments are:;
#X obj 255 860 cnv 1 29 23 empty empty empty 17 7 0 10 -245695 -1 0;
#X text 255 860 PIN: pin number. Type: int.;
#X msg 110 885 set_pwm;
#X text 245 885 set software PWM for pin. Arguments are:;
#X obj 255 908 cnv 1 29 23 empty empty empty 17 7 0 10 -245695 -1 0;
#X text 255 908 PIN: pin number. Type: int.;
#X obj 255 931 cnv 1 52 23 empty empty empty 17 7 0 10 -245695 -1 0;
#X text 255 931 PERIOD: period length. Type: float. Min value: 0\.
Units: 'ms'.;
#X obj 255 969 cnv 1 38 23 empty empty empty 17 7 0 10 -245695 -1 0;
#X text 255 969 DUTY: duty length. Type: float. Min value: 0\. Units:
'ms'.;
#X msg 110 994 set_pwm_freq;
#X text 245 994 set software PWM frequency for pin. Arguments are:;
#X obj 255 1017 cnv 1 29 23 empty empty empty 17 7 0 10 -245695 -1 0;
#X text 255 1017 PIN: pin number. Type: int.;
#X obj 255 1040 cnv 1 36 23 empty empty empty 17 7 0 10 -245695 -1 0;
#X text 255 1040 FREQ: pwm freq. Type: float. Min value: 0\. Units:
'Hz'.;
#X obj 255 1063 cnv 1 38 23 empty empty empty 17 7 0 10 -245695 -1 0;
#X text 255 1063 DUTY: duty cycle length. Type: float. Range: 0\...1\.;
#X msg 110 1088 start_poll;
#X text 245 1088 start pin value polling. Arguments are:;
#X obj 255 1111 cnv 1 29 23 empty empty empty 17 7 0 10 -245695 -1 0;
#X text 255 1111 PIN: pin number. Type: int.;
#X obj 255 1134 cnv 1 101 23 empty empty empty 17 7 0 10 -245695 -1 0;
#X text 255 1134 [DEBOUNCE=10]: debounce time. Type: float. Min value:
0\. Units: 'ms'.;
#X msg 110 1174 stop_poll;
#X text 245 1174 stop pin value polling. Arguments are:;
#X obj 255 1197 cnv 1 29 23 empty empty empty 17 7 0 10 -245695 -1 0;
#X text 255 1197 PIN: pin number. Type: int.;
#X msg 110 1222 toggle;
#X text 245 1222 toggle output pin current value. Arguments are:;
#X obj 255 1245 cnv 1 29 23 empty empty empty 17 7 0 10 -245695 -1 0;
#X text 255 1245 PIN: pin number. Type: int.;
#X msg 110 1270 write;
#X text 245 1270 write value to the pin. Arguments are:;
#X obj 255 1293 cnv 1 29 23 empty empty empty 17 7 0 10 -245695 -1 0;
#X text 255 1293 PIN: pin number. Type: int.;
#X obj 255 1316 cnv 1 45 23 empty empty empty 17 7 0 10 -245695 -1 0;
#X text 255 1316 VALUE: value. Type: bool.;
#X obj 20 1351 cnv 1 745 1 empty empty empty 17 7 0 10 -203890 -1 0;
#X obj 20 1356 cnv 5 64 25 empty empty inlets: 4 12 0 14 -262144
-49933 0;
#X text 110 1357 1\.;
#X text 245 1357 control input.;
#X obj 20 1387 cnv 1 745 1 empty empty empty 17 7 0 10 -203890 -1 0;
#X obj 20 1392 cnv 5 73 25 empty empty outlets: 4 12 0 14 -262144
-49933 0;
#X text 110 1393 1\.;
#X text 245 1393 pins state output.;
#X obj 10 48 ui.link @title index @url ../index-help.pd;
#X text 51 45 ::;
#X obj 68 48 ui.link @title ceammc @url ceammc-help.pd;
#X text 116 45 ::;
#X obj 133 48 ui.link @title hw @url ceammc.hw-help.pd;
#X obj 1 1443 cnv 5 765 48 empty empty empty 17 7 0 10 -203890 -1 0;
#X text 10 1446 library: ceammc v0.9.7;
#N canvas 10 1465 400 290 info 0;
#X obj 1 1 cnv 1 107 287 empty empty empty 17 7 0 10 -183085 -1 0;
#X text 10 10 library:;
#X text 120 10 ceammc;
#X text 10 32 version:;
#X text 120 32 0.9.7;
#X text 10 54 object:;
#X text 120 54 hw.gpio;
#X text 10 76 category:;
#X text 120 76 hw;
#X text 10 98 since:;
#X text 120 98 0.9.1;
#X text 10 120 authors:;
#X text 120 120 Serge Poltavsky;
#X text 10 142 license:;
#X text 120 142 GPL3 or later;
#X text 10 164 keywords:;
#X text 120 164 display \, brightness;
#X text 10 186 website:;
#X obj 120 189 ui.link @title https://github.com/uliss/pd-ceammc @url
https://github.com/uliss/pd-ceammc;
#X obj 120 208 declare -lib ceammc;
#X obj 120 268 cnv 1 270 1 empty empty empty 17 7 0 10 -203890 -1 0;
#X text 120 268 generated by pddoc;
#X restore 10 1465 pd info;
#X connect 6 0 7 0;
#X connect 9 0 12 0;
#X connect 7 0 20 0;
#X connect 20 0 21 0;
#X connect 21 0 22 0;
#X connect 8 0 20 0;
#X connect 11 0 20 0;
#X connect 13 0 20 0;
#X connect 15 0 20 0;
#X connect 12 0 20 0;
#X connect 10 0 20 0;
#X connect 14 0 20 0;
#X connect 19 0 20 0;
#X connect 16 0 20 0;
#X connect 17 0 20 0;
#X connect 18 0 20 0;