#N canvas 0 0 785 555 12;
#X declare -lib ceammc;
#X obj 591 50 cnv 1 174 23 empty empty empty 17 7 0 10 -245760 -1 0;
#X text 591 50 Basic printing support;
#X obj 1 1 cnv 5 765 40 empty empty hw.printer 20 20 0 20 -104026
-4096 0;
#X obj 667 11 hw.printer;
#X obj 210 80 cnv 1 555 60 empty empty empty 17 7 0 10 -257983 -1 0;
#X text 215 80 MacOs: supports only text \, PDF and images files.;
#X text 215 105 Windows: supports only PDF files.;
#X msg 50 168 devices;
#X obj 155 168 bng 15 250 50 0 empty empty empty 17 7 0 10 -262144 -1
-1;
#X msg 69 197 choose;
#X obj 155 197 openpanel;
#X msg 155 226 print \$1 @landscape 0;
#X obj 50 255 hw.printer;
#X text 165 255 using default printer;
#X obj 50 284 print;
#X obj 20 334 cnv 1 745 1 empty empty empty 17 7 0 10 -203890 -1 0;
#X obj 20 339 cnv 5 90 25 empty empty arguments: 4 12 0 14 -262144
-49933 0;
#X obj 735 342 ui.link @background_color 0.98039 0.98039 0.98039
@title [?] @url ceammc.args-info.pd;
#X text 110 374 1\.;
#X text 150 374 symbol;
#X obj 246 375 cnv 1 40 20 empty empty empty 17 7 0 10 -245695 -1 0;
#X text 245 374 NAME: printer name \, if empty - use default system
printer. Type: symbol.;
#X obj 20 419 cnv 1 745 1 empty empty empty 17 7 0 10 -203890 -1 0;
#X obj 20 424 cnv 5 98 25 empty empty properties: 4 12 0 14 -262144
-49933 0;
#X obj 735 427 ui.link @background_color 0.98039 0.98039 0.98039
@title [?] @url ceammc.props-info.pd;
#X msg 110 459 @name;
#X text 245 459 Get/Set printer name \, if empty - use default system
printer. Type: symbol.;
#X obj 20 511 cnv 1 745 1 empty empty empty 17 7 0 10 -203890 -1 0;
#X obj 20 516 cnv 5 73 25 empty empty methods: 4 12 0 14 -262144
-49933 0;
#X msg 110 551 choose;
#X text 245 551 choose printer by index. Arguments are:;
#X obj 255 574 cnv 1 40 23 empty empty empty 17 7 0 10 -245695 -1 0;
#X text 255 574 [IDX]: printer index in device list. Type: int. Min
value: 0\.;
#X msg 110 614 devices;
#X text 245 614 list printers.;
#X msg 110 642 print;
#X text 245 642 print file. Arguments are:;
#X obj 255 665 cnv 1 36 23 empty empty empty 17 7 0 10 -245695 -1 0;
#X text 255 665 FILE: file to print. Type: symbol.;
#X obj 255 688 cnv 1 93 23 empty empty empty 17 7 0 10 -245695 -1 0;
#X text 255 688 [@landscape]: print in landscape mode. Type: bool.;
#X obj 20 723 cnv 1 745 1 empty empty empty 17 7 0 10 -203890 -1 0;
#X obj 20 728 cnv 5 64 25 empty empty inlets: 4 12 0 14 -262144 -49933
0;
#X text 110 729 1\.;
#X text 245 729 input.;
#X obj 20 759 cnv 1 745 1 empty empty empty 17 7 0 10 -203890 -1 0;
#X obj 20 764 cnv 5 73 25 empty empty outlets: 4 12 0 14 -262144
-49933 0;
#X text 110 765 1\.;
#X text 245 765 dict: printer info output.;
#X obj 10 48 ui.link @title index @url ../index-help.pd;
#X text 51 45 ::;
#X obj 68 48 ui.link @title ceammc @url ceammc-help.pd;
#X text 116 45 ::;
#X obj 133 48 ui.link @title hw @url ceammc.hw-help.pd;
#X obj 1 815 cnv 5 765 48 empty empty empty 17 7 0 10 -203890 -1 0;
#X text 10 818 library: ceammc v0.9.7;
#N canvas 10 837 400 290 info 0;
#X obj 1 1 cnv 1 107 287 empty empty empty 17 7 0 10 -183085 -1 0;
#X text 10 10 library:;
#X text 120 10 ceammc;
#X text 10 32 version:;
#X text 120 32 0.9.7;
#X text 10 54 object:;
#X text 120 54 hw.printer;
#X text 10 76 category:;
#X text 120 76 hw;
#X text 10 98 since:;
#X text 120 98 0.9.8;
#X text 10 120 authors:;
#X text 120 120 Serge Poltavsky;
#X text 10 142 license:;
#X text 120 142 GPL3 or later;
#X text 10 164 keywords:;
#X text 120 164 display \, brightness;
#X text 10 186 website:;
#X obj 120 189 ui.link @title https://github.com/uliss/pd-ceammc @url
https://github.com/uliss/pd-ceammc;
#X obj 120 208 declare -lib ceammc;
#X obj 120 268 cnv 1 270 1 empty empty empty 17 7 0 10 -203890 -1 0;
#X text 120 268 generated by pddoc;
#X restore 10 837 pd info;
#X connect 8 0 10 0;
#X connect 10 0 11 0;
#X connect 7 0 12 0;
#X connect 9 0 12 0;
#X connect 11 0 12 0;
#X connect 12 0 14 0;