#N canvas 155 51 686 596 12;
#X obj 45 155 cnv 15 590 395 empty empty empty 20 12 0 14 -228856 -66577
0;
#X obj 285 321 ui.link @size 269 16 @fontname "Helvetica" @fontweight
"normal" @fontslant "roman" @fontsize 11 @receive "(null)" @send "(null)"
@pinned 0 @bgcolor 1 1 1 1 @bdcolor 0.6 0.6 0.6 1 @link "https://github.com/uliss/pure-data"
@title "https://github.com/uliss/pure-data";
#X text 60 289 Distribution license is GPL 3;
#X text 60 199 This is PureData distribution v2017.02 by Centre of
electoacoustic music of Moscow Conservatory (CEAMMC) and ZIL-electro
studio. Made by Serge Poltavsky and Alex Nadzharov.;
#X text 60 319 The source code available at:;
#X obj 60 466 ui.link @size 80 16 @fontname "Helvetica" @fontweight
"normal" @fontslant "roman" @fontsize 11 @receive "(null)" @send "(null)"
@pinned 0 @bgcolor 1 1 1 1 @bdcolor 0.6 0.6 0.6 1 @link "ceammc/ceammc-help.pd"
@title "ceammc:doc";
#X obj 585 530 cnv 15 50 20 empty empty empty 20 12 0 14 -99865 -66577
0;
#X obj 585 155 cnv 15 50 20 empty empty empty 20 12 0 14 -99865 -66577
0;
#X obj 45 530 cnv 15 50 20 empty empty empty 20 12 0 14 -99865 -66577
0;
#X obj 45 155 cnv 15 50 20 empty empty empty 20 12 0 14 -99865 -66577
0;
#X obj 47 25 ui.bang @size 101 101 @fontname "Helvetica" @fontweight
"normal" @fontslant "roman" @fontsize 11 @receive "(null)" @send "(null)"
@pinned 0 @bgcolor 1 1 1 1 @bdcolor 0.6 0.6 0.6 1 @bacolor 0 0.75 1
1 @borderwidth 1 @labeloffset 0 0;
#X obj 70 125 cnv 3 3 30 empty empty empty 20 12 0 14 -99865 -66577
0;
#X text 60 394 This distribution contains *ceammc* library \, that
aims to be standard base for education and artists purposes. It contains
over 150 objects \, for working with lists \, GUI etc.;
