#N canvas 0 0 255 115 12;
#X floatatom 20 48 5 0 0 0 - - -;
#X obj 20 77 is_even;
#X floatatom 20 106 5 0 0 0 - - -;
#X obj 144 106 print passed;
#X connect 0 0 1 0;
#X connect 1 1 3 0;
#X connect 1 0 2 0;
