#N canvas 0 0 685 555 12;
#X obj 450 50 cnv 1 215 21 empty empty empty 17 7 0 10 -245760 -1 0;
#X text 450 50 checks if input number is odd;
#X obj 1 1 cnv 5 682 40 empty empty is_odd 20 20 0 20 -104026 -4096 0;
#X obj 614 11 is_odd;
#X floatatom 50 118 5 0 0 0 - - -;
#X obj 50 147 is_odd;
#X obj 50 176 tgl 15 0 empty empty empty 17 7 0 10 -262144 -1 -1 0 1;
#X floatatom 98 176 5 0 0 0 - - -;
#X obj 20 215 cnv 1 661 1 empty empty empty 17 7 0 10 -203890 -1 0;
#X obj 20 220 cnv 5 54 16 empty empty inlets: 0 14 0 14 -262144 -49933
0;
#X text 125 225 1\.;
#X text 150 225 *int*;
#X text 230 225 outputs '1' if number is not a multiple of two \,
otherwise outputs '0'\.\. ;
#X text 150 257 *float*;
#X text 230 257 first value converted to integer \, then the check is
performed\. ;
#X obj 20 299 cnv 1 661 1 empty empty empty 17 7 0 10 -203890 -1 0;
#X obj 20 304 cnv 5 63 16 empty empty outlets: 0 14 0 14 -262144
-49933 0;
#X text 125 309 1\.;
#X text 230 309 0 or 1;
#X text 125 327 2\.;
#X text 230 327 passed odd numbers;
#X obj 10 48 ui.link @title index @link ../index-help.pd @size 100 25;
#X text 51 45 ::;
#X obj 67 48 ui.link @title ceammc @link ceammc-help.pd @size 100 25;
#X text 115 45 ::;
#X obj 131 48 ui.link @title predicates @link ceammc.predicates-
help.pd @size 100 25;
#X obj 1 505 cnv 5 682 48 empty empty empty 17 7 0 10 -203890 -1 0;
#X text 10 508 library: ceammc v0\.1;
#X text 540 520 see also:;
#X obj 610 520 is_even;
#N canvas 10 527 400 250 info 0;
#X obj 1 1 cnv 1 107 247 empty empty empty 17 7 0 10 -183085 -1 0;
#X text 10 10 library:;
#X text 120 10 ceammc;
#X text 10 32 version:;
#X text 120 32 0\.1;
#X text 10 54 object:;
#X text 120 54 is_odd;
#X text 10 76 category:;
#X text 120 76 predicates;
#X text 10 98 since:;
#X text 120 98 0\.1;
#X text 10 120 authors:;
#X text 120 120 Serge Poltavsky;
#X text 10 142 license:;
#X text 120 142 GPL3;
#X text 10 164 keywords:;
#X text 120 164 predicate \, numbers;
#X text 10 186 website:;
#X obj 120 189 ui.link @title https://github.com/uliss/pure-data @link
https://github.com/uliss/pure-data @size 100 25;
#X obj 120 228 cnv 1 270 1 empty empty empty 17 7 0 10 -203890 -1 0;
#X text 120 228 generated by pddoc;
#X restore 10 527 pd info;
#X connect 4 0 5 0;
#X connect 5 1 7 0;
#X connect 5 0 6 0;