#N canvas 0 0 785 555 12;
#X declare -lib ceammc;
#X obj 415 50 cnv 1 350 23 empty empty empty 17 7 0 10 -245760 -1 0;
#X text 415 50 checks if input message is *property* message;
#X obj 1 1 cnv 5 765 40 empty empty is_prop 20 20 0 20 -104026 -4096
0;
#X obj 690 11 is_prop;
#X obj 50 118 bng 15 250 50 0 empty empty empty 17 7 0 10 -262144 -1
-1;
#X msg 126 118 100;
#X msg 222 118 symbol TEST;
#X msg 59 147 list 1 2 3;
#X msg 222 147 some message;
#X msg 69 176 @prop A B;
#X msg 222 176 @prop?;
#X obj 50 234 is_prop;
#X obj 50 262 ui.d;
#X obj 126 262 ui.dt;
#X obj 20 311 cnv 1 745 1 empty empty empty 17 7 0 10 -203890 -1 0;
#X obj 20 316 cnv 5 64 26 empty empty inlets: 4 10 0 14 -262144 -49933
0;
#X text 110 317 1\.;
#X text 150 317 *any*;
#X text 245 317 outputs '1' to 1st outlet \, otherwise '0'.;
#X obj 20 347 cnv 1 745 1 empty empty empty 17 7 0 10 -203890 -1 0;
#X obj 20 352 cnv 5 73 26 empty empty outlets: 4 10 0 14 -262144
-49933 0;
#X text 110 353 1\.;
#X text 245 353 0 or 1\.;
#X text 110 373 2\.;
#X text 245 373 passes only *property* messages.;
#X obj 10 48 ui.link @title index @url ../index-help.pd;
#X text 51 45 ::;
#X obj 67 48 ui.link @title ceammc @url ceammc-help.pd;
#X text 115 45 ::;
#X obj 131 48 ui.link @title predicates @url
ceammc.predicates-help.pd;
#X obj 1 505 cnv 5 765 48 empty empty empty 17 7 0 10 -203890 -1 0;
#X text 10 508 library: ceammc v0.9.6;
#X text 413 520 see also:;
#X obj 487 520 is_any;
#X obj 545 520 is_bang;
#X obj 610 520 is_symbol;
#X obj 690 520 is_list;
#N canvas 10 527 400 290 info 0;
#X obj 1 1 cnv 1 107 287 empty empty empty 17 7 0 10 -183085 -1 0;
#X text 10 10 library:;
#X text 120 10 ceammc;
#X text 10 32 version:;
#X text 120 32 0.9.6;
#X text 10 54 object:;
#X text 120 54 is_prop;
#X text 10 76 category:;
#X text 120 76 predicates;
#X text 10 98 since:;
#X text 120 98 0.9.6;
#X text 10 120 authors:;
#X text 120 120 Serge Poltavsky;
#X text 10 142 license:;
#X text 120 142 GPL3 or later;
#X text 10 164 keywords:;
#X text 120 164 predicate \, float;
#X text 10 186 website:;
#X obj 120 189 ui.link @title https://github.com/uliss/pure-data @url
https://github.com/uliss/pure-data;
#X obj 120 208 declare -lib ceammc;
#X obj 120 268 cnv 1 270 1 empty empty empty 17 7 0 10 -203890 -1 0;
#X text 120 268 generated by pddoc;
#X restore 10 527 pd info;
#X connect 11 0 12 0;
#X connect 11 1 13 0;
#X connect 4 0 11 0;
#X connect 5 0 11 0;
#X connect 6 0 11 0;
#X connect 7 0 11 0;
#X connect 8 0 11 0;
#X connect 9 0 11 0;
#X connect 10 0 11 0;