#N canvas 0 0 785 555 12;
#X declare -lib ceammc;
#X obj 568 50 cnv 1 197 23 empty empty empty 17 7 0 10 -245760 -1 0;
#X text 568 50 Lua JIT language bindings;
#X obj 1 1 cnv 5 765 40 empty empty lang.lua 20 20 0 20 -104026 -4096
0;
#X obj 682 11 lang.lua;
#X obj 210 80 cnv 1 555 60 empty empty empty 17 7 0 10 -257983 -1 0;
#X text 215 80 Lua code is executed in separated thread in async mode.;
#X text 215 105 Each lang.lua object has own independent context.;
#X obj 50 168 loadmsg load lua/basic.lua;
#X obj 69 197 bng 15 250 50 0 empty empty empty 17 7 0 10 -262144 -1
-1;
#X floatatom 107 197 5 0 0 0 - - -;
#X msg 155 197 1 2 3 4;
#X symbolatom 251 197 5 0 0 0 - - -;
#X msg 299 197 call fn ABC;
#X obj 50 240 lang.lua @in 4 @out 3;
#X obj 50 269 ui.dt;
#X floatatom 146 269 5 0 0 0 - - -;
#X obj 20 319 cnv 1 745 1 empty empty empty 17 7 0 10 -203890 -1 0;
#X obj 20 324 cnv 5 115 25 empty empty mouse_events: 4 12 0 14 -262144
-49933 0;
#X text 110 359 Left-click;
#X text 285 359 open Lua code in the editor.;
#X obj 20 389 cnv 1 745 1 empty empty empty 17 7 0 10 -203890 -1 0;
#X obj 20 394 cnv 5 90 25 empty empty arguments: 4 12 0 14 -262144
-49933 0;
#X obj 735 397 ui.link @background_color 0.98039 0.98039 0.98039
@title [?] @url ceammc.args-info.pd;
#X text 110 429 1\.;
#X text 150 429 int;
#X obj 246 430 cnv 1 24 20 empty empty empty 17 7 0 10 -245695 -1 0;
#X text 245 429 IN: number of inputs. Type: int. Range: 1\...16;
#X text 110 449 2\.;
#X text 150 449 int;
#X obj 246 450 cnv 1 32 20 empty empty empty 17 7 0 10 -245695 -1 0;
#X text 245 449 OUT: number of outputs. Type: int. Range: 1\...16;
#X obj 20 479 cnv 1 745 1 empty empty empty 17 7 0 10 -203890 -1 0;
#X obj 20 484 cnv 5 98 25 empty empty properties: 4 12 0 14 -262144
-49933 0;
#X obj 735 487 ui.link @background_color 0.98039 0.98039 0.98039
@title [?] @url ceammc.props-info.pd;
#X msg 110 519 @in;
#X text 245 519 (initonly) Get/Set number of inputs. Type: int. Default
value: 1\. Range: 1\...16\.;
#X msg 110 561 @out;
#X text 245 561 (initonly) Get/Set number of outputs. Type: int. Default
value: 1\. Range: 1\...16\.;
#X obj 20 613 cnv 1 745 1 empty empty empty 17 7 0 10 -203890 -1 0;
#X obj 20 618 cnv 5 73 25 empty empty methods: 4 12 0 14 -262144
-49933 0;
#X msg 110 653 call;
#X text 245 653 call lua function. Arguments are:;
#X obj 255 676 cnv 1 21 23 empty empty empty 17 7 0 10 -245695 -1 0;
#X text 255 676 FN: function name. Type: symbol.;
#X obj 255 699 cnv 1 47 23 empty empty empty 17 7 0 10 -245695 -1 0;
#X text 255 699 [ARGS]: function arguments. Type: list.;
#X msg 110 724 eval;
#X text 245 724 eval lua code. Arguments are:;
#X obj 255 747 cnv 1 37 23 empty empty empty 17 7 0 10 -245695 -1 0;
#X text 255 747 CODE: lua code. Type: list.;
#X msg 110 772 load;
#X text 245 772 load lua file and eval it. Arguments are:;
#X obj 255 795 cnv 1 37 23 empty empty empty 17 7 0 10 -245695 -1 0;
#X text 255 795 PATH: path to lua file. Type: list.;
#X msg 110 820 quit;
#X text 245 820 abort lua script execution.;
#X obj 20 858 cnv 1 745 1 empty empty empty 17 7 0 10 -203890 -1 0;
#X obj 20 863 cnv 5 64 25 empty empty inlets: 4 12 0 14 -262144 -49933
0;
#X text 110 864 1\.;
#X text 245 864 first lua input.;
#X text 110 884 ....;
#X text 245 884 ... lua input.;
#X text 110 904 n.;
#X text 245 904 n-th lua input.;
#X obj 20 934 cnv 1 745 1 empty empty empty 17 7 0 10 -203890 -1 0;
#X obj 20 939 cnv 5 73 25 empty empty outlets: 4 12 0 14 -262144
-49933 0;
#X text 110 940 1\.;
#X text 245 940 first lua output.;
#X text 110 960 ....;
#X text 245 960 ... lua output.;
#X text 110 980 n.;
#X text 245 980 n-th lua output.;
#X obj 10 48 ui.link @title index @url ../index-help.pd;
#X text 51 45 ::;
#X obj 68 48 ui.link @title ceammc @url ceammc-help.pd;
#X text 116 45 ::;
#X obj 133 48 ui.link @title lang @url ceammc.lang-help.pd;
#X obj 1 1030 cnv 5 765 48 empty empty empty 17 7 0 10 -203890 -1 0;
#X text 10 1033 library: ceammc v0.9.7;
#N canvas 10 1052 400 290 info 0;
#X obj 1 1 cnv 1 107 287 empty empty empty 17 7 0 10 -183085 -1 0;
#X text 10 10 library:;
#X text 120 10 ceammc;
#X text 10 32 version:;
#X text 120 32 0.9.7;
#X text 10 54 object:;
#X text 120 54 lang.lua;
#X text 10 76 category:;
#X text 120 76 lang;
#X text 10 98 since:;
#X text 120 98 0.9.5;
#X text 10 120 authors:;
#X text 120 120 Serge Poltavsky;
#X text 10 142 license:;
#X text 120 142 GPL3 or later;
#X text 10 164 keywords:;
#X text 120 164 lua \, jit;
#X text 10 186 website:;
#X obj 120 189 ui.link @title https://github.com/uliss/pd-ceammc @url
https://github.com/uliss/pd-ceammc;
#X obj 120 208 declare -lib ceammc;
#X obj 120 268 cnv 1 270 1 empty empty empty 17 7 0 10 -203890 -1 0;
#X text 120 268 generated by pddoc;
#X restore 10 1052 pd info;
#X connect 7 0 13 0;
#X connect 8 0 13 0;
#X connect 9 0 13 1;
#X connect 10 0 13 2;
#X connect 11 0 13 3;
#X connect 12 0 13 0;
#X connect 13 0 14 0;
#X connect 13 1 15 0;