#N canvas 0 0 715 555 12;
#X declare -lib ceammc;
#X obj 324 50 cnv 1 371 21 empty empty empty 17 7 0 10 -245760 -1 0;
#X text 324 50 Positive unit-amplitude low frequency saw wave;
#X obj 1 1 cnv 5 712 40 empty empty lfo.+saw~ 20 20 0 20 -104026 -4096
0;
#X obj 621 11 lfo.+saw~;
#X floatatom 50 118 5 0 0 0 - - -;
#X obj 117 118 tgl 15 0 empty empty empty 17 7 0 10 -262144 -1 -1 0 1;
#X msg 117 147 @invert \$1;
#X obj 50 176 lfo.+saw~ 1;
#X obj 50 205 *~ 3000;
#X obj 50 234 +~ 100;
#X obj 50 262 osc~;
#X obj 50 291 ui.gain~ @size 120 14;
#X obj 290 291 ui.dsp~;
#X obj 50 320 dac~;
#X obj 20 359 cnv 1 685 1 empty empty empty 17 7 0 10 -203890 -1 0;
#X obj 20 364 cnv 5 90 26 empty empty arguments: 4 10 0 14 -262144
-49933 0;
#X text 120 369 1\.;
#X text 150 369 float;
#X obj 241 370 cnv 1 72 18 empty empty empty 17 7 0 10 -245695 -1 0;
#X text 240 369 freq(Hz): frequency.;
#X text 120 387 2\.;
#X text 150 387 float;
#X obj 241 388 cnv 1 48 18 empty empty empty 17 7 0 10 -245695 -1 0;
#X text 240 387 phase: phase. Range: 0\...1;
#X text 120 405 3\.;
#X text 150 405 int;
#X obj 241 406 cnv 1 55 18 empty empty empty 17 7 0 10 -245695 -1 0;
#X text 240 405 invert: invert saw. Range: 0\...1;
#X obj 20 433 cnv 1 685 1 empty empty empty 17 7 0 10 -203890 -1 0;
#X obj 20 438 cnv 5 98 26 empty empty properties: 4 10 0 14 -262144
-49933 0;
#X msg 120 443 @phase;
#X text 240 443 Get/Set phase. Type: float. Default value: 0\. Value
range: 0-1;
#X msg 120 480 @invert;
#X text 240 480 Get/Set wave inversion. Type: int. Default value: 0\.
Allowed values: 0 \, 1;
#X msg 120 517 @active;
#X text 240 517 Get/Set on/off dsp processing. Type: int. Default
value: 1\. Allowed values: 0 \, 1;
#X obj 20 564 cnv 1 685 1 empty empty empty 17 7 0 10 -203890 -1 0;
#X obj 20 569 cnv 5 64 26 empty empty inlets: 4 10 0 14 -262144 -49933
0;
#X text 120 574 1\.;
#X text 240 574 frequency in Hz.;
#X text 120 592 2\.;
#X text 150 592 *bang*;
#X text 240 592 reset phase.;
#X obj 20 620 cnv 1 685 1 empty empty empty 17 7 0 10 -203890 -1 0;
#X obj 20 625 cnv 5 73 26 empty empty outlets: 4 10 0 14 -262144
-49933 0;
#X text 120 630 1\.;
#X text 240 630 pulsetrain wave in [0-1] range;
#X obj 10 48 ui.link @title index @url ../index-help.pd;
#X text 51 45 ::;
#X obj 67 48 ui.link @title ceammc @url ceammc-help.pd;
#X text 115 45 ::;
#X obj 131 48 ui.link @title lfo @url ceammc.lfo-help.pd;
#X obj 1 678 cnv 5 712 48 empty empty empty 17 7 0 10 -203890 -1 0;
#X text 10 681 library: ceammc v0.6;
#X text 352 693 see also:;
#X obj 428 693 lfo.saw~;
#X obj 501 693 lfo.+square~;
#X obj 603 693 lfo.impulse~;
#N canvas 10 700 400 290 info 0;
#X obj 1 1 cnv 1 107 287 empty empty empty 17 7 0 10 -183085 -1 0;
#X text 10 10 library:;
#X text 120 10 ceammc;
#X text 10 32 version:;
#X text 120 32 0.6;
#X text 10 54 object:;
#X text 120 54 lfo.+saw~;
#X text 10 76 category:;
#X text 120 76 lfo;
#X text 10 98 since:;
#X text 120 98 0.7;
#X text 10 120 authors:;
#X text 120 120 Serge Poltavsky;
#X text 10 142 license:;
#X text 120 142 GPL3;
#X text 10 164 keywords:;
#X text 120 164 lfo \, oscillator \, saw;
#X text 10 186 website:;
#X obj 120 189 ui.link @title https://github.com/uliss/pure-data @url
https://github.com/uliss/pure-data;
#X obj 120 208 declare -lib ceammc;
#X obj 120 268 cnv 1 270 1 empty empty empty 17 7 0 10 -203890 -1 0;
#X text 120 268 generated by pddoc;
#X restore 10 700 pd info;
#X connect 5 0 6 0;
#X connect 4 0 7 0;
#X connect 6 0 7 0;
#X connect 7 0 8 0;
#X connect 8 0 9 0;
#X connect 9 0 10 0;
#X connect 10 0 11 0;
#X connect 11 0 13 0;
#X connect 11 0 13 1;