#N canvas 0 0 785 555 12;
#X declare -lib ceammc;
#X obj 429 50 cnv 1 336 23 empty empty empty 17 7 0 10 -245760 -1 0;
#X text 429 50 Full-range unit-amplitude low frequency saw;
#X obj 1 1 cnv 5 765 40 empty empty lfo.saw~ 20 20 0 20 -104026 -4096
0;
#X obj 681 11 lfo.saw~;
#X obj 50 118 osc.saw~ 100;
#X obj 50 147 ui.gain~ @size 120 14;
#X obj 280 147 tgl 15 0 empty empty empty 17 7 0 10 -262144 -1 -1 0 1;
#X obj 405 147 tgl 15 0 empty empty empty 17 7 0 10 -262144 -1 -1 0 1;
#X floatatom 194 176 5 0 0 0 - - -;
#X msg 280 176 @invert \$1;
#X msg 405 176 @pause \$1;
#X obj 194 205 lfo.saw~ 1;
#X obj 50 234 pan.linsig~;
#X obj 213 234 ui.dsp~;
#X obj 50 262 dac~;
#X obj 20 312 cnv 1 745 1 empty empty empty 17 7 0 10 -203890 -1 0;
#X obj 20 317 cnv 5 90 25 empty empty arguments: 4 10 0 14 -262144
-49933 0;
#X text 110 352 1\.;
#X text 150 352 float;
#X obj 246 353 cnv 1 69 20 empty empty empty 17 7 0 10 -245695 -1 0;
#X text 245 352 FREQ(Hz): frequency. Type: float.;
#X text 110 372 2\.;
#X text 150 372 bool;
#X obj 246 373 cnv 1 54 20 empty empty empty 17 7 0 10 -245695 -1 0;
#X text 245 372 INVERT: wave inversion. Type: bool.;
#X obj 20 402 cnv 1 745 1 empty empty empty 17 7 0 10 -203890 -1 0;
#X obj 20 407 cnv 5 98 25 empty empty properties: 4 10 0 14 -262144
-49933 0;
#X msg 110 442 @id;
#X text 245 442 (initonly) Get/Set OSC address id. If specified \,
bind all properties to /ID/lfo_saw/PROP_NAME osc address \, if empty
bind to /lfo_saw/PROP_NAME. Type: symbol.;
#X msg 110 499 @osc;
#X text 245 499 (initonly) Get/Set OSC server name to listen. Type:
symbol.;
#X msg 110 529 @active;
#X text 245 529 Turn on/off dsp processing. Type: bool. Default value:
1\.;
#X msg 110 559 @invert;
#X text 245 559 Get/Set wave inversion. Type: bool. Default value:
0\.;
#X msg 110 589 @pause;
#X text 245 589 Get/Set pause oscillator at current value. Type: bool.
Default value: 0\.;
#X msg 110 631 @phase;
#X text 245 631 Get/Set initial phase. Type: float. Default value:
0\. Range: 0\...1\.;
#X obj 20 683 cnv 1 745 1 empty empty empty 17 7 0 10 -203890 -1 0;
#X obj 20 688 cnv 5 73 25 empty empty methods: 4 10 0 14 -262144
-49933 0;
#X msg 110 723 reset;
#X text 245 723 reset to initial state.;
#X obj 20 761 cnv 1 745 1 empty empty empty 17 7 0 10 -203890 -1 0;
#X obj 20 766 cnv 5 64 25 empty empty inlets: 4 10 0 14 -262144 -49933
0;
#X text 110 767 1\.;
#X text 245 767 frequency in Hz (can be zero or negative).;
#X text 110 787 2\.;
#X text 150 787 *bang*;
#X text 245 787 reset phase.;
#X obj 20 817 cnv 1 745 1 empty empty empty 17 7 0 10 -203890 -1 0;
#X obj 20 822 cnv 5 73 25 empty empty outlets: 4 10 0 14 -262144
-49933 0;
#X text 110 823 1\.;
#X text 245 823 saw wave in [-1 \, +1] range.;
#X obj 10 48 ui.link @title index @url ../index-help.pd;
#X text 51 45 ::;
#X obj 68 48 ui.link @title ceammc @url ceammc-help.pd;
#X text 116 45 ::;
#X obj 133 48 ui.link @title lfo @url ceammc.lfo-help.pd;
#X obj 1 873 cnv 5 765 48 empty empty empty 17 7 0 10 -203890 -1 0;
#X text 10 876 library: ceammc v0.9.7;
#X text 401 888 see also:;
#X obj 476 888 lfo.+saw~;
#X obj 557 888 lfo.square~;
#X obj 652 888 lfo.impulse~;
#N canvas 10 895 400 290 info 0;
#X obj 1 1 cnv 1 107 287 empty empty empty 17 7 0 10 -183085 -1 0;
#X text 10 10 library:;
#X text 120 10 ceammc;
#X text 10 32 version:;
#X text 120 32 0.9.7;
#X text 10 54 object:;
#X text 120 54 lfo.saw~;
#X text 10 76 category:;
#X text 120 76 lfo;
#X text 10 98 since:;
#X text 120 98 0.7;
#X text 10 120 authors:;
#X text 120 120 Serge Poltavsky;
#X text 10 142 license:;
#X text 120 142 GPL3 or later;
#X text 10 164 keywords:;
#X text 120 164 lfo \, oscillator \, saw \, phasor;
#X text 10 186 website:;
#X obj 120 189 ui.link @title https://github.com/uliss/pd-ceammc @url
https://github.com/uliss/pd-ceammc;
#X obj 120 208 declare -lib ceammc;
#X obj 120 268 cnv 1 270 1 empty empty empty 17 7 0 10 -203890 -1 0;
#X text 120 268 generated by pddoc;
#X restore 10 895 pd info;
#X connect 4 0 5 0;
#X connect 6 0 9 0;
#X connect 7 0 10 0;
#X connect 8 0 11 0;
#X connect 9 0 11 0;
#X connect 10 0 11 0;
#X connect 5 0 12 0;
#X connect 11 0 12 1;
#X connect 12 0 14 0;
#X connect 12 1 14 1;