#N canvas 0 0 785 555 12;
#X declare -lib ceammc;
#X obj 360 50 cnv 1 405 23 empty empty empty 17 7 0 10 -245760 -1 0;
#X text 360 50 Zero-mean unit-amplitude low frequency triangle wave;
#X obj 1 1 cnv 5 765 40 empty empty lfo.tri~ 20 20 0 20 -104026 -4096
0;
#X obj 681 11 lfo.tri~;
#X obj 50 118 osc.saw~ 40;
#X obj 299 118 ui.dsp~;
#X obj 50 147 ui.hgain~;
#X floatatom 136 176 5 0 0 0 - - -;
#X msg 251 176 bang;
#X obj 136 205 lfo.tri~ 0.5;
#X obj 50 234 pan.linsig~;
#X obj 50 262 dac~;
#X obj 20 312 cnv 1 745 1 empty empty empty 17 7 0 10 -203890 -1 0;
#X obj 20 317 cnv 5 90 25 empty empty arguments: 4 10 0 14 -262144
-49933 0;
#X text 110 352 1\.;
#X text 150 352 float;
#X obj 246 353 cnv 1 69 20 empty empty empty 17 7 0 10 -245695 -1 0;
#X text 245 352 FREQ(Hz): frequency. Type: float.;
#X obj 20 382 cnv 1 745 1 empty empty empty 17 7 0 10 -203890 -1 0;
#X obj 20 387 cnv 5 98 25 empty empty properties: 4 10 0 14 -262144
-49933 0;
#X msg 110 422 @id;
#X text 245 422 (initonly) Get/Set OSC address id. If specified \,
bind all properties to /ID/lfo_tri/PROP_NAME osc address \, if empty
bind to /lfo_tri/PROP_NAME. Type: symbol.;
#X msg 110 479 @osc;
#X text 245 479 (initonly) Get/Set OSC server name to listen. Type:
symbol.;
#X msg 110 509 @active;
#X text 245 509 Turn on/off dsp processing. Type: bool. Default value:
1\.;
#X msg 110 539 @pause;
#X text 245 539 Get/Set pause oscillator at current value. Type: bool.
Default value: 0\.;
#X msg 110 581 @phase;
#X text 245 581 Get/Set initial phase. Type: float. Default value:
0\. Range: 0\...1\.;
#X obj 20 633 cnv 1 745 1 empty empty empty 17 7 0 10 -203890 -1 0;
#X obj 20 638 cnv 5 73 25 empty empty methods: 4 10 0 14 -262144
-49933 0;
#X msg 110 673 reset;
#X text 245 673 reset to initial state.;
#X obj 20 711 cnv 1 745 1 empty empty empty 17 7 0 10 -203890 -1 0;
#X obj 20 716 cnv 5 64 25 empty empty inlets: 4 10 0 14 -262144 -49933
0;
#X text 110 717 1\.;
#X text 245 717 frequency in Hz (can be zero or negative).;
#X text 110 737 2\.;
#X text 150 737 *bang*;
#X text 245 737 reset phase.;
#X obj 20 767 cnv 1 745 1 empty empty empty 17 7 0 10 -203890 -1 0;
#X obj 20 772 cnv 5 73 25 empty empty outlets: 4 10 0 14 -262144
-49933 0;
#X text 110 773 1\.;
#X text 245 773 triangle wave in [1 \, -1] range.;
#X obj 10 48 ui.link @title index @url ../index-help.pd;
#X text 51 45 ::;
#X obj 68 48 ui.link @title ceammc @url ceammc-help.pd;
#X text 116 45 ::;
#X obj 133 48 ui.link @title lfo @url ceammc.lfo-help.pd;
#X obj 1 823 cnv 5 765 48 empty empty empty 17 7 0 10 -203890 -1 0;
#X text 10 826 library: ceammc v0.9.7;
#X text 401 838 see also:;
#X obj 476 838 lfo.+tri~;
#X obj 557 838 lfo.square~;
#X obj 652 838 lfo.impulse~;
#N canvas 10 845 400 290 info 0;
#X obj 1 1 cnv 1 107 287 empty empty empty 17 7 0 10 -183085 -1 0;
#X text 10 10 library:;
#X text 120 10 ceammc;
#X text 10 32 version:;
#X text 120 32 0.9.7;
#X text 10 54 object:;
#X text 120 54 lfo.tri~;
#X text 10 76 category:;
#X text 120 76 lfo;
#X text 10 98 since:;
#X text 120 98 0.1;
#X text 10 120 authors:;
#X text 120 120 Serge Poltavsky;
#X text 10 142 license:;
#X text 120 142 GPL3 or later;
#X text 10 164 keywords:;
#X text 120 164 lfo \, oscillator \, triangle;
#X text 10 186 website:;
#X obj 120 189 ui.link @title https://github.com/uliss/pd-ceammc @url
https://github.com/uliss/pd-ceammc;
#X obj 120 208 declare -lib ceammc;
#X obj 120 268 cnv 1 270 1 empty empty empty 17 7 0 10 -203890 -1 0;
#X text 120 268 generated by pddoc;
#X restore 10 845 pd info;
#X connect 4 0 6 0;
#X connect 7 0 9 0;
#X connect 8 0 9 1;
#X connect 6 0 10 0;
#X connect 9 0 10 1;
#X connect 10 0 11 0;
#X connect 10 1 11 1;