#N canvas 0 0 527 259 12;
#X msg 20 48 1 2 3 a b;
#X msg 144 48 list a b c;
#X msg 279 48 1 2 3 a b;
#X msg 404 48 list aa ab ac;
#X obj 20 92 list.min @float;
#X obj 279 92 list.min @symbol;
#X floatatom 20 120 5 0 0 0 - - -;
#X symbolatom 279 120 10 0 0 0 - - -;
#X msg 20 149 1 a 2 b 3 c;
#X floatatom 154 149 5 0 0 0 - - -;
#X symbolatom 221 149 8 0 0 0 - - -;
#X obj 20 192 list.min @any;
#X obj 20 221 prepend set;
#X msg 20 250 ;
#X connect 8 0 11 0;
#X connect 9 0 11 0;
#X connect 1 0 4 0;
#X connect 5 0 7 0;
#X connect 2 0 5 0;
#X connect 10 0 11 0;
#X connect 11 0 12 0;
#X connect 12 0 13 0;
#X connect 0 0 4 0;
#X connect 4 0 6 0;
#X connect 3 0 5 0;
