#N canvas 0 0 785 555 12;
#X declare -lib ceammc;
#X obj 415 50 cnv 1 350 23 empty empty empty 17 7 0 10 -245760 -1 0;
#X text 415 50 checks if input list contains specified atoms;
#X obj 1 1 cnv 5 765 40 empty empty list.contains 20 20 0 20 -104026
-4096 0;
#X obj 646 11 list.contains;
#X msg 50 118 1 2;
#X msg 107 118 3 4;
#X floatatom 184 118 5 0 0 0 - - -;
#X obj 50 147 list.contains 1;
#X obj 50 176 tgl 15 0 empty empty empty 17 7 0 10 -262144 -1 -1 0 1;
#X msg 50 205 (A B C ABC) \, bang;
#X obj 50 234 ml;
#X obj 50 262 list.contains A;
#X obj 50 291 tgl 15 0 empty empty empty 17 7 0 10 -262144 -1 -1 0 1;
#X msg 50 320 1 2 3 4 5;
#X msg 165 320 0 1 2 3 4;
#X obj 50 349 flow.pass_if;
#X obj 213 349 list.contains 0;
#X obj 50 378 ui.display @display_type 1;
#X obj 20 428 cnv 1 745 1 empty empty empty 17 7 0 10 -203890 -1 0;
#X obj 20 433 cnv 5 90 25 empty empty arguments: 4 12 0 14 -262144
-49933 0;
#X obj 735 436 ui.link @background_color 0.98039 0.98039 0.98039
@title [?] @url ceammc.args-info.pd;
#X text 110 468 1\.;
#X text 150 468 list;
#X obj 246 469 cnv 1 62 20 empty empty empty 17 7 0 10 -245695 -1 0;
#X text 245 468 SUBLIST: list for @sublist mode. Type: list.;
#X obj 20 498 cnv 1 745 1 empty empty empty 17 7 0 10 -203890 -1 0;
#X obj 20 503 cnv 5 98 25 empty empty properties: 4 12 0 14 -262144
-49933 0;
#X obj 735 506 ui.link @background_color 0.98039 0.98039 0.98039
@title [?] @url ceammc.props-info.pd;
#X msg 110 538 @all_of;
#X text 245 538 Get/Set all_of mode \, output 1 is input list contains
all of this property values. Type: list.;
#X msg 110 580 @any_of;
#X text 245 580 Get/Set any_of mode \, output 1 is input list contains
any (al least one) of this property values. Type: list.;
#X msg 110 622 @none_of;
#X text 245 622 Get/Set none_of mode \, output 1 is input list contains
none of this property values. Type: list.;
#X msg 110 664 @sublist;
#X text 245 664 Get/Set sublist mode \, output 1 if input list contains
this property value as sublist \, otherwise 0\. Type: list.;
#X obj 20 716 cnv 1 745 1 empty empty empty 17 7 0 10 -203890 -1 0;
#X obj 20 721 cnv 5 64 25 empty empty inlets: 4 12 0 14 -262144 -49933
0;
#X text 110 722 1\.;
#X text 150 722 *list*;
#X text 245 722 check is list is contains specified atom or sequence.;
#X text 150 742 *data:mlist*;
#X text 245 742 as list.;
#X text 110 762 2\.;
#X text 150 762 *list*;
#X text 245 762 set search atoms.;
#X obj 20 792 cnv 1 745 1 empty empty empty 17 7 0 10 -203890 -1 0;
#X obj 20 797 cnv 5 73 25 empty empty outlets: 4 12 0 14 -262144
-49933 0;
#X text 110 798 1\.;
#X text 245 798 1 on success \, otherwise 0\.;
#X obj 10 48 ui.link @title index @url ../index-help.pd;
#X text 51 45 ::;
#X obj 68 48 ui.link @title ceammc @url ceammc-help.pd;
#X text 116 45 ::;
#X obj 133 48 ui.link @title list @url ceammc.list-help.pd;
#X obj 1 848 cnv 5 765 48 empty empty empty 17 7 0 10 -203890 -1 0;
#X text 10 851 library: ceammc v0.9.7;
#X text 367 863 see also:;
#X obj 442 863 list.^contains;
#X obj 558 863 list.all_of;
#X obj 653 863 list.none_of;
#N canvas 10 870 400 290 info 0;
#X obj 1 1 cnv 1 107 287 empty empty empty 17 7 0 10 -183085 -1 0;
#X text 10 10 library:;
#X text 120 10 ceammc;
#X text 10 32 version:;
#X text 120 32 0.9.7;
#X text 10 54 object:;
#X text 120 54 list.contains;
#X text 10 76 category:;
#X text 120 76 list;
#X text 10 98 since:;
#X text 120 98 0.6;
#X text 10 120 authors:;
#X text 120 120 Serge Poltavsky;
#X text 10 142 license:;
#X text 120 142 GPL3 or later;
#X text 10 164 keywords:;
#X text 120 164 list \, predicate \, any;
#X text 10 186 website:;
#X obj 120 189 ui.link @title https://github.com/uliss/pd-ceammc @url
https://github.com/uliss/pd-ceammc;
#X obj 120 208 declare -lib ceammc;
#X obj 120 268 cnv 1 270 1 empty empty empty 17 7 0 10 -203890 -1 0;
#X text 120 268 generated by pddoc;
#X restore 10 870 pd info;
#X connect 4 0 7 0;
#X connect 5 0 7 0;
#X connect 6 0 7 1;
#X connect 7 0 8 0;
#X connect 9 0 10 0;
#X connect 10 0 11 0;
#X connect 11 0 12 0;
#X connect 13 0 15 0;
#X connect 14 0 15 0;
#X connect 15 0 17 0;
#X connect 15 1 16 0;
#X connect 16 0 15 1;