#N canvas 0 0 274 144 12;
#X msg 20 48 1 2 3 4 5;
#X msg 144 48 list a b c d e;
#X obj 20 77 list.reverse;
#X obj 20 106 prepend set;
#X msg 20 135 ;
#X connect 3 0 4 0;
#X connect 1 0 2 0;
#X connect 0 0 2 0;
#X connect 2 0 3 0;
