#N canvas 0 0 785 555 12;
#X declare -lib ceammc;
#X obj 500 50 cnv 1 265 23 empty empty empty 17 7 0 10 -245760 -1 0;
#X text 500 50 resample list with specified ratio;
#X obj 1 1 cnv 5 765 40 empty empty list.resample 20 20 0 20 -104026
-4096 0;
#X obj 577 11 list.r;
#X obj 646 11 list.resample;
#X obj 50 118 ui.sliders;
#X obj 203 118 ui.sliders @auto_count 1;
#X obj 174 234 ui.hrd;
#X obj 50 262 list.resample 4;
#X obj 20 312 cnv 1 745 1 empty empty empty 17 7 0 10 -203890 -1 0;
#X obj 20 317 cnv 5 90 25 empty empty arguments: 4 12 0 14 -262144
-49933 0;
#X obj 735 320 ui.link @background_color 0.98039 0.98039 0.98039
@title [?] @url ceammc.args-info.pd;
#X text 110 352 1\.;
#X text 150 352 float;
#X obj 246 353 cnv 1 47 20 empty empty empty 17 7 0 10 -245695 -1 0;
#X text 245 352 RATIO: resample ratio. Type: float. Range: 0\...100;
#X obj 20 382 cnv 1 745 1 empty empty empty 17 7 0 10 -203890 -1 0;
#X obj 20 387 cnv 5 98 25 empty empty properties: 4 12 0 14 -262144
-49933 0;
#X obj 735 390 ui.link @background_color 0.98039 0.98039 0.98039
@title [?] @url ceammc.props-info.pd;
#X msg 110 422 @ratio;
#X text 245 422 Get/Set resample ratio (src/dest). Type: float. Default
value: 1\. Range: 0\...100\.;
#X obj 20 474 cnv 1 745 1 empty empty empty 17 7 0 10 -203890 -1 0;
#X obj 20 479 cnv 5 64 25 empty empty inlets: 4 12 0 14 -262144 -49933
0;
#X text 110 480 1\.;
#X text 150 480 *list*;
#X text 245 480 input list.;
#X text 150 500 *data:mlist*;
#X text 245 500 input mlist.;
#X text 110 520 2\.;
#X text 245 520 set ratio.;
#X obj 20 550 cnv 1 745 1 empty empty empty 17 7 0 10 -203890 -1 0;
#X obj 20 555 cnv 5 73 25 empty empty outlets: 4 12 0 14 -262144
-49933 0;
#X text 110 556 1\.;
#X text 245 556 new modified list.;
#X obj 10 48 ui.link @title index @url ../index-help.pd;
#X text 51 45 ::;
#X obj 68 48 ui.link @title ceammc @url ceammc-help.pd;
#X text 116 45 ::;
#X obj 133 48 ui.link @title list @url ceammc.list-help.pd;
#X obj 1 606 cnv 5 765 48 empty empty empty 17 7 0 10 -203890 -1 0;
#X text 10 609 library: ceammc v0.9.7;
#X text 578 621 see also:;
#X obj 653 621 list.stretch;
#N canvas 10 628 400 290 info 0;
#X obj 1 1 cnv 1 107 287 empty empty empty 17 7 0 10 -183085 -1 0;
#X text 10 10 library:;
#X text 120 10 ceammc;
#X text 10 32 version:;
#X text 120 32 0.9.7;
#X text 10 54 object:;
#X text 120 54 list.resample;
#X text 10 76 category:;
#X text 120 76 list;
#X text 10 98 since:;
#X text 120 98 0.9;
#X text 10 120 authors:;
#X text 120 120 Serge Poltavsky;
#X text 10 142 license:;
#X text 120 142 GPL3 or later;
#X text 10 164 keywords:;
#X text 120 164 list;
#X text 10 186 website:;
#X obj 120 189 ui.link @title https://github.com/uliss/pd-ceammc @url
https://github.com/uliss/pd-ceammc;
#X obj 120 208 declare -lib ceammc;
#X obj 120 268 cnv 1 270 1 empty empty empty 17 7 0 10 -203890 -1 0;
#X text 120 268 generated by pddoc;
#X restore 10 628 pd info;
#X connect 5 0 8 0;
#X connect 7 0 8 1;
#X connect 8 0 6 0;