#N canvas 0 0 334 144 12;
#X msg 20 48 1 60 120 b 11;
#X msg 173 48 list a b;
#X floatatom 279 48 5 0 0 0 - - -;
#X obj 20 77 list.last;
#X obj 20 106 prepend set;
#X msg 20 135 ;
#X connect 0 0 3 0;
#X connect 2 0 3 0;
#X connect 4 0 5 0;
#X connect 3 0 4 0;
#X connect 1 0 3 0;
