#N canvas 0 0 527 317 12;
#X obj 144 48 bng 15 250 50 0 empty empty empty 17 7 0 10 -262144 -1
-1;
#X floatatom 202 48 5 0 0 0 - - -;
#X obj 144 77 list.gen 4;
#X obj 346 77 random 10;
#X obj 144 106 t b a;
#X obj 308 106 data.fifo 1;
#X obj 173 135 prepend set;
#X obj 308 135 prepend set;
#X msg 20 164 2 -2;
#X msg 144 164 ;
#X msg 308 164 ;
#X msg 39 192 1 60 120;
#X msg 164 192 dump;
#X msg 231 192 @padz;
#X msg 308 192 @clip;
#X msg 384 192 @fold;
#X msg 461 192 @wrap;
#X obj 20 250 list.delta @clip;
#X obj 20 279 prepend set;
#X msg 20 308 ;
#X connect 18 0 19 0;
#X connect 7 0 10 0;
#X connect 4 1 6 0;
#X connect 5 0 7 0;
#X connect 3 0 2 2;
#X connect 2 0 4 0;
#X connect 12 0 17 0;
#X connect 2 0 5 0;
#X connect 16 0 17 0;
#X connect 2 1 3 0;
#X connect 1 0 2 0;
#X connect 6 0 9 0;
#X connect 11 0 17 0;
#X connect 17 0 18 0;
#X connect 15 0 17 0;
#X connect 14 0 17 0;
#X connect 8 0 17 0;
#X connect 13 0 17 0;
#X connect 0 0 2 0;
#X connect 4 0 9 0;
#X connect 9 0 17 0;
