#N canvas 0 0 785 555 12;
#X declare -lib ceammc;
#X obj 308 50 cnv 1 457 23 empty empty empty 17 7 0 10 -245760 -1 0;
#X text 308 50 stretches list - changes its size with linear interpolation;
#X obj 1 1 cnv 5 765 40 empty empty list.stretch 20 20 0 20 -104026
-4096 0;
#X obj 654 11 list.stretch;
#X obj 50 118 ui.sliders;
#X floatatom 174 234 5 0 0 0 - - -;
#X obj 50 262 list.stretch 32;
#X obj 50 291 ui.sliders @count 32;
#X obj 50 406 print;
#X obj 20 455 cnv 1 745 1 empty empty empty 17 7 0 10 -203890 -1 0;
#X obj 20 460 cnv 5 90 26 empty empty arguments: 4 10 0 14 -262144
-49933 0;
#X text 110 495 1\.;
#X text 150 495 int;
#X obj 246 496 cnv 1 39 20 empty empty empty 17 7 0 10 -245695 -1 0;
#X text 245 495 SIZE: New size of output list. Input list will be stretched
to the new size with linear interpolation. Type: int. Min value: 0;
#X obj 20 555 cnv 1 745 1 empty empty empty 17 7 0 10 -203890 -1 0;
#X obj 20 560 cnv 5 98 26 empty empty properties: 4 10 0 14 -262144
-49933 0;
#X msg 110 595 @size;
#X text 245 595 Get/Set new size. Type: int. Default value: 1\. Min
value: 0\.;
#X obj 20 647 cnv 1 745 1 empty empty empty 17 7 0 10 -203890 -1 0;
#X obj 20 652 cnv 5 64 26 empty empty inlets: 4 10 0 14 -262144 -49933
0;
#X text 110 653 1\.;
#X text 150 653 *list*;
#X text 245 653 input list.;
#X text 150 673 *data:mlist*;
#X text 245 673 input mlist.;
#X text 110 693 2\.;
#X text 245 693 new length of output list.;
#X obj 20 723 cnv 1 745 1 empty empty empty 17 7 0 10 -203890 -1 0;
#X obj 20 728 cnv 5 73 26 empty empty outlets: 4 10 0 14 -262144
-49933 0;
#X text 110 729 1\.;
#X text 245 729 new modified list.;
#X obj 10 48 ui.link @title index @url ../index-help.pd;
#X text 51 45 ::;
#X obj 67 48 ui.link @title ceammc @url ceammc-help.pd;
#X text 115 45 ::;
#X obj 131 48 ui.link @title list @url ceammc.list-help.pd;
#X obj 1 779 cnv 5 765 48 empty empty empty 17 7 0 10 -203890 -1 0;
#X text 10 782 library: ceammc v0.9.5;
#X text 594 794 see also:;
#X obj 668 794 list.shift;
#N canvas 10 801 400 290 info 0;
#X obj 1 1 cnv 1 107 287 empty empty empty 17 7 0 10 -183085 -1 0;
#X text 10 10 library:;
#X text 120 10 ceammc;
#X text 10 32 version:;
#X text 120 32 0.9.5;
#X text 10 54 object:;
#X text 120 54 list.stretch;
#X text 10 76 category:;
#X text 120 76 list;
#X text 10 98 since:;
#X text 120 98 0.1;
#X text 10 120 authors:;
#X text 120 120 Alex Nadzharov \, Serge Poltavsky;
#X text 10 142 license:;
#X text 120 142 GPL3 or later;
#X text 10 164 keywords:;
#X text 120 164 list;
#X text 10 186 website:;
#X obj 120 189 ui.link @title https://github.com/uliss/pure-data @url
https://github.com/uliss/pure-data;
#X obj 120 208 declare -lib ceammc;
#X obj 120 268 cnv 1 270 1 empty empty empty 17 7 0 10 -203890 -1 0;
#X text 120 268 generated by pddoc;
#X restore 10 801 pd info;
#X connect 4 0 6 0;
#X connect 5 0 6 1;
#X connect 6 0 7 0;
#X connect 7 0 8 0;