#N canvas 0 0 785 555 12;
#X declare -lib ceammc;
#X obj 676 50 cnv 1 89 23 empty empty empty 17 7 0 10 -245760 -1 0;
#X text 676 50 running sum;
#X obj 1 1 cnv 5 765 40 empty empty list.runsum 20 20 0 20 -104026
-4096 0;
#X obj 660 11 list.runsum;
#X obj 210 80 cnv 1 555 175 empty empty empty 17 7 0 10 -257983 -1 0;
#X text 215 80 Computes the partial sums of the elements in the subranges
of the input list;
#X text 215 120 • y0 = x0;
#X text 215 145 • y1 = x0 + x1;
#X text 215 170 • y2 = x0 + x1 + x2;
#X text 215 195 • y3 = x0 + x1 + x2 + x3;
#X text 215 220 etc...;
#X obj 50 283 ui.sliders @size 150 80;
#X obj 50 370 list.runsum;
#X obj 50 399 ui.dt;
#X obj 20 449 cnv 1 745 1 empty empty empty 17 7 0 10 -203890 -1 0;
#X obj 20 454 cnv 5 64 25 empty empty inlets: 4 10 0 14 -262144 -49933
0;
#X text 110 455 1\.;
#X text 150 455 *list*;
#X text 245 455 input list.;
#X obj 20 485 cnv 1 745 1 empty empty empty 17 7 0 10 -203890 -1 0;
#X obj 20 490 cnv 5 73 25 empty empty outlets: 4 10 0 14 -262144
-49933 0;
#X text 110 491 1\.;
#X text 245 491 result list.;
#X obj 10 48 ui.link @title index @url ../index-help.pd;
#X text 51 45 ::;
#X obj 68 48 ui.link @title ceammc @url ceammc-help.pd;
#X text 116 45 ::;
#X obj 133 48 ui.link @title list @url ceammc.list-help.pd;
#X obj 1 541 cnv 5 765 48 empty empty empty 17 7 0 10 -203890 -1 0;
#X text 10 544 library: ceammc v0.9.7;
#X text 578 556 see also:;
#X obj 653 556 list.rundiff;
#N canvas 10 563 400 290 info 0;
#X obj 1 1 cnv 1 107 287 empty empty empty 17 7 0 10 -183085 -1 0;
#X text 10 10 library:;
#X text 120 10 ceammc;
#X text 10 32 version:;
#X text 120 32 0.9.7;
#X text 10 54 object:;
#X text 120 54 list.runsum;
#X text 10 76 category:;
#X text 120 76 list;
#X text 10 98 since:;
#X text 120 98 0.9.4;
#X text 10 120 authors:;
#X text 120 120 Serge Poltavsky;
#X text 10 142 license:;
#X text 120 142 GPL3 or later;
#X text 10 164 keywords:;
#X text 120 164 list \, running \, total \, sum \, partial \, cumulative;
#X text 10 186 website:;
#X obj 120 189 ui.link @title https://github.com/uliss/pd-ceammc @url
https://github.com/uliss/pd-ceammc;
#X obj 120 208 declare -lib ceammc;
#X obj 120 268 cnv 1 270 1 empty empty empty 17 7 0 10 -203890 -1 0;
#X text 120 268 generated by pddoc;
#X restore 10 563 pd info;
#X connect 11 0 12 0;
#X connect 12 0 13 0;