#N canvas 0 0 785 555 12;
#X declare -lib ceammc;
#X obj 501 50 cnv 1 264 23 empty empty empty 17 7 0 10 -245760 -1 0;
#X text 501 50 remove specified element from list;
#X obj 1 1 cnv 5 765 40 empty empty list.reject 20 20 0 20 -104026
-4096 0;
#X obj 661 11 list.reject;
#X floatatom 50 118 5 0 0 0 - - -;
#X symbolatom 107 118 24 0 0 0 - - -;
#X obj 107 147 symbol2any;
#X obj 107 176 list;
#X obj 50 219 list.reject A B C 1 2 3;
#X obj 50 248 ui.dt;
#X obj 20 297 cnv 1 745 1 empty empty empty 17 7 0 10 -203890 -1 0;
#X obj 20 302 cnv 5 98 26 empty empty properties: 4 10 0 14 -262144
-49933 0;
#X msg 110 337 @args;
#X text 245 337 Get/Set list of rejected values. Type: list.;
#X obj 20 376 cnv 1 745 1 empty empty empty 17 7 0 10 -203890 -1 0;
#X obj 20 381 cnv 5 64 26 empty empty inlets: 4 10 0 14 -262144 -49933
0;
#X text 110 382 1\.;
#X text 150 382 *float*;
#X text 245 382 input float.;
#X text 150 402 *symbol*;
#X text 245 402 input symbol.;
#X text 150 422 *list*;
#X text 245 422 input list.;
#X text 150 442 *data:mlist*;
#X text 245 442 input mlist.;
#X text 110 462 2\.;
#X text 150 462 *list*;
#X text 245 462 set rejected values.;
#X obj 20 492 cnv 1 745 1 empty empty empty 17 7 0 10 -203890 -1 0;
#X obj 20 497 cnv 5 73 26 empty empty outlets: 4 10 0 14 -262144
-49933 0;
#X text 110 498 1\.;
#X text 245 498 list without rejected elements.;
#X obj 10 48 ui.link @title index @url ../index-help.pd;
#X text 51 45 ::;
#X obj 67 48 ui.link @title ceammc @url ceammc-help.pd;
#X text 115 45 ::;
#X obj 131 48 ui.link @title list @url ceammc.list-help.pd;
#X obj 1 548 cnv 5 765 48 empty empty empty 17 7 0 10 -203890 -1 0;
#X text 10 551 library: ceammc v0.9.5;
#X text 565 563 see also:;
#X obj 639 563 list.reject_if;
#N canvas 10 570 400 290 info 0;
#X obj 1 1 cnv 1 107 287 empty empty empty 17 7 0 10 -183085 -1 0;
#X text 10 10 library:;
#X text 120 10 ceammc;
#X text 10 32 version:;
#X text 120 32 0.9.5;
#X text 10 54 object:;
#X text 120 54 list.reject;
#X text 10 76 category:;
#X text 120 76 list;
#X text 10 98 since:;
#X text 120 98 0.9.5;
#X text 10 120 authors:;
#X text 120 120 Serge Poltavsky;
#X text 10 142 license:;
#X text 120 142 GPL3 or later;
#X text 10 164 keywords:;
#X text 120 164 list \, pass \, reject;
#X text 10 186 website:;
#X obj 120 189 ui.link @title https://github.com/uliss/pure-data @url
https://github.com/uliss/pure-data;
#X obj 120 208 declare -lib ceammc;
#X obj 120 268 cnv 1 270 1 empty empty empty 17 7 0 10 -203890 -1 0;
#X text 120 268 generated by pddoc;
#X restore 10 570 pd info;
#X connect 5 0 6 0;
#X connect 6 0 7 0;
#X connect 4 0 8 0;
#X connect 7 0 8 0;
#X connect 8 0 9 0;