#N canvas 0 0 785 555 12;
#X declare -lib ceammc;
#X obj 422 50 cnv 1 343 23 empty empty empty 17 7 0 10 -245760 -1 0;
#X text 422 50 maps each list value via external side-chain;
#X obj 1 1 cnv 5 765 40 empty empty list.each 20 20 0 20 -104026 -4096
0;
#X obj 675 11 list.each;
#X obj 210 80 cnv 1 555 65 empty empty empty 17 7 0 10 -257983 -1 0;
#X text 215 80 Each @step elements are passed via righmost outlet to
extenal object \, that suppose to return it back to rightmost inlet.
So various mapping and filtering are possible.;
#X msg 50 173 1 2 3 4 5 6 7 8 9;
#X msg 261 173 1 2 3 4 5 6 7 8 9;
#X obj 50 202 list.each;
#X obj 184 202 pow 2;
#X obj 261 202 list.each 2;
#X obj 414 202 *;
#X obj 50 231 msg set;
#X obj 261 231 msg set;
#X msg 50 260 ;
#X msg 261 260 ;
#X text 50 289 more complex example: multiply by three element in list;
#X msg 50 317 1 2 3 4 5 6 7 8 9;
#X obj 78 346 hradio 15 1 0 8 empty empty empty 17 7 0 10 -262144 -1
-1 0;
#X msg 78 375 @step \$1;
#X obj 50 404 list.each 3;
#X obj 203 404 list.reduce;
#X obj 357 404 *;
#X obj 50 433 msg set;
#X msg 50 461 ;
#X obj 20 510 cnv 1 745 1 empty empty empty 17 7 0 10 -203890 -1 0;
#X obj 20 515 cnv 5 90 26 empty empty arguments: 4 10 0 14 -262144
-49933 0;
#X text 110 550 1\.;
#X text 150 550 int;
#X obj 246 551 cnv 1 38 20 empty empty empty 17 7 0 10 -245695 -1 0;
#X text 245 550 step: see @step property. Range: 1\...1024;
#X obj 20 580 cnv 1 745 1 empty empty empty 17 7 0 10 -203890 -1 0;
#X obj 20 585 cnv 5 98 26 empty empty properties: 4 10 0 14 -262144
-49933 0;
#X msg 110 620 @step;
#X text 245 620 Get/Set number of elements outputted to rightmost outlet
on each iteration. Type: int. Default value: 1\. Range: 1\...1024\.;
#X obj 20 687 cnv 1 745 1 empty empty empty 17 7 0 10 -203890 -1 0;
#X obj 20 692 cnv 5 64 26 empty empty inlets: 4 10 0 14 -262144 -49933
0;
#X text 110 693 1\.;
#X text 150 693 *list*;
#X text 245 693 Input list.;
#X text 150 713 *data:mlist*;
#X text 245 713 Input mlist.;
#X text 110 733 2\.;
#X text 245 733 New modified value from applied object.;
#X obj 20 763 cnv 1 745 1 empty empty empty 17 7 0 10 -203890 -1 0;
#X obj 20 768 cnv 5 73 26 empty empty outlets: 4 10 0 14 -262144
-49933 0;
#X text 110 769 1\.;
#X text 245 769 New modified list (or mlist).;
#X text 110 789 2\.;
#X text 245 789 single element or list of values (if @step property
> 1).;
#X obj 10 48 ui.link @title index @url ../index-help.pd;
#X text 51 45 ::;
#X obj 67 48 ui.link @title ceammc @url ceammc-help.pd;
#X text 115 45 ::;
#X obj 131 48 ui.link @title list @url ceammc.list-help.pd;
#X obj 1 839 cnv 5 765 48 empty empty empty 17 7 0 10 -203890 -1 0;
#X text 10 842 library: ceammc v0.9.0;
#X text 507 854 see also:;
#X obj 581 854 list.do;
#X obj 646 854 list.apply_to;
#N canvas 10 861 400 290 info 0;
#X obj 1 1 cnv 1 107 287 empty empty empty 17 7 0 10 -183085 -1 0;
#X text 10 10 library:;
#X text 120 10 ceammc;
#X text 10 32 version:;
#X text 120 32 0.9.0;
#X text 10 54 object:;
#X text 120 54 list.each;
#X text 10 76 category:;
#X text 120 76 list;
#X text 10 98 since:;
#X text 120 98 0.1;
#X text 10 120 authors:;
#X text 120 120 Serge Poltavsky;
#X text 10 142 license:;
#X text 120 142 GPL3 or later;
#X text 10 164 keywords:;
#X text 120 164 list \, functional \, map \, iterate;
#X text 10 186 website:;
#X obj 120 189 ui.link @title https://github.com/uliss/pure-data @url
https://github.com/uliss/pure-data;
#X obj 120 208 declare -lib ceammc;
#X obj 120 268 cnv 1 270 1 empty empty empty 17 7 0 10 -203890 -1 0;
#X text 120 268 generated by pddoc;
#X restore 10 861 pd info;
#X connect 6 0 8 0;
#X connect 7 0 10 0;
#X connect 8 0 12 0;
#X connect 10 0 13 0;
#X connect 12 0 14 0;
#X connect 13 0 15 0;
#X connect 18 0 19 0;
#X connect 17 0 20 0;
#X connect 19 0 20 0;
#X connect 20 0 23 0;
#X connect 23 0 24 0;
#X connect 8 1 9 0;
#X connect 9 0 8 1;
#X connect 10 1 11 0;
#X connect 11 0 10 1;
#X connect 20 1 21 0;
#X connect 21 0 20 1;
#X connect 21 1 22 0;
#X connect 22 0 21 1;