#N canvas 0 0 314 216 12;
#X msg 20 48 1 2 3 4;
#X msg 116 48 1 2 3 4 5;
#X msg 48 92 dump;
#X msg 173 92 @min;
#X msg 240 92 @pad X;
#X obj 20 149 list.deinterleave 2;
#X obj 20 178 prepend set;
#X obj 173 178 prepend set;
#X msg 20 207 ;
#X msg 173 207 ;
#X connect 1 0 5 0;
#X connect 0 0 5 0;
#X connect 2 0 5 0;
#X connect 6 0 8 0;
#X connect 5 0 6 0;
#X connect 4 0 5 0;
#X connect 7 0 9 0;
#X connect 5 1 7 0;
#X connect 3 0 5 0;
