#N canvas 0 0 785 555 12;
#X declare -lib ceammc;
#X obj 400 50 cnv 1 365 23 empty empty empty 17 7 0 10 -245760 -1 0;
#X text 400 50 iterate and modify list contents via side-chain;
#X obj 1 1 cnv 5 765 40 empty empty list.do 20 20 0 20 -104026 -4096
0;
#X obj 690 11 list.do;
#X msg 50 118 1 1 1 1 1;
#X obj 50 147 list.do;
#X obj 203 147 expr $f1 - ($f2 / $f3);
#X obj 50 176 msg set;
#X msg 50 205 ;
#X obj 20 254 cnv 1 745 1 empty empty empty 17 7 0 10 -203890 -1 0;
#X obj 20 259 cnv 5 64 26 empty empty inlets: 4 10 0 14 -262144 -49933
0;
#X text 110 260 1\.;
#X text 150 260 *list*;
#X text 245 260 input list.;
#X text 150 280 *data*;
#X text 245 280 input mlist.;
#X text 110 300 2\.;
#X text 150 300 *atom*;
#X text 245 300 processed atom from side-chain.;
#X obj 20 330 cnv 1 745 1 empty empty empty 17 7 0 10 -203890 -1 0;
#X obj 20 335 cnv 5 73 26 empty empty outlets: 4 10 0 14 -262144
-49933 0;
#X text 110 336 1\.;
#X text 245 336 output processed list.;
#X text 110 356 2\.;
#X text 245 356 output per each list element: ATOM INDEX TOTAL.;
#X obj 10 48 ui.link @title index @url ../index-help.pd;
#X text 51 45 ::;
#X obj 67 48 ui.link @title ceammc @url ceammc-help.pd;
#X text 115 45 ::;
#X obj 131 48 ui.link @title list @url ceammc.list-help.pd;
#X obj 1 505 cnv 5 765 48 empty empty empty 17 7 0 10 -203890 -1 0;
#X text 10 508 library: ceammc v0.9.2;
#X text 601 520 see also:;
#X obj 675 520 list.each;
#N canvas 10 527 400 290 info 0;
#X obj 1 1 cnv 1 107 287 empty empty empty 17 7 0 10 -183085 -1 0;
#X text 10 10 library:;
#X text 120 10 ceammc;
#X text 10 32 version:;
#X text 120 32 0.9.2;
#X text 10 54 object:;
#X text 120 54 list.do;
#X text 10 76 category:;
#X text 120 76 list;
#X text 10 98 since:;
#X text 120 98 0.5;
#X text 10 120 authors:;
#X text 120 120 Alex Nadzharov;
#X text 10 142 license:;
#X text 120 142 GPL3 or later;
#X text 10 164 keywords:;
#X text 120 164 list \, iterate;
#X text 10 186 website:;
#X obj 120 189 ui.link @title https://github.com/uliss/pure-data @url
https://github.com/uliss/pure-data;
#X obj 120 208 declare -lib ceammc;
#X obj 120 268 cnv 1 270 1 empty empty empty 17 7 0 10 -203890 -1 0;
#X text 120 268 generated by pddoc;
#X restore 10 527 pd info;
#X connect 4 0 5 0;
#X connect 5 0 7 0;
#X connect 7 0 8 0;
#X connect 5 1 6 0;
#X connect 6 0 5 1;