#N canvas 0 0 785 555 12;
#X declare -lib ceammc;
#X obj 538 50 cnv 1 227 23 empty empty empty 17 7 0 10 -245760 -1 0;
#X text 538 50 repack list to specified size;
#X obj 1 1 cnv 5 765 40 empty empty list.repack 20 20 0 20 -104026
-4096 0;
#X obj 660 11 list.repack;
#X msg 50 118 1 2 3 4 5 6 7 8 9;
#X obj 50 162 list.repack 4;
#X obj 50 190 print;
#X obj 20 240 cnv 1 745 1 empty empty empty 17 7 0 10 -203890 -1 0;
#X obj 20 245 cnv 5 90 25 empty empty arguments: 4 12 0 14 -262144
-49933 0;
#X obj 735 248 ui.link @background_color 0.98039 0.98039 0.98039
@title [?] @url ceammc.args-info.pd;
#X text 110 280 1\.;
#X text 150 280 int;
#X obj 246 281 cnv 1 39 20 empty empty empty 17 7 0 10 -245695 -1 0;
#X text 245 280 SIZE: output list size. Type: int. Range: 1\...1024;
#X obj 20 310 cnv 1 745 1 empty empty empty 17 7 0 10 -203890 -1 0;
#X obj 20 315 cnv 5 98 25 empty empty properties: 4 12 0 14 -262144
-49933 0;
#X obj 735 318 ui.link @background_color 0.98039 0.98039 0.98039
@title [?] @url ceammc.props-info.pd;
#X msg 110 350 @size;
#X text 245 350 Get/Set output list size. Type: int. Default value:
1\. Range: 1\...1024\.;
#X obj 20 402 cnv 1 745 1 empty empty empty 17 7 0 10 -203890 -1 0;
#X obj 20 407 cnv 5 64 25 empty empty inlets: 4 12 0 14 -262144 -49933
0;
#X text 110 408 1\.;
#X text 150 408 *list*;
#X text 245 408 input list.;
#X obj 20 438 cnv 1 745 1 empty empty empty 17 7 0 10 -203890 -1 0;
#X obj 20 443 cnv 5 73 25 empty empty outlets: 4 12 0 14 -262144
-49933 0;
#X text 110 444 1\.;
#X text 245 444 output list.;
#X text 110 464 2\.;
#X text 245 464 bang after last element output.;
#X obj 10 48 ui.link @title index @url ../index-help.pd;
#X text 51 45 ::;
#X obj 68 48 ui.link @title ceammc @url ceammc-help.pd;
#X text 116 45 ::;
#X obj 133 48 ui.link @title list @url ceammc.list-help.pd;
#X obj 1 514 cnv 5 765 48 empty empty empty 17 7 0 10 -203890 -1 0;
#X text 10 517 library: ceammc v0.9.7;
#N canvas 10 536 400 290 info 0;
#X obj 1 1 cnv 1 107 287 empty empty empty 17 7 0 10 -183085 -1 0;
#X text 10 10 library:;
#X text 120 10 ceammc;
#X text 10 32 version:;
#X text 120 32 0.9.7;
#X text 10 54 object:;
#X text 120 54 list.repack;
#X text 10 76 category:;
#X text 120 76 list;
#X text 10 98 since:;
#X text 120 98 0.1;
#X text 10 120 authors:;
#X text 120 120 Serge Poltavsky;
#X text 10 142 license:;
#X text 120 142 GPL3 or later;
#X text 10 164 keywords:;
#X text 120 164 list \, repack;
#X text 10 186 website:;
#X obj 120 189 ui.link @title https://github.com/uliss/pd-ceammc @url
https://github.com/uliss/pd-ceammc;
#X obj 120 208 declare -lib ceammc;
#X obj 120 268 cnv 1 270 1 empty empty empty 17 7 0 10 -203890 -1 0;
#X text 120 268 generated by pddoc;
#X restore 10 536 pd info;
#X connect 4 0 5 0;
#X connect 5 0 6 0;