#N canvas 0 0 715 555 12;
#X declare -lib ceammc;
#X obj 388 50 cnv 1 307 21 empty empty empty 17 7 0 10 -245760 -1 0;
#X text 388 50 sort list with user defined side-chain;
#X obj 1 1 cnv 5 712 40 empty empty list.sort_with 20 20 0 20 -104026
-4096 0;
#X obj 586 11 list.sort_with;
#X msg 50 118 3 4 1 0 6;
#X msg 174 118 (1 2 3 4 5) \, bang;
#X obj 174 147 ml;
#X obj 50 176 list.sort_with;
#X obj 232 176 >;
#X obj 50 205 ui.display @display_type 1 @size 150 18;
#X obj 20 245 cnv 1 685 1 empty empty empty 17 7 0 10 -203890 -1 0;
#X obj 20 250 cnv 5 64 26 empty empty inlets: 4 10 0 14 -262144 -49933
0;
#X text 120 255 1\.;
#X text 150 255 *list*;
#X text 240 255 input list.;
#X text 150 273 *data:mlist*;
#X text 240 273 input mlist.;
#X text 120 291 2\.;
#X text 150 291 *int*;
#X text 240 291 output from compare object (1 or 0).;
#X obj 20 319 cnv 1 685 1 empty empty empty 17 7 0 10 -203890 -1 0;
#X obj 20 324 cnv 5 73 26 empty empty outlets: 4 10 0 14 -262144
-49933 0;
#X text 120 329 1\.;
#X text 240 329 sorted list (or mlist);
#X text 120 347 2\.;
#X text 240 347 output list with two element to compare side-chain;
#X obj 10 48 ui.link @title index @url ../index-help.pd;
#X text 51 45 ::;
#X obj 67 48 ui.link @title ceammc @url ceammc-help.pd;
#X text 115 45 ::;
#X obj 131 48 ui.link @title list @url ceammc.list-help.pd;
#X obj 1 505 cnv 5 712 48 empty empty empty 17 7 0 10 -203890 -1 0;
#X text 10 508 library: ceammc v0.6;
#X text 550 520 see also:;
#X obj 626 520 list.sort;
#N canvas 10 527 400 290 info 0;
#X obj 1 1 cnv 1 107 287 empty empty empty 17 7 0 10 -183085 -1 0;
#X text 10 10 library:;
#X text 120 10 ceammc;
#X text 10 32 version:;
#X text 120 32 0.6;
#X text 10 54 object:;
#X text 120 54 list.sort_with;
#X text 10 76 category:;
#X text 120 76 list;
#X text 10 98 since:;
#X text 120 98 0.2;
#X text 10 120 authors:;
#X text 120 120 Serge Poltavsky;
#X text 10 142 license:;
#X text 120 142 GPL3;
#X text 10 164 keywords:;
#X text 120 164 list \, sort_with;
#X text 10 186 website:;
#X obj 120 189 ui.link @title https://github.com/uliss/pure-data @url
https://github.com/uliss/pure-data;
#X obj 120 208 declare -lib ceammc;
#X obj 120 268 cnv 1 270 1 empty empty empty 17 7 0 10 -203890 -1 0;
#X text 120 268 generated by pddoc;
#X restore 10 527 pd info;
#X connect 5 0 6 0;
#X connect 4 0 7 0;
#X connect 6 0 7 0;
#X connect 7 0 9 0;
#X connect 7 1 8 0;
#X connect 8 0 7 1;