#N canvas 0 0 266 144 12;
#X msg 20 48 1 60 120;
#X obj 20 77 list.apply_to 1;
#X obj 212 77 mtof;
#X obj 20 106 prepend set;
#X msg 20 135 ;
#X connect 1 1 2 0;
#X connect 0 0 1 0;
#X connect 2 0 1 1;
#X connect 3 0 4 0;
#X connect 1 0 3 0;
