#N canvas 0 0 785 555 12;
#X declare -lib ceammc;
#X obj 445 50 cnv 1 320 23 empty empty empty 17 7 0 10 -245760 -1 0;
#X text 445 50 checks if input atom is found in the list;
#X obj 1 1 cnv 5 765 40 empty empty list.^contains 20 20 0 20 -104026
-4096 0;
#X obj 639 11 list.^contains;
#X obj 210 80 cnv 1 555 60 empty empty empty 17 7 0 10 -257983 -1 0;
#X text 215 80 Outputs 1 if contains \, otherwise 0;
#X text 215 105 Different arguments order then in [list.^contains];
#X floatatom 50 168 5 0 0 0 - - -;
#X msg 98 168 2 3 4;
#X msg 174 168 4 5 6;
#X msg 251 168 symbol A;
#X msg 357 168 list A B;
#X msg 376 197 list A B C D;
#X obj 50 226 list.^contains 1 2 3 4 5;
#X obj 50 255 tgl 15 0 empty empty empty 17 7 0 10 -262144 -1 -1 0 1;
#X text 50 284 works with data;
#X obj 242 284 loadbang;
#X obj 50 312 bng 15 250 50 0 empty empty empty 17 7 0 10 -262144 -1
-1;
#X obj 146 312 bng 15 250 50 0 empty empty empty 17 7 0 10 -262144 -1
-1;
#X obj 242 312 str ABC;
#X obj 338 312 str DEF;
#X obj 50 341 str ABC;
#X obj 146 341 str ??;
#X obj 242 341 list append;
#X obj 50 370 list.^contains;
#X obj 50 399 tgl 15 0 empty empty empty 17 7 0 10 -262144 -1 -1 0 1;
#X obj 50 428 bng 15 250 50 0 empty empty empty 17 7 0 10 -262144 -1
-1;
#X obj 20 460 cnv 1 745 1 empty empty empty 17 7 0 10 -203890 -1 0;
#X obj 20 465 cnv 5 90 25 empty empty arguments: 4 12 0 14 -262144
-49933 0;
#X obj 735 468 ui.link @background_color 0.98039 0.98039 0.98039
@title [?] @url ceammc.args-info.pd;
#X text 110 500 1\.;
#X text 150 500 list;
#X obj 246 501 cnv 1 48 20 empty empty empty 17 7 0 10 -245695 -1 0;
#X text 245 500 VALUE: list contents. Type: list.;
#X obj 20 530 cnv 1 745 1 empty empty empty 17 7 0 10 -203890 -1 0;
#X obj 20 535 cnv 5 98 25 empty empty properties: 4 12 0 14 -262144
-49933 0;
#X obj 735 538 ui.link @background_color 0.98039 0.98039 0.98039
@title [?] @url ceammc.props-info.pd;
#X msg 110 570 @value;
#X text 245 570 Get/Set list contents. Type: list.;
#X obj 20 610 cnv 1 745 1 empty empty empty 17 7 0 10 -203890 -1 0;
#X obj 20 615 cnv 5 64 25 empty empty inlets: 4 12 0 14 -262144 -49933
0;
#X text 110 616 1\.;
#X text 150 616 *float*;
#X text 245 616 checks if given float is found the list.;
#X text 150 636 *symbol*;
#X text 245 636 checks if given symbol is found the list.;
#X text 150 656 *list*;
#X text 245 656 check is given list is subseqence of list.;
#X text 150 676 *data:mlist*;
#X text 245 676 as list.;
#X text 150 696 *data*;
#X text 245 696 checks if given data is found the list.;
#X text 110 716 2\.;
#X text 150 716 *list*;
#X text 245 716 set haystack list.;
#X obj 20 746 cnv 1 745 1 empty empty empty 17 7 0 10 -203890 -1 0;
#X obj 20 751 cnv 5 73 25 empty empty outlets: 4 12 0 14 -262144
-49933 0;
#X text 110 752 1\.;
#X text 245 752 1 on success \, otherwise 0\.;
#X obj 10 48 ui.link @title index @url ../index-help.pd;
#X text 51 45 ::;
#X obj 68 48 ui.link @title ceammc @url ceammc-help.pd;
#X text 116 45 ::;
#X obj 133 48 ui.link @title list @url ceammc.list-help.pd;
#X obj 1 802 cnv 5 765 48 empty empty empty 17 7 0 10 -203890 -1 0;
#X text 10 805 library: ceammc v0.9.7;
#X text 374 817 see also:;
#X obj 449 817 list.contains;
#X obj 558 817 list.all_of;
#X obj 653 817 list.none_of;
#N canvas 10 824 400 290 info 0;
#X obj 1 1 cnv 1 107 287 empty empty empty 17 7 0 10 -183085 -1 0;
#X text 10 10 library:;
#X text 120 10 ceammc;
#X text 10 32 version:;
#X text 120 32 0.9.7;
#X text 10 54 object:;
#X text 120 54 list.^contains;
#X text 10 76 category:;
#X text 120 76 list;
#X text 10 98 since:;
#X text 120 98 0.6;
#X text 10 120 authors:;
#X text 120 120 Serge Poltavsky;
#X text 10 142 license:;
#X text 120 142 GPL3 or later;
#X text 10 164 keywords:;
#X text 120 164 list \, predicate \, any;
#X text 10 186 website:;
#X obj 120 189 ui.link @title https://github.com/uliss/pd-ceammc @url
https://github.com/uliss/pd-ceammc;
#X obj 120 208 declare -lib ceammc;
#X obj 120 268 cnv 1 270 1 empty empty empty 17 7 0 10 -203890 -1 0;
#X text 120 268 generated by pddoc;
#X restore 10 824 pd info;
#X connect 7 0 13 0;
#X connect 8 0 13 0;
#X connect 9 0 13 0;
#X connect 10 0 13 0;
#X connect 11 0 13 0;
#X connect 12 0 13 1;
#X connect 13 0 14 0;
#X connect 16 0 19 0;
#X connect 16 0 20 0;
#X connect 17 0 21 0;
#X connect 18 0 22 0;
#X connect 19 0 23 0;
#X connect 20 0 23 1;
#X connect 21 0 24 0;
#X connect 22 0 24 0;
#X connect 23 0 24 1;
#X connect 24 0 25 0;
#X connect 25 0 26 0;