#N canvas 0 0 262 201 12;
#X obj 20 48 bng 15 250 50 0 empty empty empty 17 7 0 10 -262144 -1
-1;
#X obj 20 77 list.gen 10;
#X obj 173 77 random 25;
#X obj 20 106 prepend set;
#X msg 20 135 ;
#X obj 20 164 list.count;
#X obj 164 164 > 10;
#X floatatom 20 192 5 0 0 0 - - -;
#X connect 1 1 2 0;
#X connect 6 0 5 1;
#X connect 5 0 7 0;
#X connect 3 0 4 0;
#X connect 1 0 3 0;
#X connect 5 0 6 0;
#X connect 2 0 1 2;
#X connect 0 0 1 0;
#X connect 4 0 5 0;
