#N canvas 0 0 785 555 12;
#X declare -lib ceammc;
#X obj 307 50 cnv 1 458 38 empty empty empty 17 7 0 10 -245760 -1 0;
#X text 307 50 modifies list value at specified position \, filtering
it via external object;
#X obj 1 1 cnv 5 765 40 empty empty list.apply_to 20 20 0 20 -104026
-4096 0;
#X obj 646 11 list.apply_to;
#X msg 50 118 1 60 61 120;
#X obj 50 147 list.apply_to 1 -2;
#X obj 270 147 mtof;
#X obj 50 176 ui.dt;
#X obj 20 225 cnv 1 745 1 empty empty empty 17 7 0 10 -203890 -1 0;
#X obj 20 230 cnv 5 90 26 empty empty arguments: 4 10 0 14 -262144
-49933 0;
#X text 110 265 1\.;
#X text 150 265 list;
#X obj 246 266 cnv 1 61 20 empty empty empty 17 7 0 10 -245695 -1 0;
#X text 245 265 INDEXES: apply index(es) (starting from 0). Negative
value means position from end of the list. For example: '-1' means
last element.. Type: list.;
#X obj 20 325 cnv 1 745 1 empty empty empty 17 7 0 10 -203890 -1 0;
#X obj 20 330 cnv 5 98 26 empty empty properties: 4 10 0 14 -262144
-49933 0;
#X msg 110 365 @indexes;
#X text 245 365 Get/Set applied index(es). Type: list.;
#X obj 20 404 cnv 1 745 1 empty empty empty 17 7 0 10 -203890 -1 0;
#X obj 20 409 cnv 5 64 26 empty empty inlets: 4 10 0 14 -262144 -49933
0;
#X text 110 410 1\.;
#X text 150 410 *list*;
#X text 245 410 Input list. If no element found by specified index
- list passed without changes.;
#X text 110 445 2\.;
#X text 150 445 *list*;
#X text 245 445 set apply index(es).;
#X text 110 465 3\.;
#X text 245 465 return value from applied object.;
#X obj 20 495 cnv 1 745 1 empty empty empty 17 7 0 10 -203890 -1 0;
#X obj 20 500 cnv 5 73 26 empty empty outlets: 4 10 0 14 -262144
-49933 0;
#X text 110 501 1\.;
#X text 245 501 new modified list.;
#X text 110 521 2\.;
#X text 245 521 element at given index. Should be passed to applied
object.;
#X obj 10 48 ui.link @title index @url ../index-help.pd;
#X text 51 45 ::;
#X obj 67 48 ui.link @title ceammc @url ceammc-help.pd;
#X text 115 45 ::;
#X obj 131 48 ui.link @title list @url ceammc.list-help.pd;
#X obj 1 571 cnv 5 765 48 empty empty empty 17 7 0 10 -203890 -1 0;
#X text 10 574 library: ceammc v0.9.6;
#X text 601 586 see also:;
#X obj 675 586 list.each;
#N canvas 10 593 400 290 info 0;
#X obj 1 1 cnv 1 107 287 empty empty empty 17 7 0 10 -183085 -1 0;
#X text 10 10 library:;
#X text 120 10 ceammc;
#X text 10 32 version:;
#X text 120 32 0.9.6;
#X text 10 54 object:;
#X text 120 54 list.apply_to;
#X text 10 76 category:;
#X text 120 76 list;
#X text 10 98 since:;
#X text 120 98 0.1;
#X text 10 120 authors:;
#X text 120 120 Serge Poltavsky;
#X text 10 142 license:;
#X text 120 142 GPL3 or later;
#X text 10 164 keywords:;
#X text 120 164 list \, functional \, apply;
#X text 10 186 website:;
#X obj 120 189 ui.link @title https://github.com/uliss/pure-data @url
https://github.com/uliss/pure-data;
#X obj 120 208 declare -lib ceammc;
#X obj 120 268 cnv 1 270 1 empty empty empty 17 7 0 10 -203890 -1 0;
#X text 120 268 generated by pddoc;
#X restore 10 593 pd info;
#X connect 4 0 5 0;
#X connect 5 0 7 0;
#X connect 5 1 6 0;
#X connect 6 0 5 2;