#N canvas 0 0 785 555 12;
#X declare -lib ceammc;
#X obj 323 50 cnv 1 442 23 empty empty empty 17 7 0 10 -245760 -1 0;
#X text 323 50 shifts the contents of the list with linear interpolation;
#X obj 1 1 cnv 5 765 40 empty empty list.shift 20 20 0 20 -104026
-4096 0;
#X obj 668 11 list.shift;
#X floatatom 50 118 5 0 0 0 - - -;
#X msg 98 118 0 \, 30 2000;
#X obj 98 147 line;
#X obj 50 176 t b f;
#X text 174 176 change list values;
#X obj 50 205 ui.sliders @count 30 @size 200 60;
#X obj 50 277 list.shift 10;
#X obj 50 305 ui.sliders @count 30 @size 200 60;
#X obj 50 378 print;
#X obj 20 427 cnv 1 745 1 empty empty empty 17 7 0 10 -203890 -1 0;
#X obj 20 432 cnv 5 90 26 empty empty arguments: 4 10 0 14 -262144
-49933 0;
#X text 110 467 1\.;
#X text 150 467 float;
#X obj 246 468 cnv 1 47 20 empty empty empty 17 7 0 10 -245695 -1 0;
#X text 245 467 SHIFT: shift amount. Float values cause linear interpolation.
Can be negative.. Type: float.;
#X obj 20 512 cnv 1 745 1 empty empty empty 17 7 0 10 -203890 -1 0;
#X obj 20 517 cnv 5 98 26 empty empty properties: 4 10 0 14 -262144
-49933 0;
#X msg 110 552 @shift;
#X text 245 552 Get/Set shift amount. Type: float. Default value: 0\.;
#X obj 20 591 cnv 1 745 1 empty empty empty 17 7 0 10 -203890 -1 0;
#X obj 20 596 cnv 5 64 26 empty empty inlets: 4 10 0 14 -262144 -49933
0;
#X text 110 597 1\.;
#X text 150 597 *list*;
#X text 245 597 input list.;
#X text 150 617 *data:mlist*;
#X text 245 617 input mlist.;
#X text 110 637 2\.;
#X text 245 637 shift value.;
#X obj 20 667 cnv 1 745 1 empty empty empty 17 7 0 10 -203890 -1 0;
#X obj 20 672 cnv 5 73 26 empty empty outlets: 4 10 0 14 -262144
-49933 0;
#X text 110 673 1\.;
#X text 245 673 new modified list.;
#X obj 10 48 ui.link @title index @url ../index-help.pd;
#X text 51 45 ::;
#X obj 67 48 ui.link @title ceammc @url ceammc-help.pd;
#X text 115 45 ::;
#X obj 131 48 ui.link @title list @url ceammc.list-help.pd;
#X obj 1 723 cnv 5 765 48 empty empty empty 17 7 0 10 -203890 -1 0;
#X text 10 726 library: ceammc v0.9.6;
#X text 587 738 see also:;
#X obj 661 738 list.rotate;
#N canvas 10 745 400 290 info 0;
#X obj 1 1 cnv 1 107 287 empty empty empty 17 7 0 10 -183085 -1 0;
#X text 10 10 library:;
#X text 120 10 ceammc;
#X text 10 32 version:;
#X text 120 32 0.9.6;
#X text 10 54 object:;
#X text 120 54 list.shift;
#X text 10 76 category:;
#X text 120 76 list;
#X text 10 98 since:;
#X text 120 98 0.1;
#X text 10 120 authors:;
#X text 120 120 Alex Nadzharov \, Serge Poltavsky;
#X text 10 142 license:;
#X text 120 142 GPL3 or later;
#X text 10 164 keywords:;
#X text 120 164 list;
#X text 10 186 website:;
#X obj 120 189 ui.link @title https://github.com/uliss/pure-data @url
https://github.com/uliss/pure-data;
#X obj 120 208 declare -lib ceammc;
#X obj 120 268 cnv 1 270 1 empty empty empty 17 7 0 10 -203890 -1 0;
#X text 120 268 generated by pddoc;
#X restore 10 745 pd info;
#X connect 5 0 6 0;
#X connect 4 0 7 0;
#X connect 6 0 7 0;
#X connect 7 0 9 0;
#X connect 9 0 10 0;
#X connect 10 0 11 0;
#X connect 11 0 12 0;
#X connect 7 1 10 1;