#N canvas 0 0 431 187 12;
#X msg 20 48 10 20 30;
#X msg 135 48 list a b;
#X msg 240 48 1 2 3 4 5;
#X msg 48 77 @pad;
#X msg 164 77 @clip;
#X msg 288 77 @wrap;
#X msg 365 77 @fold;
#X obj 20 120 list.interleave 3 @min;
#X obj 20 149 prepend set;
#X msg 20 178 ;
#X connect 5 0 7 0;
#X connect 6 0 7 0;
#X connect 0 0 7 0;
#X connect 3 0 7 0;
#X connect 4 0 7 0;
#X connect 8 0 9 0;
#X connect 7 0 8 0;
