#N canvas 0 0 455 173 12;
#X msg 20 48 list a b z;
#X msg 144 48 1 2 b c;
#X floatatom 39 77 5 0 0 0 - - -;
#X msg 173 77 2 -1 6 -2;
#X msg 317 77 -3 0 10 2 -5 11;
#X obj 20 106 list.range;
#X obj 317 106 list.range;
#X obj 20 135 prepend set;
#X obj 317 135 !-;
#X msg 20 164 ;
#X floatatom 317 164 5 0 0 0 - - -;
#X connect 1 0 5 0;
#X connect 0 0 5 0;
#X connect 5 0 7 0;
#X connect 2 0 5 0;
#X connect 8 0 10 0;
#X connect 6 0 8 0;
#X connect 7 0 9 0;
#X connect 4 0 6 0;
#X connect 3 0 5 0;
