#N canvas 0 0 209 201 12;
#X msg 20 48 list a b c d e;
#X obj 20 77 list.unpack;
#X obj 20 106 m insert 0;
#X msg 144 106 flush;
#X obj 20 135 data.list;
#X obj 20 164 m set;
#X msg 20 192 ;
#X connect 1 1 3 0;
#X connect 2 0 4 0;
#X connect 3 0 4 0;
#X connect 5 0 6 0;
#X connect 1 0 2 0;
#X connect 0 0 1 0;
#X connect 4 0 5 0;
