#N canvas 0 0 309 144 12;
#X msg 20 48 2 -2 4 1 2.0;
#X msg 164 48 1 a -2 b 4 1 2.0;
#X obj 20 77 list.sort;
#X obj 20 106 prepend set;
#X msg 20 135 ;
#X connect 3 0 4 0;
#X connect 1 0 2 0;
#X connect 0 0 2 0;
#X connect 2 0 3 0;
