#N canvas 0 0 785 555 12;
#X declare -lib ceammc;
#X obj 476 50 cnv 1 289 23 empty empty empty 17 7 0 10 -245760 -1 0;
#X text 476 50 leave in list only specified elements;
#X obj 1 1 cnv 5 765 40 empty empty list.pass 20 20 0 20 -104026 -4096
0;
#X obj 675 11 list.pass;
#X floatatom 50 118 5 0 0 0 - - -;
#X symbolatom 107 118 16 0 0 0 - - -;
#X obj 107 147 symbol2any;
#X obj 107 176 list;
#X obj 50 205 list.pass A B C 1 2 3;
#X obj 50 234 ui.dt;
#X obj 20 284 cnv 1 745 1 empty empty empty 17 7 0 10 -203890 -1 0;
#X obj 20 289 cnv 5 90 25 empty empty arguments: 4 12 0 14 -262144
-49933 0;
#X obj 735 292 ui.link @background_color 0.98039 0.98039 0.98039
@title [?] @url ceammc.args-info.pd;
#X text 110 324 1\.;
#X text 150 324 list;
#X obj 246 325 cnv 1 40 20 empty empty empty 17 7 0 10 -245695 -1 0;
#X text 245 324 ARGS: list of passed value. Type: list.;
#X obj 20 354 cnv 1 745 1 empty empty empty 17 7 0 10 -203890 -1 0;
#X obj 20 359 cnv 5 98 25 empty empty properties: 4 12 0 14 -262144
-49933 0;
#X obj 735 362 ui.link @background_color 0.98039 0.98039 0.98039
@title [?] @url ceammc.props-info.pd;
#X msg 110 394 @args;
#X text 245 394 Get/Set list of passed value. Type: list.;
#X obj 20 434 cnv 1 745 1 empty empty empty 17 7 0 10 -203890 -1 0;
#X obj 20 439 cnv 5 64 25 empty empty inlets: 4 12 0 14 -262144 -49933
0;
#X text 110 440 1\.;
#X text 150 440 *float*;
#X text 245 440 input float.;
#X text 150 460 *symbol*;
#X text 245 460 input symbol.;
#X text 150 480 *list*;
#X text 245 480 input list.;
#X text 150 500 *data:mlist*;
#X text 245 500 input mlist.;
#X text 110 520 2\.;
#X text 150 520 *list*;
#X text 245 520 set passed values.;
#X obj 20 550 cnv 1 745 1 empty empty empty 17 7 0 10 -203890 -1 0;
#X obj 20 555 cnv 5 73 25 empty empty outlets: 4 12 0 14 -262144
-49933 0;
#X text 110 556 1\.;
#X text 245 556 output list with passed elements.;
#X obj 10 48 ui.link @title index @url ../index-help.pd;
#X text 51 45 ::;
#X obj 68 48 ui.link @title ceammc @url ceammc-help.pd;
#X text 116 45 ::;
#X obj 133 48 ui.link @title list @url ceammc.list-help.pd;
#X obj 1 606 cnv 5 765 48 empty empty empty 17 7 0 10 -203890 -1 0;
#X text 10 609 library: ceammc v0.9.7;
#X text 578 621 see also:;
#X obj 653 621 list.pass_if;
#N canvas 10 628 400 290 info 0;
#X obj 1 1 cnv 1 107 287 empty empty empty 17 7 0 10 -183085 -1 0;
#X text 10 10 library:;
#X text 120 10 ceammc;
#X text 10 32 version:;
#X text 120 32 0.9.7;
#X text 10 54 object:;
#X text 120 54 list.pass;
#X text 10 76 category:;
#X text 120 76 list;
#X text 10 98 since:;
#X text 120 98 0.9.5;
#X text 10 120 authors:;
#X text 120 120 Serge Poltavsky;
#X text 10 142 license:;
#X text 120 142 GPL3 or later;
#X text 10 164 keywords:;
#X text 120 164 list \, pass \, filter;
#X text 10 186 website:;
#X obj 120 189 ui.link @title https://github.com/uliss/pd-ceammc @url
https://github.com/uliss/pd-ceammc;
#X obj 120 208 declare -lib ceammc;
#X obj 120 268 cnv 1 270 1 empty empty empty 17 7 0 10 -203890 -1 0;
#X text 120 268 generated by pddoc;
#X restore 10 628 pd info;
#X connect 5 0 6 0;
#X connect 6 0 7 0;
#X connect 4 0 8 0;
#X connect 7 0 8 0;
#X connect 8 0 9 0;