#N canvas 0 0 685 555 12;
#X obj 480 50 cnv 1 185 21 empty empty empty 17 7 0 10 -245760 -1 0;
#X text 480 50 returns last list element;
#X obj 1 1 cnv 5 682 40 empty empty list.last 20 20 0 20 -104026 -4096
0;
#X obj 593 11 list.last;
#X msg 50 118 1 60 120 b 11;
#X msg 203 118 list a b;
#X floatatom 309 118 5 0 0 0 - - -;
#X obj 50 147 list.last;
#X obj 50 176 prepend set;
#X msg 50 205 ;
#X obj 20 244 cnv 1 661 1 empty empty empty 17 7 0 10 -203890 -1 0;
#X obj 20 249 cnv 5 54 16 empty empty inlets: 0 14 0 14 -262144 -49933
0;
#X text 125 254 1\.;
#X text 150 254 *list*;
#X text 230 254 input list\. ;
#X obj 20 282 cnv 1 661 1 empty empty empty 17 7 0 10 -203890 -1 0;
#X obj 20 287 cnv 5 63 16 empty empty outlets: 0 14 0 14 -262144
-49933 0;
#X text 125 292 1\.;
#X text 230 292 last list element;
#X obj 10 48 ui.link @title index @link ../index-help.pd @size 100 25;
#X text 51 45 ::;
#X obj 67 48 ui.link @title ceammc @link ceammc-help.pd @size 100 25;
#X text 115 45 ::;
#X obj 131 48 ui.link @title list @link ceammc.list-help.pd @size 100
25;
#X obj 1 505 cnv 5 682 48 empty empty empty 17 7 0 10 -203890 -1 0;
#X text 10 508 library: ceammc v0\.1;
#X text 453 520 see also:;
#X obj 523 520 list.first;
#X obj 610 520 list.at;
#N canvas 10 527 400 250 info 0;
#X obj 1 1 cnv 1 107 247 empty empty empty 17 7 0 10 -183085 -1 0;
#X text 10 10 library:;
#X text 120 10 ceammc;
#X text 10 32 version:;
#X text 120 32 0\.1;
#X text 10 54 object:;
#X text 120 54 list\.last;
#X text 10 76 category:;
#X text 120 76 list;
#X text 10 98 since:;
#X text 120 98 0\.1;
#X text 10 120 authors:;
#X text 120 120 Serge Poltavsky;
#X text 10 142 license:;
#X text 120 142 GPL3;
#X text 10 164 keywords:;
#X text 120 164 list \, last;
#X text 10 186 website:;
#X obj 120 189 ui.link @title https://github.com/uliss/pure-data @link
https://github.com/uliss/pure-data @size 100 25;
#X obj 120 228 cnv 1 270 1 empty empty empty 17 7 0 10 -203890 -1 0;
#X text 120 228 generated by pddoc;
#X restore 10 527 pd info;
#X connect 4 0 7 0;
#X connect 6 0 7 0;
#X connect 7 0 8 0;
#X connect 8 0 9 0;
#X connect 5 0 7 0;