#N canvas 0 0 785 555 12;
#X declare -lib ceammc;
#X obj 484 50 cnv 1 281 23 empty empty empty 17 7 0 10 -245760 -1 0;
#X text 484 50 set list value at specified position;
#X obj 1 1 cnv 5 765 40 empty empty list.set 20 20 0 20 -104026 -4096
0;
#X obj 682 11 list.set;
#X msg 50 118 1 2 3 4 5;
#X msg 165 118 1 2;
#X floatatom 184 162 5 0 0 0 - - -;
#X msg 251 162 symbol \$\$\$;
#X obj 50 190 list.set -2 ABC;
#X obj 50 219 ui.dt;
#X obj 20 269 cnv 1 745 1 empty empty empty 17 7 0 10 -203890 -1 0;
#X obj 20 274 cnv 5 90 25 empty empty arguments: 4 12 0 14 -262144
-49933 0;
#X obj 735 277 ui.link @background_color 0.98039 0.98039 0.98039
@title [?] @url ceammc.args-info.pd;
#X text 110 309 1\.;
#X text 150 309 int;
#X obj 246 310 cnv 1 47 20 empty empty empty 17 7 0 10 -245695 -1 0;
#X text 245 309 INDEX: element position. Negative indexes are supported.
-1 means last element. Type: int.;
#X text 110 344 2\.;
#X text 150 344 atom;
#X obj 246 345 cnv 1 48 20 empty empty empty 17 7 0 10 -245695 -1 0;
#X text 245 344 VALUE: element value. Type: atom.;
#X obj 20 374 cnv 1 745 1 empty empty empty 17 7 0 10 -203890 -1 0;
#X obj 20 379 cnv 5 98 25 empty empty properties: 4 12 0 14 -262144
-49933 0;
#X obj 735 382 ui.link @background_color 0.98039 0.98039 0.98039
@title [?] @url ceammc.props-info.pd;
#X msg 110 414 @index;
#X text 245 414 Get/Set element index. Type: int. Default value: 0\.;
#X msg 110 444 @value;
#X text 245 444 Get/Set element value. Type: atom.;
#X obj 20 484 cnv 1 745 1 empty empty empty 17 7 0 10 -203890 -1 0;
#X obj 20 489 cnv 5 64 25 empty empty inlets: 4 12 0 14 -262144 -49933
0;
#X text 110 490 1\.;
#X text 150 490 *list*;
#X text 245 490 input list.;
#X text 150 510 *data:mlist*;
#X text 245 510 input mlist.;
#X text 110 530 2\.;
#X text 150 530 *int*;
#X text 245 530 element index.;
#X text 110 550 3\.;
#X text 150 550 *atom*;
#X text 245 550 new element value.;
#X obj 20 580 cnv 1 745 1 empty empty empty 17 7 0 10 -203890 -1 0;
#X obj 20 585 cnv 5 73 25 empty empty outlets: 4 12 0 14 -262144
-49933 0;
#X text 110 586 1\.;
#X text 245 586 result list.;
#X obj 10 48 ui.link @title index @url ../index-help.pd;
#X text 51 45 ::;
#X obj 68 48 ui.link @title ceammc @url ceammc-help.pd;
#X text 116 45 ::;
#X obj 133 48 ui.link @title list @url ceammc.list-help.pd;
#X obj 1 636 cnv 5 765 48 empty empty empty 17 7 0 10 -203890 -1 0;
#X text 10 639 library: ceammc v0.9.7;
#N canvas 10 658 400 290 info 0;
#X obj 1 1 cnv 1 107 287 empty empty empty 17 7 0 10 -183085 -1 0;
#X text 10 10 library:;
#X text 120 10 ceammc;
#X text 10 32 version:;
#X text 120 32 0.9.7;
#X text 10 54 object:;
#X text 120 54 list.set;
#X text 10 76 category:;
#X text 120 76 list;
#X text 10 98 since:;
#X text 120 98 0.6;
#X text 10 120 authors:;
#X text 120 120 Serge Poltavsky;
#X text 10 142 license:;
#X text 120 142 GPL3 or later;
#X text 10 164 keywords:;
#X text 120 164 list \, set;
#X text 10 186 website:;
#X obj 120 189 ui.link @title https://github.com/uliss/pd-ceammc @url
https://github.com/uliss/pd-ceammc;
#X obj 120 208 declare -lib ceammc;
#X obj 120 268 cnv 1 270 1 empty empty empty 17 7 0 10 -203890 -1 0;
#X text 120 268 generated by pddoc;
#X restore 10 658 pd info;
#X connect 4 0 8 0;
#X connect 5 0 8 0;
#X connect 6 0 8 1;
#X connect 7 0 8 2;
#X connect 8 0 9 0;