#N canvas 0 0 215 144 12;
#X msg 20 48 1 2 3 4 5 6 7 8 9;
#X obj 20 77 list.each;
#X obj 154 77 pow 2;
#X obj 20 106 prepend set;
#X msg 20 135 ;
#X connect 1 1 2 0;
#X connect 0 0 1 0;
#X connect 2 0 1 1;
#X connect 3 0 4 0;
#X connect 1 0 3 0;
