#N canvas 0 0 240 144 12;
#X msg 20 77 1 1 2 2 2 1 1;
#X obj 20 106 list.wrap;
#X obj 20 135 msg set;
#X obj 164 135 msg set;
#X msg 20 164 ;
#X msg 164 164 ;
#X connect 2 0 4 0;
#X connect 0 0 1 0;
#X connect 1 1 3 0;
#X connect 1 0 2 0;
#X connect 3 0 5 0;
