#N canvas 0 0 785 555 12;
#X declare -lib ceammc;
#X obj 599 50 cnv 1 166 23 empty empty empty 17 7 0 10 -245760 -1 0;
#X text 599 50 convolution for lists;
#X obj 1 1 cnv 5 765 40 empty empty list.convolve 20 20 0 20 -104026
-4096 0;
#X obj 556 11 list.conv;
#X obj 646 11 list.convolve;
#X obj 210 80 cnv 1 555 50 empty empty empty 17 7 0 10 -257983 -1 0;
#X text 215 80 Note: may perform slowly in large lists because it does
not use the FFT to compute the convolution;
#X msg 50 158 1 2 3;
#X obj 50 187 list.convolve 3 4 5;
#X obj 50 216 ui.dt;
#X obj 50 245 list.convolve.1;
#X obj 20 294 cnv 1 745 1 empty empty empty 17 7 0 10 -203890 -1 0;
#X obj 20 299 cnv 5 90 26 empty empty arguments: 4 10 0 14 -262144
-49933 0;
#X text 110 334 1\.;
#X text 150 334 list;
#X obj 246 335 cnv 1 16 20 empty empty empty 17 7 0 10 -245695 -1 0;
#X text 245 334 B: second argument values. Type: list.;
#X obj 20 364 cnv 1 745 1 empty empty empty 17 7 0 10 -203890 -1 0;
#X obj 20 369 cnv 5 98 26 empty empty properties: 4 10 0 14 -262144
-49933 0;
#X msg 110 404 @a;
#X text 245 404 Get/Set first argument. Type: list.;
#X msg 110 433 @b;
#X text 245 433 Get/Set second argument. Type: list.;
#X msg 110 462 @full;
#X text 245 462 alias to @mode full.;
#X msg 110 491 @mode;
#X text 245 491 Get/Set output mode. 'full' - output the convolution
at each point of overlap \, with an output length of (M+N-1). At the
end-points of the convolution \, the signals do not overlap completely
\, and boundary effects may be seen. 'valid' - output of length (max(M
\, N)-min(M \, N)+1). The convolution product is only given for points
where the signals overlap completely. Values outside the signal boundary
have no effect. 'same' - output of length max(M \, N). Boundary effects
are still visible. Type: symbol. Default value: full. Allowed values:
valid \, same \, full.;
#X msg 110 653 @same;
#X text 245 653 alias to @mode same.;
#X msg 110 682 @valid;
#X text 245 682 alias to @mode valid.;
#X obj 20 721 cnv 1 745 1 empty empty empty 17 7 0 10 -203890 -1 0;
#X obj 20 726 cnv 5 64 26 empty empty inlets: 4 10 0 14 -262144 -49933
0;
#X text 110 727 1\.;
#X text 150 727 *list*;
#X text 245 727 calculate convolution and output.;
#X text 110 747 2\.;
#X text 150 747 *list*;
#X text 245 747 set second argument (@b property).;
#X obj 20 777 cnv 1 745 1 empty empty empty 17 7 0 10 -203890 -1 0;
#X obj 20 782 cnv 5 73 26 empty empty outlets: 4 10 0 14 -262144
-49933 0;
#X text 110 783 1\.;
#X text 245 783 list: output result.;
#X obj 10 48 ui.link @title index @url ../index-help.pd;
#X text 51 45 ::;
#X obj 67 48 ui.link @title ceammc @url ceammc-help.pd;
#X text 115 45 ::;
#X obj 131 48 ui.link @title list @url ceammc.list-help.pd;
#X obj 1 833 cnv 5 765 48 empty empty empty 17 7 0 10 -203890 -1 0;
#X text 10 836 library: ceammc v0.9.5;
#N canvas 10 855 400 290 info 0;
#X obj 1 1 cnv 1 107 287 empty empty empty 17 7 0 10 -183085 -1 0;
#X text 10 10 library:;
#X text 120 10 ceammc;
#X text 10 32 version:;
#X text 120 32 0.9.5;
#X text 10 54 object:;
#X text 120 54 list.convolve;
#X text 10 76 category:;
#X text 120 76 list;
#X text 10 98 since:;
#X text 120 98 0.9.4;
#X text 10 120 authors:;
#X text 120 120 Serge Poltavsky;
#X text 10 142 license:;
#X text 120 142 GPL3 or later;
#X text 10 164 keywords:;
#X text 120 164 list \, convolve \, convolution;
#X text 10 186 website:;
#X obj 120 189 ui.link @title https://github.com/uliss/pure-data @url
https://github.com/uliss/pure-data;
#X obj 120 208 declare -lib ceammc;
#X obj 120 268 cnv 1 270 1 empty empty empty 17 7 0 10 -203890 -1 0;
#X text 120 268 generated by pddoc;
#X restore 10 855 pd info;
#X connect 7 0 8 0;
#X connect 8 0 9 0;