#N canvas 0 0 417 129 12;
#X msg 20 48 1 2 3 4;
#X msg 221 48 1 2 3 4;
#X obj 20 92 list.reduce;
#X obj 173 92 +;
#X obj 221 92 list.reduce;
#X obj 375 92 *;
#X floatatom 20 120 5 0 0 0 - - -;
#X floatatom 221 120 5 0 0 0 - - -;
#X connect 1 0 4 0;
#X connect 4 1 5 0;
#X connect 2 1 3 0;
#X connect 0 0 2 0;
#X connect 4 0 7 0;
#X connect 5 0 4 1;
#X connect 2 0 6 0;
#X connect 3 0 2 1;
