#N canvas 0 0 785 555 12;
#X declare -lib ceammc;
#X obj 438 50 cnv 1 327 23 empty empty empty 17 7 0 10 -245760 -1 0;
#X text 438 50 local to patch bidirectional map container;
#X obj 1 1 cnv 5 765 40 empty empty local.bimap 20 20 0 20 -104026
-4096 0;
#X obj 661 11 local.bimap;
#X obj 210 80 cnv 1 555 35 empty empty empty 17 7 0 10 -257983 -1 0;
#X text 215 80 NOTE: all object inlets are 'hot';
#X obj 50 143 loadmsg 1 2 3 4 5 6;
#X listbox 50 172 20 0 0 0 - - -;
#X msg 261 172 1;
#X msg 299 172 1 3 5;
#X msg 376 172 2;
#X msg 414 172 2 4 6;
#X obj 50 201 msg set;
#X obj 261 201 local.bimap LBM;
#X text 443 201 click to view/edit;
#X obj 50 230 local.bimap LBM;
#X obj 261 230 ui.dt;
#X obj 386 230 ui.dt;
#X obj 20 279 cnv 1 745 1 empty empty empty 17 7 0 10 -203890 -1 0;
#X obj 20 284 cnv 5 115 26 empty empty mouse_events: 4 10 0 14 -262144
-49933 0;
#X text 110 319 Left-click;
#X text 285 319 open data editor.;
#X obj 20 349 cnv 1 745 1 empty empty empty 17 7 0 10 -203890 -1 0;
#X obj 20 354 cnv 5 90 26 empty empty arguments: 4 10 0 14 -262144
-49933 0;
#X text 110 389 1\.;
#X text 150 389 symbol;
#X obj 246 390 cnv 1 23 20 empty empty empty 17 7 0 10 -245695 -1 0;
#X text 245 389 ID: bimap ID. Type: symbol.;
#X obj 20 419 cnv 1 745 1 empty empty empty 17 7 0 10 -203890 -1 0;
#X obj 20 424 cnv 5 98 26 empty empty properties: 4 10 0 14 -262144
-49933 0;
#X msg 110 459 @id;
#X text 245 459 (initonly) Get/Set local variable id. Type: symbol.
Default value: default.;
#X msg 110 501 @value;
#X text 245 501 Get/Set value \, list of pairs: LEFT_KEY1 RIGHT_KEY1
LEFT_KEY2 RIGHT_KEY2 etc. Type: list.;
#X msg 110 543 @empty?;
#X text 245 543 (readonly) Get true if empty. Type: bool. Default value:
1\.;
#X msg 110 572 @keys_left?;
#X text 245 572 (readonly) Get list of left map keys. Type: list.;
#X msg 110 601 @keys_right?;
#X text 245 601 (readonly) Get list of right map keys. Type: list.;
#X msg 110 630 @size?;
#X text 245 630 (readonly) Get number of left-right pairs in map. Type:
int. Default value: 0\.;
#X obj 20 682 cnv 1 745 1 empty empty empty 17 7 0 10 -203890 -1 0;
#X obj 20 687 cnv 5 73 26 empty empty methods: 4 10 0 14 -262144
-49933 0;
#X msg 110 722 clear;
#X text 245 722 clear bidirectional map content.;
#X msg 110 749 insert;
#X text 245 749 insert new left-right map entry. Arguments are:;
#X obj 255 772 cnv 1 37 23 empty empty empty 17 7 0 10 -245695 -1 0;
#X text 255 772 PAIR: list: LEFT_KEY RIGHT_KEY. Type: list.;
#X msg 110 797 read;
#X text 245 797 read bimap from JSON file. Array of array pairs expected.
Arguments are:;
#X obj 255 835 cnv 1 44 23 empty empty empty 17 7 0 10 -245695 -1 0;
#X text 255 835 FNAME: path to file \, absolute or relative. Type:
symbol.;
#X msg 110 860 set;
#X text 245 860 set bidirectional map content. Arguments are:;
#X obj 255 883 cnv 1 37 23 empty empty empty 17 7 0 10 -245695 -1 0;
#X text 255 883 DATA: new value list. Type: list.;
#X msg 110 908 write;
#X text 245 908 write to JSON file \, to overwrite existing file use
@force flag. Arguments are:;
#X obj 255 946 cnv 1 44 23 empty empty empty 17 7 0 10 -245695 -1 0;
#X text 255 946 FNAME: path to file \, absolute or relative. Type:
symbol.;
#X obj 255 969 cnv 1 62 23 empty empty empty 17 7 0 10 -245695 -1 0;
#X text 255 969 [@force]: force flag to overwrite existing files. Type:
symbol.;
#X obj 20 1019 cnv 1 745 1 empty empty empty 17 7 0 10 -203890 -1 0;
#X obj 20 1024 cnv 5 64 26 empty empty inlets: 4 10 0 14 -262144
-49933 0;
#X text 110 1025 1\.;
#X text 150 1025 *atom*;
#X text 245 1025 try to find left key in the map and output the right
value on success.;
#X text 150 1060 *list*;
#X text 245 1060 try to find each left key of the list in the map and
output the result list of right values.;
#X text 110 1095 2\.;
#X text 150 1095 *atom*;
#X text 245 1095 try to find right key in the map and output the left
value on success.;
#X text 150 1130 *list*;
#X text 245 1130 try to find each right key of the list in the map
and output the result list of left values.;
#X obj 20 1175 cnv 1 745 1 empty empty empty 17 7 0 10 -203890 -1 0;
#X obj 20 1180 cnv 5 73 26 empty empty outlets: 4 10 0 14 -262144
-49933 0;
#X text 110 1181 1\.;
#X text 245 1181 atom or list: right value output.;
#X text 110 1201 2\.;
#X text 245 1201 atom or list: left value output.;
#X obj 10 48 ui.link @title index @url ../index-help.pd;
#X text 51 45 ::;
#X obj 67 48 ui.link @title ceammc @url ceammc-help.pd;
#X text 115 45 ::;
#X obj 131 48 ui.link @title data @url ceammc.data-help.pd;
#X obj 1 1251 cnv 5 765 48 empty empty empty 17 7 0 10 -203890 -1 0;
#X text 10 1254 library: ceammc v0.9.6;
#X text 491 1266 see also:;
#X obj 565 1266 data.bimap;
#X obj 653 1266 global.bimap;
#N canvas 10 1273 400 290 info 0;
#X obj 1 1 cnv 1 107 287 empty empty empty 17 7 0 10 -183085 -1 0;
#X text 10 10 library:;
#X text 120 10 ceammc;
#X text 10 32 version:;
#X text 120 32 0.9.6;
#X text 10 54 object:;
#X text 120 54 local.bimap;
#X text 10 76 category:;
#X text 120 76 data;
#X text 10 98 since:;
#X text 120 98 0.9.7;
#X text 10 120 authors:;
#X text 120 120 Serge Poltavsky;
#X text 10 142 license:;
#X text 120 142 GPL3 or later;
#X text 10 164 keywords:;
#X text 120 164 data \, local \, map \, container \, bidirectional;
#X text 10 186 website:;
#X obj 120 189 ui.link @title https://github.com/uliss/pure-data @url
https://github.com/uliss/pure-data;
#X obj 120 208 declare -lib ceammc;
#X obj 120 268 cnv 1 270 1 empty empty empty 17 7 0 10 -203890 -1 0;
#X text 120 268 generated by pddoc;
#X restore 10 1273 pd info;
#X connect 6 0 7 0;
#X connect 7 0 12 0;
#X connect 8 0 13 0;
#X connect 9 0 13 0;
#X connect 10 0 13 1;
#X connect 11 0 13 1;
#X connect 12 0 15 0;
#X connect 13 0 16 0;
#X connect 13 1 17 0;