#N canvas 0 0 785 555 12;
#X declare -lib ceammc;
#X obj 605 50 cnv 1 160 23 empty empty empty 17 7 0 10 -245760 -1 0;
#X text 605 50 advanced data logger;
#X obj 1 1 cnv 5 765 40 empty empty logger 20 20 0 20 -104026 -4096 0;
#N canvas 599 11 250 400 aliases 0;
#X obj 30 40 ceammc/logger;
#X obj 30 78 log.error;
#X obj 30 116 log.post;
#X obj 30 154 log.debug;
#X obj 30 192 log.verbose;
#X obj 30 230 log.stdout;
#X obj 30 268 log.stderr;
#X restore 599 11 pd aliases;
#X obj 696 11 logger;
#X floatatom 50 118 5 0 0 0 - - -;
#X msg 107 118 1 2 3;
#X obj 203 118 tgl 15 0 empty empty empty 17 7 0 10 -262144 -1 -1 0 1;
#X obj 50 147 log.error ERROR!;
#X floatatom 50 176 5 0 0 0 - - -;
#X msg 107 176 message;
#X obj 203 176 tgl 15 0 empty empty empty 17 7 0 10 -262144 -1 -1 0 1;
#X obj 50 205 log.debug;
#X obj 20 255 cnv 1 745 1 empty empty empty 17 7 0 10 -203890 -1 0;
#X obj 20 260 cnv 5 90 25 empty empty arguments: 4 12 0 14 -262144
-49933 0;
#X obj 735 263 ui.link @background_color 0.98039 0.98039 0.98039
@title [?] @url ceammc.args-info.pd;
#X text 110 295 1\.;
#X text 150 295 list;
#X obj 246 296 cnv 1 54 20 empty empty empty 17 7 0 10 -245695 -1 0;
#X text 245 295 PREFIX: log message prefix. Type: list.;
#X obj 20 325 cnv 1 745 1 empty empty empty 17 7 0 10 -203890 -1 0;
#X obj 20 330 cnv 5 98 25 empty empty properties: 4 12 0 14 -262144
-49933 0;
#X obj 735 333 ui.link @background_color 0.98039 0.98039 0.98039
@title [?] @url ceammc.props-info.pd;
#X msg 110 365 @active;
#X text 245 365 Get/Set enabled/disabled logging state. Type: bool.
Default value: 1\.;
#X msg 110 407 @prefix;
#X text 245 407 Get/Set log message prefix. Type: list.;
#X obj 20 447 cnv 1 745 1 empty empty empty 17 7 0 10 -203890 -1 0;
#X obj 20 452 cnv 5 64 25 empty empty inlets: 4 12 0 14 -262144 -49933
0;
#X text 110 453 1\.;
#X text 245 453 log input.;
#X text 110 473 2\.;
#X text 150 473 *float*;
#X text 245 473 1: enable logging \, 0: disable logging.;
#X obj 20 503 cnv 1 745 1 empty empty empty 17 7 0 10 -203890 -1 0;
#X obj 20 508 cnv 5 73 25 empty empty outlets: 4 12 0 14 -262144
-49933 0;
#X obj 10 48 ui.link @title index @url ../index-help.pd;
#X text 51 45 ::;
#X obj 68 48 ui.link @title ceammc @url ceammc-help.pd;
#X text 116 45 ::;
#X obj 133 48 ui.link @title base @url ceammc.base-help.pd;
#X obj 1 549 cnv 5 765 48 empty empty empty 17 7 0 10 -203890 -1 0;
#X text 10 552 library: ceammc v0.9.7;
#N canvas 10 571 400 290 info 0;
#X obj 1 1 cnv 1 107 287 empty empty empty 17 7 0 10 -183085 -1 0;
#X text 10 10 library:;
#X text 120 10 ceammc;
#X text 10 32 version:;
#X text 120 32 0.9.7;
#X text 10 54 object:;
#X text 120 54 logger;
#X text 10 76 category:;
#X text 120 76 base;
#X text 10 98 since:;
#X text 120 98 0.9.1;
#X text 10 120 authors:;
#X text 120 120 Serge Poltavsky;
#X text 10 142 license:;
#X text 120 142 GPL3 or later;
#X text 10 164 keywords:;
#X text 120 164 log;
#X text 10 186 website:;
#X obj 120 189 ui.link @title https://github.com/uliss/pd-ceammc @url
https://github.com/uliss/pd-ceammc;
#X obj 120 208 declare -lib ceammc;
#X obj 120 268 cnv 1 270 1 empty empty empty 17 7 0 10 -203890 -1 0;
#X text 120 268 generated by pddoc;
#X restore 10 571 pd info;
#X connect 5 0 8 0;
#X connect 6 0 8 0;
#X connect 7 0 8 1;
#X connect 9 0 12 0;
#X connect 10 0 12 0;
#X connect 11 0 12 1;