#N canvas 0 0 203 144 12;
#X floatatom 20 48 5 0 0 0 - - -;
#X msg 87 48 1 2 -5 7 d b;
#X obj 20 77 math.abs;
#X obj 20 106 prepend set;
#X msg 20 135 ;
#X connect 3 0 4 0;
#X connect 1 0 2 0;
#X connect 0 0 2 0;
#X connect 2 0 3 0;
