#N canvas 0 0 685 555 12;
#X obj 544 50 cnv 1 121 21 empty empty empty 17 7 0 10 -245760 -1 0;
#X text 544 50 tangent function;
#X obj 1 1 cnv 5 682 40 empty empty math.tan 20 20 0 20 -104026 -4096
0;
#X obj 602 11 math.tan;
#X obj 225 80 cnv 1 440 130 empty empty empty 17 7 0 10 -257983 -1 0;
#X text 230 80 The tan() function computes the tangent of x (measured
in radians)\. ;
#X text 230 117 Special values:;
#X text 230 140 tan(+-0) returns +-0\.;
#X text 230 163 tan(+-infinity) returns a NaN and raises the "invalid"
floating-point exception\. ;
#X floatatom 50 238 5 0 0 0 - - -;
#X obj 50 267 math.tan;
#X floatatom 50 296 5 0 0 0 - - -;
#X obj 20 335 cnv 1 661 1 empty empty empty 17 7 0 10 -203890 -1 0;
#X obj 20 340 cnv 5 54 16 empty empty inlets: 0 14 0 14 -262144 -49933
0;
#X text 125 345 1\.;
#X text 150 345 *float*;
#X text 230 345 input value\. ;
#X text 150 363 *list*;
#X text 230 363 apply to all numeric values\. ;
#X obj 20 391 cnv 1 661 1 empty empty empty 17 7 0 10 -203890 -1 0;
#X obj 20 396 cnv 5 63 16 empty empty outlets: 0 14 0 14 -262144
-49933 0;
#X text 125 401 1\.;
#X text 230 401 result value;
#X obj 10 45 pddp/pddplink ../index-help.pd -text index;
#X text 51 45 ::;
#X obj 67 45 pddp/pddplink ceammc-help.pd -text ceammc;
#X text 115 45 ::;
#X obj 131 45 pddp/pddplink ceammc.math-help.pd -text math;
#X obj 1 505 cnv 5 682 48 empty empty empty 17 7 0 10 -203890 -1 0;
#X text 10 508 library: ceammc v0\.1;
#X text 375 520 see also:;
#X obj 445 520 math.acos;
#X obj 525 520 math.asin;
#X obj 605 520 math.atan;
#N canvas 10 527 400 250 info 0;
#X obj 1 1 cnv 1 107 247 empty empty empty 17 7 0 10 -183085 -1 0;
#X text 10 10 library:;
#X text 120 10 ceammc;
#X text 10 32 version:;
#X text 120 32 0\.1;
#X text 10 54 object:;
#X text 120 54 math\.tan;
#X text 10 76 category:;
#X text 120 76 math;
#X text 10 98 since:;
#X text 120 98 0\.1;
#X text 10 120 authors:;
#X text 120 120 Serge Poltavsky;
#X text 10 142 license:;
#X text 120 142 GPL3;
#X text 10 164 keywords:;
#X text 120 164 math \, tan;
#X text 10 186 website:;
#X obj 120 186 pddp/pddplink https://github.com/uliss/pure-data -text
https://github.com/uliss/pure-data;
#X obj 120 228 cnv 1 270 1 empty empty empty 17 7 0 10 -203890 -1 0;
#X text 120 228 generated by pddoc;
#X restore 10 527 pd info;
#X connect 10 0 11 0;
#X connect 9 0 10 0;