#N canvas 0 0 785 555 12;
#X declare -lib ceammc;
#X obj 637 50 cnv 1 128 23 empty empty empty 17 7 0 10 -245760 -1 0;
#X text 637 50 sync subtraction;
#X obj 1 1 cnv 5 765 40 empty empty math.sync_sub 20 20 0 20 -104026
-4096 0;
#X obj 441 11 math.-';
#X obj 515 11 ceammc/-';
#X obj 603 11 -';
#X obj 645 11 math.sync_sub;
#X floatatom 50 118 5 0 0 0 - - -;
#X floatatom 107 118 5 0 0 0 - - -;
#X text 165 118 same as:;
#X floatatom 290 118 5 0 0 0 - - -;
#X floatatom 338 118 5 0 0 0 - - -;
#X obj 338 147 t b f;
#X obj 50 176 -';
#X obj 290 176 -;
#X floatatom 50 205 5 0 0 0 - - -;
#X floatatom 290 205 5 0 0 0 - - -;
#X obj 20 254 cnv 1 745 1 empty empty empty 17 7 0 10 -203890 -1 0;
#X obj 20 259 cnv 5 90 26 empty empty arguments: 4 10 0 14 -262144
-49933 0;
#X text 110 294 1\.;
#X text 150 294 float;
#X obj 246 295 cnv 1 15 20 empty empty empty 17 7 0 10 -245695 -1 0;
#X text 245 294 F: subtrahend. Type: float.;
#X obj 20 324 cnv 1 745 1 empty empty empty 17 7 0 10 -203890 -1 0;
#X obj 20 329 cnv 5 98 26 empty empty properties: 4 10 0 14 -262144
-49933 0;
#X msg 110 364 @int;
#X text 245 364 operate on integers only. Default value: 0\.;
#X obj 20 403 cnv 1 745 1 empty empty empty 17 7 0 10 -203890 -1 0;
#X obj 20 408 cnv 5 64 26 empty empty inlets: 4 10 0 14 -262144 -49933
0;
#X text 110 409 1\.;
#X text 150 409 *float*;
#X text 245 409 set minuend \, calculate and output result.;
#X text 150 429 *list*;
#X text 245 429 pair: set minuend and subtrahend \, calculate and output
result.;
#X text 110 464 2\.;
#X text 150 464 *float*;
#X text 245 464 change subtrahend \, calculate and output result.;
#X obj 20 494 cnv 1 745 1 empty empty empty 17 7 0 10 -203890 -1 0;
#X obj 20 499 cnv 5 73 26 empty empty outlets: 4 10 0 14 -262144
-49933 0;
#X text 110 500 1\.;
#X text 245 500 difference output.;
#X obj 10 48 ui.link @title index @url ../index-help.pd;
#X text 51 45 ::;
#X obj 67 48 ui.link @title ceammc @url ceammc-help.pd;
#X text 115 45 ::;
#X obj 131 48 ui.link @title math @url ceammc.math-help.pd;
#X obj 1 550 cnv 5 765 48 empty empty empty 17 7 0 10 -203890 -1 0;
#X text 10 553 library: ceammc v0.9.3;
#X text 572 565 see also:;
#X obj 646 565 math.sync_add;
#N canvas 10 572 400 290 info 0;
#X obj 1 1 cnv 1 107 287 empty empty empty 17 7 0 10 -183085 -1 0;
#X text 10 10 library:;
#X text 120 10 ceammc;
#X text 10 32 version:;
#X text 120 32 0.9.3;
#X text 10 54 object:;
#X text 120 54 math.sync_sub;
#X text 10 76 category:;
#X text 120 76 math;
#X text 10 98 since:;
#X text 120 98 0.8;
#X text 10 120 authors:;
#X text 120 120 Serge Poltavsky;
#X text 10 142 license:;
#X text 120 142 GPL3 or later;
#X text 10 164 keywords:;
#X text 120 164 math \, sub \, sync;
#X text 10 186 website:;
#X obj 120 189 ui.link @title https://github.com/uliss/pure-data @url
https://github.com/uliss/pure-data;
#X obj 120 208 declare -lib ceammc;
#X obj 120 268 cnv 1 270 1 empty empty empty 17 7 0 10 -203890 -1 0;
#X text 120 268 generated by pddoc;
#X restore 10 572 pd info;
#X connect 11 0 12 0;
#X connect 7 0 13 0;
#X connect 8 0 13 1;
#X connect 10 0 14 0;
#X connect 12 0 14 0;
#X connect 12 1 14 1;
#X connect 13 0 15 0;
#X connect 14 0 16 0;