#N canvas 0 0 785 555 12;
#X declare -lib ceammc;
#X obj 537 50 cnv 1 228 23 empty empty empty 17 7 0 10 -245760 -1 0;
#X text 537 50 exponent of a complex signals;
#X obj 1 1 cnv 5 765 40 empty empty math.cexp~ 20 20 0 20 -104026
-4096 0;
#X obj 491 11 ceammc/cexp~;
#X obj 604 11 cexp~;
#X obj 666 11 math.cexp~;
#X obj 210 80 cnv 1 555 130 empty empty empty 17 7 0 10 -257983 -1 0;
#X text 215 80 Base-e exponential of complex signal \, that is e (Euler's
number \, 2.7182818) raised to the complex signal power;
#X text 215 120 The complex exponential function e^z for z = x+jy equals
e^x (cos(y) + j sin(y));
#X text 215 160 The exponential function is an entire function in the
complex plane and has no branch cuts;
#X text 50 238 Plot FIR frequency response: |H(w)| = 0.5 + 0.5e^-jw;
#X msg 50 267 bang;
#X obj 50 296 plot.linspace~ 0 3.141592 @pi;
#X obj 50 325 *~ -1;
#X obj 50 354 math.cexp~;
#X obj 174 354 sig~ 0.5;
#X obj 50 382 math.cmul~;
#X obj 50 411 +~ 0.5;
#X obj 50 440 math.cabs~;
#X obj 50 469 ui.plot~ @size 475 150 @xlabels 1 @ylabels 1 @ymin 0
@ymax 1 @ymin_ticks 0 @ymax_ticks 0 @xmin_ticks 0 @xmaj_ticks 0
@xmin_grid 1;
#X obj 50 627 ui.dsp~;
#X obj 20 677 cnv 1 745 1 empty empty empty 17 7 0 10 -203890 -1 0;
#X obj 20 682 cnv 5 64 25 empty empty inlets: 4 10 0 14 -262144 -49933
0;
#X text 110 683 1.;
#X text 245 683 real part of input signal.;
#X text 110 703 2.;
#X text 245 703 imag part of input signal.;
#X obj 20 733 cnv 1 745 1 empty empty empty 17 7 0 10 -203890 -1 0;
#X obj 20 738 cnv 5 73 25 empty empty outlets: 4 10 0 14 -262144
-49933 0;
#X text 110 739 1.;
#X text 245 739 real part of result.;
#X text 110 759 2.;
#X text 245 759 imag part of result.;
#X obj 10 48 ui.link @title index @url ../index-help.pd;
#X text 51 45 ::;
#X obj 68 48 ui.link @title ceammc @url ceammc-help.pd;
#X text 116 45 ::;
#X obj 133 48 ui.link @title math @url ceammc.math-help.pd;
#X obj 1 809 cnv 5 765 48 empty empty empty 17 7 0 10 -203890 -1 0;
#X text 10 812 library: ceammc v0.9.7;
#X text 591 824 see also:;
#X obj 666 824 math.carg~;
#N canvas 10 831 400 290 info 0;
#X obj 1 1 cnv 1 107 287 empty empty empty 17 7 0 10 -183085 -1 0;
#X text 10 10 library:;
#X text 120 10 ceammc;
#X text 10 32 version:;
#X text 120 32 0.9.7;
#X text 10 54 object:;
#X text 120 54 math.cexp~;
#X text 10 76 category:;
#X text 120 76 math;
#X text 10 98 since:;
#X text 120 98 0.9;
#X text 10 120 authors:;
#X text 120 120 Serge Poltavsky;
#X text 10 142 license:;
#X text 120 142 GPL3 or later;
#X text 10 164 keywords:;
#X text 120 164 math \, complex \, magnitude \, module;
#X text 10 186 website:;
#X obj 120 189 ui.link @title https://github.com/uliss/pd-ceammc @url
https://github.com/uliss/pd-ceammc;
#X obj 120 208 declare -lib ceammc;
#X obj 120 268 cnv 1 270 1 empty empty empty 17 7 0 10 -203890 -1 0;
#X text 120 268 generated by pddoc;
#X restore 10 831 pd info;
#X connect 11 0 12 0;
#X connect 12 0 13 0;
#X connect 13 0 14 1;
#X connect 14 0 16 0;
#X connect 14 1 16 1;
#X connect 15 0 16 2;
#X connect 16 0 17 0;
#X connect 17 0 18 0;
#X connect 16 1 18 1;
#X connect 18 0 19 0;
#X connect 12 1 19 1;