#N canvas 0 0 785 555 12;
#X declare -lib ceammc;
#X obj 492 50 cnv 1 273 23 empty empty empty 17 7 0 10 -245760 -1 0;
#X text 492 50 operation OR for multiple arguments;
#X obj 1 1 cnv 5 765 40 empty empty math.or 20 20 0 20 -104026 -4096
0;
#X obj 557 11 ceammc/or;
#X obj 647 11 or;
#X obj 689 11 math.or;
#X obj 50 118 hslider 128 15 0.0 127.0 0 0 empty empty empty 17 7 0 10
-262144 -1 -1 0 0;
#X obj 50 147 > 50;
#X obj 126 147 hslider 128 15 0.0 127.0 0 0 empty empty empty 17 7 0
10 -262144 -1 -1 0 0;
#X obj 126 176 > 50;
#X obj 194 176 hslider 128 15 0.0 127.0 0 0 empty empty empty 17 7 0
10 -262144 -1 -1 0 0;
#X obj 194 205 < 50;
#X obj 50 234 math.or 3 @sync;
#X floatatom 50 262 5 0 0 0 - - -;
#X obj 50 291 bng 15 250 50 0 empty empty empty 17 7 0 10 -262144 -1
-1;
#X obj 20 338 cnv 1 745 1 empty empty empty 17 7 0 10 -203890 -1 0;
#X obj 20 343 cnv 5 90 26 empty empty arguments: 4 10 0 14 -262144
-49933 0;
#X text 110 378 1\.;
#X text 150 378 int;
#X obj 246 379 cnv 1 17 20 empty empty empty 17 7 0 10 -245695 -1 0;
#X text 245 378 N: number of arguments. Type: int. Range: 3\...16;
#X obj 20 408 cnv 1 745 1 empty empty empty 17 7 0 10 -203890 -1 0;
#X obj 20 413 cnv 5 98 26 empty empty properties: 4 10 0 14 -262144
-49933 0;
#X msg 110 448 @n;
#X text 245 448 (initonly) Get/Set number of arguments. Type: int.
Default value: 3\. Range: 3\...16\.;
#X msg 110 490 @state;
#X text 245 490 (readonly) Get internal logic state as list of 1 and
0\. Type: list.;
#X msg 110 532 @sync;
#X text 245 532 if specified - all inlets are 'hot'. Default value:
0\.;
#X obj 20 571 cnv 1 745 1 empty empty empty 17 7 0 10 -203890 -1 0;
#X obj 20 576 cnv 5 73 26 empty empty methods: 4 10 0 14 -262144
-49933 0;
#X msg 110 611 reset;
#X text 245 611 resets all input states to false.;
#X obj 20 648 cnv 1 745 1 empty empty empty 17 7 0 10 -203890 -1 0;
#X obj 20 653 cnv 5 64 26 empty empty inlets: 4 10 0 14 -262144 -49933
0;
#X text 110 654 1\.;
#X text 150 654 *float*;
#X text 245 654 1 or 0\.;
#X text 110 674 ....;
#X text 150 674 *float*;
#X text 245 674 1 or 0\.;
#X text 110 694 n.;
#X text 150 694 *float*;
#X text 245 694 1 or 0\.;
#X obj 20 724 cnv 1 745 1 empty empty empty 17 7 0 10 -203890 -1 0;
#X obj 20 729 cnv 5 73 26 empty empty outlets: 4 10 0 14 -262144
-49933 0;
#X text 110 730 1\.;
#X text 245 730 1 - if all input values are true (1) \, 0 - otherwise.;
#X obj 10 48 ui.link @title index @url ../index-help.pd;
#X text 51 45 ::;
#X obj 67 48 ui.link @title ceammc @url ceammc-help.pd;
#X text 115 45 ::;
#X obj 131 48 ui.link @title math @url ceammc.math-help.pd;
#X obj 1 780 cnv 5 765 48 empty empty empty 17 7 0 10 -203890 -1 0;
#X text 10 783 library: ceammc v0.9.6;
#X text 608 795 see also:;
#X obj 682 795 math.and;
#N canvas 10 802 400 290 info 0;
#X obj 1 1 cnv 1 107 287 empty empty empty 17 7 0 10 -183085 -1 0;
#X text 10 10 library:;
#X text 120 10 ceammc;
#X text 10 32 version:;
#X text 120 32 0.9.6;
#X text 10 54 object:;
#X text 120 54 math.or;
#X text 10 76 category:;
#X text 120 76 math;
#X text 10 98 since:;
#X text 120 98 0.2;
#X text 10 120 authors:;
#X text 120 120 Serge Poltavsky;
#X text 10 142 license:;
#X text 120 142 GPL3 or later;
#X text 10 164 keywords:;
#X text 120 164 math \, or \, logic;
#X text 10 186 website:;
#X obj 120 189 ui.link @title https://github.com/uliss/pure-data @url
https://github.com/uliss/pure-data;
#X obj 120 208 declare -lib ceammc;
#X obj 120 268 cnv 1 270 1 empty empty empty 17 7 0 10 -203890 -1 0;
#X text 120 268 generated by pddoc;
#X restore 10 802 pd info;
#X connect 6 0 7 0;
#X connect 8 0 9 0;
#X connect 10 0 11 0;
#X connect 7 0 12 0;
#X connect 9 0 12 1;
#X connect 11 0 12 2;
#X connect 12 0 13 0;
#X connect 13 0 14 0;