#N canvas 0 0 685 555 12;
#X obj 566 50 cnv 1 99 21 empty empty empty 17 7 0 10 -245760 -1 0;
#X text 566 50 sine function;
#X obj 1 1 cnv 5 682 40 empty empty math.sin 20 20 0 20 -104026 -4096
0;
#X obj 602 11 math.sin;
#X obj 225 80 cnv 1 440 116 empty empty empty 17 7 0 10 -257983 -1 0;
#X text 230 80 The sin() function computes the sine of input value
(measured in radians)\. ;
#X text 230 117 Special values:;
#X text 230 140 sin(+-0) returns +-0\.;
#X text 230 163 sin(+-infinity) returns a NaN\.;
#X floatatom 50 224 5 0 0 0 - - -;
#X msg 98 224 1 2 3;
#X obj 50 253 math.sin;
#X obj 50 282 prepend set;
#X msg 50 311 ;
#X obj 20 350 cnv 1 661 1 empty empty empty 17 7 0 10 -203890 -1 0;
#X obj 20 355 cnv 5 54 16 empty empty inlets: 0 14 0 14 -262144 -49933
0;
#X text 125 360 1\.;
#X text 150 360 *float*;
#X text 230 360 input value\. ;
#X text 150 378 *list*;
#X text 230 378 apply to all numeric values\. ;
#X obj 20 406 cnv 1 661 1 empty empty empty 17 7 0 10 -203890 -1 0;
#X obj 20 411 cnv 5 63 16 empty empty outlets: 0 14 0 14 -262144
-49933 0;
#X text 125 416 1\.;
#X text 230 416 result value;
#X obj 10 45 pddp/pddplink ../index-help.pd -text index;
#X text 51 45 ::;
#X obj 67 45 pddp/pddplink ceammc-help.pd -text ceammc;
#X text 115 45 ::;
#X obj 131 45 pddp/pddplink ceammc.math-help.pd -text math;
#X obj 1 505 cnv 5 682 48 empty empty empty 17 7 0 10 -203890 -1 0;
#X text 10 508 library: ceammc v0\.1;
#X text 375 520 see also:;
#X obj 445 520 math.acos;
#X obj 525 520 math.asin;
#X obj 605 520 math.atan;
#N canvas 10 527 400 250 info 0;
#X obj 1 1 cnv 1 107 247 empty empty empty 17 7 0 10 -183085 -1 0;
#X text 10 10 library:;
#X text 120 10 ceammc;
#X text 10 32 version:;
#X text 120 32 0\.1;
#X text 10 54 object:;
#X text 120 54 math\.sin;
#X text 10 76 category:;
#X text 120 76 math;
#X text 10 98 since:;
#X text 120 98 0\.1;
#X text 10 120 authors:;
#X text 120 120 Serge Poltavsky;
#X text 10 142 license:;
#X text 120 142 GPL3;
#X text 10 164 keywords:;
#X text 120 164 math \, sin;
#X text 10 186 website:;
#X obj 120 186 pddp/pddplink https://github.com/uliss/pure-data -text
https://github.com/uliss/pure-data;
#X obj 120 228 cnv 1 270 1 empty empty empty 17 7 0 10 -203890 -1 0;
#X text 120 228 generated by pddoc;
#X restore 10 527 pd info;
#X connect 10 0 11 0;
#X connect 9 0 11 0;
#X connect 11 0 12 0;
#X connect 12 0 13 0;