#N canvas 0 0 133 144 12;
#X floatatom 20 48 5 0 0 0 - - -;
#X msg 68 48 1 2 3;
#X obj 20 77 math.sin;
#X obj 20 106 prepend set;
#X msg 20 135 ;
#X connect 3 0 4 0;
#X connect 1 0 2 0;
#X connect 0 0 2 0;
#X connect 2 0 3 0;
