#N canvas 0 0 685 555 12;
#X obj 429 50 cnv 1 236 21 empty empty empty 17 7 0 10 -245760 -1 0;
#X text 429 50 inverse hyperbolic sine function;
#X obj 1 1 cnv 5 682 40 empty empty math.asinh 20 20 0 20 -104026
-4096 0;
#X obj 584 11 math.asinh;
#X obj 225 80 cnv 1 440 116 empty empty empty 17 7 0 10 -257983 -1 0;
#X text 230 80 The asinh() function computes the inverse hyperbolic
sine of the real argument;
#X text 230 117 Special values:;
#X text 230 140 asinh(+-0) returns +-0\.;
#X text 230 163 asinh(+-infinity) returns +-infinity\. ;
#X floatatom 50 224 5 0 0 0 - - -;
#X obj 50 253 math.asinh;
#X floatatom 50 282 5 0 0 0 - - -;
#X obj 20 321 cnv 1 661 1 empty empty empty 17 7 0 10 -203890 -1 0;
#X obj 20 326 cnv 5 54 16 empty empty inlets: 0 14 0 14 -262144 -49933
0;
#X text 125 331 1\.;
#X text 150 331 *float*;
#X text 230 331 input value\. ;
#X obj 20 359 cnv 1 661 1 empty empty empty 17 7 0 10 -203890 -1 0;
#X obj 20 364 cnv 5 63 16 empty empty outlets: 0 14 0 14 -262144
-49933 0;
#X text 125 369 1\.;
#X text 230 369 result value;
#X obj 10 48 ui.link @title index @url ../index-help.pd;
#X text 51 45 ::;
#X obj 67 48 ui.link @title ceammc @url ceammc-help.pd;
#X text 115 45 ::;
#X obj 131 48 ui.link @title math @url ceammc.math-help.pd;
#X obj 1 505 cnv 5 682 48 empty empty empty 17 7 0 10 -203890 -1 0;
#X text 10 508 library: ceammc v0\.1;
#X text 356 520 see also:;
#X obj 426 520 math.acosh;
#X obj 514 520 math.atanh;
#X obj 602 520 math.exp;
#N canvas 10 527 400 250 info 0;
#X obj 1 1 cnv 1 107 247 empty empty empty 17 7 0 10 -183085 -1 0;
#X text 10 10 library:;
#X text 120 10 ceammc;
#X text 10 32 version:;
#X text 120 32 0\.1;
#X text 10 54 object:;
#X text 120 54 math\.asinh;
#X text 10 76 category:;
#X text 120 76 math;
#X text 10 98 since:;
#X text 120 98 0\.1;
#X text 10 120 authors:;
#X text 120 120 Serge Poltavsky;
#X text 10 142 license:;
#X text 120 142 GPL3;
#X text 10 164 keywords:;
#X text 120 164 math \, asinh;
#X text 10 186 website:;
#X obj 120 189 ui.link @title https://github.com/uliss/pure-data @url
https://github.com/uliss/pure-data;
#X obj 120 228 cnv 1 270 1 empty empty empty 17 7 0 10 -203890 -1 0;
#X text 120 228 generated by pddoc;
#X restore 10 527 pd info;
#X connect 10 0 11 0;
#X connect 9 0 10 0;