#N canvas 0 0 715 555 12;
#X declare -lib ceammc;
#X obj 427 50 cnv 1 268 21 empty empty empty 17 7 0 10 -245760 -1 0;
#X text 427 50 multiplication of complex signals;
#X obj 1 1 cnv 5 712 40 empty empty math.cmul~ 20 20 0 20 -104026
-4096 0;
#X obj 551 11 cmul~;
#X obj 613 11 math.cmul~;
#X obj 205 80 cnv 1 490 47 empty empty empty 17 7 0 10 -257983 -1 0;
#X text 210 80 Calculates for signals (a + bi) * (c + di) = (ac - bd)
+ (ad + bc)i;
#X floatatom 50 155 5 0 0 0 - - -;
#X floatatom 117 155 5 0 0 0 - - -;
#X floatatom 184 155 5 0 0 0 - - -;
#X floatatom 251 155 5 0 0 0 - - -;
#X obj 50 184 sig~;
#X obj 117 184 sig~;
#X obj 184 184 sig~;
#X obj 251 184 sig~;
#X obj 50 242 math.cmul~;
#X obj 309 242 ui.dsp~;
#X obj 50 271 ui.n~;
#X obj 165 271 ui.n~;
#X obj 20 310 cnv 1 685 1 empty empty empty 17 7 0 10 -203890 -1 0;
#X obj 20 315 cnv 5 64 26 empty empty inlets: 4 10 0 14 -262144 -49933
0;
#X text 120 320 1\.;
#X text 240 320 real part of input signal1\.;
#X text 120 338 2\.;
#X text 240 338 imag part of input signal1\.;
#X text 120 356 3\.;
#X text 240 356 real part of input signal2\.;
#X text 120 374 4\.;
#X text 240 374 imag part of input signal2\.;
#X obj 20 402 cnv 1 685 1 empty empty empty 17 7 0 10 -203890 -1 0;
#X obj 20 407 cnv 5 73 26 empty empty outlets: 4 10 0 14 -262144
-49933 0;
#X text 120 412 1\.;
#X text 240 412 real part of result;
#X text 120 430 2\.;
#X text 240 430 imag part of result;
#X obj 10 48 ui.link @title index @url ../index-help.pd;
#X text 51 45 ::;
#X obj 67 48 ui.link @title ceammc @url ceammc-help.pd;
#X text 115 45 ::;
#X obj 131 48 ui.link @title math @url ceammc.math-help.pd;
#X obj 1 505 cnv 5 712 48 empty empty empty 17 7 0 10 -203890 -1 0;
#X text 10 508 library: ceammc v0.6;
#N canvas 10 527 400 290 info 0;
#X obj 1 1 cnv 1 107 287 empty empty empty 17 7 0 10 -183085 -1 0;
#X text 10 10 library:;
#X text 120 10 ceammc;
#X text 10 32 version:;
#X text 120 32 0.6;
#X text 10 54 object:;
#X text 120 54 math.cmul~;
#X text 10 76 category:;
#X text 120 76 math;
#X text 10 98 since:;
#X text 120 98 0.7;
#X text 10 120 authors:;
#X text 120 120 Serge Poltavsky;
#X text 10 142 license:;
#X text 120 142 GPL3;
#X text 10 164 keywords:;
#X text 120 164 math \, complex \, multiplication;
#X text 10 186 website:;
#X obj 120 189 ui.link @title https://github.com/uliss/pure-data @url
https://github.com/uliss/pure-data;
#X obj 120 208 declare -lib ceammc;
#X obj 120 268 cnv 1 270 1 empty empty empty 17 7 0 10 -203890 -1 0;
#X text 120 268 generated by pddoc;
#X restore 10 527 pd info;
#X connect 7 0 11 0;
#X connect 8 0 12 0;
#X connect 9 0 13 0;
#X connect 10 0 14 0;
#X connect 11 0 15 0;
#X connect 12 0 15 1;
#X connect 13 0 15 2;
#X connect 14 0 15 3;
#X connect 15 0 17 0;
#X connect 15 1 18 0;