#N canvas 0 0 785 555 12;
#X declare -lib ceammc;
#X obj 614 50 cnv 1 151 23 empty empty empty 17 7 0 10 -245760 -1 0;
#X text 614 50 sync multiplication;
#X obj 1 1 cnv 5 765 40 empty empty math.sync_mul 20 20 0 20 -104026
-4096 0;
#X obj 529 11 math.*';
#X obj 603 11 *';
#X obj 645 11 math.sync_mul;
#X floatatom 50 118 5 0 0 0 - - -;
#X floatatom 107 118 5 0 0 0 - - -;
#X text 165 118 same as:;
#X floatatom 290 118 5 0 0 0 - - -;
#X floatatom 338 118 5 0 0 0 - - -;
#X obj 338 147 t b f;
#X obj 50 176 *' 2;
#X obj 290 176 * 2;
#X floatatom 50 205 5 0 0 0 - - -;
#X floatatom 290 205 5 0 0 0 - - -;
#X msg 50 234 3.1415 5.1;
#X msg 174 234 -3.1415 5.9;
#X obj 50 277 *' @int;
#X floatatom 50 305 5 0 0 0 - - -;
#X obj 20 354 cnv 1 745 1 empty empty empty 17 7 0 10 -203890 -1 0;
#X obj 20 359 cnv 5 90 26 empty empty arguments: 4 10 0 14 -262144
-49933 0;
#X text 110 394 1\.;
#X text 150 394 float;
#X obj 246 395 cnv 1 32 20 empty empty empty 17 7 0 10 -245695 -1 0;
#X text 245 394 MUL: multiplicand.;
#X obj 20 424 cnv 1 745 1 empty empty empty 17 7 0 10 -203890 -1 0;
#X obj 20 429 cnv 5 98 26 empty empty properties: 4 10 0 14 -262144
-49933 0;
#X msg 110 464 @int;
#X text 245 464 operate on integers only. Default value: 0\.;
#X obj 20 503 cnv 1 745 1 empty empty empty 17 7 0 10 -203890 -1 0;
#X obj 20 508 cnv 5 64 26 empty empty inlets: 4 10 0 14 -262144 -49933
0;
#X text 110 509 1\.;
#X text 150 509 *float*;
#X text 245 509 set multiplier \, calculate and output result.;
#X text 150 529 *list*;
#X text 245 529 pair: set multipliers and multiplicand \, calculate
and output result.;
#X text 110 564 2\.;
#X text 150 564 *float*;
#X text 245 564 change multiplicand \, calculate and output result.;
#X obj 20 594 cnv 1 745 1 empty empty empty 17 7 0 10 -203890 -1 0;
#X obj 20 599 cnv 5 73 26 empty empty outlets: 4 10 0 14 -262144
-49933 0;
#X text 110 600 1\.;
#X text 245 600 multiplication result.;
#X obj 10 48 ui.link @title index @url ../index-help.pd;
#X text 51 45 ::;
#X obj 67 48 ui.link @title ceammc @url ceammc-help.pd;
#X text 115 45 ::;
#X obj 131 48 ui.link @title math @url ceammc.math-help.pd;
#X obj 1 650 cnv 5 765 48 empty empty empty 17 7 0 10 -203890 -1 0;
#X text 10 653 library: ceammc v0.9.1;
#N canvas 10 672 400 290 info 0;
#X obj 1 1 cnv 1 107 287 empty empty empty 17 7 0 10 -183085 -1 0;
#X text 10 10 library:;
#X text 120 10 ceammc;
#X text 10 32 version:;
#X text 120 32 0.9.1;
#X text 10 54 object:;
#X text 120 54 math.sync_mul;
#X text 10 76 category:;
#X text 120 76 math;
#X text 10 98 since:;
#X text 120 98 0.8;
#X text 10 120 authors:;
#X text 120 120 Serge Poltavsky;
#X text 10 142 license:;
#X text 120 142 GPL3 or later;
#X text 10 164 keywords:;
#X text 120 164 math \, mul \, sync;
#X text 10 186 website:;
#X obj 120 189 ui.link @title https://github.com/uliss/pure-data @url
https://github.com/uliss/pure-data;
#X obj 120 208 declare -lib ceammc;
#X obj 120 268 cnv 1 270 1 empty empty empty 17 7 0 10 -203890 -1 0;
#X text 120 268 generated by pddoc;
#X restore 10 672 pd info;
#X connect 10 0 11 0;
#X connect 6 0 12 0;
#X connect 7 0 12 1;
#X connect 9 0 13 0;
#X connect 11 0 13 0;
#X connect 11 1 13 1;
#X connect 12 0 14 0;
#X connect 13 0 15 0;
#X connect 16 0 18 0;
#X connect 17 0 18 0;
#X connect 18 0 19 0;