#N canvas 0 0 685 555 12;
#X obj 465 50 cnv 1 200 21 empty empty empty 17 7 0 10 -245760 -1 0;
#X text 465 50 hyperbolic tangent function;
#X obj 1 1 cnv 5 682 40 empty empty math.tanh 20 20 0 20 -104026 -4096
0;
#X obj 592 11 math.tanh;
#X obj 225 80 cnv 1 440 102 empty empty empty 17 7 0 10 -257983 -1 0;
#X text 230 80 The tanh() function computes the hyperbolic tangent of
x\. ;
#X text 230 103 Special values:;
#X text 230 126 tanh(+-0) returns +-0\.;
#X text 230 149 tanh(+-infinity) returns +-1\. ;
#X floatatom 50 210 5 0 0 0 - - -;
#X obj 50 239 math.tanh;
#X floatatom 50 268 5 0 0 0 - - -;
#X obj 20 307 cnv 1 661 1 empty empty empty 17 7 0 10 -203890 -1 0;
#X obj 20 312 cnv 5 54 16 empty empty inlets: 0 14 0 14 -262144 -49933
0;
#X text 125 317 1\.;
#X text 150 317 *float*;
#X text 230 317 input value\. ;
#X text 150 335 *list*;
#X text 230 335 apply to all numeric values\. ;
#X obj 20 363 cnv 1 661 1 empty empty empty 17 7 0 10 -203890 -1 0;
#X obj 20 368 cnv 5 63 16 empty empty outlets: 0 14 0 14 -262144
-49933 0;
#X text 125 373 1\.;
#X text 230 373 result value;
#X obj 10 48 ui.link @title index @link ../index-help.pd @size 100 25;
#X text 51 45 ::;
#X obj 67 48 ui.link @title ceammc @link ceammc-help.pd @size 100 25;
#X text 115 45 ::;
#X obj 131 48 ui.link @title math @link ceammc.math-help.pd @size 100
25;
#X obj 1 505 cnv 5 682 48 empty empty empty 17 7 0 10 -203890 -1 0;
#X text 10 508 library: ceammc v0\.1;
#X text 365 520 see also:;
#X obj 435 520 math.acos;
#X obj 515 520 math.asin;
#X obj 595 520 math.atan;
#N canvas 10 527 400 250 info 0;
#X obj 1 1 cnv 1 107 247 empty empty empty 17 7 0 10 -183085 -1 0;
#X text 10 10 library:;
#X text 120 10 ceammc;
#X text 10 32 version:;
#X text 120 32 0\.1;
#X text 10 54 object:;
#X text 120 54 math\.tanh;
#X text 10 76 category:;
#X text 120 76 math;
#X text 10 98 since:;
#X text 120 98 0\.1;
#X text 10 120 authors:;
#X text 120 120 Serge Poltavsky;
#X text 10 142 license:;
#X text 120 142 GPL3;
#X text 10 164 keywords:;
#X text 120 164 math \, tanh;
#X text 10 186 website:;
#X obj 120 189 ui.link @title https://github.com/uliss/pure-data @link
https://github.com/uliss/pure-data @size 100 25;
#X obj 120 228 cnv 1 270 1 empty empty empty 17 7 0 10 -203890 -1 0;
#X text 120 228 generated by pddoc;
#X restore 10 527 pd info;
#X connect 10 0 11 0;
#X connect 9 0 10 0;