#N canvas 0 0 785 555 12;
#X declare -lib ceammc;
#X obj 307 50 cnv 1 458 23 empty empty empty 17 7 0 10 -245760 -1 0;
#X text 307 50 evaluates the polynomial described by the coefficients
list;
#X obj 1 1 cnv 5 765 40 empty empty math.polyeval 20 20 0 20 -104026
-4096 0;
#X obj 645 11 math.polyeval;
#X floatatom 50 118 5 0 0 0 - - -;
#X msg 107 118 14 28;
#X msg 194 147 @coeffs?;
#X obj 50 176 math.polyeval 2 4 5 6;
#X text 280 176 calc: y=2*x^3 + 4*x^2 + 5*x + 6;
#X obj 50 205 ui.display;
#X obj 20 255 cnv 1 745 1 empty empty empty 17 7 0 10 -203890 -1 0;
#X obj 20 260 cnv 5 90 25 empty empty arguments: 4 12 0 14 -262144
-49933 0;
#X obj 735 263 ui.link @background_color 0.98039 0.98039 0.98039
@title [?] @url ceammc.args-info.pd;
#X text 110 295 1\.;
#X text 150 295 list;
#X obj 246 296 cnv 1 55 20 empty empty empty 17 7 0 10 -245695 -1 0;
#X text 245 295 COEFFS: coefficient list. Type: list.;
#X obj 20 325 cnv 1 745 1 empty empty empty 17 7 0 10 -203890 -1 0;
#X obj 20 330 cnv 5 98 25 empty empty properties: 4 12 0 14 -262144
-49933 0;
#X obj 735 333 ui.link @background_color 0.98039 0.98039 0.98039
@title [?] @url ceammc.props-info.pd;
#X msg 110 365 @coeffs;
#X text 245 365 Get/Set coefficient list. Type: list.;
#X obj 20 405 cnv 1 745 1 empty empty empty 17 7 0 10 -203890 -1 0;
#X obj 20 410 cnv 5 64 25 empty empty inlets: 4 12 0 14 -262144 -49933
0;
#X text 110 411 1\.;
#X text 150 411 *float*;
#X text 245 411 evalute polynomial.;
#X text 150 431 *list*;
#X text 245 431 evalute each value in list.;
#X text 110 451 2\.;
#X text 150 451 *list*;
#X text 245 451 sets polynomial coefficients.;
#X obj 20 481 cnv 1 745 1 empty empty empty 17 7 0 10 -203890 -1 0;
#X obj 20 486 cnv 5 73 25 empty empty outlets: 4 12 0 14 -262144
-49933 0;
#X text 110 487 1\.;
#X text 245 487 calculated value.;
#X obj 10 48 ui.link @title index @url ../index-help.pd;
#X text 51 45 ::;
#X obj 68 48 ui.link @title ceammc @url ceammc-help.pd;
#X text 116 45 ::;
#X obj 133 48 ui.link @title math @url ceammc.math-help.pd;
#X obj 1 537 cnv 5 765 48 empty empty empty 17 7 0 10 -203890 -1 0;
#X text 10 540 library: ceammc v0.9.7;
#N canvas 10 559 400 290 info 0;
#X obj 1 1 cnv 1 107 287 empty empty empty 17 7 0 10 -183085 -1 0;
#X text 10 10 library:;
#X text 120 10 ceammc;
#X text 10 32 version:;
#X text 120 32 0.9.7;
#X text 10 54 object:;
#X text 120 54 math.polyeval;
#X text 10 76 category:;
#X text 120 76 math;
#X text 10 98 since:;
#X text 120 98 0.6;
#X text 10 120 authors:;
#X text 120 120 Serge Poltavsky;
#X text 10 142 license:;
#X text 120 142 GPL3 or later;
#X text 10 164 keywords:;
#X text 120 164 math \, polynomial;
#X text 10 186 website:;
#X obj 120 189 ui.link @title https://github.com/uliss/pd-ceammc @url
https://github.com/uliss/pd-ceammc;
#X obj 120 208 declare -lib ceammc;
#X obj 120 268 cnv 1 270 1 empty empty empty 17 7 0 10 -203890 -1 0;
#X text 120 268 generated by pddoc;
#X restore 10 559 pd info;
#X connect 4 0 7 0;
#X connect 5 0 7 0;
#X connect 6 0 7 0;
#X connect 7 0 9 0;