#N canvas 0 0 785 555 12;
#X declare -lib ceammc;
#X obj 553 50 cnv 1 212 23 empty empty empty 17 7 0 10 -245760 -1 0;
#X text 553 50 division of complex signals;
#X obj 1 1 cnv 5 765 40 empty empty math.cdiv~ 20 20 0 20 -104026
-4096 0;
#X obj 492 11 ceammc/cdiv~;
#X obj 604 11 cdiv~;
#X obj 666 11 math.cdiv~;
#X obj 210 80 cnv 1 555 75 empty empty empty 17 7 0 10 -257983 -1 0;
#X text 215 80 Calculates for signals (a + bi) / (c + di) = (ac + bd)
/ (c^2 + d^2) + ((bc - ad) / (c^2 + d^2))i;
#X text 215 120 If c + di = 0 \, outputs 0 \, as [/~] does;
#X floatatom 50 183 5 0 0 0 - - -;
#X floatatom 117 183 5 0 0 0 - - -;
#X floatatom 184 183 5 0 0 0 - - -;
#X floatatom 251 183 5 0 0 0 - - -;
#X obj 50 212 sig~;
#X obj 117 212 sig~;
#X obj 184 212 sig~;
#X obj 251 212 sig~;
#X obj 50 270 math.cdiv~;
#X obj 309 270 ui.dsp~;
#X obj 50 299 ui.n~;
#X obj 165 299 ui.n~;
#X obj 20 348 cnv 1 745 1 empty empty empty 17 7 0 10 -203890 -1 0;
#X obj 20 353 cnv 5 64 26 empty empty inlets: 4 10 0 14 -262144 -49933
0;
#X text 110 354 1\.;
#X text 245 354 real part of input signal1\.;
#X text 110 374 2\.;
#X text 245 374 imag part of input signal1\.;
#X text 110 394 3\.;
#X text 245 394 real part of input signal2\.;
#X text 110 414 4\.;
#X text 245 414 imag part of input signal2\.;
#X obj 20 444 cnv 1 745 1 empty empty empty 17 7 0 10 -203890 -1 0;
#X obj 20 449 cnv 5 73 26 empty empty outlets: 4 10 0 14 -262144
-49933 0;
#X text 110 450 1\.;
#X text 245 450 real part of result.;
#X text 110 470 2\.;
#X text 245 470 imag part of result.;
#X obj 10 48 ui.link @title index @url ../index-help.pd;
#X text 51 45 ::;
#X obj 67 48 ui.link @title ceammc @url ceammc-help.pd;
#X text 115 45 ::;
#X obj 131 48 ui.link @title math @url ceammc.math-help.pd;
#X obj 1 520 cnv 5 765 48 empty empty empty 17 7 0 10 -203890 -1 0;
#X text 10 523 library: ceammc v0.9.4;
#X text 592 535 see also:;
#X obj 666 535 math.cmul~;
#N canvas 10 542 400 290 info 0;
#X obj 1 1 cnv 1 107 287 empty empty empty 17 7 0 10 -183085 -1 0;
#X text 10 10 library:;
#X text 120 10 ceammc;
#X text 10 32 version:;
#X text 120 32 0.9.4;
#X text 10 54 object:;
#X text 120 54 math.cdiv~;
#X text 10 76 category:;
#X text 120 76 math;
#X text 10 98 since:;
#X text 120 98 0.7;
#X text 10 120 authors:;
#X text 120 120 Serge Poltavsky;
#X text 10 142 license:;
#X text 120 142 GPL3 or later;
#X text 10 164 keywords:;
#X text 120 164 math \, complex \, division;
#X text 10 186 website:;
#X obj 120 189 ui.link @title https://github.com/uliss/pure-data @url
https://github.com/uliss/pure-data;
#X obj 120 208 declare -lib ceammc;
#X obj 120 268 cnv 1 270 1 empty empty empty 17 7 0 10 -203890 -1 0;
#X text 120 268 generated by pddoc;
#X restore 10 542 pd info;
#X connect 9 0 13 0;
#X connect 10 0 14 0;
#X connect 11 0 15 0;
#X connect 12 0 16 0;
#X connect 13 0 17 0;
#X connect 14 0 17 1;
#X connect 15 0 17 2;
#X connect 16 0 17 3;
#X connect 17 0 19 0;
#X connect 17 1 20 0;