#N canvas 0 0 785 555 12;
#X declare -lib ceammc;
#X obj 407 50 cnv 1 358 23 empty empty empty 17 7 0 10 -245760 -1 0;
#X text 407 50 metro with weighted random choice from timeset;
#X obj 1 1 cnv 5 765 40 empty empty metro.wchoice 20 20 0 20 -104026
-4096 0;
#X obj 645 11 metro.wchoice;
#X obj 50 118 tgl 15 0 empty empty empty 17 7 0 10 -262144 -1 -1 0 1;
#X listbox 155 118 20 0 0 0 - - -;
#X listbox 318 118 20 0 0 0 - - -;
#X obj 50 147 metro.wchoice 100 20% 200 80%;
#X obj 50 176 click~;
#X obj 50 205 flt.resonbp~ 1000 40;
#X obj 270 205 ui.dsp~;
#X obj 50 234 ui.hgain~;
#X obj 50 262 dac~;
#X obj 20 311 cnv 1 745 1 empty empty empty 17 7 0 10 -203890 -1 0;
#X obj 20 316 cnv 5 90 26 empty empty arguments: 4 10 0 14 -262144
-49933 0;
#X text 110 351 1\.;
#X text 150 351 list;
#X obj 246 352 cnv 1 38 20 empty empty empty 17 7 0 10 -245695 -1 0;
#X text 245 351 INIT: TIME and WEIGHT list in format: T0 W1\... Weight
values can be floats or percent. Type: list.;
#X obj 20 396 cnv 1 745 1 empty empty empty 17 7 0 10 -203890 -1 0;
#X obj 20 401 cnv 5 98 26 empty empty properties: 4 10 0 14 -262144
-49933 0;
#X msg 110 436 @init;
#X text 245 436 (initonly) Get/Set intermixed list of time and weights
values. Type: list.;
#X msg 110 478 @seed;
#X text 245 478 Get/Set generator seed. Type: int. Default value: 0\.
Min value: 0\.;
#X msg 110 520 @t;
#X text 245 520 Get/Set timeset (>0). Type: list. Units: 'ms'.;
#X msg 110 549 @w;
#X text 245 549 Get/Set weight list \, float or percent values. Type:
list.;
#X msg 110 578 @calc_w?;
#X text 245 578 (readonly) Get normalized list of probabilities. Type:
list. Default value: 1\.;
#X obj 20 630 cnv 1 745 1 empty empty empty 17 7 0 10 -203890 -1 0;
#X obj 20 635 cnv 5 64 26 empty empty inlets: 4 10 0 14 -262144 -49933
0;
#X text 110 636 1\.;
#X text 150 636 *float*;
#X text 245 636 starts (on >0) or stops (on <=0) metro.;
#X text 110 656 2\.;
#X text 150 656 *list*;
#X text 245 656 set timeset.;
#X text 110 676 3\.;
#X text 150 676 *list*;
#X text 245 676 set weights.;
#X obj 20 706 cnv 1 745 1 empty empty empty 17 7 0 10 -203890 -1 0;
#X obj 20 711 cnv 5 73 26 empty empty outlets: 4 10 0 14 -262144
-49933 0;
#X text 110 712 1\.;
#X text 245 712 outputs *bang*.;
#X obj 10 48 ui.link @title index @url ../index-help.pd;
#X text 51 45 ::;
#X obj 67 48 ui.link @title ceammc @url ceammc-help.pd;
#X text 115 45 ::;
#X obj 131 48 ui.link @title base @url ceammc.base-help.pd;
#X obj 1 762 cnv 5 765 48 empty empty empty 17 7 0 10 -203890 -1 0;
#X text 10 765 library: ceammc v0.9.7;
#X text 477 777 see also:;
#X obj 551 777 metro.choice;
#X obj 653 777 metro.random;
#N canvas 10 784 400 290 info 0;
#X obj 1 1 cnv 1 107 287 empty empty empty 17 7 0 10 -183085 -1 0;
#X text 10 10 library:;
#X text 120 10 ceammc;
#X text 10 32 version:;
#X text 120 32 0.9.7;
#X text 10 54 object:;
#X text 120 54 metro.wchoice;
#X text 10 76 category:;
#X text 120 76 base;
#X text 10 98 since:;
#X text 120 98 0.9.7;
#X text 10 120 authors:;
#X text 120 120 Serge Poltavsky;
#X text 10 142 license:;
#X text 120 142 GPL3 or later;
#X text 10 164 keywords:;
#X text 120 164 metro \, random \, weight;
#X text 10 186 website:;
#X obj 120 189 ui.link @title https://github.com/uliss/pure-data @url
https://github.com/uliss/pure-data;
#X obj 120 208 declare -lib ceammc;
#X obj 120 268 cnv 1 270 1 empty empty empty 17 7 0 10 -203890 -1 0;
#X text 120 268 generated by pddoc;
#X restore 10 784 pd info;
#X connect 4 0 7 0;
#X connect 5 0 7 1;
#X connect 6 0 7 2;
#X connect 7 0 8 0;
#X connect 8 0 9 0;
#X connect 9 0 11 0;
#X connect 11 0 12 0;
#X connect 11 0 12 1;