#N canvas 0 0 785 555 12;
#X declare -lib ceammc;
#X obj 468 50 cnv 1 297 23 empty empty empty 17 7 0 10 -245760 -1 0;
#X text 468 50 metro random bang with specified range;
#X obj 1 1 cnv 5 765 40 empty empty metro.random 20 20 0 20 -104026
-4096 0;
#X obj 653 11 metro.random;
#X obj 210 80 cnv 1 555 35 empty empty empty 17 7 0 10 -257983 -1 0;
#X text 215 80 Random distribution: uniform;
#X obj 50 143 tgl 15 0 empty empty empty 17 7 0 10 -262144 -1 -1 0 1;
#X obj 98 143 ui.rsl @min 50 @max 1000;
#X obj 50 201 metro.random 100 140;
#X obj 50 230 click~;
#X obj 50 259 flt.resonbp~ 1000 20;
#X obj 270 259 ui.dsp~;
#X obj 50 287 ui.hgain~;
#X obj 50 316 dac~;
#X obj 20 365 cnv 1 745 1 empty empty empty 17 7 0 10 -203890 -1 0;
#X obj 20 370 cnv 5 90 26 empty empty arguments: 4 10 0 14 -262144
-49933 0;
#X text 110 405 1\.;
#X text 150 405 int;
#X obj 246 406 cnv 1 62 20 empty empty empty 17 7 0 10 -245695 -1 0;
#X text 245 405 MIN(ms): minimal bang interval. Type: int. Min value:
1;
#X text 110 425 2\.;
#X text 150 425 int;
#X obj 246 426 cnv 1 62 20 empty empty empty 17 7 0 10 -245695 -1 0;
#X text 245 425 MAX(ms): maximum bang interval. Type: int. Min value:
1;
#X obj 20 455 cnv 1 745 1 empty empty empty 17 7 0 10 -203890 -1 0;
#X obj 20 460 cnv 5 98 26 empty empty properties: 4 10 0 14 -262144
-49933 0;
#X msg 110 495 @max;
#X text 245 495 Get/Set maximum bang interval. Type: int. Units: ms.
Default value: 200\. Min value: 1\.;
#X msg 110 537 @min;
#X text 245 537 Get/Set minimal bang interval. Type: int. Units: ms.
Default value: 100\. Min value: 1\.;
#X msg 110 579 @seed;
#X text 245 579 Get/Set generator seed. Type: int. Default value: 0\.
Min value: 0\.;
#X obj 20 631 cnv 1 745 1 empty empty empty 17 7 0 10 -203890 -1 0;
#X obj 20 636 cnv 5 64 26 empty empty inlets: 4 10 0 14 -262144 -49933
0;
#X text 110 637 1\.;
#X text 150 637 *float*;
#X text 245 637 starts (on > 0) or stops (on <= 0) metro.;
#X text 110 657 2\.;
#X text 150 657 *float*;
#X text 245 657 set @min property.;
#X text 150 677 *list*;
#X text 245 677 set random range. min max pair expected.;
#X text 110 697 3\.;
#X text 150 697 *float*;
#X text 245 697 set @max property.;
#X obj 20 727 cnv 1 745 1 empty empty empty 17 7 0 10 -203890 -1 0;
#X obj 20 732 cnv 5 73 26 empty empty outlets: 4 10 0 14 -262144
-49933 0;
#X text 110 733 1\.;
#X text 245 733 outputs *bang*.;
#X obj 10 48 ui.link @title index @url ../index-help.pd;
#X text 51 45 ::;
#X obj 67 48 ui.link @title ceammc @url ceammc-help.pd;
#X text 115 45 ::;
#X obj 131 48 ui.link @title base @url ceammc.base-help.pd;
#X obj 1 783 cnv 5 765 48 empty empty empty 17 7 0 10 -203890 -1 0;
#X text 10 786 library: ceammc v0.9.6;
#X text 520 798 see also:;
#X obj 594 798 metro;
#X obj 646 798 metro.pattern;
#N canvas 10 805 400 290 info 0;
#X obj 1 1 cnv 1 107 287 empty empty empty 17 7 0 10 -183085 -1 0;
#X text 10 10 library:;
#X text 120 10 ceammc;
#X text 10 32 version:;
#X text 120 32 0.9.6;
#X text 10 54 object:;
#X text 120 54 metro.random;
#X text 10 76 category:;
#X text 120 76 base;
#X text 10 98 since:;
#X text 120 98 0.9;
#X text 10 120 authors:;
#X text 120 120 Serge Poltavsky;
#X text 10 142 license:;
#X text 120 142 GPL3 or later;
#X text 10 164 keywords:;
#X text 120 164 metro \, random;
#X text 10 186 website:;
#X obj 120 189 ui.link @title https://github.com/uliss/pure-data @url
https://github.com/uliss/pure-data;
#X obj 120 208 declare -lib ceammc;
#X obj 120 268 cnv 1 270 1 empty empty empty 17 7 0 10 -203890 -1 0;
#X text 120 268 generated by pddoc;
#X restore 10 805 pd info;
#X connect 6 0 8 0;
#X connect 7 0 8 1;
#X connect 8 0 9 0;
#X connect 9 0 10 0;
#X connect 10 0 12 0;
#X connect 12 0 13 0;
#X connect 12 0 13 1;