#N canvas 0 0 785 555 12;
#X declare -lib ceammc;
#X obj 598 50 cnv 1 167 23 empty empty empty 17 7 0 10 -245760 -1 0;
#X text 598 50 midi octave transpose;
#X obj 1 1 cnv 5 765 40 empty empty midi.oct 20 20 0 20 -104026 -4096
0;
#X obj 682 11 midi.oct;
#X obj 50 118 tgl 15 0 empty empty empty 17 7 0 10 -262144 -1 -1 0 1;
#X obj 50 147 metro 350;
#X obj 165 147 ui.tab transpose set;
#X msg 386 147 -2 2;
#X msg 453 147 3 8;
#X msg 510 147 0 0;
#X msg 50 176 60 80 300;
#X msg 165 176 @mode \$2;
#X msg 386 176 @random \$1 \$2;
#X floatatom 405 205 5 0 0 0 - - -;
#X obj 50 234 midi.oct 3, f 40;
#X obj 78 262 ui.dt;
#X obj 50 291 makenote;
#X obj 50 320 midiout;
#X obj 20 370 cnv 1 745 1 empty empty empty 17 7 0 10 -203890 -1 0;
#X obj 20 375 cnv 5 90 25 empty empty arguments: 4 10 0 14 -262144
-49933 0;
#X text 110 410 1\.;
#X text 150 410 int;
#X obj 246 411 cnv 1 32 20 empty empty empty 17 7 0 10 -245695 -1 0;
#X text 245 410 OCT: octave transposition. Type: int. Range: -11\...11;
#X obj 20 440 cnv 1 745 1 empty empty empty 17 7 0 10 -203890 -1 0;
#X obj 20 445 cnv 5 98 25 empty empty properties: 4 10 0 14 -262144
-49933 0;
#X msg 110 480 @mode;
#X text 245 480 Get/Set octave mode. Type: symbol. Default value: transpose.
Allowed values: transpose \, set.;
#X msg 110 522 @oct;
#X text 245 522 Get/Set octave transposition. Type: int. Default value:
0\. Range: -11\...11\.;
#X msg 110 564 @random;
#X text 245 564 Get/Set random octave range. Arguments are: MIN MAX.
Type: list.;
#X msg 110 606 @set;
#X text 245 606 alias to @mode set.;
#X msg 110 636 @transpose;
#X text 245 636 alias to @mode transpose.;
#X obj 20 676 cnv 1 745 1 empty empty empty 17 7 0 10 -203890 -1 0;
#X obj 20 681 cnv 5 64 25 empty empty inlets: 4 10 0 14 -262144 -49933
0;
#X text 110 682 1\.;
#X text 150 682 *float*;
#X text 245 682 note value.;
#X text 150 702 *list*;
#X text 245 702 NOTE VELOCITY [DUR] list.;
#X text 110 722 2\.;
#X text 150 722 *float*;
#X text 245 722 set @oct value.;
#X obj 20 752 cnv 1 745 1 empty empty empty 17 7 0 10 -203890 -1 0;
#X obj 20 757 cnv 5 73 25 empty empty outlets: 4 10 0 14 -262144
-49933 0;
#X text 110 758 1\.;
#X text 245 758 transposed NOTE VELOCITY [DUR] list.;
#X obj 10 48 ui.link @title index @url ../index-help.pd;
#X text 51 45 ::;
#X obj 68 48 ui.link @title ceammc @url ceammc-help.pd;
#X text 116 45 ::;
#X obj 133 48 ui.link @title midi @url ceammc.midi-help.pd;
#X obj 1 808 cnv 5 765 48 empty empty empty 17 7 0 10 -203890 -1 0;
#X text 10 811 library: ceammc v0.9.7;
#N canvas 10 830 400 290 info 0;
#X obj 1 1 cnv 1 107 287 empty empty empty 17 7 0 10 -183085 -1 0;
#X text 10 10 library:;
#X text 120 10 ceammc;
#X text 10 32 version:;
#X text 120 32 0.9.7;
#X text 10 54 object:;
#X text 120 54 midi.oct;
#X text 10 76 category:;
#X text 120 76 midi;
#X text 10 98 since:;
#X text 120 98 0.9.2;
#X text 10 120 authors:;
#X text 120 120 Serge Poltavsky;
#X text 10 142 license:;
#X text 120 142 GPL3 or later;
#X text 10 164 keywords:;
#X text 120 164 midi \, octave \, transpose;
#X text 10 186 website:;
#X obj 120 189 ui.link @title https://github.com/uliss/pd-ceammc @url
https://github.com/uliss/pd-ceammc;
#X obj 120 208 declare -lib ceammc;
#X obj 120 268 cnv 1 270 1 empty empty empty 17 7 0 10 -203890 -1 0;
#X text 120 268 generated by pddoc;
#X restore 10 830 pd info;
#X connect 4 0 5 0;
#X connect 5 0 10 0;
#X connect 6 0 11 0;
#X connect 7 0 12 0;
#X connect 8 0 12 0;
#X connect 9 0 12 0;
#X connect 10 0 14 0;
#X connect 11 0 14 0;
#X connect 12 0 14 0;
#X connect 13 0 14 1;
#X connect 14 0 15 0;
#X connect 14 0 16 0;
#X connect 16 0 17 0;
#X connect 16 1 17 1;