#N canvas 0 0 785 555 12;
#X declare -lib ceammc;
#X obj 469 50 cnv 1 296 23 empty empty empty 17 7 0 10 -245760 -1 0;
#X text 469 50 snap/skip midi pitches according modus;
#X obj 1 1 cnv 5 765 40 empty empty midi.modus 20 20 0 20 -104026
-4096 0;
#X obj 668 11 midi.modus;
#X obj 50 118 ui.keyboard;
#X obj 50 205 midi.modus @scale minor_pentatonic;
#X obj 50 234 msg note 1;
#X obj 50 262 fluid~ sf2/waves.sf2;
#X obj 50 291 ui.hgain2~;
#X obj 280 291 ui.dsp~;
#X obj 50 320 dac~;
#X obj 20 369 cnv 1 745 1 empty empty empty 17 7 0 10 -203890 -1 0;
#X obj 20 374 cnv 5 90 26 empty empty arguments: 4 10 0 14 -262144
-49933 0;
#X text 110 409 1\.;
#X text 150 409 atom;
#X obj 246 410 cnv 1 39 20 empty empty empty 17 7 0 10 -245695 -1 0;
#X text 245 409 ROOT: root key. Type: atom.;
#X text 110 429 2\.;
#X text 150 429 symbol;
#X obj 246 430 cnv 1 47 20 empty empty empty 17 7 0 10 -245695 -1 0;
#X text 245 429 SCALE: modus scale. Type: symbol.;
#X obj 20 459 cnv 1 745 1 empty empty empty 17 7 0 10 -203890 -1 0;
#X obj 20 464 cnv 5 98 26 empty empty properties: 4 10 0 14 -262144
-49933 0;
#X msg 110 499 @mode;
#X text 245 499 Get/Set snap or skip incoming pitches. Type: symbol.
Default value: snap. Allowed values: snap \, skip.;
#X msg 110 541 @root;
#X text 245 541 Get/Set root key. Type: atom. Default value: C. Allowed
values: Cbb \, Cb \, C \, C# \, C## \, Dbb \, Db \, D \, D# \, D##
\, Ebb \, Eb \, E \, E# \, E## \, Fbb \, Fb \, F \, F# \, F## \, Gbb
\, Gb \, G \, G# \, G## \, Abb \, Ab \, A \, A# \, A## \, Bbb \, Bb
\, B \, B# \, B##.;
#X msg 110 613 @scale;
#X text 245 613 Get/Set modus scale. Type: symbol. Default value: chromatic.
Allowed values: ahirbhairav \, indian \, kurd \, diminished2 \, partch_u6
\, gong \, partch_o4 \, rast_desc \, nairuz \, hirajoshi \, hex_major6
\, farahfaza \, minor \, pelog \, partch_o3 \, partch_u1 \, partch_u3
\, yakah \, kumoi \, nikriz \, yakah_desc \, lydian \, whole \, ritusen
\, jiharkah \, major_melodic \, augmented2 \, locrian \, mustar \,
mixolydian \, nahawand \, partch_o1 \, ionian \, partch_u5 \, hex_dorian
\, nawa_athar \, hex_aeolian \, minor_harmonic \, minor_melodic \,
yu \, minor_melodic_desc \, minor_lydian \, zhi \, dorian \, sikah_desc
\, marva \, hijaz \, partch_o6 \, major_pentatonic \, partch_u4 \,
diminished \, shang \, partch_o5 \, whole_leading \, iraq \, major_harmonic
\, bartok \, zamzam \, super_locrian \, chromatic24 \, ajam \, prometheus
\, atharKurd \, chinese \, mahur \, augmented \, jiao \, egyptian \,
suznak \, hijaz_kar \, saba \, kijaz_kar_kurd \, husseini \, huzam
\, major_neapolitan \, shawq_afza \, hex_phrygian \, minor_pentatonic
\, bastanikar \, hex_sus \, bayati \, minor_romanian \, major_locrian
\, rast \, scriabin \, major \, murassah \, ushaq_mashri \, partch_u2
\, sikah \, partch_o2 \, nahawand_desc \, minor_hungarian \, iwato
\, chromatic \, aeolian \, enigmatic \, hindu \, phrygian \, zanjaran
\, karjighar \, spanish \, purvi \, minor_neapolitan \, bhairav \,
hijaz_desc \, todi \, hex_major7\.;
#X obj 20 966 cnv 1 745 1 empty empty empty 17 7 0 10 -203890 -1 0;
#X obj 20 971 cnv 5 64 26 empty empty inlets: 4 10 0 14 -262144 -49933
0;
#X text 110 972 1\.;
#X text 150 972 *float*;
#X text 245 972 note value.;
#X text 150 992 *list*;
#X text 245 992 NOTE VELOCITY [DUR] list.;
#X obj 20 1022 cnv 1 745 1 empty empty empty 17 7 0 10 -203890 -1 0;
#X obj 20 1027 cnv 5 73 26 empty empty outlets: 4 10 0 14 -262144
-49933 0;
#X text 110 1028 1\.;
#X text 245 1028 accepted note or NOTE VELOCITY [DUR] list.;
#X text 110 1048 2\.;
#X text 245 1048 discarded message.;
#X obj 10 48 ui.link @title index @url ../index-help.pd;
#X text 51 45 ::;
#X obj 67 48 ui.link @title ceammc @url ceammc-help.pd;
#X text 115 45 ::;
#X obj 131 48 ui.link @title midi @url ceammc.midi-help.pd;
#X obj 1 1098 cnv 5 765 48 empty empty empty 17 7 0 10 -203890 -1 0;
#X text 10 1101 library: ceammc v0.9.7;
#N canvas 10 1120 400 290 info 0;
#X obj 1 1 cnv 1 107 287 empty empty empty 17 7 0 10 -183085 -1 0;
#X text 10 10 library:;
#X text 120 10 ceammc;
#X text 10 32 version:;
#X text 120 32 0.9.7;
#X text 10 54 object:;
#X text 120 54 midi.modus;
#X text 10 76 category:;
#X text 120 76 midi;
#X text 10 98 since:;
#X text 120 98 0.9.5;
#X text 10 120 authors:;
#X text 120 120 Serge Poltavsky;
#X text 10 142 license:;
#X text 120 142 GPL3 or later;
#X text 10 164 keywords:;
#X text 120 164 midi \, modus \, tonality \, pitch;
#X text 10 186 website:;
#X obj 120 189 ui.link @title https://github.com/uliss/pure-data @url
https://github.com/uliss/pure-data;
#X obj 120 208 declare -lib ceammc;
#X obj 120 268 cnv 1 270 1 empty empty empty 17 7 0 10 -203890 -1 0;
#X text 120 268 generated by pddoc;
#X restore 10 1120 pd info;
#X connect 4 0 5 0;
#X connect 5 0 6 0;
#X connect 6 0 7 0;
#X connect 7 0 8 0;
#X connect 7 1 8 1;
#X connect 8 0 10 0;
#X connect 8 1 10 1;