#N canvas 0 0 785 555 12;
#X declare -lib ceammc;
#X obj 507 50 cnv 1 258 23 empty empty empty 17 7 0 10 -245760 -1 0;
#X text 507 50 enhanced version of vanilla ctlin;
#X obj 1 1 cnv 5 765 40 empty empty midi.cc 20 20 0 20 -104026 -4096
0;
#X obj 689 11 midi.cc;
#X floatatom 50 118 5 0 0 0 - - -;
#X floatatom 136 118 5 0 0 0 - - -;
#X msg 50 147 @cc \$1;
#X msg 136 147 @curve \$1;
#X obj 50 176 midi.cc 10 @min 0 @max 1 @curve -2;
#X obj 50 205 ui.hsl;
#X obj 20 254 cnv 1 745 1 empty empty empty 17 7 0 10 -203890 -1 0;
#X obj 20 259 cnv 5 90 26 empty empty arguments: 4 10 0 14 -262144
-49933 0;
#X text 110 294 1\.;
#X text 150 294 int;
#X obj 246 295 cnv 1 24 20 empty empty empty 17 7 0 10 -245695 -1 0;
#X text 245 294 CC: controller number. Range: 0\...127;
#X text 110 314 2\.;
#X text 150 314 float;
#X obj 246 315 cnv 1 32 20 empty empty empty 17 7 0 10 -245695 -1 0;
#X text 245 314 MIN: @min value.;
#X text 110 334 3\.;
#X text 150 334 float;
#X obj 246 335 cnv 1 32 20 empty empty empty 17 7 0 10 -245695 -1 0;
#X text 245 334 MAX: @max value.;
#X obj 20 364 cnv 1 745 1 empty empty empty 17 7 0 10 -203890 -1 0;
#X obj 20 369 cnv 5 98 26 empty empty properties: 4 10 0 14 -262144
-49933 0;
#X msg 110 404 @cc;
#X text 245 404 Get/Set controller number. Type: int. Default value:
0\. Range: 0\...127\.;
#X msg 110 446 @ch;
#X text 245 446 Get/Set MIDI channel. Type: int. Default value: 0\.
Range: 0\...16\.;
#X msg 110 488 @curve;
#X text 245 488 Get/Set output curve. If @curve<0: fast begin \, slow
end \, else if @curve>0: slow begin \, fast end \, if @curve==0: linear
speed. Type: float. Default value: 0\.;
#X msg 110 545 @max;
#X text 245 545 Get/Set output value at midi input == 127\. Type: float.
Default value: 127\.;
#X msg 110 587 @min;
#X text 245 587 Get/Set output value at midi input == 0\. Type: float.
Default value: 0\.;
#X obj 20 639 cnv 1 745 1 empty empty empty 17 7 0 10 -203890 -1 0;
#X obj 20 644 cnv 5 64 26 empty empty inlets: 4 10 0 14 -262144 -49933
0;
#X text 110 645 1\.;
#X text 245 645 control input.;
#X obj 20 675 cnv 1 745 1 empty empty empty 17 7 0 10 -203890 -1 0;
#X obj 20 680 cnv 5 73 26 empty empty outlets: 4 10 0 14 -262144
-49933 0;
#X text 110 681 1\.;
#X text 245 681 float value.;
#X obj 10 48 ui.link @title index @url ../index-help.pd;
#X text 51 45 ::;
#X obj 67 48 ui.link @title ceammc @url ceammc-help.pd;
#X text 115 45 ::;
#X obj 131 48 ui.link @title midi @url ceammc.midi-help.pd;
#X obj 1 731 cnv 5 765 48 empty empty empty 17 7 0 10 -203890 -1 0;
#X text 10 734 library: ceammc v0.9.2;
#N canvas 10 753 400 290 info 0;
#X obj 1 1 cnv 1 107 287 empty empty empty 17 7 0 10 -183085 -1 0;
#X text 10 10 library:;
#X text 120 10 ceammc;
#X text 10 32 version:;
#X text 120 32 0.9.2;
#X text 10 54 object:;
#X text 120 54 midi.cc;
#X text 10 76 category:;
#X text 120 76 midi;
#X text 10 98 since:;
#X text 120 98 0.9.2;
#X text 10 120 authors:;
#X text 120 120 Serge Poltavsky;
#X text 10 142 license:;
#X text 120 142 GPL3 or later;
#X text 10 164 keywords:;
#X text 120 164 midi \, controller \, name \, cc \, ctlin;
#X text 10 186 website:;
#X obj 120 189 ui.link @title https://github.com/uliss/pure-data @url
https://github.com/uliss/pure-data;
#X obj 120 208 declare -lib ceammc;
#X obj 120 268 cnv 1 270 1 empty empty empty 17 7 0 10 -203890 -1 0;
#X text 120 268 generated by pddoc;
#X restore 10 753 pd info;
#X connect 4 0 6 0;
#X connect 5 0 7 0;
#X connect 6 0 8 0;
#X connect 7 0 8 0;
#X connect 8 0 9 0;