#N canvas 0 0 785 555 12;
#X declare -lib ceammc;
#X obj 621 50 cnv 1 144 23 empty empty empty 17 7 0 10 -245760 -1 0;
#X text 621 50 midi note splitter;
#X obj 1 1 cnv 5 765 40 empty empty midi.split 20 20 0 20 -104026
-4096 0;
#X obj 668 11 midi.split;
#X obj 210 80 cnv 1 555 35 empty empty empty 17 7 0 10 -257983 -1 0;
#X text 215 80 Split midi note messages at specified pitch values;
#X obj 50 143 ui.keyboard;
#X obj 50 215 midi.split 40 60 80;
#X obj 50 244 ui.dt;
#X obj 107 273 ui.dt;
#X obj 165 302 ui.dt;
#X obj 222 330 ui.dt;
#X obj 20 379 cnv 1 745 1 empty empty empty 17 7 0 10 -203890 -1 0;
#X obj 20 384 cnv 5 90 26 empty empty arguments: 4 10 0 14 -262144
-49933 0;
#X text 110 419 1\.;
#X text 150 419 list;
#X obj 246 420 cnv 1 47 20 empty empty empty 17 7 0 10 -245695 -1 0;
#X text 245 419 NOTES: list of note values (split points). Type: list.;
#X obj 20 449 cnv 1 745 1 empty empty empty 17 7 0 10 -203890 -1 0;
#X obj 20 454 cnv 5 98 26 empty empty properties: 4 10 0 14 -262144
-49933 0;
#X msg 110 489 @points;
#X text 245 489 (readonly) Get split points. Should be in strict ascending
order. Type: list.;
#X obj 20 541 cnv 1 745 1 empty empty empty 17 7 0 10 -203890 -1 0;
#X obj 20 546 cnv 5 64 26 empty empty inlets: 4 10 0 14 -262144 -49933
0;
#X text 110 547 1\.;
#X text 150 547 *list*;
#X text 245 547 NOTE VELOCITY [DUR] list.;
#X obj 20 577 cnv 1 745 1 empty empty empty 17 7 0 10 -203890 -1 0;
#X obj 20 582 cnv 5 73 26 empty empty outlets: 4 10 0 14 -262144
-49933 0;
#X text 110 583 1\.;
#X text 245 583 midi pitches that are less than first split point.;
#X text 110 603 ....;
#X text 245 603 ...;
#X text 110 623 n.;
#X text 245 623 midi pitches that are greater or equal than N-th split
point and less then N+1\.;
#X text 110 658 n+1\.;
#X text 245 658 notes that are greater or equal last split point.;
#X obj 10 48 ui.link @title index @url ../index-help.pd;
#X text 51 45 ::;
#X obj 67 48 ui.link @title ceammc @url ceammc-help.pd;
#X text 115 45 ::;
#X obj 131 48 ui.link @title midi @url ceammc.midi-help.pd;
#X obj 1 708 cnv 5 765 48 empty empty empty 17 7 0 10 -203890 -1 0;
#X text 10 711 library: ceammc v0.9.4;
#N canvas 10 730 400 290 info 0;
#X obj 1 1 cnv 1 107 287 empty empty empty 17 7 0 10 -183085 -1 0;
#X text 10 10 library:;
#X text 120 10 ceammc;
#X text 10 32 version:;
#X text 120 32 0.9.4;
#X text 10 54 object:;
#X text 120 54 midi.split;
#X text 10 76 category:;
#X text 120 76 midi;
#X text 10 98 since:;
#X text 120 98 0.9.5;
#X text 10 120 authors:;
#X text 120 120 Serge Poltavsky;
#X text 10 142 license:;
#X text 120 142 GPL3 or later;
#X text 10 164 keywords:;
#X text 120 164 midi \, note \, splitter;
#X text 10 186 website:;
#X obj 120 189 ui.link @title https://github.com/uliss/pure-data @url
https://github.com/uliss/pure-data;
#X obj 120 208 declare -lib ceammc;
#X obj 120 268 cnv 1 270 1 empty empty empty 17 7 0 10 -203890 -1 0;
#X text 120 268 generated by pddoc;
#X restore 10 730 pd info;
#X connect 6 0 7 0;
#X connect 7 0 8 0;
#X connect 7 1 9 0;
#X connect 7 2 10 0;
#X connect 7 3 11 0;