#N canvas 0 0 785 555 12;
#X declare -lib ceammc;
#X obj 340 50 cnv 1 425 23 empty empty empty 17 7 0 10 -245760 -1 0;
#X text 340 50 convert GM Instrument number to name (string or symbol);
#X obj 1 1 cnv 5 765 40 empty empty midi.prg2str 20 20 0 20 -104026
-4096 0;
#X obj 532 11 midi.prg->str;
#X obj 652 11 midi.prg2str;
#X msg 50 118 1;
#X msg 98 118 9;
#X floatatom 50 147 5 0 0 0 - - -;
#X obj 50 176 midi.prg->str @symbol;
#X obj 280 176 midi.prg->str @symbol @family;
#X obj 50 205 ui.dt;
#X obj 280 205 ui.dt;
#X obj 20 254 cnv 1 745 1 empty empty empty 17 7 0 10 -203890 -1 0;
#X obj 20 259 cnv 5 98 26 empty empty properties: 4 10 0 14 -262144
-49933 0;
#X msg 110 294 @family;
#X text 245 294 output family name instead of instrument name. Default
value: 0\.;
#X msg 110 336 @symbol;
#X text 245 336 output as symbol instead of string by default. Default
value: 0\.;
#X obj 20 388 cnv 1 745 1 empty empty empty 17 7 0 10 -203890 -1 0;
#X obj 20 393 cnv 5 64 26 empty empty inlets: 4 10 0 14 -262144 -49933
0;
#X text 110 394 1\.;
#X text 150 394 *float*;
#X text 245 394 General MIDI instrument number [1-128].;
#X obj 20 424 cnv 1 745 1 empty empty empty 17 7 0 10 -203890 -1 0;
#X obj 20 429 cnv 5 73 26 empty empty outlets: 4 10 0 14 -262144
-49933 0;
#X text 110 430 1\.;
#X text 245 430 output General MIDI instrument name (string or symbol).;
#X obj 10 48 ui.link @title index @url ../index-help.pd;
#X text 51 45 ::;
#X obj 67 48 ui.link @title ceammc @url ceammc-help.pd;
#X text 115 45 ::;
#X obj 131 48 ui.link @title midi @url ceammc.midi-help.pd;
#X obj 1 505 cnv 5 765 48 empty empty empty 17 7 0 10 -203890 -1 0;
#X text 10 508 library: ceammc v0.9.7;
#N canvas 10 527 400 290 info 0;
#X obj 1 1 cnv 1 107 287 empty empty empty 17 7 0 10 -183085 -1 0;
#X text 10 10 library:;
#X text 120 10 ceammc;
#X text 10 32 version:;
#X text 120 32 0.9.7;
#X text 10 54 object:;
#X text 120 54 midi.prg2str;
#X text 10 76 category:;
#X text 120 76 midi;
#X text 10 98 since:;
#X text 120 98 0.4;
#X text 10 120 authors:;
#X text 120 120 Serge Poltavsky;
#X text 10 142 license:;
#X text 120 142 GPL3 or later;
#X text 10 164 keywords:;
#X text 120 164 midi \, convert \, midi;
#X text 10 186 website:;
#X obj 120 189 ui.link @title https://github.com/uliss/pure-data @url
https://github.com/uliss/pure-data;
#X obj 120 208 declare -lib ceammc;
#X obj 120 268 cnv 1 270 1 empty empty empty 17 7 0 10 -203890 -1 0;
#X text 120 268 generated by pddoc;
#X restore 10 527 pd info;
#X connect 5 0 7 0;
#X connect 6 0 7 0;
#X connect 7 0 8 0;
#X connect 7 0 9 0;
#X connect 8 0 10 0;
#X connect 9 0 11 0;