#N canvas 0 0 785 555 12;
#X declare -lib ceammc;
#X obj 368 50 cnv 1 397 23 empty empty empty 17 7 0 10 -245760 -1 0;
#X text 368 50 apply crescendo or diminuendo for midi message flow;
#X obj 1 1 cnv 5 765 40 empty empty midi.vramp 20 20 0 20 -104026
-4096 0;
#X obj 667 11 midi.vramp;
#X obj 50 118 ui.keyboard;
#X msg 328 190 reset;
#X obj 50 219 midi.vramp 30 127 12 @auto 1;
#X obj 50 248 msg note;
#X obj 50 277 fluid~ sf2/VintageDreamsWaves-v2.sf2;
#X obj 50 305 ui.hgain2~;
#X obj 213 305 ui.dsp~;
#X obj 50 334 dac~;
#X obj 20 383 cnv 1 745 1 empty empty empty 17 7 0 10 -203890 -1 0;
#X obj 20 388 cnv 5 90 26 empty empty arguments: 4 10 0 14 -262144
-49933 0;
#X text 110 423 1\.;
#X text 150 423 int;
#X obj 246 424 cnv 1 38 20 empty empty empty 17 7 0 10 -245695 -1 0;
#X text 245 423 FROM: start value. Type: int. Range: 0\...127;
#X text 110 443 2\.;
#X text 150 443 int;
#X obj 246 444 cnv 1 24 20 empty empty empty 17 7 0 10 -245695 -1 0;
#X text 245 443 TO: end value. Type: int. Range: 0\...127;
#X text 110 463 3\.;
#X text 150 463 int;
#X obj 246 464 cnv 1 17 20 empty empty empty 17 7 0 10 -245695 -1 0;
#X text 245 463 N: number of steps. Type: int. Min value: 0;
#X obj 20 493 cnv 1 745 1 empty empty empty 17 7 0 10 -203890 -1 0;
#X obj 20 498 cnv 5 98 26 empty empty properties: 4 10 0 14 -262144
-49933 0;
#X msg 110 533 @auto;
#X text 245 533 Get/Set auto reset mode. If true: reset to @start value
after ramp is finished. Type: int. Default value: 0\. Allowed values:
0 \, 1\.;
#X msg 110 590 @from;
#X text 245 590 Get/Set start value. Type: int. Default value: 127\.
Range: 0\...127\.;
#X msg 110 632 @n;
#X text 245 632 Get/Set number of steps. Type: int. Default value:
0\. Min value: 0\.;
#X msg 110 674 @to;
#X text 245 674 Get/Set end value. Type: int. Default value: 127\.
Range: 0\...127\.;
#X obj 20 726 cnv 1 745 1 empty empty empty 17 7 0 10 -203890 -1 0;
#X obj 20 731 cnv 5 73 26 empty empty methods: 4 10 0 14 -262144
-49933 0;
#X msg 110 766 reset;
#X text 245 766 reset to start value.;
#X obj 20 803 cnv 1 745 1 empty empty empty 17 7 0 10 -203890 -1 0;
#X obj 20 808 cnv 5 64 26 empty empty inlets: 4 10 0 14 -262144 -49933
0;
#X text 110 809 1\.;
#X text 150 809 *float*;
#X text 245 809 if VALUE >0 \, treat as (VALUE 127) list \, otherwise
as (-VALUE \, 0).;
#X text 150 844 *list*;
#X text 245 844 NOTE [VELOCITY] list expected.;
#X obj 20 874 cnv 1 745 1 empty empty empty 17 7 0 10 -203890 -1 0;
#X obj 20 879 cnv 5 73 26 empty empty outlets: 4 10 0 14 -262144
-49933 0;
#X text 110 880 1\.;
#X text 245 880 outputs NOTE VELOCITY pair.;
#X text 110 900 2\.;
#X text 245 900 bang when destination value is reached.;
#X obj 10 48 ui.link @title index @url ../index-help.pd;
#X text 51 45 ::;
#X obj 67 48 ui.link @title ceammc @url ceammc-help.pd;
#X text 115 45 ::;
#X obj 131 48 ui.link @title midi @url ceammc.midi-help.pd;
#X obj 1 950 cnv 5 765 48 empty empty empty 17 7 0 10 -203890 -1 0;
#X text 10 953 library: ceammc v0.9.3;
#N canvas 10 972 400 290 info 0;
#X obj 1 1 cnv 1 107 287 empty empty empty 17 7 0 10 -183085 -1 0;
#X text 10 10 library:;
#X text 120 10 ceammc;
#X text 10 32 version:;
#X text 120 32 0.9.3;
#X text 10 54 object:;
#X text 120 54 midi.vramp;
#X text 10 76 category:;
#X text 120 76 midi;
#X text 10 98 since:;
#X text 120 98 0.9.1;
#X text 10 120 authors:;
#X text 120 120 Serge Poltavsky;
#X text 10 142 license:;
#X text 120 142 GPL3 or later;
#X text 10 164 keywords:;
#X text 120 164 midi \, ramp \, crescendo \, diminuendo;
#X text 10 186 website:;
#X obj 120 189 ui.link @title https://github.com/uliss/pure-data @url
https://github.com/uliss/pure-data;
#X obj 120 208 declare -lib ceammc;
#X obj 120 268 cnv 1 270 1 empty empty empty 17 7 0 10 -203890 -1 0;
#X text 120 268 generated by pddoc;
#X restore 10 972 pd info;
#X connect 4 0 6 0;
#X connect 5 0 6 0;
#X connect 6 0 7 0;
#X connect 7 0 8 0;
#X connect 8 0 9 0;
#X connect 8 1 9 1;
#X connect 9 0 11 0;
#X connect 9 1 11 1;