#N canvas 0 0 785 555 12;
#X declare -lib ceammc;
#X obj 500 50 cnv 1 265 23 empty empty empty 17 7 0 10 -245760 -1 0;
#X text 500 50 MOD file player (using libmodplug);
#X obj 1 1 cnv 5 765 40 empty empty modplug~ 20 20 0 20 -104026 -4096
0;
#X obj 547 11 ceammc/modplug~;
#X obj 681 11 modplug~;
#X msg 50 118 symbol stargazing.mod;
#X obj 290 118 tgl 15 0 empty empty empty 17 7 0 10 -262144 -1 -1 0 1;
#X msg 69 147 play;
#X msg 136 147 pause;
#X msg 213 147 stop;
#X obj 290 147 metro 100;
#X msg 290 176 @rpos?;
#X obj 50 205 modplug~ @done on_done;
#X obj 50 234 ~->;
#X obj 366 234 function on_done;
#X obj 50 262 ui.gain2~ @size 120 16;
#X obj 328 262 route @rpos;
#X obj 491 262 tgl 15 0 empty empty empty 17 7 0 10 -262144 -1 -1 0 1;
#X obj 50 291 dac~;
#X obj 126 291 ui.dsp~;
#X floatatom 328 291 5 0 0 0 - - -;
#X obj 20 340 cnv 1 745 1 empty empty empty 17 7 0 10 -203890 -1 0;
#X obj 20 345 cnv 5 98 26 empty empty properties: 4 10 0 14 -262144
-49933 0;
#X msg 110 380 @done;
#X text 245 380 Get/Set function called with bang when playing is finished.
Type: symbol.;
#X msg 110 422 @len;
#X text 245 422 (readonly) Get length of mod file. Type: float. Units:
ms. Default value: 0\.;
#X msg 110 464 @name;
#X text 245 464 (readonly) Get mod name. Type: symbol.;
#X msg 110 493 @play;
#X text 245 493 Get/Set play state. Type: int. Default value: 0\. Allowed
values: 0 \, 1\.;
#X msg 110 535 @pos;
#X text 245 535 Get/Set position in mod file. Type: float. Units: ms.
Default value: -1\.;
#X msg 110 577 @rpos;
#X text 245 577 Get/Set relative position in mod file. Type: float.
Default value: 0\. Range: 0\...1\.;
#X obj 20 629 cnv 1 745 1 empty empty empty 17 7 0 10 -203890 -1 0;
#X obj 20 634 cnv 5 73 26 empty empty methods: 4 10 0 14 -262144
-49933 0;
#X msg 110 669 pause;
#X text 245 669 pause playing.;
#X msg 110 696 play;
#X text 245 696 play mod file.;
#X msg 110 723 stop;
#X text 245 723 stop playing and move play position to the end of file.;
#X obj 20 760 cnv 1 745 1 empty empty empty 17 7 0 10 -203890 -1 0;
#X obj 20 765 cnv 5 64 26 empty empty inlets: 4 10 0 14 -262144 -49933
0;
#X text 110 766 1\.;
#X text 150 766 *symbol*;
#X text 245 766 load mod file.;
#X obj 20 796 cnv 1 745 1 empty empty empty 17 7 0 10 -203890 -1 0;
#X obj 20 801 cnv 5 73 26 empty empty outlets: 4 10 0 14 -262144
-49933 0;
#X text 110 802 1\.;
#X text 245 802 left channel and property output.;
#X text 110 822 2\.;
#X text 245 822 right channel.;
#X obj 10 48 ui.link @title index @url ../index-help.pd;
#X text 51 45 ::;
#X obj 67 48 ui.link @title ceammc @url ceammc-help.pd;
#X text 115 45 ::;
#X obj 131 48 ui.link @title misc @url ceammc.misc-help.pd;
#X obj 1 872 cnv 5 765 48 empty empty empty 17 7 0 10 -203890 -1 0;
#X text 10 875 library: ceammc v0.9.4;
#N canvas 10 894 400 290 info 0;
#X obj 1 1 cnv 1 107 287 empty empty empty 17 7 0 10 -183085 -1 0;
#X text 10 10 library:;
#X text 120 10 ceammc;
#X text 10 32 version:;
#X text 120 32 0.9.4;
#X text 10 54 object:;
#X text 120 54 modplug~;
#X text 10 76 category:;
#X text 120 76 misc;
#X text 10 98 since:;
#X text 120 98 0.4;
#X text 10 120 authors:;
#X text 120 120 Serge Poltavsky;
#X text 10 142 license:;
#X text 120 142 GPL3 or later;
#X text 10 164 keywords:;
#X text 120 164 mod \, player;
#X text 10 186 website:;
#X obj 120 189 ui.link @title https://github.com/uliss/pure-data @url
https://github.com/uliss/pure-data;
#X obj 120 208 declare -lib ceammc;
#X obj 120 268 cnv 1 270 1 empty empty empty 17 7 0 10 -203890 -1 0;
#X text 120 268 generated by pddoc;
#X restore 10 894 pd info;
#X connect 6 0 10 0;
#X connect 10 0 11 0;
#X connect 5 0 12 0;
#X connect 7 0 12 0;
#X connect 8 0 12 0;
#X connect 9 0 12 0;
#X connect 11 0 12 0;
#X connect 12 0 13 0;
#X connect 13 0 15 0;
#X connect 13 1 16 0;
#X connect 14 1 17 0;
#X connect 15 0 18 0;
#X connect 15 1 18 1;
#X connect 16 0 20 0;
#X connect 12 1 15 1;