#N canvas 0 0 390 158 12;
#X msg 20 48 1 2 3;
#X floatatom 96 48 5 0 0 0 - - -;
#X msg 144 48 other message;
#X msg 173 77 list a;
#X msg 260 77 list set a b c;
#X obj 20 120 msg set;
#X obj 20 149 print;
#X msg 106 149 ;
#X connect 1 0 5 0;
#X connect 0 0 5 0;
#X connect 5 0 7 0;
#X connect 2 0 5 0;
#X connect 5 0 6 0;
#X connect 4 0 5 1;
#X connect 3 0 5 1;
