#N canvas 0 0 529 529 12;
#X obj 20 48 msg.onload;
#X obj 20 77 ui.d @display_type 1 @auto_size 0;
#X obj 20 106 msg.onload 1000;
#X obj 20 135 ui.d @display_type 1 @auto_size 0;
#X obj 20 164 msg.onload symbol TEXT;
#X obj 20 192 ui.d @display_type 1 @auto_size 0;
#X obj 20 221 msg.onload 1 2 3 4 5;
#X text 260 221 implicit list;
#X obj 20 250 ui.d @display_type 1 @auto_size 0;
#X obj 20 279 msg.onload list A B @C;
#X text 260 279 explicit list;
#X obj 20 308 ui.d @display_type 1 @auto_size 0;
#X obj 20 336 msg.onload TEXT;
#X obj 20 365 ui.d @display_type 1 @auto_size 0;
#X obj 20 394 msg.onload MSG ARG0 @ARG1;
#X obj 20 423 ui.d @display_type 1 @auto_size 0;
#X obj 20 451 msg.onload A \, B \, C;
#X text 288 451 comma separated messages;
#X obj 20 480 print;
#X connect 0 0 1 0;
#X connect 2 0 3 0;
#X connect 4 0 5 0;
#X connect 6 0 8 0;
#X connect 9 0 11 0;
#X connect 12 0 13 0;
#X connect 14 0 15 0;
#X connect 16 0 18 0;
