#N canvas 0 0 785 555 12;
#X declare -lib ceammc;
#X obj 454 50 cnv 1 311 23 empty empty empty 17 7 0 10 -245760 -1 0;
#X text 454 50 convert voice music list of midi pitches;
#X obj 1 1 cnv 5 765 40 empty empty music.voice2midi 20 20 0 20
-104026 -4096 0;
#X obj 526 11 music.v->m;
#X obj 624 11 music.voice2midi;
#X obj 210 80 cnv 1 555 160 empty empty empty 17 7 0 10 -257983 -1 0;
#X text 215 80 Basic syntax:;
#X text 215 105 - pitch: C \, D \, E \, F \, G \, A \, B;
#X text 215 130 - alteration: # \, ## \, b or bb;
#X text 215 155 - octave: -1\..9 or ^ \, _;
#X text 215 180 - deviation in cents: (+-NUMc);
#X text 215 205 - duration: |8 \, |4\. or |3/8;
#X msg 50 268 list C|4 D R Eb F# G(-25c) A|8;
#X obj 50 326 music.v->m;
#X obj 50 355 ui.dt;
#X obj 50 384 music.voice2midi.notes;
#X obj 290 384 music.voice2midi.oct;
#X obj 50 412 music.voice2midi.alt;
#X obj 20 461 cnv 1 745 1 empty empty empty 17 7 0 10 -203890 -1 0;
#X obj 20 466 cnv 5 64 26 empty empty inlets: 4 10 0 14 -262144 -49933
0;
#X text 110 467 1\.;
#X text 245 467 note list.;
#X obj 20 497 cnv 1 745 1 empty empty empty 17 7 0 10 -203890 -1 0;
#X obj 20 502 cnv 5 73 26 empty empty outlets: 4 10 0 14 -262144
-49933 0;
#X text 110 503 1\.;
#X text 245 503 MIDI values.;
#X obj 10 48 ui.link @title index @url ../index-help.pd;
#X text 51 45 ::;
#X obj 67 48 ui.link @title ceammc @url ceammc-help.pd;
#X text 115 45 ::;
#X obj 131 48 ui.link @title conv @url ceammc.conv-help.pd;
#X obj 1 553 cnv 5 765 48 empty empty empty 17 7 0 10 -203890 -1 0;
#X text 10 556 library: ceammc v0.9.3;
#N canvas 10 575 400 290 info 0;
#X obj 1 1 cnv 1 107 287 empty empty empty 17 7 0 10 -183085 -1 0;
#X text 10 10 library:;
#X text 120 10 ceammc;
#X text 10 32 version:;
#X text 120 32 0.9.3;
#X text 10 54 object:;
#X text 120 54 music.voice2midi;
#X text 10 76 category:;
#X text 120 76 conv;
#X text 10 98 since:;
#X text 120 98 0.9.4;
#X text 10 120 authors:;
#X text 120 120 Serge Poltavsky;
#X text 10 142 license:;
#X text 120 142 GPL3 or later;
#X text 10 164 keywords:;
#X text 120 164 conv \, music \, voice;
#X text 10 186 website:;
#X obj 120 189 ui.link @title https://github.com/uliss/pure-data @url
https://github.com/uliss/pure-data;
#X obj 120 208 declare -lib ceammc;
#X obj 120 268 cnv 1 270 1 empty empty empty 17 7 0 10 -203890 -1 0;
#X text 120 268 generated by pddoc;
#X restore 10 575 pd info;
#X connect 12 0 13 0;
#X connect 13 0 14 0;