#N canvas 0 0 710 414 12;
#X text 20 48 duration as denominator;
#X msg 20 77 list C|1 C|2 C|4 C|8 C|16 C|32 C|64 C|128 C|256;
#X obj 20 106 music.v->m;
#X obj 20 135 ui.dt;
#X text 20 164 duration as ratio;
#X msg 20 192 list C|2/3 D|1/16;
#X obj 20 221 music.v->m;
#X obj 20 250 ui.dt;
#X text 20 279 duration relative;
#X msg 20 308 list C|1 D|/2 E F|*2;
#X obj 20 336 music.v->m;
#X obj 20 365 ui.dt;
#X connect 1 0 2 0;
#X connect 2 0 3 0;
#X connect 5 0 6 0;
#X connect 6 0 7 0;
#X connect 9 0 10 0;
#X connect 10 0 11 0;
