#N canvas 0 0 785 555 12;
#X declare -lib ceammc;
#X obj 621 50 cnv 1 144 23 empty empty empty 17 7 0 10 -245760 -1 0;
#X text 621 50 OSC message sender;
#X obj 1 1 cnv 5 765 40 empty empty net.osc.send 20 20 0 20 -104026
-4096 0;
#X obj 564 11 net.osc.s;
#X obj 654 11 net.osc.send;
#X text 50 118 default OSC server: osc.udp://:9000;
#X obj 50 147 tgl 15 0 empty empty empty 17 7 0 10 -262144 -1 -1 0 1;
#X msg 50 176 @dump \$1;
#X text 165 176 open Pd window to see OSC dump output;
#X obj 50 205 net.osc.server;
#X text 50 234 send list of floats;
#X msg 50 262 send /l 1 2 3 4;
#X msg 251 262 send_typed /t ifs 0.5 -100 symbol;
#X obj 59 291 tgl 15 0 empty empty empty 17 7 0 10 -262144 -1 -1 0 1;
#X floatatom 251 291 5 0 0 0 - - -;
#X floatatom 462 291 5 0 0 0 - - -;
#X msg 50 320 send_bool /b \$1;
#X msg 251 320 send_float /f \$1;
#X msg 462 320 send_double /d \$1;
#X msg 50 349 send_inf /inf;
#X floatatom 251 349 5 0 0 0 - - -;
#X floatatom 462 349 5 0 0 0 - - -;
#X msg 50 378 send_null /null;
#X msg 251 378 send_i32 /i32 \$1;
#X msg 462 378 send_i64 /i64 \$1;
#X msg 462 406 send_string /s with spaces;
#X obj 50 449 net.osc.send osc.udp://localhost:9000;
#X obj 20 498 cnv 1 745 1 empty empty empty 17 7 0 10 -203890 -1 0;
#X obj 20 503 cnv 5 90 26 empty empty arguments: 4 10 0 14 -262144
-49933 0;
#X text 110 538 1\.;
#X text 150 538 symbol;
#X obj 246 539 cnv 1 40 20 empty empty empty 17 7 0 10 -245695 -1 0;
#X text 245 538 NAME: OSC server name (for using with other objects).
Type: symbol.;
#X text 110 573 2\.;
#X text 150 573 atom;
#X obj 246 574 cnv 1 31 20 empty empty empty 17 7 0 10 -245695 -1 0;
#X text 245 573 URL: OSC server url (like osc.udp://localhost:12345).
Type: atom.;
#X obj 20 618 cnv 1 745 1 empty empty empty 17 7 0 10 -203890 -1 0;
#X obj 20 623 cnv 5 98 26 empty empty properties: 4 10 0 14 -262144
-49933 0;
#X msg 110 658 @host;
#X text 245 658 (readonly) Get destination host. Type: symbol.;
#X msg 110 687 @path;
#X text 245 687 (readonly) Get socket filesystem path (if using unix
proto). Type: symbol.;
#X msg 110 729 @port;
#X text 245 729 (readonly) Get destination port. Type: int. Default
value: 0\.;
#X msg 110 771 @proto;
#X text 245 771 (readonly) Get sending protocol. Type: symbol. Default
value: udp.;
#X msg 110 813 @url;
#X text 245 813 Get/Set destination url. Type: atom.;
#X obj 20 852 cnv 1 745 1 empty empty empty 17 7 0 10 -203890 -1 0;
#X obj 20 857 cnv 5 73 26 empty empty methods: 4 10 0 14 -262144
-49933 0;
#X msg 110 892 send;
#X text 245 892 send input values (autotyped). Arguments are:;
#X obj 255 915 cnv 1 36 23 empty empty empty 17 7 0 10 -245695 -1 0;
#X text 255 915 PATH: OSC path. Type: symbol.;
#X obj 255 938 cnv 1 52 23 empty empty empty 17 7 0 10 -245695 -1 0;
#X text 255 938 VALUES: values. Type: list.;
#X msg 110 963 send_blob;
#X text 245 963 send character. Arguments are:;
#X obj 255 986 cnv 1 36 23 empty empty empty 17 7 0 10 -245695 -1 0;
#X text 255 986 PATH: OSC path. Type: symbol.;
#X obj 255 1009 cnv 1 30 23 empty empty empty 17 7 0 10 -245695 -1 0;
#X text 255 1009 VAL: list of bytes. Type: list.;
#X msg 110 1034 send_bool;
#X text 245 1034 send boolean value. Arguments are:;
#X obj 255 1057 cnv 1 36 23 empty empty empty 17 7 0 10 -245695 -1 0;
#X text 255 1057 PATH: OSC path. Type: symbol.;
#X obj 255 1080 cnv 1 30 23 empty empty empty 17 7 0 10 -245695 -1 0;
#X text 255 1080 VAL: value. Type: int. Allowed values: 0 \, 1\.;
#X msg 110 1105 send_char;
#X text 245 1105 send character. Arguments are:;
#X obj 255 1128 cnv 1 36 23 empty empty empty 17 7 0 10 -245695 -1 0;
#X text 255 1128 PATH: OSC path. Type: symbol.;
#X obj 255 1151 cnv 1 30 23 empty empty empty 17 7 0 10 -245695 -1 0;
#X text 255 1151 VAL: ASCII code in 0-127 range or single symbol. Type:
atom.;
#X msg 110 1176 send_double;
#X text 245 1176 send double value. Arguments are:;
#X obj 255 1199 cnv 1 36 23 empty empty empty 17 7 0 10 -245695 -1 0;
#X text 255 1199 PATH: OSC path. Type: symbol.;
#X obj 255 1222 cnv 1 30 23 empty empty empty 17 7 0 10 -245695 -1 0;
#X text 255 1222 VAL: value. Type: float.;
#X msg 110 1247 send_float;
#X text 245 1247 send float value. Arguments are:;
#X obj 255 1270 cnv 1 36 23 empty empty empty 17 7 0 10 -245695 -1 0;
#X text 255 1270 PATH: OSC path. Type: symbol.;
#X obj 255 1293 cnv 1 30 23 empty empty empty 17 7 0 10 -245695 -1 0;
#X text 255 1293 VAL: value. Type: float.;
#X msg 110 1318 send_i32;
#X text 245 1318 send int32 value. Arguments are:;
#X obj 255 1341 cnv 1 36 23 empty empty empty 17 7 0 10 -245695 -1 0;
#X text 255 1341 PATH: OSC path. Type: symbol.;
#X obj 255 1364 cnv 1 30 23 empty empty empty 17 7 0 10 -245695 -1 0;
#X text 255 1364 VAL: value. Type: int.;
#X msg 110 1389 send_i64;
#X text 245 1389 send int64 value. Arguments are:;
#X obj 255 1412 cnv 1 36 23 empty empty empty 17 7 0 10 -245695 -1 0;
#X text 255 1412 PATH: OSC path. Type: symbol.;
#X obj 255 1435 cnv 1 30 23 empty empty empty 17 7 0 10 -245695 -1 0;
#X text 255 1435 VAL: value. Type: int.;
#X msg 110 1460 send_inf;
#X text 245 1460 send inf value. Arguments are:;
#X obj 255 1483 cnv 1 36 23 empty empty empty 17 7 0 10 -245695 -1 0;
#X text 255 1483 PATH: OSC path. Type: symbol.;
#X msg 110 1508 send_midi;
#X text 245 1508 send midi message (4 bytes). Arguments are:;
#X obj 255 1531 cnv 1 36 23 empty empty empty 17 7 0 10 -245695 -1 0;
#X text 255 1531 PATH: OSC path. Type: symbol.;
#X obj 255 1554 cnv 1 30 23 empty empty empty 17 7 0 10 -245695 -1 0;
#X text 255 1554 VAL: hex symbol (0xAAFF1122) or list of 4 bytes. Type:
list.;
#X msg 110 1579 send_null;
#X text 245 1579 send null value. Arguments are:;
#X obj 255 1602 cnv 1 36 23 empty empty empty 17 7 0 10 -245695 -1 0;
#X text 255 1602 PATH: OSC path. Type: symbol.;
#X msg 110 1627 send_string;
#X text 245 1627 send string value. Arguments are:;
#X obj 255 1650 cnv 1 36 23 empty empty empty 17 7 0 10 -245695 -1 0;
#X text 255 1650 PATH: OSC path. Type: symbol.;
#X obj 255 1673 cnv 1 30 23 empty empty empty 17 7 0 10 -245695 -1 0;
#X text 255 1673 VAL: value. Type: list.;
#X msg 110 1698 send_typed;
#X text 245 1698 send list of typed values. Arguments are:;
#X obj 255 1721 cnv 1 36 23 empty empty empty 17 7 0 10 -245695 -1 0;
#X text 255 1721 PATH: OSC path. Type: symbol.;
#X obj 255 1744 cnv 1 45 23 empty empty empty 17 7 0 10 -245695 -1 0;
#X text 255 1744 TYPES: type string \, 'i': int32 \, 'f': 32-bit float
\, 's': string \, 'h': int64 \, 'd': 64-bit float \, 'T': #true value
\, 'F': #false value \, 'N': #null value \, 'I': #inf value. Type:
symbol.;
#X obj 255 1812 cnv 1 30 23 empty empty empty 17 7 0 10 -245695 -1 0;
#X text 255 1812 VAL: values. Type: list.;
#X obj 20 1847 cnv 1 745 1 empty empty empty 17 7 0 10 -203890 -1 0;
#X obj 20 1852 cnv 5 64 26 empty empty inlets: 4 10 0 14 -262144
-49933 0;
#X text 110 1853 1\.;
#X text 245 1853 message input.;
#X obj 20 1883 cnv 1 745 1 empty empty empty 17 7 0 10 -203890 -1 0;
#X obj 20 1888 cnv 5 73 26 empty empty outlets: 4 10 0 14 -262144
-49933 0;
#X text 110 1889 1\.;
#X text 245 1889 none.;
#X obj 10 48 ui.link @title index @url ../index-help.pd;
#X text 51 45 ::;
#X obj 67 48 ui.link @title ceammc @url ceammc-help.pd;
#X text 115 45 ::;
#X obj 131 48 ui.link @title net @url ceammc.net-help.pd;
#X obj 1 1939 cnv 5 765 48 empty empty empty 17 7 0 10 -203890 -1 0;
#X text 10 1942 library: ceammc v0.9.6;
#X text 440 1954 see also:;
#X obj 514 1954 net.osc.server;
#X obj 631 1954 net.osc.receive;
#N canvas 10 1961 400 290 info 0;
#X obj 1 1 cnv 1 107 287 empty empty empty 17 7 0 10 -183085 -1 0;
#X text 10 10 library:;
#X text 120 10 ceammc;
#X text 10 32 version:;
#X text 120 32 0.9.6;
#X text 10 54 object:;
#X text 120 54 net.osc.send;
#X text 10 76 category:;
#X text 120 76 net;
#X text 10 98 since:;
#X text 120 98 0.9.5;
#X text 10 120 authors:;
#X text 120 120 Serge Poltavsky;
#X text 10 142 license:;
#X text 120 142 GPL3 or later;
#X text 10 164 keywords:;
#X text 120 164 osc \, net \, send;
#X text 10 186 website:;
#X obj 120 189 ui.link @title https://github.com/uliss/pure-data @url
https://github.com/uliss/pure-data;
#X obj 120 208 declare -lib ceammc;
#X obj 120 268 cnv 1 270 1 empty empty empty 17 7 0 10 -203890 -1 0;
#X text 120 268 generated by pddoc;
#X restore 10 1961 pd info;
#X connect 6 0 7 0;
#X connect 7 0 9 0;
#X connect 13 0 16 0;
#X connect 14 0 17 0;
#X connect 15 0 18 0;
#X connect 20 0 23 0;
#X connect 21 0 24 0;
#X connect 11 0 26 0;
#X connect 16 0 26 0;
#X connect 19 0 26 0;
#X connect 22 0 26 0;
#X connect 17 0 26 0;
#X connect 23 0 26 0;
#X connect 18 0 26 0;
#X connect 24 0 26 0;
#X connect 12 0 26 0;
#X connect 25 0 26 0;