#N canvas 0 0 715 555 12;
#X declare -lib ceammc;
#X obj 444 50 cnv 1 251 21 empty empty empty 17 7 0 10 -245760 -1 0;
#X text 444 50 returns IP addresss by DNS name;
#X obj 1 1 cnv 5 712 40 empty empty net.host2ip 20 20 0 20 -104026
-4096 0;
#X obj 495 11 net.host->ip;
#X obj 607 11 net.host2ip;
#X msg 50 118 localhost;
#X msg 69 147 symbol bbc.com;
#X obj 50 190 net.host->ip;
#X obj 50 219 ui.d;
#X obj 20 258 cnv 1 685 1 empty empty empty 17 7 0 10 -203890 -1 0;
#X obj 20 263 cnv 5 98 26 empty empty properties: 4 10 0 14 -262144
-49933 0;
#X msg 120 268 @type;
#X text 240 268 Get/Set result IP type. Type: symbol. Default value:
ipv4\. Allowed values: ipv4 \, ipv6;
#X msg 120 305 @ipv4;
#X text 240 305 shortcut for @type ipv4;
#X msg 120 332 @ipv6;
#X text 240 332 shortcut for @type ipv6;
#X obj 20 369 cnv 1 685 1 empty empty empty 17 7 0 10 -203890 -1 0;
#X obj 20 374 cnv 5 73 26 empty empty methods: 4 10 0 14 -262144
-49933 0;
#X msg 120 379 mute;
#X text 240 379 mute specified channel. Arguments are:;
#X obj 250 407 cnv 1 22 21 empty empty empty 17 7 0 10 -245695 -1 0;
#X text 250 407 CH: channel index (from 0). Type: int. Min value: 0;
#X obj 250 435 cnv 1 30 21 empty empty empty 17 7 0 10 -245695 -1 0;
#X text 250 435 VAL: 1 - mute \, 0 - unmute. Type: int. Allowed
values: 0 \, 1\.;
#X msg 120 477 solo;
#X text 240 477 solo (mute all others that not solo) specified
channel. Arguments are:;
#X obj 250 519 cnv 1 22 21 empty empty empty 17 7 0 10 -245695 -1 0;
#X text 250 519 CH: channel index (from 0). Type: int. Min value: 0;
#X obj 250 547 cnv 1 40 21 empty empty empty 17 7 0 10 -245695 -1 0;
#X text 250 547 [VAL]: 1 - enable solo \, 0 - disable solo. Type: int.
Allowed values: 0 \, 1\.;
#X obj 20 599 cnv 1 685 1 empty empty empty 17 7 0 10 -203890 -1 0;
#X obj 20 604 cnv 5 64 26 empty empty inlets: 4 10 0 14 -262144 -49933
0;
#X text 120 609 1\.;
#X text 150 609 *symbol*;
#X text 240 609 DNS name.;
#X text 150 627 *any*;
#X text 240 627 DNS namel.;
#X obj 20 655 cnv 1 685 1 empty empty empty 17 7 0 10 -203890 -1 0;
#X obj 20 660 cnv 5 73 26 empty empty outlets: 4 10 0 14 -262144
-49933 0;
#X text 120 665 1\.;
#X text 240 665 list of resolved IP's;
#X obj 10 48 ui.link @title index @url ../index-help.pd;
#X text 51 45 ::;
#X obj 67 48 ui.link @title ceammc @url ceammc-help.pd;
#X text 115 45 ::;
#X obj 131 48 ui.link @title net @url ceammc.net-help.pd;
#X obj 1 713 cnv 5 712 48 empty empty empty 17 7 0 10 -203890 -1 0;
#X text 10 716 library: ceammc v0.6;
#N canvas 10 735 400 290 info 0;
#X obj 1 1 cnv 1 107 287 empty empty empty 17 7 0 10 -183085 -1 0;
#X text 10 10 library:;
#X text 120 10 ceammc;
#X text 10 32 version:;
#X text 120 32 0.6;
#X text 10 54 object:;
#X text 120 54 net.host2ip;
#X text 10 76 category:;
#X text 120 76 net;
#X text 10 98 since:;
#X text 120 98 0.7;
#X text 10 120 authors:;
#X text 120 120 Serge Poltavsky;
#X text 10 142 license:;
#X text 120 142 GPL3;
#X text 10 164 keywords:;
#X text 120 164 net \, dns \, ip;
#X text 10 186 website:;
#X obj 120 189 ui.link @title https://github.com/uliss/pure-data @url
https://github.com/uliss/pure-data;
#X obj 120 208 declare -lib ceammc;
#X obj 120 268 cnv 1 270 1 empty empty empty 17 7 0 10 -203890 -1 0;
#X text 120 268 generated by pddoc;
#X restore 10 735 pd info;
#X connect 5 0 7 0;
#X connect 6 0 7 0;
#X connect 7 0 8 0;