#N canvas 0 0 677 357 12;
#X msg 20 48 ifaces;
#X obj 20 77 net.mdns;
#X obj 20 106 route iface;
#X obj 20 135 unpack s a;
#X obj 20 164 print IFACE;
#X connect 0 0 1 0;
#X connect 1 0 2 0;
#X connect 2 0 3 0;
#X connect 3 0 4 0;
