#N canvas 0 0 325 185 12;
#X msg 20 48 ifaces;
#X obj 20 77 net.mdns;
#X obj 20 106 msg.unpack 3;
#X text 183 106 Dict output;
#X obj 20 135 print IFACE;
#X obj 183 135 print INFO;
#X connect 0 0 1 0;
#X connect 1 0 2 0;
#X connect 2 1 4 0;
#X connect 2 2 5 0;
