#N canvas 0 0 785 555 12;
#X declare -lib ceammc;
#X obj 546 50 cnv 1 219 23 empty empty empty 17 7 0 10 -245760 -1 0;
#X text 546 50 navier-stokes diff equations;
#X obj 1 1 cnv 5 765 40 empty empty noise.navier_stokes 20 20 0 20
-104026 -4096 0;
#X obj 603 11 noise.navier_stokes;
#X obj 210 80 cnv 1 555 300 empty empty empty 17 7 0 10 -257983 -1 0;
#X text 215 80 A model obtained by a suitable five-mode truncation
of the Navier-Stokes equations for a two-dimensional incompressible
fluid on a torus:;
#X text 215 135 dx1= -2*x1 + 4*x2*x3 + 4*x4*x5;
#X text 215 160 dx2= -9*x2 + 3*x1*x3;
#X text 215 185 dx3= -5*x3 - 7*x1*x2 + reyn;
#X text 215 210 dx4= -5*x4 - x1*x5;
#X text 215 235 dx5= -x5 - 3*x1*x4;
#X text 215 260 ---;
#X text 215 285 Where <reyn> is the Reynolds number \, and exibits
an interesting variety of different behaviors for different ranges
of <reyn>. For the critical values of <reyn> \, the most interesting
feature is the stochastic behavior observed when R1 < <reyn> < R2\.
With 28.73 < R1 > 29.0 and R2 ± = 33.43\.;
#X obj 50 408 tgl 15 0 empty empty empty 17 7 0 10 -262144 -1 -1 0 1;
#X obj 50 437 metro 50;
#X obj 69 480 tgl 15 0 empty empty empty 17 7 0 10 -262144 -1 -1 0 1;
#X floatatom 184 480 5 0 0 0 - - -;
#X msg 69 509 om \$1;
#X msg 184 509 set \$1;
#X msg 318 509 reset;
#X floatatom 59 538 5 0 0 0 - - -;
#X floatatom 194 538 5 0 0 0 - - -;
#X msg 59 567 r \$1;
#X msg 194 567 dt \$1;
#X floatatom 88 595 5 0 0 0 - - -;
#X floatatom 184 595 5 0 0 0 - - -;
#X floatatom 280 595 5 0 0 0 - - -;
#X floatatom 376 595 5 0 0 0 - - -;
#X msg 88 624 a \$1;
#X msg 184 624 b \$1;
#X msg 280 624 c \$1;
#X msg 376 624 d \$1;
#X obj 50 653 noise.navier_stokes;
#X obj 50 682 ui.display;
#X obj 20 731 cnv 1 745 1 empty empty empty 17 7 0 10 -203890 -1 0;
#X obj 20 736 cnv 5 90 26 empty empty arguments: 4 10 0 14 -262144
-49933 0;
#X text 110 771 1\.;
#X text 150 771 float;
#X obj 246 772 cnv 1 17 20 empty empty empty 17 7 0 10 -245695 -1 0;
#X text 245 771 A: a value (optional). Type: float.;
#X text 110 791 2\.;
#X text 150 791 float;
#X obj 246 792 cnv 1 16 20 empty empty empty 17 7 0 10 -245695 -1 0;
#X text 245 791 B: b value (optional). Type: float.;
#X text 110 811 3\.;
#X text 150 811 float;
#X obj 246 812 cnv 1 16 20 empty empty empty 17 7 0 10 -245695 -1 0;
#X text 245 811 C: c value (optional). Type: float.;
#X text 110 831 4\.;
#X text 150 831 float;
#X obj 246 832 cnv 1 16 20 empty empty empty 17 7 0 10 -245695 -1 0;
#X text 245 831 D: d value (optional). Type: float.;
#X text 110 851 5\.;
#X text 150 851 float;
#X obj 246 852 cnv 1 16 20 empty empty empty 17 7 0 10 -245695 -1 0;
#X text 245 851 R: r value (optional). Type: float.;
#X text 110 871 6\.;
#X text 150 871 float;
#X obj 246 872 cnv 1 24 20 empty empty empty 17 7 0 10 -245695 -1 0;
#X text 245 871 DT: dt value (optional). Type: float.;
#X obj 20 901 cnv 1 745 1 empty empty empty 17 7 0 10 -203890 -1 0;
#X obj 20 906 cnv 5 73 26 empty empty methods: 4 10 0 14 -262144
-49933 0;
#X msg 110 941 a;
#X text 245 941 Arguments are:;
#X obj 255 964 cnv 1 15 23 empty empty empty 17 7 0 10 -245695 -1 0;
#X text 255 964 A: a value. Type: float.;
#X msg 110 989 b;
#X text 245 989 Arguments are:;
#X obj 255 1012 cnv 1 14 23 empty empty empty 17 7 0 10 -245695 -1 0;
#X text 255 1012 B: b value. Type: float.;
#X msg 110 1037 c;
#X text 245 1037 Arguments are:;
#X obj 255 1060 cnv 1 13 23 empty empty empty 17 7 0 10 -245695 -1 0;
#X text 255 1060 C: c value. Type: float.;
#X msg 110 1085 d;
#X text 245 1085 Arguments are:;
#X obj 255 1108 cnv 1 14 23 empty empty empty 17 7 0 10 -245695 -1 0;
#X text 255 1108 D: d value. Type: float.;
#X msg 110 1133 dt;
#X text 245 1133 Arguments are:;
#X obj 255 1156 cnv 1 22 23 empty empty empty 17 7 0 10 -245695 -1 0;
#X text 255 1156 DT: dt value. Type: float.;
#X msg 110 1181 om;
#X text 245 1181 Arguments are:;
#X obj 255 1204 cnv 1 21 23 empty empty empty 17 7 0 10 -245695 -1 0;
#X text 255 1204 OM: enables output when cut or fold value is changed.
Type: int.;
#X msg 110 1244 om;
#X text 245 1244 Arguments are:;
#X obj 255 1267 cnv 1 21 23 empty empty empty 17 7 0 10 -245695 -1 0;
#X text 255 1267 OM: enables output when cut or fold value is changed.
Type: int.;
#X msg 110 1307 r;
#X text 245 1307 Arguments are:;
#X obj 255 1330 cnv 1 14 23 empty empty empty 17 7 0 10 -245695 -1 0;
#X text 255 1330 R: r value. Type: float.;
#X msg 110 1355 reset;
#X text 245 1355 reset state.;
#X msg 110 1382 set;
#X text 245 1382 Arguments are:;
#X obj 255 1405 cnv 1 29 23 empty empty empty 17 7 0 10 -245695 -1 0;
#X text 255 1405 SET: set to value. Type: float.;
#X obj 20 1440 cnv 1 745 1 empty empty empty 17 7 0 10 -203890 -1 0;
#X obj 20 1445 cnv 5 64 26 empty empty inlets: 4 10 0 14 -262144
-49933 0;
#X text 110 1446 1\.;
#X text 150 1446 *bang*;
#X text 245 1446 output value.;
#X obj 20 1476 cnv 1 745 1 empty empty empty 17 7 0 10 -203890 -1 0;
#X obj 20 1481 cnv 5 73 26 empty empty outlets: 4 10 0 14 -262144
-49933 0;
#X text 110 1482 1\.;
#X text 245 1482 a outlet.;
#X text 110 1502 2\.;
#X text 245 1502 b outlet.;
#X text 110 1522 3\.;
#X text 245 1522 c outlet.;
#X text 110 1542 4\.;
#X text 245 1542 d outlet.;
#X text 110 1562 5\.;
#X text 245 1562 e outlet.;
#X obj 10 48 ui.link @title index @url ../index-help.pd;
#X text 51 45 ::;
#X obj 67 48 ui.link @title ceammc @url ceammc-help.pd;
#X text 115 45 ::;
#X obj 131 48 ui.link @title noise @url ceammc.noise-help.pd;
#X obj 1 1612 cnv 5 765 48 empty empty empty 17 7 0 10 -203890 -1 0;
#X text 10 1615 library: ceammc v0.9.7;
#N canvas 10 1634 400 290 info 0;
#X obj 1 1 cnv 1 107 287 empty empty empty 17 7 0 10 -183085 -1 0;
#X text 10 10 library:;
#X text 120 10 ceammc;
#X text 10 32 version:;
#X text 120 32 0.9.7;
#X text 10 54 object:;
#X text 120 54 noise.navier_stokes;
#X text 10 76 category:;
#X text 120 76 noise;
#X text 10 98 since:;
#X text 120 98 0.5;
#X text 10 120 authors:;
#X text 120 120 Richard Dudas \, André Sier;
#X text 10 142 license:;
#X text 120 142 %;
#X text 10 164 keywords:;
#X text 120 164 noise;
#X text 10 186 website:;
#X obj 120 189 ui.link @title https://github.com/uliss/pure-data @url
https://github.com/uliss/pure-data;
#X obj 120 208 declare -lib ceammc;
#X obj 120 268 cnv 1 270 1 empty empty empty 17 7 0 10 -203890 -1 0;
#X text 120 268 generated by pddoc;
#X restore 10 1634 pd info;
#X connect 13 0 14 0;
#X connect 15 0 17 0;
#X connect 16 0 18 0;
#X connect 20 0 22 0;
#X connect 21 0 23 0;
#X connect 24 0 28 0;
#X connect 25 0 29 0;
#X connect 26 0 30 0;
#X connect 27 0 31 0;
#X connect 32 0 33 0;
#X connect 22 0 32 0;
#X connect 23 0 32 0;
#X connect 28 0 32 0;
#X connect 29 0 32 0;
#X connect 30 0 32 0;
#X connect 31 0 32 0;
#X connect 17 0 32 0;
#X connect 18 0 32 0;
#X connect 19 0 32 0;
#X connect 14 0 32 0;