#N canvas 0 0 785 555 12;
#X declare -lib ceammc;
#X obj 569 50 cnv 1 196 23 empty empty empty 17 7 0 10 -245760 -1 0;
#X text 569 50 collatz conjecture output;
#X obj 1 1 cnv 5 765 40 empty empty noise.collatz 20 20 0 20 -104026
-4096 0;
#X obj 646 11 noise.collatz;
#X obj 210 80 cnv 1 555 35 empty empty empty 17 7 0 10 -257983 -1 0;
#X text 215 80 Collatz conjecture output;
#X obj 50 143 tgl 15 0 empty empty empty 17 7 0 10 -262144 -1 -1 0 1;
#X obj 50 172 metro 50;
#X obj 69 201 tgl 15 0 empty empty empty 17 7 0 10 -262144 -1 -1 0 1;
#X msg 69 230 om \$1;
#X floatatom 59 259 5 0 0 0 - - -;
#X obj 251 259 tgl 15 0 empty empty empty 17 7 0 10 -262144 -1 -1 0 1;
#X msg 59 287 offset \$1;
#X msg 251 287 mode \$1;
#X obj 50 330 noise.collatz;
#X obj 50 359 ui.display;
#X obj 20 408 cnv 1 745 1 empty empty empty 17 7 0 10 -203890 -1 0;
#X obj 20 413 cnv 5 90 26 empty empty arguments: 4 10 0 14 -262144
-49933 0;
#X obj 20 468 cnv 1 745 1 empty empty empty 17 7 0 10 -203890 -1 0;
#X obj 20 473 cnv 5 73 26 empty empty methods: 4 10 0 14 -262144
-49933 0;
#X msg 110 508 mode;
#X text 245 508 Arguments are:;
#X obj 255 531 cnv 1 37 23 empty empty empty 17 7 0 10 -245695 -1 0;
#X text 255 531 MODE: mode value. 0 for Collatz \, 1 for Terras. Type:
int.;
#X msg 110 556 offset;
#X text 245 556 Arguments are:;
#X obj 255 579 cnv 1 52 23 empty empty empty 17 7 0 10 -245695 -1 0;
#X text 255 579 OFFSET: offset value. Type: float.;
#X msg 110 604 om;
#X text 245 604 Arguments are:;
#X obj 255 627 cnv 1 21 23 empty empty empty 17 7 0 10 -245695 -1 0;
#X text 255 627 OM: enables output when cut or fold value is changed.
Type: int.;
#X obj 20 677 cnv 1 745 1 empty empty empty 17 7 0 10 -203890 -1 0;
#X obj 20 682 cnv 5 64 26 empty empty inlets: 4 10 0 14 -262144 -49933
0;
#X text 110 683 1\.;
#X text 150 683 *bang*;
#X text 245 683 output value.;
#X obj 20 713 cnv 1 745 1 empty empty empty 17 7 0 10 -203890 -1 0;
#X obj 20 718 cnv 5 73 26 empty empty outlets: 4 10 0 14 -262144
-49933 0;
#X text 110 719 1\.;
#X text 245 719 main outlet.;
#X obj 10 48 ui.link @title index @url ../index-help.pd;
#X text 51 45 ::;
#X obj 67 48 ui.link @title ceammc @url ceammc-help.pd;
#X text 115 45 ::;
#X obj 131 48 ui.link @title noise @url ceammc.noise-help.pd;
#X obj 1 769 cnv 5 765 48 empty empty empty 17 7 0 10 -203890 -1 0;
#X text 10 772 library: ceammc v0.9.7;
#N canvas 10 791 400 290 info 0;
#X obj 1 1 cnv 1 107 287 empty empty empty 17 7 0 10 -183085 -1 0;
#X text 10 10 library:;
#X text 120 10 ceammc;
#X text 10 32 version:;
#X text 120 32 0.9.7;
#X text 10 54 object:;
#X text 120 54 noise.collatz;
#X text 10 76 category:;
#X text 120 76 noise;
#X text 10 98 since:;
#X text 120 98 0.5;
#X text 10 120 authors:;
#X text 120 120 André Sier;
#X text 10 142 license:;
#X text 120 142 %;
#X text 10 164 keywords:;
#X text 120 164 noise;
#X text 10 186 website:;
#X obj 120 189 ui.link @title https://github.com/uliss/pure-data @url
https://github.com/uliss/pure-data;
#X obj 120 208 declare -lib ceammc;
#X obj 120 268 cnv 1 270 1 empty empty empty 17 7 0 10 -203890 -1 0;
#X text 120 268 generated by pddoc;
#X restore 10 791 pd info;
#X connect 6 0 7 0;
#X connect 8 0 9 0;
#X connect 10 0 12 0;
#X connect 11 0 13 0;
#X connect 14 0 15 0;
#X connect 9 0 14 0;
#X connect 12 0 14 0;
#X connect 13 0 14 0;
#X connect 7 0 14 0;