#N canvas 0 0 785 555 12;
#X declare -lib ceammc;
#X obj 621 50 cnv 1 144 23 empty empty empty 17 7 0 10 -245760 -1 0;
#X text 621 50 clifford attractor;
#X obj 1 1 cnv 5 765 40 empty empty noise.clifford 20 20 0 20 -104026
-4096 0;
#X obj 639 11 noise.clifford;
#X obj 210 80 cnv 1 555 135 empty empty empty 17 7 0 10 -257983 -1 0;
#X text 215 80 Clifford Attractors;
#X text 215 105 Attributed to Cliff Pickover;
#X text 215 130 x[n+1] = sin(a*y[n]) + c*cos(a*x[n]);
#X text 215 155 y[n+1] = sin(b*x[n]) + d*cos(b*y[n]);
#X text 215 180 where a \, b \, c \, d are variables that define each
attractor.;
#X obj 50 243 tgl 15 0 empty empty empty 17 7 0 10 -262144 -1 -1 0 1;
#X obj 126 243 ui.dsp~;
#X msg 222 243 set -1.4 1.6 1.0 0.7;
#X msg 482 243 set 1.7 1.7 0.06 1.2;
#X obj 50 272 metro 50;
#X msg 232 272 set 1.1 -1.0 1.0 1.5;
#X msg 491 272 set 1.3 1.7 0.5 1.4;
#X obj 69 301 tgl 15 0 empty empty empty 17 7 0 10 -262144 -1 -1 0 1;
#X floatatom 184 301 5 0 0 0 - - -;
#X msg 232 301 set 1.6 -0.6 -1.2 1.6;
#X msg 69 330 om \$1;
#X msg 184 330 set \$1;
#X msg 318 330 reset;
#X floatatom 59 359 5 0 0 0 - - -;
#X floatatom 194 359 5 0 0 0 - - -;
#X msg 59 387 x \$1;
#X msg 194 387 y \$1;
#X floatatom 88 416 5 0 0 0 - - -;
#X floatatom 184 416 5 0 0 0 - - -;
#X floatatom 280 416 5 0 0 0 - - -;
#X floatatom 376 416 5 0 0 0 - - -;
#X msg 88 445 a \$1;
#X msg 184 445 b \$1;
#X msg 280 445 c \$1;
#X msg 376 445 d \$1;
#X obj 50 474 noise.clifford -1.4 1.6 1 0.7;
#X obj 50 503 l->l -2 2 3 30;
#X obj 213 503 l->l -2 2 0 20;
#X obj 50 531 lop~ 20;
#X obj 213 531 l->l -2 2 100 2000;
#X obj 50 560 osc.saw~;
#X obj 50 589 flt.resonlp~;
#X obj 50 618 dyn.limit~;
#X obj 50 646 ui.hgain~;
#X obj 50 675 dac~;
#X obj 20 724 cnv 1 745 1 empty empty empty 17 7 0 10 -203890 -1 0;
#X obj 20 729 cnv 5 90 26 empty empty arguments: 4 10 0 14 -262144
-49933 0;
#X text 110 764 1\.;
#X text 150 764 float;
#X obj 246 765 cnv 1 17 20 empty empty empty 17 7 0 10 -245695 -1 0;
#X text 245 764 X: x value (optional). Type: float.;
#X text 110 784 2\.;
#X text 150 784 float;
#X obj 246 785 cnv 1 17 20 empty empty empty 17 7 0 10 -245695 -1 0;
#X text 245 784 Y: y value (optional). Type: float.;
#X text 110 804 3\.;
#X text 150 804 float;
#X obj 246 805 cnv 1 17 20 empty empty empty 17 7 0 10 -245695 -1 0;
#X text 245 804 A: a value (optional). Type: float.;
#X text 110 824 4\.;
#X text 150 824 float;
#X obj 246 825 cnv 1 16 20 empty empty empty 17 7 0 10 -245695 -1 0;
#X text 245 824 B: b value (optional). Type: float.;
#X text 110 844 5\.;
#X text 150 844 float;
#X obj 246 845 cnv 1 16 20 empty empty empty 17 7 0 10 -245695 -1 0;
#X text 245 844 C: c value (optional). Type: float.;
#X text 110 864 6\.;
#X text 150 864 float;
#X obj 246 865 cnv 1 16 20 empty empty empty 17 7 0 10 -245695 -1 0;
#X text 245 864 D: d value (optional). Type: float.;
#X obj 20 894 cnv 1 745 1 empty empty empty 17 7 0 10 -203890 -1 0;
#X obj 20 899 cnv 5 73 26 empty empty methods: 4 10 0 14 -262144
-49933 0;
#X msg 110 934 a;
#X text 245 934 Arguments are:;
#X obj 255 957 cnv 1 15 23 empty empty empty 17 7 0 10 -245695 -1 0;
#X text 255 957 A: a value. Type: float.;
#X msg 110 982 b;
#X text 245 982 Arguments are:;
#X obj 255 1005 cnv 1 14 23 empty empty empty 17 7 0 10 -245695 -1 0;
#X text 255 1005 B: b value. Type: float.;
#X msg 110 1030 c;
#X text 245 1030 Arguments are:;
#X obj 255 1053 cnv 1 13 23 empty empty empty 17 7 0 10 -245695 -1 0;
#X text 255 1053 C: c value. Type: float.;
#X msg 110 1078 d;
#X text 245 1078 Arguments are:;
#X obj 255 1101 cnv 1 14 23 empty empty empty 17 7 0 10 -245695 -1 0;
#X text 255 1101 D: d value. Type: float.;
#X msg 110 1126 om;
#X text 245 1126 Arguments are:;
#X obj 255 1149 cnv 1 21 23 empty empty empty 17 7 0 10 -245695 -1 0;
#X text 255 1149 OM: enables output when cut or fold value is changed.
Type: int.;
#X msg 110 1189 reset;
#X text 245 1189 reset state.;
#X msg 110 1216 set;
#X text 245 1216 Arguments are:;
#X obj 255 1239 cnv 1 29 23 empty empty empty 17 7 0 10 -245695 -1 0;
#X text 255 1239 SET: set to value. Type: float.;
#X msg 110 1264 x;
#X text 245 1264 Arguments are:;
#X obj 255 1287 cnv 1 15 23 empty empty empty 17 7 0 10 -245695 -1 0;
#X text 255 1287 X: x value. Type: float.;
#X msg 110 1312 y;
#X text 245 1312 Arguments are:;
#X obj 255 1335 cnv 1 15 23 empty empty empty 17 7 0 10 -245695 -1 0;
#X text 255 1335 Y: y value. Type: float.;
#X obj 20 1370 cnv 1 745 1 empty empty empty 17 7 0 10 -203890 -1 0;
#X obj 20 1375 cnv 5 64 26 empty empty inlets: 4 10 0 14 -262144
-49933 0;
#X text 110 1376 1\.;
#X text 150 1376 *bang*;
#X text 245 1376 output value.;
#X obj 20 1406 cnv 1 745 1 empty empty empty 17 7 0 10 -203890 -1 0;
#X obj 20 1411 cnv 5 73 26 empty empty outlets: 4 10 0 14 -262144
-49933 0;
#X text 110 1412 1\.;
#X text 245 1412 x output.;
#X text 110 1432 2\.;
#X text 245 1432 y output.;
#X obj 10 48 ui.link @title index @url ../index-help.pd;
#X text 51 45 ::;
#X obj 67 48 ui.link @title ceammc @url ceammc-help.pd;
#X text 115 45 ::;
#X obj 131 48 ui.link @title noise @url ceammc.noise-help.pd;
#X obj 1 1482 cnv 5 765 48 empty empty empty 17 7 0 10 -203890 -1 0;
#X text 10 1485 library: ceammc v0.9.6;
#N canvas 10 1504 400 290 info 0;
#X obj 1 1 cnv 1 107 287 empty empty empty 17 7 0 10 -183085 -1 0;
#X text 10 10 library:;
#X text 120 10 ceammc;
#X text 10 32 version:;
#X text 120 32 0.9.6;
#X text 10 54 object:;
#X text 120 54 noise.clifford;
#X text 10 76 category:;
#X text 120 76 noise;
#X text 10 98 since:;
#X text 120 98 0.5;
#X text 10 120 authors:;
#X text 120 120 André Sier;
#X text 10 142 license:;
#X text 120 142 BSD;
#X text 10 164 keywords:;
#X text 120 164 noise;
#X text 10 186 website:;
#X obj 120 189 ui.link @title https://github.com/uliss/pure-data @url
https://github.com/uliss/pure-data;
#X obj 120 208 declare -lib ceammc;
#X obj 120 268 cnv 1 270 1 empty empty empty 17 7 0 10 -203890 -1 0;
#X text 120 268 generated by pddoc;
#X restore 10 1504 pd info;
#X connect 10 0 14 0;
#X connect 17 0 20 0;
#X connect 18 0 21 0;
#X connect 23 0 25 0;
#X connect 24 0 26 0;
#X connect 27 0 31 0;
#X connect 28 0 32 0;
#X connect 29 0 33 0;
#X connect 30 0 34 0;
#X connect 35 0 36 0;
#X connect 36 0 38 0;
#X connect 38 0 40 0;
#X connect 40 0 41 0;
#X connect 41 0 42 0;
#X connect 42 0 43 0;
#X connect 43 0 44 0;
#X connect 43 0 44 1;
#X connect 25 0 35 0;
#X connect 26 0 35 0;
#X connect 35 0 39 0;
#X connect 35 1 37 0;
#X connect 39 0 41 1;
#X connect 37 0 41 2;
#X connect 31 0 35 0;
#X connect 32 0 35 0;
#X connect 33 0 35 0;
#X connect 34 0 35 0;
#X connect 12 0 35 0;
#X connect 15 0 35 0;
#X connect 19 0 35 0;
#X connect 13 0 35 0;
#X connect 16 0 35 0;
#X connect 20 0 35 0;
#X connect 21 0 35 0;
#X connect 22 0 35 0;
#X connect 14 0 35 0;