#N canvas 0 0 785 555 12;
#X declare -lib ceammc;
#X obj 568 50 cnv 1 197 23 empty empty empty 17 7 0 10 -245760 -1 0;
#X text 568 50 lyapunov random attractor;
#X obj 1 1 cnv 5 765 40 empty empty noise.lyapunov 20 20 0 20 -104026
-4096 0;
#X obj 639 11 noise.lyapunov;
#X obj 210 80 cnv 1 555 440 empty empty empty 17 7 0 10 -257983 -1 0;
#X text 215 80 inspired by Paul Bourke \, implementation by André Sier;
#X text 215 105 ---;
#X text 215 130 lyapunov random attractors;
#X text 215 155 ---;
#X text 215 180 Paul Bourke's words http://astronomy.swin.edu.au/%7Epbourke/fractals/lyapunov/;
#X text 215 220 ---;
#X text 215 245 On average 98% of the random selections of (an \, bn)
result in an infinite series.;
#X text 215 285 This is so common because of the range (-2<=a \, b<=2)
for each of the parameters a and b \, the number of infinite cases
will reduce greatly with a smaller range.;
#X text 215 340 About 1% were point attractors \, and about 0.5% were
periodic basins of attraction.;
#X text 215 380 ===;
#X text 215 405 x[n+1] = a[0] + a[1]*x[n] + a[2]*x[n]^2 + a[3]*x[n]*y[n]
+ a[4]*y[n] + a[5]*y[n]^2;
#X text 215 445 y[n+1] = b[0] + b[1]*x[n] + b[2]*x[n]^2 + b[3]*x[n]*y[n]
+ b[4]*y[n] + b[5]*y[n]^2;
#X text 215 485 ===;
#X obj 50 548 tgl 15 0 empty empty empty 17 7 0 10 -262144 -1 -1 0 1;
#X obj 50 577 metro 50;
#X obj 69 620 tgl 15 0 empty empty empty 17 7 0 10 -262144 -1 -1 0 1;
#X floatatom 184 620 5 0 0 0 - - -;
#X msg 69 649 om \$1;
#X msg 184 649 set \$1;
#X msg 318 649 reset;
#X floatatom 59 678 5 0 0 0 - - -;
#X floatatom 194 678 5 0 0 0 - - -;
#X msg 59 707 x \$1;
#X msg 194 707 y \$1;
#X floatatom 88 735 5 0 0 0 - - -;
#X floatatom 184 735 5 0 0 0 - - -;
#X msg 88 764 a \$1;
#X msg 184 764 b \$1;
#X obj 50 793 noise.lyapunov;
#X obj 50 822 ui.display;
#X obj 20 871 cnv 1 745 1 empty empty empty 17 7 0 10 -203890 -1 0;
#X obj 20 876 cnv 5 90 26 empty empty arguments: 4 10 0 14 -262144
-49933 0;
#X text 110 911 1\.;
#X text 150 911 float;
#X obj 246 912 cnv 1 17 20 empty empty empty 17 7 0 10 -245695 -1 0;
#X text 245 911 A: a value (optional). Type: float.;
#X text 110 931 2\.;
#X text 150 931 float;
#X obj 246 932 cnv 1 16 20 empty empty empty 17 7 0 10 -245695 -1 0;
#X text 245 931 B: b value (optional). Type: float.;
#X text 110 951 3\.;
#X text 150 951 float;
#X obj 246 952 cnv 1 17 20 empty empty empty 17 7 0 10 -245695 -1 0;
#X text 245 951 X: x value (optional). Type: float.;
#X text 110 971 4\.;
#X text 150 971 float;
#X obj 246 972 cnv 1 17 20 empty empty empty 17 7 0 10 -245695 -1 0;
#X text 245 971 Y: y value (optional). Type: float.;
#X obj 20 1001 cnv 1 745 1 empty empty empty 17 7 0 10 -203890 -1 0;
#X obj 20 1006 cnv 5 73 26 empty empty methods: 4 10 0 14 -262144
-49933 0;
#X msg 110 1041 a;
#X text 245 1041 Arguments are:;
#X obj 255 1064 cnv 1 22 23 empty empty empty 17 7 0 10 -245695 -1 0;
#X text 255 1064 A0: a[0] value. Type: float.;
#X obj 255 1087 cnv 1 31 23 empty empty empty 17 7 0 10 -245695 -1 0;
#X text 255 1087 [A1]: a[1] value. Type: float.;
#X obj 255 1110 cnv 1 31 23 empty empty empty 17 7 0 10 -245695 -1 0;
#X text 255 1110 [A2]: a[2] value. Type: float.;
#X obj 255 1133 cnv 1 31 23 empty empty empty 17 7 0 10 -245695 -1 0;
#X text 255 1133 [A3]: a[3] value. Type: float.;
#X obj 255 1156 cnv 1 31 23 empty empty empty 17 7 0 10 -245695 -1 0;
#X text 255 1156 [A4]: a[4] value. Type: float.;
#X obj 255 1179 cnv 1 31 23 empty empty empty 17 7 0 10 -245695 -1 0;
#X text 255 1179 [A5]: a[5] value. Type: float.;
#X msg 110 1204 b;
#X text 245 1204 Arguments are:;
#X obj 255 1227 cnv 1 21 23 empty empty empty 17 7 0 10 -245695 -1 0;
#X text 255 1227 B0: b[0] value. Type: float.;
#X obj 255 1250 cnv 1 31 23 empty empty empty 17 7 0 10 -245695 -1 0;
#X text 255 1250 [B1]: b[1] value. Type: float.;
#X obj 255 1273 cnv 1 31 23 empty empty empty 17 7 0 10 -245695 -1 0;
#X text 255 1273 [B2]: b[2] value. Type: float.;
#X obj 255 1296 cnv 1 31 23 empty empty empty 17 7 0 10 -245695 -1 0;
#X text 255 1296 [B3]: b[3] value. Type: float.;
#X obj 255 1319 cnv 1 31 23 empty empty empty 17 7 0 10 -245695 -1 0;
#X text 255 1319 [B4]: b[4] value. Type: float.;
#X obj 255 1342 cnv 1 31 23 empty empty empty 17 7 0 10 -245695 -1 0;
#X text 255 1342 [B5]: b[5] value. Type: float.;
#X msg 110 1367 om;
#X text 245 1367 Arguments are:;
#X obj 255 1390 cnv 1 21 23 empty empty empty 17 7 0 10 -245695 -1 0;
#X text 255 1390 OM: enables output when cut or fold value is changed.
Type: int.;
#X msg 110 1430 reset;
#X text 245 1430 reset state.;
#X msg 110 1457 set;
#X text 245 1457 Arguments are:;
#X obj 255 1480 cnv 1 29 23 empty empty empty 17 7 0 10 -245695 -1 0;
#X text 255 1480 SET: set to value. Type: float.;
#X msg 110 1505 x;
#X text 245 1505 Arguments are:;
#X obj 255 1528 cnv 1 23 23 empty empty empty 17 7 0 10 -245695 -1 0;
#X text 255 1528 NX: x value. Type: float.;
#X msg 110 1553 y;
#X text 245 1553 Arguments are:;
#X obj 255 1576 cnv 1 22 23 empty empty empty 17 7 0 10 -245695 -1 0;
#X text 255 1576 NY: y value. Type: float.;
#X obj 20 1611 cnv 1 745 1 empty empty empty 17 7 0 10 -203890 -1 0;
#X obj 20 1616 cnv 5 64 26 empty empty inlets: 4 10 0 14 -262144
-49933 0;
#X text 110 1617 1\.;
#X text 150 1617 *bang*;
#X text 245 1617 output value.;
#X obj 20 1647 cnv 1 745 1 empty empty empty 17 7 0 10 -203890 -1 0;
#X obj 20 1652 cnv 5 73 26 empty empty outlets: 4 10 0 14 -262144
-49933 0;
#X text 110 1653 1\.;
#X text 245 1653 x outlet.;
#X text 110 1673 2\.;
#X text 245 1673 y outlet.;
#X obj 10 48 ui.link @title index @url ../index-help.pd;
#X text 51 45 ::;
#X obj 67 48 ui.link @title ceammc @url ceammc-help.pd;
#X text 115 45 ::;
#X obj 131 48 ui.link @title noise @url ceammc.noise-help.pd;
#X obj 1 1723 cnv 5 765 48 empty empty empty 17 7 0 10 -203890 -1 0;
#X text 10 1726 library: ceammc v0.9.7;
#N canvas 10 1745 400 290 info 0;
#X obj 1 1 cnv 1 107 287 empty empty empty 17 7 0 10 -183085 -1 0;
#X text 10 10 library:;
#X text 120 10 ceammc;
#X text 10 32 version:;
#X text 120 32 0.9.7;
#X text 10 54 object:;
#X text 120 54 noise.lyapunov;
#X text 10 76 category:;
#X text 120 76 noise;
#X text 10 98 since:;
#X text 120 98 0.5;
#X text 10 120 authors:;
#X text 120 120 André Sier;
#X text 10 142 license:;
#X text 120 142 %;
#X text 10 164 keywords:;
#X text 120 164 noise;
#X text 10 186 website:;
#X obj 120 189 ui.link @title https://github.com/uliss/pure-data @url
https://github.com/uliss/pure-data;
#X obj 120 208 declare -lib ceammc;
#X obj 120 268 cnv 1 270 1 empty empty empty 17 7 0 10 -203890 -1 0;
#X text 120 268 generated by pddoc;
#X restore 10 1745 pd info;
#X connect 18 0 19 0;
#X connect 20 0 22 0;
#X connect 21 0 23 0;
#X connect 25 0 27 0;
#X connect 26 0 28 0;
#X connect 29 0 31 0;
#X connect 30 0 32 0;
#X connect 33 0 34 0;
#X connect 27 0 33 0;
#X connect 28 0 33 0;
#X connect 31 0 33 0;
#X connect 32 0 33 0;
#X connect 22 0 33 0;
#X connect 23 0 33 0;
#X connect 24 0 33 0;
#X connect 19 0 33 0;