#N canvas 0 0 785 555 12;
#X declare -lib ceammc;
#X obj 338 50 cnv 1 427 23 empty empty empty 17 7 0 10 -245760 -1 0;
#X text 338 50 colored noise generator with an arbitrary spectral roll;
#X obj 1 1 cnv 5 765 40 empty empty noise.colored~ 20 20 0 20 -104026
-4096 0;
#X obj 638 11 noise.colored~;
#X obj 210 80 cnv 1 555 80 empty empty empty 17 7 0 10 -257983 -1 0;
#X text 215 80 Generates a colored noise signal with an arbitrary spectral
roll-off factor (alpha) over the entire audible frequency range (20-20000
Hz). The output is normalized so that an equal RMS level is maintained
for different values of alpha.;
#X obj 50 188 ui.k -1 1 @show_value 1;
#X obj 69 246 ui.tab brown pink white blue velvet @size 200 16;
#X msg 69 275 \$2;
#X obj 50 304 noise.colored~;
#X obj 50 332 ui.gain~ @size 120 16;
#X obj 280 332 ui.ssc~ @size 300 120 @log_scale 1;
#X obj 50 419 dac~;
#X obj 50 448 ui.dsp~;
#X obj 20 497 cnv 1 745 1 empty empty empty 17 7 0 10 -203890 -1 0;
#X obj 20 502 cnv 5 90 26 empty empty arguments: 4 10 0 14 -262144
-49933 0;
#X text 110 537 1\.;
#X text 150 537 float;
#X obj 246 538 cnv 1 47 20 empty empty empty 17 7 0 10 -245695 -1 0;
#X text 245 537 ALPHA: slope of roll-off \, between -1 and 1\. -1 corresponds
to brown/red noise \, -1/2 pink noise \, 0 white noise \, 1/2 blue
noise \, and 1 violet/azure noise.. Type: float. Range: -1\...1;
#X obj 20 597 cnv 1 745 1 empty empty empty 17 7 0 10 -203890 -1 0;
#X obj 20 602 cnv 5 98 26 empty empty properties: 4 10 0 14 -262144
-49933 0;
#X msg 110 637 @id;
#X text 245 637 (initonly) Get/Set OSC address id. If specified \,
bind all properties to /ID/noise_colored/PROP_NAME osc address \, if
empty bind to /noise_colored/PROP_NAME. Type: symbol.;
#X msg 110 694 @osc;
#X text 245 694 (initonly) Get/Set OSC server name to listen. Type:
symbol.;
#X msg 110 723 @active;
#X text 245 723 Turn on/off dsp processing. Type: bool. Default value:
1\.;
#X msg 110 752 @alpha;
#X text 245 752 Get/Set slope of roll-off \, between -1 and 1\. -1
corresponds to brown/red noise \, -1/2 pink noise \, 0 white noise
\, 1/2 blue noise \, and 1 violet/azure noise. Type: float. Default
value: 0\. Range: -1\...1\.;
#X obj 20 834 cnv 1 745 1 empty empty empty 17 7 0 10 -203890 -1 0;
#X obj 20 839 cnv 5 73 26 empty empty methods: 4 10 0 14 -262144
-49933 0;
#X msg 110 874 blue;
#X text 245 874 set to blue noise (roll-off factor 0.5).;
#X msg 110 901 brown;
#X text 245 901 set to brown/red noise (roll-off factor -1).;
#X msg 110 928 pink;
#X text 245 928 set to pink noise (roll-off factor -0.5).;
#X msg 110 955 velvet;
#X text 245 955 set to velvet noise (roll-off factor 1).;
#X msg 110 982 white;
#X text 245 982 set to white noise (roll-off factor 0).;
#X obj 20 1019 cnv 1 745 1 empty empty empty 17 7 0 10 -203890 -1 0;
#X obj 20 1024 cnv 5 64 26 empty empty inlets: 4 10 0 14 -262144
-49933 0;
#X text 110 1025 1\.;
#X text 150 1025 *float*;
#X text 245 1025 set roll-off frequency.;
#X obj 20 1055 cnv 1 745 1 empty empty empty 17 7 0 10 -203890 -1 0;
#X obj 20 1060 cnv 5 73 26 empty empty outlets: 4 10 0 14 -262144
-49933 0;
#X text 110 1061 1\.;
#X text 245 1061 output signal.;
#X obj 10 48 ui.link @title index @url ../index-help.pd;
#X text 51 45 ::;
#X obj 67 48 ui.link @title ceammc @url ceammc-help.pd;
#X text 115 45 ::;
#X obj 131 48 ui.link @title noise @url ceammc.noise-help.pd;
#X obj 1 1111 cnv 5 765 48 empty empty empty 17 7 0 10 -203890 -1 0;
#X text 10 1114 library: ceammc v0.9.6;
#N canvas 10 1133 400 290 info 0;
#X obj 1 1 cnv 1 107 287 empty empty empty 17 7 0 10 -183085 -1 0;
#X text 10 10 library:;
#X text 120 10 ceammc;
#X text 10 32 version:;
#X text 120 32 0.9.6;
#X text 10 54 object:;
#X text 120 54 noise.colored~;
#X text 10 76 category:;
#X text 120 76 noise;
#X text 10 98 since:;
#X text 120 98 0.9.6;
#X text 10 120 authors:;
#X text 120 120 Serge Poltavsky;
#X text 10 142 license:;
#X text 120 142 GPL3 or later;
#X text 10 164 keywords:;
#X text 120 164 noise \, colored \, white \, red \, brown \, blue \,
velvet;
#X text 10 186 website:;
#X obj 120 189 ui.link @title https://github.com/uliss/pure-data @url
https://github.com/uliss/pure-data;
#X obj 120 208 declare -lib ceammc;
#X obj 120 268 cnv 1 270 1 empty empty empty 17 7 0 10 -203890 -1 0;
#X text 120 268 generated by pddoc;
#X restore 10 1133 pd info;
#X connect 7 0 8 0;
#X connect 6 0 9 0;
#X connect 8 0 9 0;
#X connect 9 0 10 0;
#X connect 9 0 11 0;
#X connect 10 0 12 0;
#X connect 10 0 12 1;