#N canvas 0 0 785 555 12;
#X declare -lib ceammc;
#X obj 598 50 cnv 1 167 23 empty empty empty 17 7 0 10 -245760 -1 0;
#X text 598 50 verhulst distribution;
#X obj 1 1 cnv 5 765 40 empty empty noise.verhulst 20 20 0 20 -104026
-4096 0;
#X obj 639 11 noise.verhulst;
#X obj 210 80 cnv 1 555 35 empty empty empty 17 7 0 10 -257983 -1 0;
#X text 215 80 Verhulst distribution;
#X obj 50 143 tgl 15 0 empty empty empty 17 7 0 10 -262144 -1 -1 0 1;
#X obj 50 172 metro 50;
#X obj 69 215 tgl 15 0 empty empty empty 17 7 0 10 -262144 -1 -1 0 1;
#X floatatom 184 215 5 0 0 0 - - -;
#X msg 69 244 om \$1;
#X msg 184 244 set \$1;
#X msg 318 244 reset;
#X floatatom 59 273 5 0 0 0 - - -;
#X floatatom 290 273 5 0 0 0 - - -;
#X msg 59 302 lambda \$1;
#X msg 290 302 seed \$1;
#X obj 50 330 noise.verhulst;
#X obj 50 359 ui.display;
#X obj 20 409 cnv 1 745 1 empty empty empty 17 7 0 10 -203890 -1 0;
#X obj 20 414 cnv 5 90 25 empty empty arguments: 4 10 0 14 -262144
-49933 0;
#X text 110 449 1.;
#X text 150 449 float;
#X obj 246 450 cnv 1 40 20 empty empty empty 17 7 0 10 -245695 -1 0;
#X text 245 449 ARG0: a value (optional). Type: float.;
#X text 110 469 2.;
#X text 150 469 float;
#X obj 246 470 cnv 1 40 20 empty empty empty 17 7 0 10 -245695 -1 0;
#X text 245 469 ARG1: b value (optional). Type: float.;
#X text 110 489 3.;
#X text 150 489 float;
#X obj 246 490 cnv 1 40 20 empty empty empty 17 7 0 10 -245695 -1 0;
#X text 245 489 ARG2: x value (optional). Type: float.;
#X text 110 509 4.;
#X text 150 509 float;
#X obj 246 510 cnv 1 40 20 empty empty empty 17 7 0 10 -245695 -1 0;
#X text 245 509 ARG3: y value (optional). Type: float.;
#X obj 20 539 cnv 1 745 1 empty empty empty 17 7 0 10 -203890 -1 0;
#X obj 20 544 cnv 5 73 25 empty empty methods: 4 10 0 14 -262144
-49933 0;
#X msg 110 579 lambda;
#X text 245 579 Arguments are:;
#X obj 255 602 cnv 1 52 23 empty empty empty 17 7 0 10 -245695 -1 0;
#X text 255 602 LAMBDA: lambda value. Type: float.;
#X msg 110 627 om;
#X text 245 627 Arguments are:;
#X obj 255 650 cnv 1 22 23 empty empty empty 17 7 0 10 -245695 -1 0;
#X text 255 650 OM: enables output when cut or fold value is changed.
Type: int.;
#X msg 110 690 reset;
#X text 245 690 reset state.;
#X msg 110 718 seed;
#X text 245 718 Arguments are:;
#X obj 255 741 cnv 1 37 23 empty empty empty 17 7 0 10 -245695 -1 0;
#X text 255 741 SEED: seed value. Type: float.;
#X msg 110 766 set;
#X text 245 766 Arguments are:;
#X obj 255 789 cnv 1 30 23 empty empty empty 17 7 0 10 -245695 -1 0;
#X text 255 789 SET: set to value. Type: float.;
#X obj 20 824 cnv 1 745 1 empty empty empty 17 7 0 10 -203890 -1 0;
#X obj 20 829 cnv 5 64 25 empty empty inlets: 4 10 0 14 -262144 -49933
0;
#X text 110 830 1.;
#X text 150 830 *bang*;
#X text 245 830 output value.;
#X obj 20 860 cnv 1 745 1 empty empty empty 17 7 0 10 -203890 -1 0;
#X obj 20 865 cnv 5 73 25 empty empty outlets: 4 10 0 14 -262144
-49933 0;
#X text 110 866 1.;
#X text 245 866 main outlet.;
#X obj 10 48 ui.link @title index @url ../index-help.pd;
#X text 51 45 ::;
#X obj 68 48 ui.link @title ceammc @url ceammc-help.pd;
#X text 116 45 ::;
#X obj 133 48 ui.link @title noise @url ceammc.noise-help.pd;
#X obj 1 916 cnv 5 765 48 empty empty empty 17 7 0 10 -203890 -1 0;
#X text 10 919 library: ceammc v0.9.7;
#N canvas 10 938 400 290 info 0;
#X obj 1 1 cnv 1 107 287 empty empty empty 17 7 0 10 -183085 -1 0;
#X text 10 10 library:;
#X text 120 10 ceammc;
#X text 10 32 version:;
#X text 120 32 0.9.7;
#X text 10 54 object:;
#X text 120 54 noise.verhulst;
#X text 10 76 category:;
#X text 120 76 noise;
#X text 10 98 since:;
#X text 120 98 0.5;
#X text 10 120 authors:;
#X text 120 120 André Sier;
#X text 10 142 license:;
#X text 120 142 %;
#X text 10 164 keywords:;
#X text 120 164 noise;
#X text 10 186 website:;
#X obj 120 189 ui.link @title https://github.com/uliss/pd-ceammc @url
https://github.com/uliss/pd-ceammc;
#X obj 120 208 declare -lib ceammc;
#X obj 120 268 cnv 1 270 1 empty empty empty 17 7 0 10 -203890 -1 0;
#X text 120 268 generated by pddoc;
#X restore 10 938 pd info;
#X connect 6 0 7 0;
#X connect 8 0 10 0;
#X connect 9 0 11 0;
#X connect 13 0 15 0;
#X connect 14 0 16 0;
#X connect 17 0 18 0;
#X connect 15 0 17 0;
#X connect 16 0 17 0;
#X connect 10 0 17 0;
#X connect 11 0 17 0;
#X connect 12 0 17 0;
#X connect 7 0 17 0;