#N canvas 0 0 785 555 12;
#X declare -lib ceammc;
#X obj 668 50 cnv 1 97 23 empty empty empty 17 7 0 10 -245760 -1 0;
#X text 668 50 Lorenz chaos;
#X obj 1 1 cnv 5 765 40 empty empty noise.lorenz 20 20 0 20 -104026
-4096 0;
#X obj 653 11 noise.lorenz;
#X obj 210 80 cnv 1 555 109 empty empty empty 17 7 0 10 -257983 -1 0;
#X text 215 80 Lorenz chaos by Heuns method - extra accuracy;
#X text 215 105 sigma replaced with a;
#X text 215 130 b replaced with c;
#X obj 215 155 ui.link @background_color 0.98039 0.98039 0.98039
@title wiki: Lorenz system @url
https://en.wikipedia.org/wiki/Lorenz_system;
#X obj 50 217 tgl 15 0 empty empty empty 17 7 0 10 -262144 -1 -1 0 1;
#X obj 50 246 metro 50;
#X obj 69 289 tgl 15 0 empty empty empty 17 7 0 10 -262144 -1 -1 0 1;
#X floatatom 184 289 5 0 0 0 - - -;
#X msg 69 318 om \$1;
#X msg 184 318 set \$1;
#X msg 318 318 reset;
#X floatatom 59 347 5 0 0 0 - - -;
#X floatatom 194 347 5 0 0 0 - - -;
#X msg 59 376 r \$1;
#X msg 194 376 dt \$1;
#X floatatom 88 404 5 0 0 0 - - -;
#X floatatom 184 404 5 0 0 0 - - -;
#X msg 88 433 a \$1;
#X msg 184 433 c \$1;
#X floatatom 126 462 5 0 0 0 - - -;
#X floatatom 222 462 5 0 0 0 - - -;
#X floatatom 318 462 5 0 0 0 - - -;
#X msg 126 491 x \$1;
#X msg 222 491 y \$1;
#X msg 318 491 z \$1;
#X obj 50 520 noise.lorenz;
#X obj 50 548 ui.display;
#X obj 20 598 cnv 1 745 1 empty empty empty 17 7 0 10 -203890 -1 0;
#X obj 20 603 cnv 5 90 25 empty empty arguments: 4 12 0 14 -262144
-49933 0;
#X obj 735 606 ui.link @background_color 0.98039 0.98039 0.98039
@title [?] @url ceammc.args-info.pd;
#X text 110 638 1\.;
#X text 150 638 float;
#X obj 246 639 cnv 1 17 20 empty empty empty 17 7 0 10 -245695 -1 0;
#X text 245 638 X: x value (optional). Type: float.;
#X text 110 658 2\.;
#X text 150 658 float;
#X obj 246 659 cnv 1 17 20 empty empty empty 17 7 0 10 -245695 -1 0;
#X text 245 658 Y: y value (optional). Type: float.;
#X text 110 678 3\.;
#X text 150 678 float;
#X obj 246 679 cnv 1 16 20 empty empty empty 17 7 0 10 -245695 -1 0;
#X text 245 678 Z: z value (optional). Type: float.;
#X text 110 698 4\.;
#X text 150 698 float;
#X obj 246 699 cnv 1 17 20 empty empty empty 17 7 0 10 -245695 -1 0;
#X text 245 698 A: a value (optional). Type: float.;
#X text 110 718 5\.;
#X text 150 718 float;
#X obj 246 719 cnv 1 16 20 empty empty empty 17 7 0 10 -245695 -1 0;
#X text 245 718 R: r value (optional). Type: float.;
#X text 110 738 6\.;
#X text 150 738 float;
#X obj 246 739 cnv 1 16 20 empty empty empty 17 7 0 10 -245695 -1 0;
#X text 245 738 C: c value (optional). Type: float.;
#X text 110 758 7\.;
#X text 150 758 float;
#X obj 246 759 cnv 1 24 20 empty empty empty 17 7 0 10 -245695 -1 0;
#X text 245 758 DT: dt value (optional). Type: float.;
#X obj 20 788 cnv 1 745 1 empty empty empty 17 7 0 10 -203890 -1 0;
#X obj 20 793 cnv 5 73 25 empty empty methods: 4 12 0 14 -262144
-49933 0;
#X msg 110 828 a;
#X text 245 828 Arguments are:;
#X obj 255 851 cnv 1 15 23 empty empty empty 17 7 0 10 -245695 -1 0;
#X text 255 851 A: a value. Type: float.;
#X msg 110 876 c;
#X text 245 876 Arguments are:;
#X obj 255 899 cnv 1 14 23 empty empty empty 17 7 0 10 -245695 -1 0;
#X text 255 899 B: b value. Type: float.;
#X msg 110 924 dt;
#X text 245 924 Arguments are:;
#X obj 255 947 cnv 1 22 23 empty empty empty 17 7 0 10 -245695 -1 0;
#X text 255 947 DT: dt value. Type: float.;
#X msg 110 972 om;
#X text 245 972 Arguments are:;
#X obj 255 995 cnv 1 22 23 empty empty empty 17 7 0 10 -245695 -1 0;
#X text 255 995 OM: enables output when cut or fold value is changed.
Type: int.;
#X msg 110 1035 r;
#X text 245 1035 Arguments are:;
#X obj 255 1058 cnv 1 15 23 empty empty empty 17 7 0 10 -245695 -1 0;
#X text 255 1058 R: r value. Type: float.;
#X msg 110 1083 reset;
#X text 245 1083 reset state.;
#X msg 110 1111 set;
#X text 245 1111 Arguments are:;
#X obj 255 1134 cnv 1 30 23 empty empty empty 17 7 0 10 -245695 -1 0;
#X text 255 1134 SET: set to value. Type: float.;
#X msg 110 1159 x;
#X text 245 1159 Arguments are:;
#X obj 255 1182 cnv 1 23 23 empty empty empty 17 7 0 10 -245695 -1 0;
#X text 255 1182 NX: x value. Type: float.;
#X msg 110 1207 y;
#X text 245 1207 Arguments are:;
#X obj 255 1230 cnv 1 23 23 empty empty empty 17 7 0 10 -245695 -1 0;
#X text 255 1230 NY: y value. Type: float.;
#X msg 110 1255 z;
#X text 245 1255 Arguments are:;
#X obj 255 1278 cnv 1 23 23 empty empty empty 17 7 0 10 -245695 -1 0;
#X text 255 1278 NZ: z value. Type: float.;
#X obj 20 1313 cnv 1 745 1 empty empty empty 17 7 0 10 -203890 -1 0;
#X obj 20 1318 cnv 5 64 25 empty empty inlets: 4 12 0 14 -262144
-49933 0;
#X text 110 1319 1\.;
#X text 150 1319 *bang*;
#X text 245 1319 output value.;
#X obj 20 1349 cnv 1 745 1 empty empty empty 17 7 0 10 -203890 -1 0;
#X obj 20 1354 cnv 5 73 25 empty empty outlets: 4 12 0 14 -262144
-49933 0;
#X text 110 1355 1\.;
#X text 245 1355 x outlet.;
#X text 110 1375 2\.;
#X text 245 1375 y outlet.;
#X text 110 1395 3\.;
#X text 245 1395 z outlet.;
#X obj 10 48 ui.link @title index @url ../index-help.pd;
#X text 51 45 ::;
#X obj 68 48 ui.link @title ceammc @url ceammc-help.pd;
#X text 116 45 ::;
#X obj 133 48 ui.link @title noise @url ceammc.noise-help.pd;
#X obj 1 1445 cnv 5 765 48 empty empty empty 17 7 0 10 -203890 -1 0;
#X text 10 1448 library: ceammc v0.9.7;
#N canvas 10 1467 400 290 info 0;
#X obj 1 1 cnv 1 107 287 empty empty empty 17 7 0 10 -183085 -1 0;
#X text 10 10 library:;
#X text 120 10 ceammc;
#X text 10 32 version:;
#X text 120 32 0.9.7;
#X text 10 54 object:;
#X text 120 54 noise.lorenz;
#X text 10 76 category:;
#X text 120 76 noise;
#X text 10 98 since:;
#X text 120 98 0.5;
#X text 10 120 authors:;
#X text 120 120 Richard Dudas \, Mikhail Malt \, André Sier;
#X text 10 142 license:;
#X text 120 142 %;
#X text 10 164 keywords:;
#X text 120 164 noise;
#X text 10 186 website:;
#X obj 120 189 ui.link @title https://github.com/uliss/pd-ceammc @url
https://github.com/uliss/pd-ceammc;
#X obj 120 208 declare -lib ceammc;
#X obj 120 268 cnv 1 270 1 empty empty empty 17 7 0 10 -203890 -1 0;
#X text 120 268 generated by pddoc;
#X restore 10 1467 pd info;
#X connect 9 0 10 0;
#X connect 11 0 13 0;
#X connect 12 0 14 0;
#X connect 16 0 18 0;
#X connect 17 0 19 0;
#X connect 20 0 22 0;
#X connect 21 0 23 0;
#X connect 24 0 27 0;
#X connect 25 0 28 0;
#X connect 26 0 29 0;
#X connect 30 0 31 0;
#X connect 18 0 30 0;
#X connect 19 0 30 0;
#X connect 22 0 30 0;
#X connect 23 0 30 0;
#X connect 27 0 30 0;
#X connect 28 0 30 0;
#X connect 29 0 30 0;
#X connect 13 0 30 0;
#X connect 14 0 30 0;
#X connect 15 0 30 0;
#X connect 10 0 30 0;