#N canvas 0 0 256 187 12;
#X floatatom 20 48 5 0 0 0 - - -;
#X floatatom 87 48 5 0 0 0 - - -;
#X msg 87 77 duty \$1;
#X obj 20 106 osc.pulse~ 220 0.5 id;
#X obj 221 120 tgl 15 0 empty empty empty 17 7 0 10 -262144 -1 -1 0 1;
#X obj 20 149 *~;
#X obj 20 178 dac~;
#X connect 5 0 6 0;
#X connect 0 0 3 0;
#X connect 1 0 2 0;
#X connect 5 0 6 1;
#X connect 2 0 3 0;
#X connect 4 0 5 1;
#X connect 3 0 5 0;
