#N canvas 0 0 715 555 12;
#X declare -lib ceammc;
#X obj 419 50 cnv 1 276 21 empty empty empty 17 7 0 10 -245760 -1 0;
#X text 419 50 Bandlimited square wave oscillator;
#X obj 1 1 cnv 5 712 40 empty empty osc.square~ 20 20 0 20 -104026
-4096 0;
#X obj 606 11 osc.square~;
#X floatatom 50 118 5 0 0 0 - - -;
#X obj 155 118 ui.dsp~;
#X msg 50 147 \$1 50;
#X obj 50 176 line~;
#X msg 165 176 bang;
#X obj 50 205 osc.square~;
#X obj 50 234 ui.gain~ @size 120 14;
#X obj 50 262 dac~;
#X obj 136 262 ui.scope~ @size 150 100;
#X obj 20 384 cnv 1 685 1 empty empty empty 17 7 0 10 -203890 -1 0;
#X obj 20 389 cnv 5 90 26 empty empty arguments: 4 10 0 14 -262144
-49933 0;
#X text 120 394 1\.;
#X text 150 394 float;
#X obj 241 395 cnv 1 72 18 empty empty empty 17 7 0 10 -245695 -1 0;
#X text 240 394 freq(Hz): frequency.;
#X obj 20 422 cnv 1 685 1 empty empty empty 17 7 0 10 -203890 -1 0;
#X obj 20 427 cnv 5 98 26 empty empty properties: 4 10 0 14 -262144
-49933 0;
#X msg 120 432 @active;
#X text 240 432 Get/Set on/off dsp processing. Type: int. Default
value: 1\. Allowed values: 0 \, 1;
#X obj 20 479 cnv 1 685 1 empty empty empty 17 7 0 10 -203890 -1 0;
#X obj 20 484 cnv 5 64 26 empty empty inlets: 4 10 0 14 -262144 -49933
0;
#X text 120 489 1\.;
#X text 150 489 *float*;
#X text 240 489 frequency in Hz.;
#X text 120 507 2\.;
#X text 150 507 *bang*;
#X text 240 507 reset phase.;
#X obj 20 535 cnv 1 685 1 empty empty empty 17 7 0 10 -203890 -1 0;
#X obj 20 540 cnv 5 73 26 empty empty outlets: 4 10 0 14 -262144
-49933 0;
#X text 120 545 1\.;
#X text 240 545 output signal;
#X obj 10 48 ui.link @title index @url ../index-help.pd;
#X text 51 45 ::;
#X obj 67 48 ui.link @title ceammc @url ceammc-help.pd;
#X text 115 45 ::;
#X obj 131 48 ui.link @title osc @url ceammc.osc-help.pd;
#X obj 1 593 cnv 5 712 48 empty empty empty 17 7 0 10 -203890 -1 0;
#X text 10 596 library: ceammc v0.6;
#X text 386 608 see also:;
#X obj 462 608 osc.saw~;
#X obj 536 608 osc.tri~;
#X obj 610 608 lfo.square~;
#N canvas 10 615 400 290 info 0;
#X obj 1 1 cnv 1 107 287 empty empty empty 17 7 0 10 -183085 -1 0;
#X text 10 10 library:;
#X text 120 10 ceammc;
#X text 10 32 version:;
#X text 120 32 0.6;
#X text 10 54 object:;
#X text 120 54 osc.square~;
#X text 10 76 category:;
#X text 120 76 osc;
#X text 10 98 since:;
#X text 120 98 0.1;
#X text 10 120 authors:;
#X text 120 120 Serge Poltavsky;
#X text 10 142 license:;
#X text 120 142 GPL3;
#X text 10 164 keywords:;
#X text 120 164 oscillator \, band-limited;
#X text 10 186 website:;
#X obj 120 189 ui.link @title https://github.com/uliss/pure-data @url
https://github.com/uliss/pure-data;
#X obj 120 208 declare -lib ceammc;
#X obj 120 268 cnv 1 270 1 empty empty empty 17 7 0 10 -203890 -1 0;
#X text 120 268 generated by pddoc;
#X restore 10 615 pd info;
#X connect 4 0 6 0;
#X connect 6 0 7 0;
#X connect 7 0 9 0;
#X connect 8 0 9 1;
#X connect 9 0 10 0;
#X connect 10 0 11 0;
#X connect 10 0 11 1;
#X connect 10 0 12 0;