#N canvas 0 0 234 201 12;
#X floatatom 20 48 5 0 0 0 - - -;
#X floatatom 96 48 5 0 0 0 - - -;
#X obj 39 77 bng 15 250 50 0 empty empty empty 17 7 0 10 -262144 -1
-1;
#X msg 96 77 feedback \$1;
#X obj 20 106 osc.sinfb~ 440 2;
#X obj 48 135 tgl 15 0 empty empty empty 17 7 0 10 -262144 -1 -1 0 1;
#X obj 173 135 print;
#X obj 20 164 *~;
#X obj 20 192 dac~;
#X connect 5 0 7 1;
#X connect 4 1 6 0;
#X connect 1 0 3 0;
#X connect 2 0 4 0;
#X connect 3 0 4 0;
#X connect 7 0 8 1;
#X connect 4 0 7 0;
#X connect 0 0 4 0;
#X connect 7 0 8 0;
