#N canvas 0 0 715 555 12;
#X declare -lib ceammc;
#X obj 530 50 cnv 1 165 21 empty empty empty 17 7 0 10 -245760 -1 0;
#X text 530 50 Sine wave oscillator;
#X obj 1 1 cnv 5 712 40 empty empty osc.sin~ 20 20 0 20 -104026 -4096
0;
#X obj 628 11 osc.sin~;
#X obj 205 80 cnv 1 490 33 empty empty empty 17 7 0 10 -257983 -1 0;
#X text 210 80 included for library comprehension;
#X floatatom 50 141 5 0 0 0 - - -;
#X obj 50 170 osc.sin~ 440;
#X obj 50 199 ui.gain~ @size 120 16;
#X obj 280 199 ui.dsp~;
#X obj 50 228 dac~;
#X obj 20 267 cnv 1 685 1 empty empty empty 17 7 0 10 -203890 -1 0;
#X obj 20 272 cnv 5 90 26 empty empty arguments: 4 10 0 14 -262144
-49933 0;
#X text 120 277 1\.;
#X text 150 277 float;
#X obj 241 278 cnv 1 72 18 empty empty empty 17 7 0 10 -245695 -1 0;
#X text 240 277 freq(Hz): frequency. Min value: 20;
#X obj 20 305 cnv 1 685 1 empty empty empty 17 7 0 10 -203890 -1 0;
#X obj 20 310 cnv 5 98 26 empty empty properties: 4 10 0 14 -262144
-49933 0;
#X msg 120 315 @active;
#X text 240 315 Get/Set on/off dsp processing. Type: int. Default
value: 1\. Allowed values: 0 \, 1;
#X obj 20 362 cnv 1 685 1 empty empty empty 17 7 0 10 -203890 -1 0;
#X obj 20 367 cnv 5 64 26 empty empty inlets: 4 10 0 14 -262144 -49933
0;
#X text 120 372 1\.;
#X text 240 372 frequency in Hz.;
#X text 120 390 2\.;
#X text 150 390 *bang*;
#X text 240 390 reset phase.;
#X obj 20 418 cnv 1 685 1 empty empty empty 17 7 0 10 -203890 -1 0;
#X obj 20 423 cnv 5 73 26 empty empty outlets: 4 10 0 14 -262144
-49933 0;
#X text 120 428 1\.;
#X text 240 428 output signal;
#X obj 10 48 ui.link @title index @url ../index-help.pd;
#X text 51 45 ::;
#X obj 67 48 ui.link @title ceammc @url ceammc-help.pd;
#X text 115 45 ::;
#X obj 131 48 ui.link @title osc @url ceammc.osc-help.pd;
#X obj 1 505 cnv 5 712 48 empty empty empty 17 7 0 10 -203890 -1 0;
#X text 10 508 library: ceammc v0.7;
#X text 283 520 see also:;
#X obj 359 520 osc.saw~;
#X obj 433 520 osc.tri~;
#X obj 507 520 osc.square~;
#X obj 603 520 lfo.impulse~;
#N canvas 10 527 400 290 info 0;
#X obj 1 1 cnv 1 107 287 empty empty empty 17 7 0 10 -183085 -1 0;
#X text 10 10 library:;
#X text 120 10 ceammc;
#X text 10 32 version:;
#X text 120 32 0.7;
#X text 10 54 object:;
#X text 120 54 osc.sin~;
#X text 10 76 category:;
#X text 120 76 osc;
#X text 10 98 since:;
#X text 120 98 0.7;
#X text 10 120 authors:;
#X text 120 120 Serge Poltavsky;
#X text 10 142 license:;
#X text 120 142 GPL3;
#X text 10 164 keywords:;
#X text 120 164 oscillator \, band-limited;
#X text 10 186 website:;
#X obj 120 189 ui.link @title https://github.com/uliss/pure-data @url
https://github.com/uliss/pure-data;
#X obj 120 208 declare -lib ceammc;
#X obj 120 268 cnv 1 270 1 empty empty empty 17 7 0 10 -203890 -1 0;
#X text 120 268 generated by pddoc;
#X restore 10 527 pd info;
#X connect 6 0 7 0;
#X connect 7 0 8 0;
#X connect 8 0 10 0;
#X connect 8 0 10 1;