#N canvas 0 0 400 173 12;
#X msg 58 48 1 2;
#X msg 116 48 3 4;
#X msg 173 48 list a b;
#X msg 279 48 a b;
#X msg 336 48 reset;
#X floatatom 20 77 5 0 0 0 - - -;
#X obj 77 77 bng 15 250 50 0 empty empty empty 17 7 0 10 -262144 -1
-1;
#X symbolatom 135 77 5 0 0 0 - - -;
#X obj 20 106 pass.changed;
#X obj 20 135 prepend set;
#X obj 192 135 print passed;
#X msg 20 164 ;
#X connect 9 0 11 0;
#X connect 0 0 8 0;
#X connect 7 0 8 0;
#X connect 5 0 8 0;
#X connect 3 0 8 0;
#X connect 8 0 10 0;
#X connect 1 0 8 0;
#X connect 6 0 8 0;
#X connect 4 0 8 0;
#X connect 2 0 8 0;
#X connect 8 0 9 0;
