#N canvas 0 0 715 555 12;
#X declare -lib ceammc -lib creammc;
#X obj 453 50 cnv 1 242 21 empty empty empty 17 7 0 10 -245760 -1 0;
#X text 453 50 rejects redundant input values;
#X obj 1 1 cnv 5 712 40 empty empty pass.changed 20 20 0 20 -104026
-4096 0;
#X obj 601 11 pass.changed;
#X obj 205 80 cnv 1 490 84 empty empty empty 17 7 0 10 -257983 -1 0;
#X text 210 80 The pass.changed object outputs its input only when it
changed. You can "set" the current value \, or bang to force output.;
#X text 210 131 Note: [list a b c( and [a b c( are different values!;
#X msg 88 192 1 2;
#X msg 146 192 3 4;
#X msg 203 192 list a b;
#X msg 309 192 a b;
#X msg 366 192 reset;
#X floatatom 50 221 5 0 0 0 - - -;
#X obj 107 221 bng 15 250 50 0 empty empty empty 17 7 0 10 -262144 -1
-1;
#X symbolatom 165 221 5 0 0 0 - - -;
#X obj 50 250 pass.changed;
#X obj 50 279 msg set;
#X obj 222 279 print passed;
#X msg 50 308 ;
#X obj 20 347 cnv 1 685 1 empty empty empty 17 7 0 10 -203890 -1 0;
#X obj 20 352 cnv 5 73 26 empty empty methods: 4 10 0 14 -262144
-49933 0;
#X msg 120 357 reset;
#X text 240 357 resets state.;
#X msg 120 389 set;
#X text 240 389 sets current value \, but without output.;
#X obj 20 431 cnv 1 685 1 empty empty empty 17 7 0 10 -203890 -1 0;
#X obj 20 436 cnv 5 64 26 empty empty inlets: 4 10 0 14 -262144 -49933
0;
#X text 120 441 1\.;
#X text 150 441 *bang*;
#X text 240 441 force output current value.;
#X obj 20 469 cnv 1 685 1 empty empty empty 17 7 0 10 -203890 -1 0;
#X obj 20 474 cnv 5 73 26 empty empty outlets: 4 10 0 14 -262144
-49933 0;
#X text 120 479 1\.;
#X text 240 479 output only if input changed;
#X obj 10 48 ui.link @title index @url ../index-help.pd;
#X text 51 45 ::;
#X obj 67 48 ui.link @title ceammc @url ceammc-help.pd;
#X text 115 45 ::;
#X obj 131 48 ui.link @title pass @url ceammc.pass-help.pd;
#X obj 1 527 cnv 5 712 48 empty empty empty 17 7 0 10 -203890 -1 0;
#X text 10 530 library: ceammc v0.2;
#X text 570 542 see also:;
#X obj 646 542 change;
#N canvas 10 549 400 290 info 0;
#X obj 1 1 cnv 1 107 287 empty empty empty 17 7 0 10 -183085 -1 0;
#X text 10 10 library:;
#X text 120 10 ceammc;
#X text 10 32 version:;
#X text 120 32 0.2;
#X text 10 54 object:;
#X text 120 54 pass.changed;
#X text 10 76 category:;
#X text 120 76 pass;
#X text 10 98 since:;
#X text 120 98 0.1;
#X text 10 120 authors:;
#X text 120 120 Serge Poltavsky;
#X text 10 142 license:;
#X text 120 142 GPL3;
#X text 10 164 keywords:;
#X text 120 164 pass \, change;
#X text 10 186 website:;
#X obj 120 189 ui.link @title https://github.com/uliss/pure-data @url
https://github.com/uliss/pure-data;
#X obj 120 208 declare -lib ceammc -lib creammc;
#X obj 120 268 cnv 1 270 1 empty empty empty 17 7 0 10 -203890 -1 0;
#X text 120 268 generated by pddoc;
#X restore 10 549 pd info;
#X connect 12 0 15 0;
#X connect 14 0 15 0;
#X connect 11 0 15 0;
#X connect 15 0 17 0;
#X connect 9 0 15 0;
#X connect 7 0 15 0;
#X connect 8 0 15 0;
#X connect 13 0 15 0;
#X connect 15 0 16 0;
#X connect 16 0 18 0;
#X connect 10 0 15 0;