#N canvas 0 0 785 555 12;
#X declare -lib ceammc;
#X obj 560 50 cnv 1 205 23 empty empty empty 17 7 0 10 -245760 -1 0;
#X text 560 50 pattern filename generator;
#X obj 1 1 cnv 5 765 40 empty empty path.pattern 20 20 0 20 -104026
-4096 0;
#X obj 653 11 path.pattern;
#X obj 210 80 cnv 1 555 325 empty empty empty 17 7 0 10 -257983 -1 0;
#X text 215 80 Note: generate NEW filename (checks that generated filename
not exists);
#X text 215 120 ### sequence is replaced with number;
#X text 215 145 Following variables in pattern expanded:;
#X text 215 170 • %YEAR% - current year (4-digits);
#X text 215 195 • %MONTH% - current month (2-digits);
#X text 215 220 • %DAY% - current day (2-digits);
#X text 215 245 • %HOUR% - current hour (2-digits);
#X text 215 270 • %MIN% - current minute (2-digits);
#X text 215 295 • %SEC% - current second (2-digits);
#X text 215 320 • %TIME% - current time: %HOUR%-%MIN%-%SEC%;
#X text 215 345 • %DATE% - current date: %YEAR%-%MONTH%-%DAY%;
#X text 215 370 • %NOW% - current datetime: %DATE%_%TIME%;
#X msg 50 433 symbol file-###.wav;
#X msg 78 462 symbol ~/test-%NOW%.wav;
#X msg 107 491 bang;
#X obj 50 520 path.pattern;
#X obj 50 549 ui.dt @auto_size 0 @size 400 40;
#X obj 20 599 cnv 1 745 1 empty empty empty 17 7 0 10 -203890 -1 0;
#X obj 20 604 cnv 5 90 25 empty empty arguments: 4 10 0 14 -262144
-49933 0;
#X text 110 639 1\.;
#X text 150 639 symbol;
#X obj 246 640 cnv 1 62 20 empty empty empty 17 7 0 10 -245695 -1 0;
#X text 245 639 PATTERN: filename generation pattern. Type: symbol.;
#X obj 20 669 cnv 1 745 1 empty empty empty 17 7 0 10 -203890 -1 0;
#X obj 20 674 cnv 5 98 25 empty empty properties: 4 10 0 14 -262144
-49933 0;
#X msg 110 709 @pattern;
#X text 245 709 Get/Set filename pattern. Type: symbol.;
#X obj 20 749 cnv 1 745 1 empty empty empty 17 7 0 10 -203890 -1 0;
#X obj 20 754 cnv 5 64 25 empty empty inlets: 4 10 0 14 -262144 -49933
0;
#X text 110 755 1\.;
#X text 150 755 *bang*;
#X text 245 755 output generated filename pattern.;
#X text 150 775 *symbol*;
#X text 245 775 set new pattern and generate filename pattern.;
#X obj 20 805 cnv 1 745 1 empty empty empty 17 7 0 10 -203890 -1 0;
#X obj 20 810 cnv 5 73 25 empty empty outlets: 4 10 0 14 -262144
-49933 0;
#X text 110 811 1\.;
#X text 245 811 symbol: filename.;
#X obj 10 48 ui.link @title index @url ../index-help.pd;
#X text 51 45 ::;
#X obj 68 48 ui.link @title ceammc @url ceammc-help.pd;
#X text 116 45 ::;
#X obj 133 48 ui.link @title path @url ceammc.path-help.pd;
#X obj 1 861 cnv 5 765 48 empty empty empty 17 7 0 10 -203890 -1 0;
#X text 10 864 library: ceammc v0.9.7;
#N canvas 10 883 400 290 info 0;
#X obj 1 1 cnv 1 107 287 empty empty empty 17 7 0 10 -183085 -1 0;
#X text 10 10 library:;
#X text 120 10 ceammc;
#X text 10 32 version:;
#X text 120 32 0.9.7;
#X text 10 54 object:;
#X text 120 54 path.pattern;
#X text 10 76 category:;
#X text 120 76 path;
#X text 10 98 since:;
#X text 120 98 0.9.5;
#X text 10 120 authors:;
#X text 120 120 Serge Poltavsky;
#X text 10 142 license:;
#X text 120 142 GPL3 or later;
#X text 10 164 keywords:;
#X text 120 164 path \, environment \, pattern \, filename;
#X text 10 186 website:;
#X obj 120 189 ui.link @title https://github.com/uliss/pd-ceammc @url
https://github.com/uliss/pd-ceammc;
#X obj 120 208 declare -lib ceammc;
#X obj 120 268 cnv 1 270 1 empty empty empty 17 7 0 10 -203890 -1 0;
#X text 120 268 generated by pddoc;
#X restore 10 883 pd info;
#X connect 17 0 20 0;
#X connect 18 0 20 0;
#X connect 19 0 20 0;
#X connect 20 0 21 0;