#N canvas 0 0 785 555 12;
#X declare -lib ceammc;
#X obj 676 50 cnv 1 89 23 empty empty empty 17 7 0 10 -245760 -1 0;
#X text 676 50 file search;
#X obj 1 1 cnv 5 765 40 empty empty path.search 20 20 0 20 -104026
-4096 0;
#X obj 661 11 path.search;
#X obj 210 80 cnv 1 555 220 empty empty empty 17 7 0 10 -257983 -1 0;
#X text 215 80 Searches file by name in user specified or PureData
system paths.;
#X text 215 120 Outputs first found file.;
#X text 215 145 Search order: 1\. user defined paths (@path property)
\, 2\. current patch directory \, 3\. PureData system path \, 4\. home
directory.;
#X text 215 200 Absolute paths processed before relative.;
#X text 215 225 Home directory can be specified with '~' symbol.;
#X text 215 250 Note: by default search request is performed asynchronously
\, so a delay will occured between input and output.;
#X msg 50 328 symbol loop_breakbeat.flac;
#X obj 472 328 path.search.std;
#X msg 50 357 symbol guitar1.wav;
#X obj 472 357 path.search.home;
#X symbolatom 78 386 30 0 0 0 - - -;
#X msg 107 415 @paths sound;
#X text 242 415 change search path;
#X obj 50 444 path.search;
#X msg 155 472 not found;
#X obj 50 501 ui.dt @size 500 35 @auto_size 0;
#X obj 20 550 cnv 1 745 1 empty empty empty 17 7 0 10 -203890 -1 0;
#X obj 20 555 cnv 5 90 26 empty empty arguments: 4 10 0 14 -262144
-49933 0;
#X text 110 590 1\.;
#X text 150 590 list;
#X obj 246 591 cnv 1 46 20 empty empty empty 17 7 0 10 -245695 -1 0;
#X text 245 590 PATHS: list of paths \, can be quoted to handle whitespace..
Type: list.;
#X obj 20 635 cnv 1 745 1 empty empty empty 17 7 0 10 -203890 -1 0;
#X obj 20 640 cnv 5 98 26 empty empty properties: 4 10 0 14 -262144
-49933 0;
#X msg 110 675 @async;
#X text 245 675 Get/Set perform async search in separate thread. Type:
int. Default value: 1\. Allowed values: 0 \, 1\.;
#X msg 110 717 @depth;
#X text 245 717 Get/Set search recursion depth (-1: infinite). Type:
int. Default value: 0\. Min value: -1\.;
#X msg 110 759 @home;
#X text 245 759 Get/Set search in home directory. Type: int. Default
value: 1\. Allowed values: 0 \, 1\.;
#X msg 110 801 @nohome;
#X text 245 801 alias to @home 0 \, do not search in home directory.;
#X msg 110 830 @nostd;
#X text 245 830 alias to @std 0 \, do not search in standard dirs.;
#X msg 110 859 @paths;
#X text 245 859 Get/Set user defined search paths. Type: list.;
#X msg 110 888 @std;
#X text 245 888 Get/Set search in PureData standard directory. Type:
int. Default value: 1\. Allowed values: 0 \, 1\.;
#X msg 110 930 @sync;
#X text 245 930 alias to @async 0\.;
#X obj 20 969 cnv 1 745 1 empty empty empty 17 7 0 10 -203890 -1 0;
#X obj 20 974 cnv 5 73 26 empty empty methods: 4 10 0 14 -262144
-49933 0;
#X msg 110 1009 cancel;
#X text 245 1009 cancel search process.;
#X obj 20 1046 cnv 1 745 1 empty empty empty 17 7 0 10 -203890 -1 0;
#X obj 20 1051 cnv 5 64 26 empty empty inlets: 4 10 0 14 -262144
-49933 0;
#X text 110 1052 1\.;
#X text 150 1052 *symbol*;
#X text 245 1052 filename.;
#X text 150 1072 *data:string*;
#X text 245 1072 filename.;
#X obj 20 1102 cnv 1 745 1 empty empty empty 17 7 0 10 -203890 -1 0;
#X obj 20 1107 cnv 5 73 26 empty empty outlets: 4 10 0 14 -262144
-49933 0;
#X text 110 1108 1\.;
#X text 245 1108 symbol: full filename.;
#X text 110 1128 2\.;
#X text 245 1128 bang: if not found.;
#X obj 10 48 ui.link @title index @url ../index-help.pd;
#X text 51 45 ::;
#X obj 67 48 ui.link @title ceammc @url ceammc-help.pd;
#X text 115 45 ::;
#X obj 131 48 ui.link @title path @url ceammc.path-help.pd;
#X obj 1 1178 cnv 5 765 48 empty empty empty 17 7 0 10 -203890 -1 0;
#X text 10 1181 library: ceammc v0.9.4;
#X text 601 1193 see also:;
#X obj 675 1193 file.size;
#N canvas 10 1200 400 290 info 0;
#X obj 1 1 cnv 1 107 287 empty empty empty 17 7 0 10 -183085 -1 0;
#X text 10 10 library:;
#X text 120 10 ceammc;
#X text 10 32 version:;
#X text 120 32 0.9.4;
#X text 10 54 object:;
#X text 120 54 path.search;
#X text 10 76 category:;
#X text 120 76 path;
#X text 10 98 since:;
#X text 120 98 0.9.4;
#X text 10 120 authors:;
#X text 120 120 Serge Poltavsky;
#X text 10 142 license:;
#X text 120 142 GPL3 or later;
#X text 10 164 keywords:;
#X text 120 164 path \, environment;
#X text 10 186 website:;
#X obj 120 189 ui.link @title https://github.com/uliss/pure-data @url
https://github.com/uliss/pure-data;
#X obj 120 208 declare -lib ceammc;
#X obj 120 268 cnv 1 270 1 empty empty empty 17 7 0 10 -203890 -1 0;
#X text 120 268 generated by pddoc;
#X restore 10 1200 pd info;
#X connect 13 0 18 0;
#X connect 15 0 18 0;
#X connect 16 0 18 0;
#X connect 18 1 19 0;
#X connect 18 0 20 0;
#X connect 19 0 20 0;
#X connect 11 0 18 0;