#N canvas 0 0 785 555 12;
#X declare -lib ceammc;
#X obj 575 50 cnv 1 190 23 empty empty empty 17 7 0 10 -245760 -1 0;
#X text 575 50 filesystem event monitor;
#X obj 1 1 cnv 5 765 40 empty empty path.monitor 20 20 0 20 -104026
-4096 0;
#X obj 652 11 path.monitor;
#X obj 50 118 path.monitor "%PD%";
#X obj 50 147 ui.dt;
#X msg 50 176 open "%PD%/test.txt" w;
#X msg 69 205 write 1 2 3 \, close;
#X msg 88 234 remove "%PD%/test.txt";
#X obj 50 262 path.file;
#X obj 20 312 cnv 1 745 1 empty empty empty 17 7 0 10 -203890 -1 0;
#X obj 20 317 cnv 5 90 25 empty empty arguments: 4 12 0 14 -262144
-49933 0;
#X obj 735 320 ui.link @background_color 0.98039 0.98039 0.98039
@title [?] @url ceammc.args-info.pd;
#X text 110 352 1\.;
#X text 150 352 symbol;
#X obj 246 353 cnv 1 39 20 empty empty empty 17 7 0 10 -245695 -1 0;
#X text 245 352 PATH: directory to monitor filesystem events. Type:
symbol.;
#X obj 20 382 cnv 1 745 1 empty empty empty 17 7 0 10 -203890 -1 0;
#X obj 20 387 cnv 5 98 25 empty empty properties: 4 12 0 14 -262144
-49933 0;
#X obj 735 390 ui.link @background_color 0.98039 0.98039 0.98039
@title [?] @url ceammc.props-info.pd;
#X msg 110 422 @path;
#X text 245 422 Get/Set directory to monitor filesystem events. Type:
symbol.;
#X obj 20 462 cnv 1 745 1 empty empty empty 17 7 0 10 -203890 -1 0;
#X obj 20 467 cnv 5 64 25 empty empty inlets: 4 12 0 14 -262144 -49933
0;
#X text 110 468 1\.;
#X text 245 468 ...;
#X obj 20 498 cnv 1 745 1 empty empty empty 17 7 0 10 -203890 -1 0;
#X obj 20 503 cnv 5 73 25 empty empty outlets: 4 12 0 14 -262144
-49933 0;
#X text 110 504 1\.;
#X text 245 504 messages: [create fname( \, [update fname( \, [move
fname( \, [remove fname(.;
#X obj 10 48 ui.link @title index @url ../index-help.pd;
#X text 51 45 ::;
#X obj 68 48 ui.link @title ceammc @url ceammc-help.pd;
#X text 116 45 ::;
#X obj 133 48 ui.link @title path @url ceammc.path-help.pd;
#X obj 1 569 cnv 5 765 48 empty empty empty 17 7 0 10 -203890 -1 0;
#X text 10 572 library: ceammc v0.9.7;
#N canvas 10 591 400 290 info 0;
#X obj 1 1 cnv 1 107 287 empty empty empty 17 7 0 10 -183085 -1 0;
#X text 10 10 library:;
#X text 120 10 ceammc;
#X text 10 32 version:;
#X text 120 32 0.9.7;
#X text 10 54 object:;
#X text 120 54 path.monitor;
#X text 10 76 category:;
#X text 120 76 path;
#X text 10 98 since:;
#X text 120 98 0.9.5;
#X text 10 120 authors:;
#X text 120 120 Serge Poltavsky;
#X text 10 142 license:;
#X text 120 142 GPL3 or later;
#X text 10 164 keywords:;
#X text 120 164 path \, filesystem;
#X text 10 186 website:;
#X obj 120 189 ui.link @title https://github.com/uliss/pd-ceammc @url
https://github.com/uliss/pd-ceammc;
#X obj 120 208 declare -lib ceammc;
#X obj 120 268 cnv 1 270 1 empty empty empty 17 7 0 10 -203890 -1 0;
#X text 120 268 generated by pddoc;
#X restore 10 591 pd info;
#X connect 4 0 5 0;
#X connect 6 0 9 0;
#X connect 7 0 9 0;
#X connect 8 0 9 0;