#N canvas 0 0 785 555 12;
#X declare -lib ceammc;
#X obj 322 50 cnv 1 443 38 empty empty empty 17 7 0 10 -245760 -1 0;
#X text 322 50 outputs numbers spaced evenly on a log scale (a geometric
progression);
#X obj 1 1 cnv 5 765 40 empty empty plot.geomspace~ 20 20 0 20 -104026
-4096 0;
#X obj 630 11 plot.geomspace~;
#X obj 50 118 bng 15 250 50 0 empty empty empty 17 7 0 10 -262144 -1
-1;
#X obj 50 162 plot.geomspace~ 2 1024;
#X obj 50 190 ui.plot~ @size 400 150 @xlabels 1 @ylabels 1 @xmin_grid
1 @ymin_ticks 0 @xmin_ticks 0 @yauto 1;
#X obj 50 349 ui.dsp~;
#X obj 20 399 cnv 1 745 1 empty empty empty 17 7 0 10 -203890 -1 0;
#X obj 20 404 cnv 5 90 25 empty empty arguments: 4 12 0 14 -262144
-49933 0;
#X obj 735 407 ui.link @background_color 0.98039 0.98039 0.98039
@title [?] @url ceammc.args-info.pd;
#X text 110 439 1\.;
#X text 150 439 float;
#X obj 246 440 cnv 1 47 20 empty empty empty 17 7 0 10 -245695 -1 0;
#X text 245 439 START: @start property. Type: float. Min value: 0;
#X text 110 459 2\.;
#X text 150 459 float;
#X obj 246 460 cnv 1 39 20 empty empty empty 17 7 0 10 -245695 -1 0;
#X text 245 459 STOP: @stop property. Type: float. Min value: 0;
#X text 110 479 3\.;
#X text 150 479 int;
#X obj 246 480 cnv 1 17 20 empty empty empty 17 7 0 10 -245695 -1 0;
#X text 245 479 N: @n property. Type: int. Range: 4\...1024;
#X text 110 499 4\.;
#X text 150 499 atom;
#X obj 246 500 cnv 1 39 20 empty empty empty 17 7 0 10 -245695 -1 0;
#X text 245 499 BASE: x-axis scale base. Allowed values: 10 \, 2 \,
e. Type: atom.;
#X obj 20 544 cnv 1 745 1 empty empty empty 17 7 0 10 -203890 -1 0;
#X obj 20 549 cnv 5 98 25 empty empty properties: 4 12 0 14 -262144
-49933 0;
#X obj 735 552 ui.link @background_color 0.98039 0.98039 0.98039
@title [?] @url ceammc.props-info.pd;
#X msg 110 584 @10;
#X text 245 584 Get/Set alias to @base 10\. Type: atom.;
#X msg 110 614 @2;
#X text 245 614 Get/Set alias to @base 2\. Type: atom.;
#X msg 110 644 @base;
#X text 245 644 Get/Set x-axis scale base. Type: atom. Default value:
10\. Allowed values: 10 \, 2 \, e.;
#X msg 110 686 @e;
#X text 245 686 Get/Set alias to @base e. Type: atom.;
#X msg 110 716 @endpoint;
#X text 245 716 Get/Set include @stop to interval. Type: bool. Default
value: 1\.;
#X msg 110 758 @n;
#X text 245 758 Get/Set number of points. Type: int. Default value:
100\. Range: 4\...1024\.;
#X msg 110 800 @start;
#X text 245 800 Get/Set the starting value of the sequence. Type: float.
Default value: 0.1\. Min value: 0\.;
#X msg 110 842 @stop;
#X text 245 842 Get/Set the final value of the sequence \, unless @endpoint
is false. In that case \, @n + 1 values are spaced over the interval
in log-space \, of which all but the last (a sequence of length @n)
are returned. Type: float. Default value: 100\. Min value: 0\.;
#X obj 20 939 cnv 1 745 1 empty empty empty 17 7 0 10 -203890 -1 0;
#X obj 20 944 cnv 5 64 25 empty empty inlets: 4 12 0 14 -262144 -49933
0;
#X text 110 945 1\.;
#X text 150 945 *bang*;
#X text 245 945 starts output.;
#X text 150 965 *float*;
#X text 245 965 output specified number of values \, change @n property
valuue.;
#X obj 20 995 cnv 1 745 1 empty empty empty 17 7 0 10 -203890 -1 0;
#X obj 20 1000 cnv 5 73 25 empty empty outlets: 4 12 0 14 -262144
-49933 0;
#X text 110 1001 1\.;
#X text 245 1001 signal output.;
#X text 110 1021 2\.;
#X text 245 1021 output to [array.plot~] or [ui.plot~].;
#X obj 10 48 ui.link @title index @url ../index-help.pd;
#X text 51 45 ::;
#X obj 68 48 ui.link @title ceammc @url ceammc-help.pd;
#X text 116 45 ::;
#X obj 133 48 ui.link @title array @url ceammc.array-help.pd;
#X obj 1 1071 cnv 5 765 48 empty empty empty 17 7 0 10 -203890 -1 0;
#X text 10 1074 library: ceammc v0.9.7;
#X text 446 1086 see also:;
#X obj 521 1086 plot.linspace~;
#X obj 638 1086 plot.logspace~;
#N canvas 10 1093 400 290 info 0;
#X obj 1 1 cnv 1 107 287 empty empty empty 17 7 0 10 -183085 -1 0;
#X text 10 10 library:;
#X text 120 10 ceammc;
#X text 10 32 version:;
#X text 120 32 0.9.7;
#X text 10 54 object:;
#X text 120 54 plot.geomspace~;
#X text 10 76 category:;
#X text 120 76 array;
#X text 10 98 since:;
#X text 120 98 0.9;
#X text 10 120 authors:;
#X text 120 120 Serge Poltavsky;
#X text 10 142 license:;
#X text 120 142 GPL3 or later;
#X text 10 164 keywords:;
#X text 120 164 array \, geom \, log \, scale;
#X text 10 186 website:;
#X obj 120 189 ui.link @title https://github.com/uliss/pd-ceammc @url
https://github.com/uliss/pd-ceammc;
#X obj 120 208 declare -lib ceammc;
#X obj 120 268 cnv 1 270 1 empty empty empty 17 7 0 10 -203890 -1 0;
#X text 120 268 generated by pddoc;
#X restore 10 1093 pd info;
#X connect 4 0 5 0;
#X connect 5 0 6 0;
#X connect 5 1 6 1;