#N canvas 0 0 785 555 12;
#X declare -lib ceammc;
#X obj 475 50 cnv 1 290 23 empty empty empty 17 7 0 10 -245760 -1 0;
#X text 475 50 calculate and output signal histogram;
#X obj 1 1 cnv 5 765 40 empty empty plot.hist~ 20 20 0 20 -104026
-4096 0;
#X obj 491 11 ceammc/hist~;
#X obj 604 11 hist~;
#X obj 666 11 plot.hist~;
#X obj 50 118 noise.white~;
#X obj 194 118 osc~ 40;
#X obj 194 147 ui.hrd @nitems 2;
#X obj 50 176 flow.multiplex~ 2;
#X msg 270 176 bang;
#X obj 50 205 plot.hist~ 2048 @nbins 32;
#X obj 50 234 ui.plot~ @size 300 150 @xlabels 1 @ylabels 1 @xmin_grid
1 @ymin_ticks 0 @ymaj_ticks 0 @xmin_ticks 0 @ymin 0 @ymax 100 @mode
bars @plot_color0 0.2 0.2 0.2;
#X obj 50 392 ui.dsp~;
#X obj 20 442 cnv 1 745 1 empty empty empty 17 7 0 10 -203890 -1 0;
#X obj 20 447 cnv 5 90 25 empty empty arguments: 4 10 0 14 -262144
-49933 0;
#X text 110 482 1\.;
#X text 150 482 int;
#X obj 246 483 cnv 1 48 20 empty empty empty 17 7 0 10 -245695 -1 0;
#X text 245 482 NSAMP: @nsamp property. Type: int. Range: 8\...32768;
#X obj 20 512 cnv 1 745 1 empty empty empty 17 7 0 10 -203890 -1 0;
#X obj 20 517 cnv 5 98 25 empty empty properties: 4 10 0 14 -262144
-49933 0;
#X msg 110 552 @clip;
#X text 245 552 Get/Set clip input values into input range \, otherwise
just ignore them. Type: bool. Default value: 1\.;
#X msg 110 594 @max;
#X text 245 594 Get/Set maximum input value. Type: float. Default value:
1\.;
#X msg 110 624 @min;
#X text 245 624 Get/Set minimal input value. Type: float. Default value:
-1\.;
#X msg 110 654 @nbins;
#X text 245 654 Get/Set number of histogram bins. Type: int. Default
value: 63\. Range: 8\...512\.;
#X msg 110 696 @nsamp;
#X text 245 696 Get/Set max number of input samples. Type: int. Default
value: 512\. Range: 8\...32768\.;
#X obj 20 748 cnv 1 745 1 empty empty empty 17 7 0 10 -203890 -1 0;
#X obj 20 753 cnv 5 64 25 empty empty inlets: 4 10 0 14 -262144 -49933
0;
#X text 110 754 1\.;
#X text 150 754 *bang*;
#X text 245 754 starts histogram calculation.;
#X obj 20 784 cnv 1 745 1 empty empty empty 17 7 0 10 -203890 -1 0;
#X obj 20 789 cnv 5 73 25 empty empty outlets: 4 10 0 14 -262144
-49933 0;
#X text 110 790 1\.;
#X text 245 790 signal output.;
#X text 110 810 2\.;
#X text 245 810 output to [array.plot~] or [ui.plot~].;
#X obj 10 48 ui.link @title index @url ../index-help.pd;
#X text 51 45 ::;
#X obj 68 48 ui.link @title ceammc @url ceammc-help.pd;
#X text 116 45 ::;
#X obj 133 48 ui.link @title array @url ceammc.array-help.pd;
#X obj 1 860 cnv 5 765 48 empty empty empty 17 7 0 10 -203890 -1 0;
#X text 10 863 library: ceammc v0.9.7;
#X text 321 875 see also:;
#X obj 396 875 plot.linspace~;
#X obj 513 875 plot.geomspace~;
#X obj 638 875 plot.response~;
#N canvas 10 882 400 290 info 0;
#X obj 1 1 cnv 1 107 287 empty empty empty 17 7 0 10 -183085 -1 0;
#X text 10 10 library:;
#X text 120 10 ceammc;
#X text 10 32 version:;
#X text 120 32 0.9.7;
#X text 10 54 object:;
#X text 120 54 plot.hist~;
#X text 10 76 category:;
#X text 120 76 array;
#X text 10 98 since:;
#X text 120 98 0.9;
#X text 10 120 authors:;
#X text 120 120 Serge Poltavsky;
#X text 10 142 license:;
#X text 120 142 GPL3 or later;
#X text 10 164 keywords:;
#X text 120 164 array \, histogram;
#X text 10 186 website:;
#X obj 120 189 ui.link @title https://github.com/uliss/pd-ceammc @url
https://github.com/uliss/pd-ceammc;
#X obj 120 208 declare -lib ceammc;
#X obj 120 268 cnv 1 270 1 empty empty empty 17 7 0 10 -203890 -1 0;
#X text 120 268 generated by pddoc;
#X restore 10 882 pd info;
#X connect 6 0 9 0;
#X connect 9 0 11 0;
#X connect 10 0 11 0;
#X connect 11 0 12 0;
#X connect 11 1 12 1;
#X connect 7 0 9 1;
#X connect 8 0 9 2;