#N canvas 0 0 785 555 12;
#X declare -lib ceammc;
#X obj 422 50 cnv 1 343 23 empty empty empty 17 7 0 10 -245760 -1 0;
#X text 422 50 outputs numbers spaced evenly on a log scale;
#X obj 1 1 cnv 5 765 40 empty empty plot.logspace~ 20 20 0 20 -104026
-4096 0;
#X obj 638 11 plot.logspace~;
#X obj 210 80 cnv 1 555 50 empty empty empty 17 7 0 10 -257983 -1 0;
#X text 215 80 In linear space \, the sequence starts at base^start
(base to the power of start) and ends with base^stop (see @endpoint).;
#X obj 50 158 bng 15 250 50 0 empty empty empty 17 7 0 10 -262144 -1
-1;
#X obj 50 202 plot.logspace~ 1 4 @10;
#X obj 50 230 ui.plot~ @size 400 150 @xlabels 1 @ylabels 1 @xmin_grid
1 @ymin_ticks 0 @xmin_ticks 0 @yauto 1;
#X obj 50 389 ui.dsp~;
#X obj 20 439 cnv 1 745 1 empty empty empty 17 7 0 10 -203890 -1 0;
#X obj 20 444 cnv 5 90 25 empty empty arguments: 4 10 0 14 -262144
-49933 0;
#X text 110 479 1.;
#X text 150 479 float;
#X obj 246 480 cnv 1 47 20 empty empty empty 17 7 0 10 -245695 -1 0;
#X text 245 479 START: @start property. Type: float.;
#X text 110 499 2.;
#X text 150 499 float;
#X obj 246 500 cnv 1 39 20 empty empty empty 17 7 0 10 -245695 -1 0;
#X text 245 499 STOP: @stop property. Type: float.;
#X text 110 519 3.;
#X text 150 519 atom;
#X obj 246 520 cnv 1 39 20 empty empty empty 17 7 0 10 -245695 -1 0;
#X text 245 519 BASE: @base property. Allowed values: 10 \, 2 \, e.
Type: atom.;
#X text 110 539 4.;
#X text 150 539 int;
#X obj 246 540 cnv 1 17 20 empty empty empty 17 7 0 10 -245695 -1 0;
#X text 245 539 N: @n property. Type: int. Range: 4...1024;
#X obj 20 569 cnv 1 745 1 empty empty empty 17 7 0 10 -203890 -1 0;
#X obj 20 574 cnv 5 98 25 empty empty properties: 4 10 0 14 -262144
-49933 0;
#X msg 110 609 @10;
#X text 245 609 Get/Set alias to @base 10. Type: atom.;
#X msg 110 639 @2;
#X text 245 639 Get/Set alias to @base 2. Type: atom.;
#X msg 110 669 @base;
#X text 245 669 Get/Set x-axis scale base. Type: atom. Default value:
10. Allowed values: 10 \, 2 \, e.;
#X msg 110 711 @e;
#X text 245 711 Get/Set alias to @base e. Type: atom.;
#X msg 110 741 @endpoint;
#X text 245 741 Get/Set include @stop to interval. Type: bool. Default
value: 1.;
#X msg 110 783 @n;
#X text 245 783 Get/Set number of points. Type: int. Default value:
100. Range: 4...1024.;
#X msg 110 825 @start;
#X text 245 825 Get/Set starting value of the sequence: base^start.
Type: float. Default value: 0.;
#X msg 110 867 @stop;
#X text 245 867 Get/Set the final value (base^stop) of the sequence
\, unless @endpoint is false. In that case \, @n + 1 values are spaced
over the interval in log-space \, of which all but the last (a sequence
of length @n) are returned. Type: float. Default value: 2.;
#X obj 20 964 cnv 1 745 1 empty empty empty 17 7 0 10 -203890 -1 0;
#X obj 20 969 cnv 5 64 25 empty empty inlets: 4 10 0 14 -262144 -49933
0;
#X text 110 970 1.;
#X text 150 970 *bang*;
#X text 245 970 starts output.;
#X text 150 990 *float*;
#X text 245 990 output specified number of values \, change @n property
valuue.;
#X obj 20 1020 cnv 1 745 1 empty empty empty 17 7 0 10 -203890 -1 0;
#X obj 20 1025 cnv 5 73 25 empty empty outlets: 4 10 0 14 -262144
-49933 0;
#X text 110 1026 1.;
#X text 245 1026 signal output.;
#X text 110 1046 2.;
#X text 245 1046 output to [array.plot~] or [ui.plot~].;
#X obj 10 48 ui.link @title index @url ../index-help.pd;
#X text 51 45 ::;
#X obj 68 48 ui.link @title ceammc @url ceammc-help.pd;
#X text 116 45 ::;
#X obj 133 48 ui.link @title array @url ceammc.array-help.pd;
#X obj 1 1096 cnv 5 765 48 empty empty empty 17 7 0 10 -203890 -1 0;
#X text 10 1099 library: ceammc v0.9.7;
#X text 438 1111 see also:;
#X obj 513 1111 plot.linspace~;
#X obj 630 1111 plot.geomspace~;
#N canvas 10 1118 400 290 info 0;
#X obj 1 1 cnv 1 107 287 empty empty empty 17 7 0 10 -183085 -1 0;
#X text 10 10 library:;
#X text 120 10 ceammc;
#X text 10 32 version:;
#X text 120 32 0.9.7;
#X text 10 54 object:;
#X text 120 54 plot.logspace~;
#X text 10 76 category:;
#X text 120 76 array;
#X text 10 98 since:;
#X text 120 98 0.9;
#X text 10 120 authors:;
#X text 120 120 Serge Poltavsky;
#X text 10 142 license:;
#X text 120 142 GPL3 or later;
#X text 10 164 keywords:;
#X text 120 164 array \, geom \, log \, scale;
#X text 10 186 website:;
#X obj 120 189 ui.link @title https://github.com/uliss/pd-ceammc @url
https://github.com/uliss/pd-ceammc;
#X obj 120 208 declare -lib ceammc;
#X obj 120 268 cnv 1 270 1 empty empty empty 17 7 0 10 -203890 -1 0;
#X text 120 268 generated by pddoc;
#X restore 10 1118 pd info;
#X connect 6 0 7 0;
#X connect 7 0 8 0;
#X connect 7 1 8 1;