#N canvas 604 251 526 318 12;
#X obj 146 25 inlet;
#X obj 146 103 lop~ 40;
#X obj 146 129 osc~;
#X obj 146 243 outlet~;
#X obj 270 26 inlet;
#X obj 270 72 f;
#X obj 270 98 l->l 0 127 0 1;
#X obj 146 51 list;
#X obj 146 77 list.unpack 2;
#X msg 270 124 @gate \$1 \, dump;
#X obj 146 213 env.asr~ \$2 100 \$3;
#X connect 0 0 7 0;
#X connect 1 0 2 0;
#X connect 2 0 10 0;
#X connect 4 0 5 0;
#X connect 5 0 6 0;
#X connect 6 0 9 0;
#X connect 7 0 8 0;
#X connect 8 0 1 0;
#X connect 8 1 6 0;
#X connect 9 0 10 0;
#X connect 10 0 3 0;
