#N canvas 0 0 785 555 12;
#X declare -lib ceammc;
#X obj 338 50 cnv 1 427 23 empty empty empty 17 7 0 10 -245760 -1 0;
#X text 338 50 get property from connected object/subpatch/abstraction;
#X obj 1 1 cnv 5 765 40 empty empty prop.get 20 20 0 20 -104026 -4096
0;
#X obj 621 11 p.get;
#X obj 682 11 prop.get;
#X obj 210 80 cnv 1 555 35 empty empty empty 17 7 0 10 -257983 -1 0;
#X text 215 80 Get properties from connected object/subpatch/abstraction;
#X msg 50 143 bang;
#X obj 50 172 prop.get @size @value;
#X obj 222 201 ui.display @display_type 1;
#X obj 50 230 ui.knob;
#X obj 155 230 ui.display @display_type 1;
#X obj 20 280 cnv 1 745 1 empty empty empty 17 7 0 10 -203890 -1 0;
#X obj 20 285 cnv 5 115 25 empty empty mouse_events: 4 12 0 14 -262144
-49933 0;
#X text 110 320 Left-click;
#X text 285 320 get properties.;
#X obj 20 350 cnv 1 745 1 empty empty empty 17 7 0 10 -203890 -1 0;
#X obj 20 355 cnv 5 90 25 empty empty arguments: 4 12 0 14 -262144
-49933 0;
#X obj 735 358 ui.link @background_color 0.98039 0.98039 0.98039
@title [?] @url ceammc.args-info.pd;
#X text 110 390 1\.;
#X text 150 390 list;
#X obj 246 391 cnv 1 47 20 empty empty empty 17 7 0 10 -245695 -1 0;
#X text 245 390 PROPS: property names. Type: list.;
#X obj 20 420 cnv 1 745 1 empty empty empty 17 7 0 10 -203890 -1 0;
#X obj 20 425 cnv 5 64 25 empty empty inlets: 4 12 0 14 -262144 -49933
0;
#X text 110 426 1\.;
#X text 150 426 *bang*;
#X text 245 426 output specified properites to corresponding outlets.;
#X text 150 446 *any*;
#X text 245 446 output specified property to second outlet.;
#X obj 20 476 cnv 1 745 1 empty empty empty 17 7 0 10 -203890 -1 0;
#X obj 20 481 cnv 5 73 25 empty empty outlets: 4 12 0 14 -262144
-49933 0;
#X text 110 482 1\.;
#X text 245 482 connected to destination object.;
#X text 110 502 2\.;
#X text 245 502 output of first requested property.;
#X text 110 522 ....;
#X text 245 522 output of ... requested property.;
#X text 110 542 n+1\.;
#X text 245 542 output of n-th requested property.;
#X obj 10 48 ui.link @title index @url ../index-help.pd;
#X text 51 45 ::;
#X obj 68 48 ui.link @title ceammc @url ceammc-help.pd;
#X text 116 45 ::;
#X obj 133 48 ui.link @title property @url ceammc.property-help.pd;
#X obj 1 592 cnv 5 765 48 empty empty empty 17 7 0 10 -203890 -1 0;
#X text 10 595 library: ceammc v0.9.7;
#X text 621 607 see also:;
#X obj 696 607 prop<-;
#N canvas 10 614 400 290 info 0;
#X obj 1 1 cnv 1 107 287 empty empty empty 17 7 0 10 -183085 -1 0;
#X text 10 10 library:;
#X text 120 10 ceammc;
#X text 10 32 version:;
#X text 120 32 0.9.7;
#X text 10 54 object:;
#X text 120 54 prop.get;
#X text 10 76 category:;
#X text 120 76 property;
#X text 10 98 since:;
#X text 120 98 0.9;
#X text 10 120 authors:;
#X text 120 120 Serge Poltavsky;
#X text 10 142 license:;
#X text 120 142 GPL3 or later;
#X text 10 164 keywords:;
#X text 120 164 property;
#X text 10 186 website:;
#X obj 120 189 ui.link @title https://github.com/uliss/pd-ceammc @url
https://github.com/uliss/pd-ceammc;
#X obj 120 208 declare -lib ceammc;
#X obj 120 268 cnv 1 270 1 empty empty empty 17 7 0 10 -203890 -1 0;
#X text 120 268 generated by pddoc;
#X restore 10 614 pd info;
#X connect 7 0 8 0;
#X connect 8 2 9 0;
#X connect 8 0 10 0;
#X connect 8 1 11 0;