#N canvas 0 0 785 555 12;
#X declare -lib ceammc;
#X obj 476 50 cnv 1 289 23 empty empty empty 17 7 0 10 -245760 -1 0;
#X text 476 50 Property extractor from audio streams;
#X obj 1 1 cnv 5 765 40 empty empty prop.route~ 20 20 0 20 -104026
-4096 0;
#N canvas 562 11 250 400 aliases 0;
#X obj 30 40 prop~>;
#X obj 30 78 @~>;
#X obj 30 116 ceammc/prop~>;
#X obj 30 154 ceammc/@~>;
#X restore 562 11 pd aliases;
#X obj 659 11 prop.route~;
#X obj 210 80 cnv 1 555 50 empty empty empty 17 7 0 10 -257983 -1 0;
#X text 215 80 Extracts properties from audio stream with matching.
Non property values are passed untouched.;
#X obj 50 158 osc~ 440;
#X msg 155 158 @db?;
#X msg 222 158 @size?;
#X msg 309 158 @amp?;
#X obj 50 187 ui.gain~ @size 160 16;
#X obj 347 187 ui.dsp~;
#X obj 50 216 prop~> @db;
#X obj 165 245 ui.dt;
#X obj 88 274 ui.dt;
#X obj 50 302 ui.scope~ @size 150 100;
#X text 50 360 ...;
#X obj 20 407 cnv 1 745 1 empty empty empty 17 7 0 10 -203890 -1 0;
#X obj 20 412 cnv 5 64 25 empty empty inlets: 4 12 0 14 -262144 -49933
0;
#X text 110 413 1\.;
#X text 150 413 *any*;
#X text 245 413 input values and sound.;
#X obj 20 443 cnv 1 745 1 empty empty empty 17 7 0 10 -203890 -1 0;
#X obj 20 448 cnv 5 73 25 empty empty outlets: 4 12 0 14 -262144
-49933 0;
#X text 110 449 1\.;
#X text 245 449 passed values and sound.;
#X text 110 469 2\.;
#X text 245 469 first matched property output.;
#X text 110 489 ....;
#X text 245 489 others matched property output.;
#X text 110 509 n.;
#X text 245 509 unmatched property output.;
#X obj 10 48 ui.link @title index @url ../index-help.pd;
#X text 51 45 ::;
#X obj 68 48 ui.link @title ceammc @url ceammc-help.pd;
#X text 116 45 ::;
#X obj 133 48 ui.link @title property @url ceammc.property-help.pd;
#X obj 1 559 cnv 5 765 48 empty empty empty 17 7 0 10 -203890 -1 0;
#X text 10 562 library: ceammc v0.9.7;
#X text 621 574 see also:;
#X obj 696 574 prop->;
#N canvas 10 581 400 290 info 0;
#X obj 1 1 cnv 1 107 287 empty empty empty 17 7 0 10 -183085 -1 0;
#X text 10 10 library:;
#X text 120 10 ceammc;
#X text 10 32 version:;
#X text 120 32 0.9.7;
#X text 10 54 object:;
#X text 120 54 prop.route~;
#X text 10 76 category:;
#X text 120 76 property;
#X text 10 98 since:;
#X text 120 98 0.6;
#X text 10 120 authors:;
#X text 120 120 Serge Poltavsky;
#X text 10 142 license:;
#X text 120 142 GPL3 or later;
#X text 10 164 keywords:;
#X text 120 164 property;
#X text 10 186 website:;
#X obj 120 189 ui.link @title https://github.com/uliss/pd-ceammc @url
https://github.com/uliss/pd-ceammc;
#X obj 120 208 declare -lib ceammc;
#X obj 120 268 cnv 1 270 1 empty empty empty 17 7 0 10 -203890 -1 0;
#X text 120 268 generated by pddoc;
#X restore 10 581 pd info;
#X connect 7 0 11 0;
#X connect 8 0 11 0;
#X connect 9 0 11 0;
#X connect 10 0 11 0;
#X connect 11 0 13 0;
#X connect 13 2 14 0;
#X connect 13 1 15 0;
#X connect 13 0 16 0;