#N canvas 0 0 785 555 12;
#X declare -lib ceammc;
#X obj 613 50 cnv 1 152 23 empty empty empty 17 7 0 10 -245760 -1 0;
#X text 613 50 property randomizer;
#X obj 1 1 cnv 5 765 40 empty empty prop.random 20 20 0 20 -104026
-4096 0;
#X obj 660 11 prop.random;
#X obj 50 118 bng 15 250 50 0 empty empty empty 17 7 0 10 -262144 -1
-1;
#X obj 50 147 prop.random @feedback;
#X obj 69 176 sig~ 50;
#X floatatom 194 176 5 0 0 0 - - -;
#X obj 50 205 osc.sinfb~;
#X obj 194 205 ui.dsp~;
#X obj 50 234 ui.hgain~;
#X obj 50 262 dac~;
#X obj 50 291 prop.random.1;
#X obj 222 291 prop.random.2;
#X obj 50 320 prop.random.3;
#X obj 20 370 cnv 1 745 1 empty empty empty 17 7 0 10 -203890 -1 0;
#X obj 20 375 cnv 5 90 25 empty empty arguments: 4 10 0 14 -262144
-49933 0;
#X text 110 410 1\.;
#X text 150 410 int;
#X obj 246 411 cnv 1 39 20 empty empty empty 17 7 0 10 -245695 -1 0;
#X text 245 410 SEED: init random seed. Type: int.;
#X text 110 430 2\.;
#X text 150 430 list;
#X obj 246 431 cnv 1 47 20 empty empty empty 17 7 0 10 -245695 -1 0;
#X text 245 430 PROPS: properties names. Type: list.;
#X obj 20 460 cnv 1 745 1 empty empty empty 17 7 0 10 -203890 -1 0;
#X obj 20 465 cnv 5 98 25 empty empty properties: 4 10 0 14 -262144
-49933 0;
#X msg 110 500 @seed;
#X text 245 500 Get/Set random seed. Type: int. Default value: 0\.;
#X obj 20 540 cnv 1 745 1 empty empty empty 17 7 0 10 -203890 -1 0;
#X obj 20 545 cnv 5 64 25 empty empty inlets: 4 10 0 14 -262144 -49933
0;
#X text 110 546 1\.;
#X text 245 546 first specified property.;
#X text 110 566 ....;
#X text 245 566 ... specified property.;
#X text 110 586 n.;
#X text 245 586 n-th specified property.;
#X obj 20 616 cnv 1 745 1 empty empty empty 17 7 0 10 -203890 -1 0;
#X obj 20 621 cnv 5 73 25 empty empty outlets: 4 10 0 14 -262144
-49933 0;
#X text 110 622 1\.;
#X text 245 622 connect to target object.;
#X text 110 642 2\.;
#X text 245 642 atom: new random value.;
#X obj 10 48 ui.link @title index @url ../index-help.pd;
#X text 51 45 ::;
#X obj 68 48 ui.link @title ceammc @url ceammc-help.pd;
#X text 116 45 ::;
#X obj 133 48 ui.link @title property @url ceammc.property-help.pd;
#X obj 1 692 cnv 5 765 48 empty empty empty 17 7 0 10 -203890 -1 0;
#X text 10 695 library: ceammc v0.9.7;
#X text 438 707 see also:;
#X obj 513 707 prop;
#X obj 558 707 prop.declare;
#X obj 660 707 patch.props;
#N canvas 10 714 400 290 info 0;
#X obj 1 1 cnv 1 107 287 empty empty empty 17 7 0 10 -183085 -1 0;
#X text 10 10 library:;
#X text 120 10 ceammc;
#X text 10 32 version:;
#X text 120 32 0.9.7;
#X text 10 54 object:;
#X text 120 54 prop.random;
#X text 10 76 category:;
#X text 120 76 property;
#X text 10 98 since:;
#X text 120 98 0.9.4;
#X text 10 120 authors:;
#X text 120 120 Serge Poltavsky;
#X text 10 142 license:;
#X text 120 142 GPL3 or later;
#X text 10 164 keywords:;
#X text 120 164 property \, random;
#X text 10 186 website:;
#X obj 120 189 ui.link @title https://github.com/uliss/pd-ceammc @url
https://github.com/uliss/pd-ceammc;
#X obj 120 208 declare -lib ceammc;
#X obj 120 268 cnv 1 270 1 empty empty empty 17 7 0 10 -203890 -1 0;
#X text 120 268 generated by pddoc;
#X restore 10 714 pd info;
#X connect 4 0 5 0;
#X connect 5 1 7 0;
#X connect 5 0 8 0;
#X connect 6 0 8 0;
#X connect 8 0 10 0;
#X connect 10 0 11 0;
#X connect 10 0 11 1;