#N canvas 0 0 527 299 12;
#X obj 20 48 bng 15 250 50 0 empty empty empty 17 7 0 10 -262144 -1
-1;
#X obj 20 77 prop.random @freq;
#X floatatom 154 106 5 0 0 0 - - -;
#X obj 20 135 prop.random.abs;
#X obj 20 164 ui.hgain~;
#X obj 20 192 dac~;
#X connect 0 0 1 0;
#X connect 1 1 2 0;
#X connect 1 0 3 0;
#X connect 3 0 4 0;
#X connect 4 0 5 0;
#X connect 4 0 5 1;
