#N canvas 0 0 785 555 12;
#X declare -lib ceammc;
#X obj 584 50 cnv 1 181 23 empty empty empty 17 7 0 10 -245760 -1 0;
#X text 584 50 raw midi encoder/parser;
#X obj 1 1 cnv 5 765 40 empty empty proto.midi 20 20 0 20 -104026
-4096 0;
#X obj 667 11 proto.midi;
#X obj 50 118 midiin;
#X symbolatom 146 118 16 0 0 0 - - -;
#X msg 280 118 cc 0 23 121;
#X msg 443 118 note 1 60 90;
#X obj 146 147 sym->any;
#X msg 280 147 start;
#X msg 443 147 sound_off;
#X obj 50 219 proto.midi;
#X obj 146 248 ui.dt;
#X obj 50 277 print MIDI;
#X obj 20 327 cnv 1 745 1 empty empty empty 17 7 0 10 -203890 -1 0;
#X obj 20 332 cnv 5 73 25 empty empty methods: 4 10 0 14 -262144
-49933 0;
#X msg 110 367 activesense;
#X text 245 367 send Active Sense realtime message (0xFE).;
#X msg 110 395 aftertouch;
#X text 245 395 send After Touch (Mono) message. Arguments are:;
#X obj 255 418 cnv 1 22 23 empty empty empty 17 7 0 10 -245695 -1 0;
#X text 255 418 CH: midi channel. Type: int. Range: 0\...15\.;
#X obj 255 441 cnv 1 30 23 empty empty empty 17 7 0 10 -245695 -1 0;
#X text 255 441 VEL: velocity. Type: int. Range: 0\...127\.;
#X msg 110 466 cc;
#X text 245 466 send Control Change message. Arguments are:;
#X obj 255 489 cnv 1 22 23 empty empty empty 17 7 0 10 -245695 -1 0;
#X text 255 489 CH: midi channel. Type: int. Range: 0\...15\.;
#X obj 255 512 cnv 1 30 23 empty empty empty 17 7 0 10 -245695 -1 0;
#X text 255 512 CTL: control number. Type: int. Range: 0\...127\.;
#X obj 255 535 cnv 1 30 23 empty empty empty 17 7 0 10 -245695 -1 0;
#X text 255 535 VAL: control value. Type: int. Range: 0\...127\.;
#X msg 110 560 clock;
#X text 245 560 send Timing Clock realtime message (0xF8).;
#X msg 110 588 continue;
#X text 245 588 send Continue realtime message (0xFB).;
#X msg 110 616 note;
#X text 245 616 alias to [noteon(.;
#X msg 110 644 noteoff;
#X text 245 644 send Note Off message. Arguments are:;
#X obj 255 667 cnv 1 22 23 empty empty empty 17 7 0 10 -245695 -1 0;
#X text 255 667 CH: midi channel. Type: int. Range: 0\...15\.;
#X obj 255 690 cnv 1 38 23 empty empty empty 17 7 0 10 -245695 -1 0;
#X text 255 690 NOTE: midi note. Type: int. Range: 0\...127\.;
#X obj 255 713 cnv 1 30 23 empty empty empty 17 7 0 10 -245695 -1 0;
#X text 255 713 VEL: velocity. Type: int. Range: 0\...127\.;
#X msg 110 738 noteon;
#X text 245 738 send Note On message. Arguments are:;
#X obj 255 761 cnv 1 22 23 empty empty empty 17 7 0 10 -245695 -1 0;
#X text 255 761 CH: midi channel. Type: int. Range: 0\...15\.;
#X obj 255 784 cnv 1 38 23 empty empty empty 17 7 0 10 -245695 -1 0;
#X text 255 784 NOTE: midi note. Type: int. Range: 0\...127\.;
#X obj 255 807 cnv 1 30 23 empty empty empty 17 7 0 10 -245695 -1 0;
#X text 255 807 VEL: velocity. Type: int. Range: 0\...127\.;
#X msg 110 832 notes_off;
#X text 245 832 send All Notes Off message. Arguments are:;
#X obj 255 855 cnv 1 32 23 empty empty empty 17 7 0 10 -245695 -1 0;
#X text 255 855 [CH]: midi channel. if missing or -1: send to all channels.
Type: int. Range: 0\...15\.;
#X msg 110 895 panic;
#X text 245 895 send All Notes Off message. Arguments are:;
#X obj 255 918 cnv 1 32 23 empty empty empty 17 7 0 10 -245695 -1 0;
#X text 255 918 [CH]: midi channel. if missing or -1: send to all channels.
Type: int. Range: 0\...15\.;
#X msg 110 958 pitchwheel;
#X text 245 958 send Pitch Wheel message. Arguments are:;
#X obj 255 981 cnv 1 22 23 empty empty empty 17 7 0 10 -245695 -1 0;
#X text 255 981 CH: midi channel. Type: int. Range: 0\...15\.;
#X obj 255 1004 cnv 1 30 23 empty empty empty 17 7 0 10 -245695 -1 0;
#X text 255 1004 VAL: value. Type: int. Range: -8192\...8191\.;
#X msg 110 1029 polytouch;
#X text 245 1029 send After Touch (Poly) message. Arguments are:;
#X obj 255 1052 cnv 1 22 23 empty empty empty 17 7 0 10 -245695 -1 0;
#X text 255 1052 CH: midi channel. Type: int. Range: 0\...15\.;
#X obj 255 1075 cnv 1 38 23 empty empty empty 17 7 0 10 -245695 -1 0;
#X text 255 1075 NOTE: midi note. Type: int. Range: 0\...127\.;
#X obj 255 1098 cnv 1 30 23 empty empty empty 17 7 0 10 -245695 -1 0;
#X text 255 1098 VEL: velocity. Type: int. Range: 0\...127\.;
#X msg 110 1123 program;
#X text 245 1123 send Program Change message. Arguments are:;
#X obj 255 1146 cnv 1 22 23 empty empty empty 17 7 0 10 -245695 -1 0;
#X text 255 1146 CH: midi channel. Type: int. Range: 0\...15\.;
#X obj 255 1169 cnv 1 15 23 empty empty empty 17 7 0 10 -245695 -1 0;
#X text 255 1169 N: program number. Type: int. Range: 0\...127\.;
#X msg 110 1194 raw;
#X text 245 1194 send raw midi bytes. Arguments are:;
#X obj 255 1217 cnv 1 38 23 empty empty empty 17 7 0 10 -245695 -1 0;
#X text 255 1217 DATA: raw midi data: integers in [0-127] range or
hex values: Ox3F etc. Type: list.;
#X msg 110 1257 songpos;
#X text 245 1257 send Song Position Pointer message (0xF2). Arguments
are:;
#X obj 255 1280 cnv 1 30 23 empty empty empty 17 7 0 10 -245695 -1 0;
#X text 255 1280 IDX: position. Type: int. Min value: 0\.;
#X obj 255 1303 cnv 1 63 23 empty empty empty 17 7 0 10 -245695 -1 0;
#X text 255 1303 [DUR=16]: position duration. By default is sixteen
note. Type: int. Allowed values: 1 \, 2 \, 4 \, 8 \, 16\.;
#X msg 110 1343 songsel;
#X text 245 1343 send Song Select message (0xF3). Arguments are:;
#X obj 255 1366 cnv 1 30 23 empty empty empty 17 7 0 10 -245695 -1 0;
#X text 255 1366 IDX: song index. Type: int. Range: 0\...127\.;
#X msg 110 1391 sound_off;
#X text 245 1391 send All Sound Off message. Arguments are:;
#X obj 255 1414 cnv 1 32 23 empty empty empty 17 7 0 10 -245695 -1 0;
#X text 255 1414 [CH]: midi channel. if missing or -1: send to all
channels. Type: int. Range: 0\...15\.;
#X msg 110 1454 start;
#X text 245 1454 send Start realtime message (0xFA).;
#X msg 110 1482 stop;
#X text 245 1482 send Stop realtime message (0xFC).;
#X msg 110 1510 sysex;
#X text 245 1510 send SysEx message (0xF0). Arguments are:;
#X obj 255 1533 cnv 1 44 23 empty empty empty 17 7 0 10 -245695 -1 0;
#X text 255 1533 BYTES: sysex message body. Type: list. Range: 0\...127\.;
#X msg 110 1558 sysreset;
#X text 245 1558 send System Reset realtime message (0xFF).;
#X msg 110 1586 tick;
#X text 245 1586 send Timing Tick realtime message (0xF9).;
#X msg 110 1614 timecode;
#X text 245 1614 send midi timecode as series of MTC quarter frame
messages (0xF1). Arguments are:;
#X obj 255 1652 cnv 1 38 23 empty empty empty 17 7 0 10 -245695 -1 0;
#X text 255 1652 TIME: time value. Various formats can be used: 100sec
\, 1h \, 20.5min or 01:12:34.11\. Type: atom.;
#X obj 255 1690 cnv 1 29 23 empty empty empty 17 7 0 10 -245695 -1 0;
#X text 255 1690 FPS: framerate. Type: float. Allowed values: 24 \,
25 \, 29.97 \, 30\.;
#X msg 110 1730 tunerequest;
#X text 245 1730 send Tune Request message (0xF6).;
#X obj 20 1768 cnv 1 745 1 empty empty empty 17 7 0 10 -203890 -1 0;
#X obj 20 1773 cnv 5 64 25 empty empty inlets: 4 10 0 14 -262144
-49933 0;
#X text 110 1774 1\.;
#X text 150 1774 *float*;
#X text 245 1774 raw midi input bytes.;
#X text 150 1794 *list*;
#X text 245 1794 raw midi input bytes.;
#X obj 20 1824 cnv 1 745 1 empty empty empty 17 7 0 10 -203890 -1 0;
#X obj 20 1829 cnv 5 73 25 empty empty outlets: 4 10 0 14 -262144
-49933 0;
#X text 110 1830 1\.;
#X text 245 1830 float: raw midi bytes.;
#X text 110 1850 2\.;
#X text 245 1850 parsed messages with selector (output format same
as for corresponding methods).;
#X obj 10 48 ui.link @title index @url ../index-help.pd;
#X text 51 45 ::;
#X obj 68 48 ui.link @title ceammc @url ceammc-help.pd;
#X text 116 45 ::;
#X obj 133 48 ui.link @title proto @url ceammc.proto-help.pd;
#X obj 1 1915 cnv 5 765 48 empty empty empty 17 7 0 10 -203890 -1 0;
#X text 10 1918 library: ceammc v0.9.7;
#N canvas 10 1937 400 290 info 0;
#X obj 1 1 cnv 1 107 287 empty empty empty 17 7 0 10 -183085 -1 0;
#X text 10 10 library:;
#X text 120 10 ceammc;
#X text 10 32 version:;
#X text 120 32 0.9.7;
#X text 10 54 object:;
#X text 120 54 proto.midi;
#X text 10 76 category:;
#X text 120 76 proto;
#X text 10 98 since:;
#X text 120 98 0.9.2;
#X text 10 120 authors:;
#X text 120 120 Serge Poltavsky;
#X text 10 142 license:;
#X text 120 142 GPL3 or later;
#X text 10 164 keywords:;
#X text 120 164 parser \, midi;
#X text 10 186 website:;
#X obj 120 189 ui.link @title https://github.com/uliss/pd-ceammc @url
https://github.com/uliss/pd-ceammc;
#X obj 120 208 declare -lib ceammc;
#X obj 120 268 cnv 1 270 1 empty empty empty 17 7 0 10 -203890 -1 0;
#X text 120 268 generated by pddoc;
#X restore 10 1937 pd info;
#X connect 5 0 8 0;
#X connect 4 0 11 0;
#X connect 8 0 11 0;
#X connect 11 1 12 0;
#X connect 11 0 13 0;
#X connect 6 0 11 0;
#X connect 9 0 11 0;
#X connect 7 0 11 0;
#X connect 10 0 11 0;