#N canvas 0 0 785 555 12;
#X declare -lib ceammc;
#X obj 675 50 cnv 1 90 23 empty empty empty 17 7 0 10 -245760 -1 0;
#X text 675 50 LTC encoder;
#X obj 1 1 cnv 5 765 40 empty empty proto.ltc.out~ 20 20 0 20 -104026
-4096 0;
#X obj 554 11 ltc.out~;
#X obj 638 11 proto.ltc.out~;
#X obj 50 118 tgl 15 0 empty empty empty 17 7 0 10 -262144 -1 -1 0 1;
#X msg 107 118 date 83 1 11;
#X obj 270 118 ui.hsl 0.5 4 @show_value 1;
#X msg 126 162 time 0 4 15;
#X msg 270 162 @speed \$1;
#X obj 414 162 ui.dsp~;
#X obj 69 176 bng 15 250 50 0 empty empty empty 17 7 0 10 -262144 -1
-1;
#X msg 146 190 seek 10sec;
#X obj 50 219 ltc.out~;
#X obj 107 248 ui.dt;
#X obj 50 277 ltc.in~;
#X obj 50 305 ui.dt;
#X obj 184 305 ui.dt;
#X obj 20 355 cnv 1 745 1 empty empty empty 17 7 0 10 -203890 -1 0;
#X obj 20 360 cnv 5 98 25 empty empty properties: 4 10 0 14 -262144
-49933 0;
#X msg 110 395 @filter;
#X text 245 395 Get/Set output signal filtering. LTC should have a
rise time of 40us+/-10 us. If you want a perfect square wave \, set
to 0\. Type: float. Default value: 0\. Range: 0\...500\.;
#X msg 110 452 @fps;
#X text 245 452 Get/Set frames per second rate. Supported values are:
24 \, 25 \, 29.97 \, 30\. Type: float. Default value: 25\.;
#X msg 110 494 @on;
#X text 245 494 Get/Set encoder state. Type: bool. Default value: 0\.;
#X msg 110 524 @speed;
#X text 245 524 Get/Set playing speed. Type: float. Default value:
1\.;
#X msg 110 554 @volume;
#X text 245 554 Get/Set output signal level. Type: float. Units: 'db'.
Default value: -3\. Range: -42\...0\.;
#X obj 20 606 cnv 1 745 1 empty empty empty 17 7 0 10 -203890 -1 0;
#X obj 20 611 cnv 5 73 25 empty empty methods: 4 10 0 14 -262144
-49933 0;
#X msg 110 646 date;
#X text 245 646 set current date. Arguments are:;
#X obj 255 669 cnv 1 38 23 empty empty empty 17 7 0 10 -245695 -1 0;
#X text 255 669 YEAR: year. Type: int. Range: 0\...3000\.;
#X obj 255 692 cnv 1 45 23 empty empty empty 17 7 0 10 -245695 -1 0;
#X text 255 692 MONTH: month. Type: int. Range: 1\...12\.;
#X obj 255 715 cnv 1 30 23 empty empty empty 17 7 0 10 -245695 -1 0;
#X text 255 715 DAY: day. Type: int. Range: 1\...31\.;
#X obj 255 738 cnv 1 78 23 empty empty empty 17 7 0 10 -245695 -1 0;
#X text 255 738 [TIMEZONE]: timezone in +HHMM format. Type: symbol.;
#X msg 110 763 seek;
#X text 245 763 time seek. Arguments are:;
#X obj 255 786 cnv 1 37 23 empty empty empty 17 7 0 10 -245695 -1 0;
#X text 255 786 UNIT: relative position seek. If float or int - seek
in frames \, otherwise units are expected. Supported units are: day
\, hour \, min \, sec. E.g.: 1day \, 3hour \, 5min \, 11sec etc. Type:
atom.;
#X msg 110 856 time;
#X text 245 856 set current time. Arguments are:;
#X obj 255 879 cnv 1 38 23 empty empty empty 17 7 0 10 -245695 -1 0;
#X text 255 879 HOUR: hour. Type: int. Range: 0\...23\.;
#X obj 255 902 cnv 1 30 23 empty empty empty 17 7 0 10 -245695 -1 0;
#X text 255 902 MIN: minute. Type: int. Range: 0\...59\.;
#X obj 255 925 cnv 1 29 23 empty empty empty 17 7 0 10 -245695 -1 0;
#X text 255 925 SEC: second. Type: int. Range: 0\...59\.;
#X obj 255 948 cnv 1 55 23 empty empty empty 17 7 0 10 -245695 -1 0;
#X text 255 948 [FRAME]: frame number. Type: int. Range: 0\...30\.;
#X obj 20 983 cnv 1 745 1 empty empty empty 17 7 0 10 -203890 -1 0;
#X obj 20 988 cnv 5 64 25 empty empty inlets: 4 10 0 14 -262144 -49933
0;
#X text 110 989 1\.;
#X text 150 989 *bang*;
#X text 245 989 output current time to second outlet.;
#X text 150 1009 *bool*;
#X text 245 1009 switch on/off encoder process.;
#X obj 20 1039 cnv 1 745 1 empty empty empty 17 7 0 10 -203890 -1 0;
#X obj 20 1044 cnv 5 73 25 empty empty outlets: 4 10 0 14 -262144
-49933 0;
#X text 110 1045 1\.;
#X text 245 1045 LTC signal.;
#X text 110 1065 2\.;
#X text 245 1065 list: HOUR MINUTE SECOND FRAME.;
#X obj 10 48 ui.link @title index @url ../index-help.pd;
#X text 51 45 ::;
#X obj 68 48 ui.link @title ceammc @url ceammc-help.pd;
#X text 116 45 ::;
#X obj 133 48 ui.link @title proto @url ceammc.proto-help.pd;
#X obj 1 1115 cnv 5 765 48 empty empty empty 17 7 0 10 -203890 -1 0;
#X text 10 1118 library: ceammc v0.9.7;
#X text 613 1130 see also:;
#X obj 688 1130 ltc.in~;
#N canvas 10 1137 400 290 info 0;
#X obj 1 1 cnv 1 107 287 empty empty empty 17 7 0 10 -183085 -1 0;
#X text 10 10 library:;
#X text 120 10 ceammc;
#X text 10 32 version:;
#X text 120 32 0.9.7;
#X text 10 54 object:;
#X text 120 54 proto.ltc.out~;
#X text 10 76 category:;
#X text 120 76 proto;
#X text 10 98 since:;
#X text 120 98 0.9.7;
#X text 10 120 authors:;
#X text 120 120 Serge Poltavsky;
#X text 10 142 license:;
#X text 120 142 GPL3 or later;
#X text 10 164 keywords:;
#X text 120 164 parser \, ltc;
#X text 10 186 website:;
#X obj 120 189 ui.link @title https://github.com/uliss/pd-ceammc @url
https://github.com/uliss/pd-ceammc;
#X obj 120 208 declare -lib ceammc;
#X obj 120 268 cnv 1 270 1 empty empty empty 17 7 0 10 -203890 -1 0;
#X text 120 268 generated by pddoc;
#X restore 10 1137 pd info;
#X connect 7 0 9 0;
#X connect 5 0 13 0;
#X connect 11 0 13 0;
#X connect 6 0 13 0;
#X connect 8 0 13 0;
#X connect 12 0 13 0;
#X connect 9 0 13 0;
#X connect 13 1 14 0;
#X connect 13 0 15 0;
#X connect 15 0 16 0;
#X connect 15 1 17 0;