#N canvas 0 0 785 555 12;
#X declare -lib ceammc;
#X obj 515 50 cnv 1 250 23 empty empty empty 17 7 0 10 -245760 -1 0;
#X text 515 50 Firmata Arduino protocol support;
#X obj 1 1 cnv 5 765 40 empty empty proto.firmata 20 20 0 20 -104026
-4096 0;
#X obj 646 11 proto.firmata;
#X obj 210 80 cnv 1 555 35 empty empty empty 17 7 0 10 -257983 -1 0;
#X text 215 80 Firmata basic protocol support.;
#X obj 50 143 tgl 15 0 empty empty empty 17 7 0 10 -262144 -1 -1 0 1;
#X msg 50 172 report_apin 0 \$1;
#X obj 69 201 tgl 15 0 empty empty empty 17 7 0 10 -262144 -1 -1 0 1;
#X msg 69 230 report_dport 0 \$1;
#X obj 88 259 tgl 15 0 empty empty empty 17 7 0 10 -262144 -1 -1 0 1;
#X text 126 259 blink onboard LED;
#X msg 88 287 write_dpin 13 \$1;
#X floatatom 270 287 5 0 0 0 - - -;
#X text 328 287 attach servo to PIN10;
#X msg 213 316 write_pwm 10 \$1;
#X msg 107 345 version?;
#X msg 232 345 firmware?;
#X msg 251 374 pin_mode 4 INPUT \, pin_mode 10 SERVO;
#X obj 50 403 proto.firmata;
#X obj 50 431 hw.arduino;
#X obj 50 460 proto.firmata;
#X obj 50 489 route version firmware apin dport;
#X obj 50 518 msg set;
#X obj 146 518 msg set;
#X obj 242 518 msg set;
#X msg 50 546 ;
#X msg 146 546 ;
#X msg 242 575 ;
#X obj 20 624 cnv 1 745 1 empty empty empty 17 7 0 10 -203890 -1 0;
#X obj 20 629 cnv 5 73 26 empty empty methods: 4 10 0 14 -262144
-49933 0;
#X msg 110 664 apin_mapping?;
#X text 245 664 query mapping between analog port number and digital
pin. Analog messages are numbered 0 to 15 \, which traditionally refer
to the Arduino pins labeled A0 \, A1 \, A2 \, etc. However \, these
pis are actually configured using "normal" pin numbers in the pin mode
message \, and when those pins are used for non-analog functions. The
analog mapping query provides the information about which pins (as
used with Firmata's pin mode message) correspond to the analog channels.
Return sequence of messages like: [apin_mapping A# PIN#( \, where #
is number.;
#X msg 110 809 capabilities?;
#X text 245 809 query pin capabilities. Return sequence of messages
like: [pin_info PIN# MODE RESOLUTION( \, where # is pin number.;
#X msg 110 849 firmware?;
#X text 245 849 query firmata protocol version. Returns message like:
[firmware ARDUINO_FIRMWARE_NAME.ino MAJOR MINOR(.;
#X msg 110 889 pin_mode;
#X text 245 889 sets pin mode. Arguments are:;
#X obj 255 912 cnv 1 37 23 empty empty empty 17 7 0 10 -245695 -1 0;
#X text 255 912 PIN#: pin number. Type: int. Min value: 0\.;
#X obj 255 935 cnv 1 37 23 empty empty empty 17 7 0 10 -245695 -1 0;
#X text 255 935 MODE: pin mode. Type: symbol. Allowed values: INPUT
\, OUTPUT \, ANALOG \, PWM \, SERVO \, SHIFT \, I2C \, ONEWIRE \, STEPPER
\, ENCODER \, SERIAL \, PULLUP.;
#X msg 110 990 pin_state?;
#X text 245 990 query pin state. The pin state is any data written
to the pin (it is important to note that pin state != pin value). For
output modes (digital output \, PWM \, and Servo) \, the state is any
value that has been previously written to the pin. For input modes
\, typically the state is zero. However \, for digital inputs \, the
state is the status of the pull-up resistor which is 1 if enabled \,
0 if disabled. Returns message like [pin_state PIN# MODE state( \,
where # is pin number. Arguments are:;
#X obj 255 1133 cnv 1 37 23 empty empty empty 17 7 0 10 -245695 -1 0;
#X text 255 1133 PIN#: pin number. Type: int.;
#X msg 110 1158 report_apin;
#X text 245 1158 turns on/off analog pin (A0-A6) value reporting. Arguments
are:;
#X obj 255 1196 cnv 1 83 23 empty empty empty 17 7 0 10 -245695 -1 0;
#X text 255 1196 ANALOG_PIN: analog pin number. Type: int.;
#X obj 255 1219 cnv 1 45 23 empty empty empty 17 7 0 10 -245695 -1 0;
#X text 255 1219 VALUE: value. If 1 - activates analog reporting \,
messages like [apin PIN# value( are returned every sampling interval
(by default 19ms). Type: int. Allowed values: 0 \, 1\.;
#X msg 110 1274 report_dport;
#X text 245 1274 turns on/off digital port value reporting. Arguments
are:;
#X obj 255 1297 cnv 1 45 23 empty empty empty 17 7 0 10 -245695 -1 0;
#X text 255 1297 PORT#: digital port number. Port is a group of pins
\, port 0 refers pins 0-8\. Type: int.;
#X obj 255 1335 cnv 1 45 23 empty empty empty 17 7 0 10 -245695 -1 0;
#X text 255 1335 VALUE: value. If 1 - activates digital port reporting
\, messages like [dport PORT# value( are returned only on pin value
change. Type: int. Allowed values: 0 \, 1\.;
#X msg 110 1390 samp_interval;
#X text 245 1390 sets sampling interval - how often analog data and
i2c data is reported to the client. The default for the arduino implementation
is 19ms. This means that every 19ms analog data will be reported and
any i2c devices with read continuous mode will be read. Arguments are:;
#X obj 255 1473 cnv 1 37 23 empty empty empty 17 7 0 10 -245695 -1 0;
#X text 255 1473 TIME: time. Type: int. Range: 10\...10000\. Units:
ms.;
#X msg 110 1498 version?;
#X text 245 1498 query firmata protocol version. Returns message like:
[version MAJOR MINOR(.;
#X msg 110 1538 write_dpin;
#X text 245 1538 write 1 or 0 to digital pin. Pin mode should be OUTPUT.
Arguments are:;
#X obj 255 1576 cnv 1 37 23 empty empty empty 17 7 0 10 -245695 -1 0;
#X text 255 1576 PIN#: pin number. Type: int.;
#X obj 255 1599 cnv 1 45 23 empty empty empty 17 7 0 10 -245695 -1 0;
#X text 255 1599 VALUE: pin value. Type: int. Allowed values: 0 \,
1\.;
#X msg 110 1624 write_pwm;
#X text 245 1624 writes PWM (Pulse Width Modulation) value to specified
pin. Arguments are:;
#X obj 255 1662 cnv 1 37 23 empty empty empty 17 7 0 10 -245695 -1 0;
#X text 255 1662 PIN#: pin number. Type: int.;
#X obj 255 1685 cnv 1 45 23 empty empty empty 17 7 0 10 -245695 -1 0;
#X text 255 1685 VALUE: pin value. Type: int. Range: 0\...256\.;
#X obj 20 1720 cnv 1 745 1 empty empty empty 17 7 0 10 -203890 -1 0;
#X obj 20 1725 cnv 5 64 26 empty empty inlets: 4 10 0 14 -262144
-49933 0;
#X text 110 1726 1\.;
#X text 150 1726 *float*;
#X text 245 1726 raw input of bytes from Arduino serial connection.;
#X obj 20 1756 cnv 1 745 1 empty empty empty 17 7 0 10 -203890 -1 0;
#X obj 20 1761 cnv 5 73 26 empty empty outlets: 4 10 0 14 -262144
-49933 0;
#X text 110 1762 1\.;
#X text 245 1762 raw byte output to Arduino serial connection and tagged
parsed output from Arduino.;
#X obj 10 48 ui.link @title index @url ../index-help.pd;
#X text 51 45 ::;
#X obj 67 48 ui.link @title ceammc @url ceammc-help.pd;
#X text 115 45 ::;
#X obj 131 48 ui.link @title proto @url ceammc.proto-help.pd;
#X obj 1 1827 cnv 5 765 48 empty empty empty 17 7 0 10 -203890 -1 0;
#X text 10 1830 library: ceammc v0.9.5;
#N canvas 10 1849 400 290 info 0;
#X obj 1 1 cnv 1 107 287 empty empty empty 17 7 0 10 -183085 -1 0;
#X text 10 10 library:;
#X text 120 10 ceammc;
#X text 10 32 version:;
#X text 120 32 0.9.5;
#X text 10 54 object:;
#X text 120 54 proto.firmata;
#X text 10 76 category:;
#X text 120 76 proto;
#X text 10 98 since:;
#X text 120 98 0.5;
#X text 10 120 authors:;
#X text 120 120 Serge Poltavsky;
#X text 10 142 license:;
#X text 120 142 GPL3 or later;
#X text 10 164 keywords:;
#X text 120 164 arduino \, firmata;
#X text 10 186 website:;
#X obj 120 189 ui.link @title https://github.com/uliss/pure-data @url
https://github.com/uliss/pure-data;
#X obj 120 208 declare -lib ceammc;
#X obj 120 268 cnv 1 270 1 empty empty empty 17 7 0 10 -203890 -1 0;
#X text 120 268 generated by pddoc;
#X restore 10 1849 pd info;
#X connect 6 0 7 0;
#X connect 8 0 9 0;
#X connect 10 0 12 0;
#X connect 13 0 15 0;
#X connect 7 0 19 0;
#X connect 9 0 19 0;
#X connect 12 0 19 0;
#X connect 16 0 19 0;
#X connect 15 0 19 0;
#X connect 17 0 19 0;
#X connect 18 0 19 0;
#X connect 19 0 20 0;
#X connect 20 0 21 0;
#X connect 21 0 22 0;
#X connect 22 0 23 0;
#X connect 22 1 24 0;
#X connect 22 2 25 0;
#X connect 23 0 26 0;
#X connect 24 0 27 0;
#X connect 25 0 28 0;