#N canvas 0 0 827 241 12;
#X obj 20 48 ui.midi;
#X obj 20 77 ui.hsl -1 1 @show_value 1;
#X msg 20 106 mbal:f \$1;
#X obj 20 135 proto.midi.sysex;
#X obj 20 164 midiout;
#X connect 1 0 2 0;
#X connect 2 0 3 0;
#X connect 3 0 4 0;
