#N canvas 0 0 258 213 12;
#X obj 20 48 ui.midi;
#X obj 20 77 midiin;
#X obj 116 77 ui.hsl;
#X msg 116 106 mvolume \$1;
#X obj 20 135 proto.midi.sysex;
#X obj 20 164 midiout;
#X connect 2 0 3 0;
#X connect 1 0 4 0;
#X connect 3 0 4 0;
#X connect 4 0 5 0;
