#N canvas 0 0 785 555 12;
#X declare -lib ceammc;
#X obj 575 50 cnv 1 190 23 empty empty empty 17 7 0 10 -245760 -1 0;
#X text 575 50 mpv video player control;
#X obj 1 1 cnv 5 765 40 empty empty proto.mpv 20 20 0 20 -104026 -4096
0;
#X obj 674 11 proto.mpv;
#X obj 210 80 cnv 1 555 59 empty empty empty 17 7 0 10 -257983 -1 0;
#X text 215 80 MPV video player control;
#X obj 215 105 ui.link @background_color 0.98039 0.98039 0.98039
@title mpv.io @url https://mpv.io/;
#X text 50 167 start mpv player;
#X msg 50 196 list mpv --player-operation-mode=pseudo-gui --input-ipc-server=/tmp/mpvsocket --pause --no-audio --idle --no-osc;
#X obj 50 254 system.exec;
#X text 50 283 choose video file or image;
#X obj 50 311 bng 15 250 50 0 empty empty empty 17 7 0 10 -262144 -1
-1;
#X obj 50 340 openpanel;
#X obj 165 340 tgl 15 0 empty empty empty 17 7 0 10 -262144 -1 -1 0 1;
#X msg 270 340 quit;
#X msg 366 340 text 3000 A simple OSD title;
#X msg 50 369 load \$1;
#X msg 165 369 pause \$1;
#X msg 270 369 stop;
#X msg 366 369 play;
#X obj 578 369 tgl 15 0 empty empty empty 17 7 0 10 -262144 -1 -1 0 1;
#X msg 299 398 seek 10 rel;
#X msg 434 398 seek -10 rel;
#X msg 578 398 fullscreen \$1;
#X obj 50 427 proto.mpv /tmp/mpvsocket;
#X obj 50 455 print;
#X obj 20 505 cnv 1 745 1 empty empty empty 17 7 0 10 -203890 -1 0;
#X obj 20 510 cnv 5 90 25 empty empty arguments: 4 12 0 14 -262144
-49933 0;
#X obj 735 513 ui.link @background_color 0.98039 0.98039 0.98039
@title [?] @url ceammc.args-info.pd;
#X text 110 545 1\.;
#X text 150 545 symbol;
#X obj 246 546 cnv 1 31 20 empty empty empty 17 7 0 10 -245695 -1 0;
#X text 245 545 IPC: path to IPC local socket. Type: symbol.;
#X obj 20 575 cnv 1 745 1 empty empty empty 17 7 0 10 -203890 -1 0;
#X obj 20 580 cnv 5 98 25 empty empty properties: 4 12 0 14 -262144
-49933 0;
#X obj 735 583 ui.link @background_color 0.98039 0.98039 0.98039
@title [?] @url ceammc.props-info.pd;
#X msg 110 615 @ipc;
#X text 245 615 Get/Set path to IPC local socket. Type: symbol.;
#X obj 20 655 cnv 1 745 1 empty empty empty 17 7 0 10 -203890 -1 0;
#X obj 20 660 cnv 5 73 25 empty empty methods: 4 12 0 14 -262144
-49933 0;
#X msg 110 695 fullscreen;
#X text 245 695 set MPV fullscreen mode. Arguments are:;
#X obj 255 718 cnv 1 32 23 empty empty empty 17 7 0 10 -245695 -1 0;
#X text 255 718 [ON]: 1: switch to fullscreen mode \, 0: switch to
window mode. Type: int. Allowed values: 0 \, 1\.;
#X msg 110 758 load;
#X text 245 758 load file. Arguments are:;
#X obj 255 781 cnv 1 37 23 empty empty empty 17 7 0 10 -245695 -1 0;
#X text 255 781 PATH: path to media file. Type: symbol.;
#X msg 110 806 next;
#X text 245 806 go to the next entry on the playlist. Arguments are:;
#X obj 255 829 cnv 1 55 23 empty empty empty 17 7 0 10 -245695 -1 0;
#X text 255 829 [FORCE]: 0: if the last file on the playlist is currently
played \, do nothing. 1: terminate playback if there are no more files
on the playlist. Type: int. Allowed values: 0 \, 1\.;
#X msg 110 884 pause;
#X text 245 884 resume/stop playing. Arguments are:;
#X obj 255 907 cnv 1 55 23 empty empty empty 17 7 0 10 -245695 -1 0;
#X text 255 907 [PAUSE]: 1: stop playing \, 0: resume playing. Type:
int. Allowed values: 0 \, 1\.;
#X msg 110 947 play;
#X text 245 947 start play current file.;
#X msg 110 975 playlist;
#X text 245 975 load playlist. Arguments are:;
#X obj 255 998 cnv 1 37 23 empty empty empty 17 7 0 10 -245695 -1 0;
#X text 255 998 PATH: path to playlist file. Type: symbol.;
#X obj 255 1021 cnv 1 47 23 empty empty empty 17 7 0 10 -245695 -1 0;
#X text 255 1021 [MODE]: replace: stop playback and replace the internal
playlist with the new one (default). append: append the new playlist
at the end of the current internal playlist. Type: symbol. Allowed
values: replace \, append.;
#X msg 110 1091 prev;
#X text 245 1091 go to the previous entry on the playlist. Arguments
are:;
#X obj 255 1114 cnv 1 55 23 empty empty empty 17 7 0 10 -245695 -1 0;
#X text 255 1114 [FORCE]: 0: if the first file on the playlist is currently
played \, do nothing. 1: terminate playback if the first file is being
played. Type: int. Allowed values: 0 \, 1\.;
#X msg 110 1169 quit;
#X text 245 1169 exit the player.;
#X msg 110 1197 seek;
#X text 245 1197 change the playback position. By default \, seeks
by a relative amount of seconds. Arguments are:;
#X obj 255 1235 cnv 1 47 23 empty empty empty 17 7 0 10 -245695 -1 0;
#X text 255 1235 [time]: *rel*: relative (default) \, seek relative
to current position (a negative value seeks backwards). *abs*: absolute
\, seek to a given time (a negative value starts from the end of the
file). *perc*: seek to a given percent position. Type: symbol. Allowed
values: rel \, abs \, perc.;
#X msg 110 1320 stop;
#X text 245 1320 stop playback and clear playlist. With default settings
\, this is essentially like quit. Useful for the client API: playback
can be stopped without terminating the player. Arguments are:;
#X obj 255 1373 cnv 1 93 23 empty empty empty 17 7 0 10 -245695 -1 0;
#X text 255 1373 [KEEP_PLIST]: if 1 - do not clear the playlist. Type:
int. Allowed values: 0 \, 1\.;
#X msg 110 1413 text;
#X text 245 1413 show OSD (on screen dispaly) text. Arguments are:;
#X obj 255 1436 cnv 1 30 23 empty empty empty 17 7 0 10 -245695 -1 0;
#X text 255 1436 DUR: show time in milliseconds. Type: int.;
#X obj 255 1459 cnv 1 30 23 empty empty empty 17 7 0 10 -245695 -1 0;
#X text 255 1459 TXT: text. Type: list.;
#X obj 20 1494 cnv 1 745 1 empty empty empty 17 7 0 10 -203890 -1 0;
#X obj 20 1499 cnv 5 64 25 empty empty inlets: 4 12 0 14 -262144
-49933 0;
#X text 110 1500 1\.;
#X text 245 1500 commands.;
#X obj 20 1530 cnv 1 745 1 empty empty empty 17 7 0 10 -203890 -1 0;
#X obj 20 1535 cnv 5 73 25 empty empty outlets: 4 12 0 14 -262144
-49933 0;
#X text 110 1536 1\.;
#X text 245 1536 mpv output.;
#X obj 10 48 ui.link @title index @url ../index-help.pd;
#X text 51 45 ::;
#X obj 68 48 ui.link @title ceammc @url ceammc-help.pd;
#X text 116 45 ::;
#X obj 133 48 ui.link @title proto @url ceammc.proto-help.pd;
#X obj 1 1586 cnv 5 765 48 empty empty empty 17 7 0 10 -203890 -1 0;
#X text 10 1589 library: ceammc v0.9.7;
#N canvas 10 1608 400 290 info 0;
#X obj 1 1 cnv 1 107 287 empty empty empty 17 7 0 10 -183085 -1 0;
#X text 10 10 library:;
#X text 120 10 ceammc;
#X text 10 32 version:;
#X text 120 32 0.9.7;
#X text 10 54 object:;
#X text 120 54 proto.mpv;
#X text 10 76 category:;
#X text 120 76 proto;
#X text 10 98 since:;
#X text 120 98 0.9.3;
#X text 10 120 authors:;
#X text 120 120 Serge Poltavsky;
#X text 10 142 license:;
#X text 120 142 GPL3 or later;
#X text 10 164 keywords:;
#X text 120 164 mpv \, mplayer;
#X text 10 186 website:;
#X obj 120 189 ui.link @title https://github.com/uliss/pd-ceammc @url
https://github.com/uliss/pd-ceammc;
#X obj 120 208 declare -lib ceammc;
#X obj 120 268 cnv 1 270 1 empty empty empty 17 7 0 10 -203890 -1 0;
#X text 120 268 generated by pddoc;
#X restore 10 1608 pd info;
#X connect 8 0 9 0;
#X connect 11 0 12 0;
#X connect 12 0 16 0;
#X connect 13 0 17 0;
#X connect 20 0 23 0;
#X connect 16 0 24 0;
#X connect 17 0 24 0;
#X connect 18 0 24 0;
#X connect 21 0 24 0;
#X connect 22 0 24 0;
#X connect 24 0 25 0;
#X connect 14 0 24 0;
#X connect 19 0 24 0;
#X connect 15 0 24 0;
#X connect 23 0 24 0;