#N canvas 0 0 785 555 12;
#X declare -lib ceammc;
#X obj 628 50 cnv 1 137 23 empty empty empty 17 7 0 10 -245760 -1 0;
#X text 628 50 QR code generator;
#X obj 1 1 cnv 5 765 40 empty empty qrcode 20 20 0 20 -104026 -4096 0;
#X obj 576 11 ceammc/qrcode;
#X obj 696 11 qrcode;
#X symbolatom 50 118 15 0 0 0 - - -;
#X msg 50 147 symbol https://github.com/uliss/pure-data/releases;
#X obj 50 176 qrcode;
#X obj 424 176 ui.lcd @receive qrcode @size 125 125 @nosave 1;
#X msg 107 205 @cols \$1 \, @rows \$1 \, @size 125 125;
#X obj 50 234 msg set;
#X obj 50 262 s qrcode;
#X obj 20 312 cnv 1 745 1 empty empty empty 17 7 0 10 -203890 -1 0;
#X obj 20 317 cnv 5 90 25 empty empty arguments: 4 10 0 14 -262144
-49933 0;
#X text 110 352 1\.;
#X text 150 352 symbol;
#X obj 246 353 cnv 1 48 20 empty empty empty 17 7 0 10 -245695 -1 0;
#X text 245 352 VALUE: initial string value. Type: symbol.;
#X obj 20 382 cnv 1 745 1 empty empty empty 17 7 0 10 -203890 -1 0;
#X obj 20 387 cnv 5 98 25 empty empty properties: 4 10 0 14 -262144
-49933 0;
#X msg 110 422 @high;
#X text 245 422 alias to @quality high.;
#X msg 110 452 @low;
#X text 245 452 alias to @quality low.;
#X msg 110 482 @medium;
#X text 245 482 alias to @quality medium.;
#X msg 110 512 @quality;
#X text 245 512 Get/Set encoding quality. Type: symbol. Default value:
low. Allowed values: low \, medium \, quartile \, high.;
#X msg 110 554 @quartile;
#X text 245 554 alias to @quality quartile.;
#X msg 110 584 @value;
#X text 245 584 Get/Set string value. Type: symbol.;
#X obj 20 624 cnv 1 745 1 empty empty empty 17 7 0 10 -203890 -1 0;
#X obj 20 629 cnv 5 64 25 empty empty inlets: 4 10 0 14 -262144 -49933
0;
#X text 110 630 1\.;
#X text 150 630 *bang*;
#X text 245 630 output encoded data.;
#X text 150 650 *symbol*;
#X text 245 650 set new value and output encoded data.;
#X obj 20 680 cnv 1 745 1 empty empty empty 17 7 0 10 -203890 -1 0;
#X obj 20 685 cnv 5 73 25 empty empty outlets: 4 10 0 14 -262144
-49933 0;
#X text 110 686 1\.;
#X text 245 686 list of 1 and 0\.;
#X text 110 706 2\.;
#X text 245 706 int: qr code size.;
#X obj 10 48 ui.link @title index @url ../index-help.pd;
#X text 51 45 ::;
#X obj 68 48 ui.link @title ceammc @url ceammc-help.pd;
#X text 116 45 ::;
#X obj 133 48 ui.link @title misc @url ceammc.misc-help.pd;
#X obj 1 756 cnv 5 765 48 empty empty empty 17 7 0 10 -203890 -1 0;
#X text 10 759 library: ceammc v0.9.7;
#N canvas 10 778 400 290 info 0;
#X obj 1 1 cnv 1 107 287 empty empty empty 17 7 0 10 -183085 -1 0;
#X text 10 10 library:;
#X text 120 10 ceammc;
#X text 10 32 version:;
#X text 120 32 0.9.7;
#X text 10 54 object:;
#X text 120 54 qrcode;
#X text 10 76 category:;
#X text 120 76 misc;
#X text 10 98 since:;
#X text 120 98 0.9.7;
#X text 10 120 authors:;
#X text 120 120 Serge Poltavsky;
#X text 10 142 license:;
#X text 120 142 GPL3 or later;
#X text 10 164 keywords:;
#X text 120 164 qrcode;
#X text 10 186 website:;
#X obj 120 189 ui.link @title https://github.com/uliss/pd-ceammc @url
https://github.com/uliss/pd-ceammc;
#X obj 120 208 declare -lib ceammc;
#X obj 120 268 cnv 1 270 1 empty empty empty 17 7 0 10 -203890 -1 0;
#X text 120 268 generated by pddoc;
#X restore 10 778 pd info;
#X connect 6 0 7 0;
#X connect 7 1 9 0;
#X connect 7 0 10 0;
#X connect 10 0 11 0;
#X connect 9 0 11 0;
#X connect 5 0 7 0;