#N canvas 0 0 785 555 12;
#X declare -lib ceammc;
#X obj 384 50 cnv 1 381 23 empty empty empty 17 7 0 10 -245760 -1 0;
#X text 384 50 uniform random float generator in specified range;
#X obj 1 1 cnv 5 765 40 empty empty random.float 20 20 0 20 -104026
-4096 0;
#X obj 572 11 random.f;
#X obj 654 11 random.float;
#X obj 210 80 cnv 1 555 169 empty empty empty 17 7 0 10 -257983 -1 0;
#X text 215 80 generates a random floating-point value uniformly distributed
in the range [min..max);
#X text 215 120 Use @seed property to get reproducible sequences. If
@seed property was not explicitly set or specified \, uses generator
initialized with current time.;
#X text 215 175 Algorithm: 32-bit Mersenne Twister by Matsumoto and
Nishimura \, 1998;
#X obj 215 215 ui.link @background_color 0.98039 0.98039 0.98039
@title wiki: Mersenne Twister @url
https://en.wikipedia.org/wiki/Mersenne_Twister;
#X obj 50 277 bng 15 250 50 0 empty empty empty 17 7 0 10 -262144 -1
-1;
#X msg 98 277 @seed 0;
#X msg 194 277 gen 5;
#X obj 50 335 random.float 1 3;
#X obj 50 364 ui.dt;
#X obj 20 414 cnv 1 745 1 empty empty empty 17 7 0 10 -203890 -1 0;
#X obj 20 419 cnv 5 90 25 empty empty arguments: 4 12 0 14 -262144
-49933 0;
#X obj 735 422 ui.link @background_color 0.98039 0.98039 0.98039
@title [?] @url ceammc.args-info.pd;
#X text 110 454 1\.;
#X text 150 454 list;
#X obj 246 455 cnv 1 32 20 empty empty empty 17 7 0 10 -245695 -1 0;
#X text 245 454 ARG: @min=ARG[0] \, @max=ARG[1] \, in case of signle
arg: @min=0 \, @max=ARG[0]. Type: list.;
#X obj 20 499 cnv 1 745 1 empty empty empty 17 7 0 10 -203890 -1 0;
#X obj 20 504 cnv 5 98 25 empty empty properties: 4 12 0 14 -262144
-49933 0;
#X obj 735 507 ui.link @background_color 0.98039 0.98039 0.98039
@title [?] @url ceammc.props-info.pd;
#X msg 110 539 @max;
#X text 245 539 Get/Set random range upper bound. Type: float. Default
value: 1\.;
#X msg 110 581 @min;
#X text 245 581 Get/Set random range lower bound. Type: float. Default
value: 0\.;
#X msg 110 623 @seed;
#X text 245 623 Get/Set generator seed. Type: int. Default value: 0\.
Min value: 0\.;
#X obj 20 675 cnv 1 745 1 empty empty empty 17 7 0 10 -203890 -1 0;
#X obj 20 680 cnv 5 73 25 empty empty methods: 4 12 0 14 -262144
-49933 0;
#X msg 110 715 gen;
#X text 245 715 generate list of random floats with specified length.
Arguments are:;
#X obj 255 753 cnv 1 15 23 empty empty empty 17 7 0 10 -245695 -1 0;
#X text 255 753 N: list length. Type: int. Min value: 1\.;
#X obj 20 788 cnv 1 745 1 empty empty empty 17 7 0 10 -203890 -1 0;
#X obj 20 793 cnv 5 64 25 empty empty inlets: 4 12 0 14 -262144 -49933
0;
#X text 110 794 1\.;
#X text 150 794 *bang*;
#X text 245 794 generate new number.;
#X text 110 814 2\.;
#X text 150 814 *float*;
#X text 245 814 set @min property.;
#X text 110 834 3\.;
#X text 150 834 *float*;
#X text 245 834 set @max property.;
#X obj 20 864 cnv 1 745 1 empty empty empty 17 7 0 10 -203890 -1 0;
#X obj 20 869 cnv 5 73 25 empty empty outlets: 4 12 0 14 -262144
-49933 0;
#X text 110 870 1\.;
#X text 245 870 float ot list: result value.;
#X obj 10 48 ui.link @title index @url ../index-help.pd;
#X text 51 45 ::;
#X obj 68 48 ui.link @title ceammc @url ceammc-help.pd;
#X text 116 45 ::;
#X obj 133 48 ui.link @title random @url ceammc.random-help.pd;
#X obj 1 920 cnv 5 765 48 empty empty empty 17 7 0 10 -203890 -1 0;
#X text 10 923 library: ceammc v0.9.7;
#X text 493 935 see also:;
#X obj 568 935 random.int;
#X obj 654 935 random.gauss;
#N canvas 10 942 400 290 info 0;
#X obj 1 1 cnv 1 107 287 empty empty empty 17 7 0 10 -183085 -1 0;
#X text 10 10 library:;
#X text 120 10 ceammc;
#X text 10 32 version:;
#X text 120 32 0.9.7;
#X text 10 54 object:;
#X text 120 54 random.float;
#X text 10 76 category:;
#X text 120 76 random;
#X text 10 98 since:;
#X text 120 98 0.1;
#X text 10 120 authors:;
#X text 120 120 Serge Poltavsky;
#X text 10 142 license:;
#X text 120 142 GPL3 or later;
#X text 10 164 keywords:;
#X text 120 164 random \, float;
#X text 10 186 website:;
#X obj 120 189 ui.link @title https://github.com/uliss/pd-ceammc @url
https://github.com/uliss/pd-ceammc;
#X obj 120 208 declare -lib ceammc;
#X obj 120 268 cnv 1 270 1 empty empty empty 17 7 0 10 -203890 -1 0;
#X text 120 268 generated by pddoc;
#X restore 10 942 pd info;
#X connect 10 0 13 0;
#X connect 11 0 13 0;
#X connect 12 0 13 0;
#X connect 13 0 14 0;