#N canvas 0 0 785 555 12;
#X declare -lib ceammc;
#X obj 562 50 cnv 1 203 23 empty empty empty 17 7 0 10 -245760 -1 0;
#X text 562 50 random linear distribution;
#X obj 1 1 cnv 5 765 40 empty empty random.linear 20 20 0 20 -104026
-4096 0;
#X obj 647 11 random.linear;
#X obj 210 80 cnv 1 555 105 empty empty empty 17 7 0 10 -257983 -1 0;
#X text 215 80 Generates random number in interval [@v0 \, @v1) with
linear distribution [@p0 \, @p1);
#X text 215 120 Use @seed property to get reproducible sequences. If
@seed property was not explicitly set or specified \, uses generator
initialized with current time.;
#X obj 50 213 bng 15 250 50 0 empty empty empty 17 7 0 10 -262144 -1
-1;
#X obj 50 242 list.gen 100;
#N canvas 0 22 450 300 (subpatch) 0;
#X array array1 100 float 1;
#A 0 0 0 0 0 0 0 0 0 0 0 0 0 0 0 0 0 0 0 0 0 0 0 0 0 0 0 0 0 0 0 0 0 0
0 0 0 0 0 0 0 0 0 0 0 0 0 0 0 0 0 0 0 0 0 0 0 0 0 0 0 0 0 0 0 0 0 0 0
0 0 0 0 0 0 0 0 0 0 0 0 0 0 0 0 0 0 0 0 0 0 0 0 0 0 0 0 0 0 0 0;
#X coords 0 1 100 0 200 140 1;
#X restore 280 242 graph;
#X obj 50 271 random.linear;
#X obj 50 300 * 100;
#X obj 50 329 math.floor;
#X obj 50 357 t f f;
#X obj 98 386 tabread array1;
#X obj 98 415 + 0.01;
#X obj 50 444 swap;
#X msg 280 444 const 0;
#X msg 376 444 normalize;
#X obj 50 473 tabwrite array1;
#X obj 280 473 s array1;
#X obj 20 522 cnv 1 745 1 empty empty empty 17 7 0 10 -203890 -1 0;
#X obj 20 527 cnv 5 98 26 empty empty properties: 4 10 0 14 -262144
-49933 0;
#X msg 110 562 @p0;
#X text 245 562 Get/Set probability at begin. Type: float. Default
value: 1\.;
#X msg 110 591 @p1;
#X text 245 591 Get/Set probability at end. Type: float. Default value:
0\.;
#X msg 110 620 @seed;
#X text 245 620 Get/Set generator seed. Type: int. Default value: 0\.
Min value: 0\.;
#X msg 110 662 @v0;
#X text 245 662 Get/Set begin of value interval. Type: float. Default
value: 0\.;
#X msg 110 704 @v1;
#X text 245 704 Get/Set end of value interval. Type: float. Default
value: 1\.;
#X obj 20 756 cnv 1 745 1 empty empty empty 17 7 0 10 -203890 -1 0;
#X obj 20 761 cnv 5 64 26 empty empty inlets: 4 10 0 14 -262144 -49933
0;
#X text 110 762 1\.;
#X text 150 762 *bang*;
#X text 245 762 generates random number.;
#X obj 20 792 cnv 1 745 1 empty empty empty 17 7 0 10 -203890 -1 0;
#X obj 20 797 cnv 5 73 26 empty empty outlets: 4 10 0 14 -262144
-49933 0;
#X text 110 798 1\.;
#X text 245 798 result value.;
#X obj 10 48 ui.link @title index @url ../index-help.pd;
#X text 51 45 ::;
#X obj 67 48 ui.link @title ceammc @url ceammc-help.pd;
#X text 115 45 ::;
#X obj 131 48 ui.link @title random @url ceammc.random-help.pd;
#X obj 1 848 cnv 5 765 48 empty empty empty 17 7 0 10 -203890 -1 0;
#X text 10 851 library: ceammc v0.9.0;
#X text 495 863 see also:;
#X obj 569 863 random.float;
#X obj 669 863 random.int;
#N canvas 10 870 400 290 info 0;
#X obj 1 1 cnv 1 107 287 empty empty empty 17 7 0 10 -183085 -1 0;
#X text 10 10 library:;
#X text 120 10 ceammc;
#X text 10 32 version:;
#X text 120 32 0.9.0;
#X text 10 54 object:;
#X text 120 54 random.linear;
#X text 10 76 category:;
#X text 120 76 random;
#X text 10 98 since:;
#X text 120 98 0.4;
#X text 10 120 authors:;
#X text 120 120 Serge Poltavsky;
#X text 10 142 license:;
#X text 120 142 GPL3 or later;
#X text 10 164 keywords:;
#X text 120 164 linear \, random;
#X text 10 186 website:;
#X obj 120 189 ui.link @title https://github.com/uliss/pure-data @url
https://github.com/uliss/pure-data;
#X obj 120 208 declare -lib ceammc;
#X obj 120 268 cnv 1 270 1 empty empty empty 17 7 0 10 -203890 -1 0;
#X text 120 268 generated by pddoc;
#X restore 10 870 pd info;
#X connect 7 0 8 0;
#X connect 8 1 10 0;
#X connect 10 0 11 0;
#X connect 11 0 12 0;
#X connect 12 0 13 0;
#X connect 13 1 14 0;
#X connect 14 0 15 0;
#X connect 13 0 16 0;
#X connect 15 0 16 1;
#X connect 16 0 19 0;
#X connect 16 1 19 1;
#X connect 17 0 20 0;
#X connect 18 0 20 0;