#N canvas 0 0 785 555 12;
#X declare -lib ceammc;
#X obj 544 50 cnv 1 221 23 empty empty empty 17 7 0 10 -245760 -1 0;
#X text 544 50 Replace atoms in data stream;
#X obj 1 1 cnv 5 765 40 empty empty replace 20 20 0 20 -104026 -4096
0;
#X obj 563 11 ceammc/replace;
#X obj 690 11 replace;
#X obj 210 80 cnv 1 555 50 empty empty empty 17 7 0 10 -257983 -1 0;
#X text 215 80 From/to values can be specified both as @from/@to properties
or first and second arguments.;
#X floatatom 50 158 5 0 0 0 - - -;
#X msg 98 158 1 2 3;
#X msg 184 158 list a b c;
#X msg 117 216 dump;
#X msg 203 216 symbol a;
#X msg 309 216 symbol A;
#X obj 50 259 replace 3 33333;
#X obj 50 302 ui.display @auto_size 0 @size 120 17;
#X obj 20 352 cnv 1 745 1 empty empty empty 17 7 0 10 -203890 -1 0;
#X obj 20 357 cnv 5 90 25 empty empty arguments: 4 10 0 14 -262144
-49933 0;
#X text 110 392 1.;
#X text 150 392 atom;
#X obj 246 393 cnv 1 39 20 empty empty empty 17 7 0 10 -245695 -1 0;
#X text 245 392 FROM: replace subject. Type: atom.;
#X text 110 412 2.;
#X text 150 412 atom;
#X obj 246 413 cnv 1 25 20 empty empty empty 17 7 0 10 -245695 -1 0;
#X text 245 412 TO: replace value. Type: atom.;
#X obj 20 442 cnv 1 745 1 empty empty empty 17 7 0 10 -203890 -1 0;
#X obj 20 447 cnv 5 98 25 empty empty properties: 4 10 0 14 -262144
-49933 0;
#X msg 110 482 @from;
#X text 245 482 Get/Set replace subject. Type: atom. Default value:
None.;
#X msg 110 512 @to;
#X text 245 512 Get/Set replace value. Type: atom. Default value: None.;
#X obj 20 552 cnv 1 745 1 empty empty empty 17 7 0 10 -203890 -1 0;
#X obj 20 557 cnv 5 64 25 empty empty inlets: 4 10 0 14 -262144 -49933
0;
#X text 110 558 1.;
#X text 245 558 input data stream.;
#X text 110 578 2.;
#X text 245 578 @from property inlet.;
#X text 110 598 3.;
#X text 245 598 @to property inlet.;
#X obj 20 628 cnv 1 745 1 empty empty empty 17 7 0 10 -203890 -1 0;
#X obj 20 633 cnv 5 73 25 empty empty outlets: 4 10 0 14 -262144
-49933 0;
#X text 110 634 1.;
#X text 245 634 output data stream.;
#X obj 10 48 ui.link @title index @url ../index-help.pd;
#X text 51 45 ::;
#X obj 68 48 ui.link @title ceammc @url ceammc-help.pd;
#X text 116 45 ::;
#X obj 133 48 ui.link @title flow @url ceammc.flow-help.pd;
#X obj 1 684 cnv 5 765 48 empty empty empty 17 7 0 10 -203890 -1 0;
#X text 10 687 library: ceammc v0.9.7;
#X text 600 699 see also:;
#X obj 675 699 flow.pass;
#N canvas 10 706 400 290 info 0;
#X obj 1 1 cnv 1 107 287 empty empty empty 17 7 0 10 -183085 -1 0;
#X text 10 10 library:;
#X text 120 10 ceammc;
#X text 10 32 version:;
#X text 120 32 0.9.7;
#X text 10 54 object:;
#X text 120 54 replace;
#X text 10 76 category:;
#X text 120 76 flow;
#X text 10 98 since:;
#X text 120 98 0.1;
#X text 10 120 authors:;
#X text 120 120 Serge Poltavsky;
#X text 10 142 license:;
#X text 120 142 GPL3 or later;
#X text 10 164 keywords:;
#X text 120 164 replace \, test;
#X text 10 186 website:;
#X obj 120 189 ui.link @title https://github.com/uliss/pd-ceammc @url
https://github.com/uliss/pd-ceammc;
#X obj 120 208 declare -lib ceammc;
#X obj 120 268 cnv 1 270 1 empty empty empty 17 7 0 10 -203890 -1 0;
#X text 120 268 generated by pddoc;
#X restore 10 706 pd info;
#X connect 7 0 13 0;
#X connect 8 0 13 0;
#X connect 10 0 13 0;
#X connect 9 0 13 0;
#X connect 11 0 13 1;
#X connect 12 0 13 2;
#X connect 13 0 14 0;