#N canvas 0 0 785 555 12;
#X declare -lib ceammc;
#X obj 560 50 cnv 1 205 23 empty empty empty 17 7 0 10 -245760 -1 0;
#X text 560 50 L-system pattern generator;
#X obj 1 1 cnv 5 765 40 empty empty rhythm.lsystem 20 20 0 20 -104026
-4096 0;
#X obj 639 11 rhythm.lsystem;
#X text 50 118 1: bang;
#X text 50 133 2: turn metro on;
#X text 50 147 3: bang again;
#X obj 50 176 bng 15 250 50 0 empty empty empty 17 7 0 10 -262144 -1
-1;
#X obj 414 176 tgl 15 0 empty empty empty 17 7 0 10 -262144 -1 -1 0 1;
#X msg 69 205 reset;
#X obj 414 205 metro.pattern 100;
#X obj 606 205 r lsys;
#X obj 50 234 rhythm.lsystem 0 1 @rule [1: 0 1 0: 1];
#X obj 414 234 list.walk @wrap;
#X obj 50 262 t l l;
#X obj 414 262 sel 1;
#X obj 88 291 list.size;
#X obj 414 291 click~;
#X obj 606 291 ui.dsp~;
#X msg 88 320 @nitems \$1 \, @size 150 15;
#X obj 414 320 flt.resonlp~ 1000 40;
#X obj 50 349 ui.hrd* @nosave 1;
#X obj 414 349 ui.hgain~;
#X obj 50 406 s lsys;
#X obj 414 406 dac~;
#X obj 20 456 cnv 1 745 1 empty empty empty 17 7 0 10 -203890 -1 0;
#X obj 20 461 cnv 5 90 25 empty empty arguments: 4 10 0 14 -262144
-49933 0;
#X text 110 496 1.;
#X text 150 496 list;
#X obj 246 497 cnv 1 39 20 empty empty empty 17 7 0 10 -245695 -1 0;
#X text 245 496 INIT: init pattern. Type: list.;
#X obj 20 526 cnv 1 745 1 empty empty empty 17 7 0 10 -203890 -1 0;
#X obj 20 531 cnv 5 98 25 empty empty properties: 4 10 0 14 -262144
-49933 0;
#X msg 110 566 @init;
#X text 245 566 Get/Set init pattern value. Type: list.;
#X msg 110 596 @max;
#X text 245 596 Get/Set max generated pattern length. Type: int. Default
value: 256. Range: 1...32768.;
#X msg 110 638 @rule;
#X text 245 638 Get/Set generation rule dict. Type: atom.;
#X msg 110 668 @value?;
#X text 245 668 (readonly) Get current pattern value. Type: list.;
#X obj 20 708 cnv 1 745 1 empty empty empty 17 7 0 10 -203890 -1 0;
#X obj 20 713 cnv 5 73 25 empty empty methods: 4 10 0 14 -262144
-49933 0;
#X msg 110 748 reset;
#X text 245 748 reset to init state.;
#X obj 20 786 cnv 1 745 1 empty empty empty 17 7 0 10 -203890 -1 0;
#X obj 20 791 cnv 5 64 25 empty empty inlets: 4 10 0 14 -262144 -49933
0;
#X text 110 792 1.;
#X text 150 792 *bang*;
#X text 245 792 output last pattern.;
#X text 150 812 *symbol*;
#X text 245 812 set new pattern and output.;
#X text 150 832 *list*;
#X text 245 832 output enumerated patterns for each list argument.;
#X obj 20 862 cnv 1 745 1 empty empty empty 17 7 0 10 -203890 -1 0;
#X obj 20 867 cnv 5 73 25 empty empty outlets: 4 10 0 14 -262144
-49933 0;
#X text 110 868 1.;
#X text 245 868 list output.;
#X obj 10 48 ui.link @title index @url ../index-help.pd;
#X text 51 45 ::;
#X obj 68 48 ui.link @title ceammc @url ceammc-help.pd;
#X text 116 45 ::;
#X obj 133 48 ui.link @title music @url ceammc.music-help.pd;
#X obj 1 918 cnv 5 765 48 empty empty empty 17 7 0 10 -203890 -1 0;
#X text 10 921 library: ceammc v0.9.7;
#N canvas 10 940 400 290 info 0;
#X obj 1 1 cnv 1 107 287 empty empty empty 17 7 0 10 -183085 -1 0;
#X text 10 10 library:;
#X text 120 10 ceammc;
#X text 10 32 version:;
#X text 120 32 0.9.7;
#X text 10 54 object:;
#X text 120 54 rhythm.lsystem;
#X text 10 76 category:;
#X text 120 76 music;
#X text 10 98 since:;
#X text 120 98 0.9.7;
#X text 10 120 authors:;
#X text 120 120 Serge Poltavsky;
#X text 10 142 license:;
#X text 120 142 GPL3 or later;
#X text 10 164 keywords:;
#X text 120 164 conv \, rhythm \, lsystem;
#X text 10 186 website:;
#X obj 120 189 ui.link @title https://github.com/uliss/pd-ceammc @url
https://github.com/uliss/pd-ceammc;
#X obj 120 208 declare -lib ceammc;
#X obj 120 268 cnv 1 270 1 empty empty empty 17 7 0 10 -203890 -1 0;
#X text 120 268 generated by pddoc;
#X restore 10 940 pd info;
#X connect 8 0 10 0;
#X connect 7 0 12 0;
#X connect 9 0 12 0;
#X connect 10 0 13 0;
#X connect 11 0 13 0;
#X connect 12 0 14 0;
#X connect 13 0 15 0;
#X connect 14 1 16 0;
#X connect 15 0 17 0;
#X connect 16 0 19 0;
#X connect 17 0 20 0;
#X connect 14 0 21 0;
#X connect 19 0 21 0;
#X connect 20 0 22 0;
#X connect 21 0 23 0;
#X connect 22 0 24 0;
#X connect 22 0 24 1;