#N canvas 0 0 785 555 12;
#X declare -lib ceammc;
#X obj 483 50 cnv 1 282 23 empty empty empty 17 7 0 10 -245760 -1 0;
#X text 483 50 Sheppard/Risset glissando calculator;
#X obj 1 1 cnv 5 765 40 empty empty risset.gliss 20 20 0 20 -104026
-4096 0;
#X obj 655 11 risset.gliss;
#X msg 50 118 0 \, 1 10000;
#X obj 50 147 line 0 20;
#X obj 50 176 risset.gliss 60;
#X obj 280 176 ui.hrd 5;
#X obj 50 205 msg \#:0;
#X obj 155 205 msg \#:0;
#X msg 280 205 open \$1;
#X obj 50 234 hoa.process~ 5 risset.gliss.osc~ planewaves;
#X obj 50 262 ui.hgain~;
#X obj 251 262 ui.dsp~;
#X obj 50 291 dac~ 1 2;
#X obj 20 340 cnv 1 745 1 empty empty empty 17 7 0 10 -203890 -1 0;
#X obj 20 345 cnv 5 115 26 empty empty mouse_events: 4 10 0 14 -262144
-49933 0;
#X text 110 380 Left-click;
#X text 285 380 opens audio properties dialog.;
#X obj 20 410 cnv 1 745 1 empty empty empty 17 7 0 10 -203890 -1 0;
#X obj 20 415 cnv 5 90 26 empty empty arguments: 4 10 0 14 -262144
-49933 0;
#X text 110 450 1\.;
#X text 150 450 list;
#X obj 246 451 cnv 1 39 20 empty empty empty 17 7 0 10 -245695 -1 0;
#X text 245 450 OUTS: list of output channels: single channel number
or X:Y range \, that means from X channel to Y (including last one).
If not specified - using 1 and 2 out channels. Type: list.;
#X obj 20 510 cnv 1 745 1 empty empty empty 17 7 0 10 -203890 -1 0;
#X obj 20 515 cnv 5 98 26 empty empty properties: 4 10 0 14 -262144
-49933 0;
#X msg 110 550 @channels;
#X text 245 550 Get/Set list of mapped channels. Type: list. Default
value: 1 2\.;
#X obj 20 602 cnv 1 745 1 empty empty empty 17 7 0 10 -203890 -1 0;
#X obj 20 607 cnv 5 73 26 empty empty methods: 4 10 0 14 -262144
-49933 0;
#X msg 110 642 reverse;
#X text 245 642 reverse output channels order.;
#X msg 110 669 rotate;
#X text 245 669 rotate output channels counter clockwise. Arguments
are:;
#X obj 255 692 cnv 1 14 23 empty empty empty 17 7 0 10 -245695 -1 0;
#X text 255 692 N: number of rotation steps \, can be negative. Type:
int.;
#X msg 110 717 shuffle;
#X text 245 717 shuffle output channels order.;
#X msg 110 744 side2circle;
#X text 245 744 map left/right side pairs to counter clockwise layout.;
#X obj 20 781 cnv 1 745 1 empty empty empty 17 7 0 10 -203890 -1 0;
#X obj 20 786 cnv 5 64 26 empty empty inlets: 4 10 0 14 -262144 -49933
0;
#X text 110 787 1\.;
#X text 150 787 *float*;
#X text 245 787 glissando phase.;
#X obj 20 817 cnv 1 745 1 empty empty empty 17 7 0 10 -203890 -1 0;
#X obj 20 822 cnv 5 73 26 empty empty outlets: 4 10 0 14 -262144
-49933 0;
#X text 110 823 1\.;
#X text 245 823 list of midi pitches.;
#X text 110 843 2\.;
#X text 245 843 list of amplitudes.;
#X obj 10 48 ui.link @title index @url ../index-help.pd;
#X text 51 45 ::;
#X obj 67 48 ui.link @title ceammc @url ceammc-help.pd;
#X text 115 45 ::;
#X obj 131 48 ui.link @title misc @url ceammc.misc-help.pd;
#X obj 1 893 cnv 5 765 48 empty empty empty 17 7 0 10 -203890 -1 0;
#X text 10 896 library: ceammc v0.9.4;
#N canvas 10 915 400 290 info 0;
#X obj 1 1 cnv 1 107 287 empty empty empty 17 7 0 10 -183085 -1 0;
#X text 10 10 library:;
#X text 120 10 ceammc;
#X text 10 32 version:;
#X text 120 32 0.9.4;
#X text 10 54 object:;
#X text 120 54 risset.gliss;
#X text 10 76 category:;
#X text 120 76 misc;
#X text 10 98 since:;
#X text 120 98 0.9.5;
#X text 10 120 authors:;
#X text 120 120 Serge Poltavsky;
#X text 10 142 license:;
#X text 120 142 GPL3 or later;
#X text 10 164 keywords:;
#X text 120 164 misc \, risset \, glissando;
#X text 10 186 website:;
#X obj 120 189 ui.link @title https://github.com/uliss/pure-data @url
https://github.com/uliss/pure-data;
#X obj 120 208 declare -lib ceammc;
#X obj 120 268 cnv 1 270 1 empty empty empty 17 7 0 10 -203890 -1 0;
#X text 120 268 generated by pddoc;
#X restore 10 915 pd info;
#X connect 4 0 5 0;
#X connect 5 0 6 0;
#X connect 6 0 8 0;
#X connect 6 1 9 0;
#X connect 7 0 10 0;
#X connect 8 0 11 1;
#X connect 9 0 11 2;
#X connect 10 0 11 0;
#X connect 11 0 12 0;
#X connect 12 0 14 0;
#X connect 12 0 14 1;