#N canvas 0 0 293 400 12;
#X obj 20 48 ui.keyboard 24 48;
#X obj 20 120 stripnote;
#X msg 20 149 \$1;
#X obj 116 149 ui.dsp~;
#X obj 20 178 mtof;
#X obj 20 207 route.random 3;
#X floatatom 20 235 5 0 0 0 - - -;
#X floatatom 87 235 5 0 0 0 - - -;
#X floatatom 154 235 5 0 0 0 - - -;
#X obj 20 264 osc~;
#X obj 87 264 osc~;
#X obj 154 264 osc~;
#X obj 20 293 pan.spread~ 3;
#X obj 20 322 ui.hgain2~;
#X obj 20 351 dac~;
#X connect 0 0 1 0;
#X connect 1 0 2 0;
#X connect 2 0 4 0;
#X connect 4 0 5 0;
#X connect 5 0 6 0;
#X connect 5 1 7 0;
#X connect 5 2 8 0;
#X connect 6 0 9 0;
#X connect 7 0 10 0;
#X connect 8 0 11 0;
#X connect 9 0 12 0;
#X connect 10 0 12 1;
#X connect 11 0 12 2;
#X connect 12 0 13 0;
#X connect 12 1 13 1;
#X connect 13 0 14 0;
#X connect 13 1 14 1;
