#N canvas 0 0 471 300 12;
#X obj 20 48 bng 15 250 50 0 empty empty empty 17 7 0 10 -262144 -1
-1;
#X obj 20 77 data.dict \[a: 1\];
#X obj 39 106 bng 15 250 50 0 empty empty empty 17 7 0 10 -262144 -1
-1;
#X obj 39 135 data.mlist (1 2 3);
#X obj 20 178 route.data MList;
#X obj 20 207 ui.dt;
#X obj 106 235 ui.dt;
#X connect 0 0 1 0;
#X connect 2 0 3 0;
#X connect 4 0 5 0;
#X connect 4 1 6 0;
#X connect 1 0 4 0;
#X connect 3 0 4 0;
