#N canvas 0 0 785 555 12;
#X declare -lib ceammc;
#X obj 338 50 cnv 1 427 23 empty empty empty 17 7 0 10 -245760 -1 0;
#X text 338 50 convert OpenMusic-like rhythm tree to list of fractions;
#X obj 1 1 cnv 5 765 40 empty empty rtree.to_list 20 20 0 20 -104026
-4096 0;
#X obj 388 11 ceammc/rtree->list;
#X obj 543 11 rtree->list;
#X obj 647 11 rtree.to_list;
#X obj 210 80 cnv 1 555 60 empty empty empty 17 7 0 10 -257983 -1 0;
#X text 215 80 rhythm tree is structure to define complex rhythmic
patterns;
#X text 215 105 Examples: (1 1 1) - triplet \, (2 1) - swing;
#X msg 50 168 bang;
#X floatatom 117 168 5 0 0 0 - - -;
#X msg 165 168 (1 2 2 1) \, bang;
#X msg 357 168 (2 1 1) \, bang;
#X msg 530 168 (3 1) \, bang;
#X obj 50 212 rtree->list 1 (1 1 1 1 (2 1 1));
#X obj 50 240 ui.dt;
#X text 50 284 built-in funciton rtree() \, that can be used in any
ceammc object instead of list arguments;
#X floatatom 290 312 5 0 0 0 - - -;
#X msg 50 341 bang;
#X msg 126 341 stop;
#X msg 290 341 @t \$1;
#X obj 50 370 seq.bangs rtree(2 \(1 1 1 \(1 1\) 1 \(1 1 1\) 1 \(1 1 1
1 1\)\)\) @inf @t 90bpm, f 70;
#X obj 50 399 click~;
#X obj 50 428 flt.resonbp~ 1000 60;
#X obj 270 428 ui.dsp~;
#X obj 50 456 ui.hgain~;
#X obj 50 485 dac~;
#X obj 20 535 cnv 1 745 1 empty empty empty 17 7 0 10 -203890 -1 0;
#X obj 20 540 cnv 5 90 25 empty empty arguments: 4 10 0 14 -262144
-49933 0;
#X text 110 575 1\.;
#X text 150 575 float;
#X obj 246 576 cnv 1 32 20 empty empty empty 17 7 0 10 -245695 -1 0;
#X text 245 575 DUR: total pattern duration. Type: float.;
#X text 110 595 2\.;
#X text 150 595 atom;
#X obj 246 596 cnv 1 47 20 empty empty empty 17 7 0 10 -245695 -1 0;
#X text 245 595 RTREE: rhythm tree. Type: atom.;
#X obj 20 625 cnv 1 745 1 empty empty empty 17 7 0 10 -203890 -1 0;
#X obj 20 630 cnv 5 98 25 empty empty properties: 4 10 0 14 -262144
-49933 0;
#X msg 110 665 @dur;
#X text 245 665 Get/Set total pattern duration. Type: float. Default
value: 1\.;
#X msg 110 707 @rtree;
#X text 245 707 Get/Set rhythm tree. (MList). Type: atom. Default value:
().;
#X obj 20 747 cnv 1 745 1 empty empty empty 17 7 0 10 -203890 -1 0;
#X obj 20 752 cnv 5 64 25 empty empty inlets: 4 10 0 14 -262144 -49933
0;
#X text 110 753 1\.;
#X text 150 753 *bang*;
#X text 245 753 output.;
#X text 150 773 *float*;
#X text 245 773 set @dur and output.;
#X text 150 793 *data:mlist*;
#X text 245 793 set @rtree \, no output.;
#X text 150 813 *any*;
#X text 245 813 parse message and set @rtree \, no output.;
#X obj 20 843 cnv 1 745 1 empty empty empty 17 7 0 10 -203890 -1 0;
#X obj 20 848 cnv 5 73 25 empty empty outlets: 4 10 0 14 -262144
-49933 0;
#X text 110 849 1\.;
#X text 245 849 list output.;
#X obj 10 48 ui.link @title index @url ../index-help.pd;
#X text 51 45 ::;
#X obj 68 48 ui.link @title ceammc @url ceammc-help.pd;
#X text 116 45 ::;
#X obj 133 48 ui.link @title data @url ceammc.data-help.pd;
#X obj 1 899 cnv 5 765 48 empty empty empty 17 7 0 10 -203890 -1 0;
#X text 10 902 library: ceammc v0.9.7;
#N canvas 10 921 400 290 info 0;
#X obj 1 1 cnv 1 107 287 empty empty empty 17 7 0 10 -183085 -1 0;
#X text 10 10 library:;
#X text 120 10 ceammc;
#X text 10 32 version:;
#X text 120 32 0.9.7;
#X text 10 54 object:;
#X text 120 54 rtree.to_list;
#X text 10 76 category:;
#X text 120 76 data;
#X text 10 98 since:;
#X text 120 98 0.9.1;
#X text 10 120 authors:;
#X text 120 120 Serge Poltavsky;
#X text 10 142 license:;
#X text 120 142 GPL3 or later;
#X text 10 164 keywords:;
#X text 120 164 rhythm \, rtree \, openmusic \, pattern;
#X text 10 186 website:;
#X obj 120 189 ui.link @title https://github.com/uliss/pd-ceammc @url
https://github.com/uliss/pd-ceammc;
#X obj 120 208 declare -lib ceammc;
#X obj 120 268 cnv 1 270 1 empty empty empty 17 7 0 10 -203890 -1 0;
#X text 120 268 generated by pddoc;
#X restore 10 921 pd info;
#X connect 9 0 14 0;
#X connect 10 0 14 0;
#X connect 11 0 14 0;
#X connect 12 0 14 0;
#X connect 13 0 14 0;
#X connect 14 0 15 0;
#X connect 17 0 20 0;
#X connect 18 0 21 0;
#X connect 19 0 21 0;
#X connect 20 0 21 0;
#X connect 21 0 22 0;
#X connect 22 0 23 0;
#X connect 23 0 25 0;
#X connect 25 0 26 0;
#X connect 25 0 26 1;