#N canvas 0 0 842 357 12;
#X obj 20 48 notein;
#X obj 20 77 pack f f;
#X obj 20 106 ui.keyboard;
#X obj 135 178 ui.btn;
#X obj 231 178 ui.btn;
#X obj 327 178 ui.btn;
#X obj 442 178 ui.btn;
#X obj 20 207 msg note;
#X msg 135 207 hold \$1;
#X msg 231 207 soft \$1;
#X msg 327 207 legato \$1;
#X msg 442 207 sostenuto \$1;
#X obj 20 250 sfizz~ \#sine;
#X obj 20 279 ui.hgain2~;
#X obj 173 279 ui.dsp~;
#X obj 20 308 dac~;
#X connect 0 0 1 0;
#X connect 0 1 1 1;
#X connect 1 0 2 0;
#X connect 2 0 7 0;
#X connect 3 0 8 0;
#X connect 4 0 9 0;
#X connect 5 0 10 0;
#X connect 6 0 11 0;
#X connect 7 0 12 0;
#X connect 8 0 12 0;
#X connect 9 0 12 0;
#X connect 10 0 12 0;
#X connect 11 0 12 0;
#X connect 12 0 13 0;
#X connect 12 1 13 1;
#X connect 13 0 15 0;
#X connect 13 1 15 1;
