#N canvas 0 0 616 472 12;
#X text 20 48 change in Audio Preferences samplerate \, then play both
variants;
#X msg 20 92 symbol %CEAMMC%/guitar1.wav \, 1;
#X msg 231 120 open %CEAMMC%/guitar1.wav \, 1;
#X obj 20 178 expand_env;
#X obj 231 178 expand_env;
#X obj 20 207 snd.play~ 1;
#X obj 231 207 readsf~;
#X obj 20 235 ui.hgain2~;
#X obj 240 235 ui.dsp~;
#X obj 20 264 dac~;
#X connect 1 0 3 0;
#X connect 2 0 4 0;
#X connect 3 0 5 0;
#X connect 4 0 6 0;
#X connect 5 0 7 0;
#X connect 5 0 7 1;
#X connect 6 0 7 0;
#X connect 6 0 7 1;
#X connect 7 0 9 0;
#X connect 7 1 9 1;
