#N canvas 0 0 237 173 12;
#X obj 20 48 bng 15 250 50 0 empty empty empty 17 7 0 10 -262144 -1
-1;
#X obj 20 77 openpanel;
#X msg 20 106 load \$1 @to array1 @resize;
#X obj 20 135 snd.file;
#X floatatom 20 164 5 0 0 0 - - -;
#X connect 3 0 4 0;
#X connect 0 0 1 0;
#X connect 1 0 2 0;
#X connect 2 0 3 0;
