#N canvas 0 0 785 555 12;
#X declare -lib ceammc;
#X obj 544 50 cnv 1 221 23 empty empty empty 17 7 0 10 -245760 -1 0;
#X text 544 50 8 channel reverb spatializer;
#X obj 1 1 cnv 5 765 40 empty empty spat.zita8~ 20 20 0 20 -104026
-4096 0;
#X obj 659 11 spat.zita8~;
#X msg 50 118 open %CEAMMC%/sound/vln-pizz-a4.aiff \, 1;
#X obj 347 118 ui.polar @positive 1 @clockwise 1;
#X obj 50 147 expand_env;
#X obj 50 176 readsf~;
#X obj 69 234 osc~ 1000;
#X obj 347 234 list.apply_to 1;
#X obj 549 234 / 360;
#X obj 69 262 env.ar~ 20 100;
#X obj 232 262 ui.dt;
#X msg 347 262 @radius \$1 \, @angle \$2;
#X obj 50 320 spat.zita8~ @radius 0, f 25;
#X obj 50 349 dac~ 1 2 3 4 5 6 7 8, f 25;
#X obj 347 349 ui.dsp~;
#X obj 20 399 cnv 1 745 1 empty empty empty 17 7 0 10 -203890 -1 0;
#X obj 20 404 cnv 5 90 25 empty empty arguments: 4 10 0 14 -262144
-49933 0;
#X text 110 439 1\.;
#X text 150 439 float;
#X obj 246 440 cnv 1 55 20 empty empty empty 17 7 0 10 -245695 -1 0;
#X text 245 439 RADIUS: @radius property. Type: float. Range: 0\...1;
#X text 110 459 2\.;
#X text 150 459 float;
#X obj 246 460 cnv 1 48 20 empty empty empty 17 7 0 10 -245695 -1 0;
#X text 245 459 ANGLE: @angle property. Type: float. Range: 0\...1;
#X obj 20 489 cnv 1 745 1 empty empty empty 17 7 0 10 -203890 -1 0;
#X obj 20 494 cnv 5 98 25 empty empty properties: 4 10 0 14 -262144
-49933 0;
#X msg 110 529 @id;
#X text 245 529 (initonly) Get/Set OSC address id. If specified \,
bind all properties to /ID/spat_zita8/PROP_NAME osc address \, if empty
bind to /spat_zita8/PROP_NAME. Type: symbol.;
#X msg 110 586 @osc;
#X text 245 586 (initonly) Get/Set OSC server name to listen. Type:
symbol.;
#X msg 110 616 @active;
#X text 245 616 Turn on/off dsp processing. Type: bool. Default value:
1\.;
#X msg 110 646 @angle;
#X text 245 646 Get/Set source panning position. Type: float. Default
value: 0\. Range: 0\...1\.;
#X msg 110 688 @decay_low;
#X text 245 688 Get/Set time (in seconds) to decay 60dB in low-frequency
band. Type: float. Units: 'sec'. Default value: 3\. Range: 1\...60\.;
#X msg 110 745 @decay_mid;
#X text 245 745 Get/Set time (in seconds) to decay 60dB in mid-frequency
band. Type: float. Units: 'sec'. Default value: 2\. Range: 1\...60\.;
#X msg 110 802 @delay;
#X text 245 802 Get/Set a delay of 20 to 100 ms operating on the 'wet'
signal. Large values will provide the impression of a larger room.
Type: float. Units: 'ms'. Default value: 60\. Range: 20\...100\.;
#X msg 110 874 @dump_hf;
#X text 245 874 Get/Set Frequency (Hz) at which the high-frequency
T60 is half the middle-band's T60\. Type: float. Units: 'Hz'. Default
value: 6000\. Range: 1500\...47040\.;
#X msg 110 931 @freq_low;
#X text 245 931 Get/Set Crossover frequency (Hz) separating low and
middle frequencies. Type: float. Units: 'Hz'. Default value: 200\.
Range: 50\...1000\.;
#X msg 110 988 @radius;
#X text 245 988 Get/Set source distance from circle center. Type: float.
Default value: 1\. Range: 0\...1\.;
#X obj 20 1040 cnv 1 745 1 empty empty empty 17 7 0 10 -203890 -1 0;
#X obj 20 1045 cnv 5 73 25 empty empty methods: 4 10 0 14 -262144
-49933 0;
#X msg 110 1080 reset;
#X text 245 1080 reset spat and reverb.;
#X obj 20 1118 cnv 1 745 1 empty empty empty 17 7 0 10 -203890 -1 0;
#X obj 20 1123 cnv 5 64 25 empty empty inlets: 4 10 0 14 -262144
-49933 0;
#X text 110 1124 1\.;
#X text 245 1124 input.;
#X obj 20 1154 cnv 1 745 1 empty empty empty 17 7 0 10 -203890 -1 0;
#X obj 20 1159 cnv 5 73 25 empty empty outlets: 4 10 0 14 -262144
-49933 0;
#X text 110 1160 1\.;
#X text 245 1160 1st output.;
#X text 110 1180 2\.;
#X text 245 1180 2dn output.;
#X text 110 1200 3\.;
#X text 245 1200 3rd output.;
#X text 110 1220 4\.;
#X text 245 1220 4th output.;
#X text 110 1240 5\.;
#X text 245 1240 5th output.;
#X text 110 1260 6\.;
#X text 245 1260 6th output.;
#X text 110 1280 7\.;
#X text 245 1280 7th output.;
#X text 110 1300 8\.;
#X text 245 1300 8th output.;
#X obj 10 48 ui.link @title index @url ../index-help.pd;
#X text 51 45 ::;
#X obj 68 48 ui.link @title ceammc @url ceammc-help.pd;
#X text 116 45 ::;
#X obj 133 48 ui.link @title spat @url ceammc.spat-help.pd;
#X obj 1 1350 cnv 5 765 48 empty empty empty 17 7 0 10 -203890 -1 0;
#X text 10 1353 library: ceammc v0.9.7;
#N canvas 10 1372 400 290 info 0;
#X obj 1 1 cnv 1 107 287 empty empty empty 17 7 0 10 -183085 -1 0;
#X text 10 10 library:;
#X text 120 10 ceammc;
#X text 10 32 version:;
#X text 120 32 0.9.7;
#X text 10 54 object:;
#X text 120 54 spat.zita8~;
#X text 10 76 category:;
#X text 120 76 spat;
#X text 10 98 since:;
#X text 120 98 0.9.4;
#X text 10 120 authors:;
#X text 120 120 Serge Poltavsky;
#X text 10 142 license:;
#X text 120 142 GPL3 or later;
#X text 10 164 keywords:;
#X text 120 164 fx \, spat \, zita;
#X text 10 186 website:;
#X obj 120 189 ui.link @title https://github.com/uliss/pd-ceammc @url
https://github.com/uliss/pd-ceammc;
#X obj 120 208 declare -lib ceammc;
#X obj 120 268 cnv 1 270 1 empty empty empty 17 7 0 10 -203890 -1 0;
#X text 120 268 generated by pddoc;
#X restore 10 1372 pd info;
#X connect 4 0 6 0;
#X connect 6 0 7 0;
#X connect 5 0 9 0;
#X connect 8 0 11 0;
#X connect 9 0 13 0;
#X connect 7 0 14 0;
#X connect 11 0 14 0;
#X connect 13 0 14 0;
#X connect 14 0 15 0;
#X connect 14 1 15 1;
#X connect 14 2 15 2;
#X connect 14 3 15 3;
#X connect 14 4 15 4;
#X connect 14 5 15 5;
#X connect 14 6 15 6;
#X connect 14 7 15 7;
#X connect 9 0 12 0;
#X connect 9 1 10 0;
#X connect 10 0 9 2;