#N canvas 0 0 785 555 12;
#X declare -lib ceammc;
#X obj 514 50 cnv 1 251 23 empty empty empty 17 7 0 10 -245760 -1 0;
#X text 514 50 GMEM SPAT: 8-outputs spatializer;
#X obj 1 1 cnv 5 765 40 empty empty spat.pan8~ 20 20 0 20 -104026
-4096 0;
#X obj 493 11 ceammc/pan8~;
#X obj 605 11 pan8~;
#X obj 667 11 spat.pan8~;
#X obj 50 118 osc~ 1000;
#X obj 165 118 ui.knob;
#X obj 299 118 ui.knob;
#X obj 165 162 phase->rad;
#X msg 165 190 @angle \$1;
#X msg 299 190 @radius \$1;
#X obj 50 248 spat.pan8~ 1 pi();
#X obj 50 277 ui.m~;
#X obj 126 277 ui.m~;
#X obj 203 277 ui.m~;
#X obj 280 277 ui.m~;
#X obj 357 277 ui.m~;
#X obj 434 277 ui.m~;
#X obj 510 277 ui.m~;
#X obj 587 277 ui.m~;
#X obj 50 406 ui.dsp~;
#X obj 20 455 cnv 1 745 1 empty empty empty 17 7 0 10 -203890 -1 0;
#X obj 20 460 cnv 5 90 26 empty empty arguments: 4 10 0 14 -262144
-49933 0;
#X text 110 495 1\.;
#X text 150 495 float;
#X obj 246 496 cnv 1 54 20 empty empty empty 17 7 0 10 -245695 -1 0;
#X text 245 495 RADIUS: panning radius. Type: float. Min value: 0;
#X text 110 515 2\.;
#X text 150 515 float;
#X obj 246 516 cnv 1 85 20 empty empty empty 17 7 0 10 -245695 -1 0;
#X text 245 515 ANGLE(rad): circle panning position in radians. Type:
float. Range: 0\...2π;
#X obj 20 560 cnv 1 745 1 empty empty empty 17 7 0 10 -203890 -1 0;
#X obj 20 565 cnv 5 98 26 empty empty properties: 4 10 0 14 -262144
-49933 0;
#X msg 110 600 @active;
#X text 245 600 Get/Set on/off dsp processing. Type: bool. Default
value: 1\.;
#X msg 110 629 @angle;
#X text 245 629 Get/Set panning position in radians. Type: float. Default
value: 0\. Range: 0\...2π.;
#X msg 110 671 @radius;
#X text 245 671 Get/Set distance from circle center. Type: float. Default
value: 1\. Range: 0\...1\.;
#X obj 20 723 cnv 1 745 1 empty empty empty 17 7 0 10 -203890 -1 0;
#X obj 20 728 cnv 5 64 26 empty empty inlets: 4 10 0 14 -262144 -49933
0;
#X text 110 729 1\.;
#X text 245 729 input signal.;
#X text 150 749 *list*;
#X text 245 749 set radius and angle.;
#X obj 20 779 cnv 1 745 1 empty empty empty 17 7 0 10 -203890 -1 0;
#X obj 20 784 cnv 5 73 26 empty empty outlets: 4 10 0 14 -262144
-49933 0;
#X text 110 785 1\.;
#X text 245 785 1st output channel.;
#X text 110 805 2\.;
#X text 245 805 2nd output channel.;
#X text 110 825 3\.;
#X text 245 825 3rd output channel.;
#X text 110 845 4\.;
#X text 245 845 4th output channel.;
#X text 110 865 5\.;
#X text 245 865 5th output channel.;
#X text 110 885 6\.;
#X text 245 885 6th output channel.;
#X text 110 905 7\.;
#X text 245 905 7th output channel.;
#X text 110 925 8\.;
#X text 245 925 8th output channel.;
#X obj 10 48 ui.link @title index @url ../index-help.pd;
#X text 51 45 ::;
#X obj 67 48 ui.link @title ceammc @url ceammc-help.pd;
#X text 115 45 ::;
#X obj 131 48 ui.link @title spat @url ceammc.spat-help.pd;
#X obj 1 975 cnv 5 765 48 empty empty empty 17 7 0 10 -203890 -1 0;
#X text 10 978 library: ceammc v0.9.6;
#X text 629 990 see also:;
#X obj 703 990 pan4~;
#N canvas 10 997 400 290 info 0;
#X obj 1 1 cnv 1 107 287 empty empty empty 17 7 0 10 -183085 -1 0;
#X text 10 10 library:;
#X text 120 10 ceammc;
#X text 10 32 version:;
#X text 120 32 0.9.6;
#X text 10 54 object:;
#X text 120 54 spat.pan8~;
#X text 10 76 category:;
#X text 120 76 spat;
#X text 10 98 since:;
#X text 120 98 0.6;
#X text 10 120 authors:;
#X text 120 120 Serge Poltavsky;
#X text 10 142 license:;
#X text 120 142 GPL3 or later;
#X text 10 164 keywords:;
#X text 120 164 spat \, pan;
#X text 10 186 website:;
#X obj 120 189 ui.link @title https://github.com/uliss/pure-data @url
https://github.com/uliss/pure-data;
#X obj 120 208 declare -lib ceammc;
#X obj 120 268 cnv 1 270 1 empty empty empty 17 7 0 10 -203890 -1 0;
#X text 120 268 generated by pddoc;
#X restore 10 997 pd info;
#X connect 7 0 9 0;
#X connect 9 0 10 0;
#X connect 8 0 11 0;
#X connect 6 0 12 0;
#X connect 10 0 12 0;
#X connect 11 0 12 0;
#X connect 12 0 13 0;
#X connect 12 1 14 0;
#X connect 12 2 15 0;
#X connect 12 3 16 0;
#X connect 12 4 17 0;
#X connect 12 5 18 0;
#X connect 12 6 19 0;
#X connect 12 7 20 0;