#N canvas 0 0 785 555 12;
#X declare -lib ceammc;
#X obj 591 50 cnv 1 174 23 empty empty empty 17 7 0 10 -245760 -1 0;
#X text 591 50 render speech to array;
#X obj 1 1 cnv 5 765 40 empty empty speech.flite 20 20 0 20 -104026
-4096 0;
#X obj 653 11 speech.flite;
#X obj 210 80 cnv 1 555 75 empty empty empty 17 7 0 10 -257983 -1 0;
#X text 215 80 Renders floats \, symbols and list to wavetables using
flite TTS engine.;
#X text 215 120 Rendering is performed in separate thread.;
#N canvas 0 22 450 300 (subpatch) 0;
#X array arr_flite 100 float 1;
#A 0 0 0 0 0 0 0 0 0 0 0 0 0 0 0 0 0 0 0 0 0 0 0 0 0 0 0 0 0 0 0 0 0 0
0 0 0 0 0 0 0 0 0 0 0 0 0 0 0 0 0 0 0 0 0 0 0 0 0 0 0 0 0 0 0 0 0 0 0
0 0 0 0 0 0 0 0 0 0 0 0 0 0 0 0 0 0 0 0 0 0 0 0 0 0 0 0 0 0 0 0;
#X coords 0 1 100 -1 114 18 1;
#X restore 50 183 graph;
#X obj 50 270 tgl 15 0 empty empty empty 17 7 0 10 -262144 -1 -1 0 1;
#X obj 50 299 metro 1000;
#X obj 184 299 ui.menu kal16 slt rms awb;
#X obj 453 299 ui.knob @min 1 @max 4;
#X obj 50 327 flow.count;
#X msg 184 327 @voice \$2;
#X floatatom 299 327 5 0 0 0 - - -;
#X msg 299 356 @pitch \$1;
#X msg 453 356 @speed \$1;
#X obj 50 385 speech.flite arr_flite;
#X msg 50 414 0;
#X obj 50 443 tabplay~ arr_flite;
#X obj 50 471 ui.gain~ @size 120 16;
#X obj 299 471 ui.dsp~;
#X obj 50 500 dac~;
#X obj 20 550 cnv 1 745 1 empty empty empty 17 7 0 10 -203890 -1 0;
#X obj 20 555 cnv 5 90 25 empty empty arguments: 4 12 0 14 -262144
-49933 0;
#X obj 735 558 ui.link @background_color 0.98039 0.98039 0.98039
@title [?] @url ceammc.args-info.pd;
#X text 110 590 1\.;
#X text 150 590 symbol;
#X obj 246 591 cnv 1 48 20 empty empty empty 17 7 0 10 -245695 -1 0;
#X text 245 590 ARRAY: destination array name render to. Type: symbol.;
#X obj 20 620 cnv 1 745 1 empty empty empty 17 7 0 10 -203890 -1 0;
#X obj 20 625 cnv 5 98 25 empty empty properties: 4 12 0 14 -262144
-49933 0;
#X obj 735 628 ui.link @background_color 0.98039 0.98039 0.98039
@title [?] @url ceammc.props-info.pd;
#X msg 110 660 @array;
#X text 245 660 Get/Set destination array name. Type: symbol.;
#X msg 110 690 @pitch;
#X text 245 690 Get/Set voice pitch (-1 - default value). Type: float.
Default value: -1\.;
#X msg 110 732 @speed;
#X text 245 732 Get/Set speaking speed. Type: float. Default value:
1\. Range: 1\...4\.;
#X msg 110 774 @voice;
#X text 245 774 Get/Set default voice. Type: symbol. Default value:
kal16\. Allowed values: kal16 \, slt \, rms \, awb.;
#X obj 20 826 cnv 1 745 1 empty empty empty 17 7 0 10 -203890 -1 0;
#X obj 20 831 cnv 5 64 25 empty empty inlets: 4 12 0 14 -262144 -49933
0;
#X text 110 832 1\.;
#X text 150 832 *float*;
#X text 245 832 render number to array.;
#X text 150 852 *symbol*;
#X text 245 852 render text to array.;
#X text 150 872 *list*;
#X text 245 872 render text to array.;
#X text 110 892 2\.;
#X text 150 892 *symbol*;
#X text 245 892 set target array name.;
#X obj 20 922 cnv 1 745 1 empty empty empty 17 7 0 10 -203890 -1 0;
#X obj 20 927 cnv 5 73 25 empty empty outlets: 4 12 0 14 -262144
-49933 0;
#X text 110 928 1\.;
#X text 245 928 bang on done.;
#X obj 10 48 ui.link @title index @url ../index-help.pd;
#X text 51 45 ::;
#X obj 68 48 ui.link @title ceammc @url ceammc-help.pd;
#X text 116 45 ::;
#X obj 133 48 ui.link @title misc @url ceammc.misc-help.pd;
#X obj 1 978 cnv 5 765 48 empty empty empty 17 7 0 10 -203890 -1 0;
#X text 10 981 library: ceammc v0.9.7;
#N canvas 10 1000 400 290 info 0;
#X obj 1 1 cnv 1 107 287 empty empty empty 17 7 0 10 -183085 -1 0;
#X text 10 10 library:;
#X text 120 10 ceammc;
#X text 10 32 version:;
#X text 120 32 0.9.7;
#X text 10 54 object:;
#X text 120 54 speech.flite;
#X text 10 76 category:;
#X text 120 76 misc;
#X text 10 98 since:;
#X text 120 98 0.6;
#X text 10 120 authors:;
#X text 120 120 Serge Poltavsky;
#X text 10 142 license:;
#X text 120 142 GPL3 or later;
#X text 10 164 keywords:;
#X text 120 164 speak \, speech \, flite;
#X text 10 186 website:;
#X obj 120 189 ui.link @title https://github.com/uliss/pd-ceammc @url
https://github.com/uliss/pd-ceammc;
#X obj 120 208 declare -lib ceammc;
#X obj 120 268 cnv 1 270 1 empty empty empty 17 7 0 10 -203890 -1 0;
#X text 120 268 generated by pddoc;
#X restore 10 1000 pd info;
#X connect 8 0 9 0;
#X connect 9 0 12 0;
#X connect 10 0 13 0;
#X connect 14 0 15 0;
#X connect 11 0 16 0;
#X connect 12 0 17 0;
#X connect 13 0 17 0;
#X connect 15 0 17 0;
#X connect 16 0 17 0;
#X connect 17 0 18 0;
#X connect 18 0 19 0;
#X connect 19 0 20 0;
#X connect 20 0 22 0;
#X connect 20 0 22 1;