#N canvas 0 0 739 357 12;
#X msg 20 48 ssml <speak><voice name="Pavel">Я Павел</voice><voice name="Anna">а я Анна</voice></speak>;
#X msg 423 77 all;
#X msg 480 77 !;
#X msg 48 106 list з+амок и зам+ок;
#X obj 423 106 symbol;
#X msg 509 106 symbol;
#X msg 77 135 list казнить нельзя\ \, помиловать!;
#X msg 423 135 @punct \$1;
#X obj 20 164 speech.rhvoice~;
#X obj 20 192 ui.hgain~;
#X obj 20 221 dac~;
#X connect 1 0 4 0;
#X connect 2 0 4 0;
#X connect 4 0 7 0;
#X connect 5 0 7 0;
#X connect 0 0 8 0;
#X connect 3 0 8 0;
#X connect 6 0 8 0;
#X connect 7 0 8 0;
#X connect 8 0 9 0;
#X connect 9 0 10 0;
#X connect 9 0 10 1;
