#N canvas 0 0 785 555 12;
#X declare -lib ceammc;
#X obj 591 50 cnv 1 174 23 empty empty empty 17 7 0 10 -245760 -1 0;
#X text 591 50 render speech to array;
#X obj 1 1 cnv 5 765 40 empty empty speech.flite~ 20 20 0 20 -104026
-4096 0;
#X obj 645 11 speech.flite~;
#X obj 210 80 cnv 1 555 50 empty empty empty 17 7 0 10 -257983 -1 0;
#X text 215 80 Speaks floats \, symbols and list to wavetables using
flite TTS engine.;
#X obj 50 158 tgl 15 0 empty empty empty 17 7 0 10 -262144 -1 -1 0 1;
#X obj 50 187 metro 1000;
#X obj 184 187 ui.menu kal16 slt rms awb;
#X obj 453 187 ui.knob @min 1 @max 4;
#X obj 50 216 flow.count;
#X msg 184 216 @voice \$2;
#X floatatom 299 216 5 0 0 0 - - -;
#X msg 299 245 @pitch \$1;
#X msg 453 245 @speed \$1;
#X obj 50 274 speech.flite~;
#X obj 136 302 ui.dt;
#X obj 50 331 ui.gain~ @size 120 16;
#X obj 299 331 ui.dsp~;
#X obj 50 360 dac~;
#X obj 20 410 cnv 1 745 1 empty empty empty 17 7 0 10 -203890 -1 0;
#X obj 20 415 cnv 5 98 25 empty empty properties: 4 12 0 14 -262144
-49933 0;
#X obj 735 418 ui.link @background_color 0.98039 0.98039 0.98039
@title [?] @url ceammc.props-info.pd;
#X msg 110 450 @pitch;
#X text 245 450 Get/Set voice pitch (-1 - default value). Type: float.
Default value: -1\.;
#X msg 110 492 @speed;
#X text 245 492 Get/Set speaking speed. Type: float. Default value:
1\. Range: 0.5\...4\.;
#X msg 110 534 @voice;
#X text 245 534 Get/Set default voice. Type: symbol. Default value:
kal16\. Allowed values: kal16 \, slt \, rms \, awb.;
#X obj 20 586 cnv 1 745 1 empty empty empty 17 7 0 10 -203890 -1 0;
#X obj 20 591 cnv 5 73 25 empty empty methods: 4 12 0 14 -262144
-49933 0;
#X msg 110 626 stop;
#X text 245 626 stops speech and clear speech queue.;
#X obj 20 664 cnv 1 745 1 empty empty empty 17 7 0 10 -203890 -1 0;
#X obj 20 669 cnv 5 64 25 empty empty inlets: 4 12 0 14 -262144 -49933
0;
#X text 110 670 1\.;
#X text 150 670 *float*;
#X text 245 670 speak number.;
#X text 150 690 *symbol*;
#X text 245 690 speak text.;
#X text 150 710 *list*;
#X text 245 710 speak text.;
#X obj 20 740 cnv 1 745 1 empty empty empty 17 7 0 10 -203890 -1 0;
#X obj 20 745 cnv 5 73 25 empty empty outlets: 4 12 0 14 -262144
-49933 0;
#X text 110 746 1\.;
#X text 245 746 output signal.;
#X text 110 766 2\.;
#X text 245 766 float: number of sentences left to speak.;
#X obj 10 48 ui.link @title index @url ../index-help.pd;
#X text 51 45 ::;
#X obj 68 48 ui.link @title ceammc @url ceammc-help.pd;
#X text 116 45 ::;
#X obj 133 48 ui.link @title misc @url ceammc.misc-help.pd;
#X obj 1 816 cnv 5 765 48 empty empty empty 17 7 0 10 -203890 -1 0;
#X text 10 819 library: ceammc v0.9.7;
#X text 578 831 see also:;
#X obj 653 831 speech.flite;
#N canvas 10 838 400 290 info 0;
#X obj 1 1 cnv 1 107 287 empty empty empty 17 7 0 10 -183085 -1 0;
#X text 10 10 library:;
#X text 120 10 ceammc;
#X text 10 32 version:;
#X text 120 32 0.9.7;
#X text 10 54 object:;
#X text 120 54 speech.flite~;
#X text 10 76 category:;
#X text 120 76 misc;
#X text 10 98 since:;
#X text 120 98 0.9.2;
#X text 10 120 authors:;
#X text 120 120 Serge Poltavsky;
#X text 10 142 license:;
#X text 120 142 GPL3 or later;
#X text 10 164 keywords:;
#X text 120 164 speak \, speech \, flite;
#X text 10 186 website:;
#X obj 120 189 ui.link @title https://github.com/uliss/pd-ceammc @url
https://github.com/uliss/pd-ceammc;
#X obj 120 208 declare -lib ceammc;
#X obj 120 268 cnv 1 270 1 empty empty empty 17 7 0 10 -203890 -1 0;
#X text 120 268 generated by pddoc;
#X restore 10 838 pd info;
#X connect 6 0 7 0;
#X connect 7 0 10 0;
#X connect 8 0 11 0;
#X connect 12 0 13 0;
#X connect 9 0 14 0;
#X connect 10 0 15 0;
#X connect 11 0 15 0;
#X connect 13 0 15 0;
#X connect 14 0 15 0;
#X connect 15 1 16 0;
#X connect 15 0 17 0;
#X connect 17 0 19 0;
#X connect 17 0 19 1;