#N canvas 0 0 785 555 12;
#X declare -lib ceammc;
#X obj 607 50 cnv 1 158 23 empty empty empty 17 7 0 10 -245760 -1 0;
#X text 607 50 float value "spring";
#X obj 1 1 cnv 5 765 40 empty empty spring 20 20 0 20 -104026 -4096 0;
#X obj 578 11 ceammc/spring;
#X obj 697 11 spring;
#X text 50 118 Note: @mouse_events property is *on*;
#X obj 50 147 loadmsg 0.5;
#X obj 50 176 ui.k @mouse_events 1 @show_value 1;
#X obj 165 176 spring 0.5 1000 @accel 2;
#X floatatom 165 205 5 0 0 0 - - -;
#X obj 338 205 bng 15 250 50 0 empty empty empty 17 7 0 10 -262144 -1
-1;
#X obj 20 237 cnv 1 745 1 empty empty empty 17 7 0 10 -203890 -1 0;
#X obj 20 242 cnv 5 90 25 empty empty arguments: 4 12 0 14 -262144
-49933 0;
#X obj 735 245 ui.link @background_color 0.98039 0.98039 0.98039
@title [?] @url ceammc.args-info.pd;
#X text 110 277 1\.;
#X text 150 277 float;
#X obj 246 278 cnv 1 48 20 empty empty empty 17 7 0 10 -245695 -1 0;
#X text 245 277 VALUE: target value. Type: float.;
#X text 110 297 2\.;
#X text 150 297 float;
#X obj 246 298 cnv 1 71 20 empty empty empty 17 7 0 10 -245695 -1 0;
#X text 245 297 TIME(ms): time to reach the target value. Type: float.
Range: 50\...5000;
#X obj 20 342 cnv 1 745 1 empty empty empty 17 7 0 10 -203890 -1 0;
#X obj 20 347 cnv 5 98 25 empty empty properties: 4 12 0 14 -262144
-49933 0;
#X obj 735 350 ui.link @background_color 0.98039 0.98039 0.98039
@title [?] @url ceammc.props-info.pd;
#X msg 110 382 @accel;
#X text 245 382 Get/Set acceleration factor \, 0: means linear motion
(no acceleration) \, >0: begin fast \, then slow down \, <0: begin
slow \, then speed up. Type: float. Default value: 0\. Range: -5\...5\.;
#X msg 110 454 @mouse_down;
#X text 245 454 Get/Set internal state. Type: bool. Default value:
0\.;
#X msg 110 484 @mouse_drag;
#X text 245 484 Get/Set internal state. Type: bool. Default value:
0\.;
#X msg 110 514 @mouse_move;
#X text 245 514 Get/Set internal state. Type: bool. Default value:
0\.;
#X msg 110 544 @mouse_up;
#X text 245 544 Get/Set internal state. Type: bool. Default value:
0\.;
#X msg 110 574 @time;
#X text 245 574 Get/Set time to reach target value. Type: float. Units:
'ms'. Default value: 500\. Range: 50\...5000\.;
#X msg 110 616 @value;
#X text 245 616 Get/Set target value. Type: float. Default value: 0\.;
#X obj 20 656 cnv 1 745 1 empty empty empty 17 7 0 10 -203890 -1 0;
#X obj 20 661 cnv 5 64 25 empty empty inlets: 4 12 0 14 -262144 -49933
0;
#X text 110 662 1\.;
#X text 150 662 *float*;
#X text 245 662 set current value.;
#X text 110 682 2\.;
#X text 150 682 *float*;
#X text 245 682 set @value.;
#X obj 20 712 cnv 1 745 1 empty empty empty 17 7 0 10 -203890 -1 0;
#X obj 20 717 cnv 5 73 25 empty empty outlets: 4 12 0 14 -262144
-49933 0;
#X text 110 718 1\.;
#X text 245 718 float: value.;
#X text 110 738 2\.;
#X text 245 738 bang: when target value is reached.;
#X obj 10 48 ui.link @title index @url ../index-help.pd;
#X text 51 45 ::;
#X obj 68 48 ui.link @title ceammc @url ceammc-help.pd;
#X text 116 45 ::;
#X obj 133 48 ui.link @title base @url ceammc.base-help.pd;
#X obj 1 788 cnv 5 765 48 empty empty empty 17 7 0 10 -203890 -1 0;
#X text 10 791 library: ceammc v0.9.7;
#N canvas 10 810 400 290 info 0;
#X obj 1 1 cnv 1 107 287 empty empty empty 17 7 0 10 -183085 -1 0;
#X text 10 10 library:;
#X text 120 10 ceammc;
#X text 10 32 version:;
#X text 120 32 0.9.7;
#X text 10 54 object:;
#X text 120 54 spring;
#X text 10 76 category:;
#X text 120 76 base;
#X text 10 98 since:;
#X text 120 98 0.9.4;
#X text 10 120 authors:;
#X text 120 120 Serge Poltavsky;
#X text 10 142 license:;
#X text 120 142 GPL3 or later;
#X text 10 164 keywords:;
#X text 120 164 spring \, float;
#X text 10 186 website:;
#X obj 120 189 ui.link @title https://github.com/uliss/pd-ceammc @url
https://github.com/uliss/pd-ceammc;
#X obj 120 208 declare -lib ceammc;
#X obj 120 268 cnv 1 270 1 empty empty empty 17 7 0 10 -203890 -1 0;
#X text 120 268 generated by pddoc;
#X restore 10 810 pd info;
#X connect 6 0 7 0;
#X connect 8 0 9 0;
#X connect 8 1 10 0;
#X connect 8 0 7 0;
#X connect 7 0 8 0;