#N canvas 0 0 785 555 12;
#X declare -lib ceammc;
#X obj 491 50 cnv 1 274 23 empty empty empty 17 7 0 10 -245760 -1 0;
#X text 491 50 extract substring from input string;
#X obj 1 1 cnv 5 765 40 empty empty string.substr 20 20 0 20 -104026
-4096 0;
#X obj 548 11 str.substr;
#X obj 646 11 string.substr;
#X msg 50 118 symbol PureData;
#X obj 50 147 str.substr 4;
#X obj 50 176 str->sym;
#X obj 50 205 msg set;
#X msg 50 234 ;
#X obj 20 283 cnv 1 745 1 empty empty empty 17 7 0 10 -203890 -1 0;
#X obj 20 288 cnv 5 90 26 empty empty arguments: 4 10 0 14 -262144
-49933 0;
#X text 110 323 1\.;
#X text 150 323 int;
#X obj 246 324 cnv 1 38 20 empty empty empty 17 7 0 10 -245695 -1 0;
#X text 245 323 FROM: substring position. May be relative: -1 means
one character from the end of stirng.;
#X text 110 358 2\.;
#X text 150 358 int;
#X obj 246 359 cnv 1 54 20 empty empty empty 17 7 0 10 -245695 -1 0;
#X text 245 358 LENGTH: substring length. If -1 given (by default)
\, means 'till string end'.. Min value: 0;
#X obj 20 403 cnv 1 745 1 empty empty empty 17 7 0 10 -203890 -1 0;
#X obj 20 408 cnv 5 98 26 empty empty properties: 4 10 0 14 -262144
-49933 0;
#X msg 110 443 @from;
#X text 245 443 Get/Set substring position. Can be negative - to address
string from the end. Type: int. Default value: 0\.;
#X msg 110 485 @len;
#X text 245 485 Get/Set substring length. If equal to -1 \, substring
to the end of string. Type: int. Default value: -1\. Min value: 0\.;
#X obj 20 537 cnv 1 745 1 empty empty empty 17 7 0 10 -203890 -1 0;
#X obj 20 542 cnv 5 64 26 empty empty inlets: 4 10 0 14 -262144 -49933
0;
#X text 110 543 1\.;
#X text 245 543 input string.;
#X text 110 563 2\.;
#X text 245 563 from.;
#X text 110 583 3\.;
#X text 245 583 to.;
#X obj 20 613 cnv 1 745 1 empty empty empty 17 7 0 10 -203890 -1 0;
#X obj 20 618 cnv 5 73 26 empty empty outlets: 4 10 0 14 -262144
-49933 0;
#X text 110 619 1\.;
#X text 245 619 output substring.;
#X obj 10 48 ui.link @title index @url ../index-help.pd;
#X text 51 45 ::;
#X obj 67 48 ui.link @title ceammc @url ceammc-help.pd;
#X text 115 45 ::;
#X obj 131 48 ui.link @title string @url ceammc.string-help.pd;
#X obj 1 669 cnv 5 765 48 empty empty empty 17 7 0 10 -203890 -1 0;
#X text 10 672 library: ceammc v0.9.0;
#X text 580 684 see also:;
#X obj 654 684 string.split;
#N canvas 10 691 400 290 info 0;
#X obj 1 1 cnv 1 107 287 empty empty empty 17 7 0 10 -183085 -1 0;
#X text 10 10 library:;
#X text 120 10 ceammc;
#X text 10 32 version:;
#X text 120 32 0.9.0;
#X text 10 54 object:;
#X text 120 54 string.substr;
#X text 10 76 category:;
#X text 120 76 string;
#X text 10 98 since:;
#X text 120 98 0.3;
#X text 10 120 authors:;
#X text 120 120 Alex Nadzharov \, Serge Poltavsky;
#X text 10 142 license:;
#X text 120 142 GPL3 or later;
#X text 10 164 keywords:;
#X text 120 164 substring;
#X text 10 186 website:;
#X obj 120 189 ui.link @title https://github.com/uliss/pure-data @url
https://github.com/uliss/pure-data;
#X obj 120 208 declare -lib ceammc;
#X obj 120 268 cnv 1 270 1 empty empty empty 17 7 0 10 -203890 -1 0;
#X text 120 268 generated by pddoc;
#X restore 10 691 pd info;
#X connect 5 0 6 0;
#X connect 6 0 7 0;
#X connect 7 0 8 0;
#X connect 8 0 9 0;