#N canvas 0 0 785 555 12;
#X declare -lib ceammc;
#X obj 501 50 cnv 1 264 23 empty empty empty 17 7 0 10 -245760 -1 0;
#X text 501 50 remove substring from input string;
#X obj 1 1 cnv 5 765 40 empty empty string.remove 20 20 0 20 -104026
-4096 0;
#X obj 549 11 str.remove;
#X obj 646 11 string.remove;
#X obj 50 118 bng 15 250 50 0 empty empty empty 17 7 0 10 -262144 -1
-1;
#X obj 280 118 bng 15 250 50 0 empty empty empty 17 7 0 10 -262144 -1
-1;
#X obj 530 118 bng 15 250 50 0 empty empty empty 17 7 0 10 -262144 -1
-1;
#X obj 50 147 string 12321 12321;
#X obj 280 147 string 12321 12321;
#X obj 530 147 string 12321 12321;
#X obj 50 176 str.remove "123" @all;
#X obj 280 176 str.remove "123" @first;
#X obj 530 176 str.remove "123" @last;
#X obj 261 234 ui.dt;
#X obj 20 283 cnv 1 745 1 empty empty empty 17 7 0 10 -203890 -1 0;
#X obj 20 288 cnv 5 90 26 empty empty arguments: 4 10 0 14 -262144
-49933 0;
#X text 110 323 1\.;
#X text 150 323 symbol;
#X obj 246 324 cnv 1 31 20 empty empty empty 17 7 0 10 -245695 -1 0;
#X text 245 323 STR: substring to remove. Type: symbol.;
#X obj 20 353 cnv 1 745 1 empty empty empty 17 7 0 10 -203890 -1 0;
#X obj 20 358 cnv 5 98 26 empty empty properties: 4 10 0 14 -262144
-49933 0;
#X msg 110 393 @all;
#X text 245 393 alias to @mode all - remove all occurences in input
string.;
#X msg 110 422 @first;
#X text 245 422 alias to @mode first - remove first occurence in input
string.;
#X msg 110 464 @last;
#X text 245 464 alias to @mode last - remove last occurence in input
string.;
#X msg 110 493 @mode;
#X text 245 493 Get/Set remove mode. Type: symbol. Default value: all.
Allowed values: all \, first \, last.;
#X msg 110 535 @str;
#X text 245 535 Get/Set removed string. Type: symbol.;
#X obj 20 574 cnv 1 745 1 empty empty empty 17 7 0 10 -203890 -1 0;
#X obj 20 579 cnv 5 64 26 empty empty inlets: 4 10 0 14 -262144 -49933
0;
#X text 110 580 1\.;
#X text 245 580 input string or symbol.;
#X text 110 600 2\.;
#X text 245 600 set removed string or symbol.;
#X obj 20 630 cnv 1 745 1 empty empty empty 17 7 0 10 -203890 -1 0;
#X obj 20 635 cnv 5 73 26 empty empty outlets: 4 10 0 14 -262144
-49933 0;
#X text 110 636 1\.;
#X text 245 636 output string.;
#X obj 10 48 ui.link @title index @url ../index-help.pd;
#X text 51 45 ::;
#X obj 67 48 ui.link @title ceammc @url ceammc-help.pd;
#X text 115 45 ::;
#X obj 131 48 ui.link @title string @url ceammc.string-help.pd;
#X obj 1 686 cnv 5 765 48 empty empty empty 17 7 0 10 -203890 -1 0;
#X text 10 689 library: ceammc v0.9.4;
#N canvas 10 708 400 290 info 0;
#X obj 1 1 cnv 1 107 287 empty empty empty 17 7 0 10 -183085 -1 0;
#X text 10 10 library:;
#X text 120 10 ceammc;
#X text 10 32 version:;
#X text 120 32 0.9.4;
#X text 10 54 object:;
#X text 120 54 string.remove;
#X text 10 76 category:;
#X text 120 76 string;
#X text 10 98 since:;
#X text 120 98 0.3;
#X text 10 120 authors:;
#X text 120 120 Serge Poltavsky;
#X text 10 142 license:;
#X text 120 142 GPL3 or later;
#X text 10 164 keywords:;
#X text 120 164 remove;
#X text 10 186 website:;
#X obj 120 189 ui.link @title https://github.com/uliss/pure-data @url
https://github.com/uliss/pure-data;
#X obj 120 208 declare -lib ceammc;
#X obj 120 268 cnv 1 270 1 empty empty empty 17 7 0 10 -203890 -1 0;
#X text 120 268 generated by pddoc;
#X restore 10 708 pd info;
#X connect 5 0 8 0;
#X connect 6 0 9 0;
#X connect 7 0 10 0;
#X connect 8 0 11 0;
#X connect 9 0 12 0;
#X connect 10 0 13 0;
#X connect 11 0 14 0;
#X connect 12 0 14 0;
#X connect 13 0 14 0;