#N canvas 0 0 785 555 12;
#X declare -lib ceammc;
#X obj 453 50 cnv 1 312 23 empty empty empty 17 7 0 10 -245760 -1 0;
#X text 453 50 check if string match regular expression;
#X obj 1 1 cnv 5 765 40 empty empty string.match 20 20 0 20 -104026
-4096 0;
#X obj 563 11 str.match;
#X obj 653 11 string.match;
#X obj 210 80 cnv 1 555 160 empty empty empty 17 7 0 10 -257983 -1 0;
#X text 215 80 Used syntax: re2 (like pcre). Some characters are non-supported
in Pd. Use ` instead of backslash \, `` instead of ` \, (( instead
of { \, )) instead of } \, .. instead of comma \, `: instead of semicolon;
#X text 215 150 If you need spaces: you should quote the string \,
also note that in quoted string ` symbol should be escaped like ``.;
#X text 215 190 For example \, all digits: `d+ \, two or three chars:
[a-z]((2\..3)) etc.;
#X msg 50 268 test.mp3;
#X msg 155 268 test.mp4;
#X msg 261 268 FILE.mp2;
#X msg 366 268 ABC;
#X msg 424 268 abc.mp5;
#X msg 520 268 symbol .*`.mp2;
#X obj 50 312 symbol;
#X symbolatom 443 312 10 0 0 0 - - -;
#X obj 50 340 str.match t.+`.mp\[34\];
#X obj 50 369 ui.dt;
#X obj 20 419 cnv 1 745 1 empty empty empty 17 7 0 10 -203890 -1 0;
#X obj 20 424 cnv 5 90 25 empty empty arguments: 4 12 0 14 -262144
-49933 0;
#X obj 735 427 ui.link @background_color 0.98039 0.98039 0.98039
@title [?] @url ceammc.args-info.pd;
#X text 110 459 1\.;
#X text 150 459 list;
#X obj 246 460 cnv 1 24 20 empty empty empty 17 7 0 10 -245695 -1 0;
#X text 245 459 RE: regular expression. Type: list.;
#X obj 20 489 cnv 1 745 1 empty empty empty 17 7 0 10 -203890 -1 0;
#X obj 20 494 cnv 5 98 25 empty empty properties: 4 12 0 14 -262144
-49933 0;
#X obj 735 497 ui.link @background_color 0.98039 0.98039 0.98039
@title [?] @url ceammc.props-info.pd;
#X msg 110 529 @re;
#X text 245 529 Get/Set regular expression. Type: list.;
#X obj 20 569 cnv 1 745 1 empty empty empty 17 7 0 10 -203890 -1 0;
#X obj 20 574 cnv 5 64 25 empty empty inlets: 4 12 0 14 -262144 -49933
0;
#X text 110 575 1\.;
#X text 245 575 input string or symbol.;
#X text 110 595 2\.;
#X text 245 595 change regular expression.;
#X obj 20 625 cnv 1 745 1 empty empty empty 17 7 0 10 -203890 -1 0;
#X obj 20 630 cnv 5 73 25 empty empty outlets: 4 12 0 14 -262144
-49933 0;
#X text 110 631 1\.;
#X text 245 631 output 1 on successfull match \, otherwise 0\.;
#X obj 10 48 ui.link @title index @url ../index-help.pd;
#X text 51 45 ::;
#X obj 68 48 ui.link @title ceammc @url ceammc-help.pd;
#X text 116 45 ::;
#X obj 133 48 ui.link @title string @url ceammc.string-help.pd;
#X obj 1 681 cnv 5 765 48 empty empty empty 17 7 0 10 -203890 -1 0;
#X text 10 684 library: ceammc v0.9.7;
#N canvas 10 703 400 290 info 0;
#X obj 1 1 cnv 1 107 287 empty empty empty 17 7 0 10 -183085 -1 0;
#X text 10 10 library:;
#X text 120 10 ceammc;
#X text 10 32 version:;
#X text 120 32 0.9.7;
#X text 10 54 object:;
#X text 120 54 string.match;
#X text 10 76 category:;
#X text 120 76 string;
#X text 10 98 since:;
#X text 120 98 0.7.1;
#X text 10 120 authors:;
#X text 120 120 Serge Poltavsky;
#X text 10 142 license:;
#X text 120 142 GPL3 or later;
#X text 10 164 keywords:;
#X text 120 164 match \, regex;
#X text 10 186 website:;
#X obj 120 189 ui.link @title https://github.com/uliss/pd-ceammc @url
https://github.com/uliss/pd-ceammc;
#X obj 120 208 declare -lib ceammc;
#X obj 120 268 cnv 1 270 1 empty empty empty 17 7 0 10 -203890 -1 0;
#X text 120 268 generated by pddoc;
#X restore 10 703 pd info;
#X connect 9 0 15 0;
#X connect 10 0 15 0;
#X connect 11 0 15 0;
#X connect 12 0 15 0;
#X connect 13 0 15 0;
#X connect 15 0 17 0;
#X connect 16 0 17 1;
#X connect 14 0 17 1;
#X connect 17 0 18 0;