#N canvas 0 0 785 555 12;
#X declare -lib ceammc;
#X obj 591 50 cnv 1 174 23 empty empty empty 17 7 0 10 -245760 -1 0;
#X text 591 50 numeric symbol compare;
#X obj 1 1 cnv 5 765 40 empty empty symbol.num_compare 20 20 0 20
-104026 -4096 0;
#X obj 610 11 symbol.num_compare;
#X text 50 118 common sort;
#X msg 50 147 list 10.txt 1.txt 14.txt 2.txt 6.txt 7.txt 9.txt;
#X obj 50 176 list.sort;
#X obj 50 205 ui.dt;
#X text 50 234 numeric sort;
#X msg 50 262 list 10.txt 1.txt 14.txt 2.txt 6.txt 7.txt 9.txt;
#X obj 50 291 list.sort_with;
#X obj 232 291 symbol.num_compare;
#X obj 50 320 ui.dt;
#X obj 20 369 cnv 1 745 1 empty empty empty 17 7 0 10 -203890 -1 0;
#X obj 20 374 cnv 5 90 26 empty empty arguments: 4 10 0 14 -262144
-49933 0;
#X text 110 409 1\.;
#X text 150 409 symbol;
#X obj 246 410 cnv 1 40 20 empty empty empty 17 7 0 10 -245695 -1 0;
#X text 245 409 WITH: symbol to compare. Type: symbol.;
#X obj 20 439 cnv 1 745 1 empty empty empty 17 7 0 10 -203890 -1 0;
#X obj 20 444 cnv 5 98 26 empty empty properties: 4 10 0 14 -262144
-49933 0;
#X msg 110 479 @with;
#X text 245 479 Get/Set symbol to compare. Type: symbol.;
#X obj 20 518 cnv 1 745 1 empty empty empty 17 7 0 10 -203890 -1 0;
#X obj 20 523 cnv 5 64 26 empty empty inlets: 4 10 0 14 -262144 -49933
0;
#X text 110 524 1\.;
#X text 150 524 *symbol*;
#X text 245 524 first compare symbol. Unicode strings also supported.;
#X text 150 544 *list*;
#X text 245 544 compare first and second list elements.;
#X text 110 564 2\.;
#X text 150 564 *symbol*;
#X text 245 564 second compare symbol. Unicode strings also supported.;
#X obj 20 594 cnv 1 745 1 empty empty empty 17 7 0 10 -203890 -1 0;
#X obj 20 599 cnv 5 73 26 empty empty outlets: 4 10 0 14 -262144
-49933 0;
#X text 110 600 1\.;
#X text 245 600 1 if first symbol less then second \, otherwise 0\.;
#X obj 10 48 ui.link @title index @url ../index-help.pd;
#X text 51 45 ::;
#X obj 67 48 ui.link @title ceammc @url ceammc-help.pd;
#X text 115 45 ::;
#X obj 131 48 ui.link @title symbol @url ceammc.symbol-help.pd;
#X obj 1 650 cnv 5 765 48 empty empty empty 17 7 0 10 -203890 -1 0;
#X text 10 653 library: ceammc v0.9.5;
#N canvas 10 672 400 290 info 0;
#X obj 1 1 cnv 1 107 287 empty empty empty 17 7 0 10 -183085 -1 0;
#X text 10 10 library:;
#X text 120 10 ceammc;
#X text 10 32 version:;
#X text 120 32 0.9.5;
#X text 10 54 object:;
#X text 120 54 symbol.num_compare;
#X text 10 76 category:;
#X text 120 76 symbol;
#X text 10 98 since:;
#X text 120 98 0.4;
#X text 10 120 authors:;
#X text 120 120 Alex Nadzharov \, Serge Poltavsky;
#X text 10 142 license:;
#X text 120 142 GPL3 or later;
#X text 10 164 keywords:;
#X text 120 164 symbol \, num_compare \, compare;
#X text 10 186 website:;
#X obj 120 189 ui.link @title https://github.com/uliss/pure-data @url
https://github.com/uliss/pure-data;
#X obj 120 208 declare -lib ceammc;
#X obj 120 268 cnv 1 270 1 empty empty empty 17 7 0 10 -203890 -1 0;
#X text 120 268 generated by pddoc;
#X restore 10 672 pd info;
#X connect 5 0 6 0;
#X connect 6 0 7 0;
#X connect 9 0 10 0;
#X connect 10 0 12 0;
#X connect 10 1 11 0;
#X connect 11 0 10 1;