#N canvas 0 0 785 555 12;
#X declare -lib ceammc;
#X obj 591 50 cnv 1 174 23 empty empty empty 17 7 0 10 -245760 -1 0;
#X text 591 50 bird singing generator;
#X obj 1 1 cnv 5 765 40 empty empty synth.birds~ 20 20 0 20 -104026
-4096 0;
#X obj 653 11 synth.birds~;
#X obj 50 118 gsynth.birds~;
#X obj 50 262 fx.zita_rev1~;
#X obj 222 262 ui.dsp~;
#X obj 50 291 ui.hgain2~;
#X obj 50 320 dac~;
#X obj 20 369 cnv 1 745 1 empty empty empty 17 7 0 10 -203890 -1 0;
#X obj 20 374 cnv 5 90 26 empty empty arguments: 4 10 0 14 -262144
-49933 0;
#X text 110 409 1\.;
#X text 150 409 float;
#X obj 246 410 cnv 1 47 20 empty empty empty 17 7 0 10 -245695 -1 0;
#X text 245 409 SPEED: maximum speed of whistles if @auto enabled.
Type: float. Range: 120\...480;
#X text 110 444 2\.;
#X text 150 444 float;
#X obj 246 445 cnv 1 115 20 empty empty empty 17 7 0 10 -245695 -1 0;
#X text 245 444 PROBABILITY(%): whistles probability if @auto enabled.
Type: float. Range: 25\...100;
#X obj 20 489 cnv 1 745 1 empty empty empty 17 7 0 10 -203890 -1 0;
#X obj 20 494 cnv 5 98 26 empty empty properties: 4 10 0 14 -262144
-49933 0;
#X msg 110 529 @id;
#X text 245 529 (initonly) Get/Set OSC address id. If specified \,
bind all properties to /ID/synth_birds/PROP_NAME osc address \, if
empty bind to /synth_birds/PROP_NAME. Type: symbol.;
#X msg 110 586 @osc;
#X text 245 586 (initonly) Get/Set OSC server name to listen. Type:
symbol.;
#X msg 110 615 @active;
#X text 245 615 Turn on/off dsp processing. Type: bool. Default value:
1\.;
#X msg 110 644 @auto;
#X text 245 644 Get/Set auto playing mode. Type: bool. Default value:
0\.;
#X msg 110 673 @gate;
#X text 245 673 Get/Set play trigger. Starts playing on release. Type:
bool. Default value: 0\.;
#X msg 110 715 @probability;
#X text 245 715 Get/Set whistles probability if @auto enabled. Type:
float. Units: '%'. Default value: 50\. Range: 25\...100\.;
#X msg 110 757 @speed;
#X text 245 757 Get/Set maximum speed of whistles if @auto enabled.
Type: float. Default value: 240\. Range: 120\...480\.;
#X obj 20 809 cnv 1 745 1 empty empty empty 17 7 0 10 -203890 -1 0;
#X obj 20 814 cnv 5 64 26 empty empty inlets: 4 10 0 14 -262144 -49933
0;
#X text 110 815 1\.;
#X text 150 815 *bang*;
#X text 245 815 play.;
#X obj 20 845 cnv 1 745 1 empty empty empty 17 7 0 10 -203890 -1 0;
#X obj 20 850 cnv 5 73 26 empty empty outlets: 4 10 0 14 -262144
-49933 0;
#X text 110 851 1\.;
#X text 245 851 synth left channel.;
#X text 110 871 2\.;
#X text 245 871 synth right channel.;
#X obj 10 48 ui.link @title index @url ../index-help.pd;
#X text 51 45 ::;
#X obj 67 48 ui.link @title ceammc @url ceammc-help.pd;
#X text 115 45 ::;
#X obj 131 48 ui.link @title synth @url ceammc.synth-help.pd;
#X obj 1 921 cnv 5 765 48 empty empty empty 17 7 0 10 -203890 -1 0;
#X text 10 924 library: ceammc v0.9.7;
#N canvas 10 943 400 290 info 0;
#X obj 1 1 cnv 1 107 287 empty empty empty 17 7 0 10 -183085 -1 0;
#X text 10 10 library:;
#X text 120 10 ceammc;
#X text 10 32 version:;
#X text 120 32 0.9.7;
#X text 10 54 object:;
#X text 120 54 synth.birds~;
#X text 10 76 category:;
#X text 120 76 synth;
#X text 10 98 since:;
#X text 120 98 0.6;
#X text 10 120 authors:;
#X text 120 120 Pierre Cochard \, Serge Poltavsky;
#X text 10 142 license:;
#X text 120 142 GPL3 or later;
#X text 10 164 keywords:;
#X text 120 164 birds;
#X text 10 186 website:;
#X obj 120 189 ui.link @title https://github.com/uliss/pure-data @url
https://github.com/uliss/pure-data;
#X obj 120 208 declare -lib ceammc;
#X obj 120 268 cnv 1 270 1 empty empty empty 17 7 0 10 -203890 -1 0;
#X text 120 268 generated by pddoc;
#X restore 10 943 pd info;
#X connect 4 0 5 0;
#X connect 4 1 5 1;
#X connect 5 0 7 0;
#X connect 5 1 7 1;
#X connect 7 0 8 0;
#X connect 7 0 8 1;