#N canvas 0 0 785 555 12;
#X declare -lib ceammc;
#X obj 522 50 cnv 1 243 23 empty empty empty 17 7 0 10 -245760 -1 0;
#X text 522 50 generic church bell modal model;
#X obj 1 1 cnv 5 765 40 empty empty synth.church_bell~ 20 20 0 20
-104026 -4096 0;
#X obj 609 11 synth.church_bell~;
#X obj 210 80 cnv 1 555 115 empty empty empty 17 7 0 10 -257983 -1 0;
#X text 215 80 Modeled after T. Rossing and R. Perrin \, Vibrations
of Bells \, Applied Acoustics 2 \, 1987;
#X text 215 120 Model height is 301 mm;
#X text 215 145 This model contains 7 excitation positions going linearly
from the bottom to the top of the bell;
#X obj 50 223 tgl 15 0 empty empty empty 17 7 0 10 -262144 -1 -1 0 1;
#X obj 194 223 ui.dsp~;
#X obj 50 252 metro 250;
#X msg 50 281 @gate 1;
#X obj 50 310 msg.after 200 @gate 0;
#X obj 50 339 msg synth.church_bell;
#X obj 50 367 gsynth.church_bell~;
#X obj 50 641 ui.gain~ @size 120 16;
#X obj 50 670 dac~;
#X obj 20 719 cnv 1 745 1 empty empty empty 17 7 0 10 -203890 -1 0;
#X obj 20 724 cnv 5 98 26 empty empty properties: 4 10 0 14 -262144
-49933 0;
#X msg 110 759 @id;
#X text 245 759 (initonly) Get/Set OSC address id. If specified \,
bind all properties to /ID/synth_church_bell/PROP_NAME osc address
\, if empty bind to /synth_church_bell/PROP_NAME. Type: symbol.;
#X msg 110 816 @osc;
#X text 245 816 (initonly) Get/Set OSC server name to listen. Type:
symbol.;
#X msg 110 845 @active;
#X text 245 845 Turn on/off dsp processing. Type: bool. Default value:
1\.;
#X msg 110 874 @cutoff;
#X text 245 874 Get/Set cutoff coefficent. Type: float. Units: 'Hz'.
Default value: 6500\. Range: 20\...20000\.;
#X msg 110 916 @decay_ratio;
#X text 245 916 Get/Set decay ratio. Type: float. Default value: 1\.
Range: 0\...1\.;
#X msg 110 958 @decay_slope;
#X text 245 958 Get/Set decay slope. Type: float. Default value: 2.5\.
Range: 0\...10\.;
#X msg 110 1000 @gain;
#X text 245 1000 Get/Set pluck gain. Type: float. Default value: 1\.
Range: 0\...1\.;
#X msg 110 1042 @gate;
#X text 245 1042 Get/Set play trigger - 1: on \, 0: off. Type: float.
Default value: 0\. Range: 0\...1\.;
#X msg 110 1084 @pos;
#X text 245 1084 Get/Set strike position (0 is on the bottom). Type:
int. Default value: 0\. Range: 0\...6\.;
#X msg 110 1126 @sharp;
#X text 245 1126 Get/Set strike sharpness. Type: float. Default value:
0.5\. Range: 0.01\...5\.;
#X msg 110 1168 @t60;
#X text 245 1168 Get/Set time to decay to -60db level. Type: float.
Units: 'sec'. Default value: 20\. Range: 0.1\...30\.;
#X obj 20 1220 cnv 1 745 1 empty empty empty 17 7 0 10 -203890 -1 0;
#X obj 20 1225 cnv 5 73 26 empty empty methods: 4 10 0 14 -262144
-49933 0;
#X msg 110 1260 reset;
#X text 245 1260 reset synth.;
#X obj 20 1297 cnv 1 745 1 empty empty empty 17 7 0 10 -203890 -1 0;
#X obj 20 1302 cnv 5 64 26 empty empty inlets: 4 10 0 14 -262144
-49933 0;
#X text 110 1303 1\.;
#X text 150 1303 *bang*;
#X text 245 1303 play.;
#X obj 20 1333 cnv 1 745 1 empty empty empty 17 7 0 10 -203890 -1 0;
#X obj 20 1338 cnv 5 73 26 empty empty outlets: 4 10 0 14 -262144
-49933 0;
#X text 110 1339 1\.;
#X text 245 1339 synth output.;
#X obj 10 48 ui.link @title index @url ../index-help.pd;
#X text 51 45 ::;
#X obj 67 48 ui.link @title ceammc @url ceammc-help.pd;
#X text 115 45 ::;
#X obj 131 48 ui.link @title synth @url ceammc.synth-help.pd;
#X obj 1 1389 cnv 5 765 48 empty empty empty 17 7 0 10 -203890 -1 0;
#X text 10 1392 library: ceammc v0.9.7;
#N canvas 10 1411 400 290 info 0;
#X obj 1 1 cnv 1 107 287 empty empty empty 17 7 0 10 -183085 -1 0;
#X text 10 10 library:;
#X text 120 10 ceammc;
#X text 10 32 version:;
#X text 120 32 0.9.7;
#X text 10 54 object:;
#X text 120 54 synth.church_bell~;
#X text 10 76 category:;
#X text 120 76 synth;
#X text 10 98 since:;
#X text 120 98 0.6;
#X text 10 120 authors:;
#X text 120 120 Serge Poltavsky;
#X text 10 142 license:;
#X text 120 142 GPL3 or later;
#X text 10 164 keywords:;
#X text 120 164 bell \, church;
#X text 10 186 website:;
#X obj 120 189 ui.link @title https://github.com/uliss/pure-data @url
https://github.com/uliss/pure-data;
#X obj 120 208 declare -lib ceammc;
#X obj 120 268 cnv 1 270 1 empty empty empty 17 7 0 10 -203890 -1 0;
#X text 120 268 generated by pddoc;
#X restore 10 1411 pd info;
#X connect 8 0 10 0;
#X connect 10 0 11 0;
#X connect 11 0 12 0;
#X connect 12 0 13 0;
#X connect 13 0 14 0;
#X connect 14 0 15 0;
#X connect 15 0 16 0;
#X connect 15 0 16 1;