#N canvas 0 0 785 555 12;
#X declare -lib ceammc;
#X obj 689 50 cnv 1 76 23 empty empty empty 17 7 0 10 -245760 -1 0;
#X text 689 50 STK sitar;
#X obj 1 1 cnv 5 765 40 empty empty synth.sitar~ 20 20 0 20 -104026
-4096 0;
#X obj 652 11 synth.sitar~;
#X obj 210 80 cnv 1 555 50 empty empty empty 17 7 0 10 -257983 -1 0;
#X text 215 80 Implements a sitar plucked string physical model based
on the Karplus-Strong algorithm;
#X obj 50 158 ui.keyboard;
#X msg 50 230 note \$1 \$2;
#X msg 174 230 dump;
#X obj 50 259 synth.sitar~;
#X obj 50 288 ui.gain~ @size 120 16;
#X obj 290 288 ui.dsp~;
#X obj 50 317 dac~;
#X obj 20 367 cnv 1 745 1 empty empty empty 17 7 0 10 -203890 -1 0;
#X obj 20 372 cnv 5 98 25 empty empty properties: 4 10 0 14 -262144
-49933 0;
#X msg 110 407 @freq;
#X text 245 407 Get/Set maximum speed of whistles. Type: float. Units:
'Hz'. Default value: 220. Range: 0...480.;
#X msg 110 449 @gate;
#X text 245 449 Get/Set synth gate (>0 - play). Type: float. Default
value: 0. Range: 0...1.;
#X msg 110 491 @pitch;
#X text 245 491 Get/Set midi pitch. Type: float. Default value: 57.
Range: 36...84.;
#X obj 20 543 cnv 1 745 1 empty empty empty 17 7 0 10 -203890 -1 0;
#X obj 20 548 cnv 5 73 25 empty empty methods: 4 10 0 14 -262144
-49933 0;
#X msg 110 583 cc;
#X text 245 583 control change message. Arguments are:;
#X obj 255 606 cnv 1 30 23 empty empty empty 17 7 0 10 -245695 -1 0;
#X text 255 606 CTL: control number. Type: int.;
#X obj 255 629 cnv 1 30 23 empty empty empty 17 7 0 10 -245695 -1 0;
#X text 255 629 VAL: value. Type: float.;
#X msg 110 654 note;
#X text 245 654 note on/off message. Arguments are:;
#X obj 255 677 cnv 1 38 23 empty empty empty 17 7 0 10 -245695 -1 0;
#X text 255 677 NOTE: midi note. Type: float.;
#X obj 255 700 cnv 1 30 23 empty empty empty 17 7 0 10 -245695 -1 0;
#X text 255 700 VEL: velocity. Type: float. Range: 0...127.;
#X obj 20 735 cnv 1 745 1 empty empty empty 17 7 0 10 -203890 -1 0;
#X obj 20 740 cnv 5 64 25 empty empty inlets: 4 10 0 14 -262144 -49933
0;
#X text 110 741 1.;
#X text 150 741 *list*;
#X text 245 741 NOTE VEL.;
#X obj 20 771 cnv 1 745 1 empty empty empty 17 7 0 10 -203890 -1 0;
#X obj 20 776 cnv 5 73 25 empty empty outlets: 4 10 0 14 -262144
-49933 0;
#X text 110 777 1.;
#X text 245 777 synth output.;
#X obj 10 48 ui.link @title index @url ../index-help.pd;
#X text 51 45 ::;
#X obj 68 48 ui.link @title ceammc @url ceammc-help.pd;
#X text 116 45 ::;
#X obj 133 48 ui.link @title synth @url ceammc.synth-help.pd;
#X obj 1 827 cnv 5 765 48 empty empty empty 17 7 0 10 -203890 -1 0;
#X text 10 830 library: ceammc v0.9.7;
#N canvas 10 849 400 290 info 0;
#X obj 1 1 cnv 1 107 287 empty empty empty 17 7 0 10 -183085 -1 0;
#X text 10 10 library:;
#X text 120 10 ceammc;
#X text 10 32 version:;
#X text 120 32 0.9.7;
#X text 10 54 object:;
#X text 120 54 synth.sitar~;
#X text 10 76 category:;
#X text 120 76 synth;
#X text 10 98 since:;
#X text 120 98 0.9.1;
#X text 10 120 authors:;
#X text 120 120 Serge Poltavsky;
#X text 10 142 license:;
#X text 120 142 GPL3 or later;
#X text 10 164 keywords:;
#X text 120 164 sitar \, string \, pluck \, karplus;
#X text 10 186 website:;
#X obj 120 189 ui.link @title https://github.com/uliss/pd-ceammc @url
https://github.com/uliss/pd-ceammc;
#X obj 120 208 declare -lib ceammc;
#X obj 120 268 cnv 1 270 1 empty empty empty 17 7 0 10 -203890 -1 0;
#X text 120 268 generated by pddoc;
#X restore 10 849 pd info;
#X connect 6 0 7 0;
#X connect 7 0 9 0;
#X connect 8 0 9 0;
#X connect 9 0 10 0;
#X connect 10 0 12 0;
#X connect 10 0 12 1;