#N canvas 0 0 785 555 12;
#X declare -lib ceammc;
#X obj 468 50 cnv 1 297 23 empty empty empty 17 7 0 10 -245760 -1 0;
#X text 468 50 Jean Claude Risset's endless glissando;
#X obj 1 1 cnv 5 765 40 empty empty synth.risset_tone~ 20 20 0 20
-104026 -4096 0;
#X obj 609 11 synth.risset_tone~;
#X floatatom 50 118 5 0 0 0 - - -;
#X msg 213 118 bang;
#X obj 50 147 * 0.001;
#X msg 50 176 @rate \$1;
#X obj 50 205 synth.risset_tone~ 60 -0.005;
#X obj 69 234 synth.risset_tone~ 56 -0.005;
#X obj 88 262 synth.risset_tone~ 53 -0.005;
#X obj 50 291 ui.hgain~;
#X obj 213 291 ui.dsp~;
#X obj 50 320 dac~;
#X obj 20 369 cnv 1 745 1 empty empty empty 17 7 0 10 -203890 -1 0;
#X obj 20 374 cnv 5 90 26 empty empty arguments: 4 10 0 14 -262144
-49933 0;
#X text 110 409 1\.;
#X text 150 409 float;
#X obj 246 410 cnv 1 70 20 empty empty empty 17 7 0 10 -245695 -1 0;
#X text 245 409 CENTROID: main frequency (MIDI pitch). Type: float.
Range: 20\...120;
#X text 110 444 2\.;
#X text 150 444 float;
#X obj 246 445 cnv 1 39 20 empty empty empty 17 7 0 10 -245695 -1 0;
#X text 245 444 RATE: glissanso speed. Type: float. Range: -2\...2;
#X obj 20 474 cnv 1 745 1 empty empty empty 17 7 0 10 -203890 -1 0;
#X obj 20 479 cnv 5 98 26 empty empty properties: 4 10 0 14 -262144
-49933 0;
#X msg 110 514 @id;
#X text 245 514 (initonly) Get/Set OSC address id. If specified \,
bind all properties to /ID/synth_risset_tone/PROP_NAME osc address
\, if empty bind to /synth_risset_tone/PROP_NAME. Type: symbol.;
#X msg 110 571 @osc;
#X text 245 571 (initonly) Get/Set OSC server name to listen. Type:
symbol.;
#X msg 110 600 @active;
#X text 245 600 Turn on/off dsp processing. Type: bool. Default value:
1\.;
#X msg 110 629 @centroid;
#X text 245 629 Get/Set main frequency. Units: MIDI note. Type: float.
Default value: 60\. Range: 20\...120\.;
#X msg 110 671 @range;
#X text 245 671 Get/Set glissando range in MIDI note units. Type: float.
Default value: 120\. Range: 1\...120\.;
#X msg 110 713 @rate;
#X text 245 713 Get/Set glissanso speed. Type: float. Default value:
0.01\. Range: -2\...2\.;
#X obj 20 765 cnv 1 745 1 empty empty empty 17 7 0 10 -203890 -1 0;
#X obj 20 770 cnv 5 73 26 empty empty methods: 4 10 0 14 -262144
-49933 0;
#X msg 110 805 reset;
#X text 245 805 reset to start position.;
#X obj 20 842 cnv 1 745 1 empty empty empty 17 7 0 10 -203890 -1 0;
#X obj 20 847 cnv 5 64 26 empty empty inlets: 4 10 0 14 -262144 -49933
0;
#X text 110 848 1\.;
#X text 150 848 *bang*;
#X text 245 848 reset to start position.;
#X obj 20 878 cnv 1 745 1 empty empty empty 17 7 0 10 -203890 -1 0;
#X obj 20 883 cnv 5 73 26 empty empty outlets: 4 10 0 14 -262144
-49933 0;
#X text 110 884 1\.;
#X text 245 884 output signal.;
#X obj 10 48 ui.link @title index @url ../index-help.pd;
#X text 51 45 ::;
#X obj 67 48 ui.link @title ceammc @url ceammc-help.pd;
#X text 115 45 ::;
#X obj 131 48 ui.link @title synth @url ceammc.synth-help.pd;
#X obj 1 934 cnv 5 765 48 empty empty empty 17 7 0 10 -203890 -1 0;
#X text 10 937 library: ceammc v0.9.7;
#N canvas 10 956 400 290 info 0;
#X obj 1 1 cnv 1 107 287 empty empty empty 17 7 0 10 -183085 -1 0;
#X text 10 10 library:;
#X text 120 10 ceammc;
#X text 10 32 version:;
#X text 120 32 0.9.7;
#X text 10 54 object:;
#X text 120 54 synth.risset_tone~;
#X text 10 76 category:;
#X text 120 76 synth;
#X text 10 98 since:;
#X text 120 98 0.5;
#X text 10 120 authors:;
#X text 120 120 Oliver Larkin \, Serge Poltavsky;
#X text 10 142 license:;
#X text 120 142 GPL3 or later;
#X text 10 164 keywords:;
#X text 120 164 risset;
#X text 10 186 website:;
#X obj 120 189 ui.link @title https://github.com/uliss/pure-data @url
https://github.com/uliss/pure-data;
#X obj 120 208 declare -lib ceammc;
#X obj 120 268 cnv 1 270 1 empty empty empty 17 7 0 10 -203890 -1 0;
#X text 120 268 generated by pddoc;
#X restore 10 956 pd info;
#X connect 4 0 6 0;
#X connect 6 0 7 0;
#X connect 8 0 11 0;
#X connect 9 0 11 0;
#X connect 10 0 11 0;
#X connect 11 0 13 0;
#X connect 11 0 13 1;
#X connect 5 0 8 0;
#X connect 5 0 9 0;
#X connect 5 0 10 0;
#X connect 7 0 8 0;
#X connect 7 0 9 0;
#X connect 7 0 10 0;