#N canvas 0 0 785 555 12;
#X declare -lib ceammc;
#X obj 546 50 cnv 1 219 23 empty empty empty 17 7 0 10 -245760 -1 0;
#X text 546 50 ready to use metronome synth;
#X obj 1 1 cnv 5 765 40 empty empty synth.metro~ 20 20 0 20 -104026
-4096 0;
#X obj 652 11 synth.metro~;
#X obj 50 118 tgl 15 0 empty empty empty 17 7 0 10 -262144 -1 -1 0 1;
#X msg 88 118 down;
#X msg 184 118 on;
#X msg 261 118 off;
#X msg 347 118 mark;
#X floatatom 88 147 5 0 0 0 - - -;
#X msg 88 176 @tempo \$1;
#X msg 203 176 1;
#X msg 242 176 2;
#X msg 280 176 3;
#X msg 318 176 4;
#X floatatom 395 176 5 0 0 0 - - -;
#X obj 50 205 synth.metro~ 120|8bpm |5/4+3/16|;
#X obj 50 234 ui.hgain~;
#X obj 309 234 print BEAT;
#X obj 50 262 dac~;
#X obj 20 312 cnv 1 745 1 empty empty empty 17 7 0 10 -203890 -1 0;
#X obj 20 317 cnv 5 90 25 empty empty arguments: 4 12 0 14 -262144
-49933 0;
#X obj 735 320 ui.link @background_color 0.98039 0.98039 0.98039
@title [?] @url ceammc.args-info.pd;
#X text 110 352 1\.;
#X text 150 352 symbol;
#X obj 246 353 cnv 1 86 20 empty empty empty 17 7 0 10 -245695 -1 0;
#X text 245 352 TEMPO(bpm): tempo in beats per minute. Type: symbol.;
#X text 110 372 2\.;
#X text 150 372 symbol;
#X obj 246 373 cnv 1 40 20 empty empty empty 17 7 0 10 -245695 -1 0;
#X text 245 372 TSIG: time signature. Type: symbol.;
#X obj 20 402 cnv 1 745 1 empty empty empty 17 7 0 10 -203890 -1 0;
#X obj 20 407 cnv 5 98 25 empty empty properties: 4 12 0 14 -262144
-49933 0;
#X obj 735 410 ui.link @background_color 0.98039 0.98039 0.98039
@title [?] @url ceammc.props-info.pd;
#X msg 110 442 @id;
#X text 245 442 (initonly) Get/Set OSC address id. If specified \,
bind all properties to /ID/synth_metro/PROP_NAME osc address \, if
empty bind to /synth_metro/PROP_NAME. Type: symbol.;
#X msg 110 499 @osc;
#X text 245 499 (initonly) Get/Set OSC server name to listen. Type:
symbol.;
#X msg 110 529 @active;
#X text 245 529 Turn on/off dsp processing. Type: bool. Default value:
1\.;
#X msg 110 559 @down.freq;
#X text 245 559 Get/Set downbeat frequency. Type: float. Units: 'Hz'.
Default value: 1500\. Range: 100\...5000\.;
#X msg 110 601 @down.gain;
#X text 245 601 Get/Set downbeat gain. Type: float. Units: 'db'. Default
value: 6\. Range: -12\...12\.;
#X msg 110 643 @down.reson;
#X text 245 643 Get/Set downbeat resonance value (Q). Type: float.
Default value: 50\. Range: 5\...100\.;
#X msg 110 685 @gain;
#X text 245 685 Get/Set common synth gain. Type: float. Units: 'db'.
Default value: 0\. Range: -12\...12\.;
#X msg 110 727 @mark.freq;
#X text 245 727 Get/Set mark sound frequency. Type: float. Units: 'Hz'.
Default value: 2000\. Range: 100\...5000\.;
#X msg 110 769 @mark.gain;
#X text 245 769 Get/Set mark sound gain. Type: float. Units: 'db'.
Default value: 6\. Range: -12\...12\.;
#X msg 110 811 @mark.reson;
#X text 245 811 Get/Set mark sound resonance value (Q). Type: float.
Default value: 500\. Range: 5\...500\.;
#X msg 110 853 @off.freq;
#X text 245 853 Get/Set off-beat frequency. Type: float. Units: 'Hz'.
Default value: 500\. Range: 100\...5000\.;
#X msg 110 895 @off.gain;
#X text 245 895 Get/Set off-beat gain. Type: float. Units: 'db'. Default
value: 6\. Range: -12\...12\.;
#X msg 110 937 @off.reson;
#X text 245 937 Get/Set off-beat resonance value (Q). Type: float.
Default value: 10\. Range: 5\...100\.;
#X msg 110 979 @on.freq;
#X text 245 979 Get/Set on-beat frequency. Type: float. Units: 'Hz'.
Default value: 1000\. Range: 100\...5000\.;
#X msg 110 1021 @on.gain;
#X text 245 1021 Get/Set on-beat gain. Type: float. Units: 'db'. Default
value: 6\. Range: -12\...12\.;
#X msg 110 1063 @on.reson;
#X text 245 1063 Get/Set on-beat resonance value (Q). Type: float.
Default value: 30\. Range: 5\...100\.;
#X msg 110 1105 @tempo;
#X text 245 1105 Get/Set tempo. If beat division is ommitted \, using
1/4\. Type: symbol. Units: 'bpm'. Default value: 60|4bpm.;
#X msg 110 1147 @tsig;
#X text 245 1147 Get/Set metronome time signature \, can be complex
like: |1/4+15/16| etc. Type: symbol. Default value: |4/4|.;
#X obj 20 1199 cnv 1 745 1 empty empty empty 17 7 0 10 -203890 -1 0;
#X obj 20 1204 cnv 5 73 25 empty empty methods: 4 12 0 14 -262144
-49933 0;
#X msg 110 1239 down;
#X text 245 1239 manually play downbeat sound.;
#X msg 110 1267 mark;
#X text 245 1267 manually play mark sound.;
#X msg 110 1295 off;
#X text 245 1295 manually play offbeat sound.;
#X msg 110 1323 on;
#X text 245 1323 manually play onbeat sound.;
#X msg 110 1351 reset;
#X text 245 1351 reset metro to the beginning.;
#X obj 20 1389 cnv 1 745 1 empty empty empty 17 7 0 10 -203890 -1 0;
#X obj 20 1394 cnv 5 64 25 empty empty inlets: 4 12 0 14 -262144
-49933 0;
#X text 110 1395 1\.;
#X text 150 1395 *float*;
#X text 245 1395 1: start \, 0: stop metronome.;
#X text 110 1415 2\.;
#X text 150 1415 *int*;
#X text 245 1415 1: play downbeat \, 2: play on-beat \, 3: play off-beat.;
#X text 110 1435 3\.;
#X text 150 1435 *float*;
#X text 245 1435 set tempo in 1/4 per minute.;
#X obj 20 1465 cnv 1 745 1 empty empty empty 17 7 0 10 -203890 -1 0;
#X obj 20 1470 cnv 5 73 25 empty empty outlets: 4 12 0 14 -262144
-49933 0;
#X text 110 1471 1\.;
#X text 245 1471 synth output.;
#X text 110 1491 2\.;
#X text 245 1491 current beat: 1: downbeat \, 2: onbeat \, 3: offbeat
\, 4: mark.;
#X obj 10 48 ui.link @title index @url ../index-help.pd;
#X text 51 45 ::;
#X obj 68 48 ui.link @title ceammc @url ceammc-help.pd;
#X text 116 45 ::;
#X obj 133 48 ui.link @title synth @url ceammc.synth-help.pd;
#X obj 1 1541 cnv 5 765 48 empty empty empty 17 7 0 10 -203890 -1 0;
#X text 10 1544 library: ceammc v0.9.7;
#N canvas 10 1563 400 290 info 0;
#X obj 1 1 cnv 1 107 287 empty empty empty 17 7 0 10 -183085 -1 0;
#X text 10 10 library:;
#X text 120 10 ceammc;
#X text 10 32 version:;
#X text 120 32 0.9.7;
#X text 10 54 object:;
#X text 120 54 synth.metro~;
#X text 10 76 category:;
#X text 120 76 synth;
#X text 10 98 since:;
#X text 120 98 0.9.7;
#X text 10 120 authors:;
#X text 120 120 Serge Poltavsky;
#X text 10 142 license:;
#X text 120 142 GPL3 or later;
#X text 10 164 keywords:;
#X text 120 164 metro \, poly \, rhythm;
#X text 10 186 website:;
#X obj 120 189 ui.link @title https://github.com/uliss/pd-ceammc @url
https://github.com/uliss/pd-ceammc;
#X obj 120 208 declare -lib ceammc;
#X obj 120 268 cnv 1 270 1 empty empty empty 17 7 0 10 -203890 -1 0;
#X text 120 268 generated by pddoc;
#X restore 10 1563 pd info;
#X connect 9 0 10 0;
#X connect 4 0 16 0;
#X connect 10 0 16 0;
#X connect 11 0 16 0;
#X connect 12 0 16 1;
#X connect 13 0 16 1;
#X connect 14 0 16 1;
#X connect 15 0 16 2;
#X connect 16 0 17 0;
#X connect 16 1 18 0;
#X connect 17 0 19 0;
#X connect 17 0 19 1;
#X connect 5 0 16 0;
#X connect 6 0 16 0;
#X connect 7 0 16 0;
#X connect 8 0 16 0;