#N canvas 0 0 785 555 12;
#X declare -lib ceammc;
#X obj 377 50 cnv 1 388 23 empty empty empty 17 7 0 10 -245760 -1 0;
#X text 377 50 nonlinear banded waveguide modeled Glass Harmonica;
#X obj 1 1 cnv 5 765 40 empty empty synth.glass_harm~ 20 20 0 20
-104026 -4096 0;
#X obj 617 11 synth.glass_harm~;
#X obj 50 118 tgl 15 0 empty empty empty 17 7 0 10 -262144 -1 -1 0 1;
#X obj 50 147 midi.kbd qwerty 0;
#X obj 50 176 ui.hk;
#X obj 270 248 tgl 15 0 empty empty empty 17 7 0 10 -262144 -1 -1 0 1;
#X obj 50 277 poly 6;
#X msg 270 277 @strike \$1;
#X obj 50 305 pack f f f;
#X obj 270 305 msg all;
#X obj 50 334 clone 7 poly.obj synth.glass_harm~;
#X obj 50 363 ui.hgain~;
#X obj 184 363 ui.dsp~;
#X obj 50 392 dac~;
#X obj 20 441 cnv 1 745 1 empty empty empty 17 7 0 10 -203890 -1 0;
#X obj 20 446 cnv 5 98 26 empty empty properties: 4 10 0 14 -262144
-49933 0;
#X msg 110 481 @id;
#X text 245 481 (initonly) Get/Set OSC address id. If specified \,
bind all properties to /ID/synth_glass_harm/PROP_NAME osc address \,
if empty bind to /synth_glass_harm/PROP_NAME. Type: symbol.;
#X msg 110 538 @osc;
#X text 245 538 (initonly) Get/Set OSC server name to listen. Type:
symbol.;
#X msg 110 567 @active;
#X text 245 567 Turn on/off dsp processing. Type: bool. Default value:
1\.;
#X msg 110 596 @bow_press;
#X text 245 596 Get/Set bow pressure on the instrument. Type: float.
Default value: 0.2\. Range: 0\...1\.;
#X msg 110 638 @freq;
#X text 245 638 Get/Set frequency. Type: float. Units: 'Hz'. Default
value: 130.8128\.;
#X msg 110 680 @gain;
#X text 245 680 Get/Set base gain. Type: float. Default value: 1\.
Range: 0\...1\.;
#X msg 110 722 @gate;
#X text 245 722 Get/Set play trigger - 1: on \, 0: off. Type: float.
Default value: 0\. Range: 0\...1\.;
#X msg 110 764 @integration;
#X text 245 764 Get/Set integration constant. Type: float. Default
value: 0\. Range: 0\...1\.;
#X msg 110 806 @modfreq;
#X text 245 806 Get/Set frequency of the sine wave for the modulation
of theta (works if @modetype=3). Type: float. Units: 'Hz'. Default
value: 220\. Range: 20\...1000\.;
#X msg 110 863 @modtype;
#X text 245 863 Get/Set modulation type. 0=theta is modulated by the
incoming signal. 1=theta is modulated by the averaged incoming signal.
2=theta is modulated by the squared incoming signal. 3=theta is modulated
by a sine wave of frequency @modfreq. 4=theta is modulated by a sine
wave of frequency @freq. Type: int. Default value: 0\. Range: 0\...4\.;
#X msg 110 965 @nonlin;
#X text 245 965 Get/Set nonlinearity factor. Type: float. Default value:
0\. Range: 0\...1\.;
#X msg 110 1007 @pan;
#X text 245 1007 Get/Set pan angle. Type: float. Default value: 0.6\.
Range: 0\...1\.;
#X msg 110 1049 @pitch;
#X text 245 1049 Get/Set midi pitch. Type: float. Default value: 48\.
Range: 24\...96\.;
#X msg 110 1091 @reverb_gain;
#X text 245 1091 Get/Set reverb gain. Type: float. Default value: 0.137\.
Range: 0\...1\.;
#X msg 110 1133 @room_size;
#X text 245 1133 Get/Set reverb room size. Type: float. Default value:
0.36\. Range: 0.005\...1\.;
#X msg 110 1175 @strike;
#X text 245 1175 Get/Set strike or bow. Type: int. Default value: 0\.
Range: 0\...1\.;
#X msg 110 1217 @width;
#X text 245 1217 Get/Set spatialization width. Type: float. Default
value: 0.5\. Range: 0\...1\.;
#X obj 20 1269 cnv 1 745 1 empty empty empty 17 7 0 10 -203890 -1 0;
#X obj 20 1274 cnv 5 73 26 empty empty methods: 4 10 0 14 -262144
-49933 0;
#X msg 110 1309 note;
#X text 245 1309 note on/off message. Arguments are:;
#X obj 255 1332 cnv 1 37 23 empty empty empty 17 7 0 10 -245695 -1 0;
#X text 255 1332 NOTE: midi note. Type: float.;
#X obj 255 1355 cnv 1 30 23 empty empty empty 17 7 0 10 -245695 -1 0;
#X text 255 1355 VEL: velocity. Type: float. Range: 0\...127\.;
#X msg 110 1380 reset;
#X text 245 1380 reset synth.;
#X obj 20 1417 cnv 1 745 1 empty empty empty 17 7 0 10 -203890 -1 0;
#X obj 20 1422 cnv 5 64 26 empty empty inlets: 4 10 0 14 -262144
-49933 0;
#X text 110 1423 1\.;
#X text 150 1423 *list*;
#X text 245 1423 NOTE VEL.;
#X obj 20 1453 cnv 1 745 1 empty empty empty 17 7 0 10 -203890 -1 0;
#X obj 20 1458 cnv 5 73 26 empty empty outlets: 4 10 0 14 -262144
-49933 0;
#X text 110 1459 1\.;
#X text 245 1459 left output.;
#X text 110 1479 2\.;
#X text 245 1479 right output.;
#X obj 10 48 ui.link @title index @url ../index-help.pd;
#X text 51 45 ::;
#X obj 67 48 ui.link @title ceammc @url ceammc-help.pd;
#X text 115 45 ::;
#X obj 131 48 ui.link @title synth @url ceammc.synth-help.pd;
#X obj 1 1529 cnv 5 765 48 empty empty empty 17 7 0 10 -203890 -1 0;
#X text 10 1532 library: ceammc v0.9.7;
#N canvas 10 1551 400 290 info 0;
#X obj 1 1 cnv 1 107 287 empty empty empty 17 7 0 10 -183085 -1 0;
#X text 10 10 library:;
#X text 120 10 ceammc;
#X text 10 32 version:;
#X text 120 32 0.9.7;
#X text 10 54 object:;
#X text 120 54 synth.glass_harm~;
#X text 10 76 category:;
#X text 120 76 synth;
#X text 10 98 since:;
#X text 120 98 0.9.2;
#X text 10 120 authors:;
#X text 120 120 Romain Michon \, Serge Poltavsky;
#X text 10 142 license:;
#X text 120 142 GPL3 or later;
#X text 10 164 keywords:;
#X text 120 164 model \, synth \, glass \, harmonica;
#X text 10 186 website:;
#X obj 120 189 ui.link @title https://github.com/uliss/pure-data @url
https://github.com/uliss/pure-data;
#X obj 120 208 declare -lib ceammc;
#X obj 120 268 cnv 1 270 1 empty empty empty 17 7 0 10 -203890 -1 0;
#X text 120 268 generated by pddoc;
#X restore 10 1551 pd info;
#X connect 4 0 5 1;
#X connect 5 0 6 0;
#X connect 6 0 8 0;
#X connect 7 0 9 0;
#X connect 8 0 10 0;
#X connect 8 1 10 1;
#X connect 8 2 10 2;
#X connect 9 0 11 0;
#X connect 10 0 12 0;
#X connect 11 0 12 0;
#X connect 12 0 13 0;
#X connect 13 0 15 0;
#X connect 13 0 15 1;