#N canvas 0 0 785 555 12;
#X declare -lib ceammc;
#X obj 522 50 cnv 1 243 23 empty empty empty 17 7 0 10 -245760 -1 0;
#X text 522 50 clap synth from faust libraries;
#X obj 1 1 cnv 5 765 40 empty empty synth.clap~ 20 20 0 20 -104026
-4096 0;
#X obj 659 11 synth.clap~;
#X obj 50 118 tgl 15 0 empty empty empty 17 7 0 10 -262144 -1 -1 0 1;
#X floatatom 117 118 5 0 0 0 - - -;
#X obj 174 118 ui.k 0 100 @show_value 1;
#X obj 299 118 ui.k 0 100 @show_value 1;
#X obj 434 118 ui.k 400 3500 @show_value 1;
#X obj 50 147 metro 150;
#X obj 50 176 tgl 15 0 empty empty empty 17 7 0 10 -262144 -1 -1 0 1;
#X msg 174 176 @attack \$1;
#X msg 299 176 @release \$1;
#X msg 434 176 @tone \$1;
#X msg 50 205 @gate \$1;
#X obj 50 234 synth.clap~;
#X obj 203 262 bng 15 250 50 0 empty empty empty 17 7 0 10 -262144 -1
-1;
#X obj 50 291 ui.hgain~;
#X obj 203 291 ui.dsp~;
#X obj 50 320 dac~;
#X obj 20 370 cnv 1 745 1 empty empty empty 17 7 0 10 -203890 -1 0;
#X obj 20 375 cnv 5 98 25 empty empty properties: 4 12 0 14 -262144
-49933 0;
#X obj 735 378 ui.link @background_color 0.98039 0.98039 0.98039
@title [?] @url ceammc.props-info.pd;
#X msg 110 410 @id;
#X text 245 410 (initonly) Get/Set OSC address id. If specified \,
bind all properties to /ID/synth_clap/PROP_NAME osc address \, if empty
bind to /synth_clap/PROP_NAME. Type: symbol.;
#X msg 110 467 @osc;
#X text 245 467 (initonly) Get/Set OSC server name to listen. Type:
symbol.;
#X msg 110 497 @active;
#X text 245 497 Turn on/off dsp processing. Type: bool. Default value:
1\.;
#X msg 110 527 @attack;
#X text 245 527 Get/Set attack time. Type: float. Units: 'ms'. Default
value: 0\. Range: 0\...400\.;
#X msg 110 569 @envwait;
#X text 245 569 Get/Set ignore new notes until previous note is not
finished release time. Type: bool. Default value: 0\.;
#X msg 110 611 @gate;
#X text 245 611 Get/Set play trigger >0: on \, 0: off. To set output
gain to 0.5 you can 0.5 as trigger value. Type: float. Default value:
0\. Range: 0\...1\.;
#X msg 110 668 @release;
#X text 245 668 Get/Set release time. Type: float. Units: 'ms'. Default
value: 0\. Range: 0\...4000\.;
#X msg 110 710 @tone;
#X text 245 710 Get/Set bandpass filter cutoff frequency. Type: float.
Units: 'Hz'. Default value: 3500\. Range: 400\...3500\.;
#X obj 20 762 cnv 1 745 1 empty empty empty 17 7 0 10 -203890 -1 0;
#X obj 20 767 cnv 5 73 25 empty empty methods: 4 12 0 14 -262144
-49933 0;
#X msg 110 802 reset;
#X text 245 802 reset synth.;
#X obj 20 840 cnv 1 745 1 empty empty empty 17 7 0 10 -203890 -1 0;
#X obj 20 845 cnv 5 64 25 empty empty inlets: 4 12 0 14 -262144 -49933
0;
#X text 110 846 1\.;
#X text 150 846 *bang*;
#X text 245 846 play with default duration and full gain.;
#X text 150 866 *float*;
#X text 245 866 play with default duration and specified gain.;
#X text 150 886 *list*;
#X text 245 886 GAIN(0\..1) DUR(ms) pair expected.;
#X obj 20 916 cnv 1 745 1 empty empty empty 17 7 0 10 -203890 -1 0;
#X obj 20 921 cnv 5 73 25 empty empty outlets: 4 12 0 14 -262144
-49933 0;
#X text 110 922 1\.;
#X text 245 922 synth output.;
#X text 110 942 2\.;
#X text 245 942 bang after release finished.;
#X obj 10 48 ui.link @title index @url ../index-help.pd;
#X text 51 45 ::;
#X obj 68 48 ui.link @title ceammc @url ceammc-help.pd;
#X text 116 45 ::;
#X obj 133 48 ui.link @title synth @url ceammc.synth-help.pd;
#X obj 1 992 cnv 5 765 48 empty empty empty 17 7 0 10 -203890 -1 0;
#X text 10 995 library: ceammc v0.9.7;
#X text 489 1007 see also:;
#X obj 564 1007 synth.kick2~;
#X obj 667 1007 synth.hat~;
#N canvas 10 1014 400 290 info 0;
#X obj 1 1 cnv 1 107 287 empty empty empty 17 7 0 10 -183085 -1 0;
#X text 10 10 library:;
#X text 120 10 ceammc;
#X text 10 32 version:;
#X text 120 32 0.9.7;
#X text 10 54 object:;
#X text 120 54 synth.clap~;
#X text 10 76 category:;
#X text 120 76 synth;
#X text 10 98 since:;
#X text 120 98 0.9.5;
#X text 10 120 authors:;
#X text 120 120 Serge Poltavsky;
#X text 10 142 license:;
#X text 120 142 GPL3 or later;
#X text 10 164 keywords:;
#X text 120 164 synth \, kick;
#X text 10 186 website:;
#X obj 120 189 ui.link @title https://github.com/uliss/pd-ceammc @url
https://github.com/uliss/pd-ceammc;
#X obj 120 208 declare -lib ceammc;
#X obj 120 268 cnv 1 270 1 empty empty empty 17 7 0 10 -203890 -1 0;
#X text 120 268 generated by pddoc;
#X restore 10 1014 pd info;
#X connect 4 0 9 0;
#X connect 5 0 9 1;
#X connect 9 0 10 0;
#X connect 6 0 11 0;
#X connect 7 0 12 0;
#X connect 8 0 13 0;
#X connect 10 0 14 0;
#X connect 14 0 15 0;
#X connect 11 0 15 0;
#X connect 12 0 15 0;
#X connect 13 0 15 0;
#X connect 15 1 16 0;
#X connect 15 0 17 0;
#X connect 17 0 19 0;
#X connect 17 0 19 1;