#N canvas 0 0 785 555 12;
#X declare -lib ceammc;
#X obj 606 50 cnv 1 159 23 empty empty empty 17 7 0 10 -245760 -1 0;
#X text 606 50 Chua's diode circuit;
#X obj 1 1 cnv 5 765 40 empty empty synth.chua~ 20 20 0 20 -104026
-4096 0;
#X obj 660 11 synth.chua~;
#X text 50 118 gsynth.chua~;
#X obj 50 147 gsynth.chua~;
#X obj 50 291 ui.hgain~;
#X obj 203 291 ui.dsp~;
#X obj 50 320 dac~;
#X obj 50 349 synth.chua~;
#X obj 20 398 cnv 1 745 1 empty empty empty 17 7 0 10 -203890 -1 0;
#X obj 20 403 cnv 5 98 26 empty empty properties: 4 10 0 14 -262144
-49933 0;
#X msg 110 438 @active;
#X text 245 438 Get/Set on/off dsp processing. Type: bool. Default
value: 1\.;
#X msg 110 467 @attack;
#X text 245 467 Get/Set attack time. Type: float. Units: ms. Default
value: 0\. Range: 0\...400\.;
#X msg 110 509 @envwait;
#X text 245 509 Get/Set ignore new notes until previous note is not
finished release time. Type: bool. Default value: 0\.;
#X msg 110 551 @gate;
#X text 245 551 Get/Set play trigger >0: on \, 0: off. To set output
gain to 0.5 you can 0.5 as trigger value. Type: float. Default value:
0\. Range: 0\...1\.;
#X msg 110 608 @release;
#X text 245 608 Get/Set release time. Type: float. Units: ms. Default
value: 0\. Range: 0\...4000\.;
#X msg 110 650 @tone;
#X text 245 650 Get/Set bandpass filter cutoff frequency. Type: float.
Units: Hz. Default value: 3500\. Range: 400\...3500\.;
#X obj 20 702 cnv 1 745 1 empty empty empty 17 7 0 10 -203890 -1 0;
#X obj 20 707 cnv 5 73 26 empty empty methods: 4 10 0 14 -262144
-49933 0;
#X msg 110 742 reset;
#X text 245 742 reset synth.;
#X obj 20 779 cnv 1 745 1 empty empty empty 17 7 0 10 -203890 -1 0;
#X obj 20 784 cnv 5 64 26 empty empty inlets: 4 10 0 14 -262144 -49933
0;
#X text 110 785 1\.;
#X text 150 785 *bang*;
#X text 245 785 play with default duration and full gain.;
#X text 150 805 *float*;
#X text 245 805 play with default duration and specified gain.;
#X text 150 825 *list*;
#X text 245 825 GAIN(0\..1) DUR(ms) pair expected.;
#X obj 20 855 cnv 1 745 1 empty empty empty 17 7 0 10 -203890 -1 0;
#X obj 20 860 cnv 5 73 26 empty empty outlets: 4 10 0 14 -262144
-49933 0;
#X text 110 861 1\.;
#X text 245 861 synth output.;
#X obj 10 48 ui.link @title index @url ../index-help.pd;
#X text 51 45 ::;
#X obj 67 48 ui.link @title ceammc @url ceammc-help.pd;
#X text 115 45 ::;
#X obj 131 48 ui.link @title synth @url ceammc.synth-help.pd;
#X obj 1 911 cnv 5 765 48 empty empty empty 17 7 0 10 -203890 -1 0;
#X text 10 914 library: ceammc v0.9.6;
#N canvas 10 933 400 290 info 0;
#X obj 1 1 cnv 1 107 287 empty empty empty 17 7 0 10 -183085 -1 0;
#X text 10 10 library:;
#X text 120 10 ceammc;
#X text 10 32 version:;
#X text 120 32 0.9.6;
#X text 10 54 object:;
#X text 120 54 synth.chua~;
#X text 10 76 category:;
#X text 120 76 synth;
#X text 10 98 since:;
#X text 120 98 0.9.6;
#X text 10 120 authors:;
#X text 120 120 Serge Poltavsky;
#X text 10 142 license:;
#X text 120 142 GPL3 or later;
#X text 10 164 keywords:;
#X text 120 164 synth \, chua \, chaos;
#X text 10 186 website:;
#X obj 120 189 ui.link @title https://github.com/uliss/pure-data @url
https://github.com/uliss/pure-data;
#X obj 120 208 declare -lib ceammc;
#X obj 120 268 cnv 1 270 1 empty empty empty 17 7 0 10 -203890 -1 0;
#X text 120 268 generated by pddoc;
#X restore 10 933 pd info;
#X connect 6 0 8 0;
#X connect 6 0 8 1;