#N canvas 0 0 785 555 12;
#X declare -lib ceammc;
#X obj 469 50 cnv 1 296 23 empty empty empty 17 7 0 10 -245760 -1 0;
#X text 469 50 Snare drum synth from Guitarix project;
#X obj 1 1 cnv 5 765 40 empty empty synth.snare~ 20 20 0 20 -104026
-4096 0;
#X obj 653 11 synth.snare~;
#X obj 50 118 tgl 15 0 empty empty empty 17 7 0 10 -262144 -1 -1 0 1;
#X obj 242 118 ui.k @show_value 1 @min 1 @max 10;
#X obj 366 118 ui.k @show_value 1 @min 20 @max 200;
#X obj 50 147 metro 100;
#X obj 50 176 random.f 0.3 0.95;
#X msg 242 176 @attack \$1;
#X msg 366 176 @release \$1;
#X obj 50 205 synth.snare~;
#X obj 50 234 ui.hgain~;
#X obj 203 234 ui.dsp~;
#X obj 50 262 dac~;
#X obj 20 311 cnv 1 745 1 empty empty empty 17 7 0 10 -203890 -1 0;
#X obj 20 316 cnv 5 98 26 empty empty properties: 4 10 0 14 -262144
-49933 0;
#X msg 110 351 @id;
#X text 245 351 (initonly) Get/Set OSC address id. If specified \,
bind all properties to /ID/synth_snare/PROP_NAME osc address \, if
empty bind to /synth_snare/PROP_NAME. Type: symbol.;
#X msg 110 408 @osc;
#X text 245 408 (initonly) Get/Set OSC server name to listen. Type:
symbol.;
#X msg 110 437 @active;
#X text 245 437 Turn on/off dsp processing. Type: bool. Default value:
1\.;
#X msg 110 466 @attack;
#X text 245 466 Get/Set attack time. Type: float. Units: 'ms'. Default
value: 0.5\. Range: 0.3\...100\.;
#X msg 110 508 @decay;
#X text 245 508 Get/Set decay time. Type: float. Units: 'ms'. Default
value: 1\. Range: 1\...100\.;
#X msg 110 550 @envwait;
#X text 245 550 Get/Set ignore new notes until previous note is not
finished release time. Type: bool. Default value: 0\.;
#X msg 110 592 @gate;
#X text 245 592 Get/Set play trigger >0: on \, 0: off. To set output
gain to 0.5 you can 0.5 as trigger value. Type: float. Default value:
0\. Range: 0\...1\.;
#X msg 110 649 @release;
#X text 245 649 Get/Set release time. Type: float. Units: 'ms'. Default
value: 200\. Range: 10\...1000\.;
#X obj 20 701 cnv 1 745 1 empty empty empty 17 7 0 10 -203890 -1 0;
#X obj 20 706 cnv 5 73 26 empty empty methods: 4 10 0 14 -262144
-49933 0;
#X msg 110 741 reset;
#X text 245 741 reset synth.;
#X obj 20 778 cnv 1 745 1 empty empty empty 17 7 0 10 -203890 -1 0;
#X obj 20 783 cnv 5 64 26 empty empty inlets: 4 10 0 14 -262144 -49933
0;
#X text 110 784 1\.;
#X text 150 784 *bang*;
#X text 245 784 play with default duration and full gain.;
#X text 150 804 *float*;
#X text 245 804 play with default duration and specified gain.;
#X text 150 824 *list*;
#X text 245 824 GAIN(0\..1) DUR(ms) pair expected.;
#X obj 20 854 cnv 1 745 1 empty empty empty 17 7 0 10 -203890 -1 0;
#X obj 20 859 cnv 5 73 26 empty empty outlets: 4 10 0 14 -262144
-49933 0;
#X text 110 860 1\.;
#X text 245 860 synth output.;
#X text 110 880 2\.;
#X text 245 880 bang after release finished.;
#X obj 10 48 ui.link @title index @url ../index-help.pd;
#X text 51 45 ::;
#X obj 67 48 ui.link @title ceammc @url ceammc-help.pd;
#X text 115 45 ::;
#X obj 131 48 ui.link @title synth @url ceammc.synth-help.pd;
#X obj 1 930 cnv 5 765 48 empty empty empty 17 7 0 10 -203890 -1 0;
#X text 10 933 library: ceammc v0.9.7;
#N canvas 10 952 400 290 info 0;
#X obj 1 1 cnv 1 107 287 empty empty empty 17 7 0 10 -183085 -1 0;
#X text 10 10 library:;
#X text 120 10 ceammc;
#X text 10 32 version:;
#X text 120 32 0.9.7;
#X text 10 54 object:;
#X text 120 54 synth.snare~;
#X text 10 76 category:;
#X text 120 76 synth;
#X text 10 98 since:;
#X text 120 98 0.9.4;
#X text 10 120 authors:;
#X text 120 120 Serge Poltavsky;
#X text 10 142 license:;
#X text 120 142 GPL3 or later;
#X text 10 164 keywords:;
#X text 120 164 synth \, snare \, drum;
#X text 10 186 website:;
#X obj 120 189 ui.link @title https://github.com/uliss/pure-data @url
https://github.com/uliss/pure-data;
#X obj 120 208 declare -lib ceammc;
#X obj 120 268 cnv 1 270 1 empty empty empty 17 7 0 10 -203890 -1 0;
#X text 120 268 generated by pddoc;
#X restore 10 952 pd info;
#X connect 4 0 7 0;
#X connect 7 0 8 0;
#X connect 5 0 9 0;
#X connect 6 0 10 0;
#X connect 8 0 11 0;
#X connect 9 0 11 0;
#X connect 10 0 11 0;
#X connect 11 0 12 0;
#X connect 12 0 14 0;
#X connect 12 0 14 1;