#N canvas 0 0 785 555 12;
#X declare -lib ceammc;
#X obj 659 50 cnv 1 106 23 empty empty empty 17 7 0 10 -245760 -1 0;
#X text 659 50 quit PureData;
#X obj 1 1 cnv 5 765 40 empty empty system.exit 20 20 0 20 -104026
-4096 0;
#X obj 660 11 system.exit;
#X msg 50 118 exit 0;
#X text 136 118 WARNING: this will close PureData in 1000ms!;
#X obj 50 162 system.exit @delay 1000;
#X obj 20 212 cnv 1 745 1 empty empty empty 17 7 0 10 -203890 -1 0;
#X obj 20 217 cnv 5 90 25 empty empty arguments: 4 10 0 14 -262144
-49933 0;
#X text 110 252 1\.;
#X text 150 252 float;
#X obj 246 253 cnv 1 78 20 empty empty empty 17 7 0 10 -245695 -1 0;
#X text 245 252 DELAY(ms): exit delay time. Type: float. Min value:
0;
#X obj 20 282 cnv 1 745 1 empty empty empty 17 7 0 10 -203890 -1 0;
#X obj 20 287 cnv 5 98 25 empty empty properties: 4 10 0 14 -262144
-49933 0;
#X msg 110 322 @auto;
#X text 245 322 Get/Set close automatically \, without incoming call.
Type: bool. Default value: 0\.;
#X msg 110 364 @delay;
#X text 245 364 Get/Set exit PureData after specified delay time. Type:
float. Units: 'ms'. Default value: 0\. Min value: 0\.;
#X msg 110 406 @rc;
#X text 245 406 Get/Set exit code. Type: int. Default value: 0\.;
#X obj 20 446 cnv 1 745 1 empty empty empty 17 7 0 10 -203890 -1 0;
#X obj 20 451 cnv 5 73 25 empty empty methods: 4 10 0 14 -262144
-49933 0;
#X msg 110 486 exit;
#X text 245 486 exit PureData. Arguments are:;
#X obj 255 509 cnv 1 32 23 empty empty empty 17 7 0 10 -245695 -1 0;
#X text 255 509 [RC]: exit code \, if not specified @rc property used.
Type: int.;
#X obj 20 559 cnv 1 745 1 empty empty empty 17 7 0 10 -203890 -1 0;
#X obj 20 564 cnv 5 64 25 empty empty inlets: 4 10 0 14 -262144 -49933
0;
#X text 110 565 1\.;
#X text 245 565 control input.;
#X obj 20 595 cnv 1 745 1 empty empty empty 17 7 0 10 -203890 -1 0;
#X obj 20 600 cnv 5 73 25 empty empty outlets: 4 10 0 14 -262144
-49933 0;
#X obj 10 48 ui.link @title index @url ../index-help.pd;
#X text 51 45 ::;
#X obj 68 48 ui.link @title ceammc @url ceammc-help.pd;
#X text 116 45 ::;
#X obj 133 48 ui.link @title system @url ceammc.system-help.pd;
#X obj 1 641 cnv 5 765 48 empty empty empty 17 7 0 10 -203890 -1 0;
#X text 10 644 library: ceammc v0.9.7;
#N canvas 10 663 400 290 info 0;
#X obj 1 1 cnv 1 107 287 empty empty empty 17 7 0 10 -183085 -1 0;
#X text 10 10 library:;
#X text 120 10 ceammc;
#X text 10 32 version:;
#X text 120 32 0.9.7;
#X text 10 54 object:;
#X text 120 54 system.exit;
#X text 10 76 category:;
#X text 120 76 system;
#X text 10 98 since:;
#X text 120 98 0.9.2;
#X text 10 120 authors:;
#X text 120 120 Serge Poltavsky;
#X text 10 142 license:;
#X text 120 142 GPL3 or later;
#X text 10 164 keywords:;
#X text 120 164 quit \, exit;
#X text 10 186 website:;
#X obj 120 189 ui.link @title https://github.com/uliss/pd-ceammc @url
https://github.com/uliss/pd-ceammc;
#X obj 120 208 declare -lib ceammc;
#X obj 120 268 cnv 1 270 1 empty empty empty 17 7 0 10 -203890 -1 0;
#X text 120 268 generated by pddoc;
#X restore 10 663 pd info;
#X connect 4 0 6 0;