#N canvas 0 0 785 555 12;
#X declare -lib ceammc;
#X obj 514 50 cnv 1 251 23 empty empty empty 17 7 0 10 -245760 -1 0;
#X text 514 50 Get system environment variables;
#X obj 1 1 cnv 5 765 40 empty empty system.getenv 20 20 0 20 -104026
-4096 0;
#X obj 645 11 system.getenv;
#X msg 50 118 symbol HOME;
#X msg 184 118 symbol APPDATA;
#X msg 347 118 symbol PATH;
#X msg 482 118 symbol USER;
#X msg 616 118 symbol SHELL;
#X obj 78 162 bng 15 250 50 0 empty empty empty 17 7 0 10 -262144 -1
-1;
#X obj 50 190 system.getenv USER;
#X obj 50 219 ui.display;
#X obj 20 269 cnv 1 745 1 empty empty empty 17 7 0 10 -203890 -1 0;
#X obj 20 274 cnv 5 90 25 empty empty arguments: 4 12 0 14 -262144
-49933 0;
#X obj 735 277 ui.link @background_color 0.98039 0.98039 0.98039
@title [?] @url ceammc.args-info.pd;
#X text 110 309 1\.;
#X text 150 309 symbol;
#X obj 246 310 cnv 1 40 20 empty empty empty 17 7 0 10 -245695 -1 0;
#X text 245 309 NAME: environment variable name. Type: symbol.;
#X obj 20 339 cnv 1 745 1 empty empty empty 17 7 0 10 -203890 -1 0;
#X obj 20 344 cnv 5 98 25 empty empty properties: 4 12 0 14 -262144
-49933 0;
#X obj 735 347 ui.link @background_color 0.98039 0.98039 0.98039
@title [?] @url ceammc.props-info.pd;
#X msg 110 379 @name;
#X text 245 379 Get/Set environment variable name. Type: symbol.;
#X obj 20 419 cnv 1 745 1 empty empty empty 17 7 0 10 -203890 -1 0;
#X obj 20 424 cnv 5 64 25 empty empty inlets: 4 12 0 14 -262144 -49933
0;
#X text 110 425 1\.;
#X text 150 425 *bang*;
#X text 245 425 outputs variable value.;
#X text 150 445 *symbol*;
#X text 245 445 sets name of environment variable and outputs it value.;
#X obj 20 475 cnv 1 745 1 empty empty empty 17 7 0 10 -203890 -1 0;
#X obj 20 480 cnv 5 73 25 empty empty outlets: 4 12 0 14 -262144
-49933 0;
#X text 110 481 1\.;
#X text 245 481 symbol: env-variable value.;
#X obj 10 48 ui.link @title index @url ../index-help.pd;
#X text 51 45 ::;
#X obj 68 48 ui.link @title ceammc @url ceammc-help.pd;
#X text 116 45 ::;
#X obj 133 48 ui.link @title system @url ceammc.system-help.pd;
#X obj 1 531 cnv 5 765 48 empty empty empty 17 7 0 10 -203890 -1 0;
#X text 10 534 library: ceammc v0.9.7;
#X text 556 546 see also:;
#X obj 631 546 system.hostname;
#N canvas 10 553 400 290 info 0;
#X obj 1 1 cnv 1 107 287 empty empty empty 17 7 0 10 -183085 -1 0;
#X text 10 10 library:;
#X text 120 10 ceammc;
#X text 10 32 version:;
#X text 120 32 0.9.7;
#X text 10 54 object:;
#X text 120 54 system.getenv;
#X text 10 76 category:;
#X text 120 76 system;
#X text 10 98 since:;
#X text 120 98 0.1;
#X text 10 120 authors:;
#X text 120 120 Alex Nadzharov \, Serge Poltavsky;
#X text 10 142 license:;
#X text 120 142 GPL3 or later;
#X text 10 164 keywords:;
#X text 120 164 system \, environment;
#X text 10 186 website:;
#X obj 120 189 ui.link @title https://github.com/uliss/pd-ceammc @url
https://github.com/uliss/pd-ceammc;
#X obj 120 208 declare -lib ceammc;
#X obj 120 268 cnv 1 270 1 empty empty empty 17 7 0 10 -203890 -1 0;
#X text 120 268 generated by pddoc;
#X restore 10 553 pd info;
#X connect 4 0 10 0;
#X connect 9 0 10 0;
#X connect 5 0 10 0;
#X connect 6 0 10 0;
#X connect 7 0 10 0;
#X connect 8 0 10 0;
#X connect 10 0 11 0;