#N canvas 0 0 785 555 12;
#X declare -lib ceammc;
#X obj 431 50 cnv 1 334 23 empty empty empty 17 7 0 10 -245760 -1 0;
#X text 431 50 run commands with pipes on Unix and Windows;
#X obj 1 1 cnv 5 765 40 empty empty system.command 20 20 0 20 -104026
-4096 0;
#X obj 542 11 system.cmd;
#X obj 639 11 system.command;
#X obj 210 80 cnv 1 555 90 empty empty empty 17 7 0 10 -257983 -1 0;
#X text 215 80 Note: this is simplest unix shell simulation \, do not
expect too much from it \, if you need powerfull shell capabilities
- write shell script and run it.;
#X text 215 135 The pipe symbol should be separated by whitespaces.;
#X msg 50 198 open /System/Applications/Utilities/Audio\ MIDI\ Setup.app;
#X msg 50 227 ls | sort -r | tail;
#X msg 78 256 du -h | cut -f1;
#X msg 270 256 winver.exe;
#X msg 107 285 bang;
#X msg 174 285 @args cat \, stdin 1 2 3 4 5;
#X obj 50 314 system.command pwd;
#X floatatom 50 342 5 0 0 0 - - -;
#X obj 165 342 print EXEC;
#X obj 20 392 cnv 1 745 1 empty empty empty 17 7 0 10 -203890 -1 0;
#X obj 20 397 cnv 5 90 25 empty empty arguments: 4 12 0 14 -262144
-49933 0;
#X obj 735 400 ui.link @background_color 0.98039 0.98039 0.98039
@title [?] @url ceammc.args-info.pd;
#X text 110 432 1\.;
#X text 150 432 list;
#X obj 246 433 cnv 1 40 20 empty empty empty 17 7 0 10 -245695 -1 0;
#X text 245 432 ARGS: execution program chain. Type: list.;
#X obj 20 462 cnv 1 745 1 empty empty empty 17 7 0 10 -203890 -1 0;
#X obj 20 467 cnv 5 98 25 empty empty properties: 4 12 0 14 -262144
-49933 0;
#X obj 735 470 ui.link @background_color 0.98039 0.98039 0.98039
@title [?] @url ceammc.props-info.pd;
#X msg 110 502 @args;
#X text 245 502 Get/Set execution program chain. Type: list.;
#X msg 110 532 @mode;
#X text 245 532 Get/Set output processing mode. 'pd': output each output
line as Pd atom list \, 'str': output whole as data:string \, 'lines':
output each output line as data:string \, 'bytes': output as byte stream.
Type: symbol. Default value: pd. Allowed values: pd \, str \, lines
\, bytes.;
#X msg 110 619 @pwd;
#X text 245 619 Get/Set process working directory. Type: symbol.;
#X msg 110 649 @stderr;
#X text 245 649 Get/Set capture stderr. Type: bool. Default value:
1\.;
#X msg 110 679 @stdout;
#X text 245 679 Get/Set capture stdout. Type: bool. Default value:
1\.;
#X msg 110 709 @t;
#X text 245 709 Get/Set period to check program output. Type: int.
Units: 'ms'. Default value: 100\. Range: 5\...500\.;
#X obj 20 761 cnv 1 745 1 empty empty empty 17 7 0 10 -203890 -1 0;
#X obj 20 766 cnv 5 73 25 empty empty methods: 4 12 0 14 -262144
-49933 0;
#X msg 110 801 stdin;
#X text 245 801 run the program with given input values. Arguments
are:;
#X obj 255 824 cnv 1 47 23 empty empty empty 17 7 0 10 -245695 -1 0;
#X text 255 824 [ARGS]: the input values. Type: list.;
#X msg 110 849 terminate;
#X text 245 849 terminate the running process.;
#X obj 20 887 cnv 1 745 1 empty empty empty 17 7 0 10 -203890 -1 0;
#X obj 20 892 cnv 5 64 25 empty empty inlets: 4 12 0 14 -262144 -49933
0;
#X text 110 893 1\.;
#X text 150 893 *bang*;
#X text 245 893 run the program.;
#X text 150 913 *any*;
#X text 245 913 change @args property and then run the program.;
#X obj 20 943 cnv 1 745 1 empty empty empty 17 7 0 10 -203890 -1 0;
#X obj 20 948 cnv 5 73 25 empty empty outlets: 4 12 0 14 -262144
-49933 0;
#X text 110 949 1\.;
#X text 245 949 int: output process exit code.;
#X text 110 969 2\.;
#X text 245 969 stdout output \, format depends from @mode.;
#X obj 10 48 ui.link @title index @url ../index-help.pd;
#X text 51 45 ::;
#X obj 68 48 ui.link @title ceammc @url ceammc-help.pd;
#X text 116 45 ::;
#X obj 133 48 ui.link @title system @url ceammc.system-help.pd;
#X obj 1 1019 cnv 5 765 48 empty empty empty 17 7 0 10 -203890 -1 0;
#X text 10 1022 library: ceammc v0.9.7;
#N canvas 10 1041 400 290 info 0;
#X obj 1 1 cnv 1 107 287 empty empty empty 17 7 0 10 -183085 -1 0;
#X text 10 10 library:;
#X text 120 10 ceammc;
#X text 10 32 version:;
#X text 120 32 0.9.7;
#X text 10 54 object:;
#X text 120 54 system.command;
#X text 10 76 category:;
#X text 120 76 system;
#X text 10 98 since:;
#X text 120 98 0.9.8;
#X text 10 120 authors:;
#X text 120 120 Serge Poltavsky;
#X text 10 142 license:;
#X text 120 142 GPL3 or later;
#X text 10 164 keywords:;
#X text 120 164 system \, execute \, pipe \, command \, shell;
#X text 10 186 website:;
#X obj 120 189 ui.link @title https://github.com/uliss/pd-ceammc @url
https://github.com/uliss/pd-ceammc;
#X obj 120 208 declare -lib ceammc;
#X obj 120 268 cnv 1 270 1 empty empty empty 17 7 0 10 -203890 -1 0;
#X text 120 268 generated by pddoc;
#X restore 10 1041 pd info;
#X connect 9 0 14 0;
#X connect 10 0 14 0;
#X connect 12 0 14 0;
#X connect 13 0 14 0;
#X connect 14 0 15 0;
#X connect 14 1 16 0;
#X connect 8 0 14 0;
#X connect 11 0 14 0;