#N canvas 0 0 676 299 12;
#X obj 20 48 tgl 15 0 empty empty empty 17 7 0 10 -262144 -1 -1 0 1;
#X obj 20 77 system.cursor @norm 1 @clip 1;
#X obj 20 106 route motion;
#X obj 20 135 lin->lin 0 1 100 5000;
#X obj 20 164 unpack f f;
#X obj 20 192 osc~;
#X obj 96 192 osc~;
#X obj 20 221 ui.hgain~;
#X obj 20 250 dac~;
#X connect 0 0 1 0;
#X connect 1 0 2 0;
#X connect 2 0 3 0;
#X connect 3 0 4 0;
#X connect 4 0 5 0;
#X connect 4 1 6 0;
#X connect 5 0 7 0;
#X connect 6 0 7 0;
#X connect 7 0 8 0;
#X connect 7 0 8 1;
