#N canvas 155 51 682 597 12;
#X obj 45 150 cnv 15 590 395 empty empty empty 20 12 0 14 #dcdcdc #404040 0;
#X obj 69 337 ui.link @size 124 16 @receive "(null)" @send "(null)" @nosave 0 @pinned 0 @background_color 1 1 1 1 @border_color 0.6 0.6 0.6 1 @label_color 0 0 0 1 @link_color 0 0.625 0.75 1 @hover_color 1 0 0.5 1 @fontname "Helvetica" @fontweight "normal" @fontslant "roman" @fontsize 11 @label "(null)" @label_inner 0 @label_side "top" @label_align "left" @label_valign "top" @label_margins 0 0 @url "@CEAMMC_LIB_HOME@" @title "@CEAMMC_LIB_HOME@";
#X text 60 314 The source code available at:;
#X obj 60 481 ui.link @size 75 16 @receive "(null)" @send "(null)" @nosave 0 @pinned 0 @background_color 1 1 1 1 @border_color 0.6 0.6 0.6 1 @label_color 0 0 0 1 @link_color 0 0.625 0.75 1 @hover_color 1 0 0.5 1 @fontname "Helvetica" @fontweight "normal" @fontslant "roman" @fontsize 11 @label "(null)" @label_inner 0 @label_side "top" @label_align "left" @label_valign "top" @label_margins 0 0 @url "ceammc-help.pd" @title "ceammc:doc";
#X obj 585 525 cnv 15 50 20 empty empty empty 20 12 0 14 #606060 #404040 0;
#X obj 45 525 cnv 15 50 20 empty empty empty 20 12 0 14 #606060 #404040 0;
#X obj 45 150 cnv 15 50 20 empty empty empty 20 12 0 14 #606060 #404040 0;
#X obj 45 16 ui.bang @size 101 101 @receive "(null)" @send "(null)" @nosave 0 @pinned 0 @background_color 0.93 0.93 0.93 1 @border_color 0.6 0.6 0.6 1 @label_color 0 0 0 1 @active_color 0 0.75 1 1 @fontname "Helvetica" @fontweight "normal" @fontslant "roman" @fontsize 11 @label "(null)" @label_inner 0 @label_side "top" @label_align "left" @label_valign "top" @label_margins 0 0;
#X obj 60 116 cnv 3 3 50 empty empty empty 20 12 0 14 #606060 #404040 0;
#N canvas 211 126 693 402 info 0;
#X obj 20 20 cnv 15 50 20 empty empty empty 20 12 0 14 #606060 #404040 0;
#X obj 25 25 cnv 10 40 10 empty empty empty 20 12 0 14 #e0e0e0 #404040 0;
#X obj 75 0 cnv 15 600 400 empty empty empty 20 12 0 14 #b8b8b8 #404040 0;
#X obj 120 30 cnv 15 500 200 empty empty empty 20 12 0 14 #e0e0e0 #404040 0;
#X text 150 59 Additional info;
#X text 150 104 Build date:;
#X text 150 164 Distribution version:;
#X text 150 179 ceammc version:;
#X text 150 149 Git commit:;
#X text 315 104 @BUILD_DATETIME@;
#X text 315 149 @GIT_COMMIT@;
#X text 315 134 @GIT_BRANCH@;
#X text 150 134 Git branch:;
#X text 315 164 v@CEAMMC_DISTRIB_VERSION@;
#X text 315 179 @CEAMMC_LIB_VERSION@;
#X text 150 194 origin Pd version:;
#X text 315 194 @PD_TEXT_VERSION_SHORT@;
#X text 150 119 Tcl/Tk version:;
#X text 315 119 @TK_VERSION@;
#X coords 0 -1 1 1 50 20 2 20 20;
#X restore 585 150 pd info;
#X text 60 194 This is PureData distribution v@CEAMMC_DISTRIB_VERSION@ by Centre of electoacoustic music of Moscow Conservatory (CEAM). Made by Serge Poltavsky and Alex Nadzharov. It based on original 'vanilla' Pd-@PD_TEXT_VERSION_SHORT@ by Miller Puckette.;
#X text 60 284 Distribution license is GPL 3;
#X text 60 389 This distribution contains ceammc-@CEAMMC_LIB_VERSION@ library \, that aims to be standard base for education and artists purposes. It contains over @CEAMMC_OBJECT_COUNT@ objects for working with audio \, lists \, MIDI \, OSC \, user interface \, etc.;
#X obj 476 328 ui.lcd @size 150 150 @receive "about-qrcode" @send "(null)" @nosave 0 @pinned 0 @background_color 1 1 1 1 @border_color 0.6 0.6 0.6 1 @label_color 0 0 0 1 @fontname "Helvetica" @fontweight "normal" @fontslant "roman" @fontsize 11 @label "(null)" @label_inner 0 @label_side "top" @label_align "left" @label_valign "top" @label_margins 0 0 @cols 25 @rows 25;
#N canvas 602 286 700 500 qrcode 0;
#X obj 108 233 s about-qrcode;
#X obj 108 123 qrcode;
#X obj 108 189 msg set;
#X obj 108 62 loadbang;
#X msg 108 88 symbol @CEAMMC_LIB_HOME@/releases;
#X msg 147 150 @cols \$1 \, @rows \$1 \, @size 145 145;
#X connect 1 0 2 0;
#X connect 1 1 5 0;
#X connect 2 0 0 0;
#X connect 3 0 4 0;
#X connect 4 0 1 0;
#X connect 5 0 0 0;
#X restore 476 488 pd qrcode;
#X text 474 303 Download links:;
