#N canvas 0 0 785 555 12;
#X declare -lib ceammc;
#X obj 483 50 cnv 1 282 23 empty empty empty 17 7 0 10 -245760 -1 0;
#X text 483 50 array view with cursor and selection;
#X obj 1 1 cnv 5 765 40 empty empty ui.aview 20 20 0 20 -104026 -4096
0;
#X obj 679 13 ui.link @background_color 0.39216 0.39216 0.39216 @title
[ui.aview] @url ui.aview-help.pd;
#X obj 50 118 loadbang;
#X obj 155 118 table array_view;
#X msg 50 147 load %DOC%/sound/voice.wav @to array_view @resize;
#X obj 50 176 expand_env;
#X obj 50 205 snd.file;
#X msg 50 234 update;
#X text 146 234 Ctrl+drag - select region to play;
#X obj 50 262 ui.aview @array array_view @show_labels 1 @size 300 80;
#X obj 50 349 ui.mf @up;
#X obj 50 378 route @select_samp;
#X obj 50 406 flow.change;
#X obj 280 406 loadbang;
#X obj 50 435 expr $f1\; $f2 - $f1;
#X msg 280 435 1;
#X obj 98 464 b;
#X floatatom 280 464 5 0 0 0 - - -;
#X text 347 464 speed;
#X obj 98 493 loop~;
#X obj 98 521 *~;
#X obj 50 550 +~;
#X obj 50 579 tabread4~ array_view;
#X obj 50 608 ui.gain~ @size 120 16;
#X obj 290 608 ui.dsp~;
#X obj 50 637 dac~;
#X obj 20 687 cnv 1 745 1 empty empty empty 17 7 0 10 -203890 -1 0;
#X obj 20 692 cnv 5 115 25 empty empty mouse_events: 4 12 0 14 -262144
-49933 0;
#X text 110 727 Left-click;
#X text 285 727 move view cursor under mouse pointer.;
#X text 110 747 Left-click;
#X text 285 747 starts range selection.;
#X text 110 767 Left-click + ⌥;
#X text 285 767 edit selection nearest border.;
#X text 110 787 Left-click + ⇧;
#X text 285 787 starts moving selection.;
#X text 110 807 Mouse-drag;
#X text 285 807 move view cursor.;
#X text 110 827 Mouse-drag + ⌥;
#X text 285 827 change nearest selection border.;
#X text 110 847 Mouse-drag + ⇧;
#X text 285 847 move selection.;
#X text 110 867 Right-click + ⇧;
#X text 285 867 open object help.;
#X text 110 887 Right-click + ⌥;
#X text 285 887 open properties dialog.;
#X text 110 907 Right-click;
#X text 285 907 opens Pd popup menu.;
#X text 61 907 [Edit];
#X text 110 927 Right-click + ⇧;
#X text 285 927 open the object help.;
#X text 61 927 [Edit];
#X text 110 947 Right-click + ⌥;
#X text 285 947 open properties dialog.;
#X text 61 947 [Edit];
#X obj 20 977 cnv 1 745 1 empty empty empty 17 7 0 10 -203890 -1 0;
#X obj 20 982 cnv 5 98 25 empty empty properties: 4 12 0 14 -262144
-49933 0;
#X obj 735 985 ui.link @background_color 0.98039 0.98039 0.98039
@title [?] @url ceammc.props-info.pd;
#X msg 110 1017 @array;
#X text 245 1017 Get/Set array name. Type: symbol.;
#X msg 110 1047 @cursor_ms;
#X text 245 1047 Get/Set cursor position in milliseconds. Type: float.
Units: 'ms'. Default value: 0\.;
#X msg 110 1089 @cursor_phase;
#X text 245 1089 Get/Set cursor position in 0-1 range. Type: float.
Default value: 0\. Range: 0\...1\.;
#X msg 110 1131 @cursor_samp;
#X text 245 1131 Get/Set cursor position in samples. Type: int. Units:
'samp'. Default value: 0\.;
#X msg 110 1173 @cursor_sec;
#X text 245 1173 Get/Set cursor position in seconds. Type: float. Units:
'sec'. Default value: 0\.;
#X msg 110 1215 @mouse_events;
#X text 245 1215 Get/Set mouse events output mode. If on outputs @mouse_down
\, @mouse_up and @mouse_drag events. Type: bool. Default value: 1\.;
#X msg 110 1272 @receive;
#X text 245 1272 Get/Set receive source. Type: symbol. Default value:
(null).;
#X msg 110 1302 @select_ms;
#X text 245 1302 Get/Set selection range in milliseconds \, pair of
values: begin \, end. Type: list. Units: 'ms'.;
#X msg 110 1344 @select_phase;
#X text 245 1344 Get/Set selection range noramlized to 0-1 range \,
pair of values: begin \, end. Type: list.;
#X msg 110 1386 @select_samp;
#X text 245 1386 Get/Set selection range in samples \, pair of values:
begin \, end. Type: list. Units: 'samp'.;
#X msg 110 1428 @select_sec;
#X text 245 1428 Get/Set selection range in seconds \, pair of values:
begin \, end. Type: list. Units: 'sec'.;
#X msg 110 1470 @send;
#X text 245 1470 Get/Set send destination. Type: symbol. Default value:
(null).;
#X msg 110 1512 @show_rms;
#X text 245 1512 Get/Set show RMS graph. Type: bool. Default value:
0\.;
#X msg 110 1542 @background_color;
#X text 245 1542 Get/Set element background color (list of red \, green
\, blue values in 0-1 range). Type: list. Default value: 0.93 0.93
0.93 1\.;
#X msg 110 1599 @border_color;
#X text 245 1599 Get/Set border color (list of red \, green \, blue
values in 0-1 range). Type: list. Default value: 0.6 0.6 0.6 1\.;
#X msg 110 1641 @cursor_color;
#X text 245 1641 Get/Set cursor color (list of red \, green \, blue
values in 0-1 range). Type: list. Default value: 0 0.75 1 1\.;
#X msg 110 1683 @selection_color;
#X text 245 1683 Get/Set selection color (list of red \, green \, blue
values in 0-1 range). Type: list. Default value: 0 0.75 1 1\.;
#X msg 110 1725 @wave_color;
#X text 245 1725 Get/Set wave color (list of red \, green \, blue values
in 0-1 range). Type: list. Default value: 0.3 0.3 0.3 1\.;
#X msg 110 1767 @label_bottom;
#X text 245 1767 Get/Set bottom right label if @show_labels is on.
Type: symbol.;
#X msg 110 1809 @label_top;
#X text 245 1809 Get/Set top right label if @show_labels is on. Type:
symbol.;
#X msg 110 1839 @show_labels;
#X text 245 1839 Get/Set if show corner labels. Type: bool. Default
value: 0\.;
#X msg 110 1869 @fontname;
#X text 245 1869 Get/Set fontname. Type: symbol. Default value: Helvetica.
Allowed values: Courier \, DejaVu \, Helvetica \, Monaco \, Times.;
#X msg 110 1911 @fontsize;
#X text 245 1911 Get/Set fontsize. Type: int. Default value: 11\. Range:
4\...100\.;
#X msg 110 1953 @fontslant;
#X text 245 1953 Get/Set font slant. Type: symbol. Default value: roman.
Allowed values: roman \, italic.;
#X msg 110 1995 @fontweight;
#X text 245 1995 Get/Set font weight. Type: symbol. Default value:
normal. Allowed values: normal \, bold.;
#X msg 110 2037 @pinned;
#X text 245 2037 Get/Set pin mode. if 1 - put element to the lowest
level. Type: bool. Default value: 0\.;
#X msg 110 2079 @size;
#X text 245 2079 Get/Set element size (width \, height pair). Type:
list. Default value: 300 100\.;
#X msg 110 2121 @size_ms?;
#X text 245 2121 (readonly) Get array size in milliseconds. Type: float.
Units: 'ms'. Default value: 0\. Min value: 0\.;
#X msg 110 2163 @size_samp?;
#X text 245 2163 (readonly) Get array size in samples. Type: int. Units:
'samp'. Default value: 0\. Min value: 0\.;
#X msg 110 2205 @size_sec?;
#X text 245 2205 (readonly) Get array size in seconds. Type: float.
Units: 'sec'. Default value: 0\. Min value: 0\.;
#X obj 20 2257 cnv 1 745 1 empty empty empty 17 7 0 10 -203890 -1 0;
#X obj 20 2262 cnv 5 73 25 empty empty methods: 4 12 0 14 -262144
-49933 0;
#X msg 110 2297 pos;
#X text 245 2297 set UI element position. Arguments are:;
#X obj 255 2320 cnv 1 15 23 empty empty empty 17 7 0 10 -245695 -1 0;
#X text 255 2320 X: top left x-coord. Type: float.;
#X obj 255 2343 cnv 1 15 23 empty empty empty 17 7 0 10 -245695 -1 0;
#X text 255 2343 Y: top right y-coord. Type: float.;
#X msg 110 2368 select;
#X text 245 2368 set selection. Arguments are:;
#X obj 255 2391 cnv 1 44 23 empty empty empty 17 7 0 10 -245695 -1 0;
#X text 255 2391 BEGIN: selection start in samples. Type: int.;
#X obj 255 2414 cnv 1 29 23 empty empty empty 17 7 0 10 -245695 -1 0;
#X text 255 2414 END: selection end in samples. Type: int.;
#X msg 110 2439 update;
#X text 245 2439 redraws view.;
#X msg 110 2467 dump;
#X text 245 2467 dumps all object info to Pd console window.;
#X obj 20 2505 cnv 1 745 1 empty empty empty 17 7 0 10 -203890 -1 0;
#X obj 20 2510 cnv 5 64 25 empty empty inlets: 4 12 0 14 -262144
-49933 0;
#X text 110 2511 1\.;
#X text 150 2511 *bang*;
#X text 245 2511 output current cursor positions: @cursor_samp \, @cursor_phase
\, @cursor_ms \, @cursor_sec and selection (if selected): @select_samp
\, @select_phase \, @select_ms \, @select_sec \, @begin \, @end.;
#X text 150 2576 *float*;
#X text 245 2576 move cursor to specified sample position.;
#X obj 20 2606 cnv 1 745 1 empty empty empty 17 7 0 10 -203890 -1 0;
#X obj 20 2611 cnv 5 73 25 empty empty outlets: 4 12 0 14 -262144
-49933 0;
#X text 110 2612 1\.;
#X text 245 2612 output.;
#X obj 10 48 ui.link @title index @url ../index-help.pd;
#X text 51 45 ::;
#X obj 68 48 ui.link @title ceammc @url ceammc-help.pd;
#X text 116 45 ::;
#X obj 133 48 ui.link @title ui @url ceammc.ui-help.pd;
#X obj 1 2662 cnv 5 765 48 empty empty empty 17 7 0 10 -203890 -1 0;
#X text 10 2665 library: ceammc v0.9.7;
#N canvas 10 2684 400 290 info 0;
#X obj 1 1 cnv 1 107 287 empty empty empty 17 7 0 10 -183085 -1 0;
#X text 10 10 library:;
#X text 120 10 ceammc;
#X text 10 32 version:;
#X text 120 32 0.9.7;
#X text 10 54 object:;
#X text 120 54 ui.aview;
#X text 10 76 category:;
#X text 120 76 ui;
#X text 10 98 since:;
#X text 120 98 0.6;
#X text 10 120 authors:;
#X text 120 120 Serge Poltavsky;
#X text 10 142 license:;
#X text 120 142 GPL3 or later;
#X text 10 164 keywords:;
#X text 120 164 ui \, array \, view;
#X text 10 186 website:;
#X obj 120 189 ui.link @title https://github.com/uliss/pd-ceammc @url
https://github.com/uliss/pd-ceammc;
#X obj 120 208 declare -lib ceammc;
#X obj 120 268 cnv 1 270 1 empty empty empty 17 7 0 10 -203890 -1 0;
#X text 120 268 generated by pddoc;
#X restore 10 2684 pd info;
#X connect 4 0 6 0;
#X connect 6 0 7 0;
#X connect 7 0 8 0;
#X connect 8 0 9 0;
#X connect 9 0 11 0;
#X connect 11 0 12 0;
#X connect 12 0 13 0;
#X connect 13 0 14 0;
#X connect 14 0 16 0;
#X connect 15 0 17 0;
#X connect 17 0 19 0;
#X connect 18 0 21 0;
#X connect 16 1 21 1;
#X connect 19 0 21 0;
#X connect 21 0 22 0;
#X connect 21 1 22 1;
#X connect 16 0 23 0;
#X connect 22 0 23 1;
#X connect 23 0 24 0;
#X connect 24 0 25 0;
#X connect 25 0 27 0;
#X connect 25 0 27 1;
#X connect 14 0 18 0;