#N canvas 0 0 578 415 12;
#X obj 20 48 ui.midi;
#X msg 20 77 65;
#X msg 68 77 64;
#X msg 20 106 3 \$1 0;
#X obj 20 135 s \#ctlin;
#X text 20 164 @bind cc[3]>64;
#X text 231 164 @bind cc[3]<65;
#X obj 20 192 ui.bang @size 40 40 @bind cc\[3\]>64;
#X obj 231 192 ui.bang @size 40 40 @bind cc\[3\]&lt;65;
#X text 20 250 @bind key=32;
#X text 231 250 @bind key[ctl]=32;
#X obj 20 279 ui.bang @size 40 40 @bind key=32;
#X obj 231 279 ui.bang @size 40 40 @bind key\[ctl\]=32;
#X text 20 336 @bind key[alt]=32;
#X text 231 336 @bind key[shift]=32;
#X obj 20 365 ui.bang @size 40 40 @bind key\[alt\]=32;
#X obj 231 365 ui.bang @size 40 40 @bind key\[shift\]=32;
#X connect 1 0 3 0;
#X connect 2 0 3 0;
#X connect 3 0 4 0;
