#N canvas 0 0 785 555 12;
#X declare -lib ceammc;
#X obj 614 50 cnv 1 151 23 empty empty empty 17 7 0 10 -245760 -1 0;
#X text 614 50 colorchooser widget;
#X obj 1 1 cnv 5 765 40 empty empty ui.colorpanel 20 20 0 20 -104026
-4096 0;
#X obj 643 13 ui.link @background_color 0.39216 0.39216 0.39216 @title
[ui.colorpanel] @url ui.colorpanel-help.pd;
#X obj 50 118 ui.colorpanel;
#X obj 290 118 ui.colorpanel @size 193 14;
#X obj 290 162 route @rgb;
#X obj 290 190 msg @background_color;
#X obj 290 219 ui.radio;
#X obj 50 248 route @pd;
#X obj 165 248 print COLOR;
#X msg 50 277 color \$1;
#X obj 50 305 tgl 15 0 empty empty empty 17 7 0 10 -262144 -1 -1 0 1;
#X obj 20 337 cnv 1 745 1 empty empty empty 17 7 0 10 -203890 -1 0;
#X obj 20 342 cnv 5 115 25 empty empty mouse_events: 4 12 0 14 -262144
-49933 0;
#X text 110 377 Left-click;
#X text 285 377 choose and output selected color.;
#X text 110 397 Mouse-move;
#X text 285 397 hover color.;
#X text 110 417 Right-click + ⇧;
#X text 285 417 open object help.;
#X text 110 437 Right-click + ⌥;
#X text 285 437 open properties dialog.;
#X text 110 457 Right-click;
#X text 285 457 opens Pd popup menu.;
#X text 61 457 [Edit];
#X text 110 477 Right-click + ⇧;
#X text 285 477 open the object help.;
#X text 61 477 [Edit];
#X text 110 497 Right-click + ⌥;
#X text 285 497 open properties dialog.;
#X text 61 497 [Edit];
#X obj 20 527 cnv 1 745 1 empty empty empty 17 7 0 10 -203890 -1 0;
#X obj 20 532 cnv 5 98 25 empty empty properties: 4 12 0 14 -262144
-49933 0;
#X obj 735 535 ui.link @background_color 0.98039 0.98039 0.98039
@title [?] @url ceammc.props-info.pd;
#X msg 110 567 @hue;
#X text 245 567 Get/Set first hue. Type: float. Default value: 0\.
Range: 0\...1\.;
#X msg 110 609 @index;
#X text 245 609 Get/Set color position in panel. Type: list.;
#X msg 110 639 @lightness;
#X text 245 639 Get/Set first lightness. Type: float. Default value:
1\. Range: 0\...1\.;
#X msg 110 681 @matrix;
#X text 245 681 Get/Set matrix size. Type: list. Default value: 24
13\.;
#X msg 110 711 @receive;
#X text 245 711 Get/Set receive source. Type: symbol. Default value:
(null).;
#X msg 110 741 @reverse;
#X text 245 741 Get/Set matrix reversed. Type: bool. Default value:
0\.;
#X msg 110 771 @saturation;
#X text 245 771 Get/Set saturation. Type: float. Default value: 1\.
Range: 0\...1\.;
#X msg 110 813 @send;
#X text 245 813 Get/Set send destination. Type: symbol. Default value:
(null).;
#X msg 110 855 @background_color;
#X text 245 855 Get/Set element background color (list of red \, green
\, blue values in 0-1 range). Type: list. Default value: 0.93 0.93
0.93 1\.;
#X msg 110 912 @border_color;
#X text 245 912 Get/Set border color (list of red \, green \, blue
values in 0-1 range). Type: list. Default value: 0.6 0.6 0.6 1\.;
#X msg 110 954 @fontname;
#X text 245 954 Get/Set fontname. Type: symbol. Default value: Helvetica.
Allowed values: Courier \, DejaVu \, Helvetica \, Monaco \, Times.;
#X msg 110 996 @fontsize;
#X text 245 996 Get/Set fontsize. Type: int. Default value: 11\. Range:
4\...100\.;
#X msg 110 1038 @fontslant;
#X text 245 1038 Get/Set font slant. Type: symbol. Default value: roman.
Allowed values: roman \, italic.;
#X msg 110 1080 @fontweight;
#X text 245 1080 Get/Set font weight. Type: symbol. Default value:
normal. Allowed values: normal \, bold.;
#X msg 110 1122 @pinned;
#X text 245 1122 Get/Set pin mode. if 1 - put element to the lowest
level. Type: bool. Default value: 0\.;
#X msg 110 1164 @presetname;
#X text 245 1164 Get/Set preset name for using with [ui.preset]. Type:
symbol. Default value: (null).;
#X msg 110 1206 @size;
#X text 245 1206 Get/Set element size (width \, height pair). Type:
list. Default value: 181 105\.;
#X msg 110 1248 @hex?;
#X text 245 1248 (readonly) Get HEX value in format #RRGGBB. Type:
symbol.;
#X msg 110 1278 @hsl?;
#X text 245 1278 (readonly) Get HSL value triplet on 0-1 range. Type:
list.;
#X msg 110 1308 @pd?;
#X text 245 1308 (readonly) Get pd color value. Type: int. Default
value: 0\.;
#X msg 110 1338 @rgb?;
#X text 245 1338 (readonly) Get RGB value triplet on 0-1 range. Type:
list.;
#X obj 20 1378 cnv 1 745 1 empty empty empty 17 7 0 10 -203890 -1 0;
#X obj 20 1383 cnv 5 73 25 empty empty methods: 4 12 0 14 -262144
-49933 0;
#X msg 110 1418 clear;
#X text 245 1418 clears specified preset. Arguments are:;
#X obj 255 1441 cnv 1 30 23 empty empty empty 17 7 0 10 -245695 -1 0;
#X text 255 1441 IDX: preset index. Type: int.;
#X msg 110 1466 interp;
#X text 245 1466 for this object acts as *load* \, no interpolation
performed.;
#X msg 110 1494 load;
#X text 245 1494 loads specified preset. Arguments are:;
#X obj 255 1517 cnv 1 30 23 empty empty empty 17 7 0 10 -245695 -1 0;
#X text 255 1517 IDX: preset index. Type: int.;
#X msg 110 1542 pos;
#X text 245 1542 set UI element position. Arguments are:;
#X obj 255 1565 cnv 1 15 23 empty empty empty 17 7 0 10 -245695 -1 0;
#X text 255 1565 X: top left x-coord. Type: float.;
#X obj 255 1588 cnv 1 15 23 empty empty empty 17 7 0 10 -245695 -1 0;
#X text 255 1588 Y: top right y-coord. Type: float.;
#X msg 110 1613 set;
#X text 245 1613 set widget value with no output. Arguments are:;
#X obj 255 1636 cnv 1 30 23 empty empty empty 17 7 0 10 -245695 -1 0;
#X text 255 1636 COL: column index. Type: int.;
#X obj 255 1659 cnv 1 30 23 empty empty empty 17 7 0 10 -245695 -1 0;
#X text 255 1659 ROW: row index. Type: int.;
#X msg 110 1684 store;
#X text 245 1684 stores specified preset. Arguments are:;
#X obj 255 1707 cnv 1 30 23 empty empty empty 17 7 0 10 -245695 -1 0;
#X text 255 1707 IDX: preset index. Type: int.;
#X obj 20 1742 cnv 1 745 1 empty empty empty 17 7 0 10 -203890 -1 0;
#X obj 20 1747 cnv 5 64 25 empty empty inlets: 4 12 0 14 -262144
-49933 0;
#X text 110 1748 1\.;
#X text 150 1748 *bang*;
#X text 245 1748 outputs current widget value.;
#X obj 20 1778 cnv 1 745 1 empty empty empty 17 7 0 10 -203890 -1 0;
#X obj 20 1783 cnv 5 73 25 empty empty outlets: 4 12 0 14 -262144
-49933 0;
#X text 110 1784 1\.;
#X text 245 1784 output values: @pd COLOR \, @rgb in range [0-1] \,
@hsl in range [0-1] \, @hex.;
#X obj 10 48 ui.link @title index @url ../index-help.pd;
#X text 51 45 ::;
#X obj 68 48 ui.link @title ceammc @url ceammc-help.pd;
#X text 116 45 ::;
#X obj 133 48 ui.link @title ui @url ceammc.ui-help.pd;
#X obj 1 1849 cnv 5 765 48 empty empty empty 17 7 0 10 -203890 -1 0;
#X text 10 1852 library: ceammc v0.9.7;
#X text 597 1864 see also:;
#X obj 672 1867 ui.link @background_color 0.78431 0.78431 0.78431
@title [ui.number] @url ui.number-help.pd;
#N canvas 10 1871 400 290 info 0;
#X obj 1 1 cnv 1 107 287 empty empty empty 17 7 0 10 -183085 -1 0;
#X text 10 10 library:;
#X text 120 10 ceammc;
#X text 10 32 version:;
#X text 120 32 0.9.7;
#X text 10 54 object:;
#X text 120 54 ui.colorpanel;
#X text 10 76 category:;
#X text 120 76 ui;
#X text 10 98 since:;
#X text 120 98 0.1;
#X text 10 120 authors:;
#X text 120 120 Pierre Guillot \, Serge Poltavsky;
#X text 10 142 license:;
#X text 120 142 GPL3 or later;
#X text 10 164 keywords:;
#X text 120 164 ui \, color \, choose;
#X text 10 186 website:;
#X obj 120 189 ui.link @title https://github.com/uliss/pd-ceammc @url
https://github.com/uliss/pd-ceammc;
#X obj 120 208 declare -lib ceammc;
#X obj 120 268 cnv 1 270 1 empty empty empty 17 7 0 10 -203890 -1 0;
#X text 120 268 generated by pddoc;
#X restore 10 1871 pd info;
#X connect 5 0 6 0;
#X connect 6 0 7 0;
#X connect 7 0 8 0;
#X connect 4 0 9 0;
#X connect 9 0 11 0;
#X connect 11 0 12 0;
#X connect 4 0 10 0;