#N canvas 0 0 785 555 12;
#X declare -lib ceammc;
#X obj 621 50 cnv 1 144 23 empty empty empty 17 7 0 10 -245760 -1 0;
#X text 621 50 Display GUI object;
#X obj 1 1 cnv 5 765 40 empty empty ui.display 20 20 0 20 -104026
-4096 0;
#X obj 544 13 ui.link @background_color 0.39216 0.39216 0.39216 @title
[ui.d] @url ui.display-help.pd;
#X obj 601 13 ui.link @background_color 0.39216 0.39216 0.39216 @title
[ui.dt] @url ui.display-help.pd;
#X obj 665 13 ui.link @background_color 0.39216 0.39216 0.39216 @title
[ui.display] @url ui.display-help.pd;
#X obj 210 80 cnv 1 555 35 empty empty empty 17 7 0 10 -257983 -1 0;
#X text 215 80 [ui.dt] is the alias for [ui.display @display_type 1];
#X msg 50 143 list a b c;
#X msg 174 143 1;
#X msg 213 143 symbol X;
#X msg 318 143 any msg;
#X msg 414 143 bang;
#X obj 50 201 ui.display;
#X text 50 244 display message type;
#X msg 50 273 list a b c;
#X msg 174 273 1;
#X msg 213 273 symbol X;
#X msg 318 273 any msg;
#X msg 414 273 bang;
#X obj 50 330 ui.dt;
#X obj 20 380 cnv 1 745 1 empty empty empty 17 7 0 10 -203890 -1 0;
#X obj 20 385 cnv 5 115 25 empty empty mouse_events: 4 12 0 14 -262144
-49933 0;
#X text 110 420 Left-click;
#X text 285 420 copy the message value to the clipboard buffer.;
#X text 110 440 Left-click + ⇧;
#X text 285 440 copy the whole message value with selector to the clipboard
buffer.;
#X text 110 475 Double-click;
#X text 285 475 show/hide message type.;
#X text 110 495 Right-click;
#X text 285 495 open popup menu.;
#X text 110 515 Right-click + ⇧;
#X text 285 515 open object help.;
#X text 110 535 Right-click + ⌥;
#X text 285 535 open properties dialog.;
#X text 110 555 Right-click + ⇧;
#X text 285 555 open object help.;
#X text 61 555 [Edit];
#X text 110 575 Right-click + ⌥;
#X text 285 575 open properties dialog.;
#X text 61 575 [Edit];
#X obj 20 605 cnv 1 745 1 empty empty empty 17 7 0 10 -203890 -1 0;
#X obj 20 610 cnv 5 98 25 empty empty properties: 4 12 0 14 -262144
-49933 0;
#X obj 735 613 ui.link @background_color 0.98039 0.98039 0.98039
@title [?] @url ceammc.props-info.pd;
#X msg 110 645 @auto_size;
#X text 245 645 Get/Set flag if automatically resize contents to feet
incoming message. Type: bool. Default value: 1\.;
#X msg 110 687 @display_events;
#X text 245 687 Get/Set flag for blinking on incoming messages. Type:
bool. Default value: 1\.;
#X msg 110 729 @display_type;
#X text 245 729 Get/Set flag for displaying incoming message type.
Type: bool. Default value: 0\.;
#X msg 110 771 @float_width;
#X text 245 771 Get/Set number of digits after floating point. If -1:
skip trailing zeroes \, if 0 - output as integers. Type: int. Default
value: -1\. Range: -1\...17\.;
#X msg 110 828 @hex;
#X text 245 828 Get/Set output integers in hex format. Type: bool.
Default value: 0\.;
#X msg 110 870 @hex_width;
#X text 245 870 Get/Set hex output format width. Type: int. Default
value: 2\. Range: 0\...16\.;
#X msg 110 912 @receive;
#X text 245 912 Get/Set receive source. Type: symbol. Default value:
(null).;
#X msg 110 942 @active_color;
#X text 245 942 Get/Set element active color (list of red \, green
\, blue values in 0-1 range). Type: list. Default value: 0 0.75 1 1\.;
#X msg 110 984 @background_color;
#X text 245 984 Get/Set element background color (list of red \, green
\, blue values in 0-1 range). Type: list. Default value: 0.93 0.93
0.93 1\.;
#X msg 110 1041 @border_color;
#X text 245 1041 Get/Set border color (list of red \, green \, blue
values in 0-1 range). Type: list. Default value: 0.6 0.6 0.6 1\.;
#X msg 110 1083 @text_color;
#X text 245 1083 Get/Set text color (list of red \, green \, blue values
in 0-1 range). Type: list. Default value: 0 0 0 1\.;
#X msg 110 1125 @fontname;
#X text 245 1125 Get/Set fontname. Type: symbol. Default value: Helvetica.
Allowed values: Courier \, DejaVu \, Helvetica \, Monaco \, Times.;
#X msg 110 1167 @fontsize;
#X text 245 1167 Get/Set fontsize. Type: int. Default value: 11\. Range:
4\...100\.;
#X msg 110 1209 @fontslant;
#X text 245 1209 Get/Set font slant. Type: symbol. Default value: roman.
Allowed values: roman \, italic.;
#X msg 110 1251 @fontweight;
#X text 245 1251 Get/Set font weight. Type: symbol. Default value:
normal. Allowed values: normal \, bold.;
#X msg 110 1293 @pinned;
#X text 245 1293 Get/Set pin mode. if 1 - put element to the lowest
level. Type: bool. Default value: 0\.;
#X msg 110 1335 @size;
#X text 245 1335 Get/Set element size (width \, height pair). Type:
list. Default value: 80 18\.;
#X obj 20 1387 cnv 1 745 1 empty empty empty 17 7 0 10 -203890 -1 0;
#X obj 20 1392 cnv 5 73 25 empty empty methods: 4 12 0 14 -262144
-49933 0;
#X msg 110 1427 pos;
#X text 245 1427 set UI element position. Arguments are:;
#X obj 255 1450 cnv 1 15 23 empty empty empty 17 7 0 10 -245695 -1 0;
#X text 255 1450 X: top left x-coord. Type: float.;
#X obj 255 1473 cnv 1 15 23 empty empty empty 17 7 0 10 -245695 -1 0;
#X text 255 1473 Y: top right y-coord. Type: float.;
#X obj 20 1508 cnv 1 745 1 empty empty empty 17 7 0 10 -203890 -1 0;
#X obj 20 1513 cnv 5 64 25 empty empty inlets: 4 12 0 14 -262144
-49933 0;
#X text 110 1514 1\.;
#X text 245 1514 accepts any messages and displays it.;
#X obj 10 48 ui.link @title index @url ../index-help.pd;
#X text 51 45 ::;
#X obj 68 48 ui.link @title ceammc @url ceammc-help.pd;
#X text 116 45 ::;
#X obj 133 48 ui.link @title ui @url ceammc.ui-help.pd;
#X obj 1 1564 cnv 5 765 48 empty empty empty 17 7 0 10 -203890 -1 0;
#X text 10 1567 library: ceammc v0.9.7;
#X text 643 1579 see also:;
#X obj 718 1579 msg;
#N canvas 10 1586 400 290 info 0;
#X obj 1 1 cnv 1 107 287 empty empty empty 17 7 0 10 -183085 -1 0;
#X text 10 10 library:;
#X text 120 10 ceammc;
#X text 10 32 version:;
#X text 120 32 0.9.7;
#X text 10 54 object:;
#X text 120 54 ui.display;
#X text 10 76 category:;
#X text 120 76 ui;
#X text 10 98 since:;
#X text 120 98 0.1;
#X text 10 120 authors:;
#X text 120 120 Alex Nadzharov \, Serge Poltavsky;
#X text 10 142 license:;
#X text 120 142 GPL3 or later;
#X text 10 164 keywords:;
#X text 120 164 display;
#X text 10 186 website:;
#X obj 120 189 ui.link @title https://github.com/uliss/pd-ceammc @url
https://github.com/uliss/pd-ceammc;
#X obj 120 208 declare -lib ceammc;
#X obj 120 268 cnv 1 270 1 empty empty empty 17 7 0 10 -203890 -1 0;
#X text 120 268 generated by pddoc;
#X restore 10 1586 pd info;
#X connect 8 0 13 0;
#X connect 9 0 13 0;
#X connect 10 0 13 0;
#X connect 11 0 13 0;
#X connect 12 0 13 0;
#X connect 15 0 20 0;
#X connect 16 0 20 0;
#X connect 17 0 20 0;
#X connect 18 0 20 0;
#X connect 19 0 20 0;