#N canvas 0 0 785 555 12;
#X declare -lib ceammc;
#X obj 591 50 cnv 1 174 23 empty empty empty 17 7 0 10 -245760 -1 0;
#X text 591 50 envelope editor widget;
#X obj 1 1 cnv 5 765 40 empty empty ui.env 20 20 0 20 -104026 -4096 0;
#X obj 694 13 ui.link @background_color 0.39216 0.39216 0.39216 @title
[ui.env] @url ui.env-help.pd;
#X obj 210 80 cnv 1 555 35 empty empty empty 17 7 0 10 -257983 -1 0;
#X text 215 80 Editor of sound envelope function;
#X msg 50 143 ar 10 450 \, bang;
#X obj 50 172 envelope;
#X msg 155 172 adsr 10 20 15 80;
#X msg 338 172 eadsr 180 -2 20 4 30 100 -8;
#X msg 174 201 asr 300 400;
#X msg 357 201 easr 200 2 30 7;
#X msg 194 230 ar 10 80;
#X msg 376 230 ear 10 -4 70 -6;
#X obj 50 287 ui.env @size 240 60;
#X text 405 287 Cmd+Click to play envelope;
#X obj 50 359 env->vline @sync 1;
#X obj 50 388 vline~;
#X obj 146 388 osc~ 1000;
#X obj 50 417 *~;
#X obj 50 446 ui.gain~ @size 120 16;
#X obj 280 446 ui.dsp~;
#X obj 50 474 dac~;
#X obj 20 524 cnv 1 745 1 empty empty empty 17 7 0 10 -203890 -1 0;
#X obj 20 529 cnv 5 115 25 empty empty mouse_events: 4 12 0 14 -262144
-49933 0;
#X text 110 564 Left-click;
#X text 285 564 on segment: toggle segment selection.;
#X text 110 584 Left-click + ⌥;
#X text 285 584 remove node under cursor.;
#X text 110 604 Left-click + ⇧;
#X text 285 604 create new node under cursor.;
#X text 110 624 Left-click + ⌘;
#X text 285 624 output envelope on mouse DOWN.;
#X text 110 644 Left-click;
#X text 285 644 output envelope on mouse UP if @output_mode = mouse_up.;
#X text 110 664 Mouse-move;
#X text 285 664 show info on hover envelope points.;
#X text 110 684 Mouse-drag;
#X text 285 684 move node under the cursor. Note: node can have fixed
Y coordinate \, output envelope if @output_mode = drag.;
#X text 110 719 Right-click;
#X text 285 719 on segment: segment type context menu. on selected
node: node context menu. if no selection: opens standard envelope menu.;
#X text 110 754 Right-click + ⇧;
#X text 285 754 open object help.;
#X text 110 774 Right-click + ⌥;
#X text 285 774 open properties dialog.;
#X text 110 794 Mouse-wheel;
#X text 285 794 on selected segment: change curve of exp or sigmoid
curve. on selected node: move node up/down.;
#X text 110 829 Right-click + ⇧;
#X text 285 829 open object help.;
#X text 61 829 [Edit];
#X text 110 849 Right-click + ⌥;
#X text 285 849 open properties dialog.;
#X text 61 849 [Edit];
#X obj 20 879 cnv 1 745 1 empty empty empty 17 7 0 10 -203890 -1 0;
#X obj 20 884 cnv 5 98 25 empty empty properties: 4 12 0 14 -262144
-49933 0;
#X obj 735 887 ui.link @background_color 0.98039 0.98039 0.98039
@title [?] @url ceammc.props-info.pd;
#X msg 110 919 @length;
#X text 245 919 Get/Set envelope time length. Type: float. Units: 'ms'.
Default value: 400\. Min value: 10\.;
#X msg 110 961 @mouse_events;
#X text 245 961 Get/Set mouse events output mode. If on outputs @mouse_down
\, @mouse_up and @mouse_drag events. Type: bool. Default value: 0\.;
#X msg 110 1018 @norm;
#X text 245 1018 Get/Set normalize input values. Type: bool. Default
value: 1\.;
#X msg 110 1060 @output_mode;
#X text 245 1060 Get/Set output envelope mode. If set to "mouse_up"
- output envelope on mouse up if Ctrl/Cmd key not pressed. If set to
"drag" - output envelope on every change. Note: in any mode you can
output evenlope with Ctrl/Cmd + mouse down. Type: symbol. Default value:
mouse_up. Allowed values: mouse_up \, drag.;
#X msg 110 1163 @receive;
#X text 245 1163 Get/Set receive source. Type: symbol. Default value:
(null).;
#X msg 110 1193 @send;
#X text 245 1193 Get/Set send destination. Type: symbol. Default value:
(null).;
#X msg 110 1235 @active_color;
#X text 245 1235 Get/Set element active color (list of red \, green
\, blue values in 0-1 range). Type: list. Default value: 0 0.75 1 1\.;
#X msg 110 1277 @background_color;
#X text 245 1277 Get/Set element background color (list of red \, green
\, blue values in 0-1 range). Type: list. Default value: 0.93 0.93
0.93 1\.;
#X msg 110 1334 @border_color;
#X text 245 1334 Get/Set border color (list of red \, green \, blue
values in 0-1 range). Type: list. Default value: 0.6 0.6 0.6 1\.;
#X msg 110 1376 @line_color;
#X text 245 1376 Get/Set line color (list of red \, green \, blue values
in 0-1 range). Type: list. Default value: 0.1 0.1 0.1 1\.;
#X msg 110 1418 @fontname;
#X text 245 1418 Get/Set fontname. Type: symbol. Default value: Helvetica.
Allowed values: Courier \, DejaVu \, Helvetica \, Monaco \, Times.;
#X msg 110 1460 @fontsize;
#X text 245 1460 Get/Set fontsize. Type: int. Default value: 11\. Range:
4\...100\.;
#X msg 110 1502 @fontslant;
#X text 245 1502 Get/Set font slant. Type: symbol. Default value: roman.
Allowed values: roman \, italic.;
#X msg 110 1544 @fontweight;
#X text 245 1544 Get/Set font weight. Type: symbol. Default value:
normal. Allowed values: normal \, bold.;
#X msg 110 1586 @pinned;
#X text 245 1586 Get/Set pin mode. if 1 - put element to the lowest
level. Type: bool. Default value: 0\.;
#X msg 110 1628 @presetname;
#X text 245 1628 Get/Set preset name for using with [ui.preset]. Type:
symbol. Default value: (null).;
#X msg 110 1670 @size;
#X text 245 1670 Get/Set element size (width \, height pair). Type:
list. Default value: 200 150\.;
#X obj 20 1722 cnv 1 745 1 empty empty empty 17 7 0 10 -203890 -1 0;
#X obj 20 1727 cnv 5 73 25 empty empty methods: 4 12 0 14 -262144
-49933 0;
#X msg 110 1762 adsr;
#X text 245 1762 creates ADSR envelope with one stop point. Arguments
are:;
#X obj 255 1785 cnv 1 54 23 empty empty empty 17 7 0 10 -245695 -1 0;
#X text 255 1785 ATTACK: attack time. Type: float. Min value: 0\. Units:
'ms'.;
#X obj 255 1808 cnv 1 45 23 empty empty empty 17 7 0 10 -245695 -1 0;
#X text 255 1808 DECAY: decay time. Type: float. Min value: 0\. Units:
'ms'.;
#X obj 255 1831 cnv 1 60 23 empty empty empty 17 7 0 10 -245695 -1 0;
#X text 255 1831 SUSTAIN: sustain level. Type: float. Range: 0\...100\.
Units: '%'.;
#X obj 255 1869 cnv 1 60 23 empty empty empty 17 7 0 10 -245695 -1 0;
#X text 255 1869 RELEASE: release time. Type: float. Min value: 0\.
Units: 'ms'.;
#X msg 110 1909 ar;
#X text 245 1909 creates AR envelope without stop points. Arguments
are:;
#X obj 255 1932 cnv 1 54 23 empty empty empty 17 7 0 10 -245695 -1 0;
#X text 255 1932 ATTACK: attack time. Type: float. Min value: 0\. Units:
'ms'.;
#X obj 255 1955 cnv 1 60 23 empty empty empty 17 7 0 10 -245695 -1 0;
#X text 255 1955 RELEASE: release time. Type: float. Min value: 0\.
Units: 'ms'.;
#X msg 110 1995 asr;
#X text 245 1995 creates ASR envelope with one stop point. Arguments
are:;
#X obj 255 2018 cnv 1 54 23 empty empty empty 17 7 0 10 -245695 -1 0;
#X text 255 2018 ATTACK: attack time. Type: float. Min value: 0\. Units:
'ms'.;
#X obj 255 2041 cnv 1 60 23 empty empty empty 17 7 0 10 -245695 -1 0;
#X text 255 2041 RELEASE: release time. Type: float. Min value: 0\.
Units: 'ms'.;
#X msg 110 2081 at;
#X text 245 2081 output envelope value at specified position to second
outlet. Arguments are:;
#X obj 255 2119 cnv 1 30 23 empty empty empty 17 7 0 10 -245695 -1 0;
#X text 255 2119 VAL: position (in milliseconds if unit arg is ommited
). Type: float.;
#X obj 255 2157 cnv 1 47 23 empty empty empty 17 7 0 10 -245695 -1 0;
#X text 255 2157 [UNIT]: position unit: ms \, % or *(phase). Type:
symbol. Allowed values: ms \, % \, *.;
#X msg 110 2197 clear;
#X text 245 2197 clear specified preset. Arguments are:;
#X obj 255 2220 cnv 1 30 23 empty empty empty 17 7 0 10 -245695 -1 0;
#X text 255 2220 IDX: preset index. Type: int. Min value: 0\.;
#X msg 110 2245 eadsr;
#X text 245 2245 creates exponential ADSR envelope with one stop point.
Arguments are:;
#X obj 255 2283 cnv 1 54 23 empty empty empty 17 7 0 10 -245695 -1 0;
#X text 255 2283 ATTACK: attack time. Type: float. Min value: 0\. Units:
'ms'.;
#X obj 255 2306 cnv 1 99 23 empty empty empty 17 7 0 10 -245695 -1 0;
#X text 255 2306 ATTACK_CURVE: attack segment curve. Type: float.;
#X obj 255 2329 cnv 1 45 23 empty empty empty 17 7 0 10 -245695 -1 0;
#X text 255 2329 DECAY: decay time. Type: float. Min value: 0\. Units:
'ms'.;
#X obj 255 2352 cnv 1 91 23 empty empty empty 17 7 0 10 -245695 -1 0;
#X text 255 2352 DECAY_CURVE: decay segment curve. Type: float.;
#X obj 255 2375 cnv 1 60 23 empty empty empty 17 7 0 10 -245695 -1 0;
#X text 255 2375 SUSTAIN: sustain level. Type: float. Range: 0\...100\.
Units: '%'.;
#X obj 255 2413 cnv 1 60 23 empty empty empty 17 7 0 10 -245695 -1 0;
#X text 255 2413 RELEASE: release time. Type: float. Min value: 0\.
Units: 'ms'.;
#X obj 255 2451 cnv 1 106 23 empty empty empty 17 7 0 10 -245695 -1 0;
#X text 255 2451 RELEASE_CURVE: release segment curve. Type: float.;
#X msg 110 2476 ear;
#X text 245 2476 creates exponential AR envelope without stop points.
Arguments are:;
#X obj 255 2514 cnv 1 54 23 empty empty empty 17 7 0 10 -245695 -1 0;
#X text 255 2514 ATTACK: attack time. Type: float. Units: 'ms'.;
#X obj 255 2537 cnv 1 99 23 empty empty empty 17 7 0 10 -245695 -1 0;
#X text 255 2537 ATTACK_CURVE: attack segment curve. Type: float.;
#X obj 255 2560 cnv 1 60 23 empty empty empty 17 7 0 10 -245695 -1 0;
#X text 255 2560 RELEASE: release time. Type: float. Units: 'ms'.;
#X obj 255 2583 cnv 1 106 23 empty empty empty 17 7 0 10 -245695 -1 0;
#X text 255 2583 RELEASE_CURVE: release segment curve. Type: float.;
#X msg 110 2608 easr;
#X text 245 2608 creates exponential AR envelope with one stop point.
Arguments are:;
#X obj 255 2646 cnv 1 54 23 empty empty empty 17 7 0 10 -245695 -1 0;
#X text 255 2646 ATTACK: attack time. Type: float. Min value: 0\. Units:
'ms'.;
#X obj 255 2669 cnv 1 99 23 empty empty empty 17 7 0 10 -245695 -1 0;
#X text 255 2669 ATTACK_CURVE: attack segment curve. Type: float.;
#X obj 255 2692 cnv 1 60 23 empty empty empty 17 7 0 10 -245695 -1 0;
#X text 255 2692 RELEASE: release time. Type: float. Min value: 0\.
Units: 'ms'.;
#X obj 255 2730 cnv 1 106 23 empty empty empty 17 7 0 10 -245695 -1 0;
#X text 255 2730 RELEASE_CURVE: release segment curve. Type: float.;
#X msg 110 2755 exp;
#X text 245 2755 creates exponential-segmented envelope with arbitrary
number of segments. Arguments are:;
#X obj 255 2793 cnv 1 37 23 empty empty empty 17 7 0 10 -245695 -1 0;
#X text 255 2793 VAL0: begin value. Type: float.;
#X obj 255 2816 cnv 1 36 23 empty empty empty 17 7 0 10 -245695 -1 0;
#X text 255 2816 LEN0: line length. Type: float. Min value: 1\. Units:
'ms'.;
#X obj 255 2839 cnv 1 52 23 empty empty empty 17 7 0 10 -245695 -1 0;
#X text 255 2839 CURVE0: segment curve. Type: float.;
#X obj 255 2862 cnv 1 37 23 empty empty empty 17 7 0 10 -245695 -1 0;
#X text 255 2862 VAL1: value. Type: float.;
#X obj 255 2885 cnv 1 47 23 empty empty empty 17 7 0 10 -245695 -1 0;
#X text 255 2885 [LEN1]: segment length. Type: float.;
#X obj 255 2908 cnv 1 63 23 empty empty empty 17 7 0 10 -245695 -1 0;
#X text 255 2908 [CURVE1]: segment curve. Type: float.;
#X obj 255 2931 cnv 1 47 23 empty empty empty 17 7 0 10 -245695 -1 0;
#X text 255 2931 [VAL2]: value. Type: float.;
#X msg 110 2956 interp;
#X text 245 2956 for this object acts as *load* \, no interpolation
performed.;
#X msg 110 2984 line;
#X text 245 2984 creates line-segmented envelope with arbitrary number
of segments. Arguments are:;
#X obj 255 3022 cnv 1 37 23 empty empty empty 17 7 0 10 -245695 -1 0;
#X text 255 3022 VAL0: begin value. Type: float.;
#X obj 255 3045 cnv 1 36 23 empty empty empty 17 7 0 10 -245695 -1 0;
#X text 255 3045 LEN0: line length. Type: float. Min value: 1\. Units:
'ms'.;
#X obj 255 3068 cnv 1 37 23 empty empty empty 17 7 0 10 -245695 -1 0;
#X text 255 3068 VAL1: value. Type: float.;
#X obj 255 3091 cnv 1 47 23 empty empty empty 17 7 0 10 -245695 -1 0;
#X text 255 3091 [LEN1]: segment length. Type: float.;
#X obj 255 3114 cnv 1 47 23 empty empty empty 17 7 0 10 -245695 -1 0;
#X text 255 3114 [VAL2]: value. Type: float.;
#X msg 110 3139 load;
#X text 245 3139 loads specified preset. Arguments are:;
#X obj 255 3162 cnv 1 30 23 empty empty empty 17 7 0 10 -245695 -1 0;
#X text 255 3162 IDX: preset index. Type: int.;
#X msg 110 3187 pos;
#X text 245 3187 set UI element position. Arguments are:;
#X obj 255 3210 cnv 1 15 23 empty empty empty 17 7 0 10 -245695 -1 0;
#X text 255 3210 X: top left x-coord. Type: float.;
#X obj 255 3233 cnv 1 15 23 empty empty empty 17 7 0 10 -245695 -1 0;
#X text 255 3233 Y: top right y-coord. Type: float.;
#X msg 110 3258 sigmoid;
#X text 245 3258 creates sigmoid-segmented envelope with arbitrary
number of segments. Arguments are:;
#X obj 255 3296 cnv 1 37 23 empty empty empty 17 7 0 10 -245695 -1 0;
#X text 255 3296 VAL0: begin value. Type: float.;
#X obj 255 3319 cnv 1 36 23 empty empty empty 17 7 0 10 -245695 -1 0;
#X text 255 3319 LEN0: line length. Type: float. Min value: 1\. Units:
'ms'.;
#X obj 255 3342 cnv 1 52 23 empty empty empty 17 7 0 10 -245695 -1 0;
#X text 255 3342 CURVE0: segment curve. Type: float.;
#X obj 255 3365 cnv 1 37 23 empty empty empty 17 7 0 10 -245695 -1 0;
#X text 255 3365 VAL1: value. Type: float.;
#X obj 255 3388 cnv 1 47 23 empty empty empty 17 7 0 10 -245695 -1 0;
#X text 255 3388 [LEN1]: segment length. Type: float.;
#X obj 255 3411 cnv 1 63 23 empty empty empty 17 7 0 10 -245695 -1 0;
#X text 255 3411 [CURVE1]: segment curve. Type: float.;
#X obj 255 3434 cnv 1 47 23 empty empty empty 17 7 0 10 -245695 -1 0;
#X text 255 3434 [VAL2]: value. Type: float.;
#X msg 110 3459 sin2;
#X text 245 3459 creates quadratic sine-segmented envelope with arbitrary
number of segments. Arguments are:;
#X obj 255 3497 cnv 1 37 23 empty empty empty 17 7 0 10 -245695 -1 0;
#X text 255 3497 VAL0: begin value. Type: float.;
#X obj 255 3520 cnv 1 36 23 empty empty empty 17 7 0 10 -245695 -1 0;
#X text 255 3520 LEN0: line length. Type: float. Min value: 1\. Units:
'ms'.;
#X obj 255 3543 cnv 1 37 23 empty empty empty 17 7 0 10 -245695 -1 0;
#X text 255 3543 VAL1: value. Type: float.;
#X obj 255 3566 cnv 1 47 23 empty empty empty 17 7 0 10 -245695 -1 0;
#X text 255 3566 [LEN1]: segment length. Type: float.;
#X obj 255 3589 cnv 1 47 23 empty empty empty 17 7 0 10 -245695 -1 0;
#X text 255 3589 [VAL2]: value. Type: float.;
#X msg 110 3614 step;
#X text 245 3614 creates step-segmented envelope with arbitrary number
of segments. Arguments are:;
#X obj 255 3652 cnv 1 37 23 empty empty empty 17 7 0 10 -245695 -1 0;
#X text 255 3652 VAL0: begin value. Type: float.;
#X obj 255 3675 cnv 1 36 23 empty empty empty 17 7 0 10 -245695 -1 0;
#X text 255 3675 LEN0: step length. Type: float. Min value: 1\. Units:
'ms'.;
#X obj 255 3698 cnv 1 37 23 empty empty empty 17 7 0 10 -245695 -1 0;
#X text 255 3698 VAL1: value. Type: float.;
#X obj 255 3721 cnv 1 47 23 empty empty empty 17 7 0 10 -245695 -1 0;
#X text 255 3721 [LEN1]: segment length. Type: float.;
#X obj 255 3744 cnv 1 47 23 empty empty empty 17 7 0 10 -245695 -1 0;
#X text 255 3744 [VAL2]: value. Type: float.;
#X msg 110 3769 store;
#X text 245 3769 stores specified preset. Arguments are:;
#X obj 255 3792 cnv 1 30 23 empty empty empty 17 7 0 10 -245695 -1 0;
#X text 255 3792 IDX: preset index. Type: int.;
#X obj 20 3827 cnv 1 745 1 empty empty empty 17 7 0 10 -203890 -1 0;
#X obj 20 3832 cnv 5 64 25 empty empty inlets: 4 12 0 14 -262144
-49933 0;
#X text 110 3833 1\.;
#X text 150 3833 *data*;
#X text 245 3833 set new envelope and output it.;
#X text 150 3853 *bang*;
#X text 245 3853 output current envelope.;
#X obj 20 3883 cnv 1 745 1 empty empty empty 17 7 0 10 -203890 -1 0;
#X obj 20 3888 cnv 5 73 25 empty empty outlets: 4 12 0 14 -262144
-49933 0;
#X text 110 3889 1\.;
#X text 245 3889 envelope.;
#X text 110 3909 2\.;
#X text 245 3909 float: envelope value at time moment.;
#X obj 10 48 ui.link @title index @url ../index-help.pd;
#X text 51 45 ::;
#X obj 68 48 ui.link @title ceammc @url ceammc-help.pd;
#X text 116 45 ::;
#X obj 133 48 ui.link @title ui @url ceammc.ui-help.pd;
#X obj 1 3959 cnv 5 765 48 empty empty empty 17 7 0 10 -203890 -1 0;
#X text 10 3962 library: ceammc v0.9.7;
#N canvas 10 3981 400 290 info 0;
#X obj 1 1 cnv 1 107 287 empty empty empty 17 7 0 10 -183085 -1 0;
#X text 10 10 library:;
#X text 120 10 ceammc;
#X text 10 32 version:;
#X text 120 32 0.9.7;
#X text 10 54 object:;
#X text 120 54 ui.env;
#X text 10 76 category:;
#X text 120 76 ui;
#X text 10 98 since:;
#X text 120 98 0.5;
#X text 10 120 authors:;
#X text 120 120 Serge Poltavsky;
#X text 10 142 license:;
#X text 120 142 GPL3 or later;
#X text 10 164 keywords:;
#X text 120 164 ui \, envelope;
#X text 10 186 website:;
#X obj 120 189 ui.link @title https://github.com/uliss/pd-ceammc @url
https://github.com/uliss/pd-ceammc;
#X obj 120 208 declare -lib ceammc;
#X obj 120 268 cnv 1 270 1 empty empty empty 17 7 0 10 -203890 -1 0;
#X text 120 268 generated by pddoc;
#X restore 10 3981 pd info;
#X connect 6 0 7 0;
#X connect 7 0 14 0;
#X connect 8 0 14 0;
#X connect 10 0 14 0;
#X connect 12 0 14 0;
#X connect 9 0 14 0;
#X connect 11 0 14 0;
#X connect 13 0 14 0;
#X connect 14 0 16 0;
#X connect 16 0 17 0;
#X connect 17 0 19 0;
#X connect 18 0 19 1;
#X connect 19 0 20 0;
#X connect 20 0 22 0;
#X connect 20 0 22 1;