#N canvas 0 0 402 414 12;
#X msg 20 48 @fname faust/ks.dsp;
#X msg 20 77 @fname faust/blow.dsp;
#X msg 20 106 @fname faust/xfm.dsp;
#X obj 20 135 ui.faust~ faust/ex0.dsp;
#X obj 20 336 ui.hgain~;
#X obj 192 336 ui.dsp~;
#X obj 20 365 dac~;
#X connect 3 0 4 0;
#X connect 4 0 6 0;
#X connect 4 0 6 1;
#X connect 0 0 3 0;
#X connect 1 0 3 0;
#X connect 2 0 3 0;
