#N canvas 0 0 785 555 12;
#X declare -lib ceammc;
#X obj 460 50 cnv 1 305 23 empty empty empty 17 7 0 10 -245760 -1 0;
#X text 460 50 UI filter object based on biquad filter;
#X obj 1 1 cnv 5 765 40 empty empty ui.filter~ 20 20 0 20 -104026
-4096 0;
#X obj 665 13 ui.link @background_color 0.39216 0.39216 0.39216 @title
[ui.filter~] @url ui.filter~-help.pd;
#X obj 50 118 noise~;
#X obj 136 118 ui.tab lin log rad;
#X obj 338 118 ui.tab lpf hpf bpf bpfq @size 160 15;
#X msg 136 147 @scale \$2;
#X msg 338 147 @type \$2;
#X obj 50 176 ui.filter~;
#X obj 50 291 ui.hgain~;
#X obj 203 291 ui.dsp~;
#X obj 328 291 ui.dt;
#X obj 50 320 dac~;
#X obj 20 370 cnv 1 745 1 empty empty empty 17 7 0 10 -203890 -1 0;
#X obj 20 375 cnv 5 115 25 empty empty mouse_events: 4 10 0 14 -262144
-49933 0;
#X text 110 410 Left-click;
#X text 285 410 jump to coord under mouse pointer.;
#X text 110 430 Right-click;
#X text 285 430 opens popup menu for filter type selection.;
#X text 110 450 Mouse-drag;
#X text 285 450 change frequency and Q/gain value.;
#X text 110 470 Mouse-wheel;
#X text 285 470 only for peakEq filter: change Q-factor.;
#X obj 20 500 cnv 1 745 1 empty empty empty 17 7 0 10 -203890 -1 0;
#X obj 20 505 cnv 5 98 25 empty empty properties: 4 10 0 14 -262144
-49933 0;
#X msg 110 540 @freq;
#X text 245 540 Get/Set filter frequency. Type: float. Default value:
1000\. Range: 0\...20000\.;
#X msg 110 582 @gain;
#X text 245 582 Get/Set gain (for low/highshelf/peak filters). Type:
float. Units: 'db'. Default value: 0\. Range: -24\...24\.;
#X msg 110 624 @mouse_events;
#X text 245 624 Get/Set mouse events output mode. If on outputs @mouse_down
\, @mouse_up and @mouse_drag events. Type: bool. Default value: 0\.;
#X msg 110 681 @q;
#X text 245 681 Get/Set quality factor. Type: float. Default value:
0.7071\. Range: 0.0156\...64\.;
#X msg 110 723 @receive;
#X text 245 723 Get/Set receive source. Type: symbol. Default value:
(null).;
#X msg 110 753 @scale;
#X text 245 753 Get/Set frequency scale. Type: symbol. Default value:
lin. Allowed values: lin \, log \, rad.;
#X msg 110 795 @send;
#X text 245 795 Get/Set send destination. Type: symbol. Default value:
(null).;
#X msg 110 837 @type;
#X text 245 837 Get/Set frequency scale. Type: symbol. Default value:
lpf. Allowed values: lpf \, hpf \, bpf \, bpfq \, lowshelf \, highshelf
\, peak \, notch.;
#X msg 110 894 @background_color;
#X text 245 894 Get/Set element background color (list of red \, green
\, blue values in 0-1 range). Type: list. Default value: 0.93 0.93
0.93 1\.;
#X msg 110 951 @border_color;
#X text 245 951 Get/Set border color (list of red \, green \, blue
values in 0-1 range). Type: list. Default value: 0.6 0.6 0.6 1\.;
#X msg 110 993 @grid_color;
#X text 245 993 Get/Set knob color. Type: list. Default value: 0.6
0.6 0.6 1\.;
#X msg 110 1035 @knob_color;
#X text 245 1035 Get/Set knob color. Type: list. Default value: 0 0.75
1 1\.;
#X msg 110 1065 @label_color;
#X text 245 1065 Get/Set label color in RGB format within 0-1 range
\, for example: 0.2 0.4 0.1\. Type: list. Default value: 0.6 0.6 0.6
1\.;
#X msg 110 1122 @plot_color;
#X text 245 1122 Get/Set knob color. Type: list. Default value: 0 0
0 1\.;
#X msg 110 1152 @label;
#X text 245 1152 Get/Set label text. Type: symbol. Default value: (null).;
#X msg 110 1182 @label_align;
#X text 245 1182 Get/Set label horizontal align. Type: symbol. Default
value: left. Allowed values: left \, center \, right.;
#X msg 110 1224 @label_margins;
#X text 245 1224 Get/Set label offset in pixels. Type: list. Default
value: 0 0\.;
#X msg 110 1266 @label_side;
#X text 245 1266 Get/Set label snap side. Type: symbol. Default value:
top. Allowed values: left \, top \, right \, bottom.;
#X msg 110 1308 @label_valign;
#X text 245 1308 Get/Set label vertical align. Type: symbol. Default
value: top. Allowed values: top \, center \, bottom.;
#X msg 110 1350 @fontname;
#X text 245 1350 Get/Set fontname. Type: symbol. Default value: Helvetica.
Allowed values: Courier \, DejaVu \, Helvetica \, Monaco \, Times.;
#X msg 110 1392 @fontsize;
#X text 245 1392 Get/Set fontsize. Type: int. Default value: 11\. Range:
4\...100\.;
#X msg 110 1434 @fontslant;
#X text 245 1434 Get/Set font slant. Type: symbol. Default value: roman.
Allowed values: roman \, italic.;
#X msg 110 1476 @fontweight;
#X text 245 1476 Get/Set font weight. Type: symbol. Default value:
normal. Allowed values: normal \, bold.;
#X msg 110 1518 @pinned;
#X text 245 1518 Get/Set pin mode. if 1 - put element to the lowest
level. Type: bool. Default value: 0\.;
#X msg 110 1560 @presetname;
#X text 245 1560 Get/Set preset name for using with [ui.preset]. Type:
symbol. Default value: (null).;
#X msg 110 1602 @size;
#X text 245 1602 Get/Set element size (width \, height pair). Type:
list. Default value: 300 100\.;
#X obj 20 1654 cnv 1 745 1 empty empty empty 17 7 0 10 -203890 -1 0;
#X obj 20 1659 cnv 5 73 25 empty empty methods: 4 10 0 14 -262144
-49933 0;
#X msg 110 1694 biquad;
#X text 245 1694 set biquad coefficients (but not changes current filter
properties). Arguments are:;
#X obj 255 1732 cnv 1 113 23 empty empty empty 17 7 0 10 -245695 -1 0;
#X text 255 1732 b0 b1 b2 a1 a2: coefficients. Type: list.;
#X msg 110 1757 clear;
#X text 245 1757 clears specified preset. Arguments are:;
#X obj 255 1780 cnv 1 30 23 empty empty empty 17 7 0 10 -245695 -1 0;
#X text 255 1780 IDX: preset index. Type: int.;
#X msg 110 1805 interp;
#X text 245 1805 for this object acts as *load* \, no interpolation
performed.;
#X msg 110 1833 load;
#X text 245 1833 loads specified preset. Arguments are:;
#X obj 255 1856 cnv 1 30 23 empty empty empty 17 7 0 10 -245695 -1 0;
#X text 255 1856 IDX: preset index. Type: int.;
#X msg 110 1881 pos;
#X text 245 1881 set UI element position. Arguments are:;
#X obj 255 1904 cnv 1 15 23 empty empty empty 17 7 0 10 -245695 -1 0;
#X text 255 1904 X: top left x-coord. Type: float.;
#X obj 255 1927 cnv 1 15 23 empty empty empty 17 7 0 10 -245695 -1 0;
#X text 255 1927 Y: top right y-coord. Type: float.;
#X msg 110 1952 store;
#X text 245 1952 stores specified preset. Arguments are:;
#X obj 255 1975 cnv 1 30 23 empty empty empty 17 7 0 10 -245695 -1 0;
#X text 255 1975 IDX: preset index. Type: int.;
#X msg 110 2000 dump;
#X text 245 2000 dumps all object info to Pd console window.;
#X obj 20 2038 cnv 1 745 1 empty empty empty 17 7 0 10 -203890 -1 0;
#X obj 20 2043 cnv 5 64 25 empty empty inlets: 4 10 0 14 -262144
-49933 0;
#X text 110 2044 1\.;
#X text 245 2044 input signal.;
#X obj 20 2074 cnv 1 745 1 empty empty empty 17 7 0 10 -203890 -1 0;
#X obj 20 2079 cnv 5 73 25 empty empty outlets: 4 10 0 14 -262144
-49933 0;
#X text 110 2080 1\.;
#X text 245 2080 filtered signal.;
#X text 110 2100 2\.;
#X text 245 2100 list: filter biquad coefficient.;
#X obj 10 48 ui.link @title index @url ../index-help.pd;
#X text 51 45 ::;
#X obj 68 48 ui.link @title ceammc @url ceammc-help.pd;
#X text 116 45 ::;
#X obj 133 48 ui.link @title ui @url ceammc.ui-help.pd;
#X obj 1 2150 cnv 5 765 48 empty empty empty 17 7 0 10 -203890 -1 0;
#X text 10 2153 library: ceammc v0.9.7;
#X text 597 2165 see also:;
#X obj 672 2168 ui.link @background_color 0.78431 0.78431 0.78431
@title [ui.filter] @url ui.filter-help.pd;
#N canvas 10 2172 400 290 info 0;
#X obj 1 1 cnv 1 107 287 empty empty empty 17 7 0 10 -183085 -1 0;
#X text 10 10 library:;
#X text 120 10 ceammc;
#X text 10 32 version:;
#X text 120 32 0.9.7;
#X text 10 54 object:;
#X text 120 54 ui.filter~;
#X text 10 76 category:;
#X text 120 76 ui;
#X text 10 98 since:;
#X text 120 98 0.9.3;
#X text 10 120 authors:;
#X text 120 120 Serge Poltavsky;
#X text 10 142 license:;
#X text 120 142 GPL3 or later;
#X text 10 164 keywords:;
#X text 120 164 ui \, filter \, biquad;
#X text 10 186 website:;
#X obj 120 189 ui.link @title https://github.com/uliss/pd-ceammc @url
https://github.com/uliss/pd-ceammc;
#X obj 120 208 declare -lib ceammc;
#X obj 120 268 cnv 1 270 1 empty empty empty 17 7 0 10 -203890 -1 0;
#X text 120 268 generated by pddoc;
#X restore 10 2172 pd info;
#X connect 5 0 7 0;
#X connect 6 0 8 0;
#X connect 4 0 9 0;
#X connect 7 0 9 0;
#X connect 8 0 9 0;
#X connect 9 0 10 0;
#X connect 9 1 12 0;
#X connect 10 0 13 0;
#X connect 10 0 13 1;