#N canvas 0 0 402 371 12;
#X msg 20 48 @fname faust/ks.dsp;
#X msg 20 77 @fname faust/blow.dsp;
#X obj 20 106 ui.faust~ faust/ex0.dsp;
#X obj 20 293 ui.hgain~;
#X obj 192 293 ui.dsp~;
#X obj 20 322 dac~;
#X connect 2 0 3 0;
#X connect 3 0 5 0;
#X connect 3 0 5 1;
#X connect 0 0 2 0;
#X connect 1 0 2 0;
