#N canvas 0 0 785 555 12;
#X declare -lib ceammc;
#X obj 644 50 cnv 1 121 23 empty empty empty 17 7 0 10 -245760 -1 0;
#X text 644 50 UI gain control;
#X obj 1 1 cnv 5 765 40 empty empty ui.gain~ 20 20 0 20 -104026 -4096
0;
#X obj 494 13 ui.link @background_color 0.39216 0.39216 0.39216 @title
[ui.hgain~] @url ui.gain~-help.pd;
#X obj 587 13 ui.link @background_color 0.39216 0.39216 0.39216 @title
[ui.vgain~] @url ui.gain~-help.pd;
#X obj 680 13 ui.link @background_color 0.39216 0.39216 0.39216 @title
[ui.gain~] @url ui.gain~-help.pd;
#X text 50 118 use [ui.hgain~] to create horizontal control];
#X obj 50 147 ui.hgain~;
#X obj 50 176 osc~ 440;
#X msg 78 205 @db -30;
#X msg 174 205 @amp 0.25;
#X msg 290 205 - 3;
#X msg 347 205 + 3;
#X msg 405 205 ++;
#X msg 453 205 --;
#X msg 98 234 bang;
#X obj 50 262 ui.gain~ @output_value 1;
#X obj 98 291 ui.dsp~;
#X obj 50 392 ~->;
#X obj 50 421 dac~;
#X obj 126 421 ui.display @display_type 1;
#X obj 20 470 cnv 1 745 1 empty empty empty 17 7 0 10 -203890 -1 0;
#X obj 20 475 cnv 5 115 26 empty empty mouse_events: 4 10 0 14 -262144
-49933 0;
#X text 110 510 Left-click;
#X text 285 510 jump to click position if @relative property is off.;
#X text 110 530 Mouse-drag;
#X text 285 530 relative gain change if @relative is on \, otherwise
follows mouse pointer.;
#X text 110 565 Mouse-drag + ⇧;
#X text 285 565 slow relative gain change if @relative is on.;
#X text 110 585 Mouse-wheel;
#X text 285 585 change the knob value.;
#X text 110 605 Mouse-wheel + ⇧;
#X text 285 605 change the knob value slowly.;
#X text 110 625 Right-click;
#X text 285 625 open popup menu.;
#X text 110 645 Right-click + ⇧;
#X text 285 645 open object help.;
#X text 110 665 Right-click + ⌥;
#X text 285 665 open properties dialog.;
#X text 110 685 Double-click + ⇧;
#X text 285 685 toggle MIDI-learn mode (red border displayed).;
#X text 110 705 Mouse-drag + ⌘;
#X text 285 705 relative gain change.;
#X text 61 705 [Edit];
#X text 110 725 Double-click + ⌘;
#X text 285 725 toggle horizontal/vertical orientation.;
#X text 61 725 [Edit];
#X text 110 745 Right-click + ⇧;
#X text 285 745 open object help.;
#X text 61 745 [Edit];
#X text 110 765 Right-click + ⌥;
#X text 285 765 open properties dialog.;
#X text 61 765 [Edit];
#X obj 20 795 cnv 1 745 1 empty empty empty 17 7 0 10 -203890 -1 0;
#X obj 20 800 cnv 5 98 26 empty empty properties: 4 10 0 14 -262144
-49933 0;
#X msg 110 835 @amp;
#X text 245 835 Get/Set gain as amplitude ratio. Type: float. Default
value: 0\.;
#X msg 110 877 @db;
#X text 245 877 Get/Set gain in dbfs scale. Type: float. Units: db.
Default value: -60\.;
#X msg 110 919 @max;
#X text 245 919 Get/Set maximum gain value. Type: int. Units: db. Default
value: 0\. Range: -12\...12\.;
#X msg 110 961 @min;
#X text 245 961 Get/Set minimal gain value. Type: int. Units: db. Default
value: -60\. Range: -90\...-15\.;
#X msg 110 1003 @mouse_events;
#X text 245 1003 Get/Set mouse events output mode. If on outputs @mouse_down
\, @mouse_up and @mouse_drag events. Type: int. Default value: 0\.
Allowed values: 0 \, 1\.;
#X msg 110 1060 @output_value;
#X text 245 1060 Get/Set flag to output @db property after each knob
move. Type: int. Default value: 0\. Allowed values: 0 \, 1\.;
#X msg 110 1102 @receive;
#X text 245 1102 Get/Set receive source. Type: symbol. Default value:
(null).;
#X msg 110 1131 @relative;
#X text 245 1131 Get/Set relative input mode. When set do not jump
to value on click. Type: int. Default value: 1\. Allowed values: 0
\, 1\.;
#X msg 110 1173 @send;
#X text 245 1173 Get/Set send destination. Type: symbol. Default value:
(null).;
#X msg 110 1215 @show_range;
#X text 245 1215 Get/Set if show slider range. Type: int. Default value:
1\. Allowed values: 0 \, 1\.;
#X msg 110 1257 @midi_channel;
#X text 245 1257 Get/Set binded MIDI channel. 0 means listen to all
channels. Type: int. Default value: 0\. Range: 0\...16\.;
#X msg 110 1299 @midi_control;
#X text 245 1299 Get/Set binded MIDI controller number. -1 means not
binded to any controller. Type: int. Default value: -1\. Range: -1\...127\.;
#X msg 110 1356 @midi_pickup;
#X text 245 1356 Get/Set pickup current value. If slider is binded
to value \, first time you should pass over this value to make binding.
It prevents from sudden value change on first control change. Type:
int. Default value: 1\. Allowed values: 0 \, 1\.;
#X msg 110 1428 @background_color;
#X text 245 1428 Get/Set element background color (list of red \, green
\, blue values in 0-1 range). Type: list. Default value: 0.93 0.93
0.93 1\.;
#X msg 110 1485 @border_color;
#X text 245 1485 Get/Set border color (list of red \, green \, blue
values in 0-1 range). Type: list. Default value: 0.6 0.6 0.6 1\.;
#X msg 110 1527 @knob_color;
#X text 245 1527 Get/Set knob color (list of red \, green \, blue values
in 0-1 range). Type: list. Default value: 0 0.75 1 1\.;
#X msg 110 1569 @fontname;
#X text 245 1569 Get/Set fontname. Type: symbol. Default value: Helvetica.;
#X msg 110 1598 @fontsize;
#X text 245 1598 Get/Set fontsize. Type: int. Default value: 11\. Range:
4\...100\.;
#X msg 110 1640 @fontslant;
#X text 245 1640 Get/Set font slant. Type: symbol. Default value: roman.
Allowed values: roman \, italic.;
#X msg 110 1682 @fontweight;
#X text 245 1682 Get/Set font weight. Type: symbol. Default value:
normal. Allowed values: normal \, bold.;
#X msg 110 1724 @pinned;
#X text 245 1724 Get/Set pin mode. if 1 - put element to the lowest
level. Type: bool. Default value: 0\.;
#X msg 110 1766 @presetname;
#X text 245 1766 Get/Set preset name for using with [ui.preset]. Type:
symbol. Default value: (null).;
#X msg 110 1808 @size;
#X text 245 1808 Get/Set element size (width \, height pair). Type:
list. Default value: 15 120\.;
#X obj 20 1860 cnv 1 745 1 empty empty empty 17 7 0 10 -203890 -1 0;
#X obj 20 1865 cnv 5 73 26 empty empty methods: 4 10 0 14 -262144
-49933 0;
#X msg 110 1900 clear;
#X text 245 1900 clears specified preset. Arguments are:;
#X obj 255 1923 cnv 1 29 23 empty empty empty 17 7 0 10 -245695 -1 0;
#X text 255 1923 IDX: preset index. Type: int.;
#X msg 110 1948 interp;
#X text 245 1948 interplolates between presets. Arguments are:;
#X obj 255 1971 cnv 1 29 23 empty empty empty 17 7 0 10 -245695 -1 0;
#X text 255 1971 IDX: preset fraction index. Type: float.;
#X msg 110 1996 load;
#X text 245 1996 loads specified preset. Arguments are:;
#X obj 255 2019 cnv 1 29 23 empty empty empty 17 7 0 10 -245695 -1 0;
#X text 255 2019 IDX: preset index. Type: int.;
#X msg 110 2044 pos;
#X text 245 2044 set UI element position. Arguments are:;
#X obj 255 2067 cnv 1 15 23 empty empty empty 17 7 0 10 -245695 -1 0;
#X text 255 2067 X: top left x-coord. Type: float.;
#X obj 255 2090 cnv 1 15 23 empty empty empty 17 7 0 10 -245695 -1 0;
#X text 255 2090 Y: top right y-coord. Type: float.;
#X msg 110 2115 set N;
#X text 245 2115 set current gain to N db.;
#X msg 110 2142 store;
#X text 245 2142 stores specified preset. Arguments are:;
#X obj 255 2165 cnv 1 29 23 empty empty empty 17 7 0 10 -245695 -1 0;
#X text 255 2165 IDX: preset index. Type: int.;
#X msg 110 2190 + N;
#X text 245 2190 increase current gain by N db.;
#X msg 110 2217 ++;
#X text 245 2217 decrease current gain by 1 db.;
#X msg 110 2244 - N;
#X text 245 2244 decrease current gain by N db.;
#X msg 110 2271 --;
#X text 245 2271 decrease current gain by 1 db.;
#X obj 20 2308 cnv 1 745 1 empty empty empty 17 7 0 10 -203890 -1 0;
#X obj 20 2313 cnv 5 64 26 empty empty inlets: 4 10 0 14 -262144
-49933 0;
#X text 110 2314 1\.;
#X text 245 2314 input signal.;
#X text 150 2334 *bang*;
#X text 245 2334 output current gain @db property.;
#X obj 20 2364 cnv 1 745 1 empty empty empty 17 7 0 10 -203890 -1 0;
#X obj 20 2369 cnv 5 73 26 empty empty outlets: 4 10 0 14 -262144
-49933 0;
#X text 110 2370 1\.;
#X text 245 2370 output signal.;
#X obj 10 48 ui.link @title index @url ../index-help.pd;
#X text 51 45 ::;
#X obj 67 48 ui.link @title ceammc @url ceammc-help.pd;
#X text 115 45 ::;
#X obj 131 48 ui.link @title ui @url ceammc.ui-help.pd;
#X obj 1 2420 cnv 5 765 48 empty empty empty 17 7 0 10 -203890 -1 0;
#X text 10 2423 library: ceammc v0.9.5;
#N canvas 10 2442 400 290 info 0;
#X obj 1 1 cnv 1 107 287 empty empty empty 17 7 0 10 -183085 -1 0;
#X text 10 10 library:;
#X text 120 10 ceammc;
#X text 10 32 version:;
#X text 120 32 0.9.5;
#X text 10 54 object:;
#X text 120 54 ui.gain~;
#X text 10 76 category:;
#X text 120 76 ui;
#X text 10 98 since:;
#X text 120 98 0.5;
#X text 10 120 authors:;
#X text 120 120 Serge Potlavsky;
#X text 10 142 license:;
#X text 120 142 GPL3 or later;
#X text 10 164 keywords:;
#X text 120 164 ui \, gain;
#X text 10 186 website:;
#X obj 120 189 ui.link @title https://github.com/uliss/pure-data @url
https://github.com/uliss/pure-data;
#X obj 120 208 declare -lib ceammc;
#X obj 120 268 cnv 1 270 1 empty empty empty 17 7 0 10 -203890 -1 0;
#X text 120 268 generated by pddoc;
#X restore 10 2442 pd info;
#X connect 8 0 16 0;
#X connect 9 0 16 0;
#X connect 15 0 16 0;
#X connect 10 0 16 0;
#X connect 11 0 16 0;
#X connect 12 0 16 0;
#X connect 13 0 16 0;
#X connect 14 0 16 0;
#X connect 16 0 18 0;
#X connect 18 0 19 0;
#X connect 18 1 20 0;