#N canvas 0 0 785 555 12;
#X declare -lib ceammc;
#X obj 529 50 cnv 1 236 23 empty empty empty 17 7 0 10 -245760 -1 0;
#X text 529 50 black and white bitmap display;
#X obj 1 1 cnv 5 765 40 empty empty ui.lcd 20 20 0 20 -104026 -4096 0;
#X obj 694 13 ui.link @background_color 0.39216 0.39216 0.39216 @title
[ui.lcd] @url ui.lcd-help.pd;
#X symbolatom 50 118 12 0 0 0 - - -;
#X obj 50 147 qrcode;
#X obj 50 176 msg set;
#X msg 155 176 @cols \$1 \, @rows \$1 \, @size 120 120;
#X msg 184 205 invert;
#X msg 270 205 clear;
#X obj 50 234 ui.lcd @size 120 120 @nosave 1;
#X text 50 334;
#X obj 20 366 cnv 1 745 1 empty empty empty 17 7 0 10 -203890 -1 0;
#X obj 20 371 cnv 5 115 25 empty empty mouse_events: 4 12 0 14 -262144
-49933 0;
#X text 110 406 Right-click + ⇧;
#X text 285 406 open object help.;
#X text 110 426 Right-click + ⌥;
#X text 285 426 open properties dialog.;
#X text 110 446 Right-click;
#X text 285 446 opens Pd popup menu.;
#X text 61 446 [Edit];
#X text 110 466 Right-click + ⇧;
#X text 285 466 open the object help.;
#X text 61 466 [Edit];
#X text 110 486 Right-click + ⌥;
#X text 285 486 open properties dialog.;
#X text 61 486 [Edit];
#X obj 20 516 cnv 1 745 1 empty empty empty 17 7 0 10 -203890 -1 0;
#X obj 20 521 cnv 5 98 25 empty empty properties: 4 12 0 14 -262144
-49933 0;
#X obj 735 524 ui.link @background_color 0.98039 0.98039 0.98039
@title [?] @url ceammc.props-info.pd;
#X msg 110 556 @cols;
#X text 245 556 Get/Set number of columns. Type: int. Default value:
8\. Range: 2\...128\.;
#X msg 110 598 @receive;
#X text 245 598 Get/Set receive source. Type: symbol. Default value:
(null).;
#X msg 110 628 @rows;
#X text 245 628 Get/Set number of rows. Type: int. Default value: 8\.
Range: 2\...128\.;
#X msg 110 670 @send;
#X text 245 670 Get/Set send destination. Type: symbol. Default value:
(null).;
#X msg 110 712 @background_color;
#X text 245 712 Get/Set element background color (list of red \, green
\, blue values in 0-1 range). Type: list. Default value: 1 1 1 1\.;
#X msg 110 754 @border_color;
#X text 245 754 Get/Set border color (list of red \, green \, blue
values in 0-1 range). Type: list. Default value: 0.6 0.6 0.6 1\.;
#X msg 110 796 @label_color;
#X text 245 796 Get/Set label color in RGB format within 0-1 range
\, for example: 0.2 0.4 0.1\. Type: list. Default value: 0 0 0 1\.;
#X msg 110 838 @label;
#X text 245 838 Get/Set label text. Type: symbol. Default value: (null).;
#X msg 110 868 @label_align;
#X text 245 868 Get/Set label horizontal align. Type: symbol. Default
value: left. Allowed values: left \, center \, right.;
#X msg 110 910 @label_inner;
#X text 245 910 Get/Set label position (1 - inner \, 0 - outer). Type:
bool. Default value: 0\.;
#X msg 110 952 @label_margins;
#X text 245 952 Get/Set label offset in pixels. Type: list. Default
value: 0 0\.;
#X msg 110 994 @label_side;
#X text 245 994 Get/Set label snap side. Type: symbol. Default value:
top. Allowed values: left \, top \, right \, bottom.;
#X msg 110 1036 @label_valign;
#X text 245 1036 Get/Set label vertical align. Type: symbol. Default
value: top. Allowed values: top \, center \, bottom.;
#X msg 110 1078 @fontname;
#X text 245 1078 Get/Set fontname. Type: symbol. Default value: Helvetica.
Allowed values: Courier \, DejaVu \, Helvetica \, Monaco \, Times.;
#X msg 110 1120 @fontsize;
#X text 245 1120 Get/Set fontsize. Type: int. Default value: 11\. Range:
4\...100\.;
#X msg 110 1162 @fontslant;
#X text 245 1162 Get/Set font slant. Type: symbol. Default value: roman.
Allowed values: roman \, italic.;
#X msg 110 1204 @fontweight;
#X text 245 1204 Get/Set font weight. Type: symbol. Default value:
normal. Allowed values: normal \, bold.;
#X msg 110 1246 @pinned;
#X text 245 1246 Get/Set pin mode. if 1 - put element to the lowest
level. Type: bool. Default value: 0\.;
#X msg 110 1288 @size;
#X text 245 1288 Get/Set element size (width \, height pair). Type:
list. Default value: 64 64\.;
#X msg 110 1330 @pixels?;
#X text 245 1330 (readonly) Get number of pixels. Type: int. Default
value: 64\.;
#X obj 20 1382 cnv 1 745 1 empty empty empty 17 7 0 10 -203890 -1 0;
#X obj 20 1387 cnv 5 73 25 empty empty methods: 4 12 0 14 -262144
-49933 0;
#X msg 110 1422 clear;
#X text 245 1422 clear display.;
#X msg 110 1450 draw down;
#X text 245 1450 moves draw cursor down along y-asis ans draw single
pixel. Arguments are:;
#X obj 255 1488 cnv 1 47 23 empty empty empty 17 7 0 10 -245695 -1 0;
#X text 255 1488 [YOFF]: y-offset. If omitted: 1\. Type: int.;
#X msg 110 1513 draw left;
#X text 245 1513 moves draw cursor left along x-asis ans draw single
pixel. Arguments are:;
#X obj 255 1551 cnv 1 47 23 empty empty empty 17 7 0 10 -245695 -1 0;
#X text 255 1551 [XOFF]: x-offset. If omitted: 1\. Type: int.;
#X msg 110 1576 draw right;
#X text 245 1576 moves cursor right along x-asis ans draw single pixel.
Arguments are:;
#X obj 255 1614 cnv 1 47 23 empty empty empty 17 7 0 10 -245695 -1 0;
#X text 255 1614 [XOFF]: x-offset. If omitted: 1\. Type: int.;
#X msg 110 1639 draw set;
#X text 245 1639 set drawing value. Arguments are:;
#X obj 255 1662 cnv 1 45 23 empty empty empty 17 7 0 10 -245695 -1 0;
#X text 255 1662 VALUE: draw pixel value (1: black \, 0: white). Type:
bool.;
#X msg 110 1687 draw up;
#X text 245 1687 moves draw cursor up along y-asis ans draw single
pixel. Arguments are:;
#X obj 255 1725 cnv 1 47 23 empty empty empty 17 7 0 10 -245695 -1 0;
#X text 255 1725 [YOFF]: y-offset. If omitted: 1\. Type: int.;
#X msg 110 1750 invert;
#X text 245 1750 invert display.;
#X msg 110 1778 pos;
#X text 245 1778 set UI element position. Arguments are:;
#X obj 255 1801 cnv 1 15 23 empty empty empty 17 7 0 10 -245695 -1 0;
#X text 255 1801 X: top left x-coord. Type: float.;
#X obj 255 1824 cnv 1 15 23 empty empty empty 17 7 0 10 -245695 -1 0;
#X text 255 1824 Y: top right y-coord. Type: float.;
#X msg 110 1849 set;
#X text 245 1849 set display content. Arguments are:;
#X obj 255 1872 cnv 1 52 23 empty empty empty 17 7 0 10 -245695 -1 0;
#X text 255 1872 PIXELS: pixel values. Type: list.;
#X msg 110 1897 set col;
#X text 245 1897 set column content. Arguments are:;
#X obj 255 1920 cnv 1 15 23 empty empty empty 17 7 0 10 -245695 -1 0;
#X text 255 1920 N: column index. Type: int.;
#X obj 255 1943 cnv 1 52 23 empty empty empty 17 7 0 10 -245695 -1 0;
#X text 255 1943 PIXELS: column pixel values. Type: list.;
#X msg 110 1968 set cursor;
#X text 245 1968 set draw cursor point. Arguments are:;
#X obj 255 1991 cnv 1 15 23 empty empty empty 17 7 0 10 -245695 -1 0;
#X text 255 1991 X: X-position (from left). Type: int.;
#X obj 255 2014 cnv 1 15 23 empty empty empty 17 7 0 10 -245695 -1 0;
#X text 255 2014 Y: Y-position (from top). Type: int.;
#X msg 110 2039 set pixel;
#X text 245 2039 set single pixel. Arguments are:;
#X obj 255 2062 cnv 1 15 23 empty empty empty 17 7 0 10 -245695 -1 0;
#X text 255 2062 X: X-position (from left). Type: int.;
#X obj 255 2085 cnv 1 15 23 empty empty empty 17 7 0 10 -245695 -1 0;
#X text 255 2085 Y: Y-position (from top). Type: int.;
#X obj 255 2108 cnv 1 45 23 empty empty empty 17 7 0 10 -245695 -1 0;
#X text 255 2108 VALUE: pixel value. Type: bool.;
#X msg 110 2133 set row;
#X text 245 2133 set row content. Arguments are:;
#X obj 255 2156 cnv 1 15 23 empty empty empty 17 7 0 10 -245695 -1 0;
#X text 255 2156 N: row index. Type: int.;
#X obj 255 2179 cnv 1 52 23 empty empty empty 17 7 0 10 -245695 -1 0;
#X text 255 2179 PIXELS: row pixel values. Type: list.;
#X msg 110 2204 dump;
#X text 245 2204 dumps all object info to Pd console window.;
#X obj 20 2242 cnv 1 745 1 empty empty empty 17 7 0 10 -203890 -1 0;
#X obj 20 2247 cnv 5 64 25 empty empty inlets: 4 12 0 14 -262144
-49933 0;
#X text 110 2248 1\.;
#X text 245 2248 command input.;
#X obj 20 2278 cnv 1 745 1 empty empty empty 17 7 0 10 -203890 -1 0;
#X obj 20 2283 cnv 5 73 25 empty empty outlets: 4 12 0 14 -262144
-49933 0;
#X text 110 2284 1\.;
#X text 245 2284 ...;
#X obj 10 48 ui.link @title index @url ../index-help.pd;
#X text 51 45 ::;
#X obj 68 48 ui.link @title ceammc @url ceammc-help.pd;
#X text 116 45 ::;
#X obj 133 48 ui.link @title ui @url ceammc.ui-help.pd;
#X obj 1 2334 cnv 5 765 48 empty empty empty 17 7 0 10 -203890 -1 0;
#X text 10 2337 library: ceammc v0.9.7;
#N canvas 10 2356 400 290 info 0;
#X obj 1 1 cnv 1 107 287 empty empty empty 17 7 0 10 -183085 -1 0;
#X text 10 10 library:;
#X text 120 10 ceammc;
#X text 10 32 version:;
#X text 120 32 0.9.7;
#X text 10 54 object:;
#X text 120 54 ui.lcd;
#X text 10 76 category:;
#X text 120 76 ui;
#X text 10 98 since:;
#X text 120 98 0.9.7;
#X text 10 120 authors:;
#X text 120 120 Serge Poltavsky;
#X text 10 142 license:;
#X text 120 142 GPL3 or later;
#X text 10 164 keywords:;
#X text 120 164 ui \, display;
#X text 10 186 website:;
#X obj 120 189 ui.link @title https://github.com/uliss/pd-ceammc @url
https://github.com/uliss/pd-ceammc;
#X obj 120 208 declare -lib ceammc;
#X obj 120 268 cnv 1 270 1 empty empty empty 17 7 0 10 -203890 -1 0;
#X text 120 268 generated by pddoc;
#X restore 10 2356 pd info;
#X connect 4 0 5 0;
#X connect 5 0 6 0;
#X connect 5 1 7 0;
#X connect 6 0 10 0;
#X connect 7 0 10 0;
#X connect 8 0 10 0;
#X connect 9 0 10 0;