#N canvas 0 0 785 555 12;
#X declare -lib ceammc;
#X obj 637 50 cnv 1 128 23 empty empty empty 17 7 0 10 -245760 -1 0;
#X text 637 50 Hyperlink widget;
#X obj 1 1 cnv 5 765 40 empty empty ui.link 20 20 0 20 -104026 -4096
0;
#X obj 686 13 ui.link @background_color 0.39216 0.39216 0.39216 @title
[ui.link] @url ui.link-help.pd;
#X obj 210 80 cnv 1 555 80 empty empty empty 17 7 0 10 -257983 -1 0;
#X text 215 80 Link allows to open external URLs \, not only Pd patches
but all kind of URL supported by your OS. If relative file path is
given \, it searched in current directory \, then Pd doc directory
and Pd external directories;
#X text 50 188 [ui.link @url vu-help.pd @title VU-help];
#X obj 50 217 ui.link @title VU-help @url vu-help.pd;
#X text 50 246 [ui.link @url http://puredata.info @title puredata.info];
#X obj 50 275 ui.link @title puredata.info @url http://puredata.info;
#X obj 20 332 cnv 1 745 1 empty empty empty 17 7 0 10 -203890 -1 0;
#X obj 20 337 cnv 5 115 25 empty empty mouse_events: 4 12 0 14 -262144
-49933 0;
#X text 110 372 Left-click;
#X text 285 372 open link target.;
#X text 110 392 Right-click + ⌥;
#X text 285 392 open properties dialog.;
#X text 110 412 Right-click + ⇧;
#X text 285 412 open object help.;
#X text 110 432 Right-click + ⌥;
#X text 285 432 open properties dialog.;
#X text 61 432 [Edit];
#X text 110 452 Right-click + ⇧;
#X text 285 452 open the object help.;
#X text 61 452 [Edit];
#X text 110 472 Right-click;
#X text 285 472 opens Pd popup menu.;
#X text 61 472 [Edit];
#X obj 20 502 cnv 1 745 1 empty empty empty 17 7 0 10 -203890 -1 0;
#X obj 20 507 cnv 5 90 25 empty empty arguments: 4 12 0 14 -262144
-49933 0;
#X obj 735 510 ui.link @background_color 0.98039 0.98039 0.98039
@title [?] @url ceammc.args-info.pd;
#X text 110 542 1\.;
#X text 150 542 symbol;
#X obj 246 543 cnv 1 32 20 empty empty empty 17 7 0 10 -245695 -1 0;
#X text 245 542 URL: @url property value. Type: symbol.;
#X text 110 562 2\.;
#X text 150 562 symbol;
#X obj 246 563 cnv 1 48 20 empty empty empty 17 7 0 10 -245695 -1 0;
#X text 245 562 TITLE: @title property value. Type: symbol.;
#X obj 20 592 cnv 1 745 1 empty empty empty 17 7 0 10 -203890 -1 0;
#X obj 20 597 cnv 5 98 25 empty empty properties: 4 12 0 14 -262144
-49933 0;
#X obj 735 600 ui.link @background_color 0.98039 0.98039 0.98039
@title [?] @url ceammc.props-info.pd;
#X msg 110 632 @title;
#X text 245 632 Get/Set link title. Type: symbol. Default value: <no
title>.;
#X msg 110 662 @url;
#X text 245 662 Get/Set destination url. Type: symbol. Default value:
<no url>.;
#X msg 110 704 @hover_color;
#X text 245 704 Get/Set color when mouse pointer is over element (list
of red \, green \, blue values in 0-1 range). Type: list. Default value:
1 0 0.5 1\.;
#X msg 110 761 @link_color;
#X text 245 761 Get/Set link color (list of red \, green \, blue values
in 0-1 range). Type: list. Default value: 0 0.625 0.75 1\.;
#X msg 110 803 @fontname;
#X text 245 803 Get/Set fontname. Type: symbol. Default value: Helvetica.
Allowed values: Courier \, DejaVu \, Helvetica \, Monaco \, Times.;
#X msg 110 845 @fontsize;
#X text 245 845 Get/Set fontsize. Type: int. Default value: 11\. Range:
4\...100\.;
#X msg 110 887 @fontslant;
#X text 245 887 Get/Set font slant. Type: symbol. Default value: roman.
Allowed values: roman \, italic.;
#X msg 110 929 @fontweight;
#X text 245 929 Get/Set font weight. Type: symbol. Default value: normal.
Allowed values: normal \, bold.;
#X msg 110 971 @pinned;
#X text 245 971 Get/Set pin mode. if 1 - put element to the lowest
level. Type: bool. Default value: 0\.;
#X obj 20 1023 cnv 1 745 1 empty empty empty 17 7 0 10 -203890 -1 0;
#X obj 20 1028 cnv 5 73 25 empty empty methods: 4 12 0 14 -262144
-49933 0;
#X msg 110 1063 pos;
#X text 245 1063 set UI element position. Arguments are:;
#X obj 255 1086 cnv 1 15 23 empty empty empty 17 7 0 10 -245695 -1 0;
#X text 255 1086 X: top left x-coord. Type: float.;
#X obj 255 1109 cnv 1 15 23 empty empty empty 17 7 0 10 -245695 -1 0;
#X text 255 1109 Y: top right y-coord. Type: float.;
#X obj 10 48 ui.link @title index @url ../index-help.pd;
#X text 51 45 ::;
#X obj 68 48 ui.link @title ceammc @url ceammc-help.pd;
#X text 116 45 ::;
#X obj 133 48 ui.link @title ui @url ceammc.ui-help.pd;
#X obj 1 1164 cnv 5 765 48 empty empty empty 17 7 0 10 -203890 -1 0;
#X text 10 1167 library: ceammc v0.9.7;
#N canvas 10 1186 400 290 info 0;
#X obj 1 1 cnv 1 107 287 empty empty empty 17 7 0 10 -183085 -1 0;
#X text 10 10 library:;
#X text 120 10 ceammc;
#X text 10 32 version:;
#X text 120 32 0.9.7;
#X text 10 54 object:;
#X text 120 54 ui.link;
#X text 10 76 category:;
#X text 120 76 ui;
#X text 10 98 since:;
#X text 120 98 0.1;
#X text 10 120 authors:;
#X text 120 120 Serge Poltavsky;
#X text 10 142 license:;
#X text 120 142 GPL3 or later;
#X text 10 164 keywords:;
#X text 120 164 ui \, link;
#X text 10 186 website:;
#X obj 120 189 ui.link @title https://github.com/uliss/pd-ceammc @url
https://github.com/uliss/pd-ceammc;
#X obj 120 208 declare -lib ceammc;
#X obj 120 268 cnv 1 270 1 empty empty empty 17 7 0 10 -203890 -1 0;
#X text 120 268 generated by pddoc;
#X restore 10 1186 pd info;