#N canvas 0 0 785 555 12;
#X declare -lib ceammc;
#X obj 530 50 cnv 1 235 23 empty empty empty 17 7 0 10 -245760 -1 0;
#X text 530 50 incoming MIDI message viewport;
#X obj 1 1 cnv 5 765 40 empty empty ui.midi 20 20 0 20 -104026 -4096
0;
#X obj 687 13 ui.link @background_color 0.39216 0.39216 0.39216 @title
[ui.midi] @url ui.midi-help.pd;
#X obj 50 118 ui.midi;
#X obj 50 147 ui.dt;
#X obj 20 196 cnv 1 745 1 empty empty empty 17 7 0 10 -203890 -1 0;
#X obj 20 201 cnv 5 115 26 empty empty mouse_events: 4 10 0 14 -262144
-49933 0;
#X text 110 236 Right-click;
#X text 285 236 open popup menu with MIDI settings item.;
#X text 110 256 Right-click + ⇧;
#X text 285 256 open object help.;
#X text 110 276 Left-click + ⌥;
#X text 285 276 open properties dialog.;
#X text 110 296 Right-click + ⇧;
#X text 285 296 open object help.;
#X text 61 296 [Edit];
#X text 110 316 Right-click + ⌥;
#X text 285 316 open properties dialog.;
#X text 61 316 [Edit];
#X obj 20 346 cnv 1 745 1 empty empty empty 17 7 0 10 -203890 -1 0;
#X obj 20 351 cnv 5 98 26 empty empty properties: 4 10 0 14 -262144
-49933 0;
#X msg 110 386 @cc;
#X text 245 386 Get/Set if show control change events. Type: int. Default
value: 1\. Allowed values: 0 \, 1\.;
#X msg 110 428 @hex;
#X text 245 428 Get/Set if show values in hex. Type: int. Default value:
0\. Allowed values: 0 \, 1\.;
#X msg 110 470 @notes;
#X text 245 470 Get/Set if show note on/off events. Type: int. Default
value: 1\. Allowed values: 0 \, 1\.;
#X msg 110 512 @pitchwheel;
#X text 245 512 Get/Set if show pitch wheel events. Type: int. Default
value: 1\. Allowed values: 0 \, 1\.;
#X msg 110 554 @program;
#X text 245 554 Get/Set if show program change events. Type: int. Default
value: 1\. Allowed values: 0 \, 1\.;
#X msg 110 596 @receive;
#X text 245 596 Get/Set receive source. Type: symbol. Default value:
(null).;
#X msg 110 625 @send;
#X text 245 625 Get/Set send destination. Type: symbol. Default value:
(null).;
#X msg 110 667 @sysex;
#X text 245 667 Get/Set if show sysex events. Type: int. Default value:
1\. Allowed values: 0 \, 1\.;
#X msg 110 709 @touch;
#X text 245 709 Get/Set if show aftertouch (poly) events. Type: int.
Default value: 1\. Allowed values: 0 \, 1\.;
#X msg 110 751 @active_color;
#X text 245 751 Get/Set active color (list of red \, green \, blue
values in 0-1 range). Type: list. Default value: 0.63 0.88 0 1\.;
#X msg 110 793 @background_color;
#X text 245 793 Get/Set element background color (list of red \, green
\, blue values in 0-1 range). Type: list. Default value: 0.93 0.93
0.93 1\.;
#X msg 110 850 @border_color;
#X text 245 850 Get/Set border color (list of red \, green \, blue
values in 0-1 range). Type: list. Default value: 0.6 0.6 0.6 1\.;
#X msg 110 892 @text_color;
#X text 245 892 Get/Set text color (list of red \, green \, blue values
in 0-1 range). Type: list. Default value: 0 0 0 1\.;
#X msg 110 934 @fontname;
#X text 245 934 Get/Set fontname. Type: symbol. Default value: Helvetica.;
#X msg 110 963 @fontsize;
#X text 245 963 Get/Set fontsize. Type: int. Default value: 11\. Range:
4\...11\.;
#X msg 110 1005 @fontslant;
#X text 245 1005 Get/Set font slant. Type: symbol. Default value: roman.
Allowed values: roman \, italic.;
#X msg 110 1047 @fontweight;
#X text 245 1047 Get/Set font weight. Type: symbol. Default value:
normal. Allowed values: normal \, bold.;
#X msg 110 1089 @pinned;
#X text 245 1089 Get/Set pin mode. if 1 - put element to the lowest
level. Type: int. Default value: 0\. Allowed values: 0 \, 1\.;
#X msg 110 1131 @size;
#X text 245 1131 Get/Set element size (width \, height pair). Type:
list. Default value: 180 15\.;
#X obj 20 1183 cnv 1 745 1 empty empty empty 17 7 0 10 -203890 -1 0;
#X obj 20 1188 cnv 5 73 26 empty empty methods: 4 10 0 14 -262144
-49933 0;
#X msg 110 1223 pos;
#X text 245 1223 set UI element position. Arguments are:;
#X obj 255 1246 cnv 1 15 23 empty empty empty 17 7 0 10 -245695 -1 0;
#X text 255 1246 X: top left x-coord. Type: float.;
#X obj 255 1269 cnv 1 15 23 empty empty empty 17 7 0 10 -245695 -1 0;
#X text 255 1269 Y: top right y-coord. Type: float.;
#X obj 20 1304 cnv 1 745 1 empty empty empty 17 7 0 10 -203890 -1 0;
#X obj 20 1309 cnv 5 64 26 empty empty inlets: 4 10 0 14 -262144
-49933 0;
#X text 110 1310 1\.;
#X text 245 1310 control input.;
#X obj 20 1340 cnv 1 745 1 empty empty empty 17 7 0 10 -203890 -1 0;
#X obj 20 1345 cnv 5 73 26 empty empty outlets: 4 10 0 14 -262144
-49933 0;
#X text 110 1346 1\.;
#X text 245 1346 MIDI output.;
#X obj 10 48 ui.link @title index @url ../index-help.pd;
#X text 51 45 ::;
#X obj 67 48 ui.link @title ceammc @url ceammc-help.pd;
#X text 115 45 ::;
#X obj 131 48 ui.link @title ui @url ceammc.ui-help.pd;
#X obj 1 1396 cnv 5 765 48 empty empty empty 17 7 0 10 -203890 -1 0;
#X text 10 1399 library: ceammc v0.9.2;
#N canvas 10 1418 400 290 info 0;
#X obj 1 1 cnv 1 107 287 empty empty empty 17 7 0 10 -183085 -1 0;
#X text 10 10 library:;
#X text 120 10 ceammc;
#X text 10 32 version:;
#X text 120 32 0.9.2;
#X text 10 54 object:;
#X text 120 54 ui.midi;
#X text 10 76 category:;
#X text 120 76 ui;
#X text 10 98 since:;
#X text 120 98 0.9.2;
#X text 10 120 authors:;
#X text 120 120 Pierre Guillot \, Serge Poltavsky;
#X text 10 142 license:;
#X text 120 142 GPL3 or later;
#X text 10 164 keywords:;
#X text 120 164 ui \, menu;
#X text 10 186 website:;
#X obj 120 189 ui.link @title https://github.com/uliss/pure-data @url
https://github.com/uliss/pure-data;
#X obj 120 208 declare -lib ceammc;
#X obj 120 268 cnv 1 270 1 empty empty empty 17 7 0 10 -203890 -1 0;
#X text 120 268 generated by pddoc;
#X restore 10 1418 pd info;
#X connect 4 0 5 0;