#N canvas 0 0 785 555 12;
#X declare -lib ceammc;
#X obj 531 50 cnv 1 234 23 empty empty empty 17 7 0 10 -245760 -1 0;
#X text 531 50 The matrix of toggles has you.;
#X obj 1 1 cnv 5 765 40 empty empty ui.matrix 20 20 0 20 -104026 -4096
0;
#X obj 672 13 ui.link @background_color 0.39216 0.39216 0.39216 @title
[ui.matrix] @url ui.matrix-help.pd;
#X obj 210 80 cnv 1 555 75 empty empty empty 17 7 0 10 -257983 -1 0;
#X text 215 80 Rectangle matrix of toggles. Note: all matrix operations
have following cell address format - ROW COL.;
#X text 215 120 On click outputs message with format [cell ROW COL
VALUE(;
#X floatatom 146 183 5 0 0 0 - - -;
#X floatatom 270 183 5 0 0 0 - - -;
#X msg 50 198 dump;
#X msg 146 212 get row \$1;
#X msg 270 212 get col \$1;
#X msg 69 227 reset;
#X msg 165 241 bang;
#X msg 290 241 flip;
#X msg 357 241 get list;
#X obj 50 284 ui.matrix;
#X obj 50 356 route cell row col;
#X obj 222 385 ui.d;
#X obj 155 414 ui.d;
#X obj 107 443 ui.d;
#X obj 50 471 ui.d;
#X obj 20 521 cnv 1 745 1 empty empty empty 17 7 0 10 -203890 -1 0;
#X obj 20 526 cnv 5 115 25 empty empty mouse_events: 4 12 0 14 -262144
-49933 0;
#X text 110 561 Mouse-drag;
#X text 285 561 toggle cells under cursor.;
#X text 110 581 Left-click;
#X text 285 581 toggle cell under cursor.;
#X text 110 601 Right-click + ⌥;
#X text 285 601 open properties dialog.;
#X text 110 621 Right-click + ⇧;
#X text 285 621 open object help.;
#X text 110 641 Right-click + ⌥;
#X text 285 641 open properties dialog.;
#X text 61 641 [Edit];
#X text 110 661 Right-click + ⇧;
#X text 285 661 open the object help.;
#X text 61 661 [Edit];
#X text 110 681 Right-click;
#X text 285 681 open Pd popup menu.;
#X text 61 681 [Edit];
#X obj 20 711 cnv 1 745 1 empty empty empty 17 7 0 10 -203890 -1 0;
#X obj 20 716 cnv 5 90 25 empty empty arguments: 4 12 0 14 -262144
-49933 0;
#X obj 735 719 ui.link @background_color 0.98039 0.98039 0.98039
@title [?] @url ceammc.args-info.pd;
#X text 110 751 1\.;
#X text 150 751 int;
#X obj 246 752 cnv 1 32 20 empty empty empty 17 7 0 10 -245695 -1 0;
#X text 245 751 ROW: matrix rows. Type: int. Range: 1\...64;
#X text 110 771 2\.;
#X text 150 771 int;
#X obj 246 772 cnv 1 32 20 empty empty empty 17 7 0 10 -245695 -1 0;
#X text 245 771 COL: matrix columns. Type: int. Range: 1\...64;
#X obj 20 801 cnv 1 745 1 empty empty empty 17 7 0 10 -203890 -1 0;
#X obj 20 806 cnv 5 98 25 empty empty properties: 4 12 0 14 -262144
-49933 0;
#X obj 735 809 ui.link @background_color 0.98039 0.98039 0.98039
@title [?] @url ceammc.props-info.pd;
#X msg 110 841 @cols;
#X text 245 841 Get/Set number of matrix columns. Type: int. Default
value: 8\. Range: 1\...64\.;
#X msg 110 883 @current_col;
#X text 245 883 Get/Set current column index. -1 if not specified.
This property is not saved in patch. Type: int. Default value: -1\.
Min value: -1\.;
#X msg 110 940 @current_row;
#X text 245 940 Get/Set current row index. -1 if not specified. This
property is not saved in patch. Type: int. Default value: -1\. Min
value: -1\.;
#X msg 110 997 @receive;
#X text 245 997 Get/Set receive source. Type: symbol. Default value:
(null).;
#X msg 110 1027 @rows;
#X text 245 1027 Get/Set number of matrix rows. Type: int. Default
value: 4\. Range: 1\...64\.;
#X msg 110 1069 @send;
#X text 245 1069 Get/Set send destination. Type: symbol. Default value:
(null).;
#X msg 110 1111 @active_color;
#X text 245 1111 Get/Set active color (list of red \, green \, blue
values in 0-1 range). Type: list. Default value: 0 0.75 1 1\.;
#X msg 110 1153 @background_color;
#X text 245 1153 Get/Set element background color (list of red \, green
\, blue values in 0-1 range). Type: list. Default value: 0.93 0.93
0.93 1\.;
#X msg 110 1210 @border_color;
#X text 245 1210 Get/Set border color (list of red \, green \, blue
values in 0-1 range). Type: list. Default value: 0.6 0.6 0.6 1\.;
#X msg 110 1252 @current_color;
#X text 245 1252 Get/Set current col/row color (list of red \, green
\, blue values in 0-1 range). Type: list. Default value: 1 0.75 0 1\.;
#X msg 110 1294 @fontname;
#X text 245 1294 Get/Set fontname. Type: symbol. Default value: Helvetica.
Allowed values: Courier \, DejaVu \, Helvetica \, Monaco \, Times.;
#X msg 110 1336 @fontsize;
#X text 245 1336 Get/Set fontsize. Type: int. Default value: 11\. Range:
4\...100\.;
#X msg 110 1378 @fontslant;
#X text 245 1378 Get/Set font slant. Type: symbol. Default value: roman.
Allowed values: roman \, italic.;
#X msg 110 1420 @fontweight;
#X text 245 1420 Get/Set font weight. Type: symbol. Default value:
normal. Allowed values: normal \, bold.;
#X msg 110 1462 @pinned;
#X text 245 1462 Get/Set pin mode. if 1 - put element to the lowest
level. Type: bool. Default value: 0\.;
#X msg 110 1504 @presetname;
#X text 245 1504 Get/Set preset name for using with [ui.preset]. Type:
symbol. Default value: (null).;
#X msg 110 1546 @size;
#X text 245 1546 Get/Set element size (width \, height pair). Type:
list. Default value: 105 53\.;
#X obj 20 1598 cnv 1 745 1 empty empty empty 17 7 0 10 -203890 -1 0;
#X obj 20 1603 cnv 5 73 25 empty empty methods: 4 12 0 14 -262144
-49933 0;
#X msg 110 1638 clear;
#X text 245 1638 clears specified preset. Arguments are:;
#X obj 255 1661 cnv 1 30 23 empty empty empty 17 7 0 10 -245695 -1 0;
#X text 255 1661 IDX: preset index. Type: int.;
#X msg 110 1686 flip;
#X text 245 1686 flips all matrix cells.;
#X msg 110 1714 flip R C;
#X text 245 1714 flips single cell. Arguments are:;
#X obj 255 1737 cnv 1 15 23 empty empty empty 17 7 0 10 -245695 -1 0;
#X text 255 1737 R: row index. Type: int. Min value: 0\.;
#X obj 255 1760 cnv 1 14 23 empty empty empty 17 7 0 10 -245695 -1 0;
#X text 255 1760 C: column index. Type: int. Min value: 0\.;
#X msg 110 1785 flip col N;
#X text 245 1785 flips cells in specified column. Arguments are:;
#X obj 255 1808 cnv 1 15 23 empty empty empty 17 7 0 10 -245695 -1 0;
#X text 255 1808 N: column index. Type: int. Min value: 0\.;
#X msg 110 1833 flip row N;
#X text 245 1833 flips cells in specified row. Arguments are:;
#X obj 255 1856 cnv 1 15 23 empty empty empty 17 7 0 10 -245695 -1 0;
#X text 255 1856 N: row index. Type: int. Min value: 0\.;
#X msg 110 1881 get cell R C;
#X text 245 1881 outputs single cell value as message [cell ROW COL
VALUE(. Arguments are:;
#X obj 255 1919 cnv 1 15 23 empty empty empty 17 7 0 10 -245695 -1 0;
#X text 255 1919 R: row index. Type: int. Min value: 0\.;
#X obj 255 1942 cnv 1 14 23 empty empty empty 17 7 0 10 -245695 -1 0;
#X text 255 1942 C: column index. Type: int. Min value: 0\.;
#X msg 110 1967 get cells;
#X text 245 1967 output all cells as separate messages [cell R C VALUE(.;
#X msg 110 1995 get col N;
#X text 245 1995 outputs column cells as message [col N V0 V1\...(.
Arguments are:;
#X obj 255 2033 cnv 1 15 23 empty empty empty 17 7 0 10 -245695 -1 0;
#X text 255 2033 N: column index. Type: int. Min value: 0\.;
#X msg 110 2058 get cols;
#X text 245 2058 output all columns as separate messages [col N V0
V1\...(.;
#X msg 110 2086 get list;
#X text 245 2086 output all cell values as list \, row by raw. [0 1
1 1 0\...(.;
#X msg 110 2114 get row N;
#X text 245 2114 outputs row cells as message [row N V0 V1\...(. Arguments
are:;
#X obj 255 2152 cnv 1 15 23 empty empty empty 17 7 0 10 -245695 -1 0;
#X text 255 2152 N: row index. Type: int. Min value: 0\.;
#X msg 110 2177 get rows;
#X text 245 2177 output all rows as separate messages [row N V0 V1\...(.;
#X msg 110 2205 interp;
#X text 245 2205 for this object acts as *load* \, no interpolation
performed.;
#X msg 110 2233 load;
#X text 245 2233 loads specified preset. Arguments are:;
#X obj 255 2256 cnv 1 30 23 empty empty empty 17 7 0 10 -245695 -1 0;
#X text 255 2256 IDX: preset index. Type: int.;
#X msg 110 2281 pos;
#X text 245 2281 set UI element position. Arguments are:;
#X obj 255 2304 cnv 1 15 23 empty empty empty 17 7 0 10 -245695 -1 0;
#X text 255 2304 X: top left x-coord. Type: float.;
#X obj 255 2327 cnv 1 15 23 empty empty empty 17 7 0 10 -245695 -1 0;
#X text 255 2327 Y: top right y-coord. Type: float.;
#X msg 110 2352 random;
#X text 245 2352 fill matrix random and output.;
#X msg 110 2380 read;
#X text 245 2380 Arguments are:;
#X obj 255 2403 cnv 1 55 23 empty empty empty 17 7 0 10 -245695 -1 0;
#X text 255 2403 [FNAME]: read matrix values from text file (space
separated). If fname argument is not specified opens file chooser dialog.
Type: symbol.;
#X msg 110 2458 reset;
#X text 245 2458 uncheck all matrix cells. No output.;
#X msg 110 2486 set col N ...;
#X text 245 2486 set specified column without output. Arguments are:;
#X obj 255 2509 cnv 1 15 23 empty empty empty 17 7 0 10 -245695 -1 0;
#X text 255 2509 N: column index. Type: int. Min value: 0\.;
#X obj 255 2532 cnv 1 26 23 empty empty empty 17 7 0 10 -245695 -1 0;
#X text 255 2532 ...: cell values (1 - checked \, 0 - unchecked). Type:
list.;
#X msg 110 2557 set list ...;
#X text 245 2557 set matrix without output. Arguments are:;
#X obj 255 2580 cnv 1 26 23 empty empty empty 17 7 0 10 -245695 -1 0;
#X text 255 2580 ...: cell values (1 - checked \, 0 - unchecked) \,
row by row. Type: list.;
#X msg 110 2620 set row N ...;
#X text 245 2620 set specified row without output. Arguments are:;
#X obj 255 2643 cnv 1 15 23 empty empty empty 17 7 0 10 -245695 -1 0;
#X text 255 2643 N: row index. Type: int. Min value: 0\.;
#X obj 255 2666 cnv 1 26 23 empty empty empty 17 7 0 10 -245695 -1 0;
#X text 255 2666 ...: cell values (1 - checked \, 0 - unchecked). Type:
list.;
#X msg 110 2691 store;
#X text 245 2691 stores specified preset. Arguments are:;
#X obj 255 2714 cnv 1 30 23 empty empty empty 17 7 0 10 -245695 -1 0;
#X text 255 2714 IDX: preset index. Type: int.;
#X msg 110 2739 write;
#X text 245 2739 Arguments are:;
#X obj 255 2762 cnv 1 55 23 empty empty empty 17 7 0 10 -245695 -1 0;
#X text 255 2762 [FNAME]: write matrix values to text file (space separated).
If fname argument is not specified opens file chooser dialog. Type:
symbol.;
#X msg 110 2817 dump;
#X text 245 2817 dumps all object info to Pd console window.;
#X obj 20 2855 cnv 1 745 1 empty empty empty 17 7 0 10 -203890 -1 0;
#X obj 20 2860 cnv 5 64 25 empty empty inlets: 4 12 0 14 -262144
-49933 0;
#X text 110 2861 1\.;
#X text 150 2861 *bang*;
#X text 245 2861 output all cells. Same as [get cells(.;
#X text 150 2881 *list*;
#X text 245 2881 sets matrix state. Input format: 0 and 1 \, row by
row.;
#X obj 20 2911 cnv 1 745 1 empty empty empty 17 7 0 10 -203890 -1 0;
#X obj 20 2916 cnv 5 73 25 empty empty outlets: 4 12 0 14 -262144
-49933 0;
#X text 110 2917 1\.;
#X text 245 2917 output.;
#X obj 10 48 ui.link @title index @url ../index-help.pd;
#X text 51 45 ::;
#X obj 68 48 ui.link @title ceammc @url ceammc-help.pd;
#X text 116 45 ::;
#X obj 133 48 ui.link @title ui @url ceammc.ui-help.pd;
#X obj 1 2967 cnv 5 765 48 empty empty empty 17 7 0 10 -203890 -1 0;
#X text 10 2970 library: ceammc v0.9.7;
#X text 521 2982 see also:;
#X obj 596 2985 ui.link @background_color 0.78431 0.78431 0.78431
@title [ui.radio] @url ui.radio-help.pd;
#X obj 672 2985 ui.link @background_color 0.78431 0.78431 0.78431
@title [ui.toggle] @url ui.toggle-help.pd;
#N canvas 10 2989 400 290 info 0;
#X obj 1 1 cnv 1 107 287 empty empty empty 17 7 0 10 -183085 -1 0;
#X text 10 10 library:;
#X text 120 10 ceammc;
#X text 10 32 version:;
#X text 120 32 0.9.7;
#X text 10 54 object:;
#X text 120 54 ui.matrix;
#X text 10 76 category:;
#X text 120 76 ui;
#X text 10 98 since:;
#X text 120 98 0.1;
#X text 10 120 authors:;
#X text 120 120 Pierre Guillot \, Serge Poltavsky;
#X text 10 142 license:;
#X text 120 142 GPL3 or later;
#X text 10 164 keywords:;
#X text 120 164 ui \, matrix;
#X text 10 186 website:;
#X obj 120 189 ui.link @title https://github.com/uliss/pd-ceammc @url
https://github.com/uliss/pd-ceammc;
#X obj 120 208 declare -lib ceammc;
#X obj 120 268 cnv 1 270 1 empty empty empty 17 7 0 10 -203890 -1 0;
#X text 120 268 generated by pddoc;
#X restore 10 2989 pd info;
#X connect 7 0 10 0;
#X connect 8 0 11 0;
#X connect 9 0 16 0;
#X connect 12 0 16 0;
#X connect 10 0 16 0;
#X connect 13 0 16 0;
#X connect 11 0 16 0;
#X connect 14 0 16 0;
#X connect 15 0 16 0;
#X connect 16 0 17 0;
#X connect 17 3 18 0;
#X connect 17 2 19 0;
#X connect 17 1 20 0;
#X connect 17 0 21 0;