#N canvas 0 0 785 555 12;
#X declare -lib ceammc;
#X obj 430 50 cnv 1 335 23 empty empty empty 17 7 0 10 -245760 -1 0;
#X text 430 50 counterpart of the vanilla [nbx] for signal;
#X obj 1 1 cnv 5 765 40 empty empty ui.number~ 20 20 0 20 -104026
-4096 0;
#X obj 601 13 ui.link @background_color 0.39216 0.39216 0.39216 @title
[ui.n~] @url ui.number~-help.pd;
#X obj 665 13 ui.link @background_color 0.39216 0.39216 0.39216 @title
[ui.number~] @url ui.number~-help.pd;
#X obj 210 80 cnv 1 555 35 empty empty empty 17 7 0 10 -257983 -1 0;
#X text 215 80 Shows one sample from input block via specified interval;
#X obj 50 143 phasor~ 0.1;
#X obj 194 143 ui.dsp~;
#X obj 50 187 ui.number~;
#X obj 20 237 cnv 1 745 1 empty empty empty 17 7 0 10 -203890 -1 0;
#X obj 20 242 cnv 5 115 25 empty empty mouse_events: 4 12 0 14 -262144
-49933 0;
#X text 110 277 Right-click + ⌥;
#X text 285 277 open the properties dialog.;
#X text 110 297 Right-click + ⇧;
#X text 285 297 open the object help.;
#X text 110 317 Right-click + ⌥;
#X text 285 317 open the properties dialog.;
#X text 61 317 [Edit];
#X text 110 337 Right-click + ⇧;
#X text 285 337 open the object help.;
#X text 61 337 [Edit];
#X text 110 357 Right-click;
#X text 285 357 open the Pd popup menu.;
#X text 61 357 [Edit];
#X obj 20 387 cnv 1 745 1 empty empty empty 17 7 0 10 -203890 -1 0;
#X obj 20 392 cnv 5 98 25 empty empty properties: 4 12 0 14 -262144
-49933 0;
#X obj 735 395 ui.link @background_color 0.98039 0.98039 0.98039
@title [?] @url ceammc.props-info.pd;
#X msg 110 427 @interval;
#X text 245 427 Get/Set refresh interval. Type: int. Units: 'ms'. Default
value: 50\. Range: 20\...1000\.;
#X msg 110 469 @precision;
#X text 245 469 Get/Set float precision. Type: int. Default value:
6\. Range: 0\...16\.;
#X msg 110 511 @active_color;
#X text 245 511 Get/Set active color (list of red \, green \, blue
values in 0-1 range). Type: list. Default value: 0 0.75 1 1\.;
#X msg 110 553 @background_color;
#X text 245 553 Get/Set element background color (list of red \, green
\, blue values in 0-1 range). Type: list. Default value: 0.3 0.3 0.3
1\.;
#X msg 110 610 @border_color;
#X text 245 610 Get/Set border color (list of red \, green \, blue
values in 0-1 range). Type: list. Default value: 0 0 0 1\.;
#X msg 110 652 @text_color;
#X text 245 652 Get/Set text color (list of red \, green \, blue values
in 0-1 range). Type: list. Default value: 0.9 0.9 0.9 1\.;
#X msg 110 694 @fontname;
#X text 245 694 Get/Set fontname. Type: symbol. Default value: Helvetica.
Allowed values: Courier \, DejaVu \, Helvetica \, Monaco \, Times.;
#X msg 110 736 @fontsize;
#X text 245 736 Get/Set fontsize. Type: int. Default value: 11\. Range:
4\...100\.;
#X msg 110 778 @fontslant;
#X text 245 778 Get/Set font slant. Type: symbol. Default value: roman.
Allowed values: roman \, italic.;
#X msg 110 820 @fontweight;
#X text 245 820 Get/Set font weight. Type: symbol. Default value: normal.
Allowed values: normal \, bold.;
#X msg 110 862 @pinned;
#X text 245 862 Get/Set pin mode. if 1 - put element to the lowest
level. Type: bool. Default value: 0\.;
#X msg 110 904 @size;
#X text 245 904 Get/Set element size (width \, height pair). Type:
list. Default value: 80 15\.;
#X obj 20 956 cnv 1 745 1 empty empty empty 17 7 0 10 -203890 -1 0;
#X obj 20 961 cnv 5 73 25 empty empty methods: 4 12 0 14 -262144
-49933 0;
#X msg 110 996 pos;
#X text 245 996 set UI element position. Arguments are:;
#X obj 255 1019 cnv 1 15 23 empty empty empty 17 7 0 10 -245695 -1 0;
#X text 255 1019 X: top left x-coord. Type: float.;
#X obj 255 1042 cnv 1 15 23 empty empty empty 17 7 0 10 -245695 -1 0;
#X text 255 1042 Y: top right y-coord. Type: float.;
#X obj 20 1077 cnv 1 745 1 empty empty empty 17 7 0 10 -203890 -1 0;
#X obj 20 1082 cnv 5 64 25 empty empty inlets: 4 12 0 14 -262144
-49933 0;
#X text 110 1083 1\.;
#X text 245 1083 input audio signal.;
#X obj 20 1113 cnv 1 745 1 empty empty empty 17 7 0 10 -203890 -1 0;
#X obj 20 1118 cnv 5 73 25 empty empty outlets: 4 12 0 14 -262144
-49933 0;
#X text 110 1119 1\.;
#X text 245 1119 signal pass thru.;
#X obj 10 48 ui.link @title index @url ../index-help.pd;
#X text 51 45 ::;
#X obj 68 48 ui.link @title ceammc @url ceammc-help.pd;
#X text 116 45 ::;
#X obj 133 48 ui.link @title ui @url ceammc.ui-help.pd;
#X obj 1 1169 cnv 5 765 48 empty empty empty 17 7 0 10 -203890 -1 0;
#X text 10 1172 library: ceammc v0.9.7;
#X text 597 1184 see also:;
#X obj 672 1187 ui.link @background_color 0.78431 0.78431 0.78431
@title [ui.number] @url ui.number-help.pd;
#N canvas 10 1191 400 290 info 0;
#X obj 1 1 cnv 1 107 287 empty empty empty 17 7 0 10 -183085 -1 0;
#X text 10 10 library:;
#X text 120 10 ceammc;
#X text 10 32 version:;
#X text 120 32 0.9.7;
#X text 10 54 object:;
#X text 120 54 ui.number~;
#X text 10 76 category:;
#X text 120 76 ui;
#X text 10 98 since:;
#X text 120 98 0.1;
#X text 10 120 authors:;
#X text 120 120 Pierre Guillot \, Serge Poltavsky;
#X text 10 142 license:;
#X text 120 142 GPL3 or later;
#X text 10 164 keywords:;
#X text 120 164 ui \, number;
#X text 10 186 website:;
#X obj 120 189 ui.link @title https://github.com/uliss/pd-ceammc @url
https://github.com/uliss/pd-ceammc;
#X obj 120 208 declare -lib ceammc;
#X obj 120 268 cnv 1 270 1 empty empty empty 17 7 0 10 -203890 -1 0;
#X text 120 268 generated by pddoc;
#X restore 10 1191 pd info;
#X connect 7 0 9 0;