#N canvas 0 0 785 555 12;
#X declare -lib ceammc;
#X obj 516 50 cnv 1 249 23 empty empty empty 17 7 0 10 -245760 -1 0;
#X text 516 50 counterpart of the vanilla [nbx];
#X obj 1 1 cnv 5 765 40 empty empty ui.number 20 20 0 20 -104026 -4096
0;
#X obj 615 13 ui.link @background_color 0.39216 0.39216 0.39216 @title
[ui.n] @url ui.number-help.pd;
#X obj 672 13 ui.link @background_color 0.39216 0.39216 0.39216 @title
[ui.number] @url ui.number-help.pd;
#X obj 210 80 cnv 1 555 120 empty empty empty 17 7 0 10 -257983 -1 0;
#X text 215 80 Display mode: keys '-'(Down) and '+'(Up) increment value.
Mouse drag changes value. Default step is 1/pixel. Holding SHIFT divide
step by 100\. Holding CTRL multiply by 10\.;
#X text 215 135 Input mode: Double click to enter new value. Accepted
keys: -.0123456789\. Press ENTER or TAB key to finish. ESCAPE undo
input \, BACKSPACE removes last character.;
#X obj 50 228 hslider 128 15 0.0 127.0 0 0 empty empty empty 17 7 0 10
-262144 -1 -1 0 0;
#X msg 69 257 + 50;
#X msg 136 257 - 75;
#X msg 203 257 * 2;
#X msg 261 257 / 3 \, bang;
#X msg 88 286 ++;
#X msg 155 286 --;
#X msg 280 315 set -1;
#X obj 366 315 bng 15 250 50 0 empty empty empty 17 7 0 10 -262144 -1
-1;
#X obj 50 344 ui.number @size 200 40;
#X floatatom 50 415 5 0 0 0 - - -;
#X obj 20 447 cnv 1 745 1 empty empty empty 17 7 0 10 -203890 -1 0;
#X obj 20 452 cnv 5 115 25 empty empty mouse_events: 4 12 0 14 -262144
-49933 0;
#X text 110 487 Mouse-drag;
#X text 285 487 change the number.;
#X text 110 507 Mouse-drag + ⌘;
#X text 285 507 change the number value fast.;
#X text 110 527 Mouse-drag + ⇧;
#X text 285 527 change the number value slowly.;
#X text 110 547 Double-click;
#X text 285 547 edit the current value.;
#X text 110 567 Right-click + ⌥;
#X text 285 567 open the properties dialog.;
#X text 110 587 Right-click + ⇧;
#X text 285 587 open the object help.;
#X text 110 607 Right-click + ⌥;
#X text 285 607 open the properties dialog.;
#X text 61 607 [Edit];
#X text 110 627 Right-click + ⇧;
#X text 285 627 open the object help.;
#X text 61 627 [Edit];
#X text 110 647 Right-click;
#X text 285 647 open the Pd popup menu.;
#X text 61 647 [Edit];
#X obj 20 677 cnv 1 745 1 empty empty empty 17 7 0 10 -203890 -1 0;
#X obj 20 682 cnv 5 98 25 empty empty properties: 4 12 0 14 -262144
-49933 0;
#X obj 735 685 ui.link @background_color 0.98039 0.98039 0.98039
@title [?] @url ceammc.props-info.pd;
#X msg 110 717 @digits;
#X text 245 717 Get/Set number of digits. If -1 - no fixed digits used.
Type: int. Default value: -1\. Range: -1\...9\.;
#X msg 110 759 @display_only;
#X text 245 759 Get/Set interaction mode. If true: react only to received
Pd messages \, but do not react to mouse/keyboard events. If false:
react to all supported events. Type: bool. Default value: 0\.;
#X msg 110 831 @max;
#X text 245 831 Get/Set maximum value. Type: float. Default value:
+inf.;
#X msg 110 861 @min;
#X text 245 861 Get/Set minimum value. Type: float. Default value:
-inf.;
#X msg 110 891 @receive;
#X text 245 891 Get/Set receive source. Type: symbol. Default value:
(null).;
#X msg 110 921 @send;
#X text 245 921 Get/Set send destination. Type: symbol. Default value:
(null).;
#X msg 110 963 @value;
#X text 245 963 Get/Set widget value. Type: float. Default value: 0\.;
#X msg 110 993 @active_color;
#X text 245 993 Get/Set active color (list of red \, green \, blue
values in 0-1 range). Type: list. Default value: 0 0.75 1 1\.;
#X msg 110 1035 @background_color;
#X text 245 1035 Get/Set element background color (list of red \, green
\, blue values in 0-1 range). Type: list. Default value: 0.93 0.93
0.93 1\.;
#X msg 110 1092 @border_color;
#X text 245 1092 Get/Set border color (list of red \, green \, blue
values in 0-1 range). Type: list. Default value: 0.6 0.6 0.6 1\.;
#X msg 110 1134 @text_color;
#X text 245 1134 Get/Set text color (list of red \, green \, blue values
in 0-1 range). Type: list. Default value: 0 0 0 1\.;
#X msg 110 1176 @fontname;
#X text 245 1176 Get/Set fontname. Type: symbol. Default value: Helvetica.
Allowed values: Courier \, DejaVu \, Helvetica \, Monaco \, Times.;
#X msg 110 1218 @fontsize;
#X text 245 1218 Get/Set fontsize. Type: int. Default value: 11\. Range:
4\...100\.;
#X msg 110 1260 @fontslant;
#X text 245 1260 Get/Set font slant. Type: symbol. Default value: roman.
Allowed values: roman \, italic.;
#X msg 110 1302 @fontweight;
#X text 245 1302 Get/Set font weight. Type: symbol. Default value:
normal. Allowed values: normal \, bold.;
#X msg 110 1344 @pinned;
#X text 245 1344 Get/Set pin mode. if 1 - put element to the lowest
level. Type: bool. Default value: 0\.;
#X msg 110 1386 @presetname;
#X text 245 1386 Get/Set preset name for using with [ui.preset]. Type:
symbol. Default value: (null).;
#X msg 110 1428 @size;
#X text 245 1428 Get/Set element size (width \, height pair). Type:
list. Default value: 53 15\.;
#X obj 20 1480 cnv 1 745 1 empty empty empty 17 7 0 10 -203890 -1 0;
#X obj 20 1485 cnv 5 73 25 empty empty methods: 4 12 0 14 -262144
-49933 0;
#X msg 110 1520 clear;
#X text 245 1520 clears specified preset. Arguments are:;
#X obj 255 1543 cnv 1 30 23 empty empty empty 17 7 0 10 -245695 -1 0;
#X text 255 1543 IDX: preset index. Type: int.;
#X msg 110 1568 interp;
#X text 245 1568 interplolates between presets. Arguments are:;
#X obj 255 1591 cnv 1 30 23 empty empty empty 17 7 0 10 -245695 -1 0;
#X text 255 1591 IDX: preset fraction index. Type: float.;
#X msg 110 1616 load;
#X text 245 1616 loads specified preset. Arguments are:;
#X obj 255 1639 cnv 1 30 23 empty empty empty 17 7 0 10 -245695 -1 0;
#X text 255 1639 IDX: preset index. Type: int.;
#X msg 110 1664 pos;
#X text 245 1664 set UI element position. Arguments are:;
#X obj 255 1687 cnv 1 15 23 empty empty empty 17 7 0 10 -245695 -1 0;
#X text 255 1687 X: top left x-coord. Type: float.;
#X obj 255 1710 cnv 1 15 23 empty empty empty 17 7 0 10 -245695 -1 0;
#X text 255 1710 Y: top right y-coord. Type: float.;
#X msg 110 1735 set;
#X text 245 1735 sets slider value without output. Arguments are:;
#X obj 255 1758 cnv 1 15 23 empty empty empty 17 7 0 10 -245695 -1 0;
#X text 255 1758 V: new value. Type: float.;
#X msg 110 1783 store;
#X text 245 1783 stores specified preset. Arguments are:;
#X obj 255 1806 cnv 1 30 23 empty empty empty 17 7 0 10 -245695 -1 0;
#X text 255 1806 IDX: preset index. Type: int.;
#X msg 110 1831 *;
#X text 245 1831 multiply slider value without output. Arguments are:;
#X obj 255 1854 cnv 1 15 23 empty empty empty 17 7 0 10 -245695 -1 0;
#X text 255 1854 V: multiplied value. Type: float.;
#X msg 110 1879 +;
#X text 245 1879 add value to slider without output. Arguments are:;
#X obj 255 1902 cnv 1 15 23 empty empty empty 17 7 0 10 -245695 -1 0;
#X text 255 1902 V: added value. Type: float.;
#X msg 110 1927 ++;
#X text 245 1927 increment slider value without output.;
#X msg 110 1955 -;
#X text 245 1955 subtract value from slider without output. Arguments
are:;
#X obj 255 1978 cnv 1 15 23 empty empty empty 17 7 0 10 -245695 -1 0;
#X text 255 1978 V: subtracted value. Type: float.;
#X msg 110 2003 --;
#X text 245 2003 decrement slider value without output.;
#X msg 110 2031 /;
#X text 245 2031 divide slider value without output. Arguments are:;
#X obj 255 2054 cnv 1 15 23 empty empty empty 17 7 0 10 -245695 -1 0;
#X text 255 2054 V: denominator value. Type: float.;
#X obj 20 2089 cnv 1 745 1 empty empty empty 17 7 0 10 -203890 -1 0;
#X obj 20 2094 cnv 5 64 25 empty empty inlets: 4 12 0 14 -262144
-49933 0;
#X text 110 2095 1\.;
#X text 150 2095 *bang*;
#X text 245 2095 outputs current value.;
#X text 150 2115 *float*;
#X text 245 2115 input value.;
#X text 150 2135 *list*;
#X text 245 2135 first element converted to float.;
#X obj 20 2165 cnv 1 745 1 empty empty empty 17 7 0 10 -203890 -1 0;
#X obj 20 2170 cnv 5 73 25 empty empty outlets: 4 12 0 14 -262144
-49933 0;
#X text 110 2171 1\.;
#X text 245 2171 number value.;
#X obj 10 48 ui.link @title index @url ../index-help.pd;
#X text 51 45 ::;
#X obj 68 48 ui.link @title ceammc @url ceammc-help.pd;
#X text 116 45 ::;
#X obj 133 48 ui.link @title ui @url ceammc.ui-help.pd;
#X obj 1 2221 cnv 5 765 48 empty empty empty 17 7 0 10 -203890 -1 0;
#X text 10 2224 library: ceammc v0.9.7;
#X text 590 2236 see also:;
#X obj 665 2239 ui.link @background_color 0.78431 0.78431 0.78431
@title [ui.number~] @url ui.number~-help.pd;
#N canvas 10 2243 400 290 info 0;
#X obj 1 1 cnv 1 107 287 empty empty empty 17 7 0 10 -183085 -1 0;
#X text 10 10 library:;
#X text 120 10 ceammc;
#X text 10 32 version:;
#X text 120 32 0.9.7;
#X text 10 54 object:;
#X text 120 54 ui.number;
#X text 10 76 category:;
#X text 120 76 ui;
#X text 10 98 since:;
#X text 120 98 0.1;
#X text 10 120 authors:;
#X text 120 120 Pierre Guillot \, Serge Poltavsky;
#X text 10 142 license:;
#X text 120 142 GPL3 or later;
#X text 10 164 keywords:;
#X text 120 164 ui \, number;
#X text 10 186 website:;
#X obj 120 189 ui.link @title https://github.com/uliss/pd-ceammc @url
https://github.com/uliss/pd-ceammc;
#X obj 120 208 declare -lib ceammc;
#X obj 120 268 cnv 1 270 1 empty empty empty 17 7 0 10 -203890 -1 0;
#X text 120 268 generated by pddoc;
#X restore 10 2243 pd info;
#X connect 8 0 17 0;
#X connect 9 0 17 0;
#X connect 13 0 17 0;
#X connect 10 0 17 0;
#X connect 14 0 17 0;
#X connect 11 0 17 0;
#X connect 12 0 17 0;
#X connect 15 0 17 0;
#X connect 16 0 17 0;
#X connect 17 0 18 0;