#N canvas 0 0 785 555 12;
#X declare -lib ceammc;
#X obj 460 50 cnv 1 305 23 empty empty empty 17 7 0 10 -245760 -1 0;
#X text 460 50 counterpart of the vanilla radio toggle;
#X obj 1 1 cnv 5 765 40 empty empty ui.radio 20 20 0 20 -104026 -4096
0;
#N canvas 548 8 250 400 aliases 0;
#X obj 30 40 ui.link @background_color 0.39216 0.39216 0.39216 @title
[ui.radio*] @url ui.radio-help.pd;
#X obj 30 74 ui.link @background_color 0.39216 0.39216 0.39216 @title
[ui.hrd] @url ui.radio-help.pd;
#X obj 30 108 ui.link @background_color 0.39216 0.39216 0.39216 @title
[ui.hrd*] @url ui.radio-help.pd;
#X obj 30 142 ui.link @background_color 0.39216 0.39216 0.39216 @title
[ui.vrd] @url ui.radio-help.pd;
#X obj 30 176 ui.link @background_color 0.39216 0.39216 0.39216 @title
[ui.vrd*] @url ui.radio-help.pd;
#X restore 548 8 pd aliases;
#X obj 645 8 ui.link @background_color 0.39216 0.39216 0.39216 @title
[ui.radio] @url ui.radio-help.pd;
#X obj 210 80 cnv 1 555 65 empty empty empty 17 7 0 10 -257983 -1 0;
#X text 215 80 [ui.hrd] alias for horizontal radio \, [ui.vrd] alias
for vertical radio \, [ui.hrd*] alias for horizontal radio checklist.;
#X floatatom 50 173 5 0 0 0 - - -;
#X msg 98 173 set 2;
#X msg 251 173 flip;
#X msg 318 173 reset;
#X msg 395 173 1 1 0 1 0 0 1;
#X msg 549 173 euclid 3 1;
#X msg 424 202 rotate 1;
#X msg 549 202 hexbeat BE;
#X obj 50 231 ui.radio;
#X obj 251 231 ui.radio*;
#X floatatom 50 260 5 0 0 0 - - -;
#X obj 251 260 ui.dt;
#X msg 50 289 + 3;
#X msg 107 289 - 1;
#X msg 165 289 prev;
#X msg 232 289 next;
#X msg 299 289 random;
#X msg 386 289 random move;
#X obj 50 332 ui.radio 4;
#X obj 50 360 ui.dt;
#X obj 20 410 cnv 1 745 1 empty empty empty 17 7 0 10 -203890 -1 0;
#X obj 20 415 cnv 5 115 25 empty empty mouse_events: 4 12 0 14 -262144
-49933 0;
#X text 110 450 Mouse-drag;
#X text 285 450 toggle radio cells in the checklist mode.;
#X text 110 470 Left-click;
#X text 285 470 select cell in radio mode \, toggle cell in check list
mode.;
#X text 110 490 Right-click;
#X text 285 490 show context menu.;
#X text 110 510 Double-click + ⌘;
#X text 285 510 changes slider orientation.;
#X text 61 510 [Edit];
#X obj 20 540 cnv 1 745 1 empty empty empty 17 7 0 10 -203890 -1 0;
#X obj 20 545 cnv 5 90 25 empty empty arguments: 4 12 0 14 -262144
-49933 0;
#X obj 735 548 ui.link @background_color 0.98039 0.98039 0.98039
@title [?] @url ceammc.args-info.pd;
#X text 110 580 1\.;
#X text 150 580 float;
#X obj 246 581 cnv 1 55 20 empty empty empty 17 7 0 10 -245695 -1 0;
#X text 245 580 NCELLS: number of cells. Type: float. Range: 2\...128;
#X obj 20 610 cnv 1 745 1 empty empty empty 17 7 0 10 -203890 -1 0;
#X obj 20 615 cnv 5 98 25 empty empty properties: 4 12 0 14 -262144
-49933 0;
#X obj 735 618 ui.link @background_color 0.98039 0.98039 0.98039
@title [?] @url ceammc.props-info.pd;
#X msg 110 650 @mode;
#X text 245 650 Get/Set check list mode. If true acts as checklist.
Type: bool. Default value: 0\.;
#X msg 110 692 @mouse_events;
#X text 245 692 Get/Set mouse events output mode. If on outputs @mouse_down
and @mouse_drag events. Type: bool. Default value: 0\.;
#X msg 110 734 @nitems;
#X text 245 734 Get/Set number of items. Type: int. Default value:
8\. Range: 2\...128\.;
#X msg 110 776 @receive;
#X text 245 776 Get/Set receive source. Type: symbol. Default value:
(null).;
#X msg 110 806 @send;
#X text 245 806 Get/Set send destination. Type: symbol. Default value:
(null).;
#X msg 110 848 @value;
#X text 245 848 Get/Set widget value (float or list). Type: list.;
#X msg 110 878 @active_color;
#X text 245 878 Get/Set active color (list of red \, green \, blue
values in 0-1 range). Type: list. Default value: 0 0.75 1 1\.;
#X msg 110 920 @background_color;
#X text 245 920 Get/Set element background color (list of red \, green
\, blue values in 0-1 range). Type: list. Default value: 0.93 0.93
0.93 1\.;
#X msg 110 977 @border_color;
#X text 245 977 Get/Set border color (list of red \, green \, blue
values in 0-1 range). Type: list. Default value: 0.6 0.6 0.6 1\.;
#X msg 110 1019 @fontname;
#X text 245 1019 Get/Set fontname. Type: symbol. Default value: Helvetica.
Allowed values: Courier \, DejaVu \, Helvetica \, Monaco \, Times.;
#X msg 110 1061 @fontsize;
#X text 245 1061 Get/Set fontsize. Type: int. Default value: 11\. Range:
4\...100\.;
#X msg 110 1103 @fontslant;
#X text 245 1103 Get/Set font slant. Type: symbol. Default value: roman.
Allowed values: roman \, italic.;
#X msg 110 1145 @fontweight;
#X text 245 1145 Get/Set font weight. Type: symbol. Default value:
normal. Allowed values: normal \, bold.;
#X msg 110 1187 @pinned;
#X text 245 1187 Get/Set pin mode. if 1 - put element to the lowest
level. Type: bool. Default value: 0\.;
#X msg 110 1229 @presetname;
#X text 245 1229 Get/Set preset name for using with [ui.preset]. Type:
symbol. Default value: (null).;
#X msg 110 1271 @size;
#X text 245 1271 Get/Set element size (width \, height pair). Type:
list. Default value: 120 15\.;
#X obj 20 1323 cnv 1 745 1 empty empty empty 17 7 0 10 -203890 -1 0;
#X obj 20 1328 cnv 5 73 25 empty empty methods: 4 12 0 14 -262144
-49933 0;
#X msg 110 1363 cellsize;
#X text 245 1363 set cell size (resize widget). Arguments are:;
#X obj 255 1386 cnv 1 15 23 empty empty empty 17 7 0 10 -245695 -1 0;
#X text 255 1386 X: cell size in pixels. Type: int.;
#X msg 110 1411 clear;
#X text 245 1411 clears specified preset. Arguments are:;
#X obj 255 1434 cnv 1 30 23 empty empty empty 17 7 0 10 -245695 -1 0;
#X text 255 1434 IDX: preset index. Type: int.;
#X msg 110 1459 euclid;
#X text 245 1459 set euclid pattern (checklist mode only). Arguments
are:;
#X obj 255 1482 cnv 1 44 23 empty empty empty 17 7 0 10 -245695 -1 0;
#X text 255 1482 BEATS: requested number of beats. Type: int.;
#X obj 255 1505 cnv 1 63 23 empty empty empty 17 7 0 10 -245695 -1 0;
#X text 255 1505 [OFFSET]: pattern offset (rotation to the right).
Type: int.;
#X msg 110 1530 flip;
#X text 245 1530 flips radio (only in checklist mode).;
#X msg 110 1558 hexbeat;
#X text 245 1558 set hexbeat pattern (checklist mode only). Arguments
are:;
#X obj 255 1581 cnv 1 53 23 empty empty empty 17 7 0 10 -245695 -1 0;
#X text 255 1581 HEXSTR: hex string. For example \, 0xF1 will set 1
1 1 1 0 0 0 1 pattern. Type: symbol.;
#X msg 110 1621 interp;
#X text 245 1621 for this object acts as *load* \, no interpolation
performed.;
#X msg 110 1649 load;
#X text 245 1649 loads specified preset. Arguments are:;
#X obj 255 1672 cnv 1 30 23 empty empty empty 17 7 0 10 -245695 -1 0;
#X text 255 1672 IDX: preset index. Type: int.;
#X msg 110 1697 next;
#X text 245 1697 moves to next position until last cell is reached
(single mode only).;
#X msg 110 1737 pos;
#X text 245 1737 set UI element position. Arguments are:;
#X obj 255 1760 cnv 1 15 23 empty empty empty 17 7 0 10 -245695 -1 0;
#X text 255 1760 X: top left x-coord. Type: float.;
#X obj 255 1783 cnv 1 15 23 empty empty empty 17 7 0 10 -245695 -1 0;
#X text 255 1783 Y: top right y-coord. Type: float.;
#X msg 110 1808 prev;
#X text 245 1808 moves to previous position until first cell is reached
(single mode only).;
#X msg 110 1848 random;
#X text 245 1848 select random cells. If called as [random move( moves
to another random cell (excluding the current one).;
#X msg 110 1888 reset;
#X text 245 1888 reset radio (only in checklist mode).;
#X msg 110 1916 rotate;
#X text 245 1916 left rotate (checklist mode only). Arguments are:;
#X obj 255 1939 cnv 1 45 23 empty empty empty 17 7 0 10 -245695 -1 0;
#X text 255 1939 STEPS: number of steps. Type: int.;
#X msg 110 1964 set;
#X text 245 1964 sets radio without output. Arguments are:;
#X obj 255 1987 cnv 1 15 23 empty empty empty 17 7 0 10 -245695 -1 0;
#X text 255 1987 V: new value. Type: float.;
#X msg 110 2012 store;
#X text 245 2012 stores specified preset. Arguments are:;
#X obj 255 2035 cnv 1 30 23 empty empty empty 17 7 0 10 -245695 -1 0;
#X text 255 2035 IDX: preset index. Type: int.;
#X msg 110 2060 + STEP;
#X text 245 2060 moves several steps forward on a loop (single mode
only).;
#X msg 110 2088 - STEP;
#X text 245 2088 moves several step backwards on a loop (single mode
only).;
#X obj 20 2126 cnv 1 745 1 empty empty empty 17 7 0 10 -203890 -1 0;
#X obj 20 2131 cnv 5 64 25 empty empty inlets: 4 12 0 14 -262144
-49933 0;
#X text 110 2132 1\.;
#X text 150 2132 *bang*;
#X text 245 2132 outputs current radio state.;
#X text 150 2152 *float*;
#X text 245 2152 set radio and output.;
#X text 150 2172 *list*;
#X text 245 2172 set radio and output (only in checklist mode).;
#X obj 20 2202 cnv 1 745 1 empty empty empty 17 7 0 10 -203890 -1 0;
#X obj 20 2207 cnv 5 73 25 empty empty outlets: 4 12 0 14 -262144
-49933 0;
#X text 110 2208 1\.;
#X text 245 2208 output value.;
#X obj 10 48 ui.link @title index @url ../index-help.pd;
#X text 51 45 ::;
#X obj 68 48 ui.link @title ceammc @url ceammc-help.pd;
#X text 116 45 ::;
#X obj 133 48 ui.link @title ui @url ceammc.ui-help.pd;
#X obj 1 2258 cnv 5 765 48 empty empty empty 17 7 0 10 -203890 -1 0;
#X text 10 2261 library: ceammc v0.9.7;
#X text 597 2273 see also:;
#X obj 672 2276 ui.link @background_color 0.78431 0.78431 0.78431
@title [ui.matrix] @url ui.matrix-help.pd;
#N canvas 10 2280 400 290 info 0;
#X obj 1 1 cnv 1 107 287 empty empty empty 17 7 0 10 -183085 -1 0;
#X text 10 10 library:;
#X text 120 10 ceammc;
#X text 10 32 version:;
#X text 120 32 0.9.7;
#X text 10 54 object:;
#X text 120 54 ui.radio;
#X text 10 76 category:;
#X text 120 76 ui;
#X text 10 98 since:;
#X text 120 98 0.1;
#X text 10 120 authors:;
#X text 120 120 Pierre Guillot;
#X text 10 142 license:;
#X text 120 142 GPL3 or later;
#X text 10 164 keywords:;
#X text 120 164 ui \, radio;
#X text 10 186 website:;
#X obj 120 189 ui.link @title https://github.com/uliss/pd-ceammc @url
https://github.com/uliss/pd-ceammc;
#X obj 120 208 declare -lib ceammc;
#X obj 120 268 cnv 1 270 1 empty empty empty 17 7 0 10 -203890 -1 0;
#X text 120 268 generated by pddoc;
#X restore 10 2280 pd info;
#X connect 7 0 15 0;
#X connect 8 0 15 0;
#X connect 9 0 16 0;
#X connect 10 0 16 0;
#X connect 11 0 16 0;
#X connect 13 0 16 0;
#X connect 15 0 17 0;
#X connect 16 0 18 0;
#X connect 19 0 25 0;
#X connect 20 0 25 0;
#X connect 21 0 25 0;
#X connect 22 0 25 0;
#X connect 23 0 25 0;
#X connect 24 0 25 0;
#X connect 25 0 26 0;
#X connect 12 0 16 0;
#X connect 14 0 16 0;