#N canvas 0 0 225 284 12;
#X obj 20 48 ui.dsp~;
#X obj 20 92 noise~;
#X obj 106 92 osc.saw~ 1000;
#X obj 39 120 tgl 15 0 empty empty empty 17 7 0 10 -262144 -1 -1 0 1;
#X obj 125 120 tgl 15 0 empty empty empty 17 7 0 10 -262144 -1 -1 0 1;
#X obj 20 149 *~;
#X obj 106 149 *~;
#X obj 20 192 ui.spectroscope~ @size 150 100;
#X connect 1 0 5 0;
#X connect 5 0 7 0;
#X connect 6 0 7 0;
#X connect 2 0 6 0;
#X connect 4 0 6 1;
#X connect 3 0 5 1;
