#N canvas 0 0 264 201 12;
#X obj 192 48 tgl 15 0 empty empty empty 17 7 0 10 -262144 -1 -1 0 1;
#X obj 20 77 bng 15 250 50 0 empty empty empty 17 7 0 10 -262144 -1
-1;
#X msg 58 77 0;
#X msg 96 77 1;
#X msg 135 77 -1;
#X msg 192 77 set \$1;
#X obj 20 120 ui.toggle @size 40 40;
#X obj 20 164 m set;
#X msg 20 192 ;
#X connect 3 0 6 0;
#X connect 7 0 8 0;
#X connect 0 0 5 0;
#X connect 6 0 7 0;
#X connect 5 0 6 0;
#X connect 2 0 6 0;
#X connect 4 0 6 0;
#X connect 1 0 6 0;
