#N canvas 0 0 785 555 12;
#X declare -lib ceammc;
#X obj 606 50 cnv 1 159 23 empty empty empty 17 7 0 10 -245760 -1 0;
#X text 606 50 modern toggle widget;
#X obj 1 1 cnv 5 765 40 empty empty ui.toggle 20 20 0 20 -104026 -4096
0;
#X obj 615 13 ui.link @background_color 0.39216 0.39216 0.39216 @title
[ui.t] @url ui.toggle-help.pd;
#X obj 672 13 ui.link @background_color 0.39216 0.39216 0.39216 @title
[ui.toggle] @url ui.toggle-help.pd;
#X obj 210 80 cnv 1 555 35 empty empty empty 17 7 0 10 -257983 -1 0;
#X text 215 80 This is the ceammc counterpart of the vanilla toggle;
#X obj 222 143 tgl 15 0 empty empty empty 17 7 0 10 -262144 -1 -1 0 1;
#X obj 50 172 bng 15 250 50 0 empty empty empty 17 7 0 10 -262144 -1
-1;
#X msg 88 172 0;
#X msg 126 172 1;
#X msg 165 172 -1;
#X msg 222 172 set \$1;
#X obj 50 215 ui.toggle @size 40 40;
#X obj 290 215 ui.t @on_value 90 @off_value -90;
#X floatatom 290 244 5 0 0 0 - - -;
#X text 328 244 other on/off values;
#X obj 50 273 ui.display;
#X obj 20 323 cnv 1 745 1 empty empty empty 17 7 0 10 -203890 -1 0;
#X obj 20 328 cnv 5 115 25 empty empty mouse_events: 4 12 0 14 -262144
-49933 0;
#X text 110 363 Left-click;
#X text 285 363 toggles state.;
#X text 110 383 Double-click + ⇧;
#X text 285 383 toggle MIDI-learn mode (red border displayed).;
#X text 110 403 Right-click + ⇧;
#X text 285 403 open object help.;
#X text 110 423 Right-click + ⌥;
#X text 285 423 open properties dialog.;
#X text 110 443 Right-click;
#X text 285 443 opens Pd popup menu.;
#X text 61 443 [Edit];
#X text 110 463 Right-click + ⇧;
#X text 285 463 open object help.;
#X text 61 463 [Edit];
#X text 110 483 Right-click + ⌥;
#X text 285 483 open properties dialog.;
#X text 61 483 [Edit];
#X obj 20 513 cnv 1 745 1 empty empty empty 17 7 0 10 -203890 -1 0;
#X obj 20 518 cnv 5 98 25 empty empty properties: 4 12 0 14 -262144
-49933 0;
#X obj 735 521 ui.link @background_color 0.98039 0.98039 0.98039
@title [?] @url ceammc.props-info.pd;
#X msg 110 553 @off_value;
#X text 245 553 Get/Set output off value. Type: float. Default value:
0\.;
#X msg 110 583 @on_value;
#X text 245 583 Get/Set output on value. Type: float. Default value:
1\.;
#X msg 110 613 @receive;
#X text 245 613 Get/Set receive source. Type: symbol. Default value:
(null).;
#X msg 110 643 @send;
#X text 245 643 Get/Set send destination. Type: symbol. Default value:
(null).;
#X msg 110 685 @value;
#X text 245 685 Get/Set widget logical value. Type: int. Default value:
0\. Allowed values: 0 \, 1\.;
#X msg 110 727 @midi_channel;
#X text 245 727 Get/Set binded MIDI channel. 0 means listen to all
channels. Type: int. Default value: 0\. Range: 0\...16\.;
#X msg 110 769 @midi_control;
#X text 245 769 Get/Set binded MIDI controller number. -1 means not
binded to any controller. Type: int. Default value: -1\. Range: -1\...127\.;
#X msg 110 826 @active_color;
#X text 245 826 Get/Set active color (list of red \, green \, blue
values in 0-1 range). Type: list. Default value: 0 0.75 1 1\.;
#X msg 110 868 @background_color;
#X text 245 868 Get/Set element background color (list of red \, green
\, blue values in 0-1 range). Type: list. Default value: 0.93 0.93
0.93 1\.;
#X msg 110 925 @border_color;
#X text 245 925 Get/Set border color (list of red \, green \, blue
values in 0-1 range). Type: list. Default value: 0.6 0.6 0.6 1\.;
#X msg 110 967 @fontname;
#X text 245 967 Get/Set fontname. Type: symbol. Default value: Helvetica.
Allowed values: Courier \, DejaVu \, Helvetica \, Monaco \, Times.;
#X msg 110 1009 @fontsize;
#X text 245 1009 Get/Set fontsize. Type: int. Default value: 11\. Range:
4\...100\.;
#X msg 110 1051 @fontslant;
#X text 245 1051 Get/Set font slant. Type: symbol. Default value: roman.
Allowed values: roman \, italic.;
#X msg 110 1093 @fontweight;
#X text 245 1093 Get/Set font weight. Type: symbol. Default value:
normal. Allowed values: normal \, bold.;
#X msg 110 1135 @pinned;
#X text 245 1135 Get/Set pin mode. if 1 - put element to the lowest
level. Type: bool. Default value: 0\.;
#X msg 110 1177 @presetname;
#X text 245 1177 Get/Set preset name for using with [ui.preset]. Type:
symbol. Default value: (null).;
#X msg 110 1219 @size;
#X text 245 1219 Get/Set element size (width \, height pair). Type:
list. Default value: 15 15\.;
#X obj 20 1271 cnv 1 745 1 empty empty empty 17 7 0 10 -203890 -1 0;
#X obj 20 1276 cnv 5 73 25 empty empty methods: 4 12 0 14 -262144
-49933 0;
#X msg 110 1311 clear;
#X text 245 1311 clears specified preset. Arguments are:;
#X obj 255 1334 cnv 1 30 23 empty empty empty 17 7 0 10 -245695 -1 0;
#X text 255 1334 IDX: preset index. Type: int.;
#X msg 110 1359 interp;
#X text 245 1359 for this object acts as *load* \, no interpolation
performed.;
#X msg 110 1387 load;
#X text 245 1387 loads specified preset. Arguments are:;
#X obj 255 1410 cnv 1 30 23 empty empty empty 17 7 0 10 -245695 -1 0;
#X text 255 1410 IDX: preset index. Type: int.;
#X msg 110 1435 pos;
#X text 245 1435 set UI element position. Arguments are:;
#X obj 255 1458 cnv 1 15 23 empty empty empty 17 7 0 10 -245695 -1 0;
#X text 255 1458 X: top left x-coord. Type: float.;
#X obj 255 1481 cnv 1 15 23 empty empty empty 17 7 0 10 -245695 -1 0;
#X text 255 1481 Y: top right y-coord. Type: float.;
#X msg 110 1506 set;
#X text 245 1506 sets toggle state without output.;
#X msg 110 1534 store;
#X text 245 1534 stores specified preset. Arguments are:;
#X obj 255 1557 cnv 1 30 23 empty empty empty 17 7 0 10 -245695 -1 0;
#X text 255 1557 IDX: preset index. Type: int.;
#X msg 110 1582 dump;
#X text 245 1582 dumps all object info to Pd console window.;
#X obj 20 1620 cnv 1 745 1 empty empty empty 17 7 0 10 -203890 -1 0;
#X obj 20 1625 cnv 5 64 25 empty empty inlets: 4 12 0 14 -262144
-49933 0;
#X text 110 1626 1\.;
#X text 150 1626 *bang*;
#X text 245 1626 change toggle state.;
#X text 150 1646 *float*;
#X text 245 1646 if *0* given \, sets state to unchecked and outputs
@off_value. On any other number sets to checked state and outputs @on_value.;
#X obj 20 1706 cnv 1 745 1 empty empty empty 17 7 0 10 -203890 -1 0;
#X obj 20 1711 cnv 5 73 25 empty empty outlets: 4 12 0 14 -262144
-49933 0;
#X text 110 1712 1\.;
#X text 245 1712 outputs @on_value or @off_value (by default 0 or 1).;
#X obj 10 48 ui.link @title index @url ../index-help.pd;
#X text 51 45 ::;
#X obj 68 48 ui.link @title ceammc @url ceammc-help.pd;
#X text 116 45 ::;
#X obj 133 48 ui.link @title ui @url ceammc.ui-help.pd;
#X obj 1 1762 cnv 5 765 48 empty empty empty 17 7 0 10 -203890 -1 0;
#X text 10 1765 library: ceammc v0.9.7;
#X text 611 1777 see also:;
#X obj 686 1780 ui.link @background_color 0.78431 0.78431 0.78431
@title [ui.bang] @url ui.bang-help.pd;
#N canvas 10 1784 400 290 info 0;
#X obj 1 1 cnv 1 107 287 empty empty empty 17 7 0 10 -183085 -1 0;
#X text 10 10 library:;
#X text 120 10 ceammc;
#X text 10 32 version:;
#X text 120 32 0.9.7;
#X text 10 54 object:;
#X text 120 54 ui.toggle;
#X text 10 76 category:;
#X text 120 76 ui;
#X text 10 98 since:;
#X text 120 98 0.1;
#X text 10 120 authors:;
#X text 120 120 Pierre Guillot \, Serge Poltavsky;
#X text 10 142 license:;
#X text 120 142 GPL3 or later;
#X text 10 164 keywords:;
#X text 120 164 ui \, toggle;
#X text 10 186 website:;
#X obj 120 189 ui.link @title https://github.com/uliss/pd-ceammc @url
https://github.com/uliss/pd-ceammc;
#X obj 120 208 declare -lib ceammc;
#X obj 120 268 cnv 1 270 1 empty empty empty 17 7 0 10 -203890 -1 0;
#X text 120 268 generated by pddoc;
#X restore 10 1784 pd info;
#X connect 7 0 12 0;
#X connect 8 0 13 0;
#X connect 9 0 13 0;
#X connect 10 0 13 0;
#X connect 11 0 13 0;
#X connect 12 0 13 0;
#X connect 14 0 15 0;
#X connect 13 0 17 0;