#N canvas 0 0 147 144 12;
#X msg 20 48 1 0 0;
#X msg 96 48 3 4;
#X obj 20 77 vector.length;
#X obj 20 106 prepend set;
#X msg 20 135 ;
#X connect 3 0 4 0;
#X connect 1 0 2 0;
#X connect 0 0 2 0;
#X connect 2 0 3 0;
