#N canvas 0 0 239 129 12;
#X msg 20 63 1 0 0;
#X msg 96 63 dump;
#X msg 173 63 3 0 0;
#X obj 20 106 vector.distance;
#X floatatom 20 135 5 0 0 0 - - -;
#X connect 0 0 3 0;
#X connect 3 0 4 0;
#X connect 2 0 3 1;
#X connect 1 0 3 0;
