#N canvas 0 0 234 144 12;
#X msg 20 48 1 0 0;
#X msg 96 48 3 4;
#X msg 154 48 1 2 3 4;
#X obj 20 106 vector.length;
#X floatatom 20 135 5 0 0 0 - - -;
#X connect 0 0 3 0;
#X connect 2 0 3 0;
#X connect 3 0 4 0;
#X connect 1 0 3 0;
