#N canvas 0 0 201 144 12;
#X msg 20 48 1 0 .5;
#X msg 135 48 0 1 1;
#X obj 20 77 vector.dot;
#X obj 20 106 prepend set;
#X msg 20 135 ;
#X connect 2 0 3 0;
#X connect 1 0 2 1;
#X connect 0 0 2 0;
#X connect 3 0 4 0;
