#N canvas 0 0 249 158 12;
#X msg 20 48 1 0 .5;
#X msg 183 48 0 1 1;
#X msg 106 63 dump;
#X obj 20 92 vector.dot 1 2 3;
#X obj 20 120 prepend set;
#X msg 20 149 ;
#X connect 0 0 3 0;
#X connect 2 0 3 0;
#X connect 4 0 5 0;
#X connect 3 0 4 0;
#X connect 1 0 3 1;
