#N canvas 0 0 162 158 12;
#X msg 20 48 1 2 3;
#X msg 96 48 0 0 0;
#X obj 20 92 vector.normalize;
#X obj 20 120 msg set;
#X msg 20 149 ;
#X connect 3 0 4 0;
#X connect 1 0 2 0;
#X connect 0 0 2 0;
#X connect 2 0 3 0;
