#N canvas 0 0 785 555 12;
#X declare -lib ceammc;
#X obj 575 50 cnv 1 190 23 empty empty empty 17 7 0 10 -245760 -1 0;
#X text 575 50 dac~ with channel ranges;
#X obj 1 1 cnv 5 765 40 empty empty xdac~ 20 20 0 20 -104026 -4096 0;
#X obj 589 11 ceammc/xdac~;
#X obj 702 11 xdac~;
#X obj 50 118 xdac~;
#X obj 126 118 xdac~ 1:6;
#X obj 242 118 xdac~ 1:3 5 7:12;
#X obj 50 147 xdac~.map;
#X obj 20 197 cnv 1 745 1 empty empty empty 17 7 0 10 -203890 -1 0;
#X obj 20 202 cnv 5 115 25 empty empty mouse_events: 4 10 0 14 -262144
-49933 0;
#X text 110 237 Left-click;
#X text 285 237 opens audio properties dialog.;
#X obj 20 267 cnv 1 745 1 empty empty empty 17 7 0 10 -203890 -1 0;
#X obj 20 272 cnv 5 90 25 empty empty arguments: 4 10 0 14 -262144
-49933 0;
#X text 110 307 1\.;
#X text 150 307 list;
#X obj 246 308 cnv 1 40 20 empty empty empty 17 7 0 10 -245695 -1 0;
#X text 245 307 OUTS: list of output channels: single channel number
or X:Y range \, that means from X channel to Y (including last one).
If not specified - using 1 and 2 out channels. Type: list.;
#X obj 20 367 cnv 1 745 1 empty empty empty 17 7 0 10 -203890 -1 0;
#X obj 20 372 cnv 5 98 25 empty empty properties: 4 10 0 14 -262144
-49933 0;
#X msg 110 407 @channels;
#X text 245 407 Get/Set list of mapped channels. Type: list. Default
value: 1 2\.;
#X obj 20 459 cnv 1 745 1 empty empty empty 17 7 0 10 -203890 -1 0;
#X obj 20 464 cnv 5 73 25 empty empty methods: 4 10 0 14 -262144
-49933 0;
#X msg 110 499 reverse;
#X text 245 499 reverse output channels order.;
#X msg 110 527 rotate;
#X text 245 527 rotate output channels counter clockwise. Arguments
are:;
#X obj 255 550 cnv 1 15 23 empty empty empty 17 7 0 10 -245695 -1 0;
#X text 255 550 N: number of rotation steps \, can be negative. Type:
int.;
#X msg 110 575 shuffle;
#X text 245 575 shuffle output channels order.;
#X msg 110 603 side2circle;
#X text 245 603 map left/right side pairs to counter clockwise layout.;
#X obj 20 641 cnv 1 745 1 empty empty empty 17 7 0 10 -203890 -1 0;
#X obj 20 646 cnv 5 64 25 empty empty inlets: 4 10 0 14 -262144 -49933
0;
#X text 110 647 1\.;
#X text 245 647 first specified channel.;
#X text 110 667 ....;
#X text 245 667 ... specified channel.;
#X text 110 687 n.;
#X text 245 687 n-th specified channel.;
#X obj 20 717 cnv 1 745 1 empty empty empty 17 7 0 10 -203890 -1 0;
#X obj 20 722 cnv 5 73 25 empty empty outlets: 4 10 0 14 -262144
-49933 0;
#X obj 10 48 ui.link @title index @url ../index-help.pd;
#X text 51 45 ::;
#X obj 68 48 ui.link @title ceammc @url ceammc-help.pd;
#X text 116 45 ::;
#X obj 133 48 ui.link @title base @url ceammc.base-help.pd;
#X obj 1 763 cnv 5 765 48 empty empty empty 17 7 0 10 -203890 -1 0;
#X text 10 766 library: ceammc v0.9.7;
#N canvas 10 785 400 290 info 0;
#X obj 1 1 cnv 1 107 287 empty empty empty 17 7 0 10 -183085 -1 0;
#X text 10 10 library:;
#X text 120 10 ceammc;
#X text 10 32 version:;
#X text 120 32 0.9.7;
#X text 10 54 object:;
#X text 120 54 xdac~;
#X text 10 76 category:;
#X text 120 76 base;
#X text 10 98 since:;
#X text 120 98 0.8;
#X text 10 120 authors:;
#X text 120 120 Serge Poltavsky;
#X text 10 142 license:;
#X text 120 142 GPL3 or later;
#X text 10 164 keywords:;
#X text 120 164 base;
#X text 10 186 website:;
#X obj 120 189 ui.link @title https://github.com/uliss/pd-ceammc @url
https://github.com/uliss/pd-ceammc;
#X obj 120 208 declare -lib ceammc;
#X obj 120 268 cnv 1 270 1 empty empty empty 17 7 0 10 -203890 -1 0;
#X text 120 268 generated by pddoc;
#X restore 10 785 pd info;