#N canvas 0 0 391 187 12;
#X declare -lib matrix;
#X obj 20 48 declare -lib matrix;
#X msg 20 92 2;
#X msg 58 92 4;
#X obj 192 92 bng 15 250 50 0 empty empty empty 17 7 0 10 -262144 -1
-1;
#X obj 20 120 matrix.identity;
#X obj 192 120 matrix.linspace 1 10 100;
#X obj 20 149 matrix.accu;
#X floatatom 20 178 5 0 0 0 - - -;
#X connect 1 0 4 0;
#X connect 2 0 4 0;
#X connect 3 0 5 0;
#X connect 4 0 6 0;
#X connect 5 0 6 0;
#X connect 6 0 7 0;
