#N canvas 0 0 715 555 12;
#X declare -lib ceammc;
#X declare -lib matrix;
#X obj 554 50 cnv 1 141 21 empty empty empty 17 7 0 10 -245760 -1 0;
#X text 554 50 element-wise sine;
#X obj 1 1 cnv 5 712 40 empty empty matrix.sin 20 20 0 20 -104026
-4096 0;
#X obj 614 11 matrix.sin;
#X obj 50 118 declare -lib matrix;
#X msg 50 162 0 6.4 100;
#N canvas 0 22 450 300 (subpatch) 0;
#X array ARR_SIN 100 float 0;
#A 0 0 0 0 0 0 0 0 0 0 0 0 0 0 0 0 0 0 0 0 0 0 0 0 0 0 0 0 0 0 0 0 0 0
0 0 0 0 0 0 0 0 0 0 0 0 0 0 0 0 0 0 0 0 0 0 0 0 0 0 0 0 0 0 0 0 0 0 0
0 0 0 0 0 0 0 0 0 0 0 0 0 0 0 0 0 0 0 0 0 0 0 0 0 0 0 0 0 0 0 0;
#X coords 0 1 100 -1 260 130 1;
#X restore 242 162 graph;
#X obj 50 190 matrix.linspace;
#X obj 50 219 matrix.sin;
#X obj 50 248 matrix->list;
#X obj 50 277 array.set ARR_SIN;
#X obj 20 316 cnv 1 685 1 empty empty empty 17 7 0 10 -203890 -1 0;
#X obj 20 321 cnv 5 64 26 empty empty inlets: 4 10 0 14 -262144 -49933
0;
#X text 120 326 1\.;
#X text 150 326 *list*;
#X text 240 326 Matrix data constructor: NROWS NCOLS ....;
#X text 150 344 *data*;
#X text 240 344 Matrix data.;
#X obj 20 372 cnv 1 685 1 empty empty empty 17 7 0 10 -203890 -1 0;
#X obj 20 377 cnv 5 73 26 empty empty outlets: 4 10 0 14 -262144
-49933 0;
#X text 120 382 1\.;
#X text 240 382 output new matrix (Matrix);
#X obj 10 48 ui.link @title index @url ../index-help.pd;
#X text 51 45 ::;
#X obj 67 48 ui.link @title matrix @url matrix-help.pd;
#X text 116 45 ::;
#X obj 132 48 ui.link @title matrix @url matrix.matrix-help.pd;
#X obj 1 505 cnv 5 712 48 empty empty empty 17 7 0 10 -203890 -1 0;
#X text 10 508 library: matrix v0.1;
#X text 534 520 see also:;
#X obj 610 520 matrix.asin;
#N canvas 10 527 400 290 info 0;
#X obj 1 1 cnv 1 107 287 empty empty empty 17 7 0 10 -183085 -1 0;
#X text 10 10 library:;
#X text 120 10 matrix;
#X text 10 32 version:;
#X text 120 32 0.1;
#X text 10 54 object:;
#X text 120 54 matrix.sin;
#X text 10 76 category:;
#X text 120 76 matrix;
#X text 10 98 since:;
#X text 120 98 0.1;
#X text 10 120 authors:;
#X text 120 120 Serge Poltavski;
#X text 10 142 license:;
#X text 120 142 GPLv3;
#X text 10 164 keywords:;
#X text 120 164 sin \, trigonometric;
#X obj 120 186 declare -lib ceammc;
#X obj 120 268 cnv 1 270 1 empty empty empty 17 7 0 10 -203890 -1 0;
#X text 120 268 generated by pddoc;
#X restore 10 527 pd info;
#X connect 5 0 7 0;
#X connect 7 0 8 0;
#X connect 8 0 9 0;
#X connect 9 0 10 0;