#N canvas 0 0 190 188 12;
#X declare -lib matrix;
#X obj 20 48 declare -lib matrix;
#X msg 20 92 2 4;
#X obj 20 120 matrix.randn;
#X obj 20 149 matrix.sign;
#X obj 20 178 ui.display @display_type 1 @size 150 18;
#X connect 1 0 2 0;
#X connect 2 0 3 0;
#X connect 3 0 4 0;
