#N canvas 0 0 238 159 12;
#X declare -lib matrix;
#X obj 20 48 declare -lib matrix;
#X obj 20 92 bng 15 250 50 0 empty empty empty 17 7 0 10 -262144 -1
-1;
#X msg 58 92 2 2 4;
#X floatatom 183 92 5 0 0 0 - - -;
#X obj 20 120 matrix.full 2 3 -5;
#X obj 20 149 ui.display @display_type 1 @size 150 18;
#X connect 1 0 4 0;
#X connect 2 0 4 0;
#X connect 3 0 4 2;
#X connect 4 0 5 0;
