#N canvas 0 0 760 555 12;
#X declare -lib ceammc;
#X declare -lib matrix;
#X obj 544 50 cnv 1 196 21 empty empty empty 17 7 0 10 -245760 -1 0;
#X text 544 50 create Matrix with zeros;
#X obj 1 1 cnv 5 740 40 empty empty matrix.zeros 20 20 0 20 -104026
-4096 0;
#X obj 628 11 matrix.zeros;
#X obj 50 118 declare -lib matrix;
#X obj 50 162 bng 15 250 50 0 empty empty empty 17 7 0 10 -262144 -1
-1;
#X floatatom 88 162 5 0 0 0 - - -;
#X msg 136 162 2 2;
#X floatatom 203 162 5 0 0 0 - - -;
#X obj 50 190 matrix.zeros 2 3;
#X obj 50 219 ui.display @display_type 1 @size 150 18;
#X obj 20 259 cnv 1 720 1 empty empty empty 17 7 0 10 -203890 -1 0;
#X obj 20 264 cnv 5 90 26 empty empty arguments: 4 10 0 14 -262144
-49933 0;
#X text 120 269 1\.;
#X text 150 269 int;
#X obj 281 270 cnv 1 17 18 empty empty empty 17 7 0 10 -245695 -1 0;
#X text 280 269 M: number of rows. Min value: 0;
#X text 120 287 2\.;
#X text 150 287 int;
#X obj 281 288 cnv 1 17 18 empty empty empty 17 7 0 10 -245695 -1 0;
#X text 280 287 N: number of columns. Min value: 0;
#X obj 20 315 cnv 1 720 1 empty empty empty 17 7 0 10 -203890 -1 0;
#X obj 20 320 cnv 5 64 26 empty empty inlets: 4 10 0 14 -262144 -49933
0;
#X text 120 325 1\.;
#X text 150 325 *int*;
#X text 280 325 number of rows.;
#X text 120 343 2\.;
#X text 150 343 *int*;
#X text 280 343 number of columns.;
#X obj 20 371 cnv 1 720 1 empty empty empty 17 7 0 10 -203890 -1 0;
#X obj 20 376 cnv 5 73 26 empty empty outlets: 4 10 0 14 -262144
-49933 0;
#X text 120 381 1\.;
#X text 280 381 output matrix filled with zeros (Matrix);
#X obj 10 48 ui.link @title index @url ../index-help.pd;
#X text 51 45 ::;
#X obj 67 48 ui.link @title matrix @url matrix-help.pd;
#X text 116 45 ::;
#X obj 132 48 ui.link @title matrix @url matrix.matrix-help.pd;
#X obj 1 505 cnv 5 740 48 empty empty empty 17 7 0 10 -203890 -1 0;
#X text 10 508 library: matrix v0.1;
#X text 469 520 see also:;
#X obj 545 520 matrix.ones;
#X obj 640 520 matrix.full;
#N canvas 10 527 400 290 info 0;
#X obj 1 1 cnv 1 107 287 empty empty empty 17 7 0 10 -183085 -1 0;
#X text 10 10 library:;
#X text 120 10 matrix;
#X text 10 32 version:;
#X text 120 32 0.1;
#X text 10 54 object:;
#X text 120 54 matrix.zeros;
#X text 10 76 category:;
#X text 120 76 matrix;
#X text 10 98 since:;
#X text 120 98 0.1;
#X text 10 120 authors:;
#X text 120 120 Serge Poltavski;
#X text 10 142 license:;
#X text 120 142 GPLv3;
#X text 10 164 keywords:;
#X text 120 164 fill \, zeros;
#X obj 120 186 declare -lib ceammc;
#X obj 120 268 cnv 1 270 1 empty empty empty 17 7 0 10 -203890 -1 0;
#X text 120 268 generated by pddoc;
#X restore 10 527 pd info;
#X connect 5 0 9 0;
#X connect 6 0 9 0;
#X connect 7 0 9 0;
#X connect 8 0 9 1;
#X connect 9 0 10 0;