#N canvas 0 0 224 187 12;
#X declare -lib matrix;
#X obj 20 48 declare -lib matrix;
#X msg 20 92 3 3;
#X obj 20 120 matrix.randu;
#X msg 173 120 3 5;
#X obj 20 149 matrix.det;
#X floatatom 20 178 8 0 0 0 - - -;
#X connect 1 0 2 0;
#X connect 2 0 4 0;
#X connect 3 0 4 0;
#X connect 4 0 5 0;
