#N canvas 0 0 276 187 12;
#X declare -lib matrix;
#X obj 20 48 declare -lib matrix;
#X msg 20 92 5 5;
#X msg 164 92 5 5;
#X obj 20 120 matrix.randu;
#X obj 164 120 matrix.randn;
#X obj 20 149 matrix.stddev;
#X floatatom 20 178 8 0 0 0 - - -;
#X connect 1 0 3 0;
#X connect 2 0 4 0;
#X connect 3 0 5 0;
#X connect 4 0 5 0;
#X connect 5 0 6 0;
