#N canvas 0 0 388 159 12;
#X declare -lib matrix;
#X obj 20 48 declare -lib matrix;
#X msg 20 92 2 2 1 2 3 4;
#X floatatom 221 92 5 0 0 0 - - -;
#X msg 279 92 2 2 1 4 3 6;
#X obj 20 120 matrix.== Matrix 2 2 1 2 3 4;
#X obj 20 149 ui.display @display_type 1 @size 150 18;
#X connect 1 0 4 0;
#X connect 2 0 4 1;
#X connect 3 0 4 1;
#X connect 4 0 5 0;
