#N canvas 0 0 384 188 12;
#X declare -lib matrix;
#X obj 20 48 declare -lib matrix;
#X msg 20 92 3 3;
#X obj 221 92 bng 15 250 50 0 empty empty empty 17 7 0 10 -262144 -1
-1;
#X obj 20 120 matrix.zeros;
#X floatatom 164 120 5 0 0 0 - - -;
#X obj 221 120 matrix.col 10 20 30;
#X obj 20 149 matrix.insert_col 1 3 1 2 4 6;
#X obj 20 178 ui.display @display_type 1 @size 150 18;
#X connect 1 0 3 0;
#X connect 2 0 5 0;
#X connect 3 0 6 0;
#X connect 4 0 6 1;
#X connect 5 0 6 2;
#X connect 6 0 7 0;
