#N canvas 0 0 484 188 12;
#X declare -lib matrix;
#X obj 20 48 declare -lib matrix;
#X msg 20 92 2 2;
#X msg 202 92 2 4;
#X obj 20 120 matrix.fill 2;
#X obj 202 120 matrix.randu;
#X msg 346 120 2 3 1 2 3 4 5 6;
#X obj 20 149 matrix.dot Matrix 2 2 1 0 0 1;
#X obj 20 178 ui.display @display_type 1 @size 150 18;
#X connect 1 0 3 0;
#X connect 2 0 4 0;
#X connect 3 0 6 0;
#X connect 4 0 6 1;
#X connect 5 0 6 1;
#X connect 6 0 7 0;
