#N canvas 0 0 785 555 12;
#X declare -lib ceammc;
#X declare -lib matrix;
#X obj 522 50 cnv 1 243 23 empty empty empty 17 7 0 10 -245760 -1 0;
#X text 522 50 element-wise matrix subtraction;
#X obj 1 1 cnv 5 765 40 empty empty matrix.sub 20 20 0 20 -104026
-4096 0;
#X obj 583 11 matrix.-;
#X obj 667 11 matrix.sub;
#X obj 50 118 declare -lib matrix;
#X msg 50 162 2 4;
#X msg 184 162 2 4;
#X obj 50 190 matrix.ones;
#X obj 184 190 matrix.randu;
#X obj 50 219 matrix.add 1;
#X obj 50 248 ui.display @display_type 1;
#X obj 20 297 cnv 1 745 1 empty empty empty 17 7 0 10 -203890 -1 0;
#X obj 20 302 cnv 5 90 26 empty empty arguments: 4 10 0 14 -262144
-49933 0;
#X text 110 337 1\.;
#X text 150 337 list;
#X obj 246 338 cnv 1 17 20 empty empty empty 17 7 0 10 -245695 -1 0;
#X text 245 337 M: subtrahend matrix (Matrix NROWS NCOLS ...) or float
to add to all matrix elements.;
#X obj 20 382 cnv 1 745 1 empty empty empty 17 7 0 10 -203890 -1 0;
#X obj 20 387 cnv 5 64 26 empty empty inlets: 4 10 0 14 -262144 -49933
0;
#X text 110 388 1\.;
#X text 150 388 *list*;
#X text 245 388 Matrix data constructor: NROWS NCOLS ...;
#X text 150 408 *data*;
#X text 245 408 Matrix data.;
#X text 110 428 2\.;
#X text 150 428 *list*;
#X text 245 428 subtrahend matrix: NROWS NCOLS ...;
#X text 150 448 *data*;
#X text 245 448 subtrahend matrix.;
#X text 150 468 *float*;
#X text 245 468 float to add to all matrix elements.;
#X obj 20 498 cnv 1 745 1 empty empty empty 17 7 0 10 -203890 -1 0;
#X obj 20 503 cnv 5 73 26 empty empty outlets: 4 10 0 14 -262144
-49933 0;
#X text 110 504 1\.;
#X text 245 504 output result Matrix (Matrix).;
#X obj 10 48 ui.link @title index @url ../index-help.pd;
#X text 51 45 ::;
#X obj 67 48 ui.link @title matrix @url matrix-help.pd;
#X text 116 45 ::;
#X obj 132 48 ui.link @title matrix @url matrix.matrix-help.pd;
#X obj 1 554 cnv 5 765 48 empty empty empty 17 7 0 10 -203890 -1 0;
#X text 10 557 library: matrix v0.1;
#X text 594 569 see also:;
#X obj 668 569 matrix.add;
#N canvas 10 576 400 290 info 0;
#X obj 1 1 cnv 1 107 287 empty empty empty 17 7 0 10 -183085 -1 0;
#X text 10 10 library:;
#X text 120 10 matrix;
#X text 10 32 version:;
#X text 120 32 0.1;
#X text 10 54 object:;
#X text 120 54 matrix.sub;
#X text 10 76 category:;
#X text 120 76 matrix;
#X text 10 98 since:;
#X text 120 98 0.1;
#X text 10 120 authors:;
#X text 120 120 Serge Poltavski;
#X text 10 142 license:;
#X text 120 142 GPLv3;
#X obj 120 164 declare -lib ceammc;
#X obj 120 268 cnv 1 270 1 empty empty empty 17 7 0 10 -203890 -1 0;
#X text 120 268 generated by pddoc;
#X restore 10 576 pd info;
#X connect 6 0 8 0;
#X connect 7 0 9 0;
#X connect 8 0 10 0;
#X connect 9 0 10 1;
#X connect 10 0 11 0;