#N canvas 0 0 412 159 12;
#X declare -lib matrix;
#X obj 20 48 declare -lib matrix;
#X msg 20 92 2 2 10 50 100 150;
#X msg 260 92 2 2 10 50 100 150;
#X obj 20 120 matrix.trunc_exp;
#X obj 260 120 matrix.exp;
#X obj 20 149 ui.display @display_type 1 @size 150 18;
#X connect 1 0 3 0;
#X connect 2 0 4 0;
#X connect 3 0 5 0;
#X connect 4 0 5 0;
