#N canvas 0 0 785 555 12;
#X declare -lib ceammc;
#X declare -lib matrix;
#X obj 394 50 cnv 1 371 23 empty empty empty 17 7 0 10 -245760 -1 0;
#X text 394 50 generates Matrix with uniform distribution [0-1];
#X obj 1 1 cnv 5 765 40 empty empty matrix.randu 20 20 0 20 -104026
-4096 0;
#X obj 653 11 matrix.randu;
#X obj 50 118 declare -lib matrix;
#X obj 50 162 bng 15 250 50 0 empty empty empty 17 7 0 10 -262144 -1
-1;
#X msg 88 162 3 3;
#X floatatom 146 162 5 0 0 0 - - -;
#X floatatom 194 162 5 0 0 0 - - -;
#X obj 50 190 matrix.randu 2 2;
#X obj 50 219 ui.display @display_type 1;
#X obj 20 268 cnv 1 745 1 empty empty empty 17 7 0 10 -203890 -1 0;
#X obj 20 273 cnv 5 90 26 empty empty arguments: 4 10 0 14 -262144
-49933 0;
#X text 110 308 1\.;
#X text 150 308 int;
#X obj 246 309 cnv 1 17 20 empty empty empty 17 7 0 10 -245695 -1 0;
#X text 245 308 M: number of rows. Min value: 0;
#X text 110 328 2\.;
#X text 150 328 int;
#X obj 246 329 cnv 1 17 20 empty empty empty 17 7 0 10 -245695 -1 0;
#X text 245 328 N: number of columns. Min value: 0;
#X obj 20 358 cnv 1 745 1 empty empty empty 17 7 0 10 -203890 -1 0;
#X obj 20 363 cnv 5 64 26 empty empty inlets: 4 10 0 14 -262144 -49933
0;
#X text 110 364 1\.;
#X text 150 364 *int*;
#X text 245 364 number of rows.;
#X text 110 384 2\.;
#X text 150 384 *int*;
#X text 245 384 number of columns.;
#X obj 20 414 cnv 1 745 1 empty empty empty 17 7 0 10 -203890 -1 0;
#X obj 20 419 cnv 5 73 26 empty empty outlets: 4 10 0 14 -262144
-49933 0;
#X text 110 420 1\.;
#X text 245 420 output new matrix (Matrix).;
#X obj 10 48 ui.link @title index @url ../index-help.pd;
#X text 51 45 ::;
#X obj 67 48 ui.link @title matrix @url matrix-help.pd;
#X text 116 45 ::;
#X obj 132 48 ui.link @title matrix @url matrix.matrix-help.pd;
#X obj 1 505 cnv 5 765 48 empty empty empty 17 7 0 10 -203890 -1 0;
#X text 10 508 library: matrix v0.1;
#X text 579 520 see also:;
#X obj 653 520 matrix.randn;
#N canvas 10 527 400 290 info 0;
#X obj 1 1 cnv 1 107 287 empty empty empty 17 7 0 10 -183085 -1 0;
#X text 10 10 library:;
#X text 120 10 matrix;
#X text 10 32 version:;
#X text 120 32 0.1;
#X text 10 54 object:;
#X text 120 54 matrix.randu;
#X text 10 76 category:;
#X text 120 76 matrix;
#X text 10 98 since:;
#X text 120 98 0.1;
#X text 10 120 authors:;
#X text 120 120 Serge Poltavski;
#X text 10 142 license:;
#X text 120 142 GPLv3;
#X text 10 164 keywords:;
#X text 120 164 random \, generate;
#X obj 120 186 declare -lib ceammc;
#X obj 120 268 cnv 1 270 1 empty empty empty 17 7 0 10 -203890 -1 0;
#X text 120 268 generated by pddoc;
#X restore 10 527 pd info;
#X connect 5 0 9 0;
#X connect 6 0 9 0;
#X connect 7 0 9 0;
#X connect 8 0 9 1;
#X connect 9 0 10 0;