#N canvas 0 0 324 217 12;
#X declare -lib matrix;
#X obj 20 48 declare -lib matrix;
#X msg 20 92 2 2 1 2 3 4;
#X obj 20 120 matrix.inverse;
#X obj 154 149 ui.display @display_type 1 @size 150 18;
#X obj 20 178 matrix.inverse;
#X obj 20 207 ui.display @display_type 1 @size 150 18;
#X connect 1 0 2 0;
#X connect 2 0 3 0;
#X connect 2 0 4 0;
#X connect 4 0 5 0;
