#N canvas 0 0 435 361 12;
#X declare -lib matrix;
#X obj 20 48 declare -lib matrix;
#X msg 20 92 2 4;
#X obj 20 120 matrix.randu;
#X msg 240 120 symbol test_matrix2.csv;
#X obj 20 149 matrix.save test_matrix.csv;
#X obj 20 178 ui.display @display_type 1 @size 150 18;
#X msg 20 264 test_matrix.csv;
#X msg 240 264 test_matrix2.csv;
#X obj 20 293 symbol;
#X obj 20 322 matrix.load;
#X obj 20 351 ui.display @display_type 1 @size 150 18;
#X connect 1 0 2 0;
#X connect 2 0 4 0;
#X connect 3 0 4 1;
#X connect 4 0 5 0;
#X connect 6 0 8 0;
#X connect 7 0 8 0;
#X connect 8 0 9 0;
#X connect 9 0 10 0;
