#N canvas 0 0 785 555 12;
#X declare -lib ceammc;
#X declare -lib matrix;
#X obj 454 50 cnv 1 311 23 empty empty empty 17 7 0 10 -245760 -1 0;
#X text 454 50 insert vector at specified matrix column;
#X obj 1 1 cnv 5 765 40 empty empty matrix.insert_col 20 20 0 20
-104026 -4096 0;
#X obj 617 11 matrix.insert_col;
#X obj 50 118 declare -lib matrix;
#X msg 50 162 3 3;
#X obj 251 162 bng 15 250 50 0 empty empty empty 17 7 0 10 -262144 -1
-1;
#X obj 50 190 matrix.zeros;
#X floatatom 194 190 5 0 0 0 - - -;
#X obj 251 190 matrix.col 10 20 30;
#X obj 50 219 matrix.insert_col 1 3 1 2 4 6;
#X obj 50 248 ui.display @display_type 1;
#X obj 20 297 cnv 1 745 1 empty empty empty 17 7 0 10 -203890 -1 0;
#X obj 20 302 cnv 5 90 26 empty empty arguments: 4 10 0 14 -262144
-49933 0;
#X text 110 337 1\.;
#X text 150 337 int;
#X obj 246 338 cnv 1 17 20 empty empty empty 17 7 0 10 -245695 -1 0;
#X text 245 337 N: col number. Min value: 0;
#X text 110 357 2\.;
#X text 150 357 list;
#X obj 246 358 cnv 1 16 20 empty empty empty 17 7 0 10 -245695 -1 0;
#X text 245 357 R: col to insert.;
#X obj 20 387 cnv 1 745 1 empty empty empty 17 7 0 10 -203890 -1 0;
#X obj 20 392 cnv 5 64 26 empty empty inlets: 4 10 0 14 -262144 -49933
0;
#X text 110 393 1\.;
#X text 150 393 *list*;
#X text 245 393 Matrix data constructor: NROWS NCOLS ...;
#X text 150 413 *data*;
#X text 245 413 Matrix data.;
#X text 110 433 2\.;
#X text 150 433 *int*;
#X text 245 433 col number.;
#X text 110 453 3\.;
#X text 150 453 *list*;
#X text 245 453 col to insert: NROWS NCOLS ...;
#X text 150 473 *data*;
#X text 245 473 col to insert.;
#X obj 20 503 cnv 1 745 1 empty empty empty 17 7 0 10 -203890 -1 0;
#X obj 20 508 cnv 5 73 26 empty empty outlets: 4 10 0 14 -262144
-49933 0;
#X text 110 509 1\.;
#X text 245 509 output new matrix (Matrix).;
#X obj 10 48 ui.link @title index @url ../index-help.pd;
#X text 51 45 ::;
#X obj 67 48 ui.link @title matrix @url matrix-help.pd;
#X text 116 45 ::;
#X obj 132 48 ui.link @title matrix @url matrix.matrix-help.pd;
#X obj 1 559 cnv 5 765 48 empty empty empty 17 7 0 10 -203890 -1 0;
#X text 10 562 library: matrix v0.1;
#X text 593 574 see also:;
#X obj 667 574 matrix.col;
#N canvas 10 581 400 290 info 0;
#X obj 1 1 cnv 1 107 287 empty empty empty 17 7 0 10 -183085 -1 0;
#X text 10 10 library:;
#X text 120 10 matrix;
#X text 10 32 version:;
#X text 120 32 0.1;
#X text 10 54 object:;
#X text 120 54 matrix.insert_col;
#X text 10 76 category:;
#X text 120 76 matrix;
#X text 10 98 since:;
#X text 120 98 0.1;
#X text 10 120 authors:;
#X text 120 120 Serge Poltavski;
#X text 10 142 license:;
#X text 120 142 GPLv3;
#X text 10 164 keywords:;
#X text 120 164 insert;
#X obj 120 186 declare -lib ceammc;
#X obj 120 268 cnv 1 270 1 empty empty empty 17 7 0 10 -203890 -1 0;
#X text 120 268 generated by pddoc;
#X restore 10 581 pd info;
#X connect 5 0 7 0;
#X connect 6 0 9 0;
#X connect 7 0 10 0;
#X connect 8 0 10 1;
#X connect 9 0 10 2;
#X connect 10 0 11 0;