#N canvas 0 0 278 158 12;
#X declare -lib matrix;
#X obj 20 48 declare -lib matrix;
#X msg 20 92 1 9 1 1 1 2 2 3 3 6 10;
#X obj 20 120 matrix.median;
#X obj 173 120 matrix.mean;
#X floatatom 20 149 8 0 0 0 - - -;
#X floatatom 173 149 8 0 0 0 - - -;
#X connect 1 0 2 0;
#X connect 1 0 3 0;
#X connect 2 0 4 0;
#X connect 3 0 5 0;
