#N canvas 0 0 313 273 12;
#X declare -lib matrix;
#X obj 20 48 declare -lib matrix;
#X msg 20 92 0 64 65;
#X obj 20 120 matrix.linspace;
#X obj 20 149 matrix.reshape 8 8;
#X obj 135 178 hradio 15 1 0 8 empty empty empty 17 7 0 10 -262144 -1
-1 0;
#X obj 173 207 hradio 15 1 0 8 empty empty empty 17 7 0 10 -262144 -1
-1 0;
#X obj 20 235 matrix.at 1 1;
#X floatatom 20 264 5 0 0 0 - - -;
#X connect 1 0 2 0;
#X connect 2 0 3 0;
#X connect 3 0 6 0;
#X connect 4 0 6 1;
#X connect 5 0 6 2;
#X connect 6 0 7 0;
