#N canvas 0 0 715 555 12;
#X declare -lib ceammc;
#X declare -lib matrix;
#X obj 491 50 cnv 1 204 21 empty empty empty 17 7 0 10 -245760 -1 0;
#X text 491 50 save matrix in CSV format;
#X obj 1 1 cnv 5 712 40 empty empty matrix.save 20 20 0 20 -104026
-4096 0;
#X obj 607 11 matrix.save;
#X obj 50 118 declare -lib matrix;
#X msg 50 162 2 4;
#X obj 50 190 matrix.randu;
#X msg 270 190 symbol test_matrix2.csv;
#X obj 50 219 matrix.save test_matrix.csv;
#X obj 50 248 ui.display @display_type 1 @size 150 18;
#X msg 50 334 test_matrix.csv;
#X msg 270 334 test_matrix2.csv;
#X obj 50 378 symbol;
#X obj 50 406 matrix.load;
#X obj 50 435 ui.display @display_type 1 @size 150 18;
#X obj 20 475 cnv 1 685 1 empty empty empty 17 7 0 10 -203890 -1 0;
#X obj 20 480 cnv 5 90 26 empty empty arguments: 4 10 0 14 -262144
-49933 0;
#X text 120 485 1\.;
#X text 150 485 symbol;
#X obj 241 486 cnv 1 48 18 empty empty empty 17 7 0 10 -245695 -1 0;
#X text 240 485 FNAME: filename to save.;
#X obj 20 513 cnv 1 685 1 empty empty empty 17 7 0 10 -203890 -1 0;
#X obj 20 518 cnv 5 64 26 empty empty inlets: 4 10 0 14 -262144 -49933
0;
#X text 120 523 1\.;
#X text 150 523 *list*;
#X text 240 523 Matrix data constructor: NROWS NCOLS ....;
#X text 150 541 *data*;
#X text 240 541 Matrix data.;
#X text 120 559 2\.;
#X text 150 559 *symbol*;
#X text 240 559 filename to save.;
#X obj 20 587 cnv 1 685 1 empty empty empty 17 7 0 10 -203890 -1 0;
#X obj 20 592 cnv 5 73 26 empty empty outlets: 4 10 0 14 -262144
-49933 0;
#X text 120 597 1\.;
#X text 240 597 output original matrix (Matrix);
#X obj 10 48 ui.link @title index @url ../index-help.pd;
#X text 51 45 ::;
#X obj 67 48 ui.link @title matrix @url matrix-help.pd;
#X text 116 45 ::;
#X obj 132 48 ui.link @title matrix @url matrix.matrix-help.pd;
#X obj 1 645 cnv 5 712 48 empty empty empty 17 7 0 10 -203890 -1 0;
#X text 10 648 library: matrix v0.1;
#X text 534 660 see also:;
#X obj 610 660 matrix.load;
#N canvas 10 667 400 290 info 0;
#X obj 1 1 cnv 1 107 287 empty empty empty 17 7 0 10 -183085 -1 0;
#X text 10 10 library:;
#X text 120 10 matrix;
#X text 10 32 version:;
#X text 120 32 0.1;
#X text 10 54 object:;
#X text 120 54 matrix.save;
#X text 10 76 category:;
#X text 120 76 matrix;
#X text 10 98 since:;
#X text 120 98 0.1;
#X text 10 120 authors:;
#X text 120 120 Serge Poltavski;
#X text 10 142 license:;
#X text 120 142 GPLv3;
#X obj 120 164 declare -lib ceammc;
#X obj 120 268 cnv 1 270 1 empty empty empty 17 7 0 10 -203890 -1 0;
#X text 120 268 generated by pddoc;
#X restore 10 667 pd info;
#X connect 5 0 6 0;
#X connect 6 0 8 0;
#X connect 7 0 8 1;
#X connect 8 0 9 0;
#X connect 10 0 12 0;
#X connect 11 0 12 0;
#X connect 12 0 13 0;
#X connect 13 0 14 0;